<svg xmlns="http://www.w3.org/2000/svg" width="42.157" height="50">
    <path d="M20.915 1.05c-4.319 1 -8.69 2.088 -12.838 3.608 -1.492 6.331 -2.103 12.88 -3.191 19.305 -1.285 8.332 -2.439 16.689 -3.86 24.997 4.847 0.346 10 0.05 14.963 0.148l24.971 0c-0.585 -5.657 -1.718 -11.523 -2.502 -17.26 -1.462 -8.96 -2.486 -18.012 -4.288 -26.903 -0.885 -1.093 -2.799 -0.957 -4.037 -1.564 -3.053 -0.81 -6.099 -1.875 -9.218 -2.332z" fill="#fff"/>
    <path d="M0.156 49.065c0.085 -0.514 1.645 -10.92 3.466 -23.124 1.82 -12.204 3.36 -22.23 3.422 -22.278 0.373 -0.293 13.244 -3.53 14.035 -3.53 0.79 0 13.661 3.237 14.034 3.53 0.062 0.049 1.602 10.074 3.423 22.278 1.82 12.204 3.38 22.61 3.465 23.124l0.156 0.935 -21.078 0 -21.079 0 0.156 -0.935zm40.344 -1.454c-0.117 -0.629 -1.572 -10.4 -3.232 -21.714 -1.661 -11.313 -3.146 -20.716 -3.3 -20.895 -0.155 -0.178 -3.119 -1.095 -6.586 -2.036l-6.303 -1.713 -6.304 1.713c-3.467 0.941 -6.43 1.858 -6.585 2.036 -0.155 0.179 -1.64 9.582 -3.3 20.895 -1.661 11.314 -3.116 21.085 -3.233 21.714l-0.214 1.142 19.636 0 19.635 0 -0.214 -1.142zm-10.855 -2.854c-0.66 -0.826 -2.062 -1.902 -3.116 -2.39l-1.918 -0.886 3.013 -0.122 3.012 -0.122 0 -1.592c0 -0.876 -0.108 -2.134 -0.24 -2.795 -0.225 -1.124 -0.354 -1.194 -1.974 -1.073 -0.953 0.072 -2.144 0.217 -2.647 0.322l-0.914 0.192 1.034 1.034c0.857 0.857 0.956 1.18 0.577 1.887 -0.583 1.09 -2.055 1.646 -4.357 1.646 -2.444 0 -2.686 -0.628 -0.52 -1.35 1.805 -0.601 2.276 -1.3 1.592 -2.364 -0.314 -0.49 -0.738 -0.515 -2.362 -0.144 -2.373 0.543 -3.723 0.134 -4.39 -1.33 -0.624 -1.369 -0.24 -1.692 1.268 -1.067 1.248 0.517 3.066 0.422 9.09 -0.475 2.755 -0.41 3.538 -0.792 2.694 -1.314 -0.175 -0.108 -1.304 0.06 -2.51 0.372 -1.205 0.313 -2.417 0.5 -2.694 0.415 -0.277 -0.085 -1.055 -0.276 -1.728 -0.425 -1.599 -0.354 -0.836 -0.856 2.264 -1.492 2.632 -0.54 5.402 -1.949 5.402 -2.747 0 -0.783 -0.48 -0.688 -2.908 0.57 -1.649 0.856 -2.315 1.015 -2.843 0.678 -0.543 -0.346 -0.982 -0.185 -2.06 0.757 -1.114 0.973 -1.522 1.116 -2.182 0.763 -1.302 -0.697 -0.959 -1.67 1.37 -3.889 1.924 -1.832 2.077 -2.096 1.298 -2.228 -0.486 -0.083 -1.313 -0.608 -1.838 -1.167l-0.955 -1.017 2.254 -0.01c1.347 -0.005 2.99 -0.342 4.083 -0.838 2.026 -0.92 3.136 -0.772 3.82 0.505 0.652 1.22 0.037 1.624 -2.87 1.887 -2.413 0.22 -2.511 0.273 -2.48 1.36 0.017 0.622 -0.1 1.346 -0.262 1.607 -0.43 0.696 1.1 0.596 2.065 -0.134 1.687 -1.276 6.001 -0.395 6.001 1.225 0 0.312 -0.484 1.143 -1.076 1.846 -0.852 1.013 -0.936 1.279 -0.402 1.279 0.37 0 0.789 0.3 0.93 0.668 0.209 0.545 0.639 0.618 2.32 0.395 2.29 -0.304 3.63 0.423 3.63 1.967 0 0.765 -0.192 0.805 -2.674 0.55l-2.675 -0.273 0.39 1.356c0.57 1.987 0.491 8.366 -0.11 8.967 -0.906 0.906 -2.177 0.53 -3.402 -1.004zm-18.855 -1.28c-0.745 -1.284 -1.26 -2.43 -1.145 -2.545 0.178 -0.177 0.716 0.032 2.773 1.077 0.314 0.16 0.969 -6.073 0.67 -6.372 -0.109 -0.108 -0.926 0.134 -1.817 0.538 -1.443 0.655 -1.626 0.905 -1.667 2.278 -0.056 1.888 -1.142 3.651 -2.249 3.651 -1.067 0 -1.067 -1.287 -0.001 -3.636 0.77 -1.696 0.771 -1.766 0.041 -1.766 -0.88 0 -1.464 -0.628 -1.897 -2.035 -0.276 -0.898 -0.21 -0.968 0.677 -0.71 2.494 0.722 3.698 0.73 5.517 0.036 1.358 -0.519 1.906 -0.96 1.906 -1.533 0 -0.782 -0.031 -0.78 -1.095 0.056 -1.386 1.09 -3.234 1.103 -4.307 0.03 -1.268 -1.268 -1.045 -1.74 0.67 -1.418l1.5 0.281 -0.292 -1.82c-0.16 -1.002 -0.555 -2.03 -0.877 -2.283 -0.861 -0.679 -0.717 -0.993 0.453 -0.993 0.572 0 1.413 0.374 1.87 0.831 0.458 0.457 0.832 1.299 0.832 1.87 0 1.131 0.035 1.159 1.005 0.787 0.94 -0.361 0.839 -2.577 -0.157 -3.422 -0.447 -0.379 -0.94 -1.224 -1.095 -1.878 -0.277 -1.166 -0.256 -1.182 1.125 -0.89 2.983 0.632 3.944 2.822 2.831 6.445 -0.245 0.798 -0.6 4.163 -0.789 7.477 -0.189 3.314 -0.58 6.54 -0.867 7.169 -0.86 1.872 -2.054 1.468 -3.615 -1.224zm2.139 -22.974c-1.206 -0.487 -2.775 -2.548 -2.301 -3.021 0.226 -0.227 1.021 -0.2 1.986 0.068 0.884 0.246 2.683 0.448 3.997 0.45l2.39 0.002 0 -1.89 0 -1.888 -1.35 0.24c-0.954 0.17 -1.749 -0.006 -2.702 -0.598 -2.02 -1.254 -1.676 -1.682 1.35 -1.682l2.702 0 0 -1.48c0 -0.914 -0.165 -1.377 -0.431 -1.212 -0.834 0.515 -3.686 -0.292 -4.733 -1.339 -1.166 -1.166 -1.056 -2.031 0.175 -1.373 1.2 0.643 7.073 0.494 9.552 -0.242 2.416 -0.718 4.164 -0.354 4.164 0.867 0 0.78 -1.24 1.322 -3.77 1.651 -1.83 0.238 -1.893 0.293 -1.719 1.485 0.217 1.478 0.66 1.828 1.628 1.286 0.771 -0.431 3.03 0.451 3.03 1.184 0 0.562 -1.601 1.338 -2.11 1.023 -0.237 -0.146 -0.867 -0.157 -1.4 -0.023 -0.745 0.187 -1.01 0.594 -1.146 1.752l-0.176 1.51 3.49 -0.284c3.838 -0.311 5.497 0.248 5.497 1.854 0 0.785 -0.282 0.82 -6.13 0.774 -4.708 -0.037 -6.55 0.107 -7.947 0.623 -2.011 0.741 -2.745 0.79 -4.046 0.263zm16.924 -5.673c-0.483 -0.339 -0.879 -0.821 -0.879 -1.072 0 -0.251 -0.482 -1.09 -1.072 -1.863l-1.073 -1.406 1.177 0.281c1.625 0.39 2.272 0.76 3.37 1.934 1.524 1.63 0.27 3.381 -1.523 2.126z" fill="#d0d0d0"/>
    <path d="M0.3 49.16c0 -1.71 6.648 -45.036 6.955 -45.326 0.408 -0.385 12.792 -3.702 13.824 -3.702 1.03 0 13.415 3.317 13.823 3.702 0.307 0.29 6.955 43.615 6.955 45.325 0 0.833 -0.197 0.841 -20.778 0.841 -20.582 0 -20.779 -0.008 -20.779 -0.84zm40.208 -1.757c-0.116 -0.743 -1.586 -10.643 -3.266 -22l-3.054 -20.648 -4.581 -1.253c-2.52 -0.69 -5.469 -1.488 -6.555 -1.774 -2.146 -0.567 -1.628 -0.654 -10.502 1.774l-4.58 1.253 -3.055 20.649c-1.68 11.356 -3.15 21.256 -3.266 21.999l-0.21 1.35 19.64 0 19.64 0 -0.211 -1.35zm-10.811 -2.784c-0.745 -1.053 -1.694 -1.797 -2.702 -2.119 -2.685 -0.858 -2.49 -1.227 0.65 -1.227l2.991 0 -0.005 -1.974c-0.01 -3.541 -0.217 -3.848 -2.429 -3.595 -1.06 0.121 -2.396 0.318 -2.968 0.437l-1.039 0.217 1.143 0.6c1.714 0.902 1.568 2.518 -0.298 3.297 -1.603 0.67 -3.868 0.78 -4.736 0.231 -0.406 -0.257 -0.053 -0.53 1.247 -0.963 1.622 -0.541 1.818 -0.745 1.855 -1.941 0.03 -1.002 -0.109 -1.28 -0.556 -1.107 -1.21 0.464 -3.839 0.735 -4.797 0.495 -0.926 -0.233 -2.244 -2.202 -1.782 -2.663 0.115 -0.116 0.775 0.024 1.466 0.31 1.904 0.789 12.28 -0.419 11.942 -1.39 -0.091 -0.26 -0.614 -0.422 -1.162 -0.36l-3.164 0.362c-2.452 0.282 -4.083 -0.081 -3.028 -0.673 0.343 -0.192 1.816 -0.658 3.274 -1.036 2.953 -0.765 4.622 -1.687 4.622 -2.554 0 -0.787 -0.573 -0.724 -2.547 0.283 -0.926 0.472 -2.216 0.803 -2.867 0.735 -0.789 -0.083 -1.525 0.196 -2.207 0.838 -1.153 1.082 -2.892 1.084 -3.097 0.003 -0.074 -0.387 0.826 -1.639 2.073 -2.886 1.902 -1.9 2.09 -2.226 1.373 -2.373 -0.925 -0.19 -2.286 -1.267 -2.286 -1.81 0 -0.194 0.931 -0.352 2.07 -0.352 1.138 0 2.82 -0.3 3.74 -0.668 1.866 -0.747 3.52 -0.526 3.923 0.526 0.4 1.042 -0.163 1.357 -2.95 1.648l-2.533 0.265 -0.228 1.704c-0.126 0.937 -0.165 1.767 -0.088 1.845 0.078 0.077 0.9 -0.247 1.827 -0.72 1.838 -0.937 3.81 -1.104 5.07 -0.43 1.048 0.56 1.056 2.538 0.015 3.48 -0.773 0.7 -0.771 0.733 0.104 1.63 0.798 0.816 1.106 0.874 2.876 0.54 1.666 -0.316 2.114 -0.257 2.805 0.37 0.452 0.409 0.823 1.11 0.823 1.559 0 0.754 -0.198 0.794 -2.664 0.53l-2.664 -0.286 0.368 1.588c0.508 2.186 0.481 7.494 -0.042 8.471 -0.705 1.319 -2.143 0.967 -3.418 -0.836zm-18.53 -0.88c-1.868 -3.006 -1.761 -3.556 0.393 -2.022l1.207 0.86 0.022 -0.964c0.011 -0.53 0.161 -2.225 0.333 -3.768 0.171 -1.543 0.208 -2.797 0.082 -2.787 -0.126 0.01 -0.977 0.432 -1.891 0.935 -1.457 0.804 -1.675 1.117 -1.762 2.54 -0.113 1.852 -1.076 3.571 -2.001 3.571 -1.058 0 -1.155 -1.178 -0.273 -3.302l0.843 -2.029 -0.96 -0.24c-0.588 -0.149 -1.133 -0.742 -1.41 -1.538 -0.43 -1.233 -0.407 -1.282 0.477 -0.998 2.14 0.686 3.758 0.692 5.523 0.017 1.292 -0.493 1.848 -0.943 1.848 -1.496 0 -0.77 -0.034 -0.77 -1.35 0.033 -1.77 1.08 -2.874 1.042 -3.98 -0.135 -1.217 -1.297 -1.155 -1.427 0.655 -1.372 1.492 0.046 1.553 -0.005 1.43 -1.199 -0.072 -0.686 -0.498 -1.76 -0.948 -2.39l-0.818 -1.142 1.051 0c1.345 0 2.714 1.363 2.714 2.701 0 0.762 0.221 1.039 0.83 1.039 0.693 0 0.832 -0.277 0.832 -1.662 0 -0.915 -0.197 -1.663 -0.437 -1.663 -0.451 0 -1.823 -2.865 -1.518 -3.17 0.476 -0.476 3.447 1.004 4 1.993 0.556 0.992 0.544 1.492 -0.12 4.779 -0.407 2.019 -0.877 6.038 -1.043 8.932 -0.411 7.148 -1.36 8.287 -3.729 4.477zm1.315 -23.639c-0.728 -0.444 -1.545 -1.22 -1.815 -1.724 -0.482 -0.902 -0.456 -0.913 1.532 -0.648 3.014 0.402 3.126 0.41 5.036 0.339l1.766 -0.065 0 -1.9c0 -1.716 -0.091 -1.893 -0.935 -1.824 -1.788 0.145 -2.35 -0.022 -3.51 -1.042l-1.165 -1.026 2.805 -0.013 2.805 -0.013 0 -1.398c0 -1.358 -0.048 -1.398 -1.695 -1.398 -1.838 0 -3.818 -1.158 -4.056 -2.374 -0.118 -0.6 -0.004 -0.644 0.7 -0.267 1.211 0.648 7.408 0.545 9.74 -0.162 1.964 -0.596 4.038 -0.32 4.038 0.537 0 0.808 -1.611 1.737 -3.012 1.737 -2.322 0 -2.658 0.258 -2.467 1.892 0.164 1.408 0.213 1.445 1.594 1.186 1.052 -0.198 1.635 -0.077 2.23 0.46 1.072 0.971 0.687 1.448 -1.175 1.455 -1.977 0.008 -2.382 0.311 -2.717 2.03l-0.275 1.412 3.366 -0.26c3.771 -0.29 5.78 0.335 5.78 1.8 0 0.77 -0.31 0.806 -6.337 0.745 -5.123 -0.052 -6.646 0.069 -7.947 0.633 -2.056 0.893 -2.665 0.877 -4.286 -0.112zm16.507 -6.641c-0.459 -0.9 -1.024 -1.752 -1.256 -1.895 -1.09 -0.674 -0.248 -0.981 1.122 -0.409 2.084 0.87 3.028 1.795 3.028 2.963 0 0.76 -0.226 0.975 -1.03 0.975 -0.781 0 -1.233 -0.396 -1.864 -1.634z" fill="#b0b0b0"/>
    <path d="M0.3 49.4c0 -1.488 6.712 -45.338 6.976 -45.574 0.163 -0.146 3.335 -1.067 7.05 -2.046l6.753 -1.78 6.752 1.78c3.715 0.979 6.887 1.9 7.05 2.046 0.264 0.236 6.976 44.086 6.976 45.573 0 0.516 -2.936 0.601 -20.778 0.601 -17.843 0 -20.779 -0.085 -20.779 -0.6zm40.313 -0.958c0.003 -0.812 -6.293 -43.464 -6.443 -43.647 -0.246 -0.301 -12.179 -3.403 -13.091 -3.403 -0.913 0 -12.845 3.102 -13.092 3.403 -0.15 0.183 -6.446 42.835 -6.443 43.647 0.003 0.682 1.211 0.727 19.535 0.727 18.323 0 19.531 -0.045 19.534 -0.727zm-10.686 -3.684c-0.638 -0.826 -2.096 -1.937 -3.238 -2.47l-2.078 -0.967 3.013 -0.024 3.012 -0.024 0 -2.251c0 -3.494 -0.085 -3.586 -3.053 -3.292 -2.456 0.243 -4.704 0.93 -3.14 0.96 0.838 0.015 2.038 1.318 2.038 2.212 0 0.374 -0.367 0.876 -0.815 1.115 -1.277 0.684 -4.404 0.985 -5.26 0.506 -0.665 -0.373 -0.495 -0.504 1.196 -0.93 1.86 -0.469 1.97 -0.574 1.97 -1.891 0 -1.357 -0.037 -1.387 -1.35 -1.1 -2.886 0.63 -4.521 0.38 -5.43 -0.828 -0.468 -0.625 -0.77 -1.219 -0.669 -1.32 0.101 -0.1 0.973 0.027 1.937 0.285 1.376 0.367 2.791 0.325 6.565 -0.193 2.646 -0.364 4.929 -0.779 5.072 -0.922 0.143 -0.143 0.054 -0.468 -0.2 -0.72 -0.336 -0.337 -0.82 -0.335 -1.8 0.006 -1.585 0.553 -4.512 0.604 -5.318 0.094 -0.62 -0.393 0.925 -1.017 3.741 -1.513 1.919 -0.337 4.1 -1.652 4.1 -2.47 0 -0.845 -0.541 -0.795 -2.568 0.24 -1.064 0.542 -2.185 0.798 -2.983 0.681 -0.984 -0.144 -1.455 0.038 -2.049 0.793 -0.784 0.997 -2.527 1.323 -2.998 0.56 -0.467 -0.755 0.212 -1.968 1.659 -2.959 0.781 -0.535 1.585 -1.342 1.786 -1.793 0.3 -0.67 0.137 -0.936 -0.89 -1.46 -2.073 -1.056 -1.872 -1.68 0.542 -1.68 1.17 0 2.798 -0.28 3.618 -0.622 1.945 -0.813 2.776 -0.787 3.59 0.113 1.013 1.119 0.334 1.664 -2.468 1.98l-2.544 0.289 -0.23 1.71c-0.125 0.94 -0.165 1.773 -0.088 1.85 0.078 0.078 0.9 -0.246 1.827 -0.719 1.854 -0.946 3.186 -1.072 4.809 -0.455 1.314 0.5 1.467 2.427 0.278 3.503 -0.77 0.697 -0.766 0.734 0.187 1.687 0.87 0.87 1.161 0.933 2.71 0.585 2.032 -0.456 3.709 0.338 3.709 1.758 0 0.807 -0.156 0.838 -2.767 0.559 -2.603 -0.279 -2.748 -0.25 -2.45 0.486 0.553 1.365 0.754 7.781 0.281 8.99 -0.622 1.592 -1.851 1.456 -3.254 -0.359zm-18.76 -1.02c-1.682 -2.705 -1.65 -3.164 0.146 -2.104 1.32 0.778 1.455 0.792 1.468 0.145 0.007 -0.393 0.182 -2.02 0.387 -3.616 0.206 -1.597 0.316 -2.96 0.245 -3.032 -0.072 -0.071 -0.972 0.28 -2.002 0.78 -1.74 0.845 -1.874 1.026 -1.895 2.547 -0.025 1.824 -1.007 3.646 -1.966 3.646 -1.05 0 -1.125 -1.087 -0.218 -3.139 0.475 -1.074 0.864 -2.003 0.864 -2.063 0 -0.06 -0.465 -0.227 -1.033 -0.37 -0.643 -0.16 -1.132 -0.654 -1.296 -1.31 -0.333 -1.326 -0.048 -1.618 1.02 -1.047 1.99 1.065 6.417 -0.042 6.854 -1.714 0.114 -0.436 0.082 -0.731 -0.071 -0.655 -0.154 0.076 -0.976 0.493 -1.827 0.927 -1.72 0.876 -3.231 0.535 -4 -0.9 -0.363 -0.68 -0.242 -0.74 1.202 -0.603l1.606 0.153 -0.244 -1.6c-0.134 -0.88 -0.625 -2.02 -1.092 -2.535l-0.848 -0.935 1.039 0c1.256 0 2.846 1.581 2.846 2.832 0 0.613 0.254 0.908 0.785 0.908 1.249 0 1.396 -2.667 0.21 -3.781 -0.504 -0.474 -1.01 -1.22 -1.125 -1.657 -0.32 -1.226 1.973 -1.068 3.265 0.224 1.194 1.194 1.263 2.288 0.365 5.753 -0.36 1.391 -0.79 5.092 -0.952 8.224 -0.398 7.614 -1.311 8.819 -3.733 4.923zm1.315 -23.638c-0.728 -0.444 -1.53 -1.191 -1.78 -1.66 -0.414 -0.772 -0.34 -0.854 0.777 -0.854 0.679 0 1.705 0.18 2.281 0.398 0.576 0.22 1.991 0.287 3.144 0.15l2.097 -0.248 0 -1.812 0 -1.813 -1.64 0c-1.182 0 -1.963 -0.298 -2.804 -1.07l-1.166 -1.07 1.601 0.22c0.881 0.121 2.144 0.112 2.805 -0.02 1.043 -0.209 1.204 -0.43 1.204 -1.644 0 -1.382 -0.027 -1.402 -1.847 -1.402 -1.354 0 -2.158 -0.268 -3.013 -1.004 -1.463 -1.26 -1.131 -1.626 1.03 -1.14 1.538 0.345 3.383 0.233 10.105 -0.617 1.513 -0.192 1.964 -0.105 2.164 0.417 0.37 0.965 -1.262 1.928 -3.268 1.928 -0.94 0 -1.796 0.088 -1.903 0.195 -0.108 0.108 -0.118 0.86 -0.023 1.673 0.168 1.435 0.213 1.47 1.597 1.21 1.052 -0.198 1.635 -0.077 2.23 0.46 1.12 1.015 0.671 1.449 -1.5 1.449 -1.912 0 -1.958 0.043 -2.445 2.245l-0.266 1.206 3.356 -0.258c2.12 -0.164 3.727 -0.09 4.364 0.2 1.049 0.478 1.63 1.414 1.256 2.02 -0.12 0.193 -2.972 0.33 -6.339 0.305 -4.81 -0.036 -6.511 0.103 -7.94 0.65 -2.284 0.875 -2.464 0.87 -4.077 -0.114zm16.674 -6.332c-0.384 -0.757 -0.984 -1.704 -1.335 -2.104 -0.581 -0.663 -0.564 -0.727 0.196 -0.727 1.428 0 3.658 1.784 3.658 2.925 0 1.674 -1.654 1.612 -2.52 -0.094z" fill="#909090"/>
    <path d="M0.3 49.55c0 -1.315 6.764 -45.508 6.997 -45.713 0.152 -0.134 3.314 -1.04 7.029 -2.015l6.753 -1.77 6.752 1.77c3.715 0.975 6.877 1.881 7.03 2.015 0.232 0.205 6.996 44.398 6.996 45.713 0 0.317 -6.15 0.45 -20.778 0.45 -14.628 0 -20.779 -0.133 -20.779 -0.45zm40.312 -1.316c0.003 -1.069 -6.251 -43.254 -6.442 -43.454 -0.068 -0.072 -3.042 -0.945 -6.608 -1.941l-6.483 -1.81 -6.484 1.81c-3.566 0.996 -6.54 1.87 -6.608 1.941 -0.191 0.2 -6.445 42.385 -6.442 43.454l0.002 0.935 19.531 0 19.532 0 0.002 -0.935zm-10.753 -3.569c-0.714 -0.901 -2.046 -1.938 -2.961 -2.304 -0.915 -0.366 -1.664 -0.778 -1.664 -0.915 0 -0.137 1.169 -0.185 2.597 -0.107l2.598 0.142 0.123 -2.81c0.092 -2.1 -0.023 -2.868 -0.453 -3.033 -0.317 -0.121 -2.523 0.091 -4.902 0.472 -2.38 0.38 -4.942 0.785 -5.695 0.898 -1.505 0.225 -2.753 -0.583 -3.13 -2.028 -0.175 -0.666 -0.077 -0.772 0.477 -0.52 1.374 0.625 4.919 0.63 8.74 0.012 2.139 -0.345 3.966 -0.706 4.062 -0.802 0.096 -0.095 0.066 -0.455 -0.066 -0.8 -0.208 -0.54 -0.45 -0.55 -1.776 -0.077 -1.782 0.636 -4.597 0.738 -5.451 0.198 -0.434 -0.275 -0.102 -0.502 1.246 -0.853l3.292 -0.856c1.824 -0.473 3.325 -1.508 3.325 -2.292 0 -0.844 -0.952 -0.745 -2.686 0.278 -0.97 0.572 -1.933 0.811 -2.771 0.688 -0.958 -0.14 -1.532 0.06 -2.258 0.785 -1.143 1.143 -2.473 1.268 -2.856 0.268 -0.193 -0.503 0.332 -1.285 1.825 -2.717 1.153 -1.105 2.093 -2.143 2.088 -2.306 -0.005 -0.163 -0.603 -0.577 -1.33 -0.92 -2.193 -1.036 -1.889 -1.571 1.005 -1.764 1.44 -0.096 3.232 -0.435 3.98 -0.755 1.573 -0.67 2.795 -0.185 2.795 1.11 0 0.647 -0.457 0.85 -2.597 1.155 -2.37 0.338 -2.597 0.458 -2.597 1.378 0 0.555 -0.194 1.37 -0.43 1.812 -0.581 1.085 0.344 1.074 2.399 -0.027 3.852 -2.064 7.344 0.419 4.411 3.137 -0.806 0.747 -0.923 1.019 -0.439 1.019 0.363 0 0.932 0.388 1.265 0.862 0.539 0.77 0.775 0.815 2.205 0.418 0.88 -0.244 1.741 -0.446 1.913 -0.447 0.557 -0.004 1.974 1.643 1.974 2.295 0 0.534 -0.439 0.59 -2.77 0.351 -2.613 -0.268 -2.753 -0.239 -2.457 0.508 0.529 1.332 0.77 6.938 0.365 8.48 -0.554 2.107 -1.761 2.132 -3.396 0.067zm-18.708 -0.952c-0.729 -1.172 -1.218 -2.237 -1.088 -2.367 0.13 -0.13 0.77 0.079 1.424 0.464l1.187 0.702 0.233 -1.762c0.128 -0.97 0.352 -2.732 0.497 -3.918l0.265 -2.155 -2.11 1.116c-1.858 0.984 -2.11 1.274 -2.113 2.44 -0.007 2.656 -1.469 4.65 -2.588 3.53 -0.402 -0.402 -0.021 -1.827 1.269 -4.747 0.076 -0.173 -0.129 -0.314 -0.455 -0.314 -0.777 0 -1.97 -1.334 -1.97 -2.204 0 -0.563 0.19 -0.612 1.067 -0.28 3.042 1.158 7.245 -0.307 7.245 -2.524 0 -0.203 -0.68 0.093 -1.513 0.657 -1.759 1.194 -2.525 1.27 -3.797 0.38 -1.32 -0.925 -1.142 -1.431 0.505 -1.431 1.415 0 1.426 -0.014 1.192 -1.559 -0.13 -0.857 -0.619 -1.979 -1.086 -2.493l-0.848 -0.935 0.922 0c1.23 0 2.963 1.788 2.963 3.059 0 1.532 1.499 0.976 1.83 -0.679 0.204 -1.02 0.042 -1.51 -0.787 -2.375 -1.96 -2.046 -1.072 -3.18 1.465 -1.868 1.634 0.846 1.882 2.17 1.03 5.51 -0.392 1.537 -0.843 5.319 -1.003 8.404 -0.409 7.897 -1.331 9.218 -3.736 5.35zm9.326 -3.235c-0.13 -0.21 0.561 -0.65 1.534 -0.98 1.545 -0.522 1.754 -0.737 1.65 -1.697 -0.093 -0.842 0.063 -1.1 0.662 -1.1 1.107 0 2.287 1.432 1.98 2.401 -0.398 1.252 -5.201 2.386 -5.826 1.376zm-7.502 -20.211c-2.689 -1.378 -3.015 -2.925 -0.52 -2.464 1.55 0.286 6.585 0.352 6.762 0.088 0.036 -0.053 -0.017 -0.892 -0.119 -1.863 -0.182 -1.74 -0.21 -1.767 -1.78 -1.767 -1.123 0 -1.941 -0.311 -2.761 -1.051l-1.166 -1.051 1.932 0.26c2.855 0.387 3.678 0.002 3.678 -1.718 0 -1.41 -0.02 -1.426 -1.847 -1.426 -1.354 0 -2.158 -0.268 -3.013 -1.004 -1.472 -1.267 -1.196 -1.548 1.028 -1.048 1.619 0.363 3.289 0.244 10.088 -0.72 1.011 -0.143 1.64 -0.013 1.994 0.413 0.797 0.96 -0.925 1.943 -3.404 1.943 -1.907 0 -2.019 0.059 -1.784 0.935 0.138 0.514 0.253 1.283 0.257 1.709 0.004 0.661 0.22 0.733 1.491 0.494 1.55 -0.29 2.67 0.236 2.67 1.254 0 0.36 -0.676 0.593 -1.96 0.676 -1.895 0.122 -1.973 0.18 -2.333 1.708 -0.204 0.87 -0.286 1.666 -0.182 1.77 0.105 0.105 1.652 -0.013 3.438 -0.261 2.972 -0.413 3.34 -0.384 4.324 0.352 0.592 0.441 1.076 1.063 1.076 1.382 0 0.468 -1.224 0.582 -6.441 0.598 -5.154 0.015 -6.75 0.16 -7.986 0.727 -1.876 0.86 -1.889 0.86 -3.442 0.064zm16.34 -6.289c-0.275 -0.644 -0.87 -1.592 -1.324 -2.106 -0.822 -0.933 -0.822 -0.935 0.018 -0.935 1.435 0 3.666 1.78 3.666 2.925 0 1.569 -1.706 1.653 -2.36 0.116z" fill="#6f6f6f"/>
    <path d="M0.418 48.603c0.125 -0.769 1.671 -11.1 3.436 -22.96 1.765 -11.86 3.264 -21.627 3.33 -21.706 0.066 -0.078 3.22 -0.976 7.007 -1.994l6.888 -1.851 6.887 1.851c3.787 1.018 6.94 1.916 7.007 1.994 0.066 0.079 1.565 9.846 3.33 21.706 1.765 11.86 3.311 22.191 3.436 22.96l0.226 1.397 -20.886 0 -20.887 0 0.226 -1.397zm40.413 -0.37c-0.116 -0.513 -1.62 -10.46 -3.343 -22.103 -1.722 -11.644 -3.234 -21.272 -3.36 -21.397 -0.124 -0.125 -3.112 -1.01 -6.638 -1.966l-6.411 -1.737 -6.412 1.737c-3.526 0.956 -6.513 1.84 -6.639 1.966 -0.125 0.125 -1.637 9.753 -3.36 21.397 -1.722 11.643 -3.226 21.59 -3.342 22.104l-0.21 0.935 19.963 0 19.962 0 -0.21 -0.935zm-11.01 -3.615c-0.715 -0.904 -1.946 -1.876 -2.736 -2.162 -2.12 -0.766 -1.744 -1.226 0.76 -0.932 2.804 0.33 3.145 -0.077 2.825 -3.368l-0.241 -2.493 -2.286 0.085c-1.257 0.046 -4.015 0.403 -6.129 0.792 -3.63 0.669 -3.887 0.668 -4.633 -0.008 -0.435 -0.393 -0.89 -1.092 -1.01 -1.552 -0.173 -0.663 -0.074 -0.773 0.478 -0.53 1.405 0.621 4.116 0.685 8.007 0.19 4.428 -0.565 5.095 -0.816 4.723 -1.785 -0.228 -0.594 -0.432 -0.602 -1.937 -0.07 -1.808 0.637 -3.793 0.724 -5.076 0.221 -0.628 -0.246 -0.363 -0.424 1.247 -0.836 3.47 -0.89 5.444 -1.697 6.206 -2.539 0.687 -0.76 0.688 -0.824 0.018 -1.081 -0.407 -0.156 -1.515 0.127 -2.578 0.658 -1.146 0.572 -2.29 0.85 -2.97 0.72 -0.808 -0.154 -1.351 0.057 -2.03 0.788 -1.063 1.148 -2.42 1.308 -2.795 0.329 -0.175 -0.456 0.408 -1.315 1.825 -2.688 1.146 -1.11 2.083 -2.166 2.083 -2.345 0 -0.18 -0.561 -0.576 -1.247 -0.88 -1.795 -0.794 -1.547 -1.18 0.963 -1.493 1.216 -0.152 2.733 -0.547 3.372 -0.879 1.484 -0.77 2.494 -0.765 3.141 0.015 0.931 1.122 0.18 1.748 -2.454 2.046 -2.445 0.277 -2.528 0.326 -2.528 1.488 0 0.66 -0.187 1.317 -0.416 1.458 -0.635 0.392 -0.495 1.04 0.224 1.04 0.352 0 1.408 -0.393 2.347 -0.872 3.705 -1.89 7.01 0.595 4.225 3.177 -0.806 0.747 -0.923 1.019 -0.439 1.019 0.363 0 0.945 0.405 1.292 0.901 0.582 0.83 0.762 0.863 2.295 0.403 1.76 -0.527 3.085 -0.113 3.555 1.114 0.396 1.031 -0.176 1.245 -2.709 1.016l-2.507 -0.228 0.326 1.825c0.525 2.941 0.385 7.652 -0.25 8.418 -0.866 1.043 -1.523 0.828 -2.94 -0.962zm-17.981 0.084c-0.315 -0.629 -0.912 -1.658 -1.325 -2.286 -0.85 -1.291 -0.345 -1.503 1.188 -0.498 0.968 0.634 0.988 0.619 1.22 -0.935 0.13 -0.869 0.354 -2.637 0.498 -3.93l0.263 -2.349 -2.12 1.015c-1.956 0.936 -2.121 1.13 -2.121 2.474 0 1.77 -1.037 3.911 -1.894 3.911 -1.032 0 -1.097 -0.988 -0.2 -3.078 1.004 -2.343 1.001 -2.324 0.288 -2.324 -0.733 0 -1.934 -1.345 -1.934 -2.166 0 -0.575 0.187 -0.581 1.713 -0.056 1.357 0.468 2.026 0.492 3.22 0.113 2.246 -0.71 3.378 -1.549 3.378 -2.5 0 -0.845 -0.006 -0.846 -1.143 -0.045 -1.812 1.276 -2.933 1.477 -4.072 0.731 -1.421 -0.931 -1.27 -1.48 0.41 -1.48 1.416 0 1.426 -0.013 1.19 -1.558 -0.13 -0.857 -0.493 -1.853 -0.805 -2.214 -0.739 -0.855 -0.717 -1.214 0.075 -1.214 1.005 0 2.683 1.929 2.683 3.085 0 0.82 0.156 0.987 0.727 0.776 1.655 -0.61 1.78 -2.192 0.312 -3.937 -1.752 -2.082 -1.17 -3.027 1.199 -1.948 1.759 0.802 2.13 2.424 1.293 5.66 -0.4 1.543 -0.85 5.33 -1.003 8.415 -0.275 5.57 -0.758 7.48 -1.89 7.48 -0.317 0 -0.835 -0.514 -1.15 -1.142zm8.884 -4.193c-0.41 -0.274 -0.07 -0.534 1.247 -0.953 1.61 -0.513 1.796 -0.701 1.69 -1.715 -0.093 -0.88 0.057 -1.14 0.662 -1.14 0.842 0 2.158 1.219 2.158 1.998 0 1.219 -4.52 2.64 -5.757 1.81zm-7.756 -20.236c-1.3 -0.642 -2.522 -2.166 -2.086 -2.602 0.137 -0.138 1.091 -0.025 2.12 0.25 2.434 0.651 6.56 0.23 6.228 -0.637 -0.126 -0.328 -0.23 -1.143 -0.23 -1.81 0 -1.135 -0.104 -1.213 -1.638 -1.213 -1.132 0 -1.999 -0.309 -2.8 -0.999l-1.162 -0.999 2.8 0.225 2.8 0.225 0 -1.666 0 -1.667 -2.155 -0.207c-1.577 -0.151 -2.36 -0.46 -2.919 -1.15 -0.42 -0.52 -0.707 -1.001 -0.636 -1.072 0.07 -0.07 0.92 0.074 1.889 0.32 1.296 0.329 2.664 0.311 5.18 -0.067 5.23 -0.786 6.7 -0.765 6.87 0.096 0.177 0.895 -1.392 1.56 -3.684 1.56 -1.752 0 -1.774 0.033 -1.368 2.065 0.245 1.221 0.375 1.317 1.489 1.094 1.405 -0.28 2.815 0.33 2.815 1.218 0 0.443 -0.502 0.609 -1.846 0.609 -2.087 0 -2.122 0.031 -2.537 2.245l-0.303 1.615 2.654 -0.343c3.879 -0.501 4.912 -0.406 5.857 0.539 1.566 1.566 0.681 1.825 -5.213 1.527 -4.916 -0.248 -5.73 -0.187 -8.053 0.603 -3.037 1.032 -2.53 1.002 -4.072 0.24zm16.637 -5.99c-0.15 -0.471 -0.77 -1.448 -1.378 -2.17l-1.105 -1.314 1.213 0.305c1.949 0.489 3.612 1.875 3.467 2.89 -0.174 1.226 -1.831 1.443 -2.197 0.29z" fill="#4f4f4f"/>
    <path d="M0.416 48.857c0.12 -0.628 1.673 -10.96 3.45 -22.96 1.776 -12 3.266 -21.87 3.31 -21.935 0.044 -0.066 3.19 -0.95 6.991 -1.963l6.912 -1.845 6.91 1.845c3.802 1.014 6.948 1.897 6.992 1.963 0.044 0.065 1.534 9.936 3.31 21.935 1.777 12 3.33 22.332 3.45 22.96l0.22 1.143 -20.882 0 -20.883 0 0.22 -1.143zm40.438 -0.83c-0.13 -0.63 -1.63 -10.568 -3.335 -22.087 -1.704 -11.518 -3.248 -21.076 -3.432 -21.238 -0.184 -0.162 -3.186 -1.069 -6.671 -2.014l-6.337 -1.72 -6.338 1.72c-3.485 0.945 -6.487 1.852 -6.671 2.014 -0.184 0.162 -1.728 9.72 -3.432 21.238 -1.704 11.519 -3.205 21.458 -3.335 22.086l-0.238 1.143 20.014 0 20.013 0 -0.238 -1.143zm-11.033 -3.472c-0.754 -0.938 -1.954 -1.959 -2.667 -2.27 -1.293 -0.562 -1.291 -0.564 1.049 -0.58 2.786 -0.02 2.942 -0.251 2.569 -3.82l-0.265 -2.531 -2.74 0.263c-1.507 0.146 -4.184 0.568 -5.947 0.94 -2.977 0.626 -3.282 0.625 -4.26 -0.015 -1.932 -1.267 -1.353 -1.846 1.608 -1.609 1.464 0.118 4.222 -0.007 6.13 -0.277 4.797 -0.68 4.998 -0.754 4.447 -1.637 -0.42 -0.671 -0.628 -0.68 -2.8 -0.114 -2.091 0.545 -5.11 0.409 -4.499 -0.203 0.121 -0.12 1.578 -0.569 3.238 -0.996 3.239 -0.833 5.54 -2.478 4.676 -3.342 -0.328 -0.328 -1.061 -0.146 -2.646 0.657 -1.417 0.718 -2.575 1.034 -3.278 0.893 -0.796 -0.16 -1.35 0.057 -2.076 0.81 -1.114 1.158 -2.237 1.159 -2.46 0.001 -0.096 -0.502 0.521 -1.387 1.762 -2.526 1.05 -0.965 1.909 -1.924 1.907 -2.132 -0.001 -0.208 -0.609 -0.74 -1.35 -1.182l-1.348 -0.804 2.235 -0.3c1.23 -0.165 2.976 -0.633 3.88 -1.041 1.835 -0.827 3.027 -0.466 3.027 0.917 0 0.572 -0.34 0.816 -1.247 0.895 -3.34 0.294 -3.85 0.504 -4.05 1.667 -0.108 0.623 -0.346 1.487 -0.53 1.921 -0.287 0.677 -0.192 0.756 0.668 0.553 0.552 -0.13 1.85 -0.561 2.885 -0.96 1.662 -0.64 2.023 -0.655 3.111 -0.134 1.65 0.79 1.77 1.866 0.37 3.326 -0.635 0.663 -0.94 1.206 -0.677 1.206 0.262 0 0.86 0.412 1.33 0.915 0.78 0.837 1.003 0.875 2.613 0.438 1.634 -0.442 1.834 -0.404 2.784 0.534 1.391 1.372 0.748 1.806 -2.17 1.465l-2.393 -0.28 0.315 2.1c0.447 2.976 0.265 7.643 -0.325 8.355 -0.794 0.956 -1.41 0.72 -2.876 -1.103zm-17.981 0.147c-0.315 -0.629 -0.912 -1.658 -1.325 -2.286 -0.845 -1.284 -0.478 -1.47 0.94 -0.477 0.523 0.366 1.043 0.573 1.157 0.46 0.256 -0.257 0.967 -5.08 0.978 -6.64l0.008 -1.149 -2.077 1.053c-1.779 0.901 -2.078 1.228 -2.078 2.266 0 2.5 -1.317 4.564 -2.36 3.698 -0.408 -0.338 -0.345 -0.883 0.298 -2.573 0.973 -2.56 0.955 -2.352 0.201 -2.352 -0.641 0 -2.146 -1.95 -1.784 -2.312 0.115 -0.114 1.028 0.01 2.03 0.278 1.619 0.432 2.067 0.381 4.004 -0.453 1.73 -0.745 2.182 -1.138 2.182 -1.898l0 -0.959 -1.858 1.038c-1.659 0.928 -1.977 0.98 -2.982 0.49 -1.739 -0.847 -1.718 -1.586 0.045 -1.586l1.508 0 -0.28 -1.559c-0.153 -0.857 -0.565 -1.887 -0.916 -2.288 -0.832 -0.952 -0.472 -1.266 0.868 -0.756 1.262 0.48 2.112 1.872 1.821 2.983 -0.24 0.916 -0.25 0.913 1.144 0.383 1.404 -0.534 1.416 -2.175 0.027 -3.826 -1.758 -2.088 -1.17 -3.027 1.215 -1.94 1.582 0.72 2.02 2.587 1.25 5.34 -0.351 1.257 -0.782 4.998 -0.958 8.312 -0.316 5.96 -0.784 7.895 -1.907 7.895 -0.318 0 -0.836 -0.514 -1.151 -1.142zm9.035 -4.151c-0.642 -0.162 -0.409 -0.365 1.039 -0.908 1.64 -0.614 1.851 -0.834 1.746 -1.82 -0.092 -0.863 0.06 -1.121 0.663 -1.121 0.842 0 2.158 1.218 2.158 1.997 0 1.13 -3.665 2.34 -5.606 1.852zm-7.514 -20.255c-1.404 -0.598 -2.937 -2.167 -2.523 -2.581 0.155 -0.155 1.186 -0.05 2.29 0.232 1.182 0.303 2.85 0.403 4.054 0.244l2.046 -0.272 -0.01 -1.827c-0.01 -1.81 -0.024 -1.828 -1.464 -1.83 -1.192 -0.003 -4.156 -1.277 -4.156 -1.787 0 -0.075 1.136 -0.054 2.525 0.046 1.388 0.1 2.7 0.007 2.914 -0.207 0.214 -0.215 0.27 -0.986 0.125 -1.715 -0.236 -1.18 -0.42 -1.324 -1.688 -1.324 -1.68 0 -3.667 -0.936 -4.038 -1.901 -0.203 -0.53 -0.098 -0.617 0.47 -0.38 1.468 0.61 4.585 0.697 7.403 0.206 5.585 -0.974 5.56 -0.973 5.846 -0.228 0.413 1.076 -0.36 1.522 -3.062 1.767l-2.484 0.225 0.418 1.645c0.396 1.562 0.483 1.633 1.728 1.399 1.454 -0.273 3.044 0.572 2.557 1.36 -0.163 0.263 -1.095 0.478 -2.071 0.478 -1.764 0 -1.779 0.012 -2.204 1.87l-0.428 1.87 1.501 -0.018c0.826 -0.01 2.298 -0.172 3.272 -0.36 1.992 -0.386 4.462 0.514 4.462 1.625 0 0.53 -0.863 0.603 -5.818 0.487 -4.95 -0.116 -6.163 -0.015 -8.133 0.68 -1.967 0.692 -2.498 0.737 -3.532 0.296zm15.623 -7.123c-0.712 -1.056 -1.208 -2.007 -1.102 -2.114 0.107 -0.106 0.87 0.128 1.696 0.52 1.62 0.769 2.506 1.976 2.142 2.923 -0.42 1.094 -1.432 0.602 -2.736 -1.33z" fill="#2f2f2f"/>
    <path d="M0.452 48.857c0.114 -0.4 1.654 -10.545 3.421 -22.544 1.768 -12 3.347 -21.972 3.51 -22.162 0.163 -0.189 3.311 -1.155 6.996 -2.148l6.7 -1.803 6.7 1.803c3.684 0.993 6.832 1.96 6.995 2.148 0.163 0.19 1.742 10.162 3.51 22.162 1.767 12 3.307 22.144 3.421 22.544 0.196 0.686 -0.982 0.727 -20.626 0.727 -19.645 0 -20.823 -0.041 -20.627 -0.727zm40.572 0.208c-0.008 -0.608 -6.635 -44.478 -6.728 -44.545 -0.07 -0.05 -3.073 -0.88 -6.672 -1.846l-6.545 -1.755 -6.546 1.755c-3.6 0.965 -6.602 1.796 -6.672 1.846 -0.093 0.067 -6.72 43.937 -6.728 44.545 -0.001 0.057 8.975 0.104 19.946 0.104 10.97 0 19.946 -0.047 19.945 -0.104zm-11.098 -4.523c-0.866 -0.945 -2.136 -1.966 -2.822 -2.27 -1.222 -0.54 -1.201 -0.551 1.118 -0.567 1.301 -0.009 2.49 -0.218 2.643 -0.465 0.152 -0.246 0.148 -1.649 -0.009 -3.117l-0.286 -2.668 -1.733 0.015c-1.536 0.013 -5.461 0.627 -9.274 1.451 -1.02 0.221 -1.499 0.091 -2.181 -0.591 -1.164 -1.164 -1.135 -1.85 0.06 -1.445 1.6 0.541 12.127 -0.373 12.57 -1.092 0.1 -0.161 -0.045 -0.597 -0.324 -0.969 -0.465 -0.621 -0.686 -0.622 -2.737 -0.015 -1.6 0.473 -2.6 0.552 -3.533 0.278 -1.255 -0.369 -1.198 -0.408 1.651 -1.115 3.294 -0.817 5.567 -2.013 5.567 -2.927 0 -1.088 -0.706 -1.081 -3.136 0.032 -1.897 0.868 -2.549 0.999 -3.14 0.63 -0.614 -0.384 -0.967 -0.243 -2.015 0.806 -0.699 0.698 -1.503 1.193 -1.788 1.098 -1.159 -0.386 -0.7 -1.637 1.323 -3.607 2.337 -2.277 2.59 -2.938 1.12 -2.938 -0.544 0 -1.2 -0.254 -1.457 -0.565 -0.383 -0.46 -0.056 -0.607 1.772 -0.796 1.233 -0.127 2.85 -0.546 3.592 -0.93 1.052 -0.544 1.569 -0.6 2.333 -0.252 2.015 0.919 0.995 2.102 -1.858 2.157 -2.107 0.04 -2.764 0.422 -2.812 1.633 -0.022 0.571 -0.182 1.366 -0.356 1.766 -0.25 0.578 -0.114 0.725 0.664 0.714 0.539 -0.007 1.343 -0.288 1.786 -0.623 0.444 -0.336 1.669 -0.61 2.722 -0.61 3.025 0 3.762 1.353 1.835 3.365 -1.061 1.107 -1.064 1.13 -0.208 1.401 0.479 0.152 0.87 0.552 0.87 0.888 0 0.485 0.526 0.587 2.535 0.492 2.282 -0.109 2.602 -0.02 3.21 0.879l0.676 0.999 -2.836 -0.228 -2.835 -0.227 0.28 1.862c0.436 2.911 0.297 8.048 -0.235 8.69 -0.72 0.866 -1.032 0.737 -2.752 -1.139zm-18.514 -0.832c-0.792 -1.226 -1.378 -2.301 -1.302 -2.39 0.076 -0.087 0.631 0.164 1.234 0.559 0.603 0.395 1.247 0.56 1.43 0.368 0.184 -0.193 0.466 -1.985 0.628 -3.982l0.294 -3.632 -2.117 0.93c-1.958 0.861 -2.118 1.04 -2.133 2.386 -0.02 1.807 -0.833 3.48 -1.78 3.663 -0.9 0.173 -0.95 -1.335 -0.093 -2.832 0.816 -1.428 0.766 -1.977 -0.209 -2.286 -0.816 -0.26 -1.907 -1.762 -1.543 -2.127 0.102 -0.102 1.005 0.029 2.007 0.29 1.57 0.41 2.111 0.361 3.9 -0.35 1.707 -0.679 2.103 -1.03 2.215 -1.97l0.137 -1.146 -1.433 0.886c-1.696 1.048 -3.309 1.137 -4.214 0.232 -0.917 -0.918 -0.833 -1.027 0.698 -0.907l1.35 0.105 -0.141 -1.87c-0.078 -1.028 -0.335 -2.103 -0.57 -2.39 -0.318 -0.384 -0.214 -0.519 0.402 -0.519 1.123 0 1.903 1.032 1.903 2.516 0 1.321 0.022 1.337 1.42 0.963 1.368 -0.367 1.306 -2.831 -0.104 -4.138 -1.456 -1.349 -1.4 -2.43 0.103 -2.054 2.165 0.54 2.708 1.416 2.457 3.96 -0.124 1.257 -0.415 3.127 -0.647 4.156 -0.233 1.028 -0.435 3.553 -0.45 5.61 -0.032 4.204 -0.486 6.68 -1.39 7.585 -0.54 0.539 -0.785 0.346 -2.052 -1.616zm10.082 -3.831c2.22 -0.726 2.59 -1.075 2.311 -2.183 -0.308 -1.229 0.51 -1.328 1.868 -0.228 1.865 1.51 -0.024 3.012 -3.687 2.93l-1.946 -0.043 1.454 -0.476zm-9.64 -20.65c-0.696 -0.695 -1.155 -1.376 -1.02 -1.511 0.136 -0.136 1.087 -0.011 2.114 0.276 1.18 0.33 2.713 0.417 4.168 0.235l2.3 -0.287 0 -1.84c0 -1.878 -0.132 -2.004 -1.944 -1.86 -0.498 0.039 -1.527 -0.268 -2.286 -0.682l-1.38 -0.753 2.795 -0.123 2.796 -0.122 -0.078 -1.748 -0.077 -1.747 -1.984 -0.003c-1.62 -0.002 -2.196 -0.217 -3.134 -1.165l-1.149 -1.162 1.17 0.438c1.72 0.644 5.795 0.533 9.018 -0.245 2.964 -0.715 4.149 -0.589 4.149 0.442 0 0.691 -2.37 1.481 -4.454 1.485 -0.878 0.001 -1.283 0.18 -1.178 0.522 0.088 0.285 0.279 1.056 0.423 1.713 0.238 1.077 0.395 1.172 1.604 0.976 1.449 -0.235 3.044 0.59 2.583 1.335 -0.15 0.243 -1.084 0.443 -2.074 0.443 -1.621 0 -1.828 0.114 -2.073 1.143 -0.15 0.628 -0.378 1.494 -0.506 1.923 -0.22 0.738 -0.023 0.764 3.724 0.483 3.73 -0.28 4.009 -0.244 4.873 0.62 1.394 1.393 0.51 1.612 -5.45 1.347 -4.26 -0.19 -5.694 -0.103 -7.38 0.449 -3.022 0.988 -4.093 0.876 -5.55 -0.581zm17.821 -5.071c-0.31 -0.515 -0.88 -1.45 -1.266 -2.078 -0.797 -1.3 -0.676 -1.377 0.899 -0.562 1.589 0.822 2.719 2.186 2.43 2.936 -0.357 0.932 -1.412 0.78 -2.063 -0.296z" fill="#020202"/>
</svg>
