<svg xmlns="http://www.w3.org/2000/svg" width="42.324" height="50">
    <path d="M0.895 49.6l6.781 -44.774 13.255 -4.238 13.64 4.007 6.781 44.619z" fill="#FEEC99"/>
    <path d="M0.22 49.029c0.12 -0.534 1.702 -10.875 3.515 -22.98 1.813 -12.105 3.354 -22.075 3.424 -22.156 0.07 -0.08 3.259 -0.99 7.085 -2.02l6.957 -1.873 6.915 1.87c3.803 1.028 6.98 1.937 7.061 2.02 0.081 0.083 1.624 10.054 3.43 22.16 1.804 12.104 3.38 22.445 3.5 22.979l0.217 0.971 -21.162 0 -21.162 0 0.22 -0.971zm40.36 -0.647c-0.004 -0.797 -6.411 -43.347 -6.548 -43.483 -0.084 -0.084 -3.008 -0.894 -6.5 -1.8l-6.346 -1.648 -6.377 1.657c-3.508 0.911 -6.427 1.705 -6.489 1.765 -0.108 0.107 -6.572 42.871 -6.575 43.509 -0.001 0.178 8.736 0.323 19.417 0.323 10.68 0 19.419 -0.145 19.418 -0.323zm-12.097 -1.981c-0.348 -0.318 -1.557 -0.918 -2.687 -1.332 -1.787 -0.656 -3.334 -2.123 -2.8 -2.657 0.098 -0.098 1.28 0.026 2.629 0.276 1.348 0.249 2.665 0.32 2.926 0.16 0.706 -0.437 0.254 -5.364 -0.547 -5.96 -0.356 -0.265 -0.827 -0.79 -1.047 -1.169 -0.362 -0.62 -0.704 -0.626 -3.556 -0.058 -3.103 0.62 -3.173 0.613 -4.194 -0.346 -0.572 -0.537 -0.955 -1.112 -0.852 -1.279 0.103 -0.166 2.103 -0.42 4.445 -0.562 2.553 -0.155 5.107 -0.586 6.38 -1.075 2.269 -0.872 3.522 -0.76 4.919 0.443 1.345 1.158 1.05 1.622 -1.034 1.622 -2.835 0 -3.376 0.293 -2.66 1.443 0.32 0.512 0.693 2.792 0.831 5.066 0.2 3.3 0.118 4.323 -0.405 5.07 -0.753 1.076 -1.448 1.182 -2.348 0.358zm-15.687 -0.824c-0.468 -0.736 -0.53 -1.494 -0.251 -3.129 0.201 -1.187 0.378 -2.61 0.392 -3.164l0.026 -1.006 -1.454 0.898c-1.458 0.902 -3.102 1.111 -4.911 0.626 -1.453 -0.389 -1.195 -0.74 1.157 -1.575 2.444 -0.869 6.502 -3.903 6.502 -4.863 0 -0.576 -0.139 -0.576 -1.249 -0.002 -1.581 0.818 -4.609 1.317 -4.921 0.811 -0.13 -0.211 0.817 -0.936 2.107 -1.611 2.752 -1.441 4.927 -3.741 4.927 -5.21 0 -0.972 0.087 -1.012 1.303 -0.588 1.222 0.426 2.149 1.487 2.149 2.458 0 0.234 -0.692 0.852 -1.537 1.375l-1.537 0.95 0.89 0.947c1.252 1.333 1.113 2.155 -0.603 3.57l-1.493 1.23 0.61 1.714c1.63 4.576 -0.047 9.805 -2.107 6.569zm8.176 -15.2c-0.46 -0.362 -0.752 -0.68 -0.648 -0.705 0.105 -0.025 1.647 -0.29 3.427 -0.588 1.78 -0.3 3.876 -0.81 4.656 -1.135 1.224 -0.51 1.58 -0.501 2.586 0.064 0.642 0.36 1.227 0.966 1.3 1.346 0.108 0.56 -0.422 0.737 -2.802 0.937 -1.614 0.136 -4.003 0.359 -5.308 0.495 -1.77 0.184 -2.587 0.08 -3.211 -0.413zm3.967 -6.416c-1.834 -1.058 -2.116 -2.011 -0.595 -2.011 0.913 0 1.046 -0.233 1.231 -2.158 0.114 -1.187 0.114 -3.129 0 -4.316l-0.207 -2.157 -1.671 0c-1.198 0 -1.672 0.183 -1.672 0.647 0 0.356 0.35 0.647 0.777 0.647 0.909 0 1.813 0.796 1.813 1.597 0 0.336 -0.52 0.561 -1.295 0.561 -0.984 0 -1.295 0.197 -1.295 0.819 0 0.649 0.29 0.805 1.403 0.755 1.15 -0.052 1.427 0.112 1.54 0.907 0.121 0.852 -0.052 0.971 -1.402 0.971 -1.496 0 -1.54 0.048 -1.54 1.64 0 1.536 -0.59 2.676 -1.382 2.676 -0.19 0 -0.345 -0.895 -0.345 -1.989 0 -1.925 -0.036 -1.98 -1.12 -1.708 -0.616 0.155 -1.376 0.07 -1.688 -0.19 -0.68 -0.564 -0.872 -0.284 -1.252 1.822 -0.346 1.918 -0.791 2.27 -2.03 1.607 -0.877 -0.469 -0.909 -0.674 -0.561 -3.58 0.202 -1.695 0.365 -4.296 0.36 -5.78 -0.007 -2.82 0.294 -3.181 1.637 -1.966 0.759 0.687 0.79 0.687 0.527 0 -0.242 -0.63 0.04 -0.734 2.031 -0.75 1.272 -0.01 3.186 -0.216 4.254 -0.458 4.2 -0.95 4.147 -0.952 5.008 0.147 0.713 0.91 0.818 1.809 0.818 7.052 0 5.698 -0.045 6.012 -0.863 6.078 -0.475 0.038 -1.591 -0.35 -2.48 -0.863zm-5.071 -5.97c0 -0.58 -0.248 -0.8 -0.797 -0.708 -0.439 0.075 -1.118 -0.131 -1.51 -0.457 -0.64 -0.531 -0.714 -0.44 -0.714 0.884 0 1.434 0.044 1.472 1.51 1.3 1.15 -0.134 1.51 -0.377 1.51 -1.019zm-0.013 -2.93c0.733 -0.463 0.425 -0.621 -2.037 -1.047 -1.341 -0.232 -1.916 0.374 -1.115 1.175 0.42 0.42 2.415 0.339 3.152 -0.128zm-0.85 -4.168c0 -0.21 0.86 -0.838 1.912 -1.396 2.229 -1.182 2.711 -2.025 1.524 -2.66 -1.217 -0.651 -1.043 -1.286 0.351 -1.286 1.526 0 3.117 1.102 3.117 2.16 0 1.249 -2.738 3.093 -4.965 3.344 -1.067 0.12 -1.94 0.047 -1.94 -0.162zm-4.748 -0.97c0 -0.268 0.165 -0.488 0.366 -0.488 0.2 0 1.09 -0.704 1.975 -1.564 1.225 -1.19 1.551 -1.798 1.364 -2.544 -0.29 -1.153 0.4 -1.547 1.798 -1.028 1.4 0.52 1.23 2.103 -0.432 4.016 -1.086 1.248 -1.817 1.667 -3.236 1.855 -1.22 0.16 -1.835 0.078 -1.835 -0.247z" fill="#cfcfcf"/>
    <path d="M0.897 45.145c0.412 -2.67 1.969 -13.011 3.46 -22.98 1.49 -9.968 2.734 -18.166 2.764 -18.216 0.03 -0.05 3.21 -0.948 7.066 -1.995l7.01 -1.903 6.953 1.88c3.823 1.034 6.994 1.932 7.044 1.995 0.05 0.063 1.498 9.533 3.217 21.044 1.718 11.512 3.27 21.853 3.446 22.98l0.322 2.05 -21.016 0 -21.015 0 0.749 -4.855zm39.666 2.805c-0.033 -1.387 -6.295 -42.815 -6.502 -43.022 -0.113 -0.113 -3.06 -0.974 -6.552 -1.913l-6.347 -1.71 -6.347 1.71c-3.49 0.94 -6.423 1.784 -6.515 1.876 -0.171 0.171 -6.552 42.292 -6.555 43.275 -0.002 0.424 4.168 0.54 19.417 0.54 18.214 0 19.419 -0.048 19.401 -0.756zm-12.05 -1.601c-0.289 -0.347 -0.943 -0.757 -1.456 -0.912 -2.192 -0.659 -3.737 -1.622 -3.737 -2.329 0 -0.67 0.231 -0.706 2.139 -0.329 3.086 0.61 3.471 0.343 3.471 -2.406 0 -1.865 -0.232 -2.62 -1.187 -3.867 -1.27 -1.66 -1.256 -1.658 -5.206 -0.659 -1.634 0.414 -2.003 0.365 -3.02 -0.394 -1.483 -1.107 -1.174 -1.626 0.998 -1.675 3.225 -0.072 7.294 -0.67 8.773 -1.287 2.132 -0.89 3.666 -0.766 4.75 0.387 1.173 1.249 0.859 1.586 -1.477 1.586 -1.009 0 -2.147 0.12 -2.53 0.267 -0.633 0.243 -0.63 0.314 0.029 0.796 1.07 0.783 1.69 9.094 0.782 10.48 -0.735 1.12 -1.58 1.245 -2.33 0.342zm-15.553 -0.452c-0.393 -0.473 -0.457 -1.596 -0.237 -4.125l0.303 -3.474 -1.818 0.928c-1.419 0.724 -2.234 0.866 -3.7 0.646 -1.035 -0.155 -1.881 -0.419 -1.881 -0.586 0 -0.167 0.944 -0.64 2.099 -1.05 2.478 -0.88 6.963 -4.08 6.963 -4.97 0 -0.422 -0.24 -0.52 -0.755 -0.306 -2.199 0.913 -4.684 1.48 -5.44 1.24 -0.7 -0.222 -0.46 -0.459 1.34 -1.314 2.46 -1.17 5.287 -4.017 5.287 -5.328 0 -1.228 1.357 -1.095 2.621 0.257l1.047 1.119 -1.677 1.412 -1.677 1.412 0.921 0.922c1.286 1.285 1.16 1.941 -0.646 3.39 -1.394 1.119 -1.511 1.362 -1.062 2.202 0.768 1.435 1.103 6.234 0.513 7.337 -0.586 1.095 -1.438 1.207 -2.2 0.288zm8.31 -15.372c-0.918 -0.934 -0.631 -1.106 2.304 -1.38 1.563 -0.146 3.45 -0.568 4.193 -0.939 1.475 -0.736 3.38 -0.535 4.191 0.441 0.836 1.008 0.15 1.375 -3.126 1.672 -1.726 0.157 -4.012 0.391 -5.08 0.52 -1.278 0.154 -2.127 0.046 -2.482 -0.314zm4.64 -6.202c-0.296 -0.356 -0.782 -0.647 -1.08 -0.647 -0.298 0 -0.765 -0.27 -1.037 -0.598 -0.396 -0.477 -0.277 -0.653 0.588 -0.87 0.675 -0.169 1.186 -0.678 1.354 -1.35 0.378 -1.506 0.02 -7.011 -0.487 -7.475 -0.687 -0.63 -3.634 -0.081 -3.362 0.627 0.127 0.332 0.56 0.603 0.962 0.603 0.869 0 1.767 0.812 1.767 1.597 0 0.336 -0.52 0.561 -1.295 0.561 -1.011 0 -1.295 0.19 -1.295 0.871 0 0.697 0.202 0.821 1.003 0.62 0.63 -0.158 1.206 -0.007 1.548 0.404 0.756 0.911 0.224 1.557 -1.282 1.557 -1.128 0 -1.269 0.147 -1.269 1.323 0 1.57 -0.738 3.12 -1.316 2.764 -0.225 -0.14 -0.41 -1.04 -0.41 -2.001 0 -1.626 -0.071 -1.73 -1.03 -1.49 -0.65 0.164 -1.225 0.023 -1.563 -0.384 -0.847 -1.021 -1.16 -0.769 -1.417 1.142 -0.131 0.982 -0.518 2.064 -0.858 2.405 -0.537 0.537 -0.718 0.519 -1.375 -0.137 -0.645 -0.646 -0.702 -1.14 -0.389 -3.376 0.202 -1.44 0.37 -3.93 0.371 -5.532 0.003 -1.968 0.17 -2.914 0.519 -2.913 0.741 0 1.858 1.749 1.858 2.91 0 1.021 0.242 1.04 3.135 0.255 1.116 -0.303 0.462 -1.007 -0.936 -1.007 -1.074 0 -2.63 -1.106 -2.63 -1.868 0 -0.16 1.104 -0.29 2.453 -0.29 1.35 0 3.692 -0.31 5.206 -0.69 4.059 -1.018 4.222 -0.79 4.597 6.441 0.163 3.152 0.17 6.06 0.016 6.463 -0.348 0.906 -1.627 0.953 -2.347 0.085zm-5.827 -6.265c0 -0.361 -0.4 -0.646 -0.921 -0.654 -0.507 -0.007 -1.235 -0.274 -1.618 -0.592 -0.62 -0.513 -0.697 -0.41 -0.697 0.917 0 1.487 0.009 1.494 1.618 1.232 1.024 -0.166 1.618 -0.498 1.618 -0.903zm-1.079 -7.048c0 -0.084 0.971 -0.755 2.158 -1.493 2.355 -1.464 2.685 -2.294 1.187 -2.991 -0.87 -0.405 -0.892 -0.484 -0.215 -0.76 2.051 -0.836 4.607 1.5 3.328 3.04 -0.89 1.072 -3.692 2.355 -5.146 2.355 -0.721 0 -1.312 -0.068 -1.312 -0.151zm-4.4 -0.94c-0.162 -0.163 0.52 -0.919 1.514 -1.681 1.456 -1.117 1.807 -1.653 1.803 -2.76 -0.003 -1.204 0.14 -1.373 1.158 -1.373 0.773 0 1.251 0.282 1.429 0.842 0.335 1.056 -0.777 3.26 -2.075 4.11 -1.175 0.77 -3.416 1.274 -3.829 0.861z" fill="#afafaf"/>
    <path d="M0.433 49.46c-0.035 -1.273 6.65 -45.021 6.929 -45.34 0.417 -0.48 12.448 -3.733 13.8 -3.733 1.34 0 13.371 3.25 13.82 3.732 0.306 0.329 6.896 43.463 6.895 45.126 0 0.709 -1.275 0.755 -20.715 0.755 -16.276 0 -20.717 -0.116 -20.729 -0.54zm40.162 -1.294c0.03 -1.297 -6.23 -42.867 -6.504 -43.186 -0.168 -0.196 -3.145 -1.104 -6.617 -2.018l-6.312 -1.663 -6.292 1.657c-3.461 0.912 -6.407 1.772 -6.547 1.912 -0.267 0.267 -6.534 41.194 -6.563 42.866l-0.017 0.971 19.42 0c15.24 0 19.421 -0.116 19.432 -0.54zm-11.797 -1.772c-0.133 -0.346 -0.796 -0.75 -1.475 -0.899 -1.726 -0.38 -4.003 -1.837 -4.003 -2.564 0 -0.482 0.336 -0.53 1.618 -0.232 0.89 0.207 2.153 0.38 2.805 0.386 1.171 0.01 1.187 -0.026 1.187 -2.73 0 -2.462 -0.133 -2.881 -1.305 -4.107l-1.305 -1.366 -2.823 0.654c-2.885 0.67 -3.78 0.523 -4.874 -0.796 -0.67 -0.806 -0.02 -0.988 3.873 -1.083 1.565 -0.038 3.895 -0.37 5.179 -0.739 3.948 -1.133 4.642 -1.185 5.787 -0.435 1.933 1.267 1.388 1.981 -1.511 1.981 -2.712 0 -3.065 0.205 -1.865 1.082 0.944 0.69 1.588 8.486 0.837 10.133 -0.562 1.233 -1.77 1.64 -2.125 0.715zm-15.828 -0.485c-0.382 -0.46 -0.445 -1.605 -0.224 -4.1 0.169 -1.903 0.2 -3.46 0.07 -3.46 -0.13 0 -0.923 0.405 -1.764 0.901 -1.192 0.703 -1.911 0.838 -3.262 0.61 -0.952 -0.161 -1.732 -0.439 -1.732 -0.617 0 -0.179 0.816 -0.594 1.814 -0.924 2.165 -0.714 6.817 -4.106 6.817 -4.97 0 -0.754 0.016 -0.754 -1.875 0.037 -0.852 0.356 -2.284 0.645 -3.182 0.642l-1.632 -0.006 1.942 -1.102c2.706 -1.536 5.179 -4.034 5.179 -5.232 0 -1.398 1.427 -1.292 2.594 0.191l0.93 1.183 -1.645 1.382 -1.645 1.381 0.961 1.024c1.27 1.351 1.227 1.602 -0.533 3.126l-1.496 1.294 0.633 2.36c0.738 2.757 0.794 4.279 0.211 5.812 -0.47 1.238 -1.362 1.43 -2.161 0.468zm8.516 -15.338c-1.342 -0.826 -0.815 -1.155 2.264 -1.413 1.66 -0.14 3.584 -0.587 4.275 -0.995 1.078 -0.637 1.444 -0.663 2.59 -0.189 0.735 0.305 1.336 0.724 1.336 0.933 0 0.208 0.048 0.524 0.108 0.702 0.059 0.178 -1.252 0.45 -2.913 0.605 -1.662 0.155 -3.895 0.403 -4.963 0.551 -1.128 0.157 -2.258 0.076 -2.697 -0.194zm3.395 -6.83c-1.357 -0.927 -1.521 -1.173 -0.863 -1.298 1.666 -0.317 1.891 -0.917 1.891 -5.052 0 -2.212 -0.182 -4.134 -0.405 -4.272 -0.223 -0.138 -1.18 -0.127 -2.125 0.025 -1.221 0.195 -1.653 0.448 -1.49 0.872 0.125 0.328 0.572 0.597 0.993 0.597 0.934 0 1.91 1.09 1.528 1.708 -0.153 0.247 -0.752 0.45 -1.331 0.45 -0.785 0 -1.054 0.233 -1.054 0.913 0 0.729 0.192 0.864 0.949 0.666 0.94 -0.246 2.072 0.335 2.072 1.063 0 0.208 -0.372 0.379 -0.828 0.379 -1.473 0 -2.193 0.502 -2.193 1.528 0 1.471 -0.793 3.313 -1.294 3.004 -0.237 -0.147 -0.432 -1.033 -0.432 -1.968 0 -1.595 -0.08 -1.701 -1.27 -1.701 -0.697 0 -1.388 -0.194 -1.535 -0.432 -0.539 -0.871 -0.971 -0.387 -1.204 1.347 -0.296 2.207 -0.905 2.918 -1.937 2.26 -0.526 -0.337 -0.716 -0.962 -0.65 -2.149 0.052 -0.92 0.15 -3.469 0.217 -5.664 0.085 -2.797 0.28 -3.99 0.651 -3.991 0.94 -0.003 1.78 1.872 2.09 4.66 0.236 2.122 0.44 2.669 0.927 2.482 0.343 -0.131 1.094 -0.24 1.668 -0.24 0.744 0 1.043 -0.239 1.043 -0.835 0 -0.627 -0.35 -0.87 -1.402 -0.971 -1.804 -0.174 -1.897 -1.336 -0.133 -1.641 0.699 -0.121 1.233 -0.366 1.187 -0.544 -0.046 -0.178 -0.083 -0.491 -0.083 -0.695 0 -0.205 -0.467 -0.283 -1.037 -0.174 -0.7 0.134 -1.366 -0.132 -2.05 -0.815l-1.013 -1.013 3.452 -0.24c1.899 -0.131 4.171 -0.483 5.05 -0.781 1.896 -0.644 3.247 -0.128 3.552 1.357 0.381 1.857 0.723 10.908 0.44 11.647 -0.392 1.019 -1.391 0.876 -3.381 -0.482zm-5.445 -12.983c0 -0.22 0.372 -0.52 0.827 -0.665 1.246 -0.395 3.057 -1.937 3.057 -2.602 0 -0.323 -0.391 -0.712 -0.87 -0.863 -1.014 -0.322 -0.73 -1.077 0.406 -1.077 1.015 0 3.053 1.611 3.053 2.414 0 0.882 -3.81 3.196 -5.263 3.196 -0.665 0 -1.21 -0.181 -1.21 -0.403zm-4.52 -0.875c-0.111 -0.178 0.588 -0.959 1.553 -1.734 1.464 -1.177 1.724 -1.616 1.572 -2.652 -0.153 -1.047 -0.033 -1.24 0.77 -1.24 0.523 0 1.205 0.305 1.516 0.68 0.47 0.567 0.431 0.927 -0.235 2.164 -0.44 0.816 -1.053 1.694 -1.363 1.951 -0.755 0.628 -3.562 1.239 -3.814 0.831z" fill="#8f8f8f"/>
    <path d="M0.46 49.245c0.02 -1.3 6.714 -44.953 6.924 -45.164 0.33 -0.33 12.845 -3.709 13.737 -3.709 1.136 0 13.52 3.37 13.867 3.774 0.25 0.292 6.9 44.009 6.892 45.315 -0.003 0.424 -4.436 0.539 -20.718 0.539 -19.444 0 -20.713 -0.046 -20.702 -0.755zm40.18 -0.31c0.154 -0.154 -6.068 -43.715 -6.302 -44.123 -0.03 -0.05 -2.988 -0.88 -6.575 -1.844l-6.521 -1.752 -5.974 1.566c-3.285 0.86 -6.262 1.724 -6.614 1.917 -0.48 0.264 -1.46 5.834 -3.905 22.195 -1.795 12.013 -3.173 21.933 -3.063 22.043 0.263 0.262 38.69 0.261 38.953 -0.001zm-11.85 -2.562c-0.128 -0.334 -0.788 -0.729 -1.467 -0.878 -1.557 -0.342 -4.003 -1.812 -4.003 -2.405 0 -0.296 0.963 -0.352 2.805 -0.163l2.805 0.287 0 -2.8c0 -2.538 -0.124 -2.931 -1.326 -4.188 -1.282 -1.342 -1.393 -1.374 -3.346 -0.955 -1.11 0.238 -2.31 0.543 -2.665 0.677 -0.356 0.134 -1.326 -0.172 -2.157 -0.682 -1.368 -0.839 -1.43 -0.955 -0.647 -1.236 0.474 -0.17 1.104 -0.219 1.4 -0.108 0.852 0.32 7.975 -0.798 9.259 -1.453 1.527 -0.779 2.948 -0.752 4.133 0.078 1.849 1.295 1.218 1.917 -1.954 1.927 -2.839 0.01 -2.889 0.029 -1.964 0.755 0.835 0.657 0.983 1.31 1.242 5.514 0.257 4.164 0.202 4.861 -0.44 5.502 -0.892 0.893 -1.368 0.93 -1.675 0.128zm-15.79 -0.429c-0.386 -0.464 -0.447 -1.616 -0.224 -4.174 0.177 -2.036 0.145 -3.455 -0.076 -3.347 -2.782 1.352 -3.667 1.59 -5.075 1.361 -2.02 -0.328 -1.984 -0.743 0.119 -1.373 2.082 -0.623 6.945 -4.142 6.945 -5.025 0 -0.804 -0.75 -0.805 -2.158 0 -0.593 0.339 -1.855 0.615 -2.805 0.612l-1.726 -0.003 1.726 -0.89c2.45 -1.264 5.395 -4.222 5.395 -5.42 0 -1.152 0.712 -1.262 2.061 -0.317 1.36 0.953 1.192 1.948 -0.568 3.353l-1.528 1.218 1.096 0.863c0.603 0.474 1.096 1.052 1.096 1.284 0 0.232 -0.705 1.069 -1.568 1.859 -0.871 0.798 -1.436 1.65 -1.27 1.917 0.577 0.935 1.067 5.47 0.751 6.957 -0.348 1.636 -1.344 2.147 -2.192 1.125zm8.486 -15.398c-1.367 -0.796 -0.796 -1.141 2.252 -1.36 1.792 -0.128 3.465 -0.515 4.14 -0.957 1.25 -0.82 2.74 -0.646 3.83 0.445 1.041 1.04 0.472 1.403 -2.243 1.428 -1.362 0.012 -3.155 0.222 -3.985 0.466 -1.874 0.552 -3.02 0.546 -3.994 -0.022zm3.395 -6.805c-1.357 -0.927 -1.521 -1.173 -0.863 -1.298 1.666 -0.317 1.891 -0.917 1.891 -5.052 0 -2.212 -0.182 -4.134 -0.405 -4.272 -0.223 -0.138 -1.18 -0.127 -2.125 0.025 -1.221 0.195 -1.653 0.448 -1.49 0.872 0.125 0.328 0.572 0.597 0.993 0.597 0.934 0 1.91 1.09 1.528 1.708 -0.153 0.247 -0.752 0.45 -1.331 0.45 -0.785 0 -1.054 0.233 -1.054 0.913 0 0.729 0.192 0.864 0.949 0.666 0.925 -0.242 2.072 0.332 2.072 1.036 0 0.193 -0.629 0.412 -1.397 0.486 -1.23 0.12 -1.427 0.318 -1.644 1.66 -0.48 2.98 -1.706 3.59 -1.706 0.85 0 -1.615 -0.08 -1.727 -1.242 -1.727 -0.683 0 -1.479 -0.286 -1.769 -0.635 -0.446 -0.538 -0.25 -0.68 1.264 -0.922 1.498 -0.24 1.77 -0.434 1.662 -1.185 -0.099 -0.677 -0.449 -0.902 -1.425 -0.912 -1.841 -0.02 -1.748 -1.265 0.108 -1.444 1.517 -0.146 1.516 -0.145 1.165 -1.06 -0.147 -0.382 -0.626 -0.545 -1.253 -0.425 -0.674 0.13 -1.355 -0.146 -2.028 -0.819l-1.013 -1.013 3.884 -0.263c2.136 -0.145 4.42 -0.517 5.075 -0.827 1.066 -0.504 1.296 -0.464 2.2 0.385 0.918 0.862 1.033 1.432 1.283 6.37 0.37 7.316 -0.058 8.068 -3.33 5.836zm-11.062 -0.29c-0.437 -0.525 -0.438 -1.275 -0.006 -3.802 0.296 -1.73 0.469 -4.155 0.384 -5.386 -0.158 -2.282 -0.085 -2.467 0.751 -1.909 1.105 0.738 1.575 2.545 1.532 5.889 -0.064 4.956 -1.133 7.05 -2.66 5.209zm5.934 -12.548c-0.178 -0.178 0.388 -0.727 1.257 -1.22 2.112 -1.197 2.787 -2.304 1.761 -2.887 -0.42 -0.24 -0.646 -0.625 -0.503 -0.858 0.554 -0.895 3.641 0.84 3.641 2.047 0 1.28 -5.287 3.787 -6.156 2.918zm-3.146 -2.889c1.493 -1.43 1.876 -2.068 1.683 -2.805 -0.196 -0.748 -0.064 -0.953 0.611 -0.953 1.332 0 1.926 0.985 1.412 2.338 -0.698 1.834 -2.536 3.272 -4.184 3.272l-1.455 0 1.933 -1.852z" fill="#6f6f6f"/>
    <path d="M0.448 49.602c0 -0.546 6.418 -43.122 6.713 -44.536 0.222 -1.063 0.663 -1.248 7.119 -2.987l6.882 -1.854 6.912 1.862c5.877 1.583 6.944 1.998 7.122 2.77 0.257 1.113 6.68 44.105 6.68 44.71 0 0.283 -7.172 0.433 -20.714 0.433 -12.375 0 -20.714 -0.16 -20.714 -0.398zm40.263 -0.789c0.17 -0.305 -6.155 -43.743 -6.414 -44.056 -0.067 -0.08 -3.046 -0.915 -6.621 -1.855l-6.5 -1.708 -6.527 1.722c-3.59 0.947 -6.57 1.782 -6.62 1.855 -0.247 0.352 -6.568 43.761 -6.414 44.042 0.098 0.178 8.894 0.324 19.547 0.324 10.653 0 19.45 -0.146 19.549 -0.324zm-11.784 -2.485c-0.274 -0.33 -1.21 -0.825 -2.081 -1.101 -1.923 -0.609 -3.526 -1.576 -3.526 -2.125 0 -0.239 1.157 -0.298 2.805 -0.144l2.805 0.262 0 -2.79c0 -2.488 -0.14 -2.946 -1.292 -4.236l-1.292 -1.448 -2.193 0.507c-3.045 0.702 -4.032 0.638 -5.209 -0.343l-1.018 -0.848 2.075 -0.015c2.975 -0.02 8.084 -0.87 9.447 -1.572 1.524 -0.784 2.946 -0.76 4.133 0.072 1.883 1.319 1.221 1.917 -2.12 1.917l-3.079 0 1.09 0.858c0.988 0.777 1.119 1.258 1.396 5.133 0.169 2.352 0.182 4.667 0.03 5.145 -0.357 1.126 -1.34 1.49 -1.971 0.728zm-15.66 -0.258c-0.689 -0.4 -0.742 -0.857 -0.48 -4.086 0.172 -2.126 0.13 -3.636 -0.1 -3.636 -0.218 0 -0.826 0.302 -1.352 0.67 -0.645 0.452 -1.694 0.628 -3.224 0.54l-2.269 -0.13 2.805 -1.385c3.44 -1.698 6.042 -3.8 6.042 -4.884 0 -0.79 -0.047 -0.789 -1.834 0.022 -1.009 0.458 -2.514 0.829 -3.345 0.823l-1.51 -0.01 1.726 -0.903c3.227 -1.69 6.073 -4.653 5.623 -5.855 -0.278 -0.745 0.68 -0.676 1.833 0.132 1.15 0.805 1.249 2.15 0.204 2.758 -0.415 0.242 -1.105 0.715 -1.534 1.051 -0.74 0.582 -0.725 0.666 0.32 1.71 1.302 1.303 1.156 1.887 -0.807 3.227 -1.461 0.998 -1.466 1.01 -0.838 2.512 0.706 1.69 0.666 7.551 -0.054 7.765 -0.237 0.071 -0.78 -0.074 -1.206 -0.321zm8.219 -15.5c-1.375 -0.844 -0.787 -1.284 1.726 -1.294 1.533 -0.006 3.2 -0.336 4.364 -0.863 1.604 -0.728 2.049 -0.774 3.015 -0.311 0.623 0.299 1.202 0.9 1.287 1.338 0.128 0.668 -0.043 0.752 -1.074 0.527 -0.675 -0.147 -2.198 -0.064 -3.384 0.183 -3.82 0.798 -5.163 0.893 -5.934 0.42zm3.574 -6.806l-1.928 -1.12 1.404 -0.363 1.403 -0.364 -0.123 -4.407 -0.123 -4.407 -1.884 0.087c-2.162 0.1 -2.33 0.192 -1.982 1.098 0.15 0.39 0.583 0.575 1.052 0.453 0.507 -0.133 0.97 0.11 1.267 0.666 0.413 0.772 0.328 0.891 -0.718 1.012 -0.837 0.096 -1.226 0.414 -1.321 1.078 -0.111 0.78 0.106 0.965 1.261 1.079 1.998 0.196 2.168 1.216 0.204 1.216 -1.351 0 -1.547 0.133 -1.547 1.05 0 1.401 -0.733 3.265 -1.284 3.265 -0.243 0 -0.442 -0.84 -0.442 -1.867 0 -1.8 -0.043 -1.86 -1.211 -1.69 -0.734 0.108 -1.422 -0.075 -1.745 -0.465 -0.454 -0.546 -0.272 -0.687 1.211 -0.937 1.49 -0.252 1.745 -0.451 1.745 -1.365 0 -0.882 -0.155 -1.02 -0.884 -0.79 -1.11 0.353 -2.466 -0.61 -1.618 -1.148 0.308 -0.196 1.011 -0.358 1.563 -0.362 0.725 -0.005 0.96 -0.216 0.846 -0.762 -0.089 -0.43 -0.503 -0.724 -0.963 -0.684 -1.192 0.106 -2.828 -0.616 -2.828 -1.247 0 -0.385 0.897 -0.578 2.968 -0.64 1.632 -0.05 3.777 -0.414 4.768 -0.81 1.751 -0.702 1.828 -0.696 2.796 0.214 0.91 0.854 1.016 1.412 1.233 6.418 0.217 5.029 -0.043 7.073 -0.883 6.955 -0.17 -0.024 -1.177 -0.547 -2.237 -1.163zm-11.223 -0.29c-0.413 -0.498 -0.414 -1.264 -0.005 -3.56 0.287 -1.61 0.451 -4.044 0.366 -5.41 -0.159 -2.522 -0.092 -2.712 0.75 -2.15 1.033 0.69 1.467 2.353 1.467 5.619 0 5.067 -1.06 7.33 -2.578 5.5zm6.036 -12.637c0.003 -0.178 0.692 -0.768 1.53 -1.312 1.9 -1.23 2.266 -2.107 1.216 -2.902 -0.756 -0.572 -0.72 -0.614 0.526 -0.627 1.562 -0.016 2.919 1.24 2.505 2.317 -0.486 1.267 -5.795 3.586 -5.777 2.524zm-3.266 -2.823c1.493 -1.43 1.876 -2.068 1.683 -2.805 -0.198 -0.756 -0.065 -0.953 0.643 -0.953 0.49 0 1.078 0.334 1.307 0.742 0.894 1.598 -2.01 4.868 -4.322 4.868l-1.244 0 1.933 -1.852z" fill="#4f4f4f"/>
    <path d="M0.631 48.382c0.143 -0.89 1.706 -11.207 3.474 -22.927 1.767 -11.72 3.27 -21.359 3.338 -21.42 0.07 -0.061 3.185 -0.93 6.924 -1.929l6.798 -1.817 6.883 1.831c6.448 1.715 6.898 1.902 7.116 2.955 0.23 1.104 6.712 44.286 6.712 44.709 0 0.119 -9.338 0.216 -20.752 0.216l-20.752 0 0.26 -1.618zm40.218 -0.432c-0.129 -0.653 -1.622 -10.605 -3.318 -22.117 -1.696 -11.511 -3.275 -21.05 -3.509 -21.195 -0.233 -0.146 -3.23 -0.995 -6.66 -1.885l-6.234 -1.619 -6.268 1.66c-3.447 0.914 -6.42 1.762 -6.606 1.885 -0.187 0.124 -1.734 9.643 -3.438 21.154 -1.705 11.512 -3.206 21.464 -3.337 22.117l-0.237 1.187 19.92 0 19.92 0 -0.233 -1.187zm-11.892 -1.585c-0.29 -0.35 -1.24 -0.862 -2.111 -1.138 -1.923 -0.609 -3.526 -1.576 -3.526 -2.125 0 -0.239 1.157 -0.298 2.805 -0.144l2.805 0.262 0 -2.977c0 -2.753 -0.098 -3.069 -1.306 -4.209l-1.305 -1.232 -2.827 0.534c-2.288 0.431 -3.027 0.426 -3.873 -0.026 -0.576 -0.308 -1.046 -0.692 -1.046 -0.854 0 -0.162 1.734 -0.417 3.854 -0.568 2.12 -0.15 5.149 -0.698 6.73 -1.217 2.686 -0.882 2.954 -0.899 4.023 -0.253 0.63 0.381 1.207 0.997 1.284 1.37 0.116 0.565 -0.38 0.677 -3.021 0.679l-3.16 0.002 1.15 0.969c1.07 0.9 1.172 1.288 1.438 5.51 0.262 4.15 0.215 4.605 -0.55 5.296 -0.731 0.662 -0.902 0.677 -1.364 0.12zm-15.744 -0.492c-0.509 -0.508 -0.585 -1.39 -0.378 -4.331l0.26 -3.693 -1.468 0.895c-1.416 0.863 -5.146 1.281 -5.13 0.575 0.004 -0.178 1.058 -0.778 2.342 -1.334 2.845 -1.231 5.85 -3.722 5.85 -4.849 0 -1.012 0.114 -1.014 -1.942 0.034 -0.931 0.474 -2.38 0.863 -3.22 0.862l-1.527 0 1.726 -0.854c2.653 -1.314 4.86 -3.328 5.458 -4.983 0.626 -1.732 0.911 -1.819 2.094 -0.635 1.231 1.23 1.076 1.956 -0.647 3.02 -1.748 1.08 -1.824 1.323 -0.647 2.058 1.271 0.794 1.053 2.07 -0.579 3.371 -1.407 1.123 -1.428 1.187 -0.882 2.716 0.804 2.25 0.78 7.229 -0.037 7.542 -0.35 0.134 -0.922 -0.043 -1.273 -0.394zm8.38 -15.492c-1.326 -0.74 -0.85 -0.943 2.887 -1.233 1.468 -0.114 3.074 -0.49 3.568 -0.836 1.006 -0.705 2.764 -0.526 3.495 0.355 0.674 0.812 0.182 1.401 -0.984 1.18 -0.54 -0.103 -2.438 0.117 -4.218 0.488 -3.819 0.798 -3.404 0.794 -4.747 0.046zm4.96 -5.849c-0.15 -0.24 -0.986 -0.756 -1.86 -1.145l-1.589 -0.706 1.295 -0.261 1.294 -0.261 0.123 -4.428c0.138 -4.954 0.012 -5.168 -2.742 -4.65 -1.129 0.21 -1.497 0.48 -1.394 1.017 0.081 0.42 0.573 0.753 1.154 0.782 0.557 0.028 1.18 0.32 1.385 0.648 0.28 0.449 0.056 0.629 -0.91 0.73 -1.036 0.11 -1.284 0.34 -1.284 1.188 0 0.872 0.213 1.051 1.249 1.051 0.711 0 1.355 0.279 1.497 0.648 0.19 0.497 -0.093 0.647 -1.23 0.647 -1.37 0 -1.496 0.116 -1.746 1.618 -0.441 2.659 -0.607 3.003 -1.081 2.254 -0.22 -0.35 -0.405 -1.233 -0.408 -1.963 -0.006 -1.209 -0.116 -1.312 -1.218 -1.15 -0.724 0.106 -1.421 -0.075 -1.733 -0.45 -0.437 -0.527 -0.242 -0.673 1.212 -0.905 1.506 -0.241 1.732 -0.424 1.732 -1.398 0 -0.965 -0.142 -1.085 -1.03 -0.862 -0.64 0.16 -1.223 0.024 -1.542 -0.36 -0.424 -0.51 -0.243 -0.668 1.052 -0.91 1.875 -0.352 1.997 -1.673 0.161 -1.743 -1.584 -0.06 -2.525 -0.481 -2.523 -1.13 0.001 -0.387 0.878 -0.578 2.913 -0.637 1.601 -0.046 3.77 -0.388 4.818 -0.762 1.838 -0.653 1.943 -0.644 2.905 0.26 0.79 0.741 0.982 1.349 0.926 2.919 -0.039 1.09 -0.012 3.663 0.059 5.718 0.071 2.055 -0.002 3.948 -0.162 4.208 -0.366 0.591 -0.97 0.606 -1.324 0.033zm-12.728 -1.29c-0.34 -0.635 -0.287 -1.791 0.199 -4.356 0.364 -1.92 0.551 -4.298 0.416 -5.284l-0.246 -1.794 1.11 1.211c1.007 1.097 1.111 1.546 1.111 4.79 0 5.271 -1.261 7.917 -2.59 5.433zm6.06 -12.405c0.008 -0.178 0.623 -0.712 1.365 -1.186 2.007 -1.285 2.48 -2.28 1.448 -3.047 -0.791 -0.587 -0.763 -0.622 0.515 -0.622 0.903 0 1.573 0.315 2.016 0.947 0.601 0.86 0.594 1.023 -0.084 1.772 -1.384 1.53 -5.312 3.125 -5.26 2.136zm-3.218 -2.777c1.585 -1.46 1.91 -2.003 1.7 -2.837 -0.222 -0.885 -0.119 -1.011 0.729 -0.891 0.716 0.101 1.025 0.47 1.125 1.34 0.192 1.674 -2.322 4.194 -4.185 4.194l-1.328 0 1.96 -1.806z" fill="#2f2f2f"/>
    <path d="M0.686 48.382c0.12 -0.653 1.678 -10.89 3.463 -22.75 1.785 -11.859 3.285 -21.584 3.333 -21.612 0.047 -0.027 3.157 -0.867 6.91 -1.865l6.824 -1.814 6.77 1.815c3.723 0.998 6.822 1.85 6.885 1.893 0.063 0.043 1.563 9.768 3.334 21.612 1.77 11.844 3.315 22.068 3.434 22.72l0.216 1.187 -20.693 0 -20.692 0 0.216 -1.186zm40.327 0.527c0 -1.288 -6.582 -44.062 -6.811 -44.266 -0.17 -0.151 -3.174 -1.01 -6.675 -1.91l-6.365 -1.634 -6.365 1.634c-3.501 0.9 -6.495 1.755 -6.654 1.903 -0.159 0.147 -1.672 9.589 -3.364 20.982 -1.691 11.392 -3.185 21.345 -3.32 22.116l-0.244 1.403 19.9 0c10.944 0 19.898 -0.102 19.898 -0.228zm-12.321 -2.736c-0.463 -0.431 -1.746 -1.116 -2.853 -1.52 -3.143 -1.15 -2.975 -1.844 0.436 -1.806l2.87 0.032 -0.034 -2.648c-0.028 -2.117 -0.245 -2.914 -1.08 -3.968 -1.18 -1.492 -1.702 -1.577 -5.232 -0.848 -2.339 0.483 -2.578 0.458 -3.4 -0.364l-0.884 -0.884 4.08 -0.268c2.243 -0.148 4.927 -0.582 5.962 -0.966 3.13 -1.159 3.562 -1.174 4.842 -0.166 1.58 1.243 0.926 1.681 -2.527 1.693l-2.59 0.009 1.147 0.968c1.064 0.9 1.165 1.292 1.425 5.52 0.252 4.096 0.2 4.625 -0.52 5.277 -0.752 0.68 -0.854 0.675 -1.642 -0.06zm-15.58 -0.512c-0.316 -0.316 -0.402 -1.737 -0.252 -4.144l0.228 -3.664 -1.465 0.893c-0.873 0.533 -2.207 0.894 -3.3 0.895 -2.068 0.002 -2.443 -0.615 -0.647 -1.064 2.567 -0.64 7.013 -4.097 7.013 -5.452 0 -0.923 0.86 -1.08 1.64 -0.3 0.896 0.895 0.569 1.988 -0.939 3.138l-1.456 1.11 0.612 1.778c0.808 2.345 0.615 6.992 -0.298 7.165 -0.36 0.07 -0.872 -0.09 -1.136 -0.355zm-3.327 -12.458c2.458 -1.116 5.222 -3.711 5.552 -5.213 0.25 -1.14 0.364 -1.207 1.315 -0.774 0.89 0.405 1.872 1.945 1.42 2.227 -0.08 0.05 -1.215 0.883 -2.52 1.85 -2.518 1.865 -4.592 2.746 -6.43 2.73 -0.98 -0.008 -0.895 -0.112 0.663 -0.82zm12.123 -2.662c-1.211 -0.706 -0.438 -1.255 1.761 -1.253 1.113 0.001 2.938 -0.325 4.055 -0.726 1.627 -0.583 2.248 -0.628 3.128 -0.227 1.593 0.726 1.348 1.381 -0.52 1.39 -0.89 0.004 -2.977 0.295 -4.638 0.647 -1.662 0.352 -3.021 0.634 -3.021 0.627 0 -0.007 -0.344 -0.213 -0.765 -0.458zm3.415 -6.798c-1.598 -1.09 -1.624 -1.146 -0.648 -1.375 0.982 -0.231 1.023 -0.406 1.14 -4.86l0.123 -4.62 -1.417 0.005c-0.78 0.003 -1.85 0.122 -2.378 0.263 -0.802 0.216 -0.886 0.397 -0.506 1.107 0.25 0.467 0.713 0.75 1.028 0.629 0.316 -0.121 0.913 0.155 1.329 0.613 0.73 0.808 0.711 0.834 -0.607 0.834 -1.216 0 -1.362 0.135 -1.362 1.255 0 1.043 0.146 1.216 0.866 1.028 0.476 -0.125 1.187 0.039 1.581 0.364 0.637 0.524 0.53 0.614 -0.973 0.806 -1.618 0.206 -1.695 0.288 -1.826 1.942 -0.197 2.486 -0.787 2.754 -1.124 0.51 -0.273 -1.824 -0.36 -1.925 -1.626 -1.866 -0.735 0.033 -1.422 -0.182 -1.527 -0.478 -0.11 -0.315 0.17 -0.54 0.674 -0.54 1.534 0 2.23 -0.5 2.23 -1.603 0 -0.922 -0.151 -1.042 -1.03 -0.821 -0.64 0.16 -1.224 0.024 -1.543 -0.36 -0.424 -0.51 -0.246 -0.667 1.03 -0.906 1.122 -0.21 1.542 -0.512 1.542 -1.105 0 -0.613 -0.312 -0.815 -1.26 -0.815 -1.615 0 -2.625 -0.392 -2.62 -1.017 0.003 -0.317 1.144 -0.524 3.2 -0.58 1.757 -0.047 3.904 -0.383 4.772 -0.745 1.504 -0.628 1.62 -0.614 2.519 0.302 0.876 0.895 0.941 1.376 0.941 6.965 0 3.647 -0.17 6.042 -0.431 6.104 -0.238 0.055 -1.181 -0.411 -2.097 -1.036zm-11.47 -0.45c-0.306 -0.57 -0.238 -1.829 0.226 -4.207 0.364 -1.867 0.548 -4.14 0.408 -5.052 -0.188 -1.235 -0.112 -1.612 0.298 -1.476 1.023 0.337 1.617 2.256 1.624 5.242 0.01 4.91 -1.329 7.787 -2.557 5.494zm6.282 -12.48c-0.118 -0.19 0.467 -0.714 1.3 -1.163 2.123 -1.143 2.576 -2.142 1.359 -2.995l-0.96 -0.673 0.987 0c1.43 0 2.657 0.774 2.657 1.675 0 0.991 -1.105 1.994 -3.131 2.84 -1.838 0.768 -1.925 0.78 -2.212 0.316zm-3.303 -2.709c1.478 -1.434 1.766 -1.962 1.547 -2.837 -0.235 -0.934 -0.14 -1.057 0.717 -0.935 0.716 0.101 1.025 0.47 1.125 1.34 0.183 1.588 -2.322 4.194 -4.03 4.194 -1.173 0 -1.173 -0.001 0.641 -1.762z" fill="#030303"/>
</svg>
