<?xml version="1.0" encoding="UTF-8" standalone="no"?>
<!-- Created with Inkscape (http://www.inkscape.org/) -->

<svg
   xmlns:dc="http://purl.org/dc/elements/1.1/"
   xmlns:cc="http://creativecommons.org/ns#"
   xmlns:rdf="http://www.w3.org/1999/02/22-rdf-syntax-ns#"
   xmlns:svg="http://www.w3.org/2000/svg"
   xmlns="http://www.w3.org/2000/svg"
   xmlns:sodipodi="http://sodipodi.sourceforge.net/DTD/sodipodi-0.dtd"
   xmlns:inkscape="http://www.inkscape.org/namespaces/inkscape"
   width="42.077885"
   height="50"
   id="svg2992"
   version="1.1"
   inkscape:version="0.48.3.1 r9886"
   sodipodi:docname="New document 1">
  <defs
     id="defs2994" />
  <sodipodi:namedview
     id="base"
     pagecolor="#ffffff"
     bordercolor="#666666"
     borderopacity="1.0"
     inkscape:pageopacity="0.0"
     inkscape:pageshadow="2"
     inkscape:zoom="2.8"
     inkscape:cx="-40.693739"
     inkscape:cy="46.165019"
     inkscape:document-units="px"
     inkscape:current-layer="layer1"
     showgrid="false"
     fit-margin-top="0"
     fit-margin-left="0"
     fit-margin-right="0"
     fit-margin-bottom="0"
     inkscape:window-width="937"
     inkscape:window-height="617"
     inkscape:window-x="1050"
     inkscape:window-y="937"
     inkscape:window-maximized="0" />
  <metadata
     id="metadata2997">
    <rdf:RDF>
      <cc:Work
         rdf:about="">
        <dc:format>image/svg+xml</dc:format>
        <dc:type
           rdf:resource="http://purl.org/dc/dcmitype/StillImage" />
        <dc:title></dc:title>
      </cc:Work>
    </rdf:RDF>
  </metadata>
  <g
     inkscape:label="Layer 1"
     inkscape:groupmode="layer"
     id="layer1"
     transform="translate(-700.6071,-632.07643)">
    <g
       id="g3834"
       transform="matrix(0.44526861,0,0,0.44526861,388.64875,378.36921)">
      <path
         sodipodi:nodetypes="cccccc"
         inkscape:connector-curvature="0"
         id="path3064"
         d="m 747.63916,571.52957 30.3411,8.44362 15.44815,101.36188 -90.49966,-1.07668 14.27956,-100.6476 z"
         style="fill:#ffffff;fill-opacity:1;stroke:none" />
      <g
         transform="translate(42.142857,-25)"
         id="g3055">
        <path
           inkscape:connector-curvature="0"
           id="path3043"
           d="m 658.71424,705.73314 c 0,-4.36539 15.21762,-102.17317 15.96908,-102.6376 0.50277,-0.31073 7.6904,-2.30779 15.97252,-4.43792 l 15.0584,-3.87296 15.0584,3.87296 c 8.28212,2.13013 15.46975,4.12719 15.97252,4.43792 0.75146,0.46443 15.96908,98.27221 15.96908,102.6376 0,1.10533 -8.32585,1.34329 -47,1.34329 -38.67415,0 -47,-0.23796 -47,-1.34329 z m 90.41739,-3.40671 c -0.21745,-0.9625 -3.5532,-23.09037 -7.41277,-49.17305 -3.85957,-26.08268 -7.12702,-47.50666 -7.26101,-47.60884 -0.13398,-0.10218 -6.65611,-1.88752 -14.49361,-3.96742 l -14.25,-3.78164 -14.25,3.78164 c -7.8375,2.0799 -14.35853,3.86415 -14.49118,3.96499 -0.13265,0.10084 -3.39455,21.29981 -7.24867,47.10883 -3.85412,25.80902 -7.24166,47.93799 -7.52787,49.17549 l -0.52038,2.25 43.92543,0 c 41.31769,0 43.90196,-0.10389 43.53006,-1.75 z m -28.24413,-6.71346 c -2.00085,-2.12129 -4.64336,-3.72171 -6.81896,-4.12985 -4.95762,-0.93006 -2.30743,-2.37183 4.3957,-2.39138 5.06023,-0.0148 5.24951,-0.11471 5.23635,-2.76531 -0.0296,-5.96299 -0.93548,-7.25 -5.10298,-7.25 -4.37891,0 -4.48404,0.15362 -2.34216,3.42255 1.39111,2.12311 1.38798,2.5054 -0.0322,3.92553 -1.97413,1.97413 -7.59406,3.07822 -10.67213,2.09665 -2.1807,-0.6954 -2.05779,-0.86403 1.83846,-2.52229 3.46093,-1.47298 4.07932,-2.14442 3.61395,-3.92401 -0.43867,-1.67746 -1.07854,-2.01717 -2.92608,-1.55347 -7.53758,1.89181 -11.11438,1.80392 -13.24372,-0.32542 -1.16575,-1.16575 -2.34454,-2.11954 -2.61954,-2.11954 -0.275,0 -0.50663,3.2625 -0.51474,7.25 -0.0144,7.09372 -1.35617,11.72006 -3.61491,12.46425 -1.18371,0.39 -6.91672,-8.50122 -6.04416,-9.37378 0.27639,-0.27638 1.4796,0.0204 2.67381,0.65953 1.19421,0.63912 2.29477,1.01308 2.44568,0.83102 0.15092,-0.18206 0.55432,-3.13239 0.89644,-6.5563 l 0.62205,-6.22528 -3.48209,1.66049 c -2.45217,1.16937 -3.48208,2.32589 -3.48208,3.91018 0,3.98761 -1.82728,7.37989 -3.97525,7.37989 -2.3478,0 -2.55471,-2.0453 -0.65717,-6.49629 1.1576,-2.71534 1.08305,-3.09275 -0.7951,-4.02503 -1.13987,-0.56581 -2.22458,-2.09332 -2.41048,-3.39447 -0.27937,-1.95542 -0.0192,-2.23492 1.5,-1.61151 1.0109,0.41481 2.65854,0.98928 3.66142,1.27658 2.50606,0.71795 9.67658,-1.77397 9.67658,-3.36283 0,-0.97156 -0.72426,-0.87776 -2.91047,0.37695 -2.51569,1.44381 -3.25453,1.48625 -5.44697,0.3129 -3.86295,-2.06739 -4.16415,-4.0763 -0.61117,-4.0763 2.47657,0 2.96861,-0.40253 2.96861,-2.42857 0,-1.33572 -0.72857,-3.15714 -1.61905,-4.04762 -2.06541,-2.06541 -1.19249,-2.94431 2.10281,-2.11724 1.8326,0.45995 2.74867,1.50557 3.17157,3.62009 0.32707,1.63534 1.21342,2.97334 1.96967,2.97334 2.06719,0 1.67912,-4.79792 -0.625,-7.72713 -1.1,-1.39842 -2,-2.9319 -2,-3.40773 0,-1.45636 4.41683,-0.96191 6.8916,0.77148 2.46681,1.72783 2.50919,2.90237 0.54248,15.03396 l -0.67611,4.17058 4.71828,0.70755 c 7.05666,1.05821 25.49684,-0.97562 23.84276,-2.6297 -0.45671,-0.45671 -2.72977,-0.34826 -5.05125,0.24099 -4.44661,1.12867 -11.70632,0.35862 -10.77811,-1.14325 0.29987,-0.48521 3.12488,-1.41383 6.27779,-2.0636 6.3323,-1.30501 11.23256,-3.47705 11.23256,-4.97883 0,-1.3031 -0.16058,-1.276 -5.94139,1.00258 -2.75849,1.08729 -5.66928,1.726 -6.46841,1.41934 -0.79914,-0.30666 -2.84064,0.46838 -4.53667,1.72231 -2.76057,2.04097 -3.24313,2.12042 -4.60535,0.7582 -1.40246,-1.40246 -1.11208,-4.86997 0.40881,-4.88172 0.35366,-0.003 1.99301,-1.09904 3.64301,-2.43625 l 3,-2.43129 -3.5,-3.02311 -3.5,-3.0231 5.28212,-0.0406 c 2.90516,-0.0224 6.91229,-0.72177 8.90473,-1.55427 3.25751,-1.36107 3.86524,-1.35465 6.02997,0.0637 3.55747,2.33095 2.3115,3.84506 -3.94905,4.7989 -4.94768,0.75382 -5.62958,1.14625 -6.08181,3.5 -0.68713,3.57626 -0.24274,3.78693 3.86052,1.83022 4.38789,-2.09244 7.36762,-2.12812 10.23101,-0.12252 2.80534,1.96494 2.81514,3.81326 0.0339,6.40433 -1.84211,1.7162 -1.92126,2.03896 -0.49999,2.03896 0.92871,0 1.68856,0.50852 1.68856,1.13005 0,0.74628 1.51446,0.95935 4.4594,0.62742 4.75173,-0.53559 8.5406,1.14987 8.5406,3.79923 0,1.07788 -1.35451,1.4433 -5.34981,1.4433 l -5.34982,0 0.47662,7.42671 c 0.26214,4.08469 0.18598,8.58469 -0.16924,10 -0.93125,3.7104 -4.44488,3.33957 -8.43449,-0.89017 z m -26.92326,-45.65118 c -2.14348,-2.20411 -1.46011,-2.57863 5.96417,-3.26865 5.37495,-0.49955 7.79693,-1.21796 9.5,-2.81791 2.87057,-2.69676 3.02347,-5.7988 0.28583,-5.7988 -1.56016,0 -2,0.66667 -2,3.03138 0,1.78342 -0.62277,3.27037 -1.51274,3.61188 -1.94676,0.74704 -4.73715,-1.54968 -4.052,-3.33514 0.28945,-0.7543 -1.28939,0.0876 -3.50854,1.87101 -3.25034,2.61204 -4.36454,3.02829 -5.73076,2.14093 -2.23661,-1.45269 -1.84741,-6.11306 0.72537,-8.68584 1.68747,-1.68746 2.38278,-1.81669 4.52443,-0.84089 2.48134,1.13058 5.55424,0.7164 5.55424,-0.74863 0,-0.40773 -1.9125,-1.54638 -4.25,-2.53034 l -4.25,-1.78902 4.25,-1.00475 c 4.85866,-1.14865 5.52611,-2.44091 1.5,-2.90417 -1.63715,-0.18837 -2.75,-0.92343 -2.75,-1.81642 0,-1.91478 13.99184,-3.90816 15.66784,-2.23216 1.63132,1.63132 0.0331,3.23216 -3.22686,3.23216 -1.61754,0 -2.94098,0.50625 -2.94098,1.125 0,0.70389 1.06836,0.91133 2.85417,0.55417 3.41208,-0.68242 5.6571,0.99986 3.99959,2.99704 -0.60426,0.72808 -2.14199,1.32379 -3.41719,1.32379 -1.27519,0 -2.59665,0.45 -2.93657,1 -0.3669,0.59365 0.79914,1 2.86955,1 3.1268,0 6.64058,2.02704 6.62429,3.82143 -0.003,0.37321 -0.6517,1.91607 -1.4407,3.42857 -1.30876,2.50889 -1.27797,2.75 0.35118,2.75 1.61884,0 5.09568,2.86799 5.09568,4.20334 0,0.30022 -3.7125,0.8114 -8.25,1.13594 -4.5375,0.32455 -10.5,0.86939 -13.25,1.21077 -3.46661,0.43033 -5.38335,0.22648 -6.25,-0.66469 z m 3.84572,-10.5007 c 1.15986,-1.39754 1.08641,-1.56608 -0.54469,-1.25 -1.03691,0.20094 -2.07259,0.92784 -2.3015,1.61534 -0.59396,1.78389 1.25999,1.54592 2.84619,-0.36534 z m -10.45217,-12.63466 c 10.32999,-10.65505 14.95464,-17.3243 13.35213,-19.25521 -1.42528,-1.71736 -0.48904,-3.49479 1.84083,-3.49479 2.64283,0 6.31311,2.99474 5.93819,4.84522 -0.23131,1.14166 2.30985,3.38476 8.19501,7.23379 10.48266,6.85592 15.29967,11.28369 14.84486,13.64531 -0.71289,3.70177 -4.75027,1.78617 -14.69926,-6.97432 -5.46539,-4.8125 -10.2373,-8.75 -10.60425,-8.75 -0.36695,0 -4.08276,3.63078 -8.25735,8.06841 -6.42209,6.82671 -14.87148,12.93159 -17.89785,12.93159 -0.39084,0 2.88862,-3.7125 7.28769,-8.25 z"
           style="fill:#cfcfcf" />
        <path
           inkscape:connector-curvature="0"
           id="path3041"
           d="m 658.70877,706.32643 c -0.009,-1.22309 15.18203,-102.72961 15.41057,-102.97395 0.1152,-0.12317 7.27119,-2.09557 15.90218,-4.3831 l 15.69272,-4.15916 15.69272,4.15916 c 8.631,2.28753 15.78698,4.25993 15.90218,4.3831 0.22854,0.24434 15.4195,101.75086 15.41057,102.97395 -0.003,0.4125 -21.15547,0.75 -47.00547,0.75 -25.85,0 -47.00246,-0.3375 -47.00547,-0.75 z m 90.53805,-4.5 c -0.27804,-1.2375 -3.44721,-22.275 -7.0426,-46.75 -3.59539,-24.475 -6.77472,-45.6805 -7.06517,-47.12334 -0.49196,-2.44389 -1.46511,-2.87269 -14.22645,-6.26853 -7.5341,-2.00485 -14.37336,-3.64518 -15.19836,-3.64518 -0.825,0 -7.66426,1.64033 -15.19836,3.64518 -12.76102,3.39575 -13.73453,3.8247 -14.22682,6.26853 -0.29065,1.44284 -3.46783,22.42334 -7.06041,46.62334 -3.59257,24.2 -6.78876,45.2375 -7.10264,46.75 l -0.57068,2.75 44.09851,0 44.0985,0 -0.50552,-2.25 z m -27.47597,-5.67049 c -1.16459,-1.63552 -3.94446,-3.58072 -6.31809,-4.42106 -4.51068,-1.59691 -4.20795,-1.74159 4.26148,-2.03655 3.0764,-0.10715 3.53971,-0.46935 3.82808,-2.99273 0.18045,-1.57896 0.0594,-3.94146 -0.26905,-5.25 -0.53598,-2.13553 -1.1328,-2.3738 -5.82808,-2.32672 -5.04718,0.0506 -5.1519,0.10759 -2.98095,1.62197 4.47059,3.11853 2.18652,7.12202 -4.58114,8.02976 -5.10959,0.68534 -6.2448,-1.19398 -1.63935,-2.71392 2.98839,-0.98626 3.44337,-1.51152 2.88498,-3.33059 -0.92186,-3.00315 -0.57085,-2.92629 -7.30981,-1.60048 -6.39672,1.25848 -8.05831,0.76677 -10.05977,-2.97695 -0.74643,-1.39617 0.40658,-1.58543 9.80459,-1.60937 11.98422,-0.0305 18.95519,-1.06818 17.42902,-2.59435 -0.64265,-0.64265 -2.52731,-0.59287 -5.45386,0.14405 -2.93851,0.73992 -5.64676,0.80948 -7.89827,0.20284 l -3.42639,-0.92319 4.5,-1.25094 c 7.5831,-2.10802 12.9491,-4.15991 13.58979,-5.19657 1.19164,-1.92811 -0.52795,-2.04374 -4.99915,-0.33617 -2.49198,0.95169 -5.41876,1.49817 -6.50394,1.21438 -1.18853,-0.3108 -2.65372,0.23615 -3.68487,1.37556 -1.8915,2.09009 -5.89188,2.52565 -6.98293,0.7603 -0.40391,-0.65354 1.36578,-3.05825 4.19099,-5.69482 4.21924,-3.93753 4.61573,-4.62024 2.89011,-4.97639 -2.27926,-0.47042 -4.5,-2.06501 -4.5,-3.23119 0,-0.43381 2.8125,-1.05417 6.25,-1.37859 13.27485,-1.25285 13.25,-1.25453 13.25,0.89985 0,1.61483 -0.9093,2.11772 -4.84775,2.68109 -5.60086,0.80117 -5.17182,0.50316 -6.06329,4.21143 -0.5948,2.47416 -0.43843,2.79746 1.10932,2.29355 9.08878,-2.95913 10.06162,-3.06105 12.70241,-1.33074 3.09245,2.02625 3.2829,3.72841 0.68067,6.0834 -1.8909,1.71124 -1.89036,1.76463 0.0368,3.69182 1.66251,1.66251 2.4957,1.80631 5.56136,0.95984 3.17449,-0.87651 7.32045,-0.0976 7.32045,1.37537 0,0.21066 0.29973,1.16411 0.66606,2.11876 0.60034,1.56445 0.0674,1.68145 -5.4004,1.18565 l -6.06648,-0.55009 0.90041,3.13954 c 1.30159,4.53836 1.11031,15.04284 -0.29959,16.45274 -2.00522,2.00522 -4.55338,1.35509 -6.74339,-1.72049 z m -34.80661,1.21726 c -0.6875,-0.25489 -1.25,-0.91746 -1.25,-1.47237 0,-0.55492 -0.9,-2.15311 -2,-3.55153 -2.26227,-2.87601 -2.61346,-4.73766 -0.75,-3.97579 0.6875,0.28108 1.97657,0.80399 2.86461,1.16202 1.34335,0.54161 1.73169,-0.38394 2.31155,-5.50918 0.38332,-3.38809 0.48606,-6.37103 0.22832,-6.62877 -0.25774,-0.25774 -1.86044,0.25111 -3.56155,1.13079 -2.16845,1.12135 -3.09293,2.32493 -3.09293,4.02669 0,3.70978 -2.10842,7.52137 -4.16052,7.52137 -2.15261,0 -2.31112,-2.18209 -0.4719,-6.49629 1.1576,-2.71534 1.08305,-3.09275 -0.7951,-4.02503 -1.13987,-0.56581 -2.21456,-2.01688 -2.38822,-3.22461 -0.29386,-2.04371 -0.10157,-2.1212 2.77512,-1.11839 3.65444,1.27395 9.35286,0.40922 11.50847,-1.74639 2.70805,-2.70805 1.63677,-3.38357 -1.98089,-1.2491 -3.297,1.94529 -3.66597,1.97254 -6,0.44322 -3.29607,-2.15966 -3.14732,-3.58341 0.37437,-3.58341 2.57403,0 2.81194,-0.27612 2.36943,-2.75 -0.27055,-1.5125 -1.17789,-3.5375 -2.01632,-4.5 -1.38632,-1.59147 -1.34324,-1.75 0.47559,-1.75 2.36165,0 5.30997,2.95874 5.30997,5.32874 0,2.62518 2.71313,1.95224 3.23995,-0.8036 0.30003,-1.56954 -0.16956,-3.05645 -1.28373,-4.06476 -0.96626,-0.87445 -1.98456,-2.46077 -2.26291,-3.52514 -0.69946,-2.67475 3.61145,-2.63048 6.30669,0.0648 2.24317,2.24317 2.49293,4.87215 0.95067,10.0066 -0.57713,1.92137 -1.39129,9.01649 -1.80925,15.76694 -0.76178,12.30342 -1.88484,15.63791 -4.89142,14.52323 z m 7,-47.41233 c -2.12868,-2.18733 -1.41051,-2.88354 3,-2.9083 6.15508,-0.0345 12.00371,-1.60263 13.47322,-3.6123 1.95431,-2.67267 1.59145,-5.36384 -0.72322,-5.36384 -1.56016,0 -2,0.66667 -2,3.03138 0,3.64954 -2.44606,4.95132 -4.82754,2.5692 -1.46937,-1.46976 -1.49031,-1.78809 -0.17246,-2.62143 0.825,-0.52169 0.99938,-0.95542 0.38751,-0.96384 -0.61188,-0.008 -2.79826,1.32436 -4.85863,2.96174 -3.05009,2.4239 -4.11196,2.78126 -5.71506,1.92331 -1.17366,-0.62812 -1.73565,-1.66167 -1.39138,-2.55884 0.31766,-0.8278 0.57756,-2.13292 0.57756,-2.90025 0,-2.40753 4.56252,-4.74577 6.8605,-3.51593 1.09704,0.58712 2.70222,0.79596 3.56706,0.46408 2.41713,-0.92753 1.88223,-3.38942 -0.73643,-3.38942 -1.26988,0 -3.13836,-0.60654 -4.15218,-1.34786 -1.67926,-1.2279 -1.47378,-1.40695 2.30887,-2.01182 4.13823,-0.66172 5.84278,-2.64032 2.27462,-2.64032 -1.03265,0 -2.43333,-0.66968 -3.11262,-1.48817 -1.65312,-1.99188 -0.37003,-2.40669 8.49018,-2.74475 5.67426,-0.2165 7,0.017 7,1.23292 0,0.96136 -1.16705,1.61252 -3.25,1.81336 -1.7875,0.17235 -3.25,0.7911 -3.25,1.375 0,0.64922 1.1802,0.8256 3.03806,0.45403 2.24372,-0.44875 3.19694,-0.19358 3.64571,0.97592 0.71194,1.85527 -1.24977,3.34471 -4.43377,3.36638 -1.2375,0.008 -2.25,0.46531 -2.25,1.01531 0,0.55 1.15458,1 2.56574,1 5.61484,0 7.89372,3.40445 5.39908,8.06574 -0.85285,1.59356 -0.70401,1.93426 0.84501,1.93426 1.03411,0 2.68619,0.89062 3.6713,1.97915 2.22611,2.45982 1.66868,2.68401 -8.48113,3.41098 -4.125,0.29546 -9.525,0.81654 -12,1.15796 -3.06511,0.42284 -4.89858,0.21122 -5.75,-0.66365 z m 4.5323,-10.72994 c 0.28658,-0.86063 -0.19425,-1.221 -1.33427,-1 -0.98026,0.19002 -1.98391,0.95098 -2.23033,1.691 -0.28658,0.86063 0.19425,1.221 1.33427,1 0.98026,-0.19002 1.98391,-0.95098 2.23033,-1.691 z m -10.6861,-12.80389 c 10.75641,-11.07475 14.65664,-16.73857 12.94596,-18.79981 -1.46589,-1.7663 -0.56412,-3.5508 1.79435,-3.5508 2.71143,0 6.2886,2.99768 5.96109,4.99541 -0.2163,1.3194 2.16104,3.44337 8.7024,7.7749 10.33238,6.84186 15.0383,11.38452 14.16128,13.66999 -1.05267,2.74322 -3.43961,1.70754 -10.80987,-4.6903 -3.95997,-3.4375 -8.87257,-7.70566 -10.9169,-9.48481 l -3.71694,-3.23481 -5.6442,6.42883 c -6.71463,7.64807 -12.0066,11.99446 -17.23517,14.15557 -3.60468,1.48991 -3.3152,1.04795 4.758,-7.26417 z"
           style="fill:#b0b0b0" />
        <path
           inkscape:connector-curvature="0"
           id="path3039"
           d="m 658.97365,704.32643 c 0.28017,-1.5125 3.80004,-24.87418 7.82193,-51.91485 l 7.31253,-49.16485 15.80307,-4.12947 15.80306,-4.12947 15.80306,4.12947 15.80307,4.12947 7.31253,49.16485 c 4.02189,27.04067 7.54176,50.40235 7.82193,51.91485 l 0.50941,2.75 -47.25,0 -47.25,0 0.50941,-2.75 z m 90.70075,0 c -0.3462,-6.51717 -14.96404,-98.63258 -15.72608,-99.09903 -0.58491,-0.35803 -7.20026,-2.21083 -14.70076,-4.11732 l -13.63727,-3.46636 -13.54057,3.46636 c -7.44731,1.90649 -14.01865,3.761 -14.60297,4.12113 -0.81634,0.50313 -15.52944,92.82551 -15.71279,98.59522 -0.0312,0.98166 9.40576,1.25 43.96028,1.25 24.2,0 43.98207,-0.3375 43.96016,-0.75 z m -28.56512,-8.8009 c -1.77002,-1.96163 -4.56461,-3.76526 -6.5,-4.19509 -3.12286,-0.69356 -2.91401,-0.7941 2.60496,-1.25401 5.72605,-0.47717 6.01498,-0.63108 6.32808,-3.37083 0.18045,-1.57896 0.0594,-3.94146 -0.26905,-5.25 -0.54303,-2.16361 -1.11639,-2.37676 -6.32808,-2.35256 l -5.73095,0.0266 2.75,1.70501 c 1.5125,0.93775 2.75,2.52374 2.75,3.52441 0,2.4301 -6.38855,5.10858 -9.89202,4.14735 -2.59156,-0.71102 -2.58437,-0.72493 1.14202,-2.20846 3.82351,-1.52219 4.42048,-2.61369 2.81607,-5.14887 -0.76189,-1.20388 -1.7696,-1.23348 -6.43656,-0.18906 -6.13255,1.37241 -8.74939,0.62944 -10.71425,-3.04195 -1.05953,-1.97974 -0.95098,-2.06423 1.72708,-1.34438 4.43566,1.1923 22.72381,0.13054 25.31288,-1.46959 1.92922,-1.19233 0.28291,-3.2165 -1.76591,-2.17124 -2.95691,1.50857 -7.57934,2.01734 -11.18931,1.23157 l -3.5,-0.76184 4,-1.15109 c 2.2,-0.63309 5.86008,-1.60971 8.13351,-2.17025 4.01678,-0.99039 7.24736,-3.45728 6.06975,-4.6349 -0.31996,-0.31996 -2.62064,0.19692 -5.11262,1.14862 -2.49198,0.95169 -5.41876,1.49817 -6.50394,1.21438 -1.18853,-0.3108 -2.65372,0.23615 -3.68487,1.37556 -2.15484,2.38107 -6.40183,2.53891 -6.40183,0.23791 0,-0.90949 1.9125,-3.46512 4.25,-5.67919 3.74256,-3.54494 4.0112,-4.07674 2.25,-4.454 -2.40008,-0.51412 -4.5,-2.10214 -4.5,-3.40303 0,-0.51972 0.84824,-0.67572 1.88498,-0.34668 1.03674,0.32905 3.84924,0.0819 6.25,-0.54923 2.40076,-0.63113 5.94002,-1.20753 7.86502,-1.28089 2.87779,-0.10966 3.5,0.22218 3.5,1.86663 0,1.49462 -0.75807,2.06929 -3,2.27421 -5.71462,0.52232 -7.5,1.24715 -7.5,3.04484 0,0.97952 -0.54,2.32095 -1.2,2.98095 -1.82701,1.82701 2.39263,1.55265 6.54033,-0.42525 3.83643,-1.82946 8.23809,-0.9902 10.07435,1.92087 0.81923,1.29876 0.57868,2.15547 -1.06745,3.80159 -2.08736,2.08737 -2.09137,2.15865 -0.22593,4.02409 1.50558,1.50558 2.73107,1.76604 5.91441,1.257 3.09164,-0.49437 4.46955,-0.23102 5.98981,1.1448 3.34949,3.03124 2.38699,3.80493 -3.91412,3.14633 l -5.88861,-0.61548 0.86475,3.72303 c 1.189,5.11902 1.12609,12.95532 -0.12272,15.28876 -1.51272,2.82654 -4.04945,2.28479 -7.56978,-1.61664 z m -35.39504,0.45527 c 0,-0.6026 -0.94909,-2.4285 -2.10909,-4.05757 -2.54599,-3.57552 -1.95209,-4.58822 1.40196,-2.39056 l 2.4664,1.61604 0.70838,-6.61479 c 0.38961,-3.63813 0.48559,-6.83758 0.2133,-7.10988 -0.2723,-0.27229 -1.88691,0.22465 -3.58802,1.10433 -2.3648,1.22289 -3.09293,2.27354 -3.09293,4.46296 0,3.8724 -3.37694,8.05819 -5.119,6.34511 -1.01372,-0.99684 -0.92959,-1.9349 0.42901,-4.78392 2.05559,-4.31061 2.06391,-4.47609 0.22517,-4.47609 -1.27241,0 -3.53518,-2.82599 -3.53518,-4.41513 0,-0.30063 1.92565,-0.28267 4.27923,0.0399 5.04696,0.69179 11.72077,-1.6601 11.72077,-4.13045 0,-1.46167 -0.20191,-1.4663 -2.22251,-0.051 -2.64612,1.85341 -6.90372,2.03047 -8.57749,0.3567 -1.95065,-1.95065 -1.38499,-2.89506 1.55,-2.58785 2.5152,0.26327 2.72076,0.0317 2.40753,-2.71215 -0.18835,-1.65002 -1.0456,-3.78752 -1.90499,-4.75002 -1.30213,-1.45838 -1.3238,-1.75 -0.13003,-1.75 2.61857,0 5.87749,3.06364 5.87749,5.52532 0,1.6577 0.43824,2.24374 1.40146,1.87412 2.40217,-0.9218 2.70544,-4.65675 0.56326,-6.93699 -4.23822,-4.51139 -0.70051,-7.65988 3.84672,-3.4235 2.54411,2.37021 2.6461,4.27111 0.66856,12.46105 -0.79682,3.3 -1.45579,9.69133 -1.46438,14.20295 -0.0172,9.02263 -1.35963,13.29705 -4.17614,13.29705 -1.01171,0 -1.83948,-0.49303 -1.83948,-1.09563 z m 8.47932,-46.56387 c -1.7917,-1.78777 -1.61727,-1.86106 6.08806,-2.55813 6.36377,-0.57569 8.27872,-1.14148 9.68262,-2.86078 2.10747,-2.58094 2.27044,-5.5079 0.34777,-6.2457 -1.93066,-0.74086 -2.59777,0.16364 -2.59777,3.52216 0,3.48656 -2.49997,4.73072 -4.82754,2.40253 -1.45047,-1.45086 -1.4772,-1.79363 -0.20142,-2.58237 0.80907,-0.50021 1.19383,-1.18667 0.85501,-1.52549 -0.33881,-0.33881 -2.18519,0.76172 -4.10305,2.44563 -4.65077,4.08343 -7.723,4.10795 -7.723,0.0616 0,-1.65925 0.88725,-3.88725 1.98527,-4.98527 1.65577,-1.65577 2.39207,-1.79993 4.43623,-0.86854 2.89318,1.31822 5.5785,0.5409 5.5785,-1.61481 0,-0.933 -0.90218,-1.53138 -2.30887,-1.53138 -1.26988,0 -3.13836,-0.60654 -4.15218,-1.34786 -1.67926,-1.2279 -1.47378,-1.40695 2.30887,-2.01182 4.13823,-0.66172 5.84278,-2.64032 2.27462,-2.64032 -1.03265,0 -2.40634,-0.63716 -3.05264,-1.4159 -0.93219,-1.12322 -0.80246,-1.51971 0.62755,-1.91809 4.06597,-1.1327 12.89504,-1.62197 14.18076,-0.78583 2.06814,1.34495 0.3972,3.11982 -2.93713,3.11982 -1.88374,0 -2.94098,0.51413 -2.94098,1.43019 0,1.1191 0.66397,1.23977 3.0524,0.55478 2.39324,-0.68637 3.18054,-0.54152 3.64572,0.67073 0.69907,1.82175 -1.28611,3.30747 -4.44812,3.32899 -1.2375,0.008 -2.25,0.46531 -2.25,1.01531 0,0.55 1.15458,1 2.56574,1 6.15052,0 8.54088,4.89338 4.40882,9.02544 l -2.02543,2.02543 2.53842,-0.6371 c 2.66892,-0.66986 5.51245,0.91375 5.51245,3.06997 0,0.84093 -2.81051,1.44885 -8.75,1.89266 -4.8125,0.35959 -10.36463,0.91274 -12.33807,1.22921 -2.69396,0.43201 -4.04771,0.11676 -5.43261,-1.26511 z m 4.30298,-10.186 c 0.28658,-0.86063 -0.19425,-1.221 -1.33427,-1 -0.98026,0.19002 -1.98391,0.95098 -2.23033,1.691 -0.28658,0.86063 0.19425,1.221 1.33427,1 0.98026,-0.19002 1.98391,-0.95098 2.23033,-1.691 z m -11.04271,-12.10589 c 3.94648,-3.82326 8.85621,-9.48282 10.9105,-12.5768 3.19853,-4.81735 3.5605,-5.90495 2.51984,-7.57131 -0.98771,-1.58157 -0.94152,-2.05092 0.24668,-2.50687 2.43985,-0.93626 7.08339,1.89669 7.08339,4.32145 0,1.63686 2.26483,3.6698 9.13517,8.19987 5.02435,3.31288 10.29305,7.39947 11.70823,9.08131 2.53264,3.00987 2.63324,6.00374 0.20176,6.00374 -0.68248,0 -6.14684,-4.26937 -12.14301,-9.48749 l -10.90215,-9.48748 -7,7.53309 c -6.97228,7.50326 -14.67592,13.42946 -17.46792,13.4376 -0.80735,0.002 1.76102,-3.12384 5.70751,-6.94711 z"
           style="fill:#909090" />
        <path
           inkscape:connector-curvature="0"
           id="path3037"
           d="m 659.10304,704.32643 c 0.30124,-1.5125 3.767,-24.575 7.70167,-51.25 3.93467,-26.675 7.43737,-48.81591 7.78377,-49.20203 0.3464,-0.38612 7.49141,-2.53009 15.87779,-4.76438 l 15.24797,-4.06234 15.24797,4.06234 c 8.38638,2.23429 15.53139,4.37826 15.87779,4.76438 0.3464,0.38612 3.8491,22.52703 7.78377,49.20203 3.93468,26.675 7.40042,49.7375 7.70167,51.25 l 0.54771,2.75 -47.15891,0 -47.15891,0 0.54771,-2.75 z m 90.34775,-2.5 c -0.28883,-1.7875 -3.57167,-23.95 -7.29521,-49.25 -3.72354,-25.3 -7.07363,-46.35502 -7.44463,-46.78893 -0.37101,-0.43391 -7.04705,-2.50352 -14.83564,-4.59913 l -14.16107,-3.81021 -14.16107,3.81021 c -7.78859,2.09561 -14.46255,4.16522 -14.83101,4.59913 -0.54309,0.63956 -15.07747,95.96949 -15.02363,98.53893 0.009,0.4125 19.87459,0.75 44.14655,0.75 l 44.13084,0 -0.52513,-3.25 z m -26.99316,-5.38332 c -1.23387,-1.44833 -4.04339,-3.46345 -6.24339,-4.47804 l -4,-1.84472 5.75,-0.022 5.75,-0.0219 -0.0153,-4.75 c -0.008,-2.6125 -0.34592,-5.25084 -0.75,-5.86298 -0.77647,-1.17628 -10.09425,-0.40983 -19.62907,1.61461 -3.99624,0.84849 -5.32665,0.75595 -7.25,-0.50427 -3.35025,-2.19518 -3.19942,-4.76867 0.20366,-3.47482 1.67581,0.63714 5.90453,0.61173 12.25,-0.0736 11.5034,-1.24242 13.4417,-1.73695 12.87077,-3.28379 -0.23653,-0.64083 -1.0488,-0.98318 -1.80505,-0.76079 -0.75625,0.22239 -4.24887,0.61622 -7.76138,0.87518 -8.00301,0.59001 -7.51624,-1.04663 0.79778,-2.68232 5.89455,-1.15968 11.269,-4.24208 9.8609,-5.6555 -0.40024,-0.40175 -2.78647,0.0558 -5.30273,1.01676 -2.51626,0.96097 -5.48469,1.50933 -6.5965,1.21859 -1.22872,-0.32132 -2.77673,0.22661 -3.94728,1.39715 -1.05919,1.05918 -2.82579,1.92578 -3.92579,1.92578 -3.32152,0 -2.33403,-3.39683 2,-6.87976 4.32992,-3.47961 5.03484,-5.12024 2.2,-5.12024 -0.99,0 -2.35363,-0.55363 -3.03029,-1.23029 -0.97372,-0.97372 0.1837,-1.50037 5.55,-2.52536 3.72916,-0.71229 8.01261,-1.55897 9.51877,-1.88152 2.02482,-0.43362 2.90976,-0.1401 3.39572,1.12629 0.86385,2.25117 -1.19765,3.47643 -5.88133,3.49557 -3.27989,0.0134 -3.91427,0.42057 -5.08751,3.26531 -1.69785,4.11674 -0.45316,4.59818 5.75658,2.22666 3.77965,-1.44346 4.77407,-1.4888 7.15982,-0.32647 3.77277,1.83809 4.01924,3.33972 1.03756,6.3214 -1.76913,1.76912 -2.08218,2.52841 -1.04248,2.52841 0.81726,0 1.75234,0.69425 2.07795,1.54277 0.46678,1.21641 1.52614,1.40268 5.0079,0.88056 3.45945,-0.51877 4.83544,-0.2825 6.35301,1.09088 3.0143,2.7279 1.36285,3.76353 -4.77797,2.99629 -5.09858,-0.63703 -5.46366,-0.54915 -4.77691,1.14988 1.33761,3.30928 1.75345,13.77761 0.659,16.58962 -1.34634,3.45918 -3.49538,3.49851 -6.37643,0.11668 z m -38.18541,-3.45844 c -3.09282,-4.67355 -2.84119,-5.79514 0.76937,-3.42941 l 2.50088,1.63864 0.70724,-6.60405 c 0.38898,-3.63223 0.46944,-6.84184 0.17881,-7.13247 -0.29063,-0.29063 -1.85955,0.15993 -3.4865,1.00126 -2.26786,1.17276 -3.10412,2.44298 -3.58398,5.44386 -0.69825,4.36663 -3.09601,7.12172 -4.75459,5.46314 -0.70136,-0.70136 -0.5149,-2.24931 0.58928,-4.89198 1.05808,-2.53234 1.248,-3.9884 0.55055,-4.22088 -1.49092,-0.49698 -4.02904,-3.14321 -4.02904,-4.20066 0,-0.4848 2.16956,-0.62451 4.82124,-0.31046 5.37211,0.63625 11.17876,-1.57011 11.17876,-4.24761 0,-1.367 -0.23811,-1.36425 -2.22251,0.0257 -2.64612,1.85341 -6.90372,2.03047 -8.57749,0.3567 -1.90418,-1.90418 -1.41394,-2.69117 1.55,-2.48826 2.49769,0.17099 2.71858,-0.087 2.40753,-2.81174 -0.18835,-1.65002 -1.0456,-3.78752 -1.90499,-4.75002 -1.30213,-1.45838 -1.3238,-1.75 -0.13003,-1.75 2.65759,0 5.87749,3.06344 5.87749,5.59189 0,2.1686 0.25005,2.34465 2,1.40811 2.55804,-1.36902 2.55804,-4.44196 0,-7 -4.4449,-4.4449 -1.20659,-6.80209 3.6297,-2.64209 l 2.74124,2.35791 -1.68547,7.67051 c -0.92701,4.21878 -1.68547,11.19057 -1.68547,15.49287 0,8.38124 -1.40836,14.1208 -3.46494,14.1208 -0.69811,0 -2.4878,-1.84129 -3.97708,-4.09176 z m 21.57238,-4.79298 c -1.00549,-0.6469 -0.38369,-1.20658 2.33869,-2.10505 2.89155,-0.95429 3.59935,-1.64063 3.21353,-3.11604 -0.67848,-2.59448 0.56879,-3.10683 3.15445,-1.29576 3.98907,2.79405 2.31298,5.41484 -4.33703,6.7815 -1.65,0.3391 -3.61634,0.22001 -4.36964,-0.26465 z m -11.43687,-38.90146 c -1.72787,-1.90927 -1.61756,-1.95566 5.77822,-2.43029 8.59526,-0.55161 11.82303,-2.46758 11.32562,-6.72278 -0.43756,-3.7433 -3.79259,-4.08125 -3.81264,-0.38405 -0.0235,4.32314 -1.2903,5.76532 -3.85752,4.39138 -2.38641,-1.27717 -2.75338,-2.67775 -0.87717,-3.34782 0.6875,-0.24554 0.95976,-0.76078 0.60501,-1.14499 -0.35474,-0.3842 -2.21415,0.67919 -4.13201,2.3631 -4.42004,3.88085 -7.723,4.09294 -7.723,0.49591 0,-5.02762 1.65702,-6.55114 6.7739,-6.22817 3.77511,0.23828 4.72432,-0.0373 5.01464,-1.45609 0.21664,-1.0587 -0.24482,-1.75 -1.16816,-1.75 -0.83945,0 -2.77155,-0.5625 -4.29356,-1.25 l -2.76729,-1.25 3.96055,-0.5 c 2.64506,-0.33393 4.06615,-1.05522 4.27847,-2.17161 0.22917,-1.20504 -0.20629,-1.53452 -1.56018,-1.18047 -1.03294,0.27012 -2.43065,-0.17468 -3.10602,-0.98844 -1.02546,-1.23562 -0.76662,-1.56803 1.56986,-2.016 8.54717,-1.63876 11.44266,-1.76814 12.87971,-0.57549 1.82573,1.51522 0.2526,2.8923 -3.33192,2.9167 -1.28248,0.009 -2.25,0.63329 -2.25,1.45244 0,1.08395 0.86013,1.29755 3.5,0.86916 2.76717,-0.44905 3.5,-0.236 3.5,1.01755 0,1.0203 -1.24773,1.81961 -3.5,2.24214 -2.09692,0.39338 -3.5,1.24032 -3.5,2.1127 0,0.9667 0.62781,1.25684 1.86792,0.86324 1.02735,-0.32607 3.05235,-0.14253 4.5,0.40786 3.31035,1.2586 3.4702,4.52888 0.38208,7.81716 l -2.25,2.39583 2.76299,-0.69305 c 2.89762,-0.72683 5.73701,0.7661 5.73701,3.01647 0,0.85374 -2.88797,1.43704 -9.25,1.86825 -5.0875,0.34482 -10.61013,0.89219 -12.27251,1.21637 -2.24219,0.43724 -3.47728,0.0869 -4.784,-1.35701 z m 4.30651,-10.24898 c 0,-0.53065 -0.9,-0.96482 -2,-0.96482 -1.34486,0 -2,0.66667 -2,2.03518 0,1.72531 0.30452,1.87221 2,0.96482 1.1,-0.5887 2,-1.50454 2,-2.03518 z m -11.8626,-11.22356 c 10.79597,-10.15164 16.24471,-18.371 13.9841,-21.09486 -1.83813,-2.21481 1.43427,-2.92748 4.99273,-1.08733 2.15396,1.11385 2.82775,2.04838 2.41485,3.34929 -0.4478,1.4109 1.21275,2.96443 7.61476,7.12399 11.06817,7.19132 14.85616,10.65168 14.85616,13.57124 0,1.33394 -0.59293,2.39641 -1.33734,2.39641 -0.73554,0 -6.24332,-4.27432 -12.23951,-9.49849 l -10.90215,-9.49849 -8.0105,8.36847 c -6.84488,7.15076 -14.35112,12.65153 -17.22066,12.61977 -0.43441,-0.005 2.19699,-2.81731 5.84756,-6.25 z"
           style="fill:#6f6f6f" />
        <path
           inkscape:connector-curvature="0"
           id="path3035"
           d="m 659.34287,703.82643 c 0.27659,-1.7875 3.75755,-25.075 7.73546,-51.75 l 7.23258,-48.5 15.70166,-4.18376 15.70167,-4.18375 15.70167,4.18375 15.70166,4.18376 7.23258,48.5 c 3.97791,26.675 7.45887,49.9625 7.73546,51.75 l 0.50289,3.25 -46.87426,0 -46.87426,0 0.50289,-3.25 z m 90.38841,0.5 c 0.0679,-2.98947 -14.44841,-97.93925 -15.0794,-98.63278 -0.44176,-0.48552 -7.13344,-2.586 -14.87042,-4.66773 l -14.06722,-3.78496 -14.06722,3.78496 c -7.73698,2.08173 -14.43113,4.18221 -14.87589,4.66773 -0.69477,0.75845 -15.12242,94.68149 -15.07431,98.13278 0.0137,0.9808 9.49338,1.25 44.01742,1.25 24.2,0 44.00767,-0.3375 44.01704,-0.75 z m -28.01679,-8.74974 c -1.89759,-1.95781 -4.81143,-3.95571 -6.4752,-4.43977 -2.62884,-0.76484 -2.2654,-0.89193 2.77485,-0.9703 l 5.79991,-0.0902 -0.29991,-5.75 -0.2999,-5.75 -5.5,0.35464 c -3.025,0.19505 -8.75652,0.91661 -12.73671,1.60346 -6.07916,1.04906 -7.55875,1.02325 -9.25,-0.16135 -3.51904,-2.46483 -2.55684,-4.15835 1.73671,-3.0567 5.34521,1.37149 23.75,-1.13935 23.75,-3.24005 0,-0.84638 -0.65362,-1.3238 -1.5,-1.09565 -0.825,0.22239 -4.425,0.5618 -8,0.75424 -7.24685,0.39009 -6.37753,-0.48079 3.07399,-3.07953 6.04387,-1.66179 11.10146,-5.57906 7.20312,-5.57906 -1.11807,0 -3.73119,0.7096 -5.80692,1.5769 -2.07573,0.8673 -4.63908,1.35069 -5.69633,1.07421 -1.11655,-0.29198 -2.72949,0.30452 -3.84807,1.4231 -2.385,2.385 -5.92579,2.54736 -5.92579,0.27172 0,-0.90974 1.8,-3.19481 4,-5.07793 2.2,-1.88311 4,-3.74012 4,-4.12669 0,-0.38656 -1.4625,-1.31163 -3.25,-2.05572 l -3.25,-1.35289 5.7481,-0.83015 c 3.16146,-0.45658 6.69087,-1.3347 7.84314,-1.95138 2.57971,-1.38062 6.90876,-0.42657 6.90876,1.52257 0,1.33573 -2.0267,1.96183 -9,2.78031 -1.38285,0.16231 -2.38225,0.8595 -2.2365,1.5602 0.14493,0.69672 -0.19379,2.12123 -0.7527,3.16557 -1.44908,2.70763 0.32404,3.41551 3.91017,1.56105 3.06969,-1.5874 7.71682,-2.00083 10.49724,-0.93388 2.36564,0.90778 1.95688,5.1219 -0.63116,6.50698 l -2.21295,1.18433 2.21295,0.81863 c 1.21712,0.45024 2.21295,1.33422 2.21295,1.96439 0,0.79358 1.40242,0.93546 4.56243,0.46159 4.7825,-0.71718 7.43757,0.40784 7.43757,3.15149 0,1.17854 -1.05785,1.31734 -5.65882,0.74249 -4.90153,-0.61241 -5.57832,-0.49725 -5.05729,0.86052 1.19466,3.11323 1.78166,13.2689 0.93652,16.20259 -1.19858,4.16057 -3.18776,4.16064 -7.22016,2.6e-4 z m -36.12067,-0.75026 c -0.65494,-1.2375 -1.8855,-3.32046 -2.73459,-4.62879 l -1.54379,-2.3788 3.07484,1.59007 3.07485,1.59006 0.61355,-3.71127 c 0.33745,-2.0412 0.6185,-5.36138 0.62455,-7.37819 l 0.011,-3.66692 -3.88715,2.1292 c -2.13794,1.17106 -3.68495,2.65615 -3.43781,3.30019 0.59851,1.5597 -2.30489,8.40445 -3.565,8.40445 -1.93951,0 -2.15219,-1.96335 -0.61201,-5.64953 1.39329,-3.33461 1.39804,-3.82913 0.0441,-4.58684 -0.83467,-0.46711 -1.97789,-1.70938 -2.54049,-2.7606 -0.95801,-1.79007 -0.71638,-1.87502 3.80898,-1.33906 5.38266,0.6375 11.1894,-1.56606 11.1894,-4.24619 0,-1.32359 -0.40293,-1.29284 -2.97605,0.22715 -2.26985,1.34083 -3.61491,1.53222 -5.66829,0.80653 -3.6513,-1.2904 -4.0137,-3.04164 -0.61915,-2.99193 2.48797,0.0364 2.72889,-0.25863 2.41641,-2.95953 -0.19089,-1.65 -0.81751,-3.57338 -1.3925,-4.27417 -1.52079,-1.85355 -0.27002,-2.56893 2.18981,-1.25247 1.16684,0.62448 2.37583,2.40692 2.68664,3.96099 0.43368,2.16841 1.00679,2.71009 2.46412,2.32899 2.5643,-0.67058 2.50218,-5.30241 -0.10099,-7.53131 -2.3748,-2.03337 -2.63403,-4.73203 -0.45455,-4.73203 1.89298,0 6.46794,4.42216 6.41893,6.20454 -0.0196,0.71251 -0.68756,3.99546 -1.48438,7.29546 -0.79682,3.3 -1.4583,9.375 -1.46996,13.5 -0.0355,12.57134 -2.98192,18.69917 -6.13046,12.75 z m 22.12042,-8.18314 c 2.60006,-0.9516 3.47826,-1.84429 3.41546,-3.47179 -0.10424,-2.70103 3.29508,-2.55537 4.98241,0.2135 1.6093,2.64083 -1.68059,4.70978 -7.339,4.61535 l -4.55887,-0.0761 3.5,-1.28098 z m -13.31193,-37.35905 c -1.7206,-1.90124 -1.60464,-1.95015 5.7417,-2.42161 4.189,-0.26883 8.22508,-1.08479 9.14586,-1.84897 2.30992,-1.91706 3.38396,-5.20154 2.18676,-6.68723 -1.81312,-2.25002 -3.76239,-1.4068 -3.76239,1.62756 0,3.96642 -2.24706,5.73253 -4.46794,3.51164 -1.32817,-1.32817 -1.40875,-1.84737 -0.38491,-2.48014 0.71221,-0.44018 1.03965,-1.05559 0.72764,-1.3676 -0.312,-0.31201 -2.27335,0.78852 -4.35854,2.44563 -4.78523,3.80282 -7.51625,3.9653 -7.51625,0.44717 0,-3.87929 1.77744,-6.43426 4.47617,-6.43426 1.32319,0 2.68466,0.45122 3.0255,1.0027 0.8627,1.39588 4.49833,-0.65528 4.49833,-2.53788 0,-0.80565 -0.81399,-1.46482 -1.80887,-1.46482 -0.99488,0 -2.68238,-0.66069 -3.75,-1.4682 -1.81907,-1.37587 -1.70532,-1.47019 1.80887,-1.5 3.13674,-0.0266 3.75,-0.37637 3.75,-2.13879 0,-1.39715 -0.4726,-1.92563 -1.4028,-1.56868 -0.77154,0.29607 -2.23404,-0.0915 -3.25,-0.86121 -1.01596,-0.76973 -1.3972,-1.41722 -0.8472,-1.43887 0.55,-0.0217 3.85819,-0.50314 7.35152,-1.06999 4.76637,-0.77342 6.71236,-0.73117 7.79734,0.16928 1.7642,1.46416 0.13323,2.83711 -3.39886,2.86115 -1.28248,0.009 -2.25,0.63329 -2.25,1.45244 0,1.08395 0.86013,1.29755 3.5,0.86916 4.92151,-0.79865 4.92151,2.20445 0,3.12773 -5.05091,0.94756 -4.56675,3.3738 0.75,3.75848 3.59027,0.25977 4.3016,0.67196 4.58237,2.65536 0.20146,1.42307 -0.58631,3.3524 -2,4.89816 l -2.33237,2.55029 2.41167,-0.59682 c 2.79487,-0.69164 6.08833,0.76999 6.08833,2.702 0,0.97646 -2.59772,1.48962 -9.75,1.92601 -5.3625,0.3272 -10.88757,0.87071 -12.27793,1.20783 -1.78956,0.4339 -3.04085,0.0462 -4.284,-1.32752 z m 3.11193,-8.40781 c 1.763,-1.76299 1.46671,-2.8 -0.8,-2.8 -1.33333,0 -2,0.66667 -2,2 0,2.26671 1.03701,2.56299 2.8,0.8 z m -9.53083,-14.05 c 7.52468,-7.37894 13.73083,-15.50573 13.73083,-17.98018 0,-0.7534 -0.54,-1.90982 -1.2,-2.56982 -0.93333,-0.93333 -0.50476,-1.2 1.92857,-1.2 3.63826,0 6.2752,2.19956 5.67345,4.73241 -0.30899,1.30055 1.12967,2.6487 5.44481,5.10227 9.8688,5.61136 17.15317,11.84544 17.15317,14.67994 0,1.36696 -0.56645,2.48538 -1.25877,2.48538 -0.69232,0 -6.1955,-4.30113 -12.2293,-9.55806 l -10.97053,-9.55807 -8.05864,8.42956 c -6.70193,7.0104 -14.3102,12.68657 -17.00494,12.68657 -0.33102,0 2.72509,-3.2625 6.79135,-7.25 z"
           style="fill:#4f4f4f" />
        <path
           inkscape:connector-curvature="0"
           id="path3033"
           d="m 659.20072,704.82643 c 0.28852,-1.2375 3.67686,-23.625 7.52965,-49.75 3.85278,-26.125 7.20811,-48.40986 7.45627,-49.52191 0.37626,-1.68603 3.03241,-2.70792 15.98941,-6.1515 l 15.53819,-4.12958 15.53819,4.12958 c 12.957,3.44358 15.61315,4.46547 15.98941,6.1515 0.24816,1.11205 3.60349,23.39691 7.45627,49.52191 3.85279,26.125 7.24113,48.5125 7.52965,49.75 l 0.52458,2.25 -47.0381,0 -47.0381,0 0.52458,-2.25 z m 90.52535,-1 c 0.0153,-1.61452 -14.23062,-98.15316 -14.54273,-98.5501 -0.12978,-0.16505 -6.81342,-2.07094 -14.85253,-4.23532 l -14.61657,-3.93522 -14.61657,3.93522 c -8.03911,2.16438 -14.72218,4.07027 -14.85127,4.23532 -0.36822,0.47081 -14.5468,96.08985 -14.53906,98.0501 0.006,1.64005 2.77144,1.75 44.0069,1.75 34.52702,0 44.00255,-0.26912 44.01183,-1.25 z m -27.57474,-7.87178 c -1.6154,-1.71698 -4.28709,-3.72437 -5.93709,-4.46086 -2.99235,-1.33566 -2.98683,-1.33918 2.16667,-1.37822 2.84464,-0.0216 5.33197,-0.53506 5.53448,-1.1426 0.20231,-0.6069 0.12573,-3.1944 -0.17017,-5.75 -0.52987,-4.57637 -0.5908,-4.6443 -4.03449,-4.49849 -1.92307,0.0814 -7.8656,0.71429 -13.20562,1.40637 -10.09101,1.3078 -12.79087,0.74731 -12.79087,-2.65543 0,-1.08405 0.50216,-1.12731 2.50307,-0.21564 1.89167,0.86191 5.31522,0.82704 14.01595,-0.14272 6.33207,-0.70576 11.72574,-1.62764 11.98591,-2.04861 1.05413,-1.70561 -2.23649,-3.04458 -4.94839,-2.01352 -1.47771,0.56183 -4.79494,0.99104 -7.37164,0.95382 -5.38614,-0.0778 -4.2686,-0.83418 5.00378,-3.3866 5.75616,-1.58451 9.28541,-3.96961 8.28031,-5.5959 -0.30217,-0.48892 -2.8671,0.0246 -5.69985,1.14118 -2.83275,1.11656 -6.10129,1.79147 -7.26344,1.49979 -1.35782,-0.3408 -2.71575,0.17365 -3.79956,1.43944 -0.92761,1.08337 -2.59097,1.96977 -3.69635,1.96977 -2.81775,0 -2.59485,-3.38663 0.3499,-5.31611 5.02414,-3.29194 7.18741,-6.68389 4.26275,-6.68389 -0.75765,0 -1.93775,-0.675 -2.62244,-1.5 -1.05964,-1.27679 -0.79733,-1.5 1.76272,-1.5 1.65419,0 5.3305,-0.75021 8.1696,-1.66714 4.78852,-1.54652 5.28087,-1.54824 6.80531,-0.0238 2.15146,2.15146 1.65857,2.50646 -4.76322,3.43064 -5.15045,0.74122 -5.42814,0.93495 -6.10852,4.26163 -0.39203,1.91681 -0.51658,3.68131 -0.27678,3.92112 0.2398,0.2398 2.02062,-0.31965 3.95737,-1.24323 3.60022,-1.71682 8.04865,-2.15555 10.87173,-1.07223 2.37421,0.91107 1.95558,5.1226 -0.64768,6.51582 l -2.22948,1.19318 2.22948,0.99482 c 1.22621,0.54715 2.22947,1.42715 2.22947,1.95555 0,0.57389 1.83704,0.68525 4.56243,0.27655 4.69686,-0.70434 7.43757,0.40383 7.43757,3.00728 0,0.98532 -1.3568,1.16527 -5.53476,0.73407 l -5.53476,-0.57124 0.78476,4.39349 c 1.15555,6.46936 0.68453,15.02468 -0.88186,16.01763 -1.96993,1.24875 -2.19747,1.15405 -5.39629,-2.24592 z m -37.3541,-2.46213 c -2.3129,-3.92009 -2.11764,-5.51966 0.41701,-3.41609 0.85158,0.70675 1.78418,1.04916 2.07243,0.7609 0.59975,-0.59975 2.22741,-14.7609 1.6966,-14.7609 -1.58815,0 -8.30578,4.33984 -8.18561,5.28821 0.57372,4.52783 -1.7969,9.62494 -3.8782,8.33862 -0.78162,-0.48306 -0.69408,-1.8241 0.30365,-4.65196 1.34684,-3.81735 1.30134,-4.07375 -1.15958,-6.53467 -3.09913,-3.09913 -2.74153,-3.69988 1.48145,-2.48874 4.38073,1.25637 12.16926,-1.33279 12.16926,-4.04546 0,-2.32012 -0.38862,-2.3527 -3.5279,-0.29576 -2.69008,1.7626 -6.92249,1.26441 -7.75811,-0.9132 -0.37077,-0.9662 0.29896,-1.20199 2.49756,-0.8793 2.94253,0.43187 2.98933,0.37158 2.28084,-2.93841 -0.39783,-1.85863 -1.1855,-3.95271 -1.75036,-4.6535 -1.4082,-1.74705 -0.67563,-2.15672 2.02801,-1.13408 1.38443,0.52365 2.49668,1.99187 2.85099,3.76341 0.44846,2.24229 1.01406,2.79152 2.47996,2.40818 2.5643,-0.67058 2.50218,-5.30241 -0.10099,-7.53131 -2.4305,-2.08106 -2.73378,-5.22758 -0.41821,-4.33902 0.86998,0.33384 1.98461,0.60699 2.47694,0.60699 0.49234,0 1.59027,1.06087 2.43985,2.35749 1.38559,2.11468 1.38949,3.01592 0.0378,8.75 -0.82876,3.51588 -1.5389,9.99251 -1.57807,14.39251 -0.0729,8.18288 -1.57559,14.56198 -3.58471,15.21701 -0.6195,0.20198 -2.10029,-1.28343 -3.29064,-3.30092 z m 22.91701,-6.7473 c 2.32038,-0.88637 3.61028,-2.08666 3.82721,-3.56134 0.37945,-2.57949 2.88627,-2.51602 4.54313,0.11503 1.64163,2.60685 -0.43147,4.00384 -6.56148,4.42155 l -5.30886,0.36175 3.5,-1.33699 z m -13.05739,-37.56926 -2.44261,-2.03299 6.1849,-0.0333 c 7.5218,-0.0405 10.68668,-1.14455 12.88109,-4.49364 1.34715,-2.05601 1.43037,-2.83909 0.42986,-4.04464 -2.04289,-2.46153 -3.99585,-1.7858 -3.99585,1.38257 0,3.30163 -1.94271,5.39391 -3.89055,4.19008 -0.82249,-0.50833 -1.06819,-1.62227 -0.64907,-2.94279 0.91515,-2.88339 -0.0715,-2.67346 -4.11316,0.87515 -4.17364,3.6645 -7.34722,3.97658 -7.34722,0.72251 0,-5.05629 4.85908,-8.43469 7.87098,-5.47251 1.01988,1.00304 1.6726,0.75827 3.30376,-1.23892 l 2.03277,-2.48891 -2.94105,-0.60151 c -5.3634,-1.09693 -6.13994,-2.37386 -1.77614,-2.92066 2.75513,-0.34523 4.0934,-1.0417 4.32332,-2.25 0.25866,-1.35929 -0.35315,-1.75 -2.74032,-1.75 -1.69032,0 -3.07332,-0.38348 -3.07332,-0.85217 0,-0.99033 12.92414,-3.31275 14.16556,-2.54551 1.67488,1.03513 0.76374,2.2543 -2.16556,2.89768 -1.66927,0.36663 -3,1.30913 -3,2.12477 0,1.13366 0.79317,1.31706 3.5,0.80925 2.73627,-0.51332 3.5,-0.32929 3.5,0.8434 0,0.92255 -1.34738,1.75277 -3.5,2.1566 -5.0463,0.94669 -4.56758,3.37358 0.74137,3.75848 5.16858,0.37472 6.02552,2.60266 2.72049,7.07295 l -2.2322,3.01922 2.47348,-0.62081 c 2.72712,-0.68446 6.48829,1.40836 5.47567,3.04682 -0.3447,0.55774 -4.80095,1.27178 -9.90277,1.58675 -5.10182,0.31496 -10.20186,0.85671 -11.33343,1.20388 -1.3291,0.40777 -2.92203,-0.0884 -4.5,-1.40178 z m 3.44557,-8.97598 c 1.56018,-1.72397 1.56545,-1.92737 0.0648,-2.50324 -2.17536,-0.83476 -3.45293,0.0675 -3.45293,2.43871 0,2.44961 1.20889,2.47263 3.38818,0.0645 z m -9.24089,-13.87355 c 6.96731,-7.26276 12.85271,-15.26713 12.85271,-17.48018 0,-0.7534 -0.54,-1.90982 -1.2,-2.56982 -0.93333,-0.93333 -0.5161,-1.2 1.87755,-1.2 3.3898,0 5.8532,2.1745 4.9955,4.40964 -0.37457,0.97612 1.58859,2.70732 6.13812,5.41287 10.6059,6.30718 17.18883,11.9609 17.18883,14.76256 0,1.32821 -0.36984,2.41493 -0.82186,2.41493 -1.06789,0 -6.03428,-3.87614 -15.69557,-12.25 -4.28327,-3.7125 -8.14358,-6.75 -8.57847,-6.75 -0.43488,0 -1.46876,0.96807 -2.29751,2.15128 -4.37844,6.2511 -17.32237,17.84872 -19.92069,17.84872 -0.55771,0 1.89991,-3.0375 5.46139,-6.75 z"
           style="fill:#2f2f2f" />
        <path
           inkscape:connector-curvature="0"
           id="path3031"
           d="m 659.71424,704.60514 c 0,-1.56769 13.6894,-94.28496 14.55209,-98.56014 0.475,-2.35396 1.59527,-2.80914 15.97936,-6.49273 l 15.46855,-3.9613 15.46855,3.9613 c 14.38409,3.68359 15.50436,4.13877 15.97936,6.49273 0.86269,4.27518 14.55209,96.99245 14.55209,98.56014 0,1.27373 -6.17674,1.47129 -46,1.47129 -39.82326,0 -46,-0.19756 -46,-1.47129 z m 90,-1.48184 c 0,-1.93825 -13.78336,-95.71109 -14.32509,-97.45843 -0.15544,-0.50136 -6.78338,-2.64499 -14.72876,-4.76362 l -14.44615,-3.85207 -14.5,3.67449 c -7.975,2.02097 -14.79638,3.9396 -15.15862,4.26362 -0.36225,0.32403 -3.85953,22.18914 -7.77175,48.58914 -3.91222,26.4 -7.28621,48.7875 -7.49776,49.75 -0.36181,1.64617 2.2501,1.75 44.02175,1.75 43.38447,0 44.40638,-0.0449 44.40638,-1.95313 z m -27.47037,-7.45057 c -1.96227,-1.96227 -4.79668,-3.91169 -6.2987,-4.33203 -2.32264,-0.65001 -1.90866,-0.83902 2.76907,-1.26427 l 5.5,-0.5 -0.34152,-5.5 c -0.18784,-3.025 -0.51204,-5.6742 -0.72045,-5.88712 -0.20841,-0.21291 -4.32973,0.16231 -9.15848,0.83384 -18.06188,2.51181 -17.96409,2.51124 -19.24739,0.11336 -1.11999,-2.09271 -1.02581,-2.14951 2.47514,-1.49273 3.79741,0.7124 25.50409,-1.37573 25.47739,-2.45086 -0.008,-0.33907 -0.4101,-1.23986 -0.89261,-2.00175 -0.70417,-1.11188 -1.52001,-1.16121 -4.13392,-0.25 -3.78021,1.31779 -11.82003,1.54451 -10.40816,0.2935 0.5225,-0.46296 3.52368,-1.39214 6.6693,-2.06484 6.50414,-1.39093 10.91995,-4.29983 9.19557,-6.05755 -0.79112,-0.80641 -2.37085,-0.555 -5.83032,0.92791 -2.60986,1.11871 -5.74124,1.78403 -6.95862,1.47849 -1.47838,-0.37105 -2.83153,0.12745 -4.07467,1.50111 -1.02368,1.13115 -2.43993,2.05664 -3.14723,2.05664 -3.0817,0 -2.26824,-2.47487 2.24236,-6.82215 4.35013,-4.1926 4.62775,-4.71001 2.67623,-4.98788 -1.19756,-0.17052 -2.71516,-0.95802 -3.37244,-1.75 -1.00711,-1.21349 -0.54987,-1.43997 2.90714,-1.43997 2.25621,0 5.91639,-0.72589 8.13372,-1.61309 3.2282,-1.29167 4.32814,-1.3669 5.52023,-0.37755 2.57411,2.13632 1.66512,2.87137 -4.39933,3.55749 -5.8184,0.65827 -5.89494,0.70852 -6.46918,4.24714 -0.31961,1.96954 -0.38002,3.78209 -0.13423,4.02787 0.24578,0.24579 2.38446,-0.29308 4.75261,-1.19749 6.67317,-2.54851 11.73886,-1.98422 11.73886,1.30763 0,0.95591 -0.88699,2.54074 -1.97109,3.52183 -1.95318,1.76761 -1.94811,1.80189 0.55835,3.77347 1.99561,1.56974 3.3849,1.85286 6.58285,1.34149 4.1204,-0.65888 6.82989,0.47807 6.82989,2.86593 0,0.84957 -1.57849,1.07892 -5.30091,0.77023 l -5.30091,-0.43959 0.41084,9.39364 c 0.33442,7.64622 0.12042,9.63467 -1.15039,10.68935 -1.32591,1.10041 -2.09901,0.75793 -5.129,-2.27205 z m -37.35204,-2.67794 c -2.315,-4.05325 -2.31552,-4.06255 -0.16436,-2.91128 1.18694,0.63523 2.3837,0.92932 2.65949,0.65353 0.61036,-0.61036 2.32785,-13.99338 1.85633,-14.4649 -0.18438,-0.18438 -2.17885,0.60531 -4.43214,1.75485 -3.4415,1.75572 -4.09691,2.57729 -4.09691,5.13551 0,3.38285 -1.55013,6.91393 -3.03518,6.91393 -1.4311,0 -1.16908,-3.70432 0.48879,-6.91028 1.37765,-2.6641 1.32541,-2.86938 -1,-3.9289 -1.34949,-0.61487 -2.45361,-1.77918 -2.45361,-2.58736 0,-1.20399 0.5513,-1.27724 3.05206,-0.40547 4.58645,1.59885 11.94794,-1.37293 11.94794,-4.82328 l 0,-2.48987 -2.63486,2.07258 c -3.11281,2.44853 -5.64487,2.64538 -7.36514,0.57258 -1.05274,-1.26848 -0.84012,-1.5 1.37756,-1.5 2.92105,0 2.92222,-0.004 1.70389,-5.25 -0.49491,-2.13122 -0.49456,-3.75 8.1e-4,-3.75 1.38105,0 4.15832,4.80171 3.44492,5.95602 -0.72166,1.16767 0.5041,1.35294 2.89103,0.43699 2.2482,-0.86271 1.95721,-4.96621 -0.59718,-8.4212 -2.64208,-3.57361 -1.94579,-4.62257 1.85319,-2.79184 2.5733,1.24007 2.81398,1.80661 2.69376,6.34088 -0.24016,9.05774 -2.43569,29.94049 -3.38844,32.22915 -1.30972,3.14614 -2.13975,2.82953 -4.80195,-1.83164 z m 23.57241,-6.40923 c 2.1491,-0.93409 3.25,-2.10641 3.25,-3.46086 0,-2.4492 2.22668,-2.685 4.09512,-0.43365 1.1488,1.38422 1.00777,1.88364 -0.98834,3.5 -1.35992,1.1012 -3.842,1.8691 -5.96756,1.84624 l -3.63922,-0.0391 3.25,-1.41259 z m -13.85865,-37.39602 -2.3874,-1.9332 4.99803,0.1256 c 8.19413,0.20592 11.85385,-0.945 13.87276,-4.36276 2.0915,-3.54062 1.5485,-5.94275 -1.34335,-5.94275 -1.43542,0 -2.03588,0.66011 -2.0467,2.25 -0.0214,3.14835 -1.50486,5.14811 -3.30614,4.45689 -0.96405,-0.36994 -1.32542,-1.34127 -0.9843,-2.64572 0.73195,-2.79898 -0.13897,-2.60165 -4.70204,1.06533 -5.88862,4.73223 -9.76697,1.52176 -5.10968,-4.22976 1.67269,-2.06568 2.17952,-2.1895 4.54705,-1.11078 3.318,1.51178 3.11533,1.52627 4.99899,-0.35739 1.95974,-1.95973 2.01823,-3.42857 0.13653,-3.42857 -0.7892,0 -2.7017,-0.53303 -4.25,-1.18451 l -2.8151,-1.18451 3.99032,-0.56549 c 2.72126,-0.38565 4.09622,-1.12205 4.32332,-2.31549 0.25866,-1.35929 -0.35315,-1.75 -2.74032,-1.75 -1.69032,0 -3.07332,-0.36433 -3.07332,-0.80962 0,-0.97447 11.9744,-3.09987 13.75,-2.44055 2.33686,0.86772 1.2617,2.25017 -1.75,2.25017 -1.65,0 -3,0.1882 -3,0.41821 0,0.23002 -0.28342,1.15678 -0.62981,2.05948 -0.52649,1.37201 -0.0106,1.59049 3.14463,1.33179 2.36085,-0.19358 3.93875,0.15867 4.21315,0.94052 0.26263,0.74833 -0.42381,1.25 -1.71038,1.25 -2.6162,0 -6.01759,1.71561 -6.01759,3.03518 0,0.53065 1.71,0.96482 3.8,0.96482 6.43755,0 7.99019,3.30072 3.61207,7.67884 l -2.58793,2.58793 2.63685,-0.50406 c 1.69389,-0.32381 3.42397,0.153 4.83793,1.33334 2.20035,1.8368 2.19957,1.83742 -2.36526,1.87068 -4.1707,0.0304 -14.1017,1.46805 -18.04429,2.61217 -0.88584,0.25707 -2.68495,-0.40253 -3.99802,-1.46579 z m 3.49683,-8.98956 c 1.59938,-1.76728 1.59538,-1.91588 -0.0686,-2.55442 -1.86503,-0.71568 -4.7005,2.00547 -3.7285,3.57819 0.81843,1.32424 1.94778,1.01975 3.79714,-1.02377 z m -8.68889,-14.38114 c 8.27594,-8.53501 13.78482,-16.6583 12.30235,-18.14077 -1.64903,-1.64903 -1.14523,-2.60164 1.37592,-2.60164 2.77958,0 5.08326,2.35675 4.29967,4.39874 -0.3714,0.96787 2.23616,3.19633 8.13813,6.95495 9.87068,6.28608 15.18464,10.84633 15.18464,13.03092 0,4.0732 -2.66861,2.43164 -17.28823,-10.63461 -3.53846,-3.1625 -6.79889,-5.75 -7.24537,-5.75 -0.44649,0 -3.96147,3.4182 -7.81105,7.596 -6.13917,6.66259 -13.22311,12.404 -15.30448,12.404 -0.37888,0 2.47791,-3.26591 6.34842,-7.25759 z"
           style="fill:#030303" />
      </g>
    </g>
  </g>
</svg>
