<?xml version="1.0" encoding="UTF-8" standalone="no"?>
<!-- Created with Inkscape (http://www.inkscape.org/) -->

<svg
   xmlns:dc="http://purl.org/dc/elements/1.1/"
   xmlns:cc="http://creativecommons.org/ns#"
   xmlns:rdf="http://www.w3.org/1999/02/22-rdf-syntax-ns#"
   xmlns:svg="http://www.w3.org/2000/svg"
   xmlns="http://www.w3.org/2000/svg"
   xmlns:sodipodi="http://sodipodi.sourceforge.net/DTD/sodipodi-0.dtd"
   xmlns:inkscape="http://www.inkscape.org/namespaces/inkscape"
   width="41.715885"
   height="50"
   id="svg3831"
   version="1.1"
   inkscape:version="0.48.3.1 r9886"
   sodipodi:docname="Shogi_ryuma(svg).svg">
  <defs
     id="defs3833" />
  <sodipodi:namedview
     id="base"
     pagecolor="#ffffff"
     bordercolor="#666666"
     borderopacity="1.0"
     inkscape:pageopacity="0.0"
     inkscape:pageshadow="2"
     inkscape:zoom="1.979899"
     inkscape:cx="7.6831261"
     inkscape:cy="47.169438"
     inkscape:document-units="px"
     inkscape:current-layer="layer1"
     showgrid="false"
     inkscape:window-width="968"
     inkscape:window-height="613"
     inkscape:window-x="1053"
     inkscape:window-y="961"
     inkscape:window-maximized="0"
     fit-margin-top="0"
     fit-margin-left="0"
     fit-margin-right="0"
     fit-margin-bottom="0" />
  <metadata
     id="metadata3836">
    <rdf:RDF>
      <cc:Work
         rdf:about="">
        <dc:format>image/svg+xml</dc:format>
        <dc:type
           rdf:resource="http://purl.org/dc/dcmitype/StillImage" />
        <dc:title />
      </cc:Work>
    </rdf:RDF>
  </metadata>
  <g
     inkscape:label="Layer 1"
     inkscape:groupmode="layer"
     id="layer1"
     transform="translate(-407.63739,-629.11054)">
    <g
       id="g4395"
       transform="matrix(0.4286765,0,0,0.4286765,232.89282,387.99181)">
      <path
         sodipodi:nodetypes="cccccc"
         inkscape:connector-curvature="0"
         id="path3885"
         d="m 425.27422,573.0448 30.43085,-9.21764 31.441,8.83884 16.41498,104.0457 -94.07047,-0.50507 z"
         style="fill:#ffffff;fill-opacity:1;stroke:none" />
      <g
         transform="translate(-220.21325,-15.152288)"
         id="g3876">
        <path
           inkscape:connector-curvature="0"
           id="path3864"
           d="m 628.0372,693.01283 c -0.0198,-0.6875 3.45801,-24.819 7.7285,-53.62555 7.05161,-47.5665 7.95015,-52.45823 9.78604,-53.27598 1.11182,-0.49524 8.54649,-2.6073 16.52149,-4.69348 l 14.5,-3.79306 15.85995,4.26232 c 8.72298,2.34428 16.06786,4.47022 16.32196,4.72432 0.43521,0.43521 16.25748,103.72582 16.29879,106.40143 0.0152,0.98308 -10.33707,1.25 -48.4807,1.25 -38.11412,0 -48.50772,-0.26768 -48.53603,-1.25 z m 93.03603,-4.63322 c 0,-1.95006 -13.64295,-94.07323 -14.45653,-97.61678 -0.37843,-1.64826 -2.97272,-2.66162 -14.75133,-5.76199 -7.86067,-2.0691 -14.89299,-3.7566 -15.62736,-3.75 -1.97983,0.0178 -28.55961,7.18116 -29.30279,7.89724 -0.35091,0.33811 -3.8445,22.21475 -7.76354,48.61475 -3.91903,26.4 -7.353,49.0125 -7.63104,50.25 l -0.50551,2.25 45.01905,0 c 43.42183,0 45.01905,-0.0668 45.01905,-1.88322 z m -54.5,-5.06214 c -2.32545,-0.95179 -4.92006,-3.7785 -5.83792,-6.36017 -0.94634,-2.66175 3.48621,-6.69447 7.35821,-6.69447 4.22671,0 6.97971,1.64241 6.97971,4.16401 0,1.93958 -0.37525,2.04387 -5.0992,1.41722 -3.95551,-0.52472 -5.00317,-0.3854 -4.67103,0.62117 1.32656,4.02025 10.81268,4.92365 17.53416,1.66983 4.90467,-2.3743 6.81488,-5.42992 5.83506,-9.33386 -0.8112,-3.23205 -4.02465,-4.53837 -11.16409,-4.53837 -5.77181,0 -7.06275,-1.41351 -3.76963,-4.12756 1.48293,-1.22215 1.23655,-1.42719 -2.25,-1.87244 -2.97578,-0.38002 -3.91527,-0.94762 -3.91527,-2.36545 0,-1.6372 1.00204,-1.91287 8.18915,-2.25296 4.50404,-0.21313 8.43541,0.0109 8.73638,0.49791 0.30097,0.48698 -0.33884,2.01186 -1.42179,3.38862 l -1.96902,2.50319 4.46633,1.12464 c 4.9383,1.24348 7.27226,3.89975 8.12605,9.24828 0.67945,4.25631 -2.71225,9.62489 -7.64703,12.10422 -3.70095,1.85942 -15.69409,2.35576 -19.48007,0.80619 z m -5.03472,-34.00616 c -2.55285,-1.03478 -4.97218,-3.87492 -4.06961,-4.77748 0.37436,-0.37436 2.00842,-0.17949 3.63123,0.43305 2.43109,0.91764 5.1973,0.58904 15.71183,-1.86642 10.12817,-2.36524 13.32869,-2.76422 15.51127,-1.93364 1.5125,0.57558 2.75,1.74864 2.75,2.6068 0,1.80044 -6.60413,4.87174 -12.4855,5.80648 l -3.9855,0.63342 2.9855,-2.48759 2.9855,-2.48759 -3,0.60734 c -1.65,0.33403 -6.1787,1.46454 -10.06379,2.51224 -7.90945,2.13296 -7.22281,2.06731 -9.97093,0.95339 z m 15.90314,-15.4169 c -2.42538,-2.42539 -4.36842,-5.31653 -4.36842,-6.5 0,-2.41016 1.4971,-2.8274 2.70031,-0.75259 1.10696,1.90884 7.42011,5.61273 9.57444,5.61727 1.73705,0.004 4.19664,-4.42452 3.28071,-5.90652 -0.25236,-0.40833 -2.28058,-1.56391 -4.50715,-2.56795 -2.22657,-1.00405 -4.04831,-2.14651 -4.04831,-2.53881 0,-0.39229 0.91422,-1.87551 2.0316,-3.29602 l 2.0316,-2.58277 -2.0316,-1.08728 c -1.11738,-0.598 -2.0316,-1.83064 -2.0316,-2.73918 0,-1.26395 -0.70516,-0.97632 -3.00254,1.22471 -3.91645,3.75219 -6.99746,10.22063 -6.99746,14.69084 0,3.9039 -1.90396,6.17453 -4.70196,5.60747 -1.50665,-0.30534 -1.74594,-1.21006 -1.47653,-5.58257 0.17682,-2.87 0.10654,-5.21818 -0.1562,-5.21818 -0.26273,0 -2.09416,2.25 -4.06984,5 -1.97568,2.75 -4.26789,5 -5.09381,5 -3.06365,0 -1.35984,-4.43973 4.0829,-10.6391 3.07151,-3.49849 5.37065,-6.3609 5.10921,-6.3609 -0.26145,0 -2.437,0.89012 -4.83457,1.97804 -5.68634,2.58024 -9.48594,2.58793 -10.8592,0.022 -0.98262,-1.83605 -0.76007,-2.00031 2.71482,-2.00374 4.27946,-0.004 9.59502,-2.83817 11.3004,-6.02471 0.93987,-1.75615 0.81798,-2.3817 -0.68617,-3.5217 -1.00598,-0.76244 -2.96642,-1.40055 -4.35654,-1.41805 -2.70772,-0.0341 -6.97251,-2.53484 -6.97251,-4.0885 0,-0.51882 2.42041,-0.9433 5.37868,-0.9433 5.0201,0 5.4606,-0.19778 6.60755,-2.96675 1.68064,-4.05743 4.56885,-4.79986 7.59885,-1.95333 3.06242,2.877 3.04559,4.2446 -0.0728,5.91348 -1.85425,0.99237 -2.21852,1.65569 -1.43061,2.60506 0.74327,0.89559 0.73962,1.86687 -0.0123,3.27188 -1.47829,2.76219 -1.36533,3.12966 0.96199,3.12966 3.39155,0 3.40257,2.74172 0.0265,6.58689 -2.55841,2.91386 -2.92596,3.86711 -1.94625,5.04759 1.01163,1.21894 1.64419,0.70812 3.8945,-3.14494 1.47768,-2.53015 4.2605,-6.26285 6.18403,-8.2949 2.68924,-2.84095 3.62199,-4.80454 4.03679,-8.49812 0.47861,-4.26173 0.27163,-4.97897 -1.83515,-6.35939 -3.06015,-2.00508 -2.18652,-3.33713 2.18868,-3.33713 4.34246,0 6.24549,3.19192 4.64326,7.78809 l -1.02628,2.94398 4.50183,-0.50742 c 3.97543,-0.44809 4.46033,-0.29189 4.14687,1.33578 -0.23108,1.19988 -2.01129,2.35758 -5.10056,3.31696 -3.78279,1.17475 -4.74558,1.92167 -4.74558,3.68155 0,1.36493 0.76161,2.40696 1.99495,2.72949 2.59828,0.67946 3.62792,3.48455 2.14856,5.85339 -1.0253,1.64176 -0.72798,2.08869 2.37334,3.56761 5.74552,2.73984 5.87493,7.74495 0.34327,13.2766 -4.4537,4.4537 -8.04398,4.09327 -13.4917,-1.35445 z m 15.63158,-25.63158 c 0,-0.55 0.3375,-1.01001 0.75,-1.02224 0.4125,-0.0122 1.86342,-0.87778 3.22426,-1.92345 2.38067,-1.82932 2.4074,-1.9751 0.70682,-3.85421 -1.64324,-1.81577 -1.6491,-1.99839 -0.0833,-2.59923 2.72022,-1.04385 6.40226,2.02687 6.40226,5.33932 0,2.66702 -0.39615,2.97904 -5.04922,3.97695 -6.13719,1.31619 -5.95078,1.31359 -5.95078,0.0829 z"
           style="fill:#fed5d5" />
        <path
           inkscape:connector-curvature="0"
           id="path3862"
           d="m 628.10053,692.01283 c 0.11863,-5.43257 15.90069,-105.08736 16.72281,-105.59508 0.58324,-0.36021 8.01056,-2.43436 16.50514,-4.60923 l 15.4447,-3.95431 15.84221,4.22983 c 8.71321,2.3264 15.96348,4.35109 16.11169,4.49931 0.14822,0.14822 3.65189,22.74923 7.78593,50.22448 4.13405,27.47525 7.77169,51.4175 8.08365,53.205 l 0.5672,3.25 -48.54532,0 c -38.18414,0 -48.53948,-0.26679 -48.51801,-1.25 z m 90.77882,-21 c -1.58183,-10.5875 -4.99937,-33.42339 -7.59453,-50.74642 l -4.71848,-31.49641 -14.91625,-3.95286 -14.91626,-3.95285 -15.3303,3.92589 c -8.43166,2.15925 -15.3303,4.37823 -15.3303,4.93108 0,1.28682 -13.86459,94.12701 -14.60402,97.79157 l -0.55489,2.75 45.42055,0 45.42055,0 -2.87607,-19.25 z m -51.78556,12.13396 c -8.75152,-3.49174 -7.68321,-12.94812 1.45195,-12.85216 3.88033,0.0408 6.98552,2.3322 6.14139,4.53197 -0.51985,1.35471 -1.46211,1.53612 -5.12542,0.98677 -5.18446,-0.77746 -5.8964,0.48085 -1.7932,3.16937 6.73934,4.41578 21.30472,-0.96804 21.30472,-7.8749 0,-4.85889 -3.04663,-6.84501 -10.5,-6.84501 -3.575,0 -6.5,-0.34987 -6.5,-0.77749 0,-0.42763 0.70052,-1.77763 1.5567,-3 1.48304,-2.11733 1.43958,-2.22251 -0.91821,-2.22251 -3.50582,0 -5.63849,-0.98605 -5.63849,-2.60699 0,-0.76615 0.3375,-1.40386 0.75,-1.41713 0.4125,-0.0133 4.2375,-0.24058 8.5,-0.50514 7.17957,-0.44563 7.75,-0.33762 7.75,1.46741 0,1.07164 -0.95601,2.61806 -2.12447,3.43648 -2.06417,1.4458 -2.0145,1.50847 1.75,2.20757 5.64024,1.04745 8.2181,3.12336 9.41961,7.58543 2.3747,8.81895 -5.22023,15.83792 -17.04514,15.75253 -3.575,-0.0258 -7.61575,-0.4921 -8.97944,-1.0362 z m 13.31606,-34.24129 c 1.01014,-0.62847 2.58514,-1.69086 3.5,-2.36087 1.51072,-1.10639 1.47954,-1.22111 -0.3398,-1.25 -1.10175,-0.0175 -5.15032,0.8682 -8.99682,1.9682 -8.41078,2.40527 -12.31466,2.51854 -15.27749,0.4433 -3.94878,-2.76583 -1.60381,-4.94456 2.54106,-2.36093 1.31411,0.81913 4.24922,0.44504 12.0681,-1.53813 10.27908,-2.60718 17.95183,-3.41411 20.06207,-2.10991 3.50642,2.16708 -1.73593,5.87027 -10.58565,7.47769 -3.74039,0.67938 -4.40024,0.61957 -2.97147,-0.26935 z m -0.43874,-12.92363 c -3.67349,-2.46598 -7.85039,-9.09986 -6.54897,-10.40129 0.4406,-0.4406 1.24148,-0.0142 1.77972,0.94761 1.07722,1.92489 7.9175,5.73464 10.29635,5.73464 1.84754,0 3.92755,-3.63894 3.18543,-5.57287 -0.29898,-0.77912 -2.35863,-2.14282 -4.577,-3.03044 -2.21838,-0.88762 -4.03341,-1.83302 -4.03341,-2.1009 0,-0.26788 0.8748,-1.71559 1.94399,-3.21713 1.92788,-2.70746 1.92753,-2.74419 -0.0426,-4.43102 -1.0926,-0.93551 -1.71583,-2.13894 -1.38497,-2.67429 1.3658,-2.20991 -1.33954,-0.74637 -4.20835,2.27665 -4.23583,4.46352 -6.30812,8.92402 -6.30812,13.5779 0,4.24795 -1.81161,6.55287 -4.70196,5.98232 -1.53096,-0.3022 -1.74641,-1.2057 -1.45046,-6.08257 0.19116,-3.15021 0.15346,-5.72765 -0.0838,-5.72765 -0.23724,0 -2.14673,2.49064 -4.24329,5.53476 -3.79439,5.50929 -5.70734,6.41498 -6.36657,3.01426 -0.20556,-1.06042 1.4329,-3.66583 4.03554,-6.41713 9.00149,-9.51566 8.98885,-9.47057 1.84099,-6.56614 -6.89061,2.79991 -10.33389,2.85842 -10.84357,0.18425 -0.27042,-1.41883 0.38998,-1.75125 3.48979,-1.75659 4.26818,-0.007 9.0641,-2.70627 10.89795,-6.13285 1.07146,-2.00206 0.92348,-2.40831 -1.29688,-3.56025 -1.3785,-0.71517 -3.31812,-1.30031 -4.31027,-1.30031 -2.90216,0 -4.94586,-1.09109 -6.10677,-3.26027 -1.02834,-1.92146 -0.85465,-1.99915 3.39777,-1.51984 4.74917,0.5353 7.74152,-0.47533 7.74152,-2.61459 0,-0.71243 0.86257,-2.07594 1.91681,-3.03002 2.21236,-2.00215 5.27924,-0.94599 7.09275,2.44259 0.89905,1.67988 0.56913,2.2685 -2.22708,3.97334 -1.80536,1.10072 -2.6611,2.003 -1.90164,2.00505 1.0124,0.003 1.23315,0.91389 0.82732,3.41474 -0.48539,2.99111 -0.2553,3.48584 1.86915,4.01905 3.11336,0.7814 3.05057,1.50485 -0.52056,5.99854 -1.61879,2.03698 -2.69565,4.34886 -2.39301,5.13751 0.88415,2.30406 1.81649,1.70344 4.34825,-2.80122 1.30914,-2.32931 4.02852,-6.04181 6.04305,-8.25 2.88989,-3.16769 3.80762,-5.13995 4.34917,-9.34666 0.62554,-4.85927 0.50149,-5.38012 -1.39981,-5.87732 -1.1474,-0.30005 -1.92004,-1.05075 -1.71696,-1.66823 0.6213,-1.88919 4.76273,-1.88724 6.85167,0.003 1.88006,1.70144 1.95014,3.372 0.31969,7.62088 -0.42746,1.11395 0.40564,1.41263 3.74574,1.3429 5.9821,-0.12487 5.71375,2.28723 -0.45454,4.08582 -3.92853,1.1455 -4.75,1.79198 -4.75,3.73814 0,1.51012 0.71468,2.54001 1.99495,2.8748 2.58897,0.67703 3.6295,3.48202 2.16287,5.83047 -1.50686,2.41288 -1.46031,2.88112 0.28642,2.88112 0.79433,0 2.64947,1.03671 4.12255,2.30379 2.24785,1.93352 2.56696,2.81075 1.98551,5.45809 -0.77119,3.51121 -6.62276,9.23812 -9.43921,9.23812 -0.99953,0 -3.34637,-1.02643 -5.21521,-2.28096 z m 16.03174,-29.71797 c 3.35754,-2.8847 3.39106,-2.98924 1.59501,-4.97385 -1.80349,-1.99284 -1.78449,-2.02722 1.12038,-2.02722 3.55534,0 5.35499,1.58784 5.35499,4.72475 0,2.47007 -1.78081,3.49412 -8,4.60038 l -3.5,0.62257 3.42962,-2.94663 z"
           style="fill:#feb0b0" />
        <path
           inkscape:connector-curvature="0"
           id="path3860"
           d="m 628.42937,690.01283 c 0.31829,-1.7875 3.74991,-24.625 7.62581,-50.75 3.8759,-26.125 7.28814,-48.67751 7.58275,-50.1167 0.50136,-2.44915 1.52016,-2.88135 15.91141,-6.75 8.45667,-2.27331 16.05526,-4.1333 16.88576,-4.1333 1.26047,0 31.82108,7.90616 32.29156,8.35397 0.0844,0.0803 3.58438,23.09603 7.77777,51.14603 4.19338,28.05 7.84541,52.0125 8.11562,53.25 l 0.49128,2.25 -48.63034,0 -48.63034,0 0.57872,-3.25 z m 93.16724,-2 c -0.31198,-1.7875 -3.71486,-24.4 -7.56194,-50.25 -3.84709,-25.85 -7.16945,-47.48784 -7.38303,-48.0841 -0.39563,-1.10451 -27.80551,-8.86992 -30.62644,-8.67667 -1.28008,0.0877 -29.03775,7.27967 -29.6409,7.67992 -0.20692,0.13731 -15.31653,100.61464 -15.31315,101.83085 10e-4,0.4125 20.49747,0.75 45.54739,0.75 l 45.54532,0 -0.56725,-3.25 z m -54.22857,-4.85717 c -5.33926,-1.54386 -8.26108,-8.01608 -4.88404,-10.81878 2.7019,-2.24237 7.95626,-2.40719 10.52144,-0.33002 3.49838,2.83281 1.90404,4.50392 -3.52088,3.6904 -6.15636,-0.9232 -6.07728,1.76392 0.12158,4.13129 5.19255,1.98305 9.56518,1.18475 15.55808,-2.84039 2.66789,-1.79189 3.47525,-3.07727 3.71371,-5.91248 0.42376,-5.03838 -2.31815,-6.81285 -10.52721,-6.81285 -3.45262,0 -6.27749,-0.34987 -6.27749,-0.77749 0,-0.42763 0.70052,-1.77763 1.5567,-3 1.49755,-2.13805 1.45005,-2.22309 -1.25,-2.23782 -1.54368,-0.008 -3.47794,-0.43969 -4.29834,-0.95836 -2.81232,-1.77801 0.53398,-3.17525 8.03092,-3.3533 8.35851,-0.19852 9.59738,0.90566 5.39052,4.80445 l -2.72184,2.52252 4.13024,0 c 12.5912,0 14.2578,16.54347 2.15446,21.38626 -4.37273,1.74962 -12.58591,1.98471 -17.69785,0.50657 z m -8.29481,-36.39283 c -2.51997,-2.68239 -1.61835,-3.19449 2.40042,-1.36342 2.02365,0.92204 4.48073,0.63889 13.01661,-1.5 13.48704,-3.37952 20.58297,-3.45358 20.58297,-0.2148 0,1.65487 -6.1241,4.43914 -11.26376,5.12097 l -4.23624,0.56199 3,-1.77746 c 2.9109,-1.72467 2.93127,-1.78794 0.68594,-2.13032 -1.27273,-0.19407 -5.39258,0.58223 -9.15523,1.7251 -9.05571,2.75058 -12.1313,2.66422 -15.03071,-0.42206 z m 21.24086,-10.4946 c -3.34172,-2.03747 -7.23046,-7.37989 -7.23712,-9.94249 -0.003,-0.97467 0.88115,-0.61176 2.74626,1.12781 5.53565,5.16306 10.4106,6.24623 12.29182,2.73114 1.56119,-2.91711 0.5486,-4.77722 -3.52776,-6.48043 -3.91284,-1.63489 -4.19945,-2.46575 -2.00561,-5.81398 1.37675,-2.10119 1.33899,-2.45554 -0.43256,-4.05877 -1.13139,-1.0239 -1.6979,-2.44735 -1.35817,-3.41264 1.05231,-2.98997 -6.84394,5.24875 -8.95057,9.33878 -1.13167,2.19714 -2.02002,5.31614 -1.9741,6.93109 0.1108,3.8972 -1.42398,6.57409 -3.76922,6.57409 -2.78045,0 -3.25151,-1.44074 -1.99579,-6.10413 1.4157,-5.25751 -0.0309,-7.10107 -2.50884,-3.19722 -2.69971,4.25331 -6.72221,8.29392 -7.67222,7.70678 -2.02953,-1.25432 -0.43419,-4.26811 5.34703,-10.10118 3.40671,-3.43726 5.99421,-6.44764 5.75,-6.68973 -0.2442,-0.2421 -3.07656,0.67099 -6.29412,2.02908 -6.46919,2.73057 -9.95609,2.76602 -10.463,0.1064 -0.26798,-1.40602 0.37859,-1.75 3.28945,-1.75 4.68286,0 9.10486,-2.32261 10.88291,-5.71612 1.322,-2.52314 1.25408,-2.77185 -1.08896,-3.98743 -1.3744,-0.71305 -3.10129,-1.29645 -3.83754,-1.29645 -2.27621,0 -6.2932,-2.19396 -6.89676,-3.7668 -0.48176,-1.25546 0.22762,-1.38957 4.41335,-0.83431 4.9861,0.66143 4.98804,0.66056 7.53157,-3.36864 1.3993,-2.21664 2.87603,-4.01594 3.28164,-3.99845 0.97236,0.0419 3.40579,2.04472 5.07693,4.17848 1.1779,1.50397 0.93663,1.95589 -2,3.74626 -1.83671,1.11979 -2.77698,2.03767 -2.08948,2.03972 1.62018,0.005 1.62847,4.6518 0.0101,5.65202 -0.8372,0.51741 -0.43291,0.95682 1.24475,1.35286 3.47716,0.82085 3.66382,3.6915 0.45764,7.03804 -1.63834,1.71005 -2.48395,3.46245 -2.12375,4.40112 0.97392,2.538 2.496,1.80341 4.53834,-2.1903 1.05474,-2.0625 3.70676,-5.77915 5.89337,-8.25922 3.10382,-3.52038 4.13133,-5.64106 4.68551,-9.67045 0.63526,-4.6189 0.48804,-5.27994 -1.40105,-6.29095 -2.59072,-1.38652 -1.78752,-3.02938 1.48107,-3.02938 3.46966,0 5.83043,3.90611 4.49061,7.43012 -1.45813,3.83516 -1.31872,5.05723 0.41296,3.62007 1.72808,-1.43418 6.75263,-1.01856 7.28426,0.60253 0.21116,0.6439 -1.85152,1.89327 -4.67288,2.83037 -2.778,0.9227 -5.05091,2.05467 -5.05091,2.51549 0,0.46081 -0.27314,1.54965 -0.60699,2.41963 -0.42783,1.11492 -0.0212,1.58179 1.37756,1.58179 3.05048,0 4.88556,2.71973 3.41927,5.06763 -1.61636,2.5882 -1.4948,3.93237 0.35561,3.93237 0.85001,0 2.63015,1.08469 3.95589,2.41043 2.08787,2.08787 2.28504,2.85732 1.47339,5.75 -1.05057,3.74418 -6.09293,8.84154 -8.74051,8.83583 -0.95382,-0.002 -3.20083,-0.89794 -4.99336,-1.99086 z m -12.74086,-39.0054 c 0.33992,-0.55 0.16803,-1 -0.38197,-1 -0.55,0 -1.27811,0.45 -1.61803,1 -0.33992,0.55 -0.16803,1 0.38197,1 0.55,0 1.27811,-0.45 1.61803,-1 z m 29,8.67272 c 2.40989,-2.02707 2.75412,-2.77417 1.75,-3.79808 -2.00213,-2.0416 -1.45714,-3.03148 1.4816,-2.69106 1.93573,0.22423 3.01224,1.11914 3.69485,3.07157 1.23289,3.52636 0.26458,4.47063 -5.42645,5.29175 l -4.5,0.64927 3,-2.52345 z"
           style="fill:#fe8f8f" />
        <path
           inkscape:connector-curvature="0"
           id="path3858"
           d="m 628.54985,690.01283 c 0.31198,-1.7875 3.71708,-24.4 7.56688,-50.25 3.84981,-25.85 7.25438,-48.40577 7.56571,-50.12393 l 0.56607,-3.12394 16.22141,-4.22522 16.22142,-4.22522 15.44089,4.1491 c 8.4925,2.28201 15.7447,4.46413 16.11602,4.84916 0.37132,0.38503 4.11032,23.65005 8.30891,51.70005 4.19858,28.05 7.86262,51.7875 8.14231,52.75 0.47937,1.64964 -2.2793,1.75 -48.10416,1.75 l -48.61271,0 0.56725,-3.25 z m 93.16642,-2 c -0.31874,-1.7875 -3.79351,-24.85 -7.7217,-51.25 -3.92819,-26.4 -7.20498,-48.06733 -7.28175,-48.14962 -0.0768,-0.0823 -6.94522,-1.94105 -15.26321,-4.13057 l -15.12362,-3.98096 -14.87638,3.98391 c -8.18201,2.19116 -14.98325,4.08178 -15.11386,4.20139 -0.29723,0.27219 -15.26037,99.6164 -15.26161,101.32585 -7.1e-4,0.98174 9.78753,1.25 45.61038,1.25 l 45.61129,0 -0.57954,-3.25 z m -54.34823,-4.85717 c -6.40723,-1.85267 -8.43247,-8.73604 -3.34447,-11.36715 3.92446,-2.02941 6.34145,-1.92332 9.18888,0.40334 1.86906,1.52723 2.10556,2.18861 1.13543,3.17534 -0.90543,0.92094 -2.08179,0.98349 -4.50572,0.23956 -6.53848,-2.00672 -7.81993,0.56909 -1.80877,3.63576 4.49946,2.29545 6.03088,2.42825 11.25879,0.97631 5.71233,-1.58647 9.78105,-5.49248 9.78105,-9.3899 0,-4.84912 -2.52654,-6.56609 -9.66207,-6.56609 -3.30253,0 -6.30617,-0.30158 -6.67477,-0.67017 -0.3686,-0.3686 -0.0183,-1.66504 0.7784,-2.88098 1.39642,-2.13121 1.30654,-2.23351 -2.49649,-2.84164 -3.85375,-0.61624 -4.99166,-1.84235 -2.90606,-3.13132 0.57145,-0.35318 4.24449,-0.71723 8.1623,-0.80902 8.18304,-0.1917 9.30834,0.85236 5.11226,4.74319 l -2.79313,2.58994 4.3167,0 c 12.39595,0 14.07094,16.61866 2.15552,21.38626 -4.37273,1.74962 -12.58591,1.98471 -17.69785,0.50657 z m -8.29481,-36.39283 c -2.51997,-2.68239 -1.61835,-3.19449 2.40042,-1.36342 2.02365,0.92204 4.48073,0.63889 13.01661,-1.5 10.89234,-2.72935 17.04266,-3.26423 19.51867,-1.69748 2.16589,1.37052 -0.14263,3.60267 -5.67579,5.48801 -6.34608,2.16232 -8.03325,2.03256 -5.12069,-0.39384 l 2.36078,-1.96673 -2.50318,-0.0333 c -1.37675,-0.0183 -5.65032,0.86673 -9.49682,1.96673 -9.15331,2.61761 -11.6521,2.53145 -14.5,-0.5 z m 22.21818,-10.16308 c -3.53835,-1.74398 -6.50708,-5.34115 -7.70575,-9.33692 l -0.74995,-2.5 2.86876,2.69695 c 1.57782,1.48333 4.50169,3.37906 6.49749,4.21275 3.34611,1.39775 3.75499,1.37627 5.25,-0.27569 2.85445,-3.15414 2.03228,-5.7524 -2.37873,-7.51733 -4.36678,-1.74724 -4.8724,-2.99521 -2.34501,-5.78794 1.53998,-1.70166 1.53998,-1.95582 0,-3.65748 -0.91025,-1.00581 -1.65499,-2.67213 -1.65499,-3.70295 0,-1.49625 -0.80002,-1.093 -3.96713,1.9996 -4.76838,4.6562 -7.33106,9.66996 -7.62239,14.91287 -0.22095,3.97609 -1.75503,5.83236 -4.41048,5.33676 -1.57577,-0.2941 -1.65263,-1.72307 -0.43575,-8.10175 0.97337,-5.10228 -0.47335,-4.59344 -5.37352,1.88998 -2.07606,2.74683 -4.1996,4.99423 -4.71899,4.99423 -1.54753,0 -1.79808,-3.7784 -0.33048,-4.98375 3.40371,-2.79551 11.18321,-11.52511 10.70073,-12.0076 -0.29559,-0.29559 -3.07809,0.62572 -6.18334,2.04735 -6.12913,2.80601 -9.95502,2.90567 -10.45666,0.27239 -0.23356,-1.22603 0.20374,-1.53505 1.64056,-1.15931 3.22186,0.84253 10.82467,-3.12488 12.61213,-6.58144 1.43651,-2.7779 1.44048,-3.08764 0.0396,-3.08764 -0.85639,0 -1.8151,-0.67241 -2.13047,-1.49426 -0.31537,-0.82184 -0.98504,-1.23984 -1.48816,-0.9289 -1.43513,0.88696 -7.63428,-1.50541 -8.28328,-3.19667 -0.49688,-1.29485 0.21506,-1.4232 4.75084,-0.85649 5.27287,0.6588 5.3505,0.62993 6.63319,-2.46676 1.89374,-4.57188 4.25832,-5.5004 6.88559,-2.7038 2.91902,3.10715 2.72409,3.89733 -1.61201,6.53436 -2.0625,1.25432 -2.94547,2.02536 -1.96215,1.71341 2.29178,-0.72703 3.42925,2.0212 1.86997,4.51801 -1.57345,2.51949 -1.47519,2.77686 0.83003,2.17403 1.26347,-0.33041 2.21454,0.0709 2.60995,1.10134 0.54639,1.42386 -0.24422,3.02122 -4.03981,8.16217 -0.6169,0.83557 -0.47862,1.83427 0.40066,2.89374 1.19497,1.43985 1.60895,1.14654 3.76307,-2.66618 1.33121,-2.3562 4.2087,-6.41379 6.39442,-9.01688 3.05542,-3.63885 4.10856,-5.86875 4.55602,-9.64681 0.51273,-4.32926 0.32556,-5.05116 -1.5731,-6.06729 -2.59589,-1.38928 -1.86702,-3.05302 1.33751,-3.05302 3.56153,0 4.92008,2.3813 4.23017,7.41472 l -0.60128,4.38684 2.81981,-1.06435 c 2.95533,-1.11552 6.11473,-0.49918 6.11473,1.19286 0,0.54606 -1.77975,1.47208 -3.955,2.05781 -7.1019,1.91235 -9.13466,5.78489 -4.045,7.70602 2.94407,1.11126 3.97395,3.58613 2,4.8061 -1.95984,1.21125 -0.94734,3.15469 2.5,4.79861 3.04705,1.45304 3.5,2.13701 3.5,5.28521 0,2.77919 -0.78696,4.40314 -3.4,7.01618 -3.84018,3.84018 -4.76656,4.01168 -9.38182,1.73692 z m -13.71818,-39.33692 c 0.33992,-0.55 0.16803,-1 -0.38197,-1 -0.55,0 -1.27811,0.45 -1.61803,1 -0.33992,0.55 -0.16803,1 0.38197,1 0.55,0 1.27811,-0.45 1.61803,-1 z m 28.88499,8.76134 c 2.51772,-2.0843 2.73603,-2.6667 1.71482,-4.57484 -1.01059,-1.88831 -0.91376,-2.1865 0.71002,-2.1865 2.23546,0 5.19017,3 5.19017,5.26972 0,2.06178 -0.54919,2.35374 -6,3.18977 l -4.5,0.6902 2.88499,-2.38835 z"
           style="fill:#fe6f6f" />
        <path
           inkscape:connector-curvature="0"
           id="path3856"
           d="m 628.53224,691.01283 c 0.27342,-1.2375 3.9032,-25.18371 8.06619,-53.2138 4.16299,-28.0301 7.66036,-51.01682 7.77194,-51.08161 0.11157,-0.0648 7.35558,-2.02007 16.0978,-4.34507 l 15.89494,-4.22727 15.95805,4.24547 c 8.77692,2.335 16.12096,4.724 16.32008,5.30887 0.19912,0.58488 3.89228,24.57591 8.20701,53.31341 l 7.84497,52.25 -48.32905,0 -48.32904,0 0.49711,-2.25 z m 93.54099,-0.65002 c 0,-1.25639 -15.09914,-101.53422 -15.32017,-101.74575 -0.0989,-0.0947 -6.95134,-2.00092 -15.22764,-4.23612 l -15.0478,-4.06402 -14.91018,4.01427 c -8.20059,2.20785 -15.07606,4.18015 -15.2788,4.38289 -0.44331,0.44331 -15.21289,98.29523 -15.21437,100.79875 -9.8e-4,1.64104 2.8319,1.75 45.49896,1.75 26.2972,0 45.5,-0.37985 45.5,-0.90002 z m -54.48677,-7.55378 c -7.41092,-2.73872 -8.99826,-8.60994 -3.00481,-11.11417 5.24517,-2.19157 11.62066,0.12305 9.5532,3.46827 -0.67043,1.08477 -1.51554,1.105 -4.53487,0.10853 -2.84902,-0.94026 -3.97981,-0.9509 -4.86881,-0.0458 -1.5835,1.61219 2.32785,4.75606 7.00988,5.63441 7.69348,1.44331 19.36408,-5.65694 17.78914,-10.8227 -1.42075,-4.66004 -3.37265,-5.77474 -10.11195,-5.77474 -6.72822,0 -7.69047,-0.85581 -4.69002,-4.17126 1.56795,-1.73257 1.49912,-1.82874 -1.30887,-1.82874 -3.53376,0 -7.25614,-2.31954 -5.482,-3.41602 1.62977,-1.00725 13.89042,-1.35372 15.37766,-0.43455 0.87508,0.54083 0.39239,1.62298 -1.69643,3.80324 l -2.91953,3.04733 4.26401,0 c 11.4953,0 14.05266,15.43926 3.40422,20.55198 -4.98885,2.39533 -13.73635,2.85841 -18.78082,0.99422 z m -7.93103,-35.6602 c -3.41049,-2.68269 -2.7123,-3.4241 1.71639,-1.82267 3.00964,1.0883 4.79633,0.90915 14.04443,-1.4082 11.06979,-2.77382 16.17619,-3.24513 18.59268,-1.71603 2.28552,1.44621 -0.37489,3.81688 -6.23703,5.55774 -6.64627,1.97374 -7.39386,1.89773 -4.55945,-0.46357 l 2.36078,-1.96673 -3.16091,-0.0333 c -1.73849,-0.0183 -6.01349,0.86092 -9.5,1.95383 -8.04151,2.52075 -9.94217,2.50626 -13.25689,-0.1011 z m 23.4178,-9.58611 c -2.78355,-1.0062 -9,-7.69037 -9,-9.67715 0,-1.93635 0.04,-1.93482 2.25,0.086 1.2375,1.13153 3.7708,2.82668 5.62955,3.76699 3.21972,1.62879 3.46442,1.6225 5.17409,-0.13303 3.35756,-3.44762 2.84489,-5.65318 -1.80364,-7.7594 -4.4822,-2.03086 -5.22159,-3.53204 -2.75,-5.58328 1.89272,-1.57082 1.92943,-3.62123 0.0776,-4.33186 -0.78234,-0.30021 -1.56984,-1.58586 -1.75,-2.85699 -0.30986,-2.18624 -0.55725,-2.08145 -4.57756,1.93885 -2.3375,2.3375 -4.25,4.08236 -4.25,3.87746 0,-0.2049 2.25,-3.18725 5,-6.62746 4.23476,-5.29761 5,-6.90546 5,-10.50549 0,-3.28821 -0.50942,-4.59681 -2.25,-5.77985 -2.08372,-1.41626 -2.11595,-1.5828 -0.43623,-2.25343 0.99757,-0.39828 2.91007,-0.22464 4.25,0.38587 2.67214,1.21751 3.14937,4.147 1.41758,8.70194 -0.90207,2.37263 -0.81623,2.58993 0.75,1.89882 2.66431,-1.17565 7.52842,-1.09274 7.95127,0.13553 0.20513,0.59586 -1.55204,1.65483 -3.90482,2.35327 -2.35279,0.69844 -4.8403,1.72852 -5.5278,2.28906 -2.1744,1.77286 -1.36848,4.29108 1.75,5.46818 2.94407,1.11126 3.97395,3.58613 2,4.8061 -1.95984,1.21125 -0.94734,3.15469 2.5,4.79861 2.95375,1.40854 3.5,2.18309 3.5,4.9627 0,3.97489 -2.11708,7.23076 -6.01104,9.2444 -1.5893,0.82186 -3.02449,1.45876 -3.1893,1.41534 -0.16481,-0.0434 -0.97466,-0.32294 -1.79966,-0.62116 z m -19.60839,-5.72175 c -0.30009,-0.78202 -0.061,-2.32744 0.53139,-3.43426 1.30986,-2.4475 1.42215,-7.14388 0.17081,-7.14388 -0.49841,0 -2.52266,2.25 -4.49834,5 -3.38985,4.71843 -6.59547,6.5343 -6.59547,3.73612 0,-0.69514 2.75441,-4.31573 6.1209,-8.04577 3.36649,-3.73004 5.93218,-6.97061 5.70151,-7.20127 -0.23066,-0.23066 -3.23539,0.71805 -6.67718,2.10825 -6.48322,2.61869 -9.18183,2.79668 -9.8957,0.65267 -0.2624,-0.78809 0.55313,-1.25 2.20698,-1.25 3.45422,0 10.00811,-3.39755 11.97741,-6.20912 1.80617,-2.57867 2.09188,-5.23388 0.45428,-4.22178 -0.61149,0.37792 -1.48942,0.0761 -1.95094,-0.67062 -0.46153,-0.74677 -2.21435,-1.42692 -3.89516,-1.51145 -3.0997,-0.15589 -6.0421,-1.88172 -6.0421,-3.54392 0,-0.51633 2.17217,-0.62385 5.0068,-0.24782 4.93818,0.65507 5.02184,0.62099 6.10518,-2.48667 1.591,-4.56395 4.09196,-5.58489 6.75003,-2.7555 3.01622,3.21061 2.71136,4.14683 -2.11201,6.48605 -4.04901,1.96367 -4.11443,2.0635 -1.38337,2.11099 2.95629,0.0514 3.07022,0.60258 1.11105,5.37486 -0.52379,1.27588 -0.33226,1.76679 0.63655,1.63151 4.81202,-0.67191 5.1285,1.55848 0.90387,6.37007 -2.95718,3.36804 -2.96546,3.41106 -1,5.18978 1.09005,0.98648 1.9819,1.35986 1.9819,0.82974 0,-0.53012 0.67289,-1.83737 1.49532,-2.90499 1.32709,-1.72275 1.32709,-1.52286 0,1.77675 -0.82243,2.04484 -1.49532,5.25919 -1.49532,7.14301 0,2.20078 -0.56543,3.64211 -1.58179,4.03212 -2.43746,0.93534 -3.43223,0.73403 -4.0266,-0.81487 z m 4.10839,-34.57814 c 0.33992,-0.55 0.16803,-1 -0.38197,-1 -0.55,0 -1.27811,0.45 -1.61803,1 -0.33992,0.55 -0.16803,1 0.38197,1 0.55,0 1.27811,-0.45 1.61803,-1 z m 29,8.64651 c 2.65055,-2.21501 2.85341,-2.74813 1.74153,-4.57678 -1.09519,-1.80118 -1.01798,-2.06973 0.59501,-2.06973 2.20941,0 5.16346,3.01005 5.16346,5.26135 0,1.65532 -1.02074,2.12789 -7,3.24077 l -3.5,0.65143 3,-2.50704 z"
           style="fill:#fe4e4e" />
        <path
           inkscape:connector-curvature="0"
           id="path3854"
           d="m 628.63626,691.51283 c 0.20669,-0.9625 3.80968,-24.925 8.00664,-53.25 4.19696,-28.325 7.69823,-51.53435 7.78059,-51.57633 0.0824,-0.042 7.36074,-1.94292 16.17419,-4.2243 l 16.02445,-4.14796 15.93951,4.27535 15.93951,4.27535 7.74195,50.94895 c 4.25807,28.02192 7.76179,51.96144 7.78604,53.19894 l 0.0441,2.25 -47.90638,0 c -45.10162,0 -47.88438,-0.10246 -47.53059,-1.75 z m 93.43457,-1.5 c -0.005,-2.36404 -14.94536,-101.0311 -15.36187,-101.44761 -0.22924,-0.22923 -7.16691,-2.19768 -15.41704,-4.37432 l -15.00025,-3.95752 -14.72579,3.96463 c -8.09918,2.18054 -14.96579,4.20462 -15.25912,4.49795 -0.59653,0.59653 -15.18445,96.78246 -15.21444,100.31687 l -0.0191,2.25 45.5,0 c 35.73461,0 45.49948,-0.26828 45.4976,-1.25 z m -52.81293,-6.73942 c -3.86333,-0.91441 -8.18467,-4.62606 -8.18467,-7.02991 0,-4.05021 9.13421,-7.24646 12.13454,-4.24613 1.91075,1.91075 0.21748,4.51597 -2.37961,3.66124 -6.36595,-2.0951 -8.83317,0.36679 -3.57829,3.57057 4.49284,2.73918 9.38748,2.55349 15.70748,-0.59589 6.26964,-3.1243 7.9513,-5.93936 6.14832,-10.29215 -1.47487,-3.56065 -3.6974,-4.44065 -10.78244,-4.26925 -5.54897,0.13423 -6.84262,-1.24241 -3.65416,-3.8886 1.39414,-1.15703 1.04656,-1.4569 -2.75,-2.37245 -5.78001,-1.39386 -5.43375,-2.99807 0.70292,-3.25658 2.72318,-0.11472 5.85498,-0.43349 6.95955,-0.70839 1.10457,-0.2749 2.67166,-0.0898 3.48243,0.41124 1.2266,0.75808 1.00585,1.39985 -1.31471,3.82198 l -2.78883,2.91092 4.7734,0.53803 c 6.04951,0.68187 9.3394,4.08318 9.3394,9.6557 0,9.30028 -11.3205,15.04705 -23.81533,12.08967 z m -9.87891,-36.47898 c -2.15481,-1.89572 -2.41345,-2.47573 -1.11478,-2.5 0.93004,-0.0174 1.9691,0.4184 2.30902,0.9684 0.95545,1.54595 4.07875,1.23408 16.18077,-1.61571 11.33513,-2.66919 18.91153,-2.70147 18.06129,-0.0769 -0.50272,1.55178 -6.29375,4.24289 -10.74206,4.99186 -3.03511,0.51102 -3.20114,0.44358 -1.25,-0.50778 1.2375,-0.60339 2.25,-1.4783 2.25,-1.94425 0,-1.42455 -5.14748,-0.94982 -12.5,1.15281 -8.90904,2.54776 -9.80188,2.51606 -13.19424,-0.4684 z m 23.12504,-9.99251 c -3.47175,-1.45976 -8.4308,-6.92427 -8.4308,-9.29013 0,-1.32723 0.38077,-1.24942 2.25,0.45975 2.44483,2.23549 8.03209,5.29129 9.67466,5.29129 0.56319,0 1.73881,-1.38233 2.61249,-3.07183 1.90917,-3.69194 0.97199,-5.275 -4.11714,-6.95457 -3.66203,-1.20858 -4.34011,-2.96509 -1.92001,-4.9736 1.89272,-1.57082 1.92943,-3.62123 0.0776,-4.33186 -0.78234,-0.30021 -1.56984,-1.54266 -1.75,-2.761 -0.32344,-2.18728 -0.3716,-2.17861 -3.82756,0.68886 -3.43264,2.84811 -3.41821,2.8051 0.75,-2.23478 3.74681,-4.53036 4.25,-5.73013 4.25,-10.13337 0,-4.32546 -0.30143,-5.07934 -2.25,-5.6272 -2.12696,-0.59802 -2.14833,-0.69248 -0.39084,-1.72741 1.35602,-0.79852 2.5405,-0.78436 4.3768,0.0523 2.20197,1.00329 2.4514,1.61272 1.98937,4.86078 -0.29054,2.04251 -0.84078,4.48821 -1.22274,5.43488 -0.64552,1.59988 -0.47621,1.61234 2.40159,0.1767 1.70283,-0.84948 3.84622,-1.39903 4.76307,-1.22122 2.81111,0.54519 2.58009,2.54713 -0.3737,3.2384 -6.14525,1.43816 -8.29355,2.78181 -8.29355,5.18717 0,1.66419 0.71548,2.5392 2.42764,2.96893 3.15008,0.79061 4.04466,3.24943 2.00302,5.50542 -1.51629,1.67548 -1.36128,1.91812 2.47589,3.8757 4.59008,2.34169 5.24776,4.91481 2.57652,10.08041 -2.2403,4.33226 -6.22158,6.11704 -10.05227,4.50636 z m -18.25115,-4.82263 c -0.67529,-0.81367 -0.72572,-1.82036 -0.13776,-2.75 1.24609,-1.97022 1.21331,-7.96646 -0.0435,-7.96646 -0.55092,0 -2.61813,2.25 -4.59381,5 -3.39796,4.72971 -6.41782,6.50098 -6.39346,3.75 0.006,-0.6875 2.96837,-4.5125 6.58284,-8.5 3.61447,-3.9875 6.07093,-7.25 5.4588,-7.25 -0.61214,0 -3.83276,1.14474 -7.15694,2.54387 -3.41565,1.43763 -6.88148,2.27805 -7.96987,1.93261 -2.79351,-0.88663 -2.36148,-2.47648 0.67297,-2.47648 3.59354,0 9.06666,-2.75932 11.42833,-5.76171 1.98748,-2.52668 2.73274,-5.82599 1.08611,-4.80832 -0.48768,0.30141 -1.44278,-0.12204 -2.12245,-0.94098 -0.67966,-0.81895 -2.66565,-1.48899 -4.4133,-1.48899 -2.98903,0 -5.57756,-1.46325 -5.57756,-3.15288 0,-0.41409 2.2286,-0.48895 4.95244,-0.16635 4.91312,0.58189 4.9662,0.5577 6.68521,-3.04711 1.91057,-4.00651 4.16575,-4.61337 6.70736,-1.80492 2.45582,2.71365 2.08346,3.562 -2.59501,5.91221 -4.07759,2.04837 -4.13371,2.1375 -1.38337,2.19701 2.9458,0.0638 3.06732,0.63006 1.13984,5.31204 -0.57775,1.40338 -0.20409,1.75 1.88654,1.75 3.39065,0 3.3033,1.74678 -0.30191,6.03777 -2.6617,3.16801 -2.77672,3.61015 -1.35344,5.20292 1.47823,1.65426 1.62541,1.65426 2.96407,0 1.27457,-1.57506 1.3082,-1.53285 0.35344,0.44357 -0.58034,1.20134 -1.05517,3.69884 -1.05517,5.55 0,4.76863 -2.58657,7.17375 -4.82035,4.4822 z m 3.82035,-34.76443 c 0,-0.4587 -0.45,-1.11211 -1,-1.45203 -0.55,-0.33992 -1,-0.40328 -1,-0.1408 0,0.26247 -0.2751,1.19413 -0.61134,2.07035 -0.44745,1.16604 -0.17937,1.42737 1,0.9748 0.88624,-0.34008 1.61134,-0.99363 1.61134,-1.45232 z m 28.25,9.3417 c 2.93107,-1.87265 3.50697,-4.13676 1.55,-6.09373 -0.93333,-0.93333 -0.71623,-1.2 0.97695,-1.2 1.23219,0 2.90489,1.11098 3.85431,2.55998 2.13056,3.25165 0.66827,4.91846 -5.13126,5.84895 l -4,0.64177 2.75,-1.75697 z"
           style="fill:#fe2e2e" />
        <path
           inkscape:connector-curvature="0"
           id="path3852"
           d="m 629.07323,691.35994 c 0,-1.92276 14.78695,-101.81186 15.32424,-103.5186 0.15955,-0.50682 7.36949,-2.82231 16.0221,-5.14554 l 15.73202,-4.22405 16.00333,4.14554 c 13.35294,3.45898 16.07622,4.47677 16.44344,6.14554 0.65526,2.97766 15.47487,101.90373 15.47487,103.30012 0,0.91633 -11.22495,1.19988 -47.5,1.19988 -46.02534,0 -47.5,-0.0591 -47.5,-1.90289 z m 93,-1.88264 c 0,-3.10473 -14.74451,-100.29231 -15.29977,-100.84758 -0.29162,-0.29161 -7.18526,-2.33139 -15.31921,-4.53284 l -14.789,-4.00265 -14.32782,3.74732 c -7.88031,2.06102 -14.91442,4.23646 -15.63137,4.8343 -0.82875,0.69106 -3.9354,18.93454 -8.52923,50.08698 -3.97413,26.95 -7.45355,49.7875 -7.73203,50.75 -0.47703,1.64867 2.16112,1.75 45.56104,1.75 43.55628,0 46.06739,-0.0973 46.06739,-1.78553 z m -51.91304,-6.142 c -2.94756,-0.50111 -5.18911,-1.65248 -6.75,-3.46713 -2.91895,-3.39347 -2.94609,-5.06528 -0.11445,-7.04864 4.05254,-2.83851 11.74174,-1.51189 10.4685,1.80614 -0.49383,1.28689 -1.14335,1.37544 -3.65823,0.49874 -6.06079,-2.1128 -8.09027,0.91334 -2.78278,4.14938 4.21435,2.56954 10.01634,2.52261 15.48612,-0.12526 5.47986,-2.65276 7.66219,-5.79572 6.78798,-9.77596 -0.98048,-4.4641 -3.05903,-5.60974 -10.17779,-5.60974 -6.46443,0 -7.85419,-1.00368 -4.84631,-3.5 1.81875,-1.50943 1.98111,-3.11574 0.25,-2.47342 -1.63368,0.60617 -7.25,-0.93337 -7.25,-1.98736 0,-0.44928 3.7125,-0.99524 8.25,-1.21324 4.89479,-0.23517 8.25,-0.005 8.25,0.56635 0,0.52949 -1.4625,2.11534 -3.25,3.5241 l -3.25,2.56139 3.10078,0.0111 c 7.36318,0.0263 12.40529,4.18003 12.39548,10.21143 -0.005,3.28001 -3.42688,8.45386 -6.71521,10.15432 -3.69028,1.90832 -10.6999,2.65188 -16.19409,1.71781 z m -9.86445,-35.62917 c -2.78197,-1.94857 -3.0132,-3.93683 -0.28825,-2.47848 2.91345,1.55923 6.61365,1.24162 17.06574,-1.46482 11.01357,-2.85183 13.88751,-3.03767 16.55887,-1.07075 1.83761,1.35303 1.70115,1.53851 -2.55887,3.47804 -2.475,1.12683 -5.37351,2.05867 -6.44113,2.07075 -1.92151,0.0217 -1.92151,0.007 0,-1.44624 1.80809,-1.36757 1.65595,-1.47037 -2.21978,-1.5 -2.28849,-0.0175 -7.01349,0.86239 -10.5,1.9553 -7.67567,2.40607 -8.77131,2.4491 -11.61658,0.4562 z m 17.65984,-14.32565 c -2.13529,-2.1353 -3.88235,-4.6103 -3.88235,-5.5 0,-1.34011 0.35818,-1.25947 2.08765,0.47 2.02642,2.02642 7.81582,4.91235 9.85455,4.91235 0.55354,0 1.72127,-1.38233 2.59495,-3.07183 1.90917,-3.69194 0.97199,-5.275 -4.11714,-6.95457 -3.97451,-1.31171 -3.95602,-1.25484 -1.67001,-5.13658 1.66667,-2.83005 1.66667,-3.01834 0,-3.95398 -0.9625,-0.54033 -1.75,-1.86006 -1.75,-2.93273 0,-2.60804 -0.81983,-2.46232 -4.44528,0.79013 -1.6801,1.50723 -1.14222,0.7027 1.19528,-1.78786 3.96325,-4.22276 4.25,-4.90913 4.25,-10.17304 0,-4.90821 -0.28222,-5.73434 -2.16289,-6.33124 -1.9317,-0.6131 -1.98299,-0.78716 -0.47982,-1.62837 4.27863,-2.39445 7.73533,2.17605 5.69817,7.5342 -1.63669,4.30481 -1.29703,4.82215 2.0348,3.0992 3.00764,-1.55532 5.90974,-1.38849 5.90974,0.33972 0,0.4707 -2.1375,1.51701 -4.75,2.32514 -3.97458,1.22947 -4.80174,1.91204 -5.06697,4.18125 -0.22251,1.90372 0.22452,2.90551 1.5,3.36148 3.92599,1.4035 4.47121,2.45474 2.68614,5.1791 -0.92174,1.40676 -1.26938,2.70027 -0.77253,2.87447 8.08889,2.83606 9.50044,7.9157 3.78725,13.62889 -3.92017,3.92017 -7.72908,3.54672 -12.50154,-1.22573 z m -13.26819,-0.93294 c -0.27897,-0.45139 -0.23645,-3.44421 0.0945,-6.65073 0.52106,-5.04865 0.77303,-5.59572 1.87999,-4.08186 0.70306,0.96148 1.64573,1.52105 2.09482,1.24347 0.4491,-0.27758 0.65803,1.48615 0.46429,3.9194 -0.2404,3.0193 -0.93557,4.73627 -2.18931,5.40725 -1.01039,0.54074 -2.06531,0.61385 -2.34428,0.16247 z m -11.12677,-2.20512 c -0.34686,-0.56122 2.38174,-4.38622 6.06355,-8.5 3.68181,-4.11377 6.11185,-7.47959 5.40009,-7.47959 -0.71176,0 -4.20057,1.16277 -7.75292,2.58393 -5.89328,2.35769 -6.59751,2.44525 -8.04275,1 -1.44524,-1.44524 -1.29252,-1.58393 1.7442,-1.58393 4.66431,0 10.5328,-3.58644 12.4512,-7.60935 1.54497,-3.23985 1.53128,-3.39065 -0.30792,-3.39065 -1.05864,0 -2.20292,-0.45 -2.54284,-1 -0.33992,-0.55 -1.74606,-1 -3.12476,-1 -2.78752,0 -6.37524,-1.62547 -6.37524,-2.88839 0,-0.44991 2.17597,-0.60894 4.83548,-0.3534 4.68061,0.44975 4.90374,0.34896 6.96628,-3.14679 2.40151,-4.07025 4.08818,-4.49551 6.64121,-1.67443 2.1627,2.38974 1.36958,3.79686 -3.31505,5.88144 l -3.62792,1.61437 2.75,0.35002 c 3.16787,0.40321 3.38606,1.3168 1.13499,4.75236 -1.59736,2.43789 -1.58097,2.46482 1.5,2.46482 1.71326,0 3.11501,0.51259 3.11501,1.1391 0,0.6265 -2.38725,3.889 -5.30501,7.25 -2.91775,3.36099 -6.3234,7.5734 -7.56809,9.3609 -2.35319,3.3794 -3.56807,3.96323 -4.63951,2.22959 z m 14.51261,-33.66991 c 0,-1.96839 -2.41213,-1.09701 -2.82265,1.01968 -0.225,1.16012 0.15332,1.48098 1.25,1.06014 0.86496,-0.33191 1.57265,-1.26783 1.57265,-2.07982 z m 28.75,9.98606 c 2.47306,-1.69233 2.911,-4.23474 1.05,-6.09574 -0.93333,-0.93333 -0.82222,-1.2 0.5,-1.2 1.81171,0 5.7,3.37052 5.7,4.94098 0,1.32022 -1.6556,2.1973 -5.86795,3.10865 -3.49031,0.75513 -3.54424,0.72571 -1.38205,-0.75389 z"
           style="fill:#fe0101" />
      </g>
    </g>
  </g>
</svg>
