<?xml version="1.0" encoding="UTF-8" standalone="no"?>
<!-- Created with Inkscape (http://www.inkscape.org/) -->

<svg
   xmlns:dc="http://purl.org/dc/elements/1.1/"
   xmlns:cc="http://creativecommons.org/ns#"
   xmlns:rdf="http://www.w3.org/1999/02/22-rdf-syntax-ns#"
   xmlns:svg="http://www.w3.org/2000/svg"
   xmlns="http://www.w3.org/2000/svg"
   xmlns:sodipodi="http://sodipodi.sourceforge.net/DTD/sodipodi-0.dtd"
   xmlns:inkscape="http://www.inkscape.org/namespaces/inkscape"
   width="41.968632"
   height="50"
   id="svg6168"
   version="1.1"
   inkscape:version="0.48.3.1 r9886"
   sodipodi:docname="New document 22">
  <defs
     id="defs6170" />
  <sodipodi:namedview
     id="base"
     pagecolor="#ffffff"
     bordercolor="#666666"
     borderopacity="1.0"
     inkscape:pageopacity="0.0"
     inkscape:pageshadow="2"
     inkscape:zoom="1.979899"
     inkscape:cx="40.257741"
     inkscape:cy="11.446082"
     inkscape:document-units="px"
     inkscape:current-layer="layer1"
     showgrid="false"
     fit-margin-top="0"
     fit-margin-left="0"
     fit-margin-right="0"
     fit-margin-bottom="0"
     inkscape:window-width="1366"
     inkscape:window-height="718"
     inkscape:window-x="0"
     inkscape:window-y="0"
     inkscape:window-maximized="1" />
  <metadata
     id="metadata6173">
    <rdf:RDF>
      <cc:Work
         rdf:about="">
        <dc:format>image/svg+xml</dc:format>
        <dc:type
           rdf:resource="http://purl.org/dc/dcmitype/StillImage" />
        <dc:title></dc:title>
      </cc:Work>
    </rdf:RDF>
  </metadata>
  <g
     inkscape:label="Layer 1"
     inkscape:groupmode="layer"
     id="layer1"
     transform="translate(-740.60053,-704.99526)">
    <g
       id="g6723"
       transform="matrix(0.49653286,0,0,0.49653286,372.86803,380.1153)">
      <path
         inkscape:connector-curvature="0"
         id="path6213"
         d="m 756.09918,663.70599 -14.14213,90.15612 81.31728,-0.50508 -13.38453,-89.90358 -27.02158,-8.33376 z"
         style="fill:#ffffff;fill-opacity:1;stroke:none" />
      <path
         style="fill:#fecfcf"
         d="m 740.85023,753.74526 c -0.0153,-1.5959 13.23745,-91.14802 13.5486,-91.5512 0.12785,-0.16565 6.58441,-2.01027 14.34792,-4.09913 l 14.11547,-3.79794 14.11547,3.79794 c 7.76351,2.08886 14.22007,3.93348 14.34792,4.09913 0.31115,0.40318 13.56391,89.9553 13.5486,91.5512 -0.009,0.97997 -9.08505,1.25 -42.01199,1.25 -32.92694,0 -42.00259,-0.27003 -42.01199,-1.25 z m 80.54158,-4 c -0.27969,-1.2375 -3.25597,-20.925 -6.61397,-43.75 -3.358,-22.825 -6.17524,-41.56357 -6.26054,-41.64126 -0.61082,-0.55637 -23.98237,-6.35874 -25.61256,-6.35874 -1.13187,0 -7.37509,1.40335 -13.8738,3.11856 l -11.81586,3.11856 -6.25312,42.13144 c -3.43922,23.17229 -6.47394,42.91894 -6.74382,43.88144 -0.46131,1.64519 1.8503,1.75 38.59574,1.75 l 39.08644,0 -0.50851,-2.25 z m -38.82207,-16.83988 c -5.37107,-2.83459 -7.69922,-7.1289 -7.70378,-14.20978 -0.002,-3.37906 0.66727,-7.09725 1.60397,-8.90862 1.37913,-2.66694 1.42459,-3.66383 0.31974,-7.01155 -0.96701,-2.93007 -1.0377,-5.41581 -0.28368,-9.97508 0.85927,-5.19559 0.74307,-6.58488 -0.80462,-9.62059 -2.23515,-4.38411 -1.63698,-5.1669 1.92722,-2.52202 4.0807,3.02816 5.58319,8.52534 4.31073,15.77171 -0.57313,3.26381 -0.86398,6.11226 -0.64634,6.3299 0.21764,0.21765 1.53374,-0.34995 2.92466,-1.26132 2.98979,-1.95898 7.00046,-1.65249 7.42303,0.56726 0.19179,1.00747 -1.49898,2.54854 -4.71879,4.30098 -6.36943,3.46668 -8.05966,5.92384 -8.05966,11.71664 0,5.76883 2.72242,9.58205 7.47796,10.47419 3.71667,0.69726 7.0985,3.69641 6.06098,5.37515 -1.02449,1.65767 -5.66261,1.17323 -9.83142,-1.02687 z"
         id="path6201"
         inkscape:connector-curvature="0" />
      <path
         style="fill:#feb0b0"
         d="m 741.11541,751.74526 c 0.28319,-1.7875 3.37073,-22.55378 6.86122,-46.14728 l 6.34634,-42.89729 3.01962,-1.20448 c 1.6608,-0.66246 8.08213,-2.49753 14.26963,-4.07793 l 11.25,-2.87346 11.25,2.87346 c 6.1875,1.5804 12.60883,3.41547 14.26963,4.07793 l 3.01962,1.20448 6.34634,42.89729 c 3.49049,23.5935 6.57803,44.35978 6.86122,46.14728 l 0.51487,3.25 -42.26168,0 -42.26169,0 0.51488,-3.25 z m 80.34754,-2.5 c -0.307,-1.5125 -3.27669,-21.17144 -6.59931,-43.68653 -3.32263,-22.51509 -6.16769,-41.06308 -6.32237,-41.21775 -0.15467,-0.15467 -6.00492,-1.80346 -13.00056,-3.66398 l -12.71935,-3.38276 -12.72957,3.44277 c -7.00126,1.89352 -12.8003,3.51375 -12.88675,3.60051 -0.0864,0.0868 -2.91016,18.60774 -6.27493,41.15774 -3.36476,22.55 -6.36729,42.2375 -6.67227,43.75 l -0.55453,2.75 39.15891,0 39.15891,0 -0.55818,-2.75 z m -38.32628,-16.34319 c -2.32405,-1.15039 -5.13655,-3.56566 -6.25,-5.36725 -2.47261,-4.00077 -2.69759,-11.99274 -0.48657,-17.28446 1.27935,-3.06191 1.33758,-4.46216 0.34643,-8.32945 -0.91346,-3.56412 -0.91902,-5.73071 -0.0239,-9.28576 0.96341,-3.82606 0.90053,-5.27615 -0.35956,-8.29197 -1.84453,-4.41458 -1.37086,-5.14796 1.92863,-2.98605 3.5254,2.30993 4.8231,7.9042 3.49725,15.07638 -0.58538,3.16664 -0.84743,5.97443 -0.58232,6.23954 0.2651,0.26511 1.62004,-0.26365 3.01096,-1.17502 2.7735,-1.81726 6.75768,-1.70212 7.38835,0.21353 0.22023,0.66896 -2.09419,2.81209 -5.14318,4.7625 -6.55163,4.19103 -7.60059,5.85162 -7.60059,12.03238 0,3.79803 0.53179,5.17446 2.92308,7.56574 1.60769,1.6077 3.75756,2.92308 4.77749,2.92308 1.01993,0 2.876,0.71554 4.1246,1.5901 1.80089,1.26139 2.02829,1.88154 1.10006,3 -1.60585,1.93492 -3.69469,1.76993 -8.65078,-0.68329 z"
         id="path6199"
         inkscape:connector-curvature="0" />
      <path
         style="fill:#fe8e8e"
         d="m 741.36986,750.74526 c 9.08783,-61.28918 13.19763,-87.78861 13.69179,-88.28276 0.33592,-0.33592 6.61597,-2.2198 13.95567,-4.18639 l 13.3449,-3.57562 13.28337,3.35899 c 7.30586,1.84745 13.80329,3.68032 14.43874,4.07305 0.96489,0.59634 4.1758,20.53481 14.27025,88.61273 l 0.63019,4.25 -42.12255,0 -42.12255,0 0.63019,-4.25 z m 80.48641,1.5 c -0.0171,-2.15698 -12.9482,-87.53748 -13.313,-87.90229 -0.23661,-0.2366 -6.11164,-1.9444 -13.05562,-3.79509 l -12.62543,-3.36491 -12.62543,3.36491 c -6.94398,1.85069 -12.77841,3.51789 -12.96539,3.70487 -0.30908,0.30907 -13.40245,86.24218 -13.40716,87.99251 -10e-4,0.4125 17.54798,0.75 38.99798,0.75 21.45,0 38.99732,-0.3375 38.99405,-0.75 z m -37.51264,-18.6242 c -1.66023,-0.73406 -4.5276,-3.05332 -6.37194,-5.15391 -3.24925,-3.70068 -3.33823,-4.03056 -2.86632,-10.62608 0.26786,-3.74375 1.14007,-7.79038 1.93825,-8.99249 1.27132,-1.91472 1.26416,-2.7059 -0.0578,-6.38204 -1.29022,-3.58795 -1.31908,-4.98806 -0.19907,-9.65677 1.1579,-4.8267 1.11368,-5.83989 -0.38105,-8.73038 -1.97459,-3.81844 -1.55871,-4.73508 1.32987,-2.93114 3.40601,2.12709 4.47504,6.19705 3.78181,14.39797 -0.34632,4.09697 -0.29792,7.43473 0.10757,7.41724 0.40548,-0.0175 1.61075,-0.6925 2.67838,-1.5 2.53936,-1.92069 6.18834,-1.87617 6.94078,0.0847 0.40441,1.05386 -0.42086,2.09824 -2.56815,3.25 -1.74022,0.93341 -4.74677,3.10125 -6.68121,4.81741 -3.16612,2.80885 -3.51717,3.63578 -3.51717,8.28496 0,6.09288 2.456,9.21792 8.88461,11.30491 2.89662,0.94036 4,1.84905 4,3.2942 0,2.48112 -2.89664,2.94395 -7.01859,1.12144 z"
         id="path6197"
         inkscape:connector-curvature="0" />
      <path
         style="fill:#fe7070"
         d="m 741.41665,751.24526 c 0.31793,-2.0625 3.41197,-22.77622 6.87564,-46.03049 3.46366,-23.25427 6.53072,-42.51364 6.81568,-42.79859 0.28496,-0.28496 6.64624,-2.1247 14.13618,-4.08831 l 13.61807,-3.57019 13.61807,3.57019 c 7.48994,1.96361 13.85122,3.80335 14.13618,4.08831 0.28496,0.28495 3.35202,19.54432 6.81568,42.79859 3.46367,23.25427 6.55771,43.96799 6.87564,46.03049 l 0.57807,3.75 -42.02364,0 -42.02364,0 0.57807,-3.75 z m 80.44411,0.5 c -0.003,-2.72038 -12.81836,-86.90316 -13.30309,-87.38789 -0.28498,-0.28498 -6.18304,-2.05545 -13.1068,-3.93437 l -12.58865,-3.41622 -12.58865,3.41622 c -6.92376,1.87892 -12.79789,3.62546 -13.05363,3.8812 -0.44995,0.44996 -13.35176,84.91905 -13.35575,87.44106 -0.002,0.97867 8.46364,1.25 38.99803,1.25 30.53411,0 38.99968,-0.27134 38.99854,-1.25 z m -37.99047,-18.97773 c -6.5788,-3.32793 -9.28583,-7.87865 -8.7874,-14.77227 0.21872,-3.025 1.05998,-6.85 1.86948,-8.5 1.26336,-2.57512 1.27871,-3.56651 0.10839,-7 -1.1046,-3.24066 -1.13559,-5.07462 -0.16326,-9.66084 1.02944,-4.85557 0.96942,-6.12337 -0.42189,-8.91233 -2.27678,-4.5639 -1.00903,-5.05324 2.60694,-1.00627 3.04565,3.40868 3.05312,3.44625 2.42984,12.22702 l -0.6252,8.80784 3.23752,-1.97397 c 4.19204,-2.55597 6.73751,-2.55664 6.73751,-0.002 0,1.27909 -1.32708,2.6602 -3.75,3.90268 -6.3479,3.25521 -8.75,6.58182 -8.75,12.11764 0,5.83496 2.66521,9.22174 8.88981,11.2966 2.89369,0.96457 4.11019,1.93329 4.11019,3.27304 0,2.73741 -2.35513,2.80111 -7.49193,0.20263 z"
         id="path6195"
         inkscape:connector-curvature="0" />
      <path
         style="fill:#fe4e4e"
         d="m 741.2781,752.24526 c 0.31613,-1.5125 3.2672,-20.975 6.55792,-43.25 3.29073,-22.275 6.22625,-41.89872 6.5234,-43.60827 0.53522,-3.07934 0.67039,-3.14256 14.52153,-6.79138 l 13.98127,-3.6831 13.98127,3.6831 c 13.85114,3.64882 13.98631,3.71204 14.52153,6.79138 0.29715,1.70955 3.23267,21.33327 6.5234,43.60827 3.29072,22.275 6.24179,41.7375 6.55792,43.25 l 0.57479,2.75 -42.15891,0 -42.15891,0 0.57479,-2.75 z m 80.58412,-0.72083 c 0,-3.30656 -12.13507,-84.18176 -12.90841,-86.02917 -0.65605,-1.56724 -3.62356,-2.70685 -13.7144,-5.2667 l -12.87719,-3.26671 -12.49032,3.36344 c -11.82079,3.18315 -12.53189,3.51907 -13.26602,6.26671 -0.84262,3.15369 -12.74366,82.44143 -12.74366,84.90146 0,1.31006 4.97921,1.5018 39,1.5018 33.65621,0 39,-0.20153 39,-1.47083 z m -37.94146,-18.7569 c -6.58623,-3.36955 -8.56894,-6.65517 -8.50803,-14.09902 0.0309,-3.77491 0.70426,-7.40402 1.73325,-9.34121 1.54198,-2.90295 1.55216,-3.4805 0.12162,-6.90426 -1.32884,-3.18037 -1.37997,-4.6477 -0.3436,-9.86164 1.06045,-5.33513 1.00268,-6.54081 -0.44781,-9.34575 -2.00799,-3.88303 -0.85702,-4.17675 2.46172,-0.62821 2.2378,2.39276 2.41157,3.30952 2.25873,11.91646 l -0.16558,9.32429 3.42402,-2.02022 c 1.8832,-1.11112 4.09521,-1.76265 4.91557,-1.44785 2.81022,1.07838 1.48986,3.51124 -3.32902,6.13401 -7.56767,4.11884 -10.16181,10.76692 -6.76472,17.33615 1.40741,2.72163 3.0923,3.83594 9.38158,6.20455 2.12813,0.80147 3.18721,1.80771 2.98852,2.83943 -0.46823,2.43132 -2.82902,2.39871 -7.72625,-0.10673 z"
         id="path6193"
         inkscape:connector-curvature="0" />
      <path
         style="fill:#fe2f2f"
         d="m 741.34086,752.74526 c 0.28421,-1.2375 3.45279,-22.02251 7.04129,-46.1889 3.5885,-24.1664 6.62703,-44.03106 6.7523,-44.1437 0.12528,-0.11264 6.41527,-1.82704 13.97777,-3.80978 l 13.75,-3.60499 13.75,3.60499 c 7.5625,1.98274 13.85249,3.69714 13.97777,3.80978 0.12527,0.11264 3.1638,19.9773 6.7523,44.1437 3.5885,24.16639 6.75708,44.9514 7.04129,46.1889 l 0.51674,2.25 -42.0381,0 -42.0381,0 0.51674,-2.25 z m 80.53828,-1.5 c 0.047,-4.86676 -12.46592,-85.90886 -13.41347,-86.87433 -0.6069,-0.61838 -6.60377,-2.57573 -13.32639,-4.34967 l -12.22294,-3.22536 -12.66076,3.34607 c -9.84386,2.6016 -12.84506,3.79185 -13.48909,5.34968 -0.85066,2.05763 -12.90427,81.93279 -12.90427,85.5122 0,1.95451 0.72273,1.99141 39,1.99141 36.46975,0 39.0011,-0.11354 39.01692,-1.75 z M 781.7601,731.72533 c -5.0636,-3.38271 -7.13856,-8.07803 -6.43708,-14.5662 0.3173,-2.93487 1.23589,-6.61045 2.04131,-8.16795 1.29057,-2.49569 1.28469,-3.26193 -0.0495,-6.45517 -1.27855,-3.06 -1.32327,-4.54639 -0.28767,-9.5603 1.07985,-5.22808 1.01647,-6.37688 -0.53076,-9.62147 l -1.75703,-3.68451 2.31144,1.52075 c 4.11219,2.70551 4.94631,5.56293 4.25814,14.58691 l -0.63159,8.28214 4.05562,-2.11391 c 2.2306,-1.16265 4.5222,-1.82555 5.09245,-1.47312 2.17234,1.34258 0.86098,3.30061 -3.97235,5.93124 -5.48661,2.98618 -7.99287,6.68634 -7.98709,11.79186 0.005,4.51006 3.29226,9.59691 6.71524,10.39179 3.45533,0.80239 7.28102,3.13055 7.28102,4.43092 0,1.83746 -6.69974,0.97995 -10.10212,-1.29298 z"
         id="path6191"
         inkscape:connector-curvature="0" />
      <path
         style="fill:#fe0505"
         d="m 741.86222,752.43006 c 0,-1.64647 13.08183,-89.87606 13.34665,-90.01562 0.0843,-0.0445 6.34085,-1.69341 13.90335,-3.66437 l 13.75,-3.58355 13.75,3.58355 c 7.5625,1.97096 13.81901,3.61992 13.90335,3.66437 0.26482,0.13956 13.34665,88.36915 13.34665,90.01562 0,1.39482 -4.46319,1.5652 -41,1.5652 -36.5368,0 -41,-0.17038 -41,-1.5652 z m 80.41225,-2.1848 c -0.29576,-1.5125 -3.3282,-21.60783 -6.73875,-44.65628 l -6.201,-41.90628 -12.98625,-3.47486 -12.98625,-3.47485 -13.29125,3.37138 c -10.98162,2.78553 -13.3715,3.72061 -13.75313,5.38113 -0.25404,1.10537 -3.15366,20.23476 -6.44361,42.50976 -3.28995,22.275 -6.15114,41.5125 -6.35819,42.75 l -0.37648,2.25 39.83633,0 39.83633,0 -0.53775,-2.75 z m -40.07566,-18.31022 c -4.97448,-3.18673 -6.77955,-6.67564 -6.6947,-12.93978 0.041,-3.025 0.80736,-7.22821 1.70307,-9.34046 1.06041,-2.50062 1.31984,-4.41943 0.74361,-5.5 -1.31514,-2.46624 -1.50374,-6.0049 -0.65396,-12.27008 0.59502,-4.38692 0.39929,-6.30999 -0.89747,-8.81765 -1.64563,-3.18229 -1.64187,-3.19823 0.48686,-2.05897 3.70193,1.98121 5.20923,7.31925 4.42621,15.67522 l -0.69409,7.40696 4.18704,-2.18241 c 3.28698,-1.71327 4.44175,-1.91985 5.37194,-0.96098 1.27108,1.31026 0.73804,1.84916 -6.30053,6.36982 -4.67287,3.00124 -6.18358,6.16396 -5.70265,11.93868 0.46275,5.55631 2.49802,8.20374 7.559,9.83255 6.6619,2.14404 8.29529,4.91855 2.87908,4.89047 -1.7875,-0.009 -4.67354,-0.92878 -6.41341,-2.04337 z"
         id="path6189"
         inkscape:connector-curvature="0" />
    </g>
  </g>
</svg>
