<?xml version="1.0" encoding="UTF-8" standalone="no"?>
<!-- Created with Inkscape (http://www.inkscape.org/) -->

<svg
   xmlns:dc="http://purl.org/dc/elements/1.1/"
   xmlns:cc="http://creativecommons.org/ns#"
   xmlns:rdf="http://www.w3.org/1999/02/22-rdf-syntax-ns#"
   xmlns:svg="http://www.w3.org/2000/svg"
   xmlns="http://www.w3.org/2000/svg"
   version="1.1"
   width="31.70166"
   height="37.599491"
   id="svg2">
  <defs
     id="defs4" />
  <metadata
     id="metadata7">
    <rdf:RDF>
      <cc:Work
         rdf:about="">
        <dc:format>image/svg+xml</dc:format>
        <dc:type
           rdf:resource="http://purl.org/dc/dcmitype/StillImage" />
        <dc:title></dc:title>
      </cc:Work>
    </rdf:RDF>
  </metadata>
  <g
     transform="translate(-574.48845,-652.84306)"
     id="layer1">
    <g
       id="g3810">
      <path
         d="M 20.5772,6.3001508 C 17.497272,7.0779741 14.432538,7.9190918 11.397044,8.8531535 11.045646,8.9760319 10.546868,9.0516001 10.493431,9.5042284 9.9607641,12.073108 9.6081801,14.681756 9.1875905,17.272986 7.8859654,25.736499 6.6472921,34.213458 5.3519122,42.675507 c 0.1169388,0.511989 0.7623631,0.318685 1.1364181,0.360574 9.6957067,0.01867 19.3917077,0.02221 29.0872677,-0.02517 0.504594,-0.117069 0.209385,-0.715852 0.209097,-1.059207 C 34.272264,32.08606 32.870353,22.202074 31.274567,12.348952 31.066018,11.328688 31.012625,10.256549 30.660969,9.2753657 30.399522,8.9013897 29.853984,8.9235923 29.466214,8.7456843 26.58473,7.8913095 23.696825,7.041066 20.780414,6.3159344 20.713298,6.3034782 20.645826,6.2924123 20.5772,6.3001508 z m 3.827531,4.6976042 c 0.274794,-0.06765 0.691714,0.124232 0.570184,0.457725 -0.297778,0.472989 -0.953798,0.469743 -1.44223,0.58794 -0.819697,0.167169 -1.696835,0.08547 -2.485922,0.363024 -0.474209,0.266762 -0.134483,0.853463 -0.05735,1.244397 0.185825,0.466415 0.207875,1.050346 0.568344,1.421064 0.706938,0.275226 1.506722,0.01162 2.235357,0.183485 0.186566,0.100343 0.515742,0.250078 0.518887,0.479428 -0.587378,0.279851 -1.290155,0.163669 -1.925281,0.264829 -0.485799,-0.0083 -0.985049,0.261196 -1.101231,0.76308 -0.193577,0.716789 -0.440034,1.445664 -0.465617,2.189979 0.125443,0.497631 0.767293,0.352339 1.150206,0.372258 1.208824,-0.0047 2.398838,-0.296473 3.602641,-0.29334 0.628454,0.03794 1.340673,0.07342 1.795388,0.564265 0.07645,0.09963 0.363311,0.275741 0.252538,0.404456 -0.522299,0.236844 -1.141636,0.105193 -1.702659,0.151917 -2.195514,0.02692 -4.393981,-0.101504 -6.587461,-0.0064 -1.276667,0.06393 -2.425639,0.803709 -3.693604,0.840975 -0.982186,-0.0702 -1.776974,-0.775505 -2.363599,-1.513256 -0.06123,-0.156198 0.315782,0.0021 0.43137,-0.01031 1.40032,0.320176 2.845862,0.502639 4.279648,0.311019 0.487583,-0.08471 1.01866,-0.04767 1.468275,-0.25928 0.178047,-0.511355 0.01316,-1.088103 0.05184,-1.625657 -0.04166,-0.518645 0.08384,-1.297098 -0.511541,-1.542907 -0.636386,-0.146944 -1.318454,-0.0053 -1.935469,-0.268322 -0.4279,-0.136166 -0.826974,-0.34752 -1.217312,-0.570184 1.06052,-0.003 2.155512,0.215181 3.196186,-0.0513 0.611209,-0.264347 0.523204,-1.072262 0.44786,-1.611903 -0.07419,-0.519743 -0.242222,-1.195806 -0.866127,-1.26861 -1.104353,-0.125834 -2.361129,-0.166008 -3.190267,-1.000288 -0.279952,-0.249812 0.191266,-0.03853 0.351186,-0.01578 2.449779,0.509631 4.965363,0.0208 7.389885,-0.418432 0.411177,-0.06398 0.821693,-0.132038 1.235871,-0.14386 z m 1.907847,11.940318 c 0.41043,-0.05429 0.755309,0.304955 0.913477,0.635292 -0.38058,0.506958 -1.105857,0.417842 -1.668655,0.536394 -0.780656,0.118095 -1.779844,0.07564 -2.281199,0.799296 -0.304674,0.738304 -0.435038,1.545426 -0.647129,2.312302 -0.03454,0.477713 0.568877,0.645858 0.937153,0.475482 1.136178,-0.280895 2.202991,-0.87262 3.361914,-1.02199 0.581821,-0.07332 1.111717,0.279861 1.590201,0.572156 0.424021,0.307178 0.137901,0.885147 -0.12035,1.205475 -0.298902,0.494197 -0.878022,0.839225 -1.004234,1.420527 0.03173,0.551793 0.752934,0.4251 0.992396,0.83456 0.338521,0.421395 0.783793,0.885148 1.383041,0.777344 0.749774,-0.02946 1.461271,-0.427024 2.207736,-0.305808 0.470835,0.224567 0.814535,0.663663 1.077233,1.104855 -1.231526,-0.0024 -2.454543,-0.111423 -3.673641,-0.262403 -0.493082,0.09794 -0.224341,0.677602 -0.213079,1.008179 0.345635,2.1724 0.480861,4.427107 0.08089,6.599532 -0.04253,0.329232 -0.345111,0.798902 -0.724074,0.570184 -0.826569,-0.527989 -1.321173,-1.443628 -2.100487,-2.04283 -0.29161,-0.24785 -0.603055,-0.47154 -0.935889,-0.660118 0.781868,-0.07777 1.642711,0.04203 2.355707,-0.343294 0.622817,-0.509659 0.450818,-1.417925 0.432077,-2.124871 -0.100482,-0.881322 -0.108356,-1.795491 -0.322289,-2.651397 -0.269208,-0.305157 -0.768528,-0.06519 -1.133184,-0.118525 -2.627762,0.09068 -5.185168,0.77118 -7.781899,1.110667 -0.617254,0.09455 -1.068164,-0.438957 -1.471823,-0.812857 -0.11096,-0.07817 -0.144612,-0.348499 0.05919,-0.252538 1.360421,0.161763 2.741867,0.108938 4.109395,0.06686 1.749227,-0.115607 3.50443,-0.310899 5.210841,-0.717933 0.415426,-0.07423 0.798474,-0.508635 0.560319,-0.929261 -0.182597,-0.485654 -0.664782,-0.865012 -1.201529,-0.729993 -1.308764,0.244603 -2.611907,0.699725 -3.959719,0.505076 1.790083,-0.594419 3.814632,-0.87542 5.265814,-2.197871 0.387939,-0.326867 0.629048,-1.060764 0.122324,-1.390933 -0.614134,-0.266539 -1.271527,0.121863 -1.847549,0.322671 -0.915787,0.39442 -1.851577,0.891985 -2.883589,0.787058 -0.71991,-0.0717 -1.309562,0.387735 -1.799341,0.853361 -0.288509,0.201762 -0.68938,0.603303 -1.053557,0.36105 -0.265858,-0.373581 0.0784,-0.822733 0.329483,-1.102881 0.702466,-0.856565 1.589327,-1.563915 2.223519,-2.474085 0.250847,-0.531957 -0.394621,-0.882226 -0.749722,-1.140367 -0.221446,-0.143397 -0.464823,-0.248512 -0.680669,-0.40051 1.408489,-0.228512 2.862118,-0.412001 4.164906,-1.037774 0.279458,-0.111502 0.57738,-0.13873 0.875992,-0.14008 z m -11.737105,1.14826 c 0.990974,0.08138 2.046262,0.790651 2.067656,1.860496 0.09141,1.374243 -0.440554,2.684535 -0.560319,4.042583 -0.360068,2.482232 -0.382721,5.000401 -0.635291,7.489334 -0.141954,0.81555 -0.20301,1.720765 -0.680669,2.418842 -0.239425,0.2687 -0.506271,-0.168126 -0.639238,-0.343294 -0.447801,-0.69512 -0.883014,-1.469019 -1.268609,-2.158412 0.461424,0.220528 0.942829,0.623662 1.47577,0.530725 0.46834,-0.277951 0.356555,-0.939231 0.503103,-1.394879 0.272227,-1.518852 0.414284,-3.05985 0.485347,-4.596983 -0.198346,-0.483505 -0.762927,-0.126844 -1.081287,0.0087 -0.814337,0.437497 -1.776644,0.731176 -2.385194,1.465096 -0.452362,0.649469 -0.160023,1.494545 -0.452634,2.201565 -0.180283,0.489124 -0.341391,1.129999 -0.861353,1.355672 -0.216638,0.03835 -0.420437,-0.210034 -0.305808,-0.424185 0.163004,-0.973728 0.709317,-1.836675 0.90164,-2.801595 0.02234,-0.387838 -0.368044,-0.601852 -0.696453,-0.639237 -0.431597,-0.256356 -0.8237809,-0.687212 -0.9983148,-1.136422 1.1406948,0.14293 2.3231398,0.641765 3.4615138,0.197813 0.767004,-0.280538 1.5774,-0.552935 2.214675,-1.077751 0.453395,-0.4287 0.477598,-1.10413 0.449834,-1.68293 -0.103534,-0.367164 -0.531303,-0.239641 -0.749723,-0.06313 -0.704544,0.374101 -1.367492,0.848863 -2.128817,1.094989 -0.629517,0.107288 -1.234723,-0.258059 -1.653336,-0.694479 0.589996,-0.08573 1.224109,0.03135 1.795389,-0.142053 0.21574,-0.445892 0.04059,-0.97857 0.01381,-1.458013 -0.0542,-0.749788 -0.381978,-1.498659 -0.808911,-2.06371 0.589002,0.09818 1.177872,0.404071 1.4225,0.984504 0.270685,0.408156 0.250029,0.904814 0.155863,1.365284 -0.04296,0.440185 0.477349,0.677996 0.832587,0.471536 0.713685,-0.172564 1.46779,-0.693266 1.444202,-1.50931 0.07031,-1.186763 -0.917145,-2.016194 -1.475769,-2.949566 -0.06683,-0.155154 -0.10092,-0.413919 0.157836,-0.351186 z m 8.454109,9.663529 c 0.570673,0.08326 1.077665,0.537519 1.304123,1.055531 0.08244,0.437399 -0.466334,0.635963 -0.78129,0.791155 -0.808453,0.345356 -1.682632,0.545568 -2.568787,0.485346 0.659197,-0.311189 1.503504,-0.477112 1.892063,-1.152205 0.0308,-0.375643 -0.04803,-0.782395 0.03551,-1.144313 0.0324,-0.0292 0.07642,-0.03447 0.118377,-0.03551 z"
         transform="translate(569.71428,647.00505)"
         id="path3040"
         style="fill:#ffffff;fill-opacity:1;stroke:none" />
      <path
         d="m 574.60558,689.73942 c 0.0644,-0.38671 1.23722,-8.21183 2.60622,-17.38914 1.36901,-9.17731 2.52726,-16.71601 2.57391,-16.75267 0.28005,-0.22008 9.95882,-2.65506 10.55357,-2.65506 0.59475,0 10.27352,2.43498 10.55357,2.65506 0.0466,0.0367 1.20491,7.57536 2.57391,16.75267 1.369,9.17731 2.5418,17.00243 2.60622,17.38914 l 0.11713,0.70313 -15.85083,0 -15.85083,0 0.11713,-0.70313 z m 30.33882,-1.09375 c -0.0883,-0.47265 -1.18229,-7.82031 -2.43114,-16.32812 -1.24885,-8.50781 -2.36572,-15.57855 -2.48193,-15.71275 -0.11621,-0.13419 -2.34446,-0.82347 -4.95167,-1.53171 l -4.74038,-1.28772 -4.74038,1.28772 c -2.60721,0.70824 -4.83546,1.39752 -4.95167,1.53171 -0.11621,0.1342 -1.23308,7.20494 -2.48193,15.71275 -1.24885,8.50781 -2.34286,15.85547 -2.43114,16.32812 l -0.1605,0.85938 14.76562,0 14.76563,0 -0.16051,-0.85938 z m -8.163,-2.14564 c -0.4959,-0.62151 -1.55059,-1.4301 -2.34375,-1.79687 l -1.44212,-0.66686 2.26563,-0.0918 2.26562,-0.0918 0,-1.19725 c 0,-0.65848 -0.0814,-1.6042 -0.18087,-2.10159 -0.16901,-0.84505 -0.26634,-0.89794 -1.48437,-0.80661 -0.71693,0.0538 -1.61267,0.16276 -1.99052,0.2422 l -0.68701,0.14445 0.77725,0.77725 c 0.64469,0.64469 0.71865,0.88675 0.43363,1.4193 -0.43845,0.81925 -1.54511,1.23713 -3.27626,1.23713 -1.83777,0 -2.0195,-0.47207 -0.39067,-1.01483 1.35718,-0.45225 1.71114,-0.97782 1.19721,-1.77764 -0.23665,-0.36829 -0.55513,-0.38766 -1.77684,-0.10809 -1.78412,0.40826 -2.7994,0.10048 -3.30115,-1.00074 -0.46885,-1.02901 -0.18027,-1.27181 0.95347,-0.8022 0.93843,0.38871 2.30584,0.31722 6.83551,-0.35735 2.07244,-0.30863 2.66091,-0.59546 2.02631,-0.98767 -0.13162,-0.0813 -0.98087,0.0445 -1.88722,0.27956 -0.90635,0.23511 -1.81819,0.37542 -2.02631,0.31181 -0.20813,-0.0636 -0.79295,-0.20737 -1.29961,-0.31947 -1.20182,-0.26591 -0.62878,-0.6436 1.70245,-1.12207 1.97984,-0.40636 4.0625,-1.46504 4.0625,-2.0651 0,-0.58896 -0.36134,-0.51808 -2.18663,0.42892 -1.23978,0.64322 -1.74094,0.7626 -2.13822,0.50936 -0.40838,-0.26032 -0.73832,-0.13906 -1.54906,0.56933 -0.83727,0.73157 -1.14447,0.83894 -1.64063,0.5734 -0.97876,-0.52382 -0.72102,-1.25537 1.03017,-2.92399 1.44659,-1.37839 1.56206,-1.57662 0.97633,-1.67615 -0.36536,-0.0621 -0.98753,-0.45694 -1.3826,-0.87748 l -0.71831,-0.7646 1.6951,-0.007 c 1.01337,-0.004 2.24834,-0.25787 3.07072,-0.63098 1.52329,-0.69112 2.35826,-0.58064 2.87241,0.38006 0.4906,0.91669 0.0277,1.22105 -2.15856,1.41929 -1.8138,0.16448 -1.8881,0.20521 -1.86487,1.02236 0.0133,0.46809 -0.0752,1.01196 -0.19677,1.2086 -0.32321,0.52297 0.82691,0.44797 1.55307,-0.10128 1.2683,-0.95929 4.51285,-0.29691 4.51285,0.92131 0,0.23488 -0.36406,0.85972 -0.80903,1.38853 -0.64103,0.76182 -0.70389,0.96148 -0.30269,0.96148 0.27848,0 0.59317,0.22628 0.69929,0.50283 0.1572,0.40965 0.48065,0.46468 1.74525,0.29693 1.7219,-0.22842 2.72968,0.31774 2.72968,1.47932 0,0.57512 -0.14477,0.6049 -2.01135,0.41366 l -2.01134,-0.20607 0.29259,1.02022 c 0.42859,1.4944 0.36998,6.29073 -0.0824,6.74311 -0.6811,0.68109 -1.63718,0.39888 -2.55788,-0.75503 z m -14.17918,-0.96234 c -0.56008,-0.96603 -0.94739,-1.82736 -0.8607,-1.91405 0.13359,-0.13358 0.53815,0.0236 2.08516,0.80989 0.23603,0.11997 0.7284,-4.56684 0.50341,-4.79184 -0.0813,-0.0813 -0.69603,0.10097 -1.36615,0.40496 -1.08461,0.49201 -1.22221,0.6801 -1.25303,1.71276 -0.0424,1.42 -0.85898,2.74564 -1.69133,2.74564 -0.80245,0 -0.80287,-0.96828 -10e-4,-2.73438 0.57883,-1.27519 0.58008,-1.32812 0.0314,-1.32812 -0.6614,0 -1.1015,-0.47206 -1.42657,-1.53013 -0.20753,-0.67548 -0.15768,-0.72788 0.50863,-0.53471 1.87586,0.54385 2.78089,0.54986 4.14856,0.0275 1.02145,-0.39009 1.4339,-0.72169 1.4339,-1.15283 0,-0.58789 -0.0236,-0.58667 -0.82339,0.0425 -1.04229,0.81986 -2.4322,0.82959 -3.23911,0.0227 -0.95351,-0.95351 -0.78603,-1.30854 0.50318,-1.06668 l 1.12819,0.21165 -0.21911,-1.36936 c -0.12051,-0.75315 -0.41726,-1.52549 -0.65944,-1.71631 -0.64758,-0.51026 -0.5396,-0.7468 0.34093,-0.7468 0.42969,0 1.0625,0.28125 1.40625,0.625 0.34375,0.34375 0.625,0.97656 0.625,1.40625 0,0.85064 0.0265,0.87138 0.75569,0.59156 0.70704,-0.27131 0.63101,-1.93793 -0.11737,-2.57272 -0.33642,-0.28537 -0.70708,-0.92093 -0.8237,-1.41237 -0.20814,-0.87719 -0.19267,-0.88943 0.84605,-0.66939 2.24269,0.47509 2.96603,2.12168 2.12891,4.84623 -0.18448,0.60043 -0.45156,3.13075 -0.59351,5.62294 -0.14195,2.49218 -0.43545,4.91796 -0.65224,5.39062 -0.64593,1.40834 -1.54467,1.10401 -2.71839,-0.92048 z m 1.60835,-17.27641 c -0.90651,-0.36627 -2.08653,-1.91599 -1.73022,-2.2723 0.17033,-0.17033 0.76803,-0.1496 1.49334,0.0518 0.66514,0.18469 2.01793,0.33658 3.00622,0.33754 l 1.79687,0.002 0,-1.42041 0,-1.42041 -1.01562,0.18068 c -0.71706,0.12756 -1.3142,-0.005 -2.03125,-0.45 -1.51856,-0.94298 -1.26011,-1.26486 1.01562,-1.26486 l 2.03125,0 0,-1.11219 c 0,-0.68813 -0.12352,-1.03585 -0.32397,-0.91197 -0.62671,0.38733 -2.7719,-0.21944 -3.55918,-1.00671 -0.87696,-0.87696 -0.79402,-1.52783 0.13157,-1.03247 0.90279,0.48315 5.31924,0.37092 7.18292,-0.18253 1.81692,-0.53957 3.13116,-0.26585 3.13116,0.65212 0,0.58599 -0.932,0.99427 -2.83492,1.24191 -1.37575,0.17904 -1.42361,0.22039 -1.29209,1.11646 0.16307,1.1111 0.49646,1.37447 1.22426,0.96718 0.5797,-0.32442 2.27775,0.33925 2.27775,0.89023 0,0.42248 -1.20364,1.00601 -1.58672,0.76925 -0.17809,-0.11006 -0.65184,-0.11778 -1.05279,-0.0172 -0.5598,0.1405 -0.75972,0.44629 -0.86145,1.31766 l -0.13247,1.13471 2.62464,-0.21297 c 2.88601,-0.23417 4.13379,0.18675 4.13379,1.39445 0,0.59012 -0.21199,0.61689 -4.60937,0.58204 -3.54048,-0.0281 -4.92648,0.0805 -5.97679,0.46797 -1.51203,0.55786 -2.06355,0.5938 -3.04255,0.19824 z"
         id="path3010"
         style="fill:#d0d0d0" />
      <path
         d="m 574.71428,689.81022 c 0,-1.28562 4.99884,-33.86603 5.22953,-34.08397 0.30679,-0.28983 9.61992,-2.7837 10.39547,-2.7837 0.77555,0 10.08868,2.49387 10.39548,2.7837 0.23069,0.21794 5.22952,32.79835 5.22952,34.08397 0,0.62634 -0.14791,0.63233 -15.625,0.63233 -15.47708,0 -15.625,-0.006 -15.625,-0.63233 z m 30.23563,-1.3208 c -0.0873,-0.55859 -1.19233,-8.00298 -2.45572,-16.54308 l -2.29708,-15.52746 -3.44454,-0.94251 c -1.8945,-0.51839 -4.11251,-1.11879 -4.92891,-1.33423 -1.6139,-0.4259 -1.22484,-0.49163 -7.89767,1.33423 l -3.44454,0.94251 -2.29708,15.52746 c -1.26339,8.5401 -2.36846,15.98449 -2.45572,16.54308 l -0.15865,1.01563 14.76928,0 14.76928,0 -0.15865,-1.01563 z m -8.12999,-2.09304 c -0.56007,-0.79187 -1.27324,-1.35137 -2.03125,-1.59358 -2.01929,-0.64522 -1.87248,-0.92275 0.48811,-0.92275 l 2.25,0 -0.004,-1.48438 c -0.008,-2.66329 -0.1633,-2.8937 -1.82628,-2.7036 -0.79789,0.0912 -1.80227,0.23916 -2.23195,0.32878 l -0.78125,0.16296 0.85937,0.45185 c 1.28872,0.6776 1.17875,1.89284 -0.22434,2.47909 -1.2054,0.50365 -2.90879,0.58657 -3.56102,0.17334 -0.30536,-0.19346 -0.0399,-0.39858 0.9375,-0.72438 1.22012,-0.40671 1.36677,-0.56017 1.39474,-1.45952 0.0234,-0.75302 -0.0814,-0.96181 -0.41795,-0.83266 -0.91033,0.34933 -2.8865,0.5533 -3.60748,0.37234 -0.69618,-0.17473 -1.68708,-1.65549 -1.34004,-2.00252 0.0869,-0.0869 0.58301,0.0182 1.10255,0.23335 1.43176,0.59305 9.23496,-0.31488 8.98017,-1.04488 -0.0683,-0.19581 -0.46159,-0.31767 -0.87388,-0.27079 -0.41229,0.0469 -1.48283,0.16934 -2.37897,0.27214 -1.84365,0.21149 -3.07012,-0.0611 -2.2769,-0.50611 0.25781,-0.14463 1.36556,-0.49522 2.46166,-0.7791 2.22079,-0.57516 3.47584,-1.26865 3.47584,-1.9206 0,-0.59229 -0.43121,-0.54438 -1.91542,0.21281 -0.69603,0.35509 -1.66606,0.6036 -2.1556,0.55225 -0.59351,-0.0622 -1.14669,0.14771 -1.6602,0.63013 -0.86651,0.81403 -2.17408,0.81537 -2.32893,0.003 -0.0553,-0.29064 0.62117,-1.23206 1.55931,-2.16987 1.42996,-1.42945 1.57142,-1.67404 1.03209,-1.78451 -0.69532,-0.14242 -1.71875,-0.95339 -1.71875,-1.36193 0,-0.14523 0.70027,-0.26407 1.55617,-0.26407 0.8559,0 2.12149,-0.22619 2.81242,-0.50264 1.40407,-0.5618 2.64743,-0.39497 2.95093,0.39595 0.30074,0.78371 -0.12266,1.02014 -2.2194,1.23929 l -1.90377,0.19898 -0.17187,1.28136 c -0.0945,0.70474 -0.12421,1.32901 -0.066,1.38726 0.0583,0.0583 0.67644,-0.18515 1.37375,-0.5409 1.38178,-0.70493 2.86519,-0.8307 3.81327,-0.3233 0.78748,0.42145 0.79366,1.90841 0.0109,2.61682 -0.58191,0.52662 -0.58038,0.5507 0.0781,1.22501 0.59968,0.61408 0.83154,0.65762 2.16245,0.40608 1.25271,-0.23675 1.58952,-0.19235 2.10937,0.27811 0.34025,0.30792 0.61863,0.83569 0.61863,1.17282 0,0.56753 -0.14852,0.59707 -2.00327,0.39844 l -2.00328,-0.21453 0.27707,1.19375 c 0.38162,1.6442 0.36188,5.6355 -0.0315,6.37055 -0.53058,0.99139 -1.61181,0.72676 -2.57086,-0.62921 z m -13.93393,-0.6621 c -1.40495,-2.26009 -1.32445,-2.67408 0.29568,-1.52045 l 0.90761,0.64628 0.0161,-0.72441 c 0.009,-0.39842 0.1216,-1.67362 0.2506,-2.83378 0.129,-1.16015 0.15693,-2.10302 0.0621,-2.09525 -0.0949,0.008 -0.73497,0.32417 -1.42247,0.70313 -1.09563,0.60391 -1.2592,0.83981 -1.3245,1.91018 -0.0849,1.3924 -0.80949,2.68507 -1.50502,2.68507 -0.79564,0 -0.86882,-0.88634 -0.20505,-2.48356 l 0.63395,-1.52546 -0.72159,-0.1811 c -0.4428,-0.11114 -0.85288,-0.55773 -1.06141,-1.15592 -0.3233,-0.92741 -0.30582,-0.96391 0.3594,-0.75055 1.60947,0.5162 2.82593,0.52004 4.15329,0.0131 0.97166,-0.37108 1.38968,-0.70957 1.38968,-1.12528 0,-0.57936 -0.026,-0.57872 -1.01563,0.0247 -1.33135,0.81175 -2.16075,0.78356 -2.9924,-0.10169 -0.91577,-0.97479 -0.86909,-1.07254 0.4924,-1.03112 1.12192,0.0341 1.16773,-0.004 1.07448,-0.90186 -0.0536,-0.51563 -0.37418,-1.32422 -0.71248,-1.79688 l -0.61508,-0.85937 0.7906,0 c 1.01112,0 2.04061,1.02476 2.04061,2.03125 0,0.57292 0.16666,0.78125 0.625,0.78125 0.52083,0 0.625,-0.20833 0.625,-1.25 0,-0.6875 -0.1478,-1.25 -0.32845,-1.25 -0.33945,0 -1.37097,-2.15475 -1.14142,-2.3843 0.35781,-0.35781 2.59154,0.75502 3.00813,1.49862 0.41788,0.74592 0.40843,1.12191 -0.0903,3.59375 -0.30637,1.51838 -0.65942,4.54095 -0.78455,6.71684 -0.30911,5.37524 -1.02291,6.23226 -2.80416,3.36682 z m 0.98886,-17.77618 c -0.54763,-0.33391 -1.16176,-0.91742 -1.36473,-1.29669 -0.36272,-0.67774 -0.34294,-0.68611 1.15192,-0.48677 2.26656,0.30225 2.35029,0.30788 3.78662,0.25464 l 1.32812,-0.0492 0,-1.42862 c 0,-1.29006 -0.0682,-1.42309 -0.70312,-1.37165 -1.34429,0.10889 -1.76706,-0.0167 -2.63883,-0.7836 l -0.8768,-0.77138 2.10938,-0.01 2.10937,-0.01 0,-1.05114 c 0,-1.02138 -0.0361,-1.05113 -1.27465,-1.05113 -1.38201,0 -2.8706,-0.87111 -3.05013,-1.7849 -0.0888,-0.45172 -0.003,-0.48452 0.52633,-0.20126 0.9113,0.48771 5.57109,0.41014 7.32466,-0.12194 1.47673,-0.44808 3.03629,-0.24046 3.03629,0.4042 0,0.60751 -1.21136,1.30617 -2.26467,1.30617 -1.74573,0 -1.99866,0.19398 -1.85521,1.42278 0.1236,1.05871 0.16055,1.08619 1.1987,0.89143 0.79079,-0.14835 1.22958,-0.0576 1.67631,0.34668 0.80666,0.73002 0.51765,1.08809 -0.88295,1.09389 -1.4868,0.006 -1.79157,0.23379 -2.04326,1.52603 l -0.20687,1.06205 2.53144,-0.19521 c 2.83597,-0.21869 4.34651,0.25139 4.34651,1.35264 0,0.57948 -0.23282,0.60688 -4.76562,0.56072 -3.85254,-0.0392 -4.99747,0.0521 -5.97567,0.47648 -1.54644,0.67097 -2.00391,0.65899 -3.22314,-0.0844 z"
         id="path3008"
         style="fill:#b0b0b0" />
      <path
         d="m 574.71428,689.99092 c 0,-1.1187 5.04729,-34.09311 5.24575,-34.27093 0.12265,-0.10989 2.50816,-0.80216 5.30113,-1.53837 l 5.07812,-1.33856 5.07813,1.33856 c 2.79296,0.73621 5.17847,1.42848 5.30112,1.53837 0.19846,0.17782 5.24575,33.15223 5.24575,34.27093 0,0.38782 -2.20777,0.45163 -15.625,0.45163 -13.41723,0 -15.625,-0.0638 -15.625,-0.45163 z m 30.31453,-0.72025 c 0.002,-0.61037 -4.73211,-32.68398 -4.8448,-32.82169 -0.18543,-0.2266 -9.15842,-2.55899 -9.84473,-2.55899 -0.68631,0 -9.6593,2.33239 -9.84473,2.55899 -0.11269,0.13771 -4.84707,32.21132 -4.8448,32.82169 0.002,0.51305 0.91054,0.54688 14.68953,0.54688 13.77899,0 14.68763,-0.0338 14.68953,-0.54688 z m -8.03558,-2.76997 c -0.47999,-0.62115 -1.57582,-1.4568 -2.4352,-1.857 l -1.5625,-0.72765 2.26563,-0.018 2.26562,-0.018 0,-1.69319 c 0,-2.62711 -0.0643,-2.69645 -2.296,-2.47556 -1.84735,0.18285 -3.53746,0.69934 -2.36181,0.72175 0.63023,0.012 1.53281,0.9917 1.53281,1.66374 0,0.2812 -0.27558,0.65876 -0.6124,0.83902 -0.96076,0.51418 -3.31212,0.74002 -3.9556,0.37991 -0.50021,-0.27994 -0.37278,-0.37908 0.89883,-0.69927 1.39881,-0.35223 1.48167,-0.43175 1.48167,-1.42193 0,-1.02049 -0.0275,-1.04285 -1.01562,-0.82698 -2.16942,0.47391 -3.3994,0.2862 -4.08221,-0.623 -0.35286,-0.46984 -0.57944,-0.91639 -0.5035,-0.99233 0.0759,-0.0759 0.73145,0.0203 1.45668,0.21389 1.03438,0.27609 2.09854,0.24482 4.93673,-0.14505 1.98996,-0.27336 3.70629,-0.5852 3.81406,-0.69297 0.10777,-0.10777 0.0402,-0.3517 -0.15017,-0.54206 -0.25316,-0.25315 -0.6168,-0.25175 -1.35393,0.005 -1.19163,0.41541 -3.39316,0.45428 -3.99881,0.0706 -0.46617,-0.29532 0.69505,-0.76498 2.81304,-1.13775 1.44265,-0.25391 3.08373,-1.24279 3.08373,-1.85819 0,-0.63495 -0.40788,-0.59681 -1.93177,0.18061 -0.7998,0.40803 -1.64331,0.60092 -2.24294,0.51291 -0.73995,-0.1086 -1.09446,0.0285 -1.54086,0.59604 -0.58957,0.74952 -1.90078,0.99479 -2.25491,0.4218 -0.3513,-0.56842 0.15995,-1.48049 1.24761,-2.22577 0.58767,-0.40268 1.19221,-1.0094 1.34342,-1.34827 0.22487,-0.50396 0.10292,-0.70382 -0.66983,-1.09777 -1.55866,-0.79463 -1.40728,-1.2629 0.40827,-1.2629 0.87922,0 2.10343,-0.21094 2.72046,-0.46875 1.46275,-0.61118 2.08765,-0.59144 2.70006,0.0853 0.76128,0.84121 0.25034,1.25122 -1.85625,1.48956 l -1.91319,0.21645 -0.17248,1.28589 c -0.0949,0.70723 -0.12481,1.33354 -0.0666,1.39179 0.0582,0.0582 0.67643,-0.18516 1.37374,-0.5409 1.39412,-0.71123 2.39587,-0.80598 3.61614,-0.34203 0.98846,0.37581 1.1037,1.82496 0.20947,2.63423 -0.57916,0.52413 -0.57608,0.55189 0.14073,1.2687 0.65411,0.65411 0.87299,0.70135 2.03742,0.43972 1.52826,-0.34337 2.78897,0.25429 2.78897,1.32216 0,0.60652 -0.11703,0.63013 -2.08068,0.41985 -1.95725,-0.20961 -2.06655,-0.18791 -1.84229,0.36575 0.41575,1.02642 0.56684,5.85142 0.21169,6.76045 -0.46772,1.19715 -1.39238,1.09515 -2.44727,-0.26998 z m -14.10724,-0.76642 c -1.26496,-2.03489 -1.24108,-2.38002 0.10954,-1.58314 0.99241,0.58554 1.0947,0.59564 1.10398,0.10899 0.006,-0.29498 0.1367,-1.51853 0.29129,-2.719 0.15459,-1.20046 0.2373,-2.22642 0.18381,-2.27992 -0.0535,-0.0535 -0.73077,0.21053 -1.50507,0.58672 -1.308,0.63547 -1.40902,0.77123 -1.4248,1.91479 -0.0189,1.37194 -0.75788,2.74233 -1.47872,2.74233 -0.78958,0 -0.84638,-0.81793 -0.16394,-2.3607 0.35734,-0.80781 0.6497,-1.50594 0.6497,-1.5514 0,-0.0454 -0.34942,-0.17034 -0.77649,-0.27753 -0.48415,-0.12152 -0.85124,-0.4927 -0.97503,-0.98593 -0.25015,-0.99667 -0.0358,-1.21676 0.76671,-0.78726 1.49649,0.8009 4.82584,-0.0315 5.15462,-1.28879 0.0858,-0.32812 0.0616,-0.54972 -0.0538,-0.49246 -0.11539,0.0573 -0.73341,0.37082 -1.37339,0.69678 -1.293,0.65856 -2.43018,0.40255 -3.00805,-0.6772 -0.27332,-0.5107 -0.18219,-0.55636 0.90367,-0.4528 l 1.20764,0.11516 -0.18305,-1.20331 c -0.10067,-0.66182 -0.4702,-1.51972 -0.82117,-1.90644 l -0.63814,-0.70312 0.78125,0 c 0.94512,0 2.1402,1.18912 2.1402,2.12952 0,0.46147 0.19161,0.68298 0.59081,0.68298 0.93866,0 1.04979,-2.00518 0.15759,-2.84336 -0.37924,-0.35628 -0.75992,-0.91697 -0.84596,-1.24596 -0.24098,-0.92152 1.48374,-0.80291 2.45552,0.16886 0.89736,0.89738 0.9495,1.71985 0.27422,4.32586 -0.27106,1.04603 -0.59334,3.82914 -0.71619,6.1847 -0.29861,5.72535 -0.98557,6.63134 -2.80678,3.70163 z m 0.98886,-17.77618 c -0.54763,-0.33391 -1.15023,-0.89588 -1.33912,-1.24883 -0.31059,-0.58034 -0.25467,-0.64172 0.58471,-0.64172 0.51048,0 1.28256,0.13475 1.71573,0.29944 0.43317,0.16469 1.49701,0.21541 2.36409,0.11272 l 1.57652,-0.18672 0,-1.36272 0,-1.36272 -1.23257,0 c -0.88913,0 -1.47689,-0.22428 -2.10938,-0.8049 l -0.8768,-0.80491 1.20454,0.16556 c 0.6625,0.0911 1.61172,0.0841 2.10938,-0.0154 0.78363,-0.15672 0.90483,-0.32224 0.90483,-1.23565 0,-1.03971 -0.0197,-1.05469 -1.38882,-1.05469 -1.01799,0 -1.62295,-0.20151 -2.26563,-0.75466 -1.10024,-0.94698 -0.85085,-1.22298 0.775,-0.85767 1.15641,0.25982 2.54325,0.17515 7.59812,-0.46393 1.13803,-0.14388 1.47701,-0.0785 1.62753,0.31371 0.27856,0.72592 -0.94862,1.45005 -2.4574,1.45005 -0.70655,0 -1.35065,0.066 -1.43133,0.1467 -0.0807,0.0807 -0.0883,0.6466 -0.017,1.25758 0.12602,1.07945 0.16,1.1052 1.20086,0.90993 0.79079,-0.14835 1.22958,-0.0576 1.67631,0.34668 0.84305,0.76295 0.5055,1.08911 -1.12713,1.08911 -1.43779,0 -1.47293,0.0323 -1.83857,1.68833 l -0.20028,0.90707 2.52371,-0.19461 c 1.59455,-0.12297 2.80289,-0.0674 3.28198,0.15088 0.78833,0.35918 1.22573,1.06293 0.94398,1.51881 -0.0898,0.14524 -2.23475,0.24853 -4.76664,0.22954 -3.61656,-0.0271 -4.89657,0.0777 -5.97085,0.48898 -1.71715,0.6574 -1.8529,0.65359 -3.06576,-0.0859 z"
         id="path3006"
         style="fill:#909090" />
      <path
         d="m 574.71428,690.10435 c 0,-0.98941 5.08628,-34.22157 5.26135,-34.37604 0.11407,-0.10064 2.49256,-0.78231 5.28553,-1.51482 l 5.07812,-1.33184 5.07813,1.33184 c 2.79296,0.73251 5.17145,1.41418 5.28552,1.51482 0.17507,0.15447 5.26135,33.38663 5.26135,34.37604 0,0.23809 -4.62517,0.3382 -15.625,0.3382 -10.99983,0 -15.625,-0.10011 -15.625,-0.3382 z m 30.31421,-0.98993 c 0.002,-0.80346 -4.70093,-32.52632 -4.84427,-32.67657 -0.0517,-0.0542 -2.2879,-0.71118 -4.96943,-1.46006 l -4.87551,-1.3616 -4.87551,1.3616 c -2.68152,0.74888 -4.91777,1.40591 -4.96943,1.46006 -0.14334,0.15025 -4.84623,31.87311 -4.84427,32.67657 l 0.002,0.70313 14.6875,0 14.6875,0 0.002,-0.70313 z m -8.08643,-2.6835 c -0.53679,-0.67776 -1.53889,-1.45752 -2.22688,-1.7328 -0.68799,-0.27528 -1.2509,-0.5849 -1.2509,-0.68804 0,-0.10315 0.87891,-0.13944 1.95313,-0.0807 l 1.95312,0.10688 0.0925,-2.11367 c 0.0691,-1.57844 -0.0172,-2.15574 -0.34056,-2.27985 -0.23819,-0.0914 -1.897,0.0682 -3.68625,0.3546 -1.78925,0.28644 -3.7165,0.5902 -4.28276,0.67504 -1.13161,0.16955 -2.06982,-0.43817 -2.35397,-1.5248 -0.13092,-0.50062 -0.0574,-0.58065 0.35947,-0.39105 1.03266,0.46972 3.69867,0.47345 6.57257,0.009 1.60792,-0.25975 2.98232,-0.53111 3.05423,-0.60301 0.0719,-0.0719 0.0494,-0.34259 -0.0499,-0.60152 -0.15601,-0.40656 -0.33822,-0.41454 -1.33548,-0.0584 -1.34003,0.47848 -3.45698,0.55543 -4.09913,0.149 -0.32601,-0.20634 -0.0764,-0.37708 0.9375,-0.64125 0.76,-0.19803 1.874,-0.48772 2.47556,-0.64376 1.37155,-0.35578 2.5,-1.13359 2.5,-1.72318 0,-0.63472 -0.71568,-0.56083 -2.01963,0.20852 -0.72898,0.43011 -1.45393,0.61023 -2.08392,0.51777 -0.72024,-0.10571 -1.15239,0.0445 -1.69831,0.59044 -0.85936,0.85937 -1.85905,0.95301 -2.14756,0.20116 -0.14512,-0.37816 0.25016,-0.96637 1.37281,-2.04284 0.86714,-0.83147 1.57357,-1.61202 1.56985,-1.73455 -0.004,-0.12253 -0.45348,-0.43372 -0.99946,-0.69153 -1.65004,-0.77915 -1.42105,-1.18146 0.75494,-1.32636 1.08352,-0.0721 2.43064,-0.3276 2.99361,-0.56767 1.18257,-0.5043 2.10142,-0.13948 2.10142,0.83434 0,0.4869 -0.34386,0.63988 -1.95312,0.86892 -1.78278,0.25374 -1.95313,0.34412 -1.95313,1.03617 0,0.41701 -0.14557,1.03019 -0.32349,1.36264 -0.43649,0.81559 0.25911,0.80767 1.80437,-0.0205 2.89642,-1.55239 5.52254,0.31487 3.31724,2.35867 -0.6062,0.56181 -0.69433,0.76633 -0.33022,0.76633 0.27316,0 0.70109,0.29186 0.95094,0.64858 0.40557,0.57903 0.58339,0.61273 1.65835,0.31424 0.66223,-0.18388 1.30953,-0.33512 1.43844,-0.33607 0.41908,-0.003 1.48437,1.23537 1.48437,1.72571 0,0.40186 -0.3298,0.44366 -2.08329,0.26401 -1.96471,-0.20129 -2.06984,-0.17955 -1.84697,0.38192 0.3975,1.00145 0.57885,5.21698 0.27431,6.37661 -0.41626,1.58503 -1.32436,1.60312 -2.55376,0.0509 z m -14.06807,-0.71595 c -0.54792,-0.88141 -0.91618,-1.68262 -0.81835,-1.78045 0.0978,-0.0978 0.57966,0.0595 1.07072,0.34956 l 0.89286,0.52742 0.17492,-1.3251 c 0.0962,-0.72881 0.26457,-2.0545 0.37414,-2.94599 l 0.19922,-1.62088 -1.58648,0.83963 c -1.39759,0.73967 -1.5868,0.95815 -1.58911,1.83492 -0.005,1.99729 -1.10466,3.49644 -1.94663,2.65447 -0.30212,-0.30212 -0.0155,-1.37414 0.95442,-3.57016 0.0573,-0.12971 -0.0967,-0.23584 -0.34219,-0.23584 -0.58432,0 -1.48073,-1.00342 -1.48073,-1.6575 0,-0.42319 0.1423,-0.46043 0.80159,-0.20977 2.28789,0.86986 5.44841,-0.23165 5.44841,-1.89887 0,-0.15264 -0.51181,0.0698 -1.13736,0.49431 -1.3231,0.89788 -1.89896,0.95542 -2.85561,0.28536 -0.99305,-0.69556 -0.85883,-1.07603 0.37957,-1.07603 1.06449,0 1.07251,-0.0105 0.89616,-1.17188 -0.0979,-0.64453 -0.4651,-1.48828 -0.81607,-1.875 l -0.63814,-0.70312 0.69368,0 c 0.92521,0 2.22777,1.34497 2.22777,2.30029 0,1.15223 1.12746,0.73429 1.37636,-0.5102 0.15345,-0.76727 0.0313,-1.13631 -0.59148,-1.7863 -1.4743,-1.53884 -0.80636,-2.39075 1.10111,-1.40436 1.22913,0.63561 1.41547,1.63189 0.77494,4.14314 -0.29477,1.15565 -0.63423,3.99962 -0.75436,6.31993 -0.30747,5.93867 -1.00094,6.93157 -2.80936,4.02242 z m 7.01304,-2.43323 c -0.0972,-0.15719 0.42189,-0.48835 1.15343,-0.7359 1.16163,-0.3931 1.31868,-0.55478 1.24012,-1.27669 -0.0689,-0.63298 0.0479,-0.8266 0.49844,-0.8266 0.83243,0 1.72006,1.07614 1.48875,1.80492 -0.29878,0.94138 -3.91107,1.79422 -4.38074,1.03427 z m -5.6415,-15.19836 c -2.02202,-1.03597 -2.26733,-2.19948 -0.39062,-1.85274 1.16555,0.21534 4.95157,0.26496 5.08463,0.0666 0.0271,-0.0404 -0.0132,-0.67114 -0.0895,-1.40161 -0.13673,-1.30776 -0.15725,-1.32812 -1.33861,-1.32812 -0.84418,0 -1.4596,-0.23433 -2.07655,-0.79067 l -0.8768,-0.79068 1.45351,0.19653 c 2.1466,0.29024 2.76524,9.4e-4 2.76524,-1.29249 0,-1.06101 -0.0151,-1.07269 -1.38882,-1.07269 -1.01799,0 -1.62295,-0.20151 -2.26563,-0.75467 -1.10693,-0.95273 -0.89945,-1.16431 0.77323,-0.78848 1.21702,0.27345 2.47307,0.18389 7.58615,-0.54091 0.76031,-0.10777 1.23371,-0.01 1.49927,0.31012 0.59929,0.7221 -0.6959,1.46144 -2.56018,1.46144 -1.43356,0 -1.5176,0.0441 -1.34099,0.70312 0.10364,0.38672 0.19036,0.96487 0.1927,1.28478 0.004,0.49744 0.16607,0.5513 1.12171,0.37202 1.16504,-0.21856 2.00756,0.17697 2.00756,0.94247 0,0.27094 -0.50792,0.44618 -1.47416,0.50861 -1.42498,0.0921 -1.48349,0.13491 -1.75382,1.28414 -0.15381,0.65389 -0.21538,1.25317 -0.13682,1.33172 0.0786,0.0786 1.24189,-0.01 2.58518,-0.19686 2.23447,-0.31079 2.51123,-0.28828 3.25161,0.2645 0.44509,0.33231 0.80926,0.79996 0.80926,1.03922 0,0.35236 -0.92051,0.43784 -4.84375,0.44982 -3.87552,0.0118 -5.07599,0.12116 -6.00559,0.54688 -1.41072,0.64606 -1.42033,0.64624 -2.58816,0.0479 z"
         id="path3004"
         style="fill:#6f6f6f" />
      <path
         d="m 574.80301,689.39188 c 0.0938,-0.57787 1.25647,-8.3474 2.58376,-17.26562 1.3273,-8.91823 2.45405,-16.26332 2.50389,-16.32242 0.0498,-0.0591 2.42117,-0.73394 5.26962,-1.49964 l 5.179,-1.39219 5.179,1.39219 c 2.84845,0.7657 5.21978,1.44054 5.26962,1.49964 0.0498,0.0591 1.17659,7.40419 2.50389,16.32242 1.32729,8.91822 2.48999,16.68775 2.58377,17.26562 l 0.1705,1.05067 -15.70678,0 -15.70678,0 0.17051,-1.05067 z m 30.38973,-0.27746 c -0.0871,-0.38671 -1.21824,-7.8667 -2.51356,-16.62218 -1.29531,-8.75549 -2.43213,-15.99609 -2.52628,-16.09024 -0.0941,-0.0941 -2.34072,-0.7592 -4.99239,-1.4779 l -4.82123,-1.30673 -4.82122,1.30673 c -2.65168,0.7187 -4.89826,1.38376 -4.9924,1.4779 -0.0942,0.0941 -1.23097,7.33475 -2.52628,16.09024 -1.29531,8.75548 -2.42642,16.23547 -2.51356,16.62218 l -0.15845,0.70313 15.01191,0 15.01191,0 -0.15845,-0.70313 z m -8.27905,-2.71933 c -0.53796,-0.67923 -1.46383,-1.41061 -2.05751,-1.62528 -1.59397,-0.57639 -1.31162,-0.92251 0.57195,-0.70114 2.10778,0.24773 2.36415,-0.0579 2.12421,-2.53237 l -0.18181,-1.875 -1.71875,0.0636 c -0.94531,0.035 -3.01927,0.30311 -4.60879,0.59584 -2.73028,0.50281 -2.92291,0.50249 -3.48448,-0.006 -0.32693,-0.29587 -0.66849,-0.8212 -0.75902,-1.1674 -0.13046,-0.49884 -0.0559,-0.5814 0.35947,-0.39793 1.05632,0.46663 3.09491,0.51468 6.02107,0.14193 3.32988,-0.42419 3.83089,-0.61353 3.55132,-1.34208 -0.17142,-0.44672 -0.32474,-0.45232 -1.45612,-0.0531 -1.35954,0.47967 -2.85274,0.54505 -3.81706,0.16713 -0.4723,-0.18509 -0.27294,-0.31887 0.9375,-0.6291 2.60964,-0.66885 4.09363,-1.27594 4.66663,-1.9091 0.51704,-0.57132 0.51783,-0.61942 0.0134,-0.81299 -0.30559,-0.11726 -1.13925,0.0955 -1.93855,0.49465 -0.86183,0.43042 -1.72244,0.63921 -2.23268,0.54167 -0.60785,-0.1162 -1.01682,0.0426 -1.52657,0.59258 -0.80005,0.86327 -1.82026,0.98324 -2.10269,0.24726 -0.13159,-0.34294 0.30722,-0.98914 1.37282,-2.02163 0.86143,-0.83466 1.56624,-1.6282 1.56624,-1.76341 0,-0.13521 -0.42187,-0.43258 -0.9375,-0.66082 -1.35011,-0.59761 -1.16325,-0.88737 0.72434,-1.12321 0.91402,-0.1142 2.05509,-0.41165 2.53572,-0.661 1.11586,-0.57892 1.87477,-0.57525 2.36164,0.0114 0.70014,0.84362 0.13535,1.31456 -1.84525,1.53864 -1.8389,0.20805 -1.90145,0.24485 -1.90145,1.11866 0,0.49695 -0.14062,0.99045 -0.3125,1.09668 -0.47716,0.2949 -0.37214,0.78125 0.1687,0.78125 0.26466,0 1.05883,-0.29468 1.76481,-0.65485 2.78616,-1.42139 5.27176,0.44726 3.17711,2.38852 -0.6062,0.56181 -0.69433,0.76633 -0.33022,0.76633 0.27316,0 0.71034,0.30507 0.97151,0.67795 0.43751,0.62462 0.57323,0.64847 1.72576,0.30316 1.32423,-0.39675 2.31965,-0.085 2.67356,0.83724 0.29756,0.77544 -0.13224,0.93661 -2.03714,0.76387 l -1.88567,-0.17098 0.24516,1.3725 c 0.39502,2.21142 0.2896,5.75417 -0.18837,6.33008 -0.65065,0.78399 -1.14473,0.62224 -2.2108,-0.72378 z m -13.52196,0.0631 c -0.23695,-0.47265 -0.6853,-1.24609 -0.99633,-1.71875 -0.63891,-0.97093 -0.25956,-1.12993 0.89343,-0.37447 0.72788,0.47693 0.74297,0.46537 0.91737,-0.70312 0.0975,-0.65342 0.26624,-1.98304 0.37493,-2.95472 l 0.19762,-1.76669 -1.59473,0.76321 c -1.47023,0.70363 -1.59474,0.84887 -1.59474,1.86034 0,1.33148 -0.77937,2.94108 -1.42408,2.94108 -0.77613,0 -0.82454,-0.74308 -0.15082,-2.31483 0.75517,-1.76173 0.75343,-1.74767 0.21708,-1.74767 -0.55124,0 -1.45468,-1.0115 -1.45468,-1.62868 0,-0.43251 0.1411,-0.4371 1.28821,-0.0419 1.02086,0.35171 1.52348,0.36933 2.42187,0.0849 1.68895,-0.53477 2.53992,-1.16474 2.53992,-1.88028 0,-0.63558 -0.005,-0.63576 -0.85937,-0.0338 -1.36266,0.95976 -2.20549,1.11107 -3.06218,0.54974 -1.06893,-0.70039 -0.95479,-1.11246 0.30815,-1.11246 1.06466,0 1.07253,-0.0103 0.89523,-1.17188 -0.0984,-0.64453 -0.3708,-1.39388 -0.60536,-1.66523 -0.55589,-0.64307 -0.5392,-0.91289 0.0565,-0.91289 0.75562,0 2.01704,1.45072 2.01704,2.31974 0,0.61677 0.11755,0.74227 0.54688,0.58387 1.24458,-0.4592 1.33871,-1.64817 0.23437,-2.9606 -1.3172,-1.56541 -0.87951,-2.27654 0.90168,-1.46497 1.323,0.6028 1.60181,1.82313 0.97246,4.25645 -0.30005,1.16009 -0.6394,4.0077 -0.75412,6.32801 -0.20709,4.18873 -0.56983,5.625 -1.42063,5.625 -0.23917,0 -0.62874,-0.38672 -0.86569,-0.85938 z m 6.68093,-3.15247 c -0.30773,-0.20641 -0.0524,-0.40164 0.9375,-0.71693 1.21123,-0.38578 1.35051,-0.52717 1.27042,-1.28975 -0.0696,-0.66223 0.0435,-0.85647 0.49844,-0.85647 0.63334,0 1.62276,0.91565 1.62276,1.50178 0,0.91629 -3.3991,1.9852 -4.32912,1.36137 z m -5.83244,-15.21778 c -0.97802,-0.48279 -1.89678,-1.6287 -1.5688,-1.95668 0.10337,-0.10337 0.82084,-0.0187 1.59436,0.18821 1.83031,0.48954 4.93328,0.17242 4.68344,-0.47864 -0.0948,-0.24716 -0.17244,-0.85975 -0.17244,-1.36132 0,-0.85345 -0.0791,-0.91194 -1.23257,-0.91194 -0.8511,0 -1.5029,-0.23252 -2.10597,-0.75126 l -0.8734,-0.75127 2.10597,0.16905 2.10597,0.16905 0,-1.25303 0,-1.25302 -1.62076,-0.15574 c -1.18655,-0.11401 -1.77468,-0.34582 -2.19531,-0.86527 -0.31601,-0.39025 -0.53135,-0.75276 -0.47853,-0.80557 0.0528,-0.0528 0.69198,0.0552 1.42038,0.24013 0.97463,0.24739 2.00348,0.23413 3.89616,-0.0502 3.93229,-0.59077 5.03816,-0.57538 5.16584,0.0719 0.13285,0.67347 -1.04673,1.17278 -2.77062,1.17278 -1.31738,0 -1.33401,0.0251 -1.02834,1.55348 0.18366,0.91831 0.28186,0.99051 1.11933,0.82301 1.05629,-0.21125 2.11685,0.24755 2.11685,0.91575 0,0.33329 -0.37735,0.45776 -1.38781,0.45776 -1.56941,0 -1.59604,0.0236 -1.90834,1.68827 l -0.22789,1.21475 1.9964,-0.25802 c 2.91634,-0.37691 3.69359,-0.30544 4.40397,0.40494 1.17758,1.17758 0.51225,1.37253 -3.92007,1.14864 -3.69673,-0.18673 -4.30898,-0.14092 -6.05578,0.45309 -2.28339,0.77649 -1.90183,0.75391 -3.06204,0.1812 z"
         id="path3002"
         style="fill:#4f4f4f" />
      <path
         d="m 574.80108,689.58317 c 0.0907,-0.47265 1.25814,-8.24218 2.59429,-17.26562 1.33615,-9.02344 2.45638,-16.44639 2.48939,-16.49546 0.033,-0.0491 2.39879,-0.71334 5.25727,-1.47616 l 5.19725,-1.38695 5.19725,1.38695 c 2.85848,0.76282 5.22426,1.42709 5.25727,1.47616 0.033,0.0491 1.15324,7.47202 2.48939,16.49546 1.33615,9.02344 2.50358,16.79297 2.59429,17.26562 l 0.16493,0.85938 -15.70313,0 -15.70312,0 0.16492,-0.85938 z m 30.4095,-0.625 c -0.0981,-0.47265 -1.22675,-7.94639 -2.50813,-16.6083 -1.28137,-8.6619 -2.44275,-15.84877 -2.58084,-15.97081 -0.1381,-0.12204 -2.39561,-0.80374 -5.0167,-1.51489 l -4.76563,-1.29301 -4.76562,1.29301 c -2.6211,0.71115 -4.87861,1.39285 -5.0167,1.51489 -0.1381,0.12204 -1.29948,7.30891 -2.58085,15.97081 -1.28138,8.66191 -2.41004,16.13565 -2.50813,16.6083 l -0.17836,0.85938 15.04966,0 15.04966,0 -0.17836,-0.85938 z m -8.29705,-2.61026 c -0.56669,-0.70517 -1.46913,-1.4731 -2.00542,-1.70651 -0.97281,-0.4234 -0.97097,-0.42442 0.78836,-0.43662 2.09552,-0.0145 2.21275,-0.18887 1.93219,-2.87319 l -0.1989,-1.90291 -2.06086,0.19836 c -1.13348,0.10909 -3.14593,0.42683 -4.47211,0.70609 -2.23829,0.47131 -2.46805,0.47052 -3.20313,-0.0111 -1.45322,-0.95218 -1.01738,-1.38808 1.2092,-1.20935 1.10059,0.0883 3.17481,-0.006 4.60937,-0.20883 3.60758,-0.511 3.75866,-0.5666 3.34389,-1.23076 -0.31524,-0.50478 -0.47216,-0.51117 -2.10533,-0.0857 -1.57247,0.40968 -3.84271,0.30719 -3.3828,-0.15272 0.0907,-0.0907 1.18616,-0.42763 2.43429,-0.74868 2.43588,-0.62657 4.16671,-1.86373 3.51675,-2.51369 -0.2467,-0.2467 -0.79806,-0.10981 -1.98959,0.49398 -1.06588,0.54013 -1.93701,0.77753 -2.46536,0.67185 -0.5988,-0.11976 -1.01575,0.043 -1.56095,0.60951 -0.83799,0.87067 -1.68219,0.87087 -1.84982,3.1e-4 -0.0727,-0.37734 0.39169,-1.04338 1.32454,-1.89983 0.79003,-0.72534 1.43554,-1.44663 1.43446,-1.60287 -10e-4,-0.15624 -0.45812,-0.55612 -1.01563,-0.88861 l -1.01365,-0.60454 1.68112,-0.22564 c 0.92461,-0.1241 2.23748,-0.47652 2.91749,-0.78316 1.37991,-0.62225 2.27639,-0.35074 2.27639,0.68943 0,0.42994 -0.25543,0.61343 -0.9375,0.67346 -2.51264,0.22117 -2.89617,0.37895 -3.04647,1.25333 -0.0805,0.46841 -0.25961,1.11854 -0.398,1.44474 -0.21594,0.50899 -0.14466,0.56796 0.50268,0.41592 0.41486,-0.0974 1.39082,-0.42223 2.1688,-0.72175 1.2502,-0.48132 1.522,-0.49306 2.33993,-0.10104 1.2404,0.59451 1.33041,1.40293 0.27846,2.50093 -0.47772,0.49863 -0.70712,0.9066 -0.50979,0.9066 0.19734,0 0.64741,0.3098 1.00017,0.68844 0.58654,0.62958 0.75458,0.65776 1.9653,0.32967 1.22853,-0.33291 1.37939,-0.30402 2.09381,0.40105 1.04585,1.03218 0.56237,1.35859 -1.63189,1.10173 l -1.79949,-0.21065 0.23699,1.57926 c 0.33591,2.23833 0.19907,5.74765 -0.24498,6.2827 -0.59715,0.71952 -1.06068,0.54176 -2.16252,-0.82933 z m -13.5218,0.11026 c -0.23695,-0.47265 -0.6853,-1.24609 -0.99633,-1.71875 -0.63547,-0.96569 -0.35944,-1.10574 0.70706,-0.35875 0.3931,0.27535 0.78454,0.43083 0.86985,0.34552 0.19265,-0.19265 0.72717,-3.81964 0.73569,-4.99203 l 0.006,-0.86464 -1.5625,0.79178 c -1.33714,0.67758 -1.5625,0.9233 -1.5625,1.70367 0,1.8798 -0.9903,3.43214 -1.77437,2.78142 -0.30671,-0.25455 -0.25934,-0.66427 0.22373,-1.93525 0.7318,-1.92536 0.71836,-1.76859 0.15159,-1.76859 -0.48229,0 -1.6138,-1.46633 -1.34157,-1.73855 0.0861,-0.0861 0.77311,0.008 1.5267,0.20915 1.21678,0.32476 1.55384,0.28659 3.01079,-0.34093 1.30071,-0.56023 1.64063,-0.85597 1.64063,-1.4274 l 0,-0.72077 -1.39694,0.78076 c -1.24774,0.69737 -1.48726,0.73675 -2.24255,0.36863 -1.30759,-0.6373 -1.29181,-1.19339 0.0339,-1.19339 l 1.13395,0 -0.20999,-1.17188 c -0.1155,-0.64453 -0.4257,-1.41883 -0.68933,-1.72066 -0.62553,-0.71616 -0.35523,-0.95176 0.65241,-0.56866 0.94904,0.36082 1.58819,1.40757 1.36969,2.24315 -0.18025,0.68924 -0.18797,0.68665 0.8598,0.28828 1.05618,-0.40156 1.06491,-1.63583 0.0204,-2.87722 -1.32135,-1.57033 -0.87927,-2.27643 0.91375,-1.45947 1.19018,0.54228 1.51888,1.94632 0.94027,4.01646 -0.26421,0.94531 -0.58844,3.75781 -0.72051,6.25 -0.23747,4.4815 -0.58915,5.9375 -1.43412,5.9375 -0.23918,0 -0.62874,-0.38672 -0.86569,-0.85938 z m 6.79424,-3.1214 c -0.48247,-0.12139 -0.30716,-0.27448 0.78125,-0.68223 1.23379,-0.46222 1.39244,-0.62757 1.31336,-1.36886 -0.0693,-0.64916 0.0454,-0.84313 0.49844,-0.84313 0.63335,0 1.62276,0.91565 1.62276,1.50178 0,0.84959 -2.75574,1.75978 -4.21581,1.39244 z m -5.65029,-15.2313 c -1.05577,-0.44996 -2.20878,-1.6297 -1.89725,-1.94124 0.11659,-0.11659 0.89165,-0.0378 1.72234,0.17511 0.88855,0.22773 2.14368,0.30308 3.04867,0.18303 l 1.5383,-0.20406 -0.007,-1.37438 c -0.007,-1.36058 -0.0183,-1.37441 -1.10111,-1.37655 -0.89649,-0.002 -3.125,-0.95971 -3.125,-1.3433 0,-0.0565 0.85422,-0.0409 1.89826,0.0347 1.04404,0.0755 2.03018,0.005 2.19141,-0.15585 0.16123,-0.16123 0.2035,-0.74139 0.0939,-1.28924 -0.17743,-0.8871 -0.31632,-0.99609 -1.26943,-0.99609 -1.2633,0 -2.75751,-0.70352 -3.03609,-1.42949 -0.15312,-0.39903 -0.0736,-0.46352 0.35275,-0.28622 1.10452,0.4593 3.44844,0.52465 5.5677,0.15525 4.19987,-0.73207 4.18106,-0.73134 4.39605,-0.1711 0.31052,0.80921 -0.27032,1.14436 -2.30268,1.32865 l -1.8679,0.16937 0.31396,1.23691 c 0.29822,1.1749 0.3634,1.22764 1.30006,1.05192 1.09333,-0.20511 2.28838,0.43035 1.92253,1.0223 -0.12234,0.19795 -0.82325,0.35991 -1.55759,0.35991 -1.3264,0 -1.33727,0.009 -1.65695,1.40625 l -0.3218,1.40625 1.12852,-0.0136 c 0.62069,-0.007 1.72781,-0.12953 2.46026,-0.2712 1.49839,-0.28983 3.35576,0.38671 3.35576,1.22231 0,0.39922 -0.64888,0.45354 -4.375,0.36623 -3.72284,-0.0872 -4.63453,-0.0111 -6.11609,0.51085 -1.4794,0.52117 -1.87865,0.55475 -2.65625,0.22334 z"
         id="path3000"
         style="fill:#2f2f2f" />
      <path
         d="m 574.82837,689.58317 c 0.0859,-0.30078 1.24366,-7.92968 2.57277,-16.95312 1.3291,-9.02344 2.51681,-16.52274 2.63934,-16.66512 0.12253,-0.14238 2.48989,-0.86928 5.26079,-1.61534 l 5.03801,-1.35647 5.03801,1.35647 c 2.7709,0.74606 5.13826,1.47296 5.26079,1.61534 0.12254,0.14238 1.31024,7.64168 2.63934,16.66512 1.32911,9.02344 2.48685,16.65234 2.57277,16.95312 0.14728,0.51564 -0.73867,0.54688 -15.51091,0.54688 -14.77224,0 -15.65819,-0.0313 -15.51091,-0.54688 z m 30.50985,0.15625 c -0.006,-0.45686 -4.98926,-33.44677 -5.05972,-33.49725 -0.0525,-0.0376 -2.31031,-0.6623 -5.01734,-1.38818 l -4.92188,-1.31977 -4.92187,1.31977 c -2.70704,0.72588 -4.96484,1.35056 -5.01735,1.38818 -0.0705,0.0505 -5.05354,33.04039 -5.05972,33.49725 -6.3e-4,0.043 6.74894,0.0781 14.99894,0.0781 8.25,0 14.99953,-0.0352 14.99894,-0.0781 z m -8.34572,-3.40106 c -0.65146,-0.71043 -1.60634,-1.47836 -2.12197,-1.70652 -0.91945,-0.40684 -0.90325,-0.41506 0.84093,-0.42706 0.97814,-0.007 1.87224,-0.164 1.98688,-0.3495 0.11465,-0.1855 0.11175,-1.24019 -0.006,-2.34375 l -0.21487,-2.00648 -1.30325,0.0109 c -1.15559,0.01 -4.10696,0.47164 -6.97383,1.09161 -0.76747,0.16596 -1.12728,0.0684 -1.64062,-0.44496 -0.87503,-0.87503 -0.85339,-1.39099 0.0456,-1.08659 1.20247,0.40717 9.11884,-0.28009 9.45293,-0.82065 0.075,-0.12141 -0.0349,-0.44941 -0.24419,-0.72889 -0.3499,-0.46714 -0.51603,-0.46807 -2.05866,-0.0116 -1.20263,0.3559 -1.95518,0.41515 -2.65625,0.20915 -0.9441,-0.2774 -0.9008,-0.30662 1.24165,-0.83816 2.47655,-0.61444 4.18639,-1.51362 4.18639,-2.20158 0,-0.8181 -0.53111,-0.81268 -2.35882,0.0241 -1.42643,0.65304 -1.91659,0.75152 -2.36054,0.47428 -0.46232,-0.28873 -0.72734,-0.18286 -1.51571,0.60552 -0.52549,0.52549 -1.13054,0.89713 -1.34455,0.82587 -0.87124,-0.29009 -0.52632,-1.23066 0.99454,-2.71202 1.75793,-1.71228 1.94744,-2.2095 0.8421,-2.2095 -0.40864,0 -0.90165,-0.19118 -1.09557,-0.42484 -0.2876,-0.34653 -0.0419,-0.45691 1.33282,-0.59879 0.92698,-0.0957 2.1426,-0.41038 2.70139,-0.69934 0.7907,-0.40889 1.1796,-0.45083 1.75391,-0.18915 1.51543,0.69047 0.74869,1.58047 -1.397,1.62158 -1.58442,0.0304 -2.07878,0.31751 -2.11422,1.22804 -0.0167,0.42969 -0.13724,1.02734 -0.26781,1.32812 -0.18857,0.43439 -0.0859,0.54484 0.49916,0.53694 0.4051,-0.005 1.00953,-0.2164 1.34316,-0.46875 0.33363,-0.25234 1.25472,-0.45881 2.04687,-0.45881 2.27442,0 2.82922,1.01764 1.37966,2.53065 -0.79779,0.83271 -0.80026,0.84938 -0.15625,1.05378 0.3599,0.11423 0.65436,0.41471 0.65436,0.66774 0,0.36468 0.39518,0.4413 1.90622,0.36957 1.71569,-0.0815 1.95698,-0.0154 2.41402,0.66106 l 0.5078,0.75155 -2.13197,-0.17113 -2.13197,-0.17114 0.20995,1.40004 c 0.3283,2.18925 0.22406,6.05206 -0.17633,6.5345 -0.54112,0.65201 -0.77585,0.55494 -2.06949,-0.85581 z m -13.92239,-0.62616 c -0.59541,-0.92175 -1.03594,-1.73011 -0.97895,-1.79636 0.057,-0.0662 0.4746,0.12263 0.92802,0.41972 0.45343,0.2971 0.93731,0.42161 1.07529,0.27671 0.13798,-0.14491 0.35039,-1.49244 0.47202,-2.99451 l 0.22116,-2.73104 -1.59182,0.69979 c -1.47219,0.6472 -1.59272,0.78199 -1.60379,1.79354 -0.0149,1.35882 -0.62654,2.61737 -1.33873,2.75452 -0.67653,0.13029 -0.71395,-1.00354 -0.0703,-2.12952 0.61366,-1.07349 0.57606,-1.48632 -0.15658,-1.71886 -0.61417,-0.19492 -1.43466,-1.32532 -1.16078,-1.5992 0.0767,-0.0767 0.75611,0.0214 1.5097,0.21805 1.17972,0.30788 1.58734,0.27125 2.93266,-0.26356 1.28372,-0.51032 1.58084,-0.77475 1.66531,-1.48204 l 0.10282,-0.86088 -1.0772,0.66574 c -1.27535,0.78821 -2.48822,0.85507 -3.16861,0.17468 -0.69,-0.69 -0.62699,-0.77192 0.52456,-0.682 l 1.01562,0.0793 -0.10674,-1.40625 c -0.0587,-0.77344 -0.2517,-1.58203 -0.42888,-1.79688 -0.2389,-0.28967 -0.16064,-0.39062 0.30284,-0.39062 0.84427,0 1.4307,0.77537 1.4307,1.89165 0,0.99379 0.0172,1.00542 1.06771,0.72388 1.02898,-0.27575 0.98246,-2.12873 -0.0781,-3.11165 -1.09428,-1.01414 -1.05317,-1.827 0.0781,-1.54466 1.62733,0.40614 2.03609,1.06488 1.84755,2.97751 -0.0932,0.94574 -0.31242,2.35233 -0.48711,3.12577 -0.17468,0.77344 -0.32708,2.67187 -0.33867,4.21875 -0.0237,3.16161 -0.36492,5.02395 -1.04521,5.70424 -0.40507,0.40507 -0.58944,0.25975 -1.54261,-1.21584 z m 7.58167,-2.88054 c 1.66926,-0.54616 1.94724,-0.80875 1.73812,-1.64195 -0.2318,-0.92357 0.3825,-0.99829 1.40437,-0.17084 1.40257,1.13574 -0.0183,2.26505 -2.77221,2.20341 l -1.46403,-0.0328 1.09375,-0.35786 z m -7.2496,-15.52813 c -0.52334,-0.52334 -0.86811,-1.03493 -0.76617,-1.13687 0.10194,-0.10195 0.81707,-0.008 1.58919,0.2077 0.88721,0.2484 2.04053,0.3135 3.13396,0.17688 l 1.73012,-0.21616 0,-1.38377 c 0,-1.41162 -0.0997,-1.50704 -1.46225,-1.39889 -0.37455,0.0297 -1.14799,-0.20079 -1.71875,-0.51228 l -1.03775,-0.56634 2.102,-0.0922 2.102,-0.0922 -0.0581,-1.31401 -0.0581,-1.31402 -1.4921,-0.002 c -1.21764,-0.002 -1.65109,-0.16292 -2.35639,-0.87593 l -0.86428,-0.87375 0.87972,0.32906 c 1.2941,0.48406 4.35814,0.40092 6.78157,-0.18401 2.22888,-0.53797 3.11996,-0.44306 3.11996,0.33232 0,0.51981 -1.78196,1.11379 -3.34957,1.11651 -0.65993,10e-4 -0.96443,0.13607 -0.88547,0.39236 0.0662,0.21485 0.20941,0.79461 0.31827,1.28836 0.17856,0.80986 0.2966,0.88173 1.20596,0.73416 1.08919,-0.17675 2.28883,0.44305 1.94241,1.00357 -0.11329,0.18331 -0.81525,0.33329 -1.55991,0.33329 -1.219,0 -1.37436,0.0856 -1.5589,0.85937 -0.11273,0.47266 -0.28375,1.12333 -0.38003,1.44594 -0.16579,0.55548 -0.0174,0.57474 2.80021,0.3635 2.80529,-0.21033 3.01463,-0.18371 3.66429,0.46595 1.04808,1.04808 0.38398,1.21224 -4.09781,1.01291 -3.20382,-0.14249 -4.28231,-0.0769 -5.54986,0.33774 -2.27279,0.74339 -3.07817,0.65909 -4.17419,-0.43693 z"
         id="path2998"
         style="fill:#020202" />
    </g>
  </g>
</svg>
