<?xml version="1.0" encoding="UTF-8" standalone="no"?>
<!-- Created with Inkscape (http://www.inkscape.org/) -->

<svg
   xmlns:dc="http://purl.org/dc/elements/1.1/"
   xmlns:cc="http://creativecommons.org/ns#"
   xmlns:rdf="http://www.w3.org/1999/02/22-rdf-syntax-ns#"
   xmlns:svg="http://www.w3.org/2000/svg"
   xmlns="http://www.w3.org/2000/svg"
   xmlns:sodipodi="http://sodipodi.sourceforge.net/DTD/sodipodi-0.dtd"
   xmlns:inkscape="http://www.inkscape.org/namespaces/inkscape"
   width="42.077885"
   height="50"
   id="svg3864"
   version="1.1"
   inkscape:version="0.48.3.1 r9886"
   sodipodi:docname="Shogi_ginsho(svg).svg">
  <defs
     id="defs3866" />
  <sodipodi:namedview
     id="base"
     pagecolor="#ffffff"
     bordercolor="#666666"
     borderopacity="1.0"
     inkscape:pageopacity="0.0"
     inkscape:pageshadow="2"
     inkscape:zoom="0.98994949"
     inkscape:cx="117.74765"
     inkscape:cy="68.329015"
     inkscape:document-units="px"
     inkscape:current-layer="layer1"
     showgrid="false"
     fit-margin-top="0"
     fit-margin-left="0"
     fit-margin-right="0"
     fit-margin-bottom="0"
     inkscape:window-width="897"
     inkscape:window-height="630"
     inkscape:window-x="1053"
     inkscape:window-y="961"
     inkscape:window-maximized="0" />
  <metadata
     id="metadata3869">
    <rdf:RDF>
      <cc:Work
         rdf:about="">
        <dc:format>image/svg+xml</dc:format>
        <dc:type
           rdf:resource="http://purl.org/dc/dcmitype/StillImage" />
        <dc:title />
      </cc:Work>
    </rdf:RDF>
  </metadata>
  <g
     inkscape:label="Layer 1"
     inkscape:groupmode="layer"
     id="layer1"
     transform="translate(-460.59485,-446.83135)">
    <g
       id="g4428"
       transform="matrix(0.44526861,0,0,0.44526861,273.94778,277.4071)">
      <path
         sodipodi:nodetypes="cccccc"
         inkscape:connector-curvature="0"
         id="path3918"
         d="m 436.13336,390.9648 -16.16244,101.01526 92.49209,0.37881 -15.97303,-102.15168 -30.55712,-8.5863 z"
         style="fill:#ffffff;fill-opacity:1;stroke:none" />
      <g
         id="g3909">
        <path
           inkscape:connector-curvature="0"
           id="path3897"
           d="m 419.42859,491.44745 c 0,-4.36539 15.21762,-102.17317 15.96908,-102.6376 0.50277,-0.31073 7.6904,-2.30779 15.97252,-4.43792 l 15.0584,-3.87296 15.0584,3.87296 c 8.28212,2.13013 15.46975,4.12719 15.97252,4.43792 0.75146,0.46443 15.96908,98.27221 15.96908,102.6376 0,1.10533 -8.32585,1.34329 -47,1.34329 -38.67415,0 -47,-0.23796 -47,-1.34329 z m 90.41739,-3.40671 c -0.21745,-0.9625 -3.5532,-23.09037 -7.41277,-49.17305 -3.85957,-26.08268 -7.12702,-47.50666 -7.26101,-47.60884 -0.13398,-0.10218 -6.65611,-1.88752 -14.49361,-3.96742 l -14.25,-3.78164 -14.25,3.78164 c -7.8375,2.0799 -14.35853,3.86415 -14.49118,3.96499 -0.13265,0.10084 -3.39455,21.29981 -7.24867,47.10883 -3.85412,25.80902 -7.24166,47.93799 -7.52787,49.17549 l -0.52038,2.25 43.92543,0 c 41.31769,0 43.90196,-0.10389 43.53006,-1.75 z m -60.24547,-5.45422 c -0.65496,-1.26268 -2.74641,-4.22337 -4.64766,-6.57932 l -3.45683,-4.28353 -2.58617,4.09676 c -1.65798,2.62641 -3.19131,3.98022 -4.27223,3.77205 -2.83992,-0.54692 -2.55158,-3.79685 0.744,-8.38586 2.54212,-3.53985 2.94096,-4.74544 2.09366,-6.32863 -2.65726,-4.96514 0.66074,-11.38456 4.75247,-9.19473 1.08105,0.57855 2.23891,1.7643 2.57302,2.63499 0.50489,1.31572 1.28475,1.03881 4.61765,-1.63958 5.55109,-4.46097 5.16097,-9.20723 -1.01947,-12.40326 -4.5243,-2.3396 -3.86678,-4.48467 1.37465,-4.48467 4.58029,0 7.65499,2.14034 7.65499,5.32874 0,2.19522 1.17252,2.11 4.24745,-0.30874 4.47942,-3.52352 7.71128,-4.27706 10.50184,-2.44861 2.13501,1.3989 3.09726,1.45151 6.92862,0.3788 4.03942,-1.13097 4.69676,-1.05771 7.13569,0.79527 3.22242,2.44822 3.33449,6.873 0.23811,9.40056 -2.00511,1.63676 -2.00316,1.64935 0.34643,2.23906 1.29958,0.32617 2.58598,1.4462 2.85867,2.48896 0.3753,1.43513 1.13299,1.7741 3.11764,1.39471 3.05813,-0.5846 7.62555,2.02388 7.62555,4.355 0,1.24813 -0.90526,1.50439 -4.33424,1.22694 l -4.33425,-0.35069 0.4286,7 c 0.68137,11.1282 -2.87455,16.80857 -6.98759,11.16228 -1.06663,-1.46426 -2.60638,-2.66228 -3.42167,-2.66228 -0.81528,0 -2.46525,-0.5625 -3.66659,-1.25 -1.98647,-1.13681 -1.68622,-1.29528 3.31574,-1.75 l 5.5,-0.5 -0.0223,-5.68899 c -0.0123,-3.12894 -0.31409,-5.98075 -0.6707,-6.33736 -0.3566,-0.3566 -3.19962,-0.11874 -6.3178,0.5286 l -5.66944,1.17697 2.12273,2.25954 c 4.52679,4.81855 -1.86914,10.2951 -10.94247,9.36955 l -3.5,-0.35703 4.57363,-2.33922 c 2.99797,-1.53333 4.95212,-3.34194 5.67225,-5.24977 l 1.09861,-2.91055 -4.9047,0.65064 c -3.70923,0.49204 -5.51833,0.24856 -7.42225,-0.99893 -4.02613,-2.63803 -2.97487,-3.53281 4.08695,-3.47861 7.8763,0.0604 19.40842,-2.05871 19.36371,-3.5583 -0.0584,-1.9588 -2.66648,-4.56641 -4.57844,-4.57763 -1.50365,-0.009 -1.22573,-0.53442 1.36024,-2.57248 2.96385,-2.33587 4.34525,-5.35283 2.5,-5.45998 -0.4125,-0.0239 -2.6625,-0.41353 -5,-0.86573 -2.3375,-0.45219 -4.25,-0.44825 -4.25,0.009 0,1.45625 -6.15393,7.90052 -7.54458,7.90052 -2.58007,0 -2.57443,-2.06985 0.014,-5.14604 4.81144,-5.71806 0.50553,-4.6177 -5.14175,1.31396 -3.01834,3.17034 -3.22742,3.91456 -4.30732,15.33208 -1.58585,16.76679 -2.10275,18.94029 -4.58898,19.29578 -1.33634,0.19108 -2.49018,-0.51691 -3.25946,-2 z m 3.26001,-17.36732 0.70036,-7.92846 -4.02821,4.5 c -5.6699,6.33399 -5.84895,7.42633 -1.93411,11.79962 3.09564,3.45814 3.37337,3.57348 3.94582,1.63864 0.33868,-1.14474 0.93095,-5.64915 1.31614,-10.0098 z m -9.87262,-2.52442 c 0.37253,-0.60278 -0.0509,-1.82421 -0.94099,-2.71429 -1.4911,-1.4911 -1.61832,-1.40494 -1.61832,1.09596 0,2.76169 1.33209,3.60401 2.55931,1.61833 z m 23.94069,-2.50431 c 1.1,-0.84516 2.66122,-1.91649 3.46937,-2.38072 0.89054,-0.51155 1.3767,-2.0603 1.23412,-3.93153 -0.18852,-2.4741 0.15184,-3.08748 1.71324,-3.08748 2.2537,0 3.53019,3.08321 2.67959,6.47225 -0.59876,2.38565 -4.94379,4.55729 -8.99554,4.49595 -2.09085,-0.0317 -2.09132,-0.0391 -0.10078,-1.56847 z m -21.75,-25.47983 c -2.56648,-1.49483 -2.17982,-3.9199 0.625,-3.9199 5.74165,0 8.625,-1.19082 8.625,-3.56213 0,-2.05675 -0.36409,-2.25305 -3.29639,-1.7772 -4.70806,0.76401 -6.65508,-1.69633 -3.59702,-4.54535 1.95228,-1.81883 2.01613,-2.131 0.55082,-2.69329 -3.0165,-1.15754 -1.82836,-3.28685 2.01529,-3.61166 4.1645,-0.35193 5.94299,-2.81037 2.03308,-2.81037 -1.35349,0 -2.99386,-0.64219 -3.64526,-1.42708 -0.82196,-0.9904 -2.30175,-1.24576 -4.83594,-0.83451 l -3.65157,0.59257 6.77246,-6.3353 c 4.24761,-3.97343 6.98348,-7.39043 7.33849,-9.16549 0.84456,-4.2228 6.30451,-3.25573 6.32236,1.11981 0.003,0.8525 1.35348,2.31657 3,3.25349 3.23859,1.84285 3.93611,4.49764 1.43398,5.45779 -0.92618,0.35541 -2.65243,-0.43922 -4.25,-1.95639 l -2.6903,-2.5549 -5,4.04002 -5,4.04001 4.5,-0.55042 c 2.475,-0.30274 5.90921,-0.84774 7.63158,-1.21113 1.94281,-0.4099 3.39901,-0.22799 3.83609,0.47922 0.95279,1.54164 -1.27151,4.05231 -3.59011,4.05231 -1.03266,0 -1.87756,0.47829 -1.87756,1.06286 0,0.58457 0.7875,0.98275 1.75,0.88484 5.08313,-0.51706 6.16216,2.41987 1.25,3.4023 -3.73873,0.74775 -3.98147,3.39993 -0.35086,3.83358 2.4588,0.29368 5.37555,3.12506 4.31344,4.18717 -0.25667,0.25668 -1.77038,0.79389 -3.36378,1.19381 -2.0671,0.51881 -2.69422,0.39885 -2.18894,-0.41872 0.3895,-0.63021 0.23162,-1.14584 -0.35084,-1.14584 -0.58246,0 -1.05902,0.87149 -1.05902,1.93664 0,1.45399 0.80998,2.01474 3.25,2.25 4.9961,0.48172 4.03472,2.88333 -1.75,4.37165 -2.75,0.70754 -6.2668,1.77137 -7.8151,2.36407 -3.43567,1.3152 -4.67337,1.31476 -6.9349,-0.002 z m 9.25,-14.45508 c 0,-1.22531 -0.4037,-1.31913 -2,-0.46482 -2.53888,1.35877 -2.53888,2 0,2 1.13148,0 2,-0.66667 2,-1.53518 z m 14.16052,12.98813 c -1.48713,-3.26388 -1.47683,-10.0057 0.0277,-18.17135 0.94084,-5.10611 0.92641,-6.86832 -0.0693,-8.46268 -1.58679,-2.54087 -0.61403,-3.60918 1.87244,-2.05635 1.49469,0.93345 2.79289,0.87199 6.08025,-0.28786 2.29888,-0.81109 5.11321,-1.47471 6.25406,-1.47471 1.4142,0 1.74867,-0.3256 1.05107,-1.0232 -0.6976,-0.6976 -2.65576,-0.64636 -6.15352,0.16102 -4.08667,0.94332 -5.44492,0.92313 -6.6768,-0.0992 -0.85056,-0.7059 -1.54648,-1.57187 -1.54648,-1.92436 0,-0.54999 4.6174,-1.94332 12.59349,-3.80016 1.31841,-0.30693 3.16571,0.43492 4.98957,2.00373 l 2.89607,2.4911 -1.90783,5.61277 c -1.04932,3.08702 -2.39462,5.99097 -2.98957,6.45323 -0.59495,0.46225 -3.51022,0.8805 -6.47838,0.92944 -2.96816,0.0489 -5.79007,0.4824 -6.27091,0.96324 -1.20502,1.20502 -2.38512,14.61363 -1.23972,14.08611 0.499,-0.22981 2.15521,-1.04289 3.68047,-1.80684 l 2.77318,-1.38899 -2.77318,-2.94033 -2.77319,-2.94033 3.08491,0.6546 c 2.66694,0.56592 3.63812,0.11774 7.16802,-3.30791 3.96056,-3.8436 4.13423,-3.90604 5.78637,-2.08044 2.39524,2.64671 1.34333,4.37555 -3.55531,5.84322 l -4.2242,1.2656 3.8701,2.55413 c 4.68668,3.09303 6.37011,5.07932 6.37011,7.51613 0,3.49923 -2.9929,3.19031 -7,-0.72251 -4.43549,-4.33114 -5.89088,-4.18245 -9.21023,0.94097 -2.72298,4.20293 -4.0654,4.44426 -5.62925,1.01198 z m 13.72503,-24.17646 c 1.13355,-2.17945 1.04721,-2.21909 -4.35608,-2 -4.36856,0.17713 -5.51431,0.56693 -5.52101,1.87835 -0.007,1.35423 0.71817,1.55738 3.99154,1.11833 2.88824,-0.38739 4,-0.17565 4,0.76183 0,1.53561 0.33453,1.22362 1.88555,-1.75851 z"
           style="fill:#cfcfcf" />
        <path
           inkscape:connector-curvature="0"
           id="path3895"
           d="m 419.42312,492.04074 c -0.009,-1.22309 15.18203,-102.72961 15.41057,-102.97395 0.1152,-0.12317 7.27118,-2.09557 15.90218,-4.3831 l 15.69272,-4.15916 15.69272,4.15916 c 8.63099,2.28753 15.78698,4.25993 15.90218,4.3831 0.22854,0.24434 15.4195,101.75086 15.41057,102.97395 -0.003,0.4125 -21.15547,0.75 -47.00547,0.75 -25.85,0 -47.00246,-0.3375 -47.00547,-0.75 z m 90.53805,-4.5 c -0.27804,-1.2375 -3.44721,-22.275 -7.0426,-46.75 -3.59539,-24.475 -6.77472,-45.6805 -7.06517,-47.12334 -0.49196,-2.44389 -1.46512,-2.87269 -14.22645,-6.26853 -7.5341,-2.00485 -14.37336,-3.64518 -15.19836,-3.64518 -0.825,0 -7.66426,1.64033 -15.19836,3.64518 -12.76102,3.39575 -13.73453,3.8247 -14.22682,6.26853 -0.29065,1.44284 -3.46783,22.42334 -7.06041,46.62334 -3.59257,24.2 -6.78876,45.2375 -7.10264,46.75 l -0.57068,2.75 44.09851,0 44.0985,0 -0.50552,-2.25 z m -59.53258,-3.69458 c 0,-0.59602 -2.01508,-3.55765 -4.47796,-6.58141 l -4.47797,-5.49773 -2.65492,4.01186 c -2.71685,4.10544 -5.03051,5.11003 -5.99289,2.60212 -0.66554,-1.73437 1.68301,-6.44703 4.46962,-8.96889 1.87083,-1.69307 1.92896,-2.07619 0.60238,-3.97014 -2.02305,-2.88832 -1.83766,-5.99217 0.52506,-8.79045 l 1.99332,-2.36078 2.90235,3.14901 2.90235,3.14901 3.60433,-3.69117 c 4.72295,-4.83674 4.63867,-7.45917 -0.38888,-12.10058 -2.19627,-2.02758 -3.69627,-3.98346 -3.33333,-4.34639 0.36293,-0.36293 2.31513,-0.65988 4.33822,-0.65988 4.12627,0 6.98832,2.38714 6.98832,5.82874 0,2.8509 0.57946,2.74769 4.65278,-0.82874 2.39041,-2.09881 4.45775,-3 6.88202,-3 1.90586,0 3.4652,0.45 3.4652,1 0,1.27625 4.10725,1.28992 7.4349,0.0247 3.15815,-1.20073 7.02898,0.10499 8.5089,2.87023 1.35139,2.5251 -0.29597,6.47704 -3.30788,7.93543 l -2.13592,1.03423 2.22695,0.0677 c 1.22482,0.0372 2.92197,1.12843 3.77146,2.42491 1.13381,1.73041 2.20309,2.23133 4.0212,1.88377 2.93002,-0.56011 7.48039,2.12381 7.48039,4.41211 0,1.30252 -0.81645,1.51497 -4.30915,1.12129 l -4.30915,-0.4857 0.0591,8.81725 c 0.0479,7.13982 -0.27612,9.15303 -1.70312,10.58221 -1.68385,1.68641 -1.87476,1.64362 -4.29047,-0.96161 -1.39051,-1.49962 -3.32398,-2.72657 -4.2966,-2.72657 -0.97262,0 -2.64191,-0.66069 -3.70953,-1.4682 -1.78029,-1.34654 -1.46469,-1.47083 3.80887,-1.5 l 5.75,-0.0318 -0.0153,-5.25 c -0.0227,-7.7682 -0.66669,-8.36321 -7.41706,-6.85255 l -5.59512,1.25214 2.03133,2.58242 c 1.78046,2.26348 1.86218,2.84089 0.66168,4.6752 -1.96955,3.00941 -6.11457,4.75966 -10.42628,4.40251 l -3.73924,-0.30972 4.62779,-2.72053 c 3.1581,-1.85655 4.78601,-3.54823 5.12601,-5.32679 0.49549,-2.59201 0.47126,-2.60254 -4.43645,-1.92756 -3.95945,0.54456 -5.31832,0.33148 -6.87601,-1.0782 -3.07662,-2.78431 -2.36334,-3.77002 2.20003,-3.0403 2.51899,0.4028 7.59629,-0.003 12.96058,-1.03464 l 8.81921,-1.69686 -1.67619,-2.83756 c -0.95229,-1.6121 -2.55478,-2.84905 -3.71058,-2.86417 -1.77328,-0.0232 -1.68046,-0.24603 0.7232,-1.73622 2.71666,-1.68424 4.48006,-4.83286 3.3433,-5.96961 -0.31994,-0.31995 -2.62002,-0.89106 -5.11127,-1.26913 -4.16251,-0.63172 -4.62923,-0.48447 -5.75959,1.81714 -1.70198,3.46554 -6.44612,6.86834 -7.7533,5.56116 -0.69044,-0.69044 -0.20747,-1.9601 1.5015,-3.94728 2.74407,-3.19078 3.43756,-6.06001 1.14303,-4.72914 -0.7583,0.43983 -3.29626,2.5429 -5.63991,4.67349 l -4.26117,3.87379 -0.92916,12.62621 c -1.19173,16.19402 -1.75809,18.53975 -4.57439,18.94575 -1.21915,0.17575 -2.21663,-0.1681 -2.21663,-0.76413 z m 2.41601,-18.05542 0.66703,-8.5 -4.52095,5 c -2.48653,2.75 -4.53021,5.61024 -4.54152,6.3561 -0.0113,0.74585 1.41138,3.16408 3.16154,5.37384 3.86778,4.88346 4.2523,4.27882 5.2339,-8.22994 z m -10.05438,-2.5 c 1.07431,-2.79962 -1.3205,-5.99361 -2.75438,-3.67354 -0.68235,1.10407 0.42076,5.17354 1.40239,5.17354 0.42701,0 1.0354,-0.675 1.35199,-1.5 z m 23.64469,-2.17054 c 0.003,-0.45621 1.38932,-1.6166 3.07963,-2.57865 2.68299,-1.52704 2.98961,-2.13031 2.41423,-4.75 -0.4838,-2.2027 -0.2922,-3.00081 0.72036,-3.00081 3.70555,0 5.07322,5.54878 2.02946,8.23372 -1.99422,1.75912 -8.25324,3.35031 -8.24368,2.09574 z m -21.25632,-26.40956 c -2.56648,-1.49483 -2.17982,-3.9199 0.625,-3.9199 1.30625,0 3.78125,-0.28125 5.5,-0.625 2.46708,-0.49342 3.125,-1.13456 3.125,-3.04531 0,-2.22308 -0.28436,-2.36697 -3.48944,-1.76569 -4.30766,0.80812 -5.75661,-1.52965 -2.90266,-4.68323 1.75234,-1.93631 1.75766,-2.09669 0.10025,-3.02422 -2.54648,-1.42508 -1.11786,-2.85655 2.85087,-2.85655 2.39198,0 3.44098,-0.45728 3.44098,-1.5 0,-0.91273 -0.93084,-1.5 -2.37756,-1.5 -1.30765,0 -2.91569,-0.64841 -3.5734,-1.44092 -0.99604,-1.20015 -0.55701,-1.55018 2.62755,-2.09485 2.10288,-0.35967 5.22922,-1.13116 6.94743,-1.71442 5.78791,-1.96476 9.01019,1.42962 3.37598,3.55629 -3.92939,1.48318 -3.92939,3.48392 0,2.90721 4.12023,-0.60472 4.12023,2.31264 0,3.13669 -2.06102,0.4122 -3,1.19041 -3,2.48633 0,1.43168 0.55696,1.77986 2.31082,1.44459 1.39131,-0.26597 2.86846,0.23018 3.71225,1.24688 1.22052,1.47064 1.15572,1.86829 -0.50195,3.08041 -2.19451,1.60467 -4.93579,1.87176 -4.02112,0.39179 0.33992,-0.55 0.14148,-1 -0.44098,-1 -0.58246,0 -1.05902,0.9 -1.05902,2 0,1.53912 0.66667,2 2.89301,2 1.59116,0 3.13515,0.63101 3.4311,1.40223 0.70805,1.84516 -0.14769,2.59777 -2.95376,2.59777 -1.26297,0 -4.57963,0.9 -7.37035,2 -5.72473,2.25648 -6.77578,2.361 -9.25,0.9199 z m 9.25,-14.4199 c 0,-0.825 -0.3949,-1.5 -0.87756,-1.5 -0.48265,0 -1.43775,0.675 -2.12244,1.5 -1.04007,1.2532 -0.89568,1.5 0.87756,1.5 1.21995,0 2.12244,-0.63782 2.12244,-1.5 z m 15.07405,14.08923 c -2.0425,-2.46107 -2.4079,-8.51484 -1.04339,-17.28635 1.0596,-6.8114 1.07495,-8.90412 0.077,-10.50205 -1.59832,-2.55933 -0.58496,-3.57999 1.97014,-1.9843 1.60823,1.00436 2.84492,0.9495 6.48947,-0.28786 2.47643,-0.84077 5.25188,-1.52867 6.16766,-1.52867 1.1352,0 1.33945,-0.3256 0.64185,-1.0232 -0.6976,-0.6976 -2.65576,-0.64636 -6.15352,0.16102 -4.08667,0.94332 -5.44492,0.92313 -6.6768,-0.0992 -2.08936,-1.73401 -1.94863,-3.03857 0.32779,-3.03857 1.03085,0 3.77811,-0.67171 6.10502,-1.49269 7.79544,-2.75039 12.87948,0.79862 10.98305,7.66693 -1.18683,4.29831 -4.546,8.82576 -6.54834,8.82576 -1.2537,0 -1.2542,-0.44668 -0.004,-3.4391 l 1.43695,-3.4391 -5.42183,0.1891 c -4.43853,0.15481 -5.42213,0.50862 -5.42352,1.95092 -10e-4,1.49554 0.60284,1.66515 3.99829,1.12219 2.61633,-0.41837 4,-0.26167 4,0.453 0,1.59424 -3.89961,3.4225 -6.0825,2.85167 -1.47381,-0.38541 -2.09632,0.29477 -2.89219,3.1601 -1.07602,3.87398 -1.40002,12.15122 -0.47564,12.15122 0.30231,0 1.92621,-0.71184 3.60866,-1.58187 l 3.05899,-1.58187 -2.85865,-3.02954 -2.85866,-3.02954 3.14793,0.66845 c 2.73704,0.58119 3.68968,0.1531 7.2983,-3.2797 l 4.15036,-3.94814 1.58716,2.42231 c 1.87442,2.86073 1.95608,2.74547 -3.6244,5.11551 l -4.3775,1.85913 3.58547,2.11547 c 4.18668,2.47021 7.19927,6.61148 6.37402,8.76207 -0.91961,2.39645 -2.98943,1.77554 -6.64134,-1.99228 -1.86578,-1.925 -3.98334,-3.5 -4.70567,-3.5 -0.72234,0 -2.54656,1.78292 -4.05383,3.96205 -3.05848,4.42176 -3.49349,4.64297 -5.16645,2.62718 z m -21.73811,-31.492 c 3.90613,-4.04605 6.66406,-7.77071 6.66406,-9 0,-1.35289 0.63885,-2.09723 1.8,-2.09723 2.28429,0 4.2,1.89082 4.2,4.14543 0,0.95999 1.2375,2.33856 2.75,3.06348 2.76083,1.32323 3.78291,4.78012 1.62589,5.49913 -0.61826,0.20608 -2.48569,-0.771 -4.14985,-2.17129 l -3.02574,-2.546 -4.26779,3.56563 c -4.56454,3.81357 -9.07349,6.44362 -11.04691,6.44362 -0.66755,0 1.7851,-3.10625 5.45034,-6.90277 z"
           style="fill:#afafaf" />
        <path
           inkscape:connector-curvature="0"
           id="path3893"
           d="m 419.68799,490.04074 c 0.28018,-1.5125 3.80005,-24.87418 7.82194,-51.91485 l 7.31253,-49.16485 15.80307,-4.12947 15.80306,-4.12947 15.80306,4.12947 15.80307,4.12947 7.31253,49.16485 c 4.02189,27.04067 7.54176,50.40235 7.82193,51.91485 l 0.50941,2.75 -47.25,0 -47.25,0 0.5094,-2.75 z m 90.70941,0 c -0.24241,-5.82836 -14.97834,-98.63735 -15.73543,-99.10394 -0.57656,-0.35533 -7.16494,-2.21191 -14.64084,-4.12573 l -13.59254,-3.47967 -13.59254,3.47967 c -7.47591,1.91382 -14.07063,3.77432 -14.65496,4.13445 -0.81633,0.50313 -15.52943,92.82551 -15.71278,98.59522 -0.0312,0.98166 9.40576,1.25 43.96028,1.25 24.2,0 43.98596,-0.3375 43.96881,-0.75 z m -63.42473,-11.74216 c -4.6107,-6.10396 -5.01124,-6.39504 -6.69848,-4.86811 -0.987,0.89322 -2.04816,2.42312 -2.35814,3.39977 -0.69305,2.18362 -3.47613,3.37183 -4.79904,2.04892 -1.30214,-1.30214 0.7681,-6.22922 3.82341,-9.09953 2.26971,-2.13228 2.29554,-2.32498 0.74701,-5.57229 -3.10223,-6.50545 2.54326,-11.70066 6.36934,-5.86132 l 1.67428,2.55527 3.84877,-3.75822 c 5.61634,-5.48422 5.18475,-9.61506 -1.4331,-13.71623 -3.44939,-2.13764 -2.69075,-3.6361 1.84089,-3.6361 4.18236,0 7.44098,2.92847 7.44098,6.68709 l 0,2.68709 2.75,-2.5649 c 5.13966,-4.79373 9.90868,-6.1304 12.16638,-3.41003 0.97568,1.17562 1.94005,1.1938 6.0342,0.11379 6.28689,-1.65845 9.4147,-0.34307 9.85415,4.14413 0.23475,2.39691 -0.313,3.59747 -2.38486,5.2272 -1.47927,1.16359 -3.59461,2.11563 -4.70075,2.11563 -1.8423,0 -1.78899,-0.20591 0.63486,-2.45225 2.81582,-2.60962 3.45684,-5.36185 1.39602,-5.99388 -0.6875,-0.21085 -2.95812,-0.62178 -5.04583,-0.91318 -3.24428,-0.45284 -3.91779,-0.21095 -4.63523,1.66474 -0.93044,2.43255 -3.6868,5.07925 -6.22117,5.97367 -2.7862,0.98329 -2.9139,-0.41179 -0.31989,-3.49461 2.69001,-3.19689 3.40195,-6.43317 1.11845,-5.08418 -0.74452,0.43983 -3.38848,2.60709 -5.87546,4.81614 l -4.5218,4.01645 -0.69278,12.48355 c -0.73087,13.16983 -1.92825,18.98355 -3.90983,18.98355 -0.65914,0 -3.40521,-2.92147 -6.10238,-6.49216 z m 5.94625,-12.04497 0.62921,-8.96287 -4.14454,4.47413 c -6.24599,6.7427 -6.29657,7.01198 -2.2354,11.9011 4.41233,5.31186 4.90176,4.68102 5.75073,-7.41236 z m -9.95838,-3.56353 c 0.7741,-2.43898 -1.01156,-4.81973 -2.4992,-3.33209 -1.07722,1.07722 -0.26228,5.43275 1.01649,5.43275 0.44879,0 1.11601,-0.9453 1.48271,-2.10066 z m 42.84824,19.64903 c -0.30638,-0.7984 -2.20475,-1.97776 -4.21862,-2.6208 -6.03745,-1.92781 -5.99017,-2.92757 0.13843,-2.92757 l 5.7,0 -0.0153,-5.25 c -0.0211,-7.23372 -0.79059,-8.15736 -6.12413,-7.35094 -2.3983,0.36261 -5.03556,1.1044 -5.86056,1.64842 -1.30736,0.86208 -1.27525,1.12157 0.25,2.02051 2.29385,1.35192 2.23468,5.18341 -0.11285,7.30789 -1.02725,0.92965 -4.27932,1.92753 -7.25,2.22462 -5.80984,0.58103 -5.64447,-0.10534 0.89705,-3.72311 1.77643,-0.98244 3.1393,-2.69685 3.45445,-4.34548 0.5175,-2.70713 0.49479,-2.71902 -3.9258,-2.05611 -3.27189,0.49064 -5.08904,0.24564 -6.87959,-0.92757 -3.7176,-2.43587 -3.05451,-3.82898 1.45953,-3.06634 3.77588,0.63793 22.10721,-2.06281 22.10721,-3.25704 0,-0.31205 -0.73625,-1.38092 -1.63612,-2.37526 -1.46755,-1.62162 -1.4756,-1.86949 -0.0781,-2.40574 2.08292,-0.7993 5.71426,1.2341 5.71426,3.19974 0,1.16892 0.62775,1.41567 2.4427,0.96015 2.78966,-0.70016 7.18757,0.99038 7.98543,3.06956 0.70872,1.8469 -1.74544,2.71324 -5.53758,1.95481 l -3.04775,-0.60955 0.68556,6.40163 c 0.83604,7.8069 -0.7102,13.57981 -3.6373,13.57981 -1.07461,0 -2.2045,-0.65323 -2.51087,-1.45163 z m -16.57597,-23.07164 c 2.78755,-2.28334 3.20513,-3.15767 2.67054,-5.59164 -0.68264,-3.10806 1.0329,-3.97743 3.32524,-1.68509 3.30255,3.30255 0.19919,7.89547 -6.3,9.32392 l -3,0.65937 3.30422,-2.70656 z m 0.0682,-25.12875 c -1.55798,-1.87535 -1.74406,-10.43326 -0.43654,-20.07656 0.60281,-4.44589 0.50429,-6.63856 -0.34425,-7.66098 -1.58272,-1.90706 0.44872,-3.23678 2.43126,-1.59142 1.07658,0.89348 2.2276,0.915 4.60541,0.0861 1.74357,-0.60781 4.45297,-1.10511 6.02089,-1.10511 1.56793,0 2.85078,-0.46412 2.85078,-1.03138 0,-1.76708 -2.62368,-2.14704 -6.89101,-0.99797 -2.93014,0.78901 -4.67271,0.79802 -6.10481,0.0316 -2.90144,-1.5528 -2.4671,-2.70794 1.24582,-3.31332 1.7875,-0.29145 4.825,-0.94303 6.75,-1.44796 2.56239,-0.67211 4.26888,-0.53594 6.37015,0.50831 2.66749,1.32565 2.83413,1.74599 2.35997,5.95279 -0.54765,4.85867 -3.40349,9.59375 -6.10679,10.12526 -1.54425,0.30362 -1.5417,0.0694 0.0352,-3.23744 2.03171,-4.26053 1.56513,-5.0056 -2.23081,-3.56239 -1.56731,0.59589 -3.87972,0.82491 -5.13869,0.50893 -1.82255,-0.45744 -2.28903,-0.16065 -2.28903,1.45636 0,1.80928 0.43643,1.96108 4,1.39124 2.61633,-0.41837 4,-0.26167 4,0.453 0,1.56564 -3.70201,3.32889 -6.23394,2.96919 -1.57787,-0.22415 -2.34447,0.36366 -2.86105,2.1938 -0.96753,3.42778 -1.07577,12.77643 -0.15452,13.3458 0.41278,0.25511 2.09843,-0.61097 3.74589,-1.92461 l 2.99539,-2.38844 -2.24589,-1.57308 c -2.7636,-1.9357 -2.92574,-3.45022 -0.29574,-2.76246 1.95594,0.51149 7.35659,-2.55654 9.86169,-5.60227 1.18817,-1.4446 1.45171,-1.40642 2.79582,0.40506 1.34546,1.81331 1.28268,2.16335 -0.67262,3.75 -1.18613,0.9625 -2.98019,1.75 -3.9868,1.75 -3.29397,0 -3.0293,1.78677 0.59661,4.02771 4.29561,2.65484 6.72578,6.1035 5.87086,8.33138 -1.01621,2.64821 -3.10456,1.9108 -6.47847,-2.28758 -2.78567,-3.46639 -3.4271,-3.80543 -5.453,-2.88237 -1.26279,0.57537 -3.11567,2.56819 -4.11751,4.42849 -2.07021,3.84414 -2.57632,4.039 -4.49428,1.73035 z m -24.67245,-0.54798 c -1.70079,-1.70079 -1.48743,-2.69446 0.55,-2.56151 0.9625,0.0628 3.4375,-0.21055 5.5,-0.60746 3.17394,-0.6108 3.75,-1.11664 3.75,-3.29292 0,-2.25109 -0.33454,-2.50731 -2.68662,-2.05768 -5.10801,0.97645 -6.74951,-1.03604 -3.644,-4.46759 1.56316,-1.72728 1.55075,-1.93139 -0.19498,-3.2079 -1.70856,-1.24933 -1.51379,-1.42249 2.33062,-2.072 4.56384,-0.77105 5.98462,-3.53294 1.81742,-3.53294 -1.30765,0 -2.89394,-0.62221 -3.52509,-1.38269 -0.93935,-1.13186 -0.30298,-1.50935 3.50788,-2.08082 2.56047,-0.38397 5.73838,-1.19156 7.06203,-1.79465 1.93151,-0.88006 2.73444,-0.76871 4.06715,0.564 1.54737,1.54737 1.44263,1.73648 -1.53694,2.77517 -3.67252,1.28024 -4.28527,3.51689 -0.94747,3.45841 3.18857,-0.0559 3.74151,1.75518 0.75,2.45649 -1.54349,0.36184 -2.61835,1.40137 -2.80931,2.71698 -0.23673,1.63082 0.11529,2.02065 1.5,1.66112 2.34912,-0.60994 6.18129,2.13613 4.80931,3.44628 -1.57995,1.50873 -5.87809,2.60049 -5.06621,1.28684 0.37633,-0.60892 0.20769,-1.10713 -0.37477,-1.10713 -0.58246,0 -1.05902,1.04706 -1.05902,2.32681 0,2.01652 0.40006,2.26809 3,1.8865 2.52592,-0.37073 3,-0.10632 3,1.67319 0,1.55789 -0.62417,2.1135 -2.37427,2.1135 -1.30585,0 -4.28743,0.675 -6.62573,1.5 -5.13,1.80997 -9.1776,1.9224 -10.8,0.3 z m 9.8,-13.95499 c 0,-2.12942 -0.0267,-2.13251 -2.25,-0.26065 -1.2375,1.04188 -2.4375,2.01162 -2.66667,2.15498 -0.22916,0.14336 0.78334,0.26066 2.25,0.26066 2.06393,0 2.66667,-0.48708 2.66667,-2.15499 z m -6.75,-16.50085 c 4.52329,-4.45866 6.75,-7.42723 6.75,-8.99886 0,-1.28991 0.47958,-2.3453 1.06574,-2.3453 2.27488,0 4.93426,2.16097 4.93426,4.0095 0,1.14319 1.2314,2.57592 3,3.4905 1.65,0.85325 3,2.2148 3,3.02568 0,2.21608 -4.03482,1.79024 -6.69228,-0.70632 l -2.32119,-2.18064 -2.74326,2.57877 c -3.99503,3.75548 -10.2743,7.78269 -12.13282,7.78137 -0.96637,-6.8e-4 1.08914,-2.66215 5.13955,-6.6547 z"
           style="fill:#8f8f8f" />
        <path
           inkscape:connector-curvature="0"
           id="path3891"
           d="m 419.81739,490.04074 c 0.30124,-1.5125 3.76699,-24.575 7.70167,-51.25 3.93467,-26.675 7.43737,-48.81591 7.78377,-49.20203 0.3464,-0.38612 7.49141,-2.53009 15.87779,-4.76438 l 15.24797,-4.06234 15.24797,4.06234 c 8.38638,2.23429 15.53139,4.37826 15.87779,4.76438 0.3464,0.38612 3.8491,22.52703 7.78377,49.20203 3.93468,26.675 7.40042,49.7375 7.70167,51.25 l 0.54771,2.75 -47.15891,0 -47.15891,0 0.54771,-2.75 z m 90.34775,-2.5 c -0.28883,-1.7875 -3.57167,-23.95 -7.29521,-49.25 -3.72354,-25.3 -7.07363,-46.35502 -7.44463,-46.78893 -0.37101,-0.43391 -7.04705,-2.50352 -14.83564,-4.59913 l -14.16107,-3.81021 -14.16107,3.81021 c -7.78859,2.09561 -14.46255,4.16522 -14.83101,4.59913 -0.54309,0.63956 -15.07747,95.96949 -15.02363,98.53893 0.009,0.4125 19.87459,0.75 44.14655,0.75 l 44.13084,0 -0.52513,-3.25 z m -61.06751,-6.5 c -1.42821,-2.0625 -3.75294,-5.1 -5.16608,-6.75 -2.33216,-2.72307 -2.66347,-2.83793 -3.58905,-1.24426 -0.56084,0.96565 -2.0896,2.99065 -3.39725,4.5 -1.84948,2.13476 -2.64715,2.47899 -3.59146,1.54989 -1.56115,-1.53598 0.2147,-6.14898 3.58663,-9.31674 2.26971,-2.13228 2.29554,-2.32498 0.74701,-5.57229 -3.10223,-6.50545 2.54326,-11.70066 6.36934,-5.86132 l 1.67428,2.55527 3.84877,-3.75822 c 5.64674,-5.51389 5.1915,-9.60614 -1.53312,-13.78177 -2.24067,-1.39134 -2.57442,-1.98424 -1.5,-2.66472 4.34136,-2.74959 10.88189,0.72522 10.88189,5.78125 l 0,2.68709 2.75,-2.5649 c 5.44915,-5.08239 9.77105,-6.10098 12.60404,-2.97056 1.55943,1.72315 1.51988,2.05312 -0.62937,5.25 -1.26137,1.8762 -3.29043,3.55508 -4.50903,3.73083 -2.73446,0.39438 -2.77617,-0.2915 -0.21564,-3.54668 2.00041,-2.54311 2.66274,-5.31298 1.25,-5.22748 -0.4125,0.025 -3.03971,2.16247 -5.83823,4.75 l -5.08824,4.70461 -1.10875,14.03006 c -0.60982,7.71654 -1.40576,14.80404 -1.76876,15.75 -1.03947,2.70883 -2.96371,2.03264 -5.77698,-2.03006 z m 3.67925,-10 c 0.35062,-3.7125 0.62026,-8.325 0.59921,-10.25 l -0.0383,-3.5 -4.95461,5.44045 c -2.72504,2.99224 -4.95461,5.72374 -4.95461,6.07 0,0.98541 7.06369,8.98955 7.93332,8.98955 0.42761,0 1.06434,-3.0375 1.41497,-6.75 z m -9.52815,-9.0828 c 0.19159,-1.30233 -0.32766,-2.42472 -1.29313,-2.79521 -2.24301,-0.86072 -2.87901,0.0894 -2.11023,3.15248 0.76392,3.04367 2.93659,2.81559 3.40336,-0.35727 z m 42.48953,19.95706 c -0.64428,-1.03166 -2.76174,-2.17409 -4.70546,-2.53873 -5.76382,-1.0813 -5.277,-2.58553 0.83677,-2.58553 l 5.55902,0 0,-5.94098 c 0,-3.26754 -0.48195,-6.23885 -1.071,-6.6029 -1.34667,-0.83229 -8.9275,0.27155 -10.929,1.59136 -1.30736,0.86208 -1.27525,1.12157 0.25,2.02051 2.51129,1.48007 2.19742,5.59274 -0.56496,7.40273 -2.36997,1.55286 -11.68504,3.29512 -11.68504,2.18553 0,-0.33858 1.76947,-1.51832 3.93215,-2.62164 4.35202,-2.22023 4.52475,-2.41623 5.41286,-6.14205 l 0.62153,-2.60744 -4.42279,1.01208 c -3.65669,0.83677 -4.87183,0.71786 -7.01514,-0.68649 -3.48023,-2.28034 -2.2864,-3.75552 2.42903,-3.00149 3.19666,0.51116 19.71159,-1.94512 20.87057,-3.1041 0.18361,-0.1836 -0.18909,-1.31091 -0.82821,-2.50512 -0.63912,-1.19421 -0.90248,-2.43085 -0.58525,-2.74809 1.03319,-1.03319 5.58525,1.66134 5.58525,3.30611 0,1.23523 0.64312,1.45964 2.81561,0.98248 2.0301,-0.44589 3.56719,-0.0272 5.50953,1.50062 3.57465,2.81182 2.45753,4.33965 -2.58364,3.53353 l -4.00732,-0.64079 0.67928,6.00401 c 1.19087,10.52587 -2.51728,17.9293 -6.10379,12.18639 z m -15.88827,-23.24109 c 1.93315,-1.52062 2.60485,-2.85847 2.38486,-4.75 -0.42407,-3.64605 2.34855,-3.47777 3.64951,0.2215 0.86403,2.45686 0.67775,3.11879 -1.3367,4.75 -1.28735,1.04243 -3.47647,1.89533 -4.86471,1.89533 l -2.52408,0 2.69112,-2.11683 z m 11.94127,-6.18384 c 3.71933,-2.97625 3.30235,-6.08355 -0.87122,-6.49233 -1.6453,-0.16114 -3.66645,-0.54694 -4.49145,-0.85733 -2.16201,-0.81341 1.48937,-2.18909 6.05,-2.27938 4.23909,-0.0839 5.95,1.37023 5.95,5.05713 0,3.11938 -4.03899,6.87547 -7.38486,6.86761 -1.93712,-0.005 -1.8742,-0.19777 0.74753,-2.2957 z m -13.04539,-20.44933 c -1.37738,-3.26772 -1.42119,-4.92275 -0.34069,-12.86874 0.68199,-5.01531 0.9305,-10.52781 0.55224,-12.25 -0.70292,-3.20035 0.1878,-4.01463 2.19541,-2.00702 0.83231,0.83231 1.96164,0.83231 4.34922,0 1.77374,-0.61833 4.50784,-1.12424 6.07576,-1.12424 1.86736,0 2.85078,-0.51745 2.85078,-1.5 0,-1.75815 -2.06612,-1.88706 -7.23543,-0.45144 -2.62323,0.72852 -4.33526,0.71639 -5.75,-0.0408 -2.91202,-1.55847 -2.48139,-2.71359 1.23543,-3.3139 1.7875,-0.2887 5.09763,-0.83848 7.35584,-1.22174 5.39727,-0.916 8.39416,0.66949 8.39416,4.4409 0,3.50041 -2.33995,9.29425 -4.46639,11.05905 -2.2968,1.90617 -2.99432,0.55437 -1.53361,-2.97211 1.57676,-3.80665 0.93227,-4.52064 -2.88077,-3.19141 -1.64057,0.57191 -3.91354,0.79645 -5.05105,0.49899 -1.62903,-0.426 -2.06818,-0.0727 -2.06818,1.66369 0,2.01791 0.3386,2.14732 4,1.52873 2.6867,-0.45392 4,-0.30831 4,0.44349 0,1.3499 -2.30327,2.32239 -5.81962,2.45716 -3.08269,0.11815 -3.9339,2.38128 -4.0807,10.84935 -0.0926,5.3427 0.87921,7.21121 2.43844,4.68832 0.36089,-0.58393 1.84995,-1.5201 3.30902,-2.08038 l 2.65286,-1.0187 -2.75,-2.20719 c -3.18293,-2.55465 -3.66514,-4.19218 -0.77976,-2.64798 1.99601,1.06823 3.55704,0.17439 9.28189,-5.3148 1.84924,-1.77311 1.95139,-1.7732 3.24591,-0.003 1.73677,2.37517 0.58645,3.69207 -4.57614,5.23882 l -4.10185,1.22894 4.49384,2.84991 c 5.03523,3.19325 6.65511,5.41845 5.93872,8.15793 -0.75973,2.9052 -2.80868,2.20628 -6.24262,-2.12943 -3.06884,-3.87471 -3.23678,-3.94669 -5.94318,-2.54715 -1.53181,0.79212 -3.35308,2.81145 -4.04728,4.48739 -1.6618,4.01191 -2.78572,3.84392 -4.70225,-0.70288 z m -24.18672,1.40731 c -0.89533,-1.0788 -0.035,-1.58423 4.37755,-2.57171 4.8635,-1.0884 5.49189,-1.51507 5.49189,-3.72888 0,-1.97977 -0.4681,-2.46193 -2.25,-2.31759 -6.47948,0.52485 -7.67446,-1.43651 -3,-4.92404 2.60949,-1.9469 2.63805,-2.05335 0.55902,-2.08341 -3.89307,-0.0563 -3.39274,-1.76268 0.70916,-2.4186 4.04865,-0.6474 5.83224,-3.61308 2.17295,-3.61308 -0.99488,0 -2.68238,-0.66069 -3.75,-1.4682 -1.86123,-1.40776 -1.82937,-1.4695 0.77392,-1.5 1.49328,-0.0175 4.81445,-0.74456 7.38037,-1.61572 4.23573,-1.43806 4.80962,-1.43961 6.23242,-0.0168 1.42279,1.4228 1.27267,1.66974 -1.63037,2.68175 -3.67249,1.28023 -4.35867,3.89268 -0.94747,3.60725 3.16621,-0.26492 3.77206,1.59918 0.75,2.30765 -1.61908,0.37956 -2.61691,1.39735 -2.83178,2.88843 -0.26837,1.86228 0.0284,2.18804 1.55245,1.70431 2.20217,-0.69894 5.87825,1.63326 4.94769,3.13894 -1.05123,1.70093 -4.60837,2.27966 -3.9822,0.64788 0.37006,-0.96437 0.0366,-1.20632 -1.07482,-0.77982 -0.88624,0.34008 -1.61134,1.6674 -1.61134,2.9496 0,1.92218 0.48257,2.29824 2.75,2.14301 4.19987,-0.28752 3.55705,2.6327 -0.75,3.40712 -1.925,0.34613 -4.7668,1.14126 -6.3151,1.76697 -3.78854,1.53104 -8.19195,1.43655 -9.55434,-0.20504 z m 9.86944,-13.8123 c 0,-2.12942 -0.0267,-2.13251 -2.25,-0.26065 -1.2375,1.04188 -2.4375,2.01162 -2.66667,2.15498 -0.22916,0.14336 0.78334,0.26066 2.25,0.26066 2.06393,0 2.66667,-0.48708 2.66667,-2.15499 z m -6.75,-16.09985 c 4.96535,-4.78128 6.75,-7.1932 6.75,-9.12247 0,-1.44248 0.47958,-2.62269 1.06574,-2.62269 2.27054,0 4.93426,2.15937 4.93426,4 0,1.0613 1.0125,2.46283 2.25,3.11452 2.28524,1.20345 3.70697,2.77775 3.73469,4.13548 0.0313,1.53417 -4.05376,0.68093 -5.98469,-1.25 -2.41447,-2.41447 -3.34764,-2.49097 -5.07004,-0.41561 -1.91602,2.30867 -9.02983,7.02006 -11.92996,7.90108 -1.8364,0.55787 -0.70827,-0.96585 4.25,-5.74031 z"
           style="fill:#707070" />
        <path
           inkscape:connector-curvature="0"
           id="path3889"
           d="m 420.05722,489.54074 c 0.27659,-1.7875 3.75755,-25.075 7.73546,-51.75 l 7.23258,-48.5 15.70166,-4.18376 15.70167,-4.18375 15.70167,4.18375 15.70166,4.18376 7.23258,48.5 c 3.97791,26.675 7.45887,49.9625 7.73546,51.75 l 0.50289,3.25 -46.87426,0 -46.87426,0 0.50289,-3.25 z m 90.38841,0.5 c 0.0679,-2.98947 -14.44841,-97.93925 -15.07941,-98.63278 -0.44175,-0.48552 -7.13343,-2.586 -14.87041,-4.66773 l -14.06722,-3.78496 -14.06722,3.78496 c -7.73698,2.08173 -14.43113,4.18221 -14.87589,4.66773 -0.69477,0.75845 -15.12242,94.68149 -15.07431,98.13278 0.0137,0.9808 9.49338,1.25 44.01742,1.25 24.2,0 44.00767,-0.3375 44.01704,-0.75 z m -60.47939,-8 c -1.71771,-3.1206 -8.38638,-10.80037 -8.82813,-10.16664 -4.6559,6.67935 -5.97824,7.93851 -7.23843,6.89264 -1.67698,-1.39176 -1.01733,-3.42883 2.63302,-8.13098 2.70027,-3.47832 2.76517,-3.79977 1.34289,-6.6508 -3.0374,-6.08861 2.54793,-11.18397 6.18118,-5.63894 l 1.67428,2.55527 3.84877,-3.75822 c 5.67083,-5.53742 5.19703,-9.59911 -1.61381,-13.83464 -2.73952,-1.70366 -2.81482,-1.90016 -1,-2.60975 5.21471,-2.03895 10.46258,0.8572 10.46258,5.77402 0,2.2333 0.14202,2.19642 4.5766,-1.18857 4.9359,-3.76765 8.41742,-4.41045 10.47298,-1.93364 1.80752,2.17792 0.13721,6.47807 -3.25608,8.38268 -3.58563,2.01256 -4.51202,0.78647 -1.9075,-2.52463 2.09643,-2.66518 2.80593,-5.45968 1.364,-5.37241 -0.4125,0.025 -3.03967,2.16247 -5.83817,4.75 l -5.08816,4.70461 -1.27145,14.5 c -1.49991,17.10546 -3.062,20.52238 -6.51457,14.25 z m 2.81064,-10 c 0.35062,-3.7125 0.64069,-8.69893 0.6446,-11.08097 l 0.007,-4.33096 -4.99051,5.83096 c -2.74479,3.20704 -4.88229,6.16639 -4.75,6.57635 0.40666,1.26031 7.20243,9.67653 7.8459,9.71676 0.33297,0.0208 0.89227,-2.99964 1.2429,-6.71214 z m -9.51571,-9.63091 c 0.18291,-0.94334 -0.22552,-2.38762 -0.90762,-3.20951 -1.75559,-2.11535 -3.33431,-0.17669 -2.51486,3.08824 0.71476,2.84786 2.87892,2.92454 3.42248,0.12127 z m 42.51915,19.57251 c -0.62115,-0.99462 -3.0919,-2.45712 -5.49055,-3.25 l -4.36118,-1.4416 5.79639,-0.30129 5.79638,-0.30129 -0.29638,-6.19871 c -0.2737,-5.72405 -0.48446,-6.22525 -2.75244,-6.54526 -2.89663,-0.40872 -10.04395,1.55833 -10.04395,2.76425 0,0.46057 0.675,1.39761 1.5,2.0823 3.89304,3.23094 0.27749,7.36417 -7.25,8.28806 -5.21795,0.64043 -5.38209,-0.16983 -0.56479,-2.78806 3.1957,-1.73689 6.40533,-6.74279 5.13669,-8.01144 -0.21254,-0.21254 -2.28114,0.0945 -4.59688,0.68229 -3.51184,0.8914 -4.64084,0.78671 -6.80449,-0.63097 -3.38539,-2.21819 -2.47775,-2.94554 3.34415,-2.67989 4.15896,0.18977 18.96099,-2.25233 20.00999,-3.30133 0.21305,-0.21305 -0.11492,-1.32591 -0.72883,-2.47301 -0.99991,-1.86835 -0.84231,-2.08565 1.5126,-2.08565 1.82818,0 2.79578,0.63854 3.17708,2.09662 0.44064,1.68504 1.09321,1.98763 3.3242,1.54144 1.91498,-0.383 3.57972,0.0771 5.36763,1.48345 3.43956,2.70556 2.33511,4.1831 -2.51439,3.36378 l -3.88179,-0.65582 0.14974,7.83527 c 0.0824,4.30939 -0.17999,8.84776 -0.58298,10.08526 -0.88137,2.70651 -3.68439,2.94246 -5.2462,0.4416 z m -15.98659,-23.26418 c 1.77445,-1.39578 2.63486,-3.02853 2.63486,-5 0,-1.61008 0.43417,-2.92742 0.96482,-2.92742 1.05175,0 3.03518,3.22444 3.03518,4.93426 0,2.01103 -4.00091,5.06574 -6.63486,5.06574 l -2.63486,0 2.63486,-2.07258 z m 10.63486,-4.61949 c 0,-0.45476 0.92847,-1.40667 2.06326,-2.11537 1.29389,-0.80804 1.94645,-2.10964 1.75,-3.49054 -0.2494,-1.75309 -1.07777,-2.26529 -4.06326,-2.51238 -2.0625,-0.17071 -3.75,-0.71281 -3.75,-1.20469 0,-1.49418 6.9727,-2.31842 9.57653,-1.13204 2.9462,1.34238 3.32449,6.04591 0.67347,8.37382 -2.11315,1.8556 -6.25,3.23314 -6.25,2.0812 z m -11.19204,-20.55793 c -0.79921,-1.42443 -1.12819,-4.81844 -0.8966,-9.25 0.20119,-3.85 0.41594,-9.98061 0.47722,-13.62357 0.0786,-4.67138 0.46183,-6.48885 1.30031,-6.16646 0.65389,0.25141 1.48036,1.78413 1.83659,3.40605 0.56954,2.59308 1.02944,2.91485 3.81111,2.66646 1.73987,-0.15536 3.38841,0.16752 3.66341,0.71752 0.28271,0.56542 -1.29714,1.1312 -3.63538,1.3019 -3.72512,0.27194 -4.19635,0.60677 -4.75,3.375 -1.58653,7.93265 -0.3132,16.38048 1.9235,12.76142 0.36089,-0.58393 1.80295,-1.4977 3.20459,-2.0306 l 2.54843,-0.96891 -2.39557,-2.59362 c -2.18446,-2.36505 -2.21844,-2.53938 -0.38553,-1.97817 1.454,0.44519 3.17877,-0.45289 6.23489,-3.24646 3.44009,-3.14455 4.43419,-3.60966 5.35184,-2.50396 1.79574,2.16373 0.43437,3.90769 -4.11423,5.27049 l -4.22566,1.26603 4.87156,3.18007 c 3.94873,2.57766 4.93092,3.79447 5.18492,6.42344 0.43401,4.4922 -1.51642,4.20072 -5.88699,-0.87976 -3.56071,-4.13907 -3.58315,-4.14786 -6.20365,-2.43084 -1.44651,0.94778 -3.21072,3.03516 -3.92048,4.63861 -1.55115,3.50429 -2.32876,3.63382 -3.99428,0.66536 z m -24.80796,-0.25 c -1.03109,-1.24239 -0.92332,-1.50096 0.62756,-1.50558 1.02984,-0.003 3.55994,-0.47422 5.62244,-1.047 3.03114,-0.84179 3.75,-1.51166 3.75,-3.49442 0,-2.19517 -0.42044,-2.453 -4,-2.453 -4.82194,0 -5.29894,-1.86407 -1.25,-4.88491 2.65971,-1.98436 2.67612,-2.05277 0.5,-2.08341 -3.50091,-0.0493 -2.64647,-1.73472 1.25,-2.4657 3.64204,-0.68325 5.00915,-3.56598 1.69113,-3.56598 -0.99488,0 -2.68238,-0.66069 -3.75,-1.4682 -1.83488,-1.38783 -1.76147,-1.46993 1.34099,-1.5 1.80516,-0.0175 4.93137,-0.7209 6.94713,-1.56314 2.01576,-0.84224 4.25131,-1.30636 4.96788,-1.03139 2.04676,0.78542 1.53074,3.56273 -0.66195,3.56273 -1.08065,0 -2.44871,0.90416 -3.04013,2.00925 -0.96751,1.8078 -0.79558,1.98326 1.71482,1.75 3.49702,-0.32493 4.69304,1.61405 1.29013,2.09157 -2.61674,0.36719 -3.95887,1.71704 -3.98469,4.00759 -0.0106,0.94057 0.73142,1.17099 2.41236,0.7491 2.56864,-0.64469 6.07073,1.77704 5.0225,3.47311 -0.80806,1.30748 -3.21027,1.13909 -3.67585,-0.25767 -0.64638,-1.93914 -2.77432,0.11211 -2.77432,2.67433 0,1.97452 0.4678,2.34722 2.75,2.19098 4.65191,-0.31846 3.41277,2.64325 -1.45346,3.47397 -2.31191,0.39468 -5.09482,1.19463 -6.18426,1.77768 -2.86463,1.5331 -7.66725,1.30125 -9.11228,-0.43991 z m 9.8384,-12.06241 c 0.18612,-0.15458 0.18612,-0.99016 0,-1.85684 -0.27836,-1.29622 -0.87063,-1.13053 -3.3384,0.93398 l -3,2.50976 3,-0.65292 c 1.65,-0.35911 3.15228,-0.7794 3.3384,-0.93398 z m 27.61035,-9.68759 c 0.3751,-1.2375 0.92278,-3.00965 1.21707,-3.93811 0.47171,-1.4882 -0.15776,-1.63034 -5.31537,-1.20022 l -5.85045,0.48789 3.36481,-1.54978 c 1.85064,-0.85238 4.66314,-1.54978 6.25,-1.54978 1.9477,0 2.88519,-0.50707 2.88519,-1.56055 0,-1.32786 -1.02125,-1.45992 -6.84913,-0.88566 -5.62213,0.55399 -6.95316,0.40382 -7.42978,-0.83824 -0.42364,-1.10397 0.27918,-1.65286 2.59913,-2.02985 1.74888,-0.28419 5.10238,-0.84034 7.45222,-1.23588 7.01963,-1.18161 10.0366,3.21596 7.0342,10.25313 -2.33743,5.47856 -6.81756,8.8626 -5.35789,4.04705 z m -34.19423,-7.97643 c 4.96325,-4.79515 6.74548,-7.21144 6.74548,-9.1453 0,-1.61117 0.55284,-2.62827 1.42857,-2.62827 2.08432,0 4.77455,3.0283 4.1458,4.66679 -0.30305,0.78973 0.22103,1.67882 1.19249,2.02306 2.20738,0.7822 5.23314,3.3639 5.23314,4.46514 0,1.82003 -4.12936,0.71144 -6.19374,-1.6628 l -2.18052,-2.50781 -2.56287,2.35173 c -4.18862,3.84354 -9.39365,7.38013 -12.05835,8.19312 -1.83134,0.55874 -0.70028,-0.97302 4.25,-5.75566 z"
           style="fill:#4f4f4f" />
        <path
           inkscape:connector-curvature="0"
           id="path3887"
           d="m 419.91507,490.54074 c 0.28852,-1.2375 3.67686,-23.625 7.52965,-49.75 3.85278,-26.125 7.20811,-48.40986 7.45627,-49.52191 0.37626,-1.68603 3.03241,-2.70792 15.9894,-6.1515 l 15.5382,-4.12958 15.53819,4.12958 c 12.957,3.44358 15.61315,4.46547 15.98941,6.1515 0.24816,1.11205 3.60349,23.39691 7.45627,49.52191 3.85279,26.125 7.24113,48.5125 7.52965,49.75 l 0.52458,2.25 -47.0381,0 -47.0381,0 0.52458,-2.25 z m 90.52535,-1 c 0.0153,-1.61452 -14.23062,-98.15316 -14.54273,-98.5501 -0.12978,-0.16505 -6.81342,-2.07094 -14.85253,-4.23532 l -14.61657,-3.93522 -14.61657,3.93522 c -8.03911,2.16438 -14.72219,4.07027 -14.85127,4.23532 -0.36822,0.47081 -14.5468,96.08985 -14.53906,98.0501 0.006,1.64005 2.77143,1.75 44.0069,1.75 34.52702,0 44.00255,-0.26912 44.01183,-1.25 z m -60.89798,-8 c -1.14603,-1.7875 -3.41399,-4.96788 -5.03991,-7.0675 l -2.95622,-3.81751 -2.69175,4.06751 c -1.48046,2.23712 -3.30694,4.0675 -4.05886,4.0675 -2.36753,0 -1.48943,-4.05775 1.76817,-8.17081 2.33927,-2.95356 2.84705,-4.24686 2,-5.09391 -1.22592,-1.22591 -1.50916,-5.59739 -0.52829,-8.15349 0.93568,-2.43835 4.29793,-1.88458 5.57496,0.91821 0.6265,1.375 1.42315,2.5 1.77036,2.5 0.3472,0 2.44833,-1.9125 4.66917,-4.25 3.40595,-3.58486 3.94607,-4.71699 3.45117,-7.23394 -0.37191,-1.89145 -1.75996,-3.72208 -3.79117,-5 -3.91176,-2.46107 -4.05039,-3.28497 -0.69443,-4.12727 3.35051,-0.84092 7.79848,2.35366 8.22422,5.90673 l 0.31127,2.59773 4.58398,-3.49903 c 4.92759,-3.76131 8.7754,-4.19838 10.64644,-1.20932 1.35758,2.16879 -0.90913,6.65575 -4.09583,8.10771 -3.22715,1.47039 -3.9758,0.10128 -1.42774,-2.611 1.99581,-2.12445 2.9813,-5.68161 1.57406,-5.68161 -0.3281,0 -2.64146,1.8 -5.14079,4 -2.49933,2.2 -4.86593,4 -5.25911,4 -0.6738,0 -1.03682,3.11906 -2.6187,22.5 -0.90045,11.0322 -2.59215,12.988 -6.271,7.25 z m 3.39038,-11 c 0.37608,-4.5375 0.52897,-9.48494 0.33977,-10.99432 -0.3361,-2.68132 -0.44729,-2.61775 -4.844,2.76961 -2.475,3.03267 -4.437,6.18309 -4.36001,7.00094 0.14297,1.51862 6.32404,9.23576 7.52024,9.38912 0.36313,0.0466 0.96793,-3.62785 1.344,-8.16535 z m -9.65515,-7.06815 c 0.80808,-0.97368 0.67917,-1.91035 -0.49329,-3.58427 -1.9881,-2.83841 -3.88611,-1.34666 -2.96352,2.3292 0.71565,2.85137 1.80404,3.24654 3.45681,1.25507 z m 42.43915,18.40808 c -0.65607,-1.05054 -2.55915,-2.21016 -4.22907,-2.57694 -4.85688,-1.06674 -5.07157,-2.91212 -0.26378,-2.26726 6.29284,0.84405 7.55327,-0.6071 6.6697,-7.67896 l -0.72711,-5.81953 -5.51143,0.56883 c -6.72489,0.69407 -8.24935,1.89626 -5.81526,4.5859 3.53259,3.90347 -0.21912,8.05253 -7.30916,8.08329 l -3.39789,0.0147 3.32079,-2.25 c 3.07698,-2.08481 5.88657,-7.17175 4.64615,-8.41216 -0.29544,-0.29545 -2.11476,-0.0165 -4.04294,0.61984 -2.95782,0.97617 -4.02331,0.87452 -6.817,-0.65034 l -3.31123,-1.80734 5,-0.23427 c 6.42574,-0.30106 18.92022,-2.28937 20.49245,-3.26106 0.92324,-0.5706 0.94135,-1.25984 0.0756,-2.8775 -1.02692,-1.91881 -0.88094,-2.12717 1.49038,-2.12717 1.78779,0 2.79612,0.63984 3.15181,2 0.4036,1.54335 1.36402,2 4.20638,2 3.82769,0 6.08337,1.40453 6.08337,3.7879 0,1.06518 -0.93009,1.23076 -4,0.7121 l -4,-0.6758 0,8.15364 c 0,8.22015 -1.04193,12.02216 -3.29464,12.02216 -0.67335,0 -1.76105,-0.85953 -2.41713,-1.91007 z m -15.92309,-23.16251 c 1.77445,-1.39578 2.63486,-3.02853 2.63486,-5 0,-3.3966 1.44996,-3.8237 3.02021,-0.88965 1.49176,2.78738 0.31314,5.88499 -2.67088,7.01951 -4.42071,1.68076 -5.86306,1.13466 -2.98419,-1.12986 z m 13.49806,-7.48064 c 2.58519,-3.28654 1.42446,-5.44678 -2.92663,-5.44678 -4.27542,0 -4.48532,-1.80643 -0.30112,-2.59139 3.86166,-0.72445 6.00778,0.0783 7.79772,2.91685 1.4781,2.344 -1.26304,7.06888 -4.35851,7.51269 l -2.35849,0.33815 2.14703,-2.72952 z M 469.35814,433.6591 c -1.34809,-2.51892 -1.33448,-11.02202 0.0308,-19.24389 0.64585,-3.88941 0.63655,-6.50915 -0.0275,-7.75 -0.7783,-1.45426 -0.65904,-1.87447 0.532,-1.87447 1.41292,0 1.94267,1.42749 1.7911,4.82636 -0.0413,0.9267 1.04118,1.22802 3.59246,1 2.00839,-0.1795 3.87662,0.12364 4.15162,0.67364 0.28266,0.56531 -1.29528,1.13112 -3.63005,1.30164 l -4.13006,0.30163 -1.15653,5.87852 c -0.97638,4.96285 -0.71924,11.01821 0.46789,11.01821 0.18393,0 1.95875,-0.95837 3.94404,-2.12972 l 3.6096,-2.12972 -2.30244,-2.49449 c -2.1433,-2.32207 -2.16351,-2.45195 -0.29241,-1.87905 1.45275,0.4448 3.17335,-0.44793 6.20587,-3.21993 2.91545,-2.66498 4.51444,-3.51674 5.23996,-2.79122 1.96418,1.96418 1.04216,3.27481 -3.68083,5.23221 l -4.72496,1.95821 4.71503,2.76319 c 4.91373,2.87963 7.02305,6.80236 4.83455,8.99086 -0.87187,0.87187 -2.0885,0.0687 -4.97773,-3.28589 -3.78027,-4.38922 -3.85282,-4.42079 -6.36919,-2.77201 -1.39995,0.91729 -3.15188,3.03799 -3.89317,4.71268 -1.59408,3.60127 -2.39218,3.78673 -3.93002,0.91324 z m -24.92955,-0.36836 c -1.04401,-1.25796 -0.88079,-1.5 1.01154,-1.5 1.24103,0 4.01726,-0.52756 6.1694,-1.17236 3.10464,-0.93017 3.85164,-1.60156 3.61602,-3.25 -0.22502,-1.57432 -1.14485,-2.15547 -3.79696,-2.39894 -5.21601,-0.47882 -5.94054,-1.8441 -2.47947,-4.6722 2.83453,-2.31614 2.87001,-2.43632 0.72947,-2.47054 -2.93967,-0.047 -2.93967,-2.03127 0,-2.05127 2.72065,-0.0185 4.19528,-0.93947 4.99812,-3.12151 0.45183,-1.22802 0.13699,-1.51514 -1.26064,-1.14965 -1.02459,0.26793 -2.89104,-0.233 -4.14769,-1.11319 -2.25887,-1.58217 -2.23971,-1.60041 1.6877,-1.6065 2.18488,-0.003 5.29292,-0.69472 6.90676,-1.53629 2.96771,-1.54757 5.56575,-1.33449 5.56575,0.4565 0,0.53725 -1.20427,1.56387 -2.67616,2.28138 -3.98937,1.94473 -4.34928,4.1887 -0.53753,3.35151 4.18242,-0.91862 5.11754,1.1628 0.99933,2.22434 -2.28048,0.58784 -3.3834,1.51718 -3.60519,3.03783 -0.26839,1.84012 0.16244,2.19089 2.69098,2.19089 3.39503,0 4.93085,1.59772 3.1998,3.32877 -0.87268,0.87268 -1.34695,0.84314 -1.94282,-0.121 -1.34229,-2.17188 -3.88493,-0.38494 -3.35995,2.36133 0.37729,1.97366 0.99949,2.41495 3.10175,2.19991 4.47144,-0.45739 3.24074,2.56957 -1.37021,3.3701 -2.2,0.38196 -5.2668,1.18191 -6.8151,1.77768 -3.92191,1.5091 -7.21783,1.35093 -8.6849,-0.41679 z m 8.4349,-11.47525 c 1.4108,-0.53639 2.5651,-1.66139 2.5651,-2.5 0,-2.12074 -1.02255,-1.90618 -4.5,0.94425 -3.14991,2.58195 -2.38399,3.19779 1.9349,1.55575 z m 28.91773,-9.50132 c 0.36075,-0.94008 0.93347,-2.81515 1.27272,-4.16684 0.60953,-2.42855 0.55332,-2.45104 -4.75427,-1.90254 -5.26167,0.54376 -5.30997,0.52533 -2.37108,-0.90439 1.65,-0.8027 4.2375,-1.47975 5.75,-1.50456 1.80593,-0.0296 2.75,-0.58083 2.75,-1.60565 0,-1.33114 -1.02906,-1.45915 -7,-0.87079 -4.51836,0.44523 -7,0.33024 -7,-0.32434 0,-1.19707 8.81865,-4.24432 12.28291,-4.24432 2.70021,0 5.71709,2.80127 5.71709,5.3085 0,3.09623 -3.23548,9.74716 -5.27188,10.83701 -1.72802,0.92481 -1.93343,0.83191 -1.37549,-0.62208 z m -33.81142,-8.65084 c 2.98181,-2.82008 5.97028,-6.64508 6.64102,-8.5 0.67075,-1.85493 1.547,-3.37259 1.94723,-3.37259 1.51151,0 3.9635,3.31537 3.44715,4.66095 -0.32478,0.84637 0.36306,1.74581 1.73359,2.26689 1.2496,0.47509 2.86668,1.58036 3.59352,2.45615 1.1145,1.34289 1.05528,1.69451 -0.37802,2.24452 -1.10747,0.42498 -2.60096,-0.24922 -4.28701,-1.93528 l -2.58746,-2.58746 -4.57562,3.80087 c -9.16696,7.6148 -13.3335,8.34201 -5.5344,0.96594 z"
           style="fill:#2f2f2f" />
        <path
           inkscape:connector-curvature="0"
           id="path3885"
           d="m 420.42859,490.31945 c 0,-1.56769 13.6894,-94.28496 14.55208,-98.56014 0.47501,-2.35396 1.59528,-2.80914 15.97937,-6.49273 l 15.46855,-3.9613 15.46855,3.9613 c 14.38409,3.68359 15.50436,4.13878 15.97936,6.49273 0.86269,4.27519 14.55209,96.99245 14.55209,98.56014 0,1.27373 -6.17674,1.47129 -46,1.47129 -39.82326,0 -46,-0.19756 -46,-1.47129 z m 90,-1.48184 c 0,-1.93825 -13.78336,-95.71109 -14.32509,-97.45843 -0.15544,-0.50136 -6.78338,-2.64499 -14.72876,-4.76362 l -14.44615,-3.85207 -14.5,3.67449 c -7.975,2.02097 -14.79638,3.9396 -15.15862,4.26362 -0.36225,0.32403 -3.85953,22.18914 -7.77175,48.58914 -3.91222,26.4 -7.28621,48.7875 -7.49776,49.75 -0.36181,1.64617 2.2501,1.75 44.02175,1.75 43.38447,0 44.40638,-0.045 44.40638,-1.95313 z m -59,-4.86892 c 0,-0.5438 -1.4625,-2.74149 -3.25,-4.88375 -1.7875,-2.14227 -3.96826,-4.97983 -4.84613,-6.30569 l -1.59613,-2.41066 -2.78675,4.21107 c -1.53272,2.3161 -3.40196,4.21108 -4.15388,4.21108 -2.30525,0 -1.52514,-3.52614 1.66946,-7.54601 1.92961,-2.42811 2.78541,-4.39207 2.34761,-5.38751 -1.49057,-3.38916 -1.53786,-7.69405 -0.0976,-8.88933 1.84203,-1.52874 4.45236,-0.57517 5.24278,1.91523 0.8283,2.60974 1.32255,2.46111 6.41309,-1.92858 4.24703,-3.66232 4.39938,-3.98106 3.46402,-7.2473 -0.60252,-2.10398 -2.19833,-4.18484 -4.15389,-5.4165 -3.78584,-2.3844 -3.97574,-3.07762 -1.0525,-3.84206 3.24494,-0.84857 7.11622,1.42835 8.23656,4.84438 1.36698,4.16806 1.27485,4.14043 4.32383,1.29696 5.64081,-5.26059 10.42773,-5.93251 11.78559,-1.65428 0.70248,2.21333 -3.7743,7.855 -6.23311,7.855 -1.87689,0 -1.64517,-0.81642 1.18709,-4.18237 5.24364,-6.23171 1.63168,-6.6202 -5.2775,-0.56763 l -4.85149,4.25 -1.22721,13.5 c -0.67497,7.425 -1.54595,14.58823 -1.93551,15.91829 -0.70185,2.3963 -3.20829,4.16163 -3.20829,2.25966 z m 1.49932,-12.42795 c 0.36848,-3.9875 0.51937,-9.01327 0.33532,-11.16838 l -0.33464,-3.91838 -4.75,5.78326 c -2.6125,3.18079 -4.75,6.10772 -4.75,6.50427 0,1.10622 7.16248,10.04923 8.04845,10.04923 0.4295,0 1.08239,-3.2625 1.45087,-7.25 z m -9.64922,-7.88158 c 1.16237,-1.86125 1.07099,-2.39177 -0.72051,-4.18327 -1.85959,-1.8596 -2.11226,-1.89388 -2.69849,-0.36619 -0.73481,1.91489 0.2264,6.68104 1.3474,6.68104 0.40723,0 1.33944,-0.95921 2.0716,-2.13158 z m 42.36292,18.10108 c -0.69744,-1.11678 -2.61505,-2.29991 -4.26135,-2.62917 -4.89732,-0.97946 -4.89106,-2.74616 0.007,-1.96294 6.59845,1.05514 8.17429,-1.46282 6.41637,-10.25239 -0.55755,-2.78754 -1.00396,-3.125 -4.13402,-3.125 -1.92994,0 -5.36119,0.48213 -7.625,1.0714 -2.26381,0.58926 -5.62111,1.46021 -7.46065,1.93544 -3.35091,0.86567 -8.15537,-0.41116 -8.15537,-2.16736 0,-0.46171 2.6448,-0.83948 5.87733,-0.83948 3.23254,0 9.09975,-0.72771 13.03826,-1.61714 l 7.16092,-1.61714 -1.56131,-2.38286 c -1.46679,-2.23861 -1.43935,-2.38286 0.45327,-2.38286 1.10802,0 2.57664,0.9 3.2636,2 0.80816,1.29407 2.33203,2 4.31735,2 3.51314,0 7.07066,2.18768 6.10316,3.75311 -0.36826,0.59587 -2.29312,0.83653 -4.41472,0.55197 l -3.76175,-0.50456 0.3623,7.97797 c 0.48437,10.66604 -2.24303,15.60702 -5.62539,10.19101 z m -17.05977,-7.13374 c 2.5459,-1.47621 3.83905,-3.04726 4.26621,-5.18304 l 0.61295,-3.06476 2.08848,2.08849 c 3.87243,3.87243 -0.13155,8.35284 -7.41794,8.30058 l -3.20295,-0.023 3.65325,-2.1183 z m 1.53513,-15.608 c 1.3346,-1.05368 2.30996,-3.09326 2.5,-5.22776 l 0.31162,-3.5 1.94995,2.87964 1.94995,2.87963 -2.75571,2.37036 c -1.51565,1.30371 -3.51812,2.36036 -4.44995,2.34813 -1.40723,-0.0185 -1.32352,-0.31492 0.49414,-1.75 z m 13.39945,-8.13269 c 2.54508,-3.4424 1.86786,-5.09507 -2.08783,-5.09507 -3.27847,0 -4.77704,-1.48784 -2.41247,-2.39521 4.44656,-1.70631 9.41247,0.78599 9.41247,4.72395 0,2.09232 -3.48975,5.67126 -5.52994,5.67126 -1.23147,0 -1.11096,-0.5667 0.61777,-2.90493 z m -38.42116,-16.76174 c -1.21239,-1.21238 -0.69323,-2.33324 1.08333,-2.33891 0.9625,-0.003 3.4375,-0.47422 5.5,-1.047 3.03114,-0.84179 3.75,-1.51166 3.75,-3.49442 0,-2.18904 -0.42407,-2.453 -3.94098,-2.453 -5.05124,0 -5.67144,-1.11392 -2.28535,-4.10464 2.50111,-2.20907 2.56443,-2.22038 0.81419,-0.14536 -1.42911,1.6943 -1.55083,2.24663 -0.49285,2.23635 5.98989,-0.0582 8.62744,-4.60459 2.76798,-4.77118 -4.939,-0.14043 -5.5498,-1.84973 -0.92523,-2.58923 3.22151,-0.51514 4.06224,-1.075 4.06224,-2.70514 0,-1.52541 -0.46489,-1.90803 -1.80246,-1.4835 -0.99135,0.31464 -2.67885,-0.0907 -3.75,-0.90081 -1.8438,-1.39443 -1.77271,-1.47458 1.33458,-1.50469 1.80516,-0.0175 4.78186,-0.65843 6.61489,-1.42432 1.98894,-0.83103 3.8879,-1.04943 4.70952,-0.54164 1.64627,1.01745 0.34771,2.56797 -2.59505,3.09858 -1.09368,0.1972 -2.15177,1.20625 -2.3513,2.24232 -0.31139,1.61695 0.0765,1.79592 2.73852,1.26352 1.81437,-0.36287 3.1013,-0.2053 3.1013,0.37974 0,0.55 -1.35,1.27 -3,1.6 -2.29511,0.45902 -3,1.14315 -3,2.91164 0,1.87706 0.61099,2.37055 3.25,2.625 3.31521,0.31965 4.54927,2.7136 1.8608,3.60976 -0.89091,0.29697 -1.12011,0.0277 -0.63901,-0.75076 0.52397,-0.8478 0.0382,-1.11308 -1.6108,-0.87974 -1.76263,0.24943 -2.36099,0.96769 -2.36099,2.8341 0,2.09442 0.4725,2.5 2.91248,2.5 1.60187,0 3.10187,0.5625 3.33334,1.25 0.23146,0.6875 -0.3029,1.25 -1.18747,1.25 -0.88457,0 -4.16898,0.9 -7.29867,2 -5.8468,2.05498 -9.42143,2.50492 -10.59301,1.33333 z m 24.36851,-1.26759 c -1.3568,-2.53521 -1.32039,-11.6374 0.0725,-18.1324 0.79943,-3.72758 0.80539,-5.82864 0.0214,-7.54922 -0.70835,-1.55468 -0.73491,-2.38412 -0.0763,-2.38412 1.07227,0 1.93149,1.68731 2.36568,4.64569 0.21595,1.47132 1.07324,1.75361 4.67298,1.53874 3.26032,-0.19461 4.01784,0.004 2.90852,0.7609 -0.825,0.56322 -2.9306,1.03094 -4.6791,1.03936 -3.05242,0.0147 -3.22545,0.23856 -4.34212,5.61752 -0.63966,3.08121 -0.87345,7.1457 -0.51955,9.03219 l 0.64347,3.42997 2.58351,-2.03218 c 1.42093,-1.11771 3.19782,-2.03219 3.94865,-2.03219 1.91311,0 1.70409,-1.01031 -0.74935,-3.62187 -1.94538,-2.07076 -1.96362,-2.21132 -0.22811,-1.75747 1.24646,0.32596 3.3125,-0.82329 6.09037,-3.3878 2.86867,-2.64834 4.52928,-3.55581 5.22811,-2.85698 1.92576,1.92576 1.02453,3.46889 -2.72588,4.66737 -5.64107,1.80267 -5.71804,2.37088 -0.74685,5.51314 4.45336,2.81495 6.4119,6.15401 4.97416,8.48032 -0.46585,0.75377 -2.20253,-0.31347 -5.0372,-3.09549 -4.28617,-4.20655 -4.35032,-4.23008 -6.9287,-2.54065 -1.43137,0.93787 -3.10422,2.80641 -3.71746,4.15232 -1.34442,2.95068 -2.37856,3.09178 -3.75877,0.51285 z m 12.48207,-20.8044 c 0.40697,-0.96874 0.96394,-2.79688 1.23771,-4.06255 0.48343,-2.23489 0.34284,-2.28307 -4.87859,-1.67217 -6.49445,0.75985 -4.84871,-1.09437 1.87363,-2.11098 2.54278,-0.38454 4.25,-1.17596 4.25,-1.97017 0,-2.10387 -1.1478,-2.29714 -6.75209,-1.13694 -3.60304,0.7459 -5.57546,0.76392 -6.28199,0.0574 -0.70653,-0.70653 0.89923,-1.61399 5.11419,-2.89018 5.50521,-1.66684 6.41839,-1.70683 8.78199,-0.38459 1.45085,0.81163 2.77538,2.42492 2.9434,3.58508 0.39141,2.70252 -3.47546,10.98314 -5.48985,11.75614 -1.16242,0.44606 -1.35752,0.15991 -0.7984,-1.17103 z m -32.67576,-9.67479 c 3.38718,-3.52739 6.15851,-7.12739 6.15851,-8 0,-0.8726 0.65917,-1.58655 1.46482,-1.58655 1.56398,0 3.83974,3.36211 2.90707,4.29478 -0.30677,0.30676 0.83407,1.27749 2.53518,2.15716 1.70111,0.87968 3.09293,2.26286 3.09293,3.07374 0,2.23184 -2.375,1.7685 -4.94221,-0.96416 l -2.29083,-2.43848 -6.44325,4.93848 c -3.54379,2.71616 -6.93768,4.93848 -7.54199,4.93848 -0.6043,0 1.67259,-2.88605 5.05977,-6.41345 z"
           style="fill:#030303" />
      </g>
    </g>
  </g>
</svg>
