<?xml version="1.0" encoding="UTF-8" standalone="no"?>
<!-- Created with Inkscape (http://www.inkscape.org/) -->

<svg
   xmlns:dc="http://purl.org/dc/elements/1.1/"
   xmlns:cc="http://creativecommons.org/ns#"
   xmlns:rdf="http://www.w3.org/1999/02/22-rdf-syntax-ns#"
   xmlns:svg="http://www.w3.org/2000/svg"
   xmlns="http://www.w3.org/2000/svg"
   xmlns:sodipodi="http://sodipodi.sourceforge.net/DTD/sodipodi-0.dtd"
   xmlns:inkscape="http://www.inkscape.org/namespaces/inkscape"
   width="42.101173"
   height="50"
   id="svg2"
   version="1.1"
   inkscape:version="0.48.3.1 r9886"
   sodipodi:docname="New document 1">
  <defs
     id="defs4" />
  <sodipodi:namedview
     id="base"
     pagecolor="#ffffff"
     bordercolor="#666666"
     borderopacity="1.0"
     inkscape:pageopacity="0.0"
     inkscape:pageshadow="2"
     inkscape:zoom="5.6"
     inkscape:cx="38.856307"
     inkscape:cy="23.192742"
     inkscape:document-units="px"
     inkscape:current-layer="layer1"
     showgrid="false"
     fit-margin-top="0"
     fit-margin-left="0"
     fit-margin-right="0"
     fit-margin-bottom="0"
     inkscape:window-width="1187"
     inkscape:window-height="629"
     inkscape:window-x="1050"
     inkscape:window-y="937"
     inkscape:window-maximized="0" />
  <metadata
     id="metadata7">
    <rdf:RDF>
      <cc:Work
         rdf:about="">
        <dc:format>image/svg+xml</dc:format>
        <dc:type
           rdf:resource="http://purl.org/dc/dcmitype/StillImage" />
        <dc:title></dc:title>
      </cc:Work>
    </rdf:RDF>
  </metadata>
  <g
     inkscape:label="Layer 1"
     inkscape:groupmode="layer"
     id="layer1"
     transform="translate(-654.03026,-774.78062)">
    <g
       id="g3792"
       transform="matrix(0.43187989,0,0,0.43187989,371.56774,468.57446)">
      <path
         sodipodi:nodetypes="cccccccccccccc"
         inkscape:connector-curvature="0"
         id="path3022"
         d="m 696.85542,712.77682 c -8.0021,2.15083 -16.15596,3.93141 -23.91221,6.82642 -1.41033,0.59863 -0.88901,2.59943 -1.38107,3.78808 -5.59174,32.70098 -10.02622,65.63941 -15.34169,98.37938 -0.47746,1.29025 1.42361,1.0467 2.16995,1.10937 20.07722,0.27002 40.15949,0.0469 60.23849,0.0272 9.71727,-0.12238 19.44689,0.081 29.15626,-0.30819 1.8744,0.0419 0.23817,-2.53151 0.43367,-3.64122 -4.65441,-30.65938 -9.01052,-61.38387 -14.04635,-91.97253 -0.58627,-2.42934 -0.61485,-5.13082 -1.73285,-7.36634 -4.52038,-1.96014 -9.47828,-2.81948 -14.20071,-4.26062 -5.16637,-1.37973 -10.32687,-2.82773 -15.51987,-4.07314 -1.95454,0.49718 -3.90908,0.99437 -5.86362,1.49155 z"
         style="fill:#ffffff;fill-opacity:1;stroke:none" />
      <path
         style="fill:#cfcfcf"
         d="m 654.05735,823.03062 c 0.21694,-0.9625 3.82938,-24.925 8.02763,-53.25 4.19826,-28.325 7.75083,-51.63469 7.89459,-51.7993 0.14376,-0.16462 7.51017,-2.25103 16.3698,-4.63647 l 16.1084,-4.33716 16.07816,4.289 c 8.84299,2.35895 16.23083,4.44536 16.41743,4.63647 0.18661,0.1911 3.7617,23.29746 7.94466,51.34746 4.18296,28.05 7.83272,52.0125 8.11058,53.25 l 0.50518,2.25 -48.92543,0 c -46.07924,0 -48.90248,-0.1018 -48.531,-1.75 z m 93.4048,-2 c -0.0356,-1.97454 -14.8329,-100.42718 -15.13716,-100.71401 -0.19212,-0.18112 -6.92457,-2.09009 -14.961,-4.24215 l -14.61169,-3.91285 -14.88831,3.90679 c -8.18857,2.14873 -14.97079,3.98299 -15.07159,4.07611 -0.18636,0.17218 -15.31672,100.00135 -15.31672,101.05875 0,0.31755 20.25,0.57736 45,0.57736 24.75,0 44.99391,-0.3375 44.98647,-0.75 z m -47.34462,-6 c -0.34091,-2.0625 -0.62479,-5.04946 -0.63084,-6.63768 l -0.011,-2.88768 -5.57378,0.65509 c -3.06558,0.36029 -7.17053,1.32225 -9.12212,2.13768 -5.63124,2.35288 -11.93748,1.94011 -14.84955,-0.97196 -3.99987,-3.99986 -3.22187,-4.73539 4.29545,-4.06097 9.26055,0.83081 9.85538,0.28432 8.31139,-7.63589 -0.68069,-3.49173 -2.15814,-7.84908 -3.28324,-9.68302 l -2.04562,-3.33442 4.88373,0.27722 c 10.09525,0.57303 16.42029,-0.04 17.03866,-1.6515 0.91417,-2.38228 -0.008,-2.62228 -4.97252,-1.29441 -3.74512,1.00167 -5.05412,0.97656 -7.13453,-0.13684 -4.50201,-2.4094 -3.07437,-3.77018 4.39845,-4.19243 3.82048,-0.21588 7.26858,-0.71476 7.66244,-1.10862 0.39387,-0.39387 0.095,-1.95552 -0.66423,-3.47034 -0.7592,-1.51483 -1.5448,-3.09173 -1.74578,-3.50423 -0.43711,-0.89715 4.97483,-1.00436 7.21946,-0.14301 0.938,0.35994 1.58179,1.78444 1.58179,3.5 0,3.03618 1.98804,3.81895 4.94612,1.94747 2.12631,-1.34525 6.98457,1.55065 7.03857,4.19554 0.008,0.4125 -2.90969,0.75 -6.48469,0.75 -5.94474,0 -6.5,0.18011 -6.5,2.10841 0,1.67814 0.45916,1.99937 2.25,1.57412 4.9382,-1.17263 13.65277,-1.84816 15.65282,-1.21337 1.16551,0.36992 2.8349,2.05676 3.70976,3.74855 1.48778,2.87704 1.46176,3.30899 -0.40225,6.67913 -1.09609,1.98174 -2.29718,5.04109 -2.66908,6.79856 l -0.67618,3.1954 5.28465,0.3046 c 4.5904,0.26458 5.48601,0.66917 6.81746,3.0797 2.31073,4.18348 0.31714,4.71115 -9.77634,2.58765 -4.77996,-1.00562 -11.27834,-1.83613 -14.44084,-1.84558 l -5.75,-0.0172 0,3.13398 c 0,3.67991 -2.00216,10.86602 -3.02745,10.86602 -0.39097,0 -0.98979,-1.6875 -1.3307,-3.75 z m -2.64185,-14.25 c 1.14261,-0.73841 0.74514,-0.97302 -1.66821,-0.98469 -4.17829,-0.0202 -6.33179,-0.91206 -6.33179,-2.6223 0,-0.87245 1.09053,-1.39301 2.91821,-1.39301 3.29601,0 6.08179,-0.87314 6.08179,-1.90619 0,-0.38071 -1.47162,-0.5204 -3.27027,-0.31042 -2.35524,0.27496 -3.78519,-0.18719 -5.11055,-1.6517 -1.82322,-2.01463 -1.79291,-2.03976 3.27027,-2.71141 2.8108,-0.37287 5.11055,-1.12182 5.11055,-1.66433 0,-0.84013 -10.84027,-0.19173 -11.78076,0.70465 -0.15443,0.14718 0.2857,3.25375 0.97805,6.9035 l 1.25882,6.6359 3.52194,-0.0153 c 1.93707,-0.008 4.19695,-0.45154 5.02195,-0.9847 z m 20.99328,-6.96017 c 0.64569,-3.82809 0.88479,-7.42809 0.53134,-8 -0.68949,-1.11561 -10.32393,-1.43781 -12.94283,-0.43284 -3.2506,1.24737 -1.54186,2.56206 2.4528,1.88717 4.35424,-0.73565 6.96408,0.52982 6.96718,3.37828 10e-4,1.29344 -1.05791,1.62756 -5.16006,1.62756 -3.45054,0 -5.31375,0.4492 -5.62008,1.35494 -0.3387,1.00145 0.15961,1.17642 1.91006,0.67065 1.30257,-0.37636 3.12048,-0.89269 4.03979,-1.1474 1.81651,-0.50331 6.08858,3.39201 5.23492,4.77325 -0.28844,0.46671 -2.97288,0.84856 -5.96542,0.84856 -2.99254,0 -5.44098,0.45 -5.44098,1 0,0.56266 2.80322,1 6.40965,1 l 6.40965,0 1.17398,-6.96017 z m -22.45281,-30.77961 c -3.05588,-3.29563 -3.24608,-4.61895 -0.54047,-3.76022 1.88282,0.59758 2,0.1797 2,-7.13261 0,-8.30087 -0.6793,-8.56175 -3.35247,-1.28747 -1.7651,4.80324 -5.02582,8.42605 -10.28606,11.42831 -4.29506,2.45137 -6.33734,1.46979 -6.17059,-2.96577 0.1418,-3.77187 0.68814,-4.26344 2.6064,-2.34518 1.55403,1.55403 5.917,-1.56454 8.60075,-6.14765 l 1.89802,-3.24131 -4.10819,2.09584 c -4.63444,2.36432 -6.81738,2.56933 -10.87276,1.02114 -2.71517,-1.03656 -2.74619,-1.1253 -0.87397,-2.5 1.06762,-0.78392 2.89844,-1.4253 4.0685,-1.4253 1.17005,0 4.45904,-0.69243 7.30887,-1.53874 5.18597,-1.54007 6.30255,-3.14636 4.33855,-6.24138 -0.65035,-1.02489 -1.39498,-0.97627 -3.73468,0.24384 -1.60731,0.83818 -4.27237,1.52505 -5.92237,1.52638 l -3,0.002 3,-1.85308 c 4.89614,-3.02432 6.81846,-5.73445 6.09947,-8.59915 -0.51844,-2.06559 -0.27558,-2.54027 1.29969,-2.54027 4.6628,0 6.57512,3.12447 4.20356,6.86803 -0.56466,0.89134 -0.25443,1.98026 0.89031,3.125 0.96634,0.96633 1.97661,2.37572 2.24507,3.13197 0.77236,2.1758 1.88268,0.39343 2.46652,-3.95945 0.56887,-4.24127 -1.36238,-10.16555 -3.31387,-10.16555 -1.39161,0 -6.39075,-3.85937 -6.39075,-4.93369 0,-0.43369 2.62703,-1.02674 5.83785,-1.31789 3.21082,-0.29115 7.26488,-1.26731 9.00903,-2.16924 3.87344,-2.00303 7.65923,-0.62256 6.84382,2.49558 -0.45865,1.75389 -0.33065,1.78646 1.62827,0.41438 2.50627,-1.75546 6.27711,-1.95172 7.25013,-0.37734 0.99827,1.61524 -1.51352,2.85531 -5.8191,2.87289 -3.47315,0.0142 -3.75,0.23075 -3.75,2.93352 0,5.02774 0.88511,6.08179 5.10699,6.08179 3.22634,0 3.89301,-0.34249 3.89301,-2 0,-2.31613 -0.022,-2.32234 -3.51882,-0.99285 -3.56466,1.35529 -5.04512,0.27348 -2.88788,-2.11024 2.04584,-2.26063 7.37532,-2.21194 8.17212,0.0747 0.29293,0.84063 1.4527,2.5502 2.57727,3.79903 1.87148,2.07829 1.90959,2.40569 0.44989,3.86539 -2.3629,2.36289 -11.27836,2.13658 -14.64955,-0.37186 -2.16187,-1.60861 -2.69806,-2.90396 -2.94529,-7.11539 -0.16624,-2.83181 -0.48848,-5.14875 -0.71607,-5.14875 -0.2276,0 -2.00665,0.75957 -3.95344,1.68793 l -3.53962,1.68792 3.1209,1.31224 c 3.08394,1.2967 3.11295,1.37582 2.45011,6.68107 l -0.6708,5.36882 3.80559,-0.11899 3.80559,-0.11899 -0.3192,4.61649 c -0.61025,8.82568 3.19123,13.67555 9.96749,12.71639 2.17664,-0.3081 2.33028,-0.72984 2.06379,-5.66533 -0.18868,-3.49448 0.0698,-5.11135 0.75,-4.69098 0.57086,0.3528 1.03792,1.25538 1.03792,2.00572 0,0.75034 1.1593,2.74201 2.57622,4.42593 1.41693,1.68391 2.42544,3.84464 2.24115,4.80161 -0.76594,3.97716 -9.8149,5.57152 -16.28307,2.86895 -4.30785,-1.79994 -6.5343,-6.06902 -6.5343,-12.52912 0,-3.97694 -0.34229,-5.04966 -1.6113,-5.04966 -1.37322,0 -1.57163,1.21897 -1.3428,8.25 0.43229,13.28294 0.23283,14.75 -2.00543,14.75 -1.07774,0 -3.10274,-1.2329 -4.5,-2.73978 z m 18.20953,-12.93198 c -2.34153,-0.63541 -2.21691,-2.04527 0.25,-2.82824 2.59529,-0.82372 6.21942,0.33747 5.72672,1.83486 -0.4192,1.27402 -3.2244,1.74027 -5.97672,0.99338 z m -2.75,-6.18364 c 0,-1.44202 4.07799,-4.1446 6.25389,-4.1446 1.61495,0 3.56918,2.55792 2.61965,3.42889 -1.0954,1.00476 -8.87354,1.63213 -8.87354,0.71571 z"
         id="path3010"
         inkscape:connector-curvature="0" />
      <path
         style="fill:#b0b0b0"
         d="m 654.44996,823.53062 c -0.0141,-0.6875 3.46822,-24.74005 7.73859,-53.45011 l 7.76432,-52.2001 7.5114,-2.04249 c 4.13128,-1.12337 11.44187,-3.04961 16.24578,-4.28052 l 8.73436,-2.23804 15.59891,3.98063 c 8.5794,2.18935 15.94512,4.20563 16.36828,4.48063 0.42316,0.275 4.03294,22.325 8.02173,49 3.98879,26.675 7.5879,50.6375 7.99801,53.25 l 0.74565,4.75 -48.35066,0 c -38.00014,0 -48.35616,-0.26759 -48.37637,-1.25 z m 92.9832,-3.5 c -0.0781,-3.21395 -14.5881,-99.21395 -15.06838,-99.69423 -0.26022,-0.26023 -7.0724,-2.24986 -15.13818,-4.42141 l -14.66504,-3.94828 -14.79294,3.99903 c -8.13612,2.19946 -14.92164,4.12379 -15.07895,4.27629 -0.32141,0.3116 -15.17837,98.33625 -15.20008,100.2886 -0.0109,0.98169 9.64534,1.25 44.98609,1.25 42.20667,0 44.99736,-0.10863 44.95748,-1.75 z m -46.2479,-1.91493 c -0.39736,-0.64071 -1.00063,-3.82629 -1.34061,-7.07907 l -0.61815,-5.91415 -5.21987,0.81856 c -2.87093,0.4502 -7.14644,1.49829 -9.50114,2.32907 -6.57576,2.32007 -11.65782,1.97342 -14.6291,-0.99786 -1.37961,-1.37961 -2.24929,-2.9276 -1.93262,-3.43998 0.32389,-0.52407 3.61807,-0.67654 7.53032,-0.34855 5.89089,0.49387 7.05163,0.33007 7.58925,-1.07093 0.90386,-2.35543 -1.53159,-14.34073 -3.19452,-15.72085 -0.76623,-0.63591 -1.39314,-1.7761 -1.39314,-2.53375 0,-1.64209 4.12883,-1.84873 5.69264,-0.28492 0.79019,0.79019 1.65778,0.79019 3.13426,0 1.12289,-0.60095 4.3212,-1.09264 7.10736,-1.09264 4.39907,0 5.06574,-0.26321 5.06574,-2 0,-2.30933 -0.84113,-2.42749 -6.08866,-0.85529 -3.2136,0.96282 -4.23019,0.87639 -6.39788,-0.54393 -3.62653,-2.3762 -2.2785,-3.60078 3.96377,-3.60078 2.94756,0 6.071,-0.27315 6.94098,-0.60699 2.00086,-0.7678 2.04628,-3.76263 0.0818,-5.39301 -2.39258,-1.98567 -1.75776,-3 1.87756,-3 3.93096,0 6.09368,2.08995 5.3007,5.12234 -0.52586,2.01089 -0.29407,2.09685 4.04906,1.50156 3.53615,-0.48469 5.03286,-0.24592 6.43977,1.02732 3.01784,2.7311 2.15699,3.34878 -4.66709,3.34878 -5.83333,0 -6.5,0.20513 -6.5,2 0,2.32691 0.28827,2.35663 8.68162,0.89499 8.27525,-1.44107 10.52384,-0.78437 12.6612,3.69771 1.50273,3.15127 1.54983,3.87916 0.34167,5.28117 -1.49666,1.73682 -3.68449,7.54136 -3.68449,9.77535 0,0.93098 1.37598,1.35078 4.42742,1.35078 3.59194,0 4.81853,0.49721 6.5,2.63486 1.13992,1.44917 2.07258,3.02417 2.07258,3.5 0,1.32013 -5.25371,1.03411 -11.66131,-0.63486 -3.16739,-0.825 -8.81434,-1.5 -12.54879,-1.5 l -6.7899,0 -0.0769,3.25 c -0.10781,4.55907 -2.32513,11.51764 -3.21357,10.08507 z m -2.70958,-17.33507 c 0,-0.55 -1.5199,-1 -3.37756,-1 -3.63351,0 -6.99453,-2.58174 -4.48506,-3.44517 0.74944,-0.25786 2.67792,-0.60069 4.2855,-0.76183 1.60759,-0.16115 3.10625,-0.85148 3.33036,-1.53407 0.29244,-0.8907 -0.46145,-1.06729 -2.6704,-0.6255 -2.93965,0.58793 -6.08284,-0.80445 -6.08284,-2.6946 0,-0.44896 2.025,-1.11995 4.5,-1.4911 3.02332,-0.45338 4.5,-1.16489 4.5,-2.16826 0,-0.85482 -0.58676,-1.26829 -1.37215,-0.9669 -0.75468,0.2896 -3.45468,0.83883 -6,1.22053 -5.16027,0.77383 -5.09172,0.6007 -3.42777,8.6567 l 1.20007,5.8102 4.79993,0 c 2.63995,0 4.79992,-0.45 4.79992,-1 z m 19.62504,-3.75 c 0.39361,-2.0625 0.7515,-5.55 0.79531,-7.75 l 0.0797,-4 -6.91666,0 c -4.93798,0 -7.04617,0.38851 -7.36936,1.35806 -0.35656,1.06968 0.4294,1.20904 3.70125,0.65626 4.34233,-0.73363 7.08477,0.46949 7.08477,3.10812 0,1.0031 -1.49505,1.37756 -5.5,1.37756 -4.24133,0 -5.5,0.34598 -5.5,1.51182 0,1.20338 0.81496,1.3815 3.99458,0.87306 4.24804,-0.67929 7.00542,0.64424 7.00542,3.36256 0,1.10389 -0.72964,1.35874 -2.75,0.96051 -3.32331,-0.65505 -8.25,0.18615 -8.25,1.40863 0,0.48588 2.90461,0.88342 6.45469,0.88342 l 6.45468,0 0.71567,-3.75 z m -20.73115,-32.96298 c -3.88998,-4.68713 -3.97622,-4.94561 -1.62288,-4.86416 2.0845,0.0721 2.24816,-0.39921 2.52479,-7.27146 0.21958,-5.45514 -0.0197,-7.24344 -0.92856,-6.94048 -1.49733,0.49911 -2.5683,2.42969 -3.30739,5.96201 -0.7976,3.81201 -4.73683,8.11254 -9.97766,10.89279 -3.25361,1.72604 -4.82346,2.09301 -5.606,1.31047 -1.53841,-1.53841 -0.11771,-6.64447 1.65904,-5.96267 2.28504,0.87685 6.27669,-1.53493 8.5034,-5.13783 1.14923,-1.85949 1.92315,-3.54725 1.71982,-3.75057 -0.20333,-0.20333 -2.16716,0.48007 -4.36407,1.51866 -4.82332,2.28024 -7.47492,2.42216 -10.05168,0.53798 -2.53668,-1.85487 -1.87533,-2.36553 4.63357,-3.57779 10.02575,-1.86725 12.57094,-3.85661 10.04112,-7.84827 -0.70402,-1.11083 -1.38745,-1.06741 -3.93503,0.25 -1.69567,0.87686 -4.08639,1.5943 -5.3127,1.5943 -1.93373,0 -1.66247,-0.48549 2.04376,-3.65789 3.68969,-3.15824 4.194,-4.05502 3.69195,-6.56527 -0.53456,-2.67278 -0.36868,-2.88194 2.05571,-2.59211 3.61126,0.43172 5.22862,3.16099 3.50691,5.91788 -1.14246,1.82936 -1.05543,2.3536 0.65526,3.94735 1.08498,1.01081 2.15765,2.39275 2.38373,3.07099 0.22608,0.67823 0.947,0.90192 1.60204,0.49708 1.44126,-0.89074 1.60196,-10.246 0.19098,-11.11803 -1.6961,-1.04825 -1.10417,-3.5 0.84501,-3.5 3.48574,0 5.2255,3.20642 4.52253,8.33515 l -0.64,4.66934 3.01495,-0.60299 c 3.82598,-0.76519 4.39623,0.19453 4.59685,7.73643 0.19516,7.33682 2.69929,10.1557 8.58328,9.66214 3.56912,-0.29938 3.57724,-0.31104 3.51454,-5.05007 -0.0346,-2.6125 0.0688,-4.75 0.22967,-4.75 0.16089,0 1.21081,1.8 2.33317,4 1.12236,2.2 2.4815,4 3.02032,4 0.53883,0 0.97968,0.92296 0.97968,2.05103 0,2.35329 -5.22466,4.98368 -9.71788,4.89253 -8.46926,-0.17182 -13.28212,-5.3093 -13.28212,-14.17796 0,-3.52214 -0.38284,-4.7656 -1.46725,-4.7656 -1.18585,0 -1.52148,2.1553 -1.75,11.23803 -0.23256,9.2434 -0.5599,11.29109 -1.84426,11.53702 -0.85883,0.16445 -2.2289,-0.50516 -3.0446,-1.48803 z m 16.85611,-13.95878 c -2.49193,-0.67622 -2.16358,-2.00762 0.67054,-2.71894 2.93441,-0.73649 5.80153,0.21891 5.2934,1.76391 -0.40797,1.24042 -3.24067,1.69404 -5.96394,0.95503 z m -2.75,-6.25725 c 0,-1.5245 5.64013,-4.14632 7.43665,-3.45692 1.65683,0.63578 2.06328,1.98282 0.81335,2.69557 -1.95718,1.11606 -8.25,1.69679 -8.25,0.76135 z m -3.35398,-9.52324 c -2.11399,-1.95919 -2.64602,-3.36666 -2.64602,-7 0,-2.50126 -0.45163,-4.54775 -1.00362,-4.54775 -0.552,0 -2.68283,0.9 -4.7352,2 -4.6575,2.49627 -5.36816,2.49029 -8.62632,-0.0726 -3.69073,-2.90313 -3.31074,-3.66021 1.88952,-3.76459 2.48841,-0.05 6.60896,-1.01292 9.15677,-2.13994 4.36957,-1.93286 4.73896,-1.95267 6.51088,-0.3491 1.03318,0.93501 1.66805,2.24844 1.41084,2.91874 -0.33791,0.88058 0.27658,0.83043 2.21473,-0.18074 3.77348,-1.96871 6.40652,-1.82022 5.9971,0.33821 -0.24075,1.26921 -1.47344,1.83332 -4.48678,2.05327 -4.61051,0.33653 -5.57663,1.60995 -4.4475,5.86212 0.65136,2.45296 1.30369,2.87541 4.84504,3.13766 3.90371,0.28907 4.12579,0.1508 4.81832,-3 0.72264,-3.28782 0.73015,-3.29153 1.62906,-0.80305 0.49669,1.375 1.67349,3.09032 2.61512,3.81183 1.60385,1.22893 1.58938,1.40271 -0.22909,2.75 -1.09939,0.81453 -4.17991,1.43817 -7.10398,1.43817 -4.09421,0 -5.71053,-0.50758 -7.80887,-2.45225 z m 4.21476,-6.58102 c 2.64827,-2.20623 4.68467,-2.51122 5.70832,-0.85493 0.94061,1.52194 -1.45028,2.86128 -5.0691,2.83962 l -3,-0.018 2.36078,-1.96673 z"
         id="path3008"
         inkscape:connector-curvature="0" />
      <path
         style="fill:#8f8f8f"
         d="m 654.46786,823.53062 c -0.0196,-3.13349 15.39924,-104.33967 16.0026,-105.03782 0.82307,-0.95237 29.32965,-8.71218 32.00522,-8.71218 2.64713,0 31.16417,7.75113 32.05285,8.71218 0.67532,0.73032 15.94715,100.92481 15.94715,104.62507 0,1.52724 -3.91185,1.66275 -48,1.66275 -37.72916,0 -48.00167,-0.26747 -48.00782,-1.25 z m 93.02327,-2.5 c 0.0305,-3.4586 -14.35174,-99.76781 -15.01376,-100.53782 -0.37253,-0.4333 -7.21701,-2.54849 -15.20995,-4.70044 l -14.53263,-3.91262 -14.74219,3.89641 c -8.1082,2.14302 -14.96271,4.11692 -15.23223,4.38645 -0.57291,0.57291 -15.24942,97.037 -15.27047,100.36802 l -0.0142,2.25 45,0 c 42.18459,0 45.00097,-0.10949 45.01545,-1.75 z m -47.3736,-7 c -0.34091,-2.0625 -0.62479,-4.95921 -0.63084,-6.43713 -0.0104,-2.54099 -0.21495,-2.65537 -3.76101,-2.10311 -2.0625,0.3212 -6,1.23912 -8.75,2.0398 -8.89297,2.58927 -13.70254,2.67312 -16.25,0.2833 -3.91241,-3.67031 -2.96899,-4.96256 3.16108,-4.32988 2.97609,0.30716 6.51864,0.28049 7.87233,-0.0593 l 2.46126,-0.61774 -1.47589,-7.26299 c -0.81174,-3.99464 -2.10429,-7.97342 -2.87233,-8.84173 -2.35548,-2.66297 -1.74102,-4.23975 1.35355,-3.4734 2.84485,0.70451 4.63276,0.72942 9.75,0.13586 1.65,-0.19138 4.2375,-0.40102 5.75,-0.46585 2.04404,-0.0876 2.75,-0.63125 2.75,-2.11783 0,-2.30933 -0.84113,-2.42749 -6.08866,-0.85529 -3.2136,0.96282 -4.23019,0.87639 -6.39788,-0.54393 -3.67831,-2.41013 -2.3915,-3.40078 4.41744,-3.40078 3.26506,0 6.41632,-0.29656 7.00279,-0.65902 1.52677,-0.9436 1.31524,-4.1492 -0.38607,-5.8505 -1.81509,-1.8151 -1.00279,-2.69048 2.4966,-2.69048 3.55509,0 5.21894,2.10331 4.36267,5.51495 -0.58438,2.32835 -0.41583,2.62762 1.20694,2.14314 6.10754,-1.82341 7.52224,-1.84492 9.40288,-0.14297 2.8623,2.59035 1.55941,3.48488 -5.07573,3.48488 -5.27431,0 -5.94098,0.22443 -5.94098,2 0,2.33593 0.67953,2.39155 9.90045,0.81034 7.72588,-1.32484 8.99274,-0.85136 11.69292,4.37022 1.33056,2.57301 1.28469,3.07229 -0.51199,5.57283 -1.08542,1.51063 -2.27284,4.43411 -2.63872,6.49661 l -0.66524,3.75 4.53871,0 c 3.72785,0 4.91411,0.47725 6.63997,2.67132 3.13219,3.98193 1.34251,5.04572 -5.71142,3.39488 -3.15957,-0.73943 -9.62469,-1.54946 -14.36693,-1.80004 l -8.62225,-0.45562 -0.68471,4.84473 c -1.31585,9.31045 -2.85246,11.10744 -3.92894,4.59473 z m -1.82847,-12.82527 c 2.25662,-0.70549 0.3618,-2.18087 -2.17745,-1.69546 -2.78356,0.5321 -6.97281,-1.37517 -6.10492,-2.77944 0.32286,-0.52241 2.36047,-0.94983 4.52801,-0.94983 2.80674,0 3.94098,-0.42451 3.94098,-1.475 0,-1.10528 -0.75134,-1.32473 -2.99752,-0.8755 -2.82885,0.56577 -6.00248,-0.84262 -6.00248,-2.66377 0,-0.42315 2.10048,-1.15555 4.66773,-1.62755 2.56725,-0.472 4.87096,-1.46931 5.11935,-2.21624 0.36031,-1.08346 -0.43186,-1.19651 -3.91773,-0.55909 -2.40314,0.43943 -5.38185,0.82556 -6.61935,0.85806 -2.60633,0.0684 -2.65434,0.48015 -1.04521,8.96274 l 1.20479,6.3511 4.04521,-0.45971 c 2.22487,-0.25284 4.63623,-0.64448 5.35859,-0.87031 z m 19.6225,-2.67473 c 2.33249,-11.07231 2.36423,-11.77655 0.58703,-13.02454 -2.61012,-1.83289 -14.02291,-1.02374 -14.02291,0.9942 0,1.21517 0.77167,1.4168 3.64059,0.95124 4.05143,-0.65746 7.35941,0.63001 7.35941,2.86428 0,1.10887 -1.33649,1.46482 -5.5,1.46482 -4.35753,0 -5.5,0.32984 -5.5,1.5879 0,1.30078 0.72951,1.46465 4.03459,0.90626 4.24553,-0.71728 6.96541,0.52196 6.96541,3.1736 0,1.07763 -0.82812,1.26751 -3.41306,0.78257 -3.7103,-0.69605 -7.58694,0.1302 -7.58694,1.61706 0,0.51293 2.91643,0.93261 6.48095,0.93261 5.91387,0 6.52242,-0.19687 6.95493,-2.25 z m -21.42259,-35.44846 -2.21294,-2.80154 2.09982,-0.31955 c 1.91816,-0.29191 2.09983,-0.96876 2.09983,-7.82333 0,-6.5831 -0.21285,-7.46278 -1.73479,-7.16968 -1.11489,0.21471 -1.94253,1.61216 -2.31616,3.91077 -0.80114,4.92875 -4.10189,9.21528 -9.55832,12.41296 -3.88778,2.27839 -4.82056,2.48757 -5.96947,1.33866 -1.92112,-1.92112 -0.75755,-5.75053 1.56291,-5.14372 0.99642,0.26057 3.00561,-0.30853 4.46486,-1.26467 2.62364,-1.71908 6.14359,-7.18216 5.22161,-8.10413 -0.26226,-0.26226 -2.39064,0.49952 -4.72975,1.69284 -3.29238,1.67965 -4.93401,1.97435 -7.26856,1.30481 -5.03446,-1.44387 -4.17244,-2.97636 2.40173,-4.26975 9.02332,-1.77523 11.06314,-2.9162 10.71597,-5.99397 -0.37805,-3.35159 1.42741,-4.21543 2.70809,-1.2957 0.54897,1.25155 1.67397,2.14766 2.5,1.99137 1.96067,-0.37097 2.58468,-8.30943 0.90053,-11.45628 -1.66387,-3.10897 -0.37567,-4.09372 2.90805,-2.22302 2.4612,1.40211 2.66568,1.98058 2.37285,6.71246 l -0.32045,5.17811 2.94917,-0.58983 c 3.75264,-0.75053 4.33129,0.23913 4.53107,7.74958 0.19516,7.33682 2.69929,10.1557 8.58328,9.66214 3.42484,-0.28728 3.60296,-0.49195 4.17719,-4.80007 0.32989,-2.475 0.66739,-3.77821 0.75,-2.89602 0.0826,0.88218 1.29881,2.84336 2.70268,4.35816 1.40387,1.5148 2.41023,3.49301 2.23634,4.39602 -0.45302,2.35264 -7.32322,4.33421 -12.3917,3.57414 -7.18405,-1.07731 -10.39713,-5.54782 -10.39713,-14.46602 0,-3.90053 -0.3003,-4.78828 -1.46813,-4.34013 -1.14456,0.4392 -1.53026,3.01938 -1.75,11.70664 -0.23736,9.3836 -0.54035,11.19277 -1.91875,11.45678 -0.90028,0.17243 -2.6327,-0.94718 -3.84983,-2.48803 z m 18.23671,-13.00727 c -3.01792,-0.58128 -2.8474,-1.92752 0.34565,-2.72892 2.69123,-0.67546 5.81045,0.96855 4.83432,2.54796 -0.56186,0.90911 -1.27089,0.93388 -5.17997,0.18096 z m -2.81279,-6.39586 c -0.70785,-1.14533 2.96981,-2.89841 6.08038,-2.89841 3.95806,0 2.50838,2.38058 -1.8845,3.09462 -2.03646,0.33102 -3.9246,0.24272 -4.19588,-0.19621 z M 682.263,738.64194 c 3.66997,-2.35001 6.80212,-7.37899 5.20901,-8.36359 -1.78147,-1.10101 -1.05246,-2.49773 1.30367,-2.49773 2.68357,0 4.7,1.72165 4.7,4.01291 0,3.32806 -8.12752,9.01711 -12.8151,8.97024 -1.08516,-0.0109 -0.51479,-0.76611 1.60242,-2.12183 z m 27.71268,-3.01605 c -3.34232,-1.82811 -4.5,-4.0242 -4.5,-8.5364 0,-2.36988 -0.43796,-4.30887 -0.97325,-4.30887 -0.53529,0 -3.00882,0.98896 -5.49674,2.19768 l -4.52349,2.19769 -2.69021,-2.00853 c -4.12063,-3.0765 -3.75616,-3.8644 1.91686,-4.14376 2.86949,-0.14131 6.90446,-1.09169 8.96661,-2.11196 3.22461,-1.59541 4.02155,-1.66439 5.69413,-0.49288 1.67779,1.17518 1.80769,1.8586 0.94626,4.97846 -1.85823,6.72993 0.81217,10.7459 6.4312,9.67176 1.87574,-0.35858 2.95012,-1.32276 3.37929,-3.03272 0.58082,-2.31415 0.70495,-2.36272 1.6136,-0.63137 0.54141,1.03159 1.71594,2.46595 2.61006,3.18746 1.48739,1.20024 1.46056,1.43417 -0.31545,2.75 -2.27509,1.6856 -10.18155,1.85721 -13.05887,0.28344 z m 0.5,-6.32222 c 0,-0.26232 1.06159,-1.17253 2.3591,-2.02268 2.8614,-1.87487 6.32107,-1.02486 4.54398,1.11641 -1.04562,1.2599 -6.90308,2.02889 -6.90308,0.90627 z m 0,-6.40173 c 0,-0.48327 1.37504,-1.44824 3.05564,-2.14437 2.35657,-0.97612 3.32696,-0.99435 4.24164,-0.0797 0.91467,0.91468 0.84475,1.40176 -0.30564,2.12906 -1.88769,1.19343 -6.99164,1.26278 -6.99164,0.095 z"
         id="path3006"
         inkscape:connector-curvature="0" />
      <path
         style="fill:#6f6f6f"
         d="m 654.50747,823.53062 c 0.0761,-2.99021 15.61179,-104.72692 16.06096,-105.17608 0.27418,-0.27419 7.45298,-2.37798 15.95288,-4.67511 l 15.45437,-4.17659 15.38239,3.88889 c 8.46032,2.13889 15.92977,4.33889 16.59877,4.88889 0.97125,0.79848 16.55908,100.06949 16.52666,105.25 -0.006,0.98253 -10.27866,1.25 -48.00782,1.25 -37.75029,0 -47.99321,-0.26692 -47.96821,-1.25 z m 93.10128,-1.21641 c 0.35808,-0.35807 -14.05792,-101.30102 -14.60207,-102.24589 -0.0672,-0.11676 -6.94858,-2.04659 -15.29185,-4.2885 l -15.16959,-4.0762 -14.61979,3.95684 c -8.04088,2.17627 -14.88747,4.22453 -15.21464,4.5517 -0.69324,0.69324 -15.1765,95.73271 -15.21154,99.81846 l -0.0236,2.75 44.83333,0 c 24.65834,0 45.04322,-0.20988 45.29974,-0.46641 z m -46.34834,-5.07742 c -0.3934,-0.39603 -1.01358,-3.35677 -1.37818,-6.57943 l -0.66292,-5.85938 -4.12181,0.62903 c -2.267,0.34596 -6.82182,1.46125 -10.12182,2.47842 -3.3,1.01716 -7.17681,1.85519 -8.61514,1.86229 -2.64364,0.013 -7.88486,-3.35023 -7.88486,-5.05968 0,-0.51008 3.34844,-0.92742 7.44098,-0.92742 4.09254,0 7.65824,-0.35152 7.92377,-0.78116 0.82415,-1.33351 -2.33639,-14.53002 -3.89146,-16.24835 -2.43882,-2.69487 -1.85338,-4.30064 1.27671,-3.50185 3.2222,0.82229 8.06207,0.82167 14,-0.002 3.4411,-0.47721 4.25,-0.98329 4.25,-2.65896 0,-1.85712 -0.38495,-1.99318 -3.75,-1.32546 -5.63927,1.119 -8.31146,0.88469 -10.07999,-0.88384 -0.87922,-0.87922 -1.16465,-1.63114 -0.6343,-1.67094 0.53036,-0.0398 3.51929,-0.21815 6.64206,-0.39634 3.12277,-0.17819 6.16027,-0.62219 6.75,-0.98666 1.53191,-0.94677 1.3239,-4.15012 -0.38015,-5.85416 -1.81509,-1.8149 -1.00279,-2.69028 2.4966,-2.69028 3.50401,0 5.21747,2.10916 4.39043,5.40435 -0.74251,2.95841 -0.5631,3.01402 4.6676,1.44687 4.1473,-1.24256 6.89775,-0.0932 6.89775,2.88252 0,1.155 -0.77138,1.34413 -3.44012,0.84347 -4.8039,-0.90122 -8.55988,0.20945 -8.55988,2.5312 0,2.24013 2.40364,2.4273 10.06666,0.78387 6.25499,-1.34145 9.14884,-0.31001 11.41267,4.06775 1.47825,2.85862 1.44864,3.21839 -0.47956,5.82642 -1.13031,1.52881 -2.32653,4.45229 -2.65828,6.49661 l -0.60318,3.71694 4.55827,0 c 3.72566,0 4.93434,0.47811 6.61722,2.61754 3.62247,4.60523 1.18488,5.42461 -8.57511,2.88246 -3.16739,-0.825 -9.01895,-1.5 -13.00348,-1.5 l -7.24458,0 -0.5905,3.75 c -1.00125,6.35851 -1.9681,9.45845 -2.7154,8.70617 z m -3.03473,-16.00816 c 2.71391,-0.83641 1.19685,-2.59525 -1.69135,-1.96089 -2.87404,0.63124 -7.82616,-1.05295 -6.62572,-2.25338 0.33232,-0.33232 2.47173,-0.85836 4.75425,-1.16898 2.28251,-0.31062 4.35942,-1.19556 4.61535,-1.96655 0.36178,-1.08984 -0.25029,-1.25866 -2.75046,-0.75862 -3.19187,0.63837 -7.05207,-0.61018 -7.05207,-2.28094 0,-0.47903 2.25,-1.18043 5,-1.55865 3.41605,-0.46983 5,-1.15255 5,-2.15511 0,-1.18697 -0.90785,-1.32716 -4.75,-0.73348 -2.6125,0.40367 -5.5375,0.68421 -6.5,0.62342 -2.10655,-0.13305 -2.21857,1.87617 -0.55396,9.93544 l 1.19604,5.79067 4.05396,-0.56384 c 2.22968,-0.31012 4.61646,-0.7372 5.30396,-0.94909 z m 20.84675,-7.44801 c 1.03704,-5.65622 0.98427,-6.73419 -0.40645,-8.3041 -1.18209,-1.33438 -2.52143,-1.66966 -5.14424,-1.28776 -1.95033,0.28398 -4.78356,0.53332 -6.29606,0.55409 -1.85827,0.0255 -2.75,0.56561 -2.75,1.66558 0,1.33409 0.7088,1.51446 3.92823,0.99966 2.88136,-0.46075 4.34711,-0.20928 5.5,0.94362 2.66368,2.66368 1.78702,3.42891 -3.92823,3.42891 -4.35753,0 -5.5,0.32984 -5.5,1.5879 0,1.30078 0.72951,1.46465 4.03459,0.90626 4.17865,-0.70598 6.96541,0.51669 6.96541,3.05603 0,0.98433 -1.35247,1.16572 -5.5,0.73765 -4.71588,-0.48672 -5.5,-0.32734 -5.5,1.11795 0,1.44254 0.96645,1.64295 6.70251,1.3899 l 6.7025,-0.29569 1.19174,-6.5 z m -22.181,-30.67418 c -2.55935,-2.75064 -2.57325,-2.83432 -0.52252,-3.14537 1.9393,-0.29415 2.10677,-0.95277 2.10677,-8.28519 0,-7.65575 -0.0778,-7.92399 -2,-6.89526 -1.1,0.5887 -2,1.97246 -2,3.07502 0,3.85425 -3.86348,9.43305 -8.85076,12.78033 -5.55821,3.73046 -7.14924,3.49973 -7.14924,-1.03681 0,-2.40379 0.28057,-2.83058 1.30297,-1.98206 0.95916,0.79603 2.13376,0.57614 4.45145,-0.83333 2.97352,-1.8083 6.94966,-7.6324 5.91622,-8.66584 -0.26226,-0.26226 -2.39064,0.49952 -4.72975,1.69284 -3.29238,1.67965 -4.93401,1.97435 -7.26856,1.30481 -4.88499,-1.401 -4.12942,-2.8957 2.0546,-4.06449 9.87063,-1.86558 11.56393,-2.83534 11.05117,-6.32903 -0.34616,-2.3585 -0.0956,-2.95741 1.13906,-2.72236 0.87056,0.16574 1.72653,1.3084 1.90214,2.53923 0.26761,1.8756 0.63186,2.07061 2.25,1.2046 1.47145,-0.7875 1.9307,-2.11094 1.9307,-5.56384 0,-2.4918 -0.48646,-5.43951 -1.08102,-6.55046 -1.51104,-2.8234 -0.29172,-3.5707 2.88772,-1.76982 2.48283,1.40631 2.66565,1.94223 2.33951,6.85783 -0.34322,5.17302 -0.28323,5.31459 2.00831,4.73945 3.6605,-0.91873 4.55253,0.32972 5.02761,7.03646 0.56416,7.96426 2.47757,10.28747 8.47286,10.28747 l 4.34501,0 0.0391,-4.75 0.0391,-4.75 1.41903,3.26533 c 0.78047,1.79594 2.11286,3.53158 2.96086,3.85699 2.2678,0.87024 1.87616,4.12838 -0.65936,5.48535 -3.33485,1.78476 -12.27021,1.4687 -15.33983,-0.54259 -3.33651,-2.18616 -5.45898,-7.24123 -5.45898,-13.00158 0,-3.54639 -0.31131,-4.38127 -1.46813,-3.93735 -1.14363,0.43885 -1.53044,3.01105 -1.75,11.63713 -0.31384,12.32983 -1.09638,13.65143 -5.36612,9.06254 z m 18.83425,-13.10081 c -2.88884,-0.46749 -2.89196,-1.82387 -0.006,-2.57859 2.53445,-0.66277 5.9613,1.73886 3.58346,2.5114 -0.73017,0.23721 -2.34006,0.26745 -3.57756,0.0672 z m -2.7509,-7.75708 c 2.13312,-1.6568 7.0009,-1.63451 7.0009,0.0321 0,0.55 -2.025,1.11714 -4.5,1.26032 -4.24026,0.24529 -4.38461,0.1707 -2.5009,-1.29239 z m -30.27407,-3.87972 c 4.51414,-3.18275 6.44632,-6.31686 4.86761,-7.89557 -1.73717,-1.73717 -1.28123,-2.69264 1.28492,-2.69264 1.30765,0 2.97339,0.71794 3.70163,1.59542 2.66046,3.20565 -3.39933,9.81925 -10.07919,11.00033 l -3.5,0.61884 3.72503,-2.62638 z m 27.27497,-2.79603 c -3.29768,-1.89121 -4.43469,-4.06493 -4.4682,-8.54218 -0.0175,-2.3375 -0.43266,-4.25 -0.9226,-4.25 -0.48993,0 -2.78221,0.84681 -5.09395,1.88181 -4.66961,2.09065 -7.04486,1.84794 -9.60547,-0.98151 -1.6555,-1.82929 -1.60069,-1.9003 1.46678,-1.9003 1.75259,0 5.93251,-0.92505 9.28871,-2.05568 8.26583,-2.78455 9.23193,-2.27896 8.39808,4.39496 -0.54836,4.38886 -0.33139,5.72562 1.24538,7.67284 1.67571,2.06941 2.3197,2.24037 5.26146,1.39668 2.27955,-0.65377 3.57256,-1.75283 4.04125,-3.43508 0.37906,-1.36054 0.73406,-1.91122 0.78888,-1.22372 0.0548,0.6875 0.98361,2.13393 2.06397,3.21429 1.76633,1.76633 1.80952,2.11904 0.42857,3.5 -1.824,1.82399 -9.9249,2.03002 -12.89286,0.32789 z m 0.99668,-6.7868 c 1.16443,-1.88409 4.06611,-2.89476 5.5572,-1.93561 1.25492,0.80724 1.2478,1.06042 -0.0539,1.91492 -1.96399,1.28927 -6.29742,1.30557 -5.50332,0.0207 z m -0.49668,-5.75322 c 0,-1.73409 5.93843,-3.71373 7.23897,-2.41319 1.50769,1.50769 0.71064,2.13267 -3.61507,2.83464 -2.16041,0.35058 -3.6239,0.18038 -3.6239,-0.42145 z"
         id="path3004"
         inkscape:connector-curvature="0" />
      <path
         style="fill:#4f4f4f"
         d="m 654.47568,824.27917 c 0,-0.97872 15.02292,-101.04179 15.55423,-103.60193 0.50614,-2.43888 1.54905,-2.87175 16.50512,-6.85065 l 15.96484,-4.24727 15.72696,4.17304 c 8.64983,2.29518 15.93569,4.38177 16.19079,4.63687 0.42604,0.42604 15.95396,102.29797 16.02627,105.14139 0.025,0.98308 -10.21792,1.25 -47.96821,1.25 -26.4,0 -48,-0.22565 -48,-0.50145 z m 93.54563,-3.74855 c -0.27086,-1.2375 -3.71709,-24.3 -7.65828,-51.25 -3.9412,-26.95 -7.2757,-49.13504 -7.41001,-49.3001 -0.13431,-0.16505 -6.93416,-2.1095 -15.11077,-4.321 l -14.86657,-4.02091 -14.5,3.71578 c -7.975,2.04368 -14.99236,4.21313 -15.59412,4.82101 -0.60177,0.60787 -4.35558,23.15522 -8.34179,50.10522 -3.98621,26.95 -7.46168,49.7875 -7.72326,50.75 -0.44795,1.64823 2.20447,1.75 45.61083,1.75 l 46.08644,0 -0.49247,-2.25 z m -46.84557,-3.43347 c -0.27511,-0.44909 -0.82445,-3.42346 -1.22075,-6.60971 l -0.72055,-5.79319 -4.62938,0.65994 c -2.54616,0.36297 -7.08878,1.5074 -10.09472,2.54318 -3.00594,1.03579 -6.65775,1.88325 -8.11514,1.88325 -2.67546,0 -7.91952,-3.3589 -7.91952,-5.07258 0,-0.51008 3.34844,-0.92742 7.44098,-0.92742 4.09254,0 7.66974,-0.37014 7.94934,-0.82253 0.84035,-1.35972 -2.13241,-13.85422 -3.95986,-16.64326 -2.07471,-3.1664 -1.41583,-4.0291 2.27297,-2.9761 2.90502,0.82926 9.78833,0.74302 14.54657,-0.18226 1.93251,-0.37579 2.75,-1.14458 2.75,-2.58615 0,-1.83173 -0.40154,-1.97435 -3.75,-1.33193 -5.38975,1.03404 -8.47944,0.74136 -10.18569,-0.96489 -1.32384,-1.32384 -1.044,-1.49413 2.4714,-1.50389 2.18036,-0.006 5.69324,-0.29665 7.80639,-0.64578 3.47263,-0.57374 3.79876,-0.88522 3.39143,-3.239 -0.24787,-1.43231 -0.78746,-3.39171 -1.19909,-4.35421 -0.58135,-1.35935 -0.2634,-1.75 1.42431,-1.75 4.14751,0 6.0388,1.76224 5.38731,5.0197 -0.66131,3.30654 0.98449,3.94413 4.84617,1.87742 2.54273,-1.36083 6.80777,0.28483 6.80777,2.62675 0,1.24842 -0.70981,1.43359 -3.49343,0.91138 -4.92921,-0.92472 -8.50657,0.16187 -8.50657,2.5838 0,2.36456 3.15007,2.60357 10.85968,0.82398 4.29925,-0.99238 5.37473,-0.91946 7.56041,0.51265 3.65151,2.39256 4.17355,5.78658 1.68176,10.93392 -2.98196,6.15992 -2.76886,8.40499 0.87375,9.20504 1.63658,0.35945 3.36325,0.41398 3.83703,0.12116 1.4183,-0.87656 5.18737,2.35014 5.18737,4.4409 0,2.35699 -1.38083,2.41762 -9.15865,0.40219 -3.58539,-0.92907 -9.00415,-1.4255 -13.64434,-1.25 l -7.69701,0.29111 -0.62198,5.78864 c -0.62479,5.8149 -1.24941,7.54364 -2.17796,6.02789 z m -4.07506,-15.31653 c 1.43935,0 2.375,-0.5881 2.375,-1.4928 0,-1.1032 -1.05301,-1.45154 -4.03471,-1.33471 -5.65241,0.22149 -7.44674,-1.8292 -2.34554,-2.68065 5.48418,-0.91538 6.38025,-1.27688 6.38025,-2.57395 0,-0.72629 -1.18829,-0.96435 -3.25,-0.65112 -3.27214,0.49713 -6.75,-0.62254 -6.75,-2.17312 0,-0.4598 2.25,-1.13446 5,-1.49926 3.63498,-0.4822 5,-1.0991 5,-2.25968 0,-1.28825 -0.72384,-1.47675 -3.75,-0.97656 -2.0625,0.34091 -4.9875,0.62479 -6.5,0.63084 -3.22302,0.0129 -3.40378,1.22532 -1.53307,10.28243 1.19355,5.77856 1.27284,5.88063 4.125,5.31019 1.59944,-0.31988 3.97682,-0.58161 5.28307,-0.58161 z m 22.11295,-7.67968 c 1.25169,-7.30732 0.94108,-8.97003 -1.84066,-9.85292 -3.42029,-1.08556 -12.89729,0.58943 -12.89729,2.27949 0,1.188 0.85306,1.40203 3.93858,0.98817 2.94383,-0.39485 4.33295,-0.0925 5.5,1.19707 2.38758,2.63825 2.00215,2.94475 -4.10958,3.26797 -3.77397,0.19958 -5.82614,0.76969 -6.1348,1.7043 -0.37404,1.1326 0.46154,1.27757 4.31741,0.74906 4.82694,-0.6616 7.48839,0.33399 7.48839,2.80126 0,0.85155 -1.59056,1.07792 -5.37106,0.76442 -3.32913,-0.27608 -5.6326,-0.0222 -6.05902,0.66772 -1.30511,2.11172 0.2562,2.61206 7.14134,2.28854 l 6.90807,-0.3246 1.11862,-6.53048 z m -22.3222,-30.9945 c -2.55935,-2.75064 -2.57325,-2.83432 -0.52252,-3.14537 1.9393,-0.29415 2.10677,-0.95277 2.10677,-8.28519 0,-7.65575 -0.0778,-7.92399 -2,-6.89526 -1.1,0.5887 -2,1.98412 -2,3.10092 0,5.59207 -9.0267,14.89908 -14.45034,14.89908 -1.06868,0 -1.54966,-0.96913 -1.54966,-3.12245 0,-2.45227 0.27966,-2.89035 1.30297,-2.04107 1.83265,1.52096 7.14565,-1.86956 9.22222,-5.88519 0.89225,-1.72543 1.43364,-3.32579 1.20308,-3.55635 -0.23056,-0.23056 -2.42924,0.46994 -4.88596,1.55666 -3.20784,1.41898 -5.29476,1.75443 -7.40454,1.19019 -4.53878,-1.21386 -3.50747,-2.52935 2.98801,-3.81137 9.23116,-1.82196 10.87357,-2.83747 10.35071,-6.39993 -0.34461,-2.34794 -0.0929,-2.94626 1.14067,-2.71141 0.87056,0.16574 1.72664,1.30925 1.90239,2.54114 0.35429,2.48323 0.36496,2.48994 2.59866,1.63279 1.19227,-0.45751 1.58179,-2.04363 1.58179,-6.44098 0,-3.2087 -0.45734,-6.11665 -1.01631,-6.46211 -1.59407,-0.98519 -0.11546,-2.47051 1.79833,-1.80651 3.09875,1.07513 3.94134,3.1402 3.43431,8.41696 -0.47297,4.92237 -0.41301,5.07526 1.57354,4.01209 3.79999,-2.0337 5.21013,-0.44776 5.21013,5.85967 0,6.58772 2.25725,10.46157 6.57702,11.28734 4.95618,0.94744 6.4201,-0.10197 6.45339,-4.6261 0.0262,-3.56629 0.18217,-3.85898 1.13657,-2.13337 0.60839,1.1 1.95742,2.94254 2.99786,4.09454 3.7073,4.10483 0.60024,6.36676 -8.77998,6.3918 -8.39277,0.0224 -12.36411,-4.89223 -12.37928,-15.31967 -0.004,-2.61889 -0.4016,-3.70226 -1.25558,-3.41961 -0.86103,0.28499 -1.40559,3.94223 -1.75,11.75294 -0.55503,12.58708 -1.3361,13.8915 -5.58425,9.32582 z m 16.58425,-14.20919 c 0,-1.07556 3.0291,-1.94956 4.75,-1.37054 2.37201,0.79809 1.24167,2.25391 -1.75,2.25391 -1.65,0 -3,-0.39752 -3,-0.88337 z m -0.44113,-6.58483 c 2.17525,-1.64527 6.03228,-2.00234 6.87637,-0.63659 0.72316,1.17009 -1.81173,2.10479 -5.70816,2.10479 -2.94867,0 -3.00903,-0.0759 -1.16821,-1.4682 z m -30.8632,-3.4878 c 4.56058,-2.78076 6.91489,-6.60339 5.28012,-8.57317 -0.69344,-0.83554 -0.99262,-1.78733 -0.66486,-2.11509 1.01,-1.01001 5.7417,0.61783 6.34184,2.18178 0.90641,2.36205 -2.45858,6.47111 -6.98073,8.52431 -5.4624,2.48011 -8.05405,2.46849 -3.97637,-0.0178 z m 29.30433,-2.75023 c -3.82992,-1.40005 -6,-4.64363 -6,-8.96808 0,-4.7138 -0.85341,-5.19609 -5,-2.82569 -3.51825,2.01122 -7.37806,1.83354 -10.13922,-0.46673 l -2.36078,-1.96673 3.28155,-0.0333 c 1.80485,-0.0183 6.02752,-0.95832 9.38372,-2.08895 8.18709,-2.75803 9.20329,-2.2595 8.33045,4.08678 -1.09638,7.97164 2.79262,12.02569 8.57002,8.93372 1.06384,-0.56936 1.93426,-1.75504 1.93426,-2.63486 0,-1.15193 0.5598,-0.88801 2,0.94291 1.1,1.39842 2,2.98163 2,3.51823 0,1.8417 -8.24739,2.87446 -12,1.50267 z m 0.44113,-7.82557 c 2.14363,-1.62137 5.55887,-1.97475 5.55887,-0.57519 0,1.13332 -2.52569,2.11635 -5.33179,2.07519 -2.12165,-0.0311 -2.12652,-0.0633 -0.22708,-1.5 z m -0.98855,-5.39147 c 1.18088,-1.91071 5.7128,-3.31135 6.89359,-2.13056 1.37237,1.37237 0.83128,1.7489 -3.74073,2.60306 -2.91592,0.54476 -3.70818,0.42603 -3.15286,-0.4725 z"
         id="path3002"
         inkscape:connector-curvature="0" />
      <path
         style="fill:#2e2e2e"
         d="m 654.95529,821.53062 c 0.31363,-1.7875 3.91633,-25.69481 8.006,-53.12735 4.08967,-27.43254 7.56595,-49.99767 7.72507,-50.14473 0.15913,-0.14706 7.38848,-2.12671 16.06524,-4.39922 l 15.77591,-4.13184 15.92624,4.17051 c 14.94721,3.91413 15.9595,4.33071 16.46712,6.77657 0.53167,2.56175 15.55481,102.6251 15.55481,103.60461 0,0.2758 -21.62039,0.50145 -48.04531,0.50145 l -48.04532,0 0.57024,-3.25 z m 93.12801,-1.5 c -0.30321,-1.5125 -3.76223,-24.575 -7.68672,-51.25 -3.92448,-26.675 -7.58296,-48.77987 -8.12994,-49.12192 -0.54699,-0.34206 -7.46545,-2.31434 -15.37435,-4.38284 l -14.37983,-3.76092 -14.58198,3.86312 c -8.02009,2.12472 -14.91424,4.097 -15.32034,4.38284 -0.4061,0.28585 -4.02035,22.56972 -8.03167,49.51972 -4.01132,26.95 -7.52422,50.0125 -7.80646,51.25 l -0.51315,2.25 46.18787,0 46.18786,0 -0.55129,-2.75 z m -46.92563,-4.25 c -0.29298,-0.825 -0.82574,-3.68343 -1.18392,-6.35206 l -0.65123,-4.85206 -4.53938,0.68072 c -2.49666,0.3744 -7.24583,1.54533 -10.5537,2.60206 -3.30787,1.05674 -7.02,1.92134 -8.24917,1.92134 -2.29958,0 -7.50459,-3.47275 -7.50459,-5.00702 0,-0.47402 3.3563,-0.79765 7.45843,-0.71919 4.10214,0.0785 7.73339,-0.13228 8.06945,-0.46834 1.02199,-1.02199 -1.64681,-13.08366 -3.69099,-16.68148 -2.27424,-4.00275 -1.9004,-4.68451 1.86206,-3.3958 2.66031,0.9112 6.80338,0.81931 14.05105,-0.31165 2.58514,-0.4034 3.25,-0.98092 3.25,-2.8231 0,-2.22091 -0.17955,-2.27487 -4.37481,-1.31486 -4.58983,1.0503 -9.62519,0.37146 -9.62519,-1.29761 0,-0.53952 1.74375,-0.98095 3.875,-0.98095 2.13125,0 5.28125,-0.28125 7,-0.625 2.61221,-0.52244 3.125,-1.08708 3.125,-3.44098 0,-1.54879 -0.45734,-3.09864 -1.01631,-3.4441 -1.46458,-0.90516 -0.18915,-2.48992 2.0039,-2.48992 2.83224,0 4.82314,2.53929 4.26795,5.44355 -0.54678,2.86031 1.29492,3.40259 4.93669,1.45357 2.42476,-1.29769 6.80777,0.24443 6.80777,2.39525 0,1.01353 -1.44567,1.23068 -6,0.90125 -5.99018,-0.43329 -6,-0.42948 -6,2.32865 l 0,2.76264 6.25,-0.78975 c 9.39452,-1.18708 11.92477,-0.97658 13.45799,1.11965 2.33462,3.1919 2.66155,6.31937 0.86779,8.30146 -0.9137,1.00962 -1.93322,3.51152 -2.26561,5.55978 -0.71614,4.41309 0.44518,5.48624 5.96127,5.50864 3.0464,0.0124 3.99079,0.49673 4.91244,2.51954 0.62755,1.37732 0.85912,2.7861 0.5146,3.13062 -0.34452,0.34452 -3.5476,-0.10738 -7.11796,-1.00422 -3.57035,-0.89685 -10.33657,-1.63063 -15.03604,-1.63063 l -8.54448,0 -0.0703,4.25 c -0.0839,5.07605 -1.41872,9.08442 -2.24773,6.75 z m -3.43199,-13.98899 c 0.9625,-0.006 1.75,-0.68601 1.75,-1.51101 0,-1.11111 -1.16667,-1.5 -4.5,-1.5 -5.81738,0 -5.81738,-1.6799 0,-2.55227 5.85591,-0.87815 6.0665,-3.21728 0.32772,-3.64023 -4.4184,-0.32564 -6.74973,-2.79723 -2.66105,-2.82115 4.00438,-0.0234 6.83333,-1.15732 6.83333,-2.73891 0,-1.23212 -0.87695,-1.39909 -4.63957,-0.88336 -2.55176,0.34975 -5.73209,0.63592 -7.06739,0.63592 -1.8224,0 -2.31205,0.43639 -1.96356,1.75 0.25534,0.9625 1.03218,4.60977 1.72632,8.10505 l 1.26207,6.35505 3.59107,-0.59404 c 1.97508,-0.32673 4.37856,-0.599 5.34106,-0.60505 z m 16.67189,-1.01101 3.67188,0 1.14369,-6.67678 c 1.66449,-9.71722 0.87603,-10.7631 -7.52268,-9.97882 -5.98061,0.55848 -8.78032,1.93152 -7.65412,3.75374 0.23578,0.3815 1.98152,0.34342 3.87943,-0.0846 2.44025,-0.55036 4.05241,-0.35685 5.50533,0.66081 2.75162,1.92731 2.6343,3.71055 -0.19542,2.97051 -3.5962,-0.94049 -9.75,0.39687 -9.75,2.1189 0,1.2098 0.88103,1.38736 4.45401,0.89763 3.45796,-0.47397 4.84156,-0.22483 6.18704,1.11407 1.64195,1.63392 1.44725,1.74072 -3.704,2.03185 -5.75701,0.32537 -7.63139,1.26023 -6.42864,3.20633 0.45087,0.72952 1.89319,0.95607 3.73787,0.58713 1.65205,-0.33044 4.65607,-0.60077 6.67561,-0.60077 z m -17.49151,-37.65839 c -2.57102,-2.76325 -2.58583,-2.85042 -0.53715,-3.16116 1.93596,-0.29364 2.10677,-0.95494 2.10677,-8.15638 0,-7.18672 -0.15646,-7.79592 -1.88608,-7.34361 -1.28187,0.33522 -2.08519,1.73844 -2.50764,4.38029 -0.68792,4.30201 -5.2671,10.19537 -9.70506,12.49033 -4.43567,2.29378 -5.90122,1.87816 -5.90122,-1.67353 0,-2.51056 0.265,-2.90251 1.35231,-2.00012 2.6263,2.17964 12.70099,-7.15747 10.3065,-9.55195 -0.43336,-0.43336 -2.14534,-0.009 -3.80441,0.9433 -3.21476,1.84502 -8.47475,2.25797 -10.71116,0.84091 -1.7647,-1.11817 -0.65014,-1.71626 4.85676,-2.60622 2.475,-0.39998 6.0138,-1.35036 7.864,-2.11196 2.96832,-1.22185 3.31144,-1.74282 2.91715,-4.42925 -0.3491,-2.37856 -0.1006,-2.97861 1.13601,-2.74318 0.87056,0.16574 1.72664,1.30925 1.90239,2.54114 0.35429,2.48323 0.36496,2.48994 2.59866,1.63279 1.94463,-0.74622 2.25074,-11.32406 0.38179,-13.19301 -0.93333,-0.93333 -0.60782,-1.2 1.46482,-1.2 3.5491,0 4.84066,2.59845 3.7329,7.51011 -1.04706,4.64252 -0.51759,5.83848 1.99053,4.49618 3.40682,-1.82328 4.94335,-0.25344 4.73159,4.83416 -0.27657,6.64468 1.73583,10.8248 5.86778,12.18847 5.37516,1.77396 7.40692,0.58749 7.44279,-4.34631 0.0262,-3.60235 0.18387,-3.90515 1.13657,-2.18261 0.60839,1.1 2.0572,3.05073 3.21959,4.33495 l 2.11343,2.33495 -2.36078,1.91505 c -1.59745,1.29584 -3.92062,1.91505 -7.1849,1.91505 -9.73631,0 -13.06035,-3.24554 -13.2839,-12.9702 -0.14036,-6.10535 -0.3426,-6.47656 -2.97762,-5.46541 -1.21014,0.46437 -1.3785,2.37266 -0.95001,10.76819 0.43642,8.551 0.26248,10.41816 -1.07385,11.52722 -1.36408,1.13208 -1.9769,0.91258 -4.23856,-1.51819 z m 16.56962,-14.34161 c 0,-0.55 1.35,-1 3,-1 1.65,0 3,0.45 3,1 0,0.55 -1.35,1 -3,1 -1.65,0 -3,-0.45 -3,-1 z m 0.44113,-6.48237 c 2.35026,-1.8375 5.88904,-2.01569 5.31519,-0.26763 -0.22569,0.6875 -1.95069,1.37043 -3.83333,1.51763 -3.23059,0.25259 -3.31388,0.18233 -1.48186,-1.25 z m -30.68493,-4.01951 c 4.28195,-3.48845 5.7338,-6.20278 4.26464,-7.97302 -1.42628,-1.71855 0.2355,-2.8959 2.89573,-2.05158 5.95009,1.88848 0.8549,9.6099 -7.91657,11.99702 -2.30364,0.62693 -2.24424,0.472 0.7562,-1.97242 z m 27.5521,-2.50772 c -3.36711,-1.35628 -5.51129,-5.3781 -5.16535,-9.68862 0.3387,-4.22023 -0.60421,-4.50707 -5.83946,-1.77639 -3.31562,1.72941 -5.72272,1.8558 -8.36923,0.43943 -3.14809,-1.68481 -2.24633,-2.64928 3.06519,-3.27835 2.74969,-0.32566 6.57104,-1.33788 8.49189,-2.24939 5.46283,-2.59228 6.59576,-1.56376 5.87486,5.33344 -0.49313,4.71801 -0.28473,6.16809 1.08301,7.53583 2.86622,2.86622 9.55079,1.48295 9.55079,-1.97639 0,-1.10844 0.66872,-0.74954 2.17762,1.16872 2.11185,2.68478 2.12118,2.80966 0.30887,4.13486 -2.08437,1.52413 -7.82532,1.70741 -11.17819,0.35686 z m 1.25057,-7.4586 c 2.15431,-1.62943 5.44113,-2.02113 5.44113,-0.64843 0,0.89936 -3.33046,2.07824 -5.94113,2.10297 -1.02275,0.01 -0.87759,-0.41258 0.5,-1.45454 z m -0.11774,-6.0636 c 2.11427,-1.59916 6.55887,-2.00114 6.55887,-0.5932 0,0.48125 -1.40625,1.15625 -3.125,1.5 -4.7101,0.94202 -5.57593,0.71337 -3.43387,-0.9068 z"
         id="path3000"
         inkscape:connector-curvature="0" />
      <path
         style="fill:#010101"
         d="m 654.93469,822.53062 c 0.27342,-1.2375 3.9032,-25.18371 8.06619,-53.2138 4.16299,-28.0301 7.66036,-51.01182 7.77194,-51.07051 0.11157,-0.0587 7.29036,-1.97587 15.95286,-4.2604 l 15.75,-4.1537 15.75,4.1537 c 8.6625,2.28453 15.87011,4.23054 16.01692,4.32445 0.1468,0.0939 3.62515,22.62565 7.72966,50.07051 4.1045,27.44486 7.71728,51.36225 8.02839,53.14975 l 0.56566,3.25 -48.06437,0 -48.06436,0 0.49711,-2.25 z m 93.54099,-0.25799 c 0,-3.04495 -15.22942,-102.09458 -15.76892,-102.55847 -0.4021,-0.34574 -7.25608,-2.35117 -15.23108,-4.45652 l -14.5,-3.8279 -15.37494,3.92544 c -8.45622,2.15899 -15.52465,4.37544 -15.70763,4.92544 -0.18298,0.55 -3.52009,22.375 -7.41581,48.5 -3.89571,26.125 -7.33986,48.9625 -7.65366,50.75 l -0.57054,3.25 46.11129,0 c 25.36121,0 46.11129,-0.2286 46.11129,-0.50799 z m -47.37646,-7.03067 c -0.34295,-0.8937 -0.63043,-3.05061 -0.63885,-4.79313 -0.032,-6.61291 -2.22375,-6.93289 -17.36887,-2.53566 -7.80563,2.26628 -11.55666,1.71502 -13.53941,-1.98978 -0.99605,-1.86113 -0.69729,-1.94567 6.35389,-1.79787 4.0695,0.0853 7.71725,-0.16217 8.10611,-0.54995 1.15639,-1.15316 -1.57489,-14.07978 -3.57756,-16.93192 -2.1879,-3.11593 -1.6478,-4.07547 1.59912,-2.84099 1.29378,0.4919 4.73501,0.6593 7.64718,0.37201 9.1087,-0.89859 9.79485,-1.1802 9.79485,-4.02009 0,-2.02771 -0.36904,-2.44632 -1.70479,-1.93375 -4.37072,1.6772 -9.88478,1.75926 -11.20643,0.16676 -1.19372,-1.43834 -0.82236,-1.6084 3.53878,-1.62063 7.5182,-0.0211 9.37244,-0.79323 9.37244,-3.90297 0,-1.47585 -0.48921,-3.17258 -1.08713,-3.7705 -1.55836,-1.55836 0.40748,-2.52156 3.54114,-1.73506 2.10193,0.52755 2.54599,1.23055 2.54599,4.0306 0,2.7609 0.38414,3.39159 2.06574,3.39159 1.13616,0 2.97359,-0.48587 4.08319,-1.0797 1.58163,-0.84647 2.43152,-0.70498 3.93426,0.65498 1.05424,0.95408 1.91763,2.00245 1.91863,2.32971 0.001,0.32725 -2.81149,0.59501 -6.25,0.59501 -6.00194,0 -6.25182,0.0999 -6.25182,2.5 0,1.90478 0.47618,2.44897 2,2.28565 1.1,-0.11789 5.44435,-0.51649 9.65411,-0.88577 l 7.6541,-0.67144 1.71023,3.30722 c 1.56603,3.02837 1.57773,3.53153 0.13873,5.96756 -0.86433,1.46319 -1.98678,4.50861 -2.49435,6.76762 -1.05943,4.71518 -0.47554,5.22916 5.94041,5.22916 3.23364,0 4.14412,0.44877 5.08065,2.50423 0.62755,1.37732 0.84936,2.79586 0.49292,3.1523 -0.35645,0.35645 -3.46704,-0.10799 -6.91244,-1.03208 -3.4454,-0.92409 -10.08713,-1.78013 -14.7594,-1.90231 l -8.49504,-0.22214 -0.62694,5.78864 c -0.68181,6.29531 -1.29232,7.69299 -2.25944,5.1727 z m -5.37354,-13.10319 c 5.50291,-0.90957 4.95605,-3.35815 -0.75,-3.35815 -5.81388,0 -5.81388,-1.57588 0,-2.44773 3.28962,-0.49331 4.50035,-1.12904 4.50129,-2.36354 9.9e-4,-1.28509 -0.89534,-1.68873 -3.75,-1.68873 -3.98644,0 -6.12114,-1.76533 -2.75129,-2.27524 5.12978,-0.77621 6.5,-1.37917 6.5,-2.86031 0,-1.37612 -0.93522,-1.49836 -6.75,-0.88232 -3.7125,0.39332 -6.9131,0.87135 -7.11244,1.06228 -0.19935,0.19093 0.39385,3.74655 1.31821,7.90137 1.81491,8.15767 1.71852,8.08191 8.79423,6.91237 z m 17.36181,-0.98977 5.11182,-0.61423 1.23461,-6.90843 c 1.53923,-8.61303 0.78608,-9.84572 -6.01559,-9.84572 -5.84253,0 -9.94265,1.42522 -9.94265,3.45612 0,1.20845 0.88541,1.38426 4.48606,0.89074 2.95695,-0.4053 5.0021,-0.18661 6,0.64157 2.17307,1.80349 1.86553,3.25793 -0.52823,2.49818 -3.27649,-1.03991 -9.95783,0.45723 -9.95783,2.23134 0,1.23418 0.89073,1.44176 4.46024,1.03942 3.51609,-0.39631 4.81897,-0.10632 6.15498,1.36995 1.63891,1.81097 1.49193,1.87268 -4.46023,1.87268 -5.48832,0 -6.15499,0.21663 -6.15499,2 0,2.21763 1.16447,2.38341 9.61181,1.36838 z m -15.95682,-38.19712 c -1.97096,-2.17788 -2.12161,-3.26458 -0.40499,-2.92126 0.90244,0.18049 1.33131,-2.07819 1.54243,-8.12327 0.25796,-7.38608 0.10095,-8.29979 -1.33178,-7.75 -0.89333,0.3428 -1.81242,0.62327 -2.04244,0.62327 -0.23001,0 -0.41821,0.91793 -0.41821,2.03984 0,3.63985 -3.95541,9.91531 -8.1772,12.97356 -5.54137,4.01415 -7.8228,3.95191 -7.8228,-0.2134 0,-2.48889 0.26667,-2.93333 1.2,-2 1.68155,1.68155 2.23688,1.54471 5.75919,-1.41912 3.1182,-2.62378 6.60701,-8.14801 5.71145,-9.04357 -0.26226,-0.26226 -2.30251,0.45456 -4.5339,1.59293 -4.31316,2.20041 -8.6911,2.63717 -11.10872,1.10824 -1.70263,-1.07676 -2.31518,-0.82849 8.4296,-3.4165 7.54307,-1.81684 8.77754,-2.83683 7.85964,-6.49405 -0.44248,-1.76298 -0.23512,-2.26853 0.79161,-1.92998 0.76512,0.25229 1.53493,1.43596 1.71068,2.63038 0.3548,2.4112 0.36954,2.42008 2.59866,1.56468 1.94463,-0.74622 2.25074,-11.32406 0.38179,-13.19301 -0.93333,-0.93333 -0.76667,-1.1966 0.75,-1.18469 4.00718,0.0315 4.75302,1.40386 4.00716,7.3735 -0.58114,4.65131 -0.44226,5.61119 0.81187,5.61119 0.83211,0 1.76494,-0.40775 2.07295,-0.90612 0.30801,-0.49837 1.49792,-0.66085 2.64425,-0.36108 1.76338,0.46113 1.98759,1.06017 1.45647,3.8913 -1.05535,5.6255 1.04194,11.21018 4.901,13.05044 2.03752,0.97163 4.36381,1.3396 5.95078,0.9413 2.29237,-0.57535 2.60626,-1.16245 2.61168,-4.88489 l 0.006,-4.23095 1.51511,2.90531 c 0.83332,1.59793 2.29305,3.48292 3.24384,4.18889 1.59065,1.18104 1.59994,1.41438 0.11631,2.92138 -1.95134,1.98209 -8.44033,2.97851 -13.37194,2.05333 -5.01353,-0.94054 -7.50698,-5.21864 -7.5119,-12.88846 -0.004,-5.46221 -0.1419,-5.79993 -2.25374,-5.5 -2.16926,0.30808 -2.23819,0.63773 -1.92092,9.18638 0.48525,13.07452 -0.98633,16.43186 -5.17409,11.80443 z m 17.34501,-14.17126 c 0,-0.55 1.125,-1 2.5,-1 1.375,0 2.5,0.45 2.5,1 0,0.55 -1.125,1 -2.5,1 -1.375,0 -2.5,-0.45 -2.5,-1 z m -0.55887,-6.5318 c 2.13688,-1.61626 5.55887,-1.97627 5.55887,-0.58483 0,0.9225 -3.41809,2.10241 -6,2.07117 -1.13857,-0.0138 -1.03228,-0.37192 0.44113,-1.48634 z m -28.51084,-5.89628 c 2.64361,-2.72751 3.19071,-3.95368 2.67712,-6 -0.71634,-2.85412 0.11175,-3.22898 2.79643,-1.26589 2.67685,1.95736 1.6353,5.76279 -2.30172,8.40961 -5.27449,3.54598 -7.08463,2.89327 -3.17183,-1.14372 z m 25.3121,-1.01375 c -3.86031,-1.73962 -5.5379,-5.46606 -4.63278,-10.29078 0.62233,-3.3173 0.53881,-3.45024 -1.72783,-2.74992 -1.30998,0.40475 -3.59693,1.35389 -5.08212,2.10921 -3.68556,1.87438 -6.17267,1.72361 -8.18133,-0.49593 -1.62683,-1.79762 -1.50566,-1.88712 3.1624,-2.33566 2.66973,-0.25653 6.36563,-1.22049 8.21312,-2.14213 1.84748,-0.92165 4.16991,-1.41837 5.16095,-1.10383 1.55812,0.49453 1.72064,1.34922 1.20133,6.31774 -0.48292,4.62029 -0.26879,6.07761 1.09308,7.43948 3.04472,3.04472 9.53037,1.91878 9.5812,-1.66334 0.0299,-2.1075 0.0492,-2.10987 1.16453,-0.14301 0.62378,1.1 1.61883,2.31876 2.21124,2.70836 1.79524,1.18064 -0.77135,2.90543 -5.0351,3.38365 -2.19336,0.24601 -5.28292,-0.20205 -7.12869,-1.03384 z m 1.63005,-6.88476 c 1.4899,-1.81661 5.12756,-2.29436 5.12756,-0.67341 0,0.55 -0.3375,1.00614 -0.75,1.01365 -0.4125,0.007 -1.875,0.31055 -3.25,0.67342 -2.24467,0.59238 -2.35983,0.48885 -1.12756,-1.01366 z m -0.43131,-6.09919 c 2.15618,-1.74862 6.55887,-2.13407 6.55887,-0.57422 0,0.55 -0.7875,1.00614 -1.75,1.01365 -0.9625,0.007 -2.875,0.26591 -4.25,0.57422 -2.4129,0.54104 -2.43237,0.50572 -0.55887,-1.01365 z"
         id="path2998"
         inkscape:connector-curvature="0" />
    </g>
  </g>
</svg>
