<?xml version="1.0" encoding="UTF-8" standalone="no"?>
<!-- Created with Inkscape (http://www.inkscape.org/) -->

<svg
   xmlns:dc="http://purl.org/dc/elements/1.1/"
   xmlns:cc="http://creativecommons.org/ns#"
   xmlns:rdf="http://www.w3.org/1999/02/22-rdf-syntax-ns#"
   xmlns:svg="http://www.w3.org/2000/svg"
   xmlns="http://www.w3.org/2000/svg"
   xmlns:sodipodi="http://sodipodi.sourceforge.net/DTD/sodipodi-0.dtd"
   xmlns:inkscape="http://www.inkscape.org/namespaces/inkscape"
   width="42.324329"
   height="50"
   id="svg2"
   version="1.1"
   inkscape:version="0.48.3.1 r9886"
   sodipodi:docname="Shogi_kakugyo(svg).svg">
  <defs
     id="defs4" />
  <sodipodi:namedview
     id="base"
     pagecolor="#ffffff"
     bordercolor="#666666"
     borderopacity="1.0"
     inkscape:pageopacity="0.0"
     inkscape:pageshadow="2"
     inkscape:zoom="1.979899"
     inkscape:cx="48.102514"
     inkscape:cy="70.705884"
     inkscape:document-units="px"
     inkscape:current-layer="layer1"
     showgrid="false"
     fit-margin-top="0"
     fit-margin-left="0"
     fit-margin-right="0"
     fit-margin-bottom="0"
     inkscape:window-width="923"
     inkscape:window-height="588"
     inkscape:window-x="1050"
     inkscape:window-y="937"
     inkscape:window-maximized="0" />
  <metadata
     id="metadata7">
    <rdf:RDF>
      <cc:Work
         rdf:about="">
        <dc:format>image/svg+xml</dc:format>
        <dc:type
           rdf:resource="http://purl.org/dc/dcmitype/StillImage" />
        <dc:title></dc:title>
      </cc:Work>
    </rdf:RDF>
  </metadata>
  <g
     inkscape:label="Layer 1"
     inkscape:groupmode="layer"
     id="layer1"
     transform="translate(-603.81907,-698.6479)">
    <g
       id="g3801"
       transform="matrix(0.43154538,0,0,0.43154538,343.24374,425.57236)">
      <path
         sodipodi:nodetypes="cccccc"
         inkscape:connector-curvature="0"
         id="path3031"
         d="m 605.89286,747.71932 15.71428,-103.75 30.71429,-9.82143 31.60715,9.28572 15.71428,103.39285 z"
         style="fill:#ffffff;fill-opacity:1;stroke:none" />
      <g
         transform="translate(-27.142857,-21.428571)"
         id="g3022">
        <path
           inkscape:connector-curvature="0"
           id="path3010"
           d="m 631.46965,767.82647 c 0.27926,-1.2375 3.94512,-25.2 8.14635,-53.25 4.20124,-28.05 7.77213,-51.1533 7.93531,-51.34066 0.16318,-0.18736 7.55136,-2.29396 16.41816,-4.68133 l 16.12147,-4.34068 16.0228,4.33292 c 8.81253,2.38311 16.1759,4.48971 16.36302,4.68134 0.18712,0.19163 3.76264,23.29841 7.9456,51.34841 4.18296,28.05 7.83272,52.0125 8.11058,53.25 l 0.50518,2.25 -49.0381,0 -49.0381,0 0.50773,-2.25 z m 93.52627,-1.5 c -0.0101,-1.84616 -14.85679,-100.44422 -15.17217,-100.7596 -0.19463,-0.19463 -6.97234,-2.07209 -15.06157,-4.17214 l -14.70771,-3.81826 -14.77722,3.83904 c -8.12748,2.11147 -14.89309,3.95233 -15.0347,4.0908 -0.25197,0.24639 -15.22953,99.34234 -15.23815,100.82016 -0.002,0.4125 20.24562,0.75 44.99562,0.75 24.75,0 44.99815,-0.3375 44.9959,-0.75 z m -28.03161,-4.58992 c -0.80536,-0.73695 -3.60693,-2.12613 -6.2257,-3.08707 -4.14188,-1.51981 -7.72543,-4.9195 -6.48893,-6.15601 0.22644,-0.22643 2.96757,0.0608 6.0914,0.63825 3.12384,0.57747 6.17496,0.74386 6.78028,0.36976 1.63711,-1.01179 0.58934,-12.42753 -1.26746,-13.80939 -0.82449,-0.61359 -1.9164,-1.83201 -2.42647,-2.70759 -0.83808,-1.43862 -1.63177,-1.45154 -8.23962,-0.13413 -7.19041,1.43356 -7.3523,1.42018 -9.71918,-0.80339 -1.32383,-1.24367 -2.2119,-2.57686 -1.97348,-2.96263 0.23842,-0.38578 4.87336,-0.9719 10.29986,-1.3025 5.91696,-0.36047 11.83551,-1.35805 14.78568,-2.49214 5.25631,-2.02059 8.15953,-1.75899 11.39705,1.02697 3.11766,2.68282 2.43136,3.75979 -2.39593,3.75979 -6.5703,0 -7.82196,0.6789 -6.16256,3.34256 0.73922,1.18659 1.60527,6.46913 1.92455,11.73898 0.46345,7.64949 0.27424,10.0188 -0.93834,11.75 -1.7454,2.49191 -3.35547,2.73708 -5.44115,0.82854 z m -36.35059,-1.91008 c -1.08558,-1.7052 -1.22666,-3.46067 -0.58267,-7.25 0.46736,-2.75 0.87657,-6.0492 0.90936,-7.33156 l 0.0596,-2.33156 -3.36803,2.08156 c -3.38005,2.08899 -7.18975,2.57475 -11.38197,1.45127 -3.36624,-0.90211 -2.76855,-1.7161 2.68141,-3.65175 5.66532,-2.01215 15.06859,-9.04304 15.06859,-11.26689 0,-1.33534 -0.32196,-1.33594 -2.89503,-0.005 -3.66433,1.8949 -10.67985,3.05116 -11.40395,1.87954 -0.30259,-0.48961 1.89426,-2.17001 4.8819,-3.73424 6.37737,-3.33934 11.41708,-8.66893 11.41708,-12.07415 0,-2.25079 0.2033,-2.34231 3.02111,-1.36002 2.8306,0.98676 4.97889,3.44425 4.97889,5.6955 0,0.5413 -1.60281,1.97477 -3.56181,3.1855 l -3.5618,2.20132 2.0618,2.19469 c 2.90182,3.08884 2.58031,4.99279 -1.39668,8.27096 l -3.45849,2.85078 1.4146,3.97203 c 3.77684,10.60494 -0.11032,22.7203 -4.88392,15.22202 z m 18.94517,-35.21968 c -1.06762,-0.84168 -1.74262,-1.57768 -1.5,-1.63557 0.24262,-0.0579 3.81613,-0.67145 7.94113,-1.36347 4.125,-0.69203 8.97973,-1.87482 10.7883,-2.62845 2.83667,-1.18203 3.65976,-1.16172 5.99292,0.14785 1.48755,0.83494 2.84328,2.23802 3.01274,3.11796 0.24984,1.29729 -0.97827,1.70831 -6.49292,2.17306 -3.74057,0.31524 -9.27604,0.83096 -12.30104,1.14605 -4.10158,0.42723 -5.99355,0.18379 -7.44113,-0.95743 z m 9.19383,-14.86926 c -4.2506,-2.45132 -4.90481,-4.66106 -1.37993,-4.66106 2.1166,0 2.42464,-0.53981 2.85321,-5 0.26424,-2.75 0.26424,-7.25 0,-10 l -0.48044,-5 -3.87277,0 c -2.77579,0 -3.87277,0.42488 -3.87277,1.5 0,0.825 0.81,1.5 1.8,1.5 2.10574,0 4.2,1.84494 4.2,3.7 0,0.77778 -1.20513,1.3 -3,1.3 -2.27929,0 -3,0.45584 -3,1.89745 0,1.50429 0.67341,1.86689 3.25,1.75 2.66347,-0.12084 3.30767,0.25861 3.56955,2.10255 0.28018,1.97279 -0.12023,2.25 -3.25,2.25 -3.4665,0 -3.56955,0.10971 -3.56955,3.8 0,3.55789 -1.36367,6.2 -3.2,6.2 -0.44,0 -0.8,-2.07378 -0.8,-4.60841 0,-4.46158 -0.0827,-4.58765 -2.59565,-3.95694 -1.42761,0.35831 -3.18755,0.16024 -3.91098,-0.44015 -1.57551,-1.30756 -2.02042,-0.66026 -2.90076,4.22042 -0.80166,4.44443 -1.83392,5.26149 -4.70562,3.7246 -2.0307,-1.0868 -2.10533,-1.56298 -1.30034,-8.29625 0.46971,-3.9288 0.84651,-9.95577 0.83734,-13.39327 -0.0174,-6.5346 0.679,-7.37175 3.7903,-4.55607 1.75904,1.59191 1.83263,1.59191 1.22176,0 -0.5599,-1.45907 0.0927,-1.69997 4.70696,-1.73748 2.94634,-0.024 7.38199,-0.50164 9.85699,-1.06153 9.73312,-2.2018 9.61103,-2.20537 11.60489,0.33932 1.6536,2.11042 1.89511,4.19304 1.89511,16.3422 0,13.20321 -0.10347,13.93189 -2,14.08462 -1.1,0.0886 -3.68628,-0.81142 -5.7473,-2 z m -11.7527,-13.83332 c 0,-1.34555 -0.57458,-1.85612 -1.84638,-1.64066 -1.0155,0.17204 -2.5905,-0.30477 -3.5,-1.05958 -1.48337,-1.23109 -1.65362,-1.0201 -1.65362,2.04925 0,3.32162 0.10232,3.4097 3.5,3.01304 2.66609,-0.31125 3.5,-0.87403 3.5,-2.36205 z m -0.028,-6.78926 c 1.69852,-1.07416 0.98496,-1.4409 -4.72198,-2.42695 -3.10717,-0.53685 -4.43889,0.86625 -2.58333,2.7218 0.97296,0.97296 5.59561,0.78638 7.30531,-0.29485 z m -1.97198,-9.66015 c 0,-0.48497 1.99468,-1.93994 4.43262,-3.23326 5.1638,-2.73939 6.28202,-4.69224 3.53014,-6.165 -2.81936,-1.50887 -2.41714,-2.98007 0.81473,-2.98007 3.53608,0 7.22251,2.55501 7.22251,5.00581 0,2.89368 -6.34494,7.16603 -11.50638,7.7478 -2.47149,0.27857 -4.49362,0.1097 -4.49362,-0.37528 z m -11,-2.24666 c 0,-0.62242 0.38097,-1.13167 0.8466,-1.13167 0.46563,0 2.52548,-1.63051 4.57745,-3.62335 2.83827,-2.7565 3.5944,-4.16701 3.16051,-5.89575 -0.67044,-2.67126 0.92792,-3.58518 4.16544,-2.38172 3.24704,1.20699 2.85294,4.87416 -1,9.30538 -2.51571,2.89328 -4.21023,3.86441 -7.5,4.29828 -2.82651,0.37276 -4.25,0.18146 -4.25,-0.57117 z"
           style="fill:#cfcfcf" />
        <path
           inkscape:connector-curvature="0"
           id="path3008"
           d="m 633.04024,758.82647 c 0.95468,-6.1875 4.56183,-30.15 8.0159,-53.25 3.45407,-23.1 6.33745,-42.09548 6.40752,-42.21219 0.0701,-0.1167 7.43762,-2.19669 16.37234,-4.62219 l 16.24493,-4.41 16.11072,4.3567 c 8.8609,2.39618 16.20677,4.47617 16.32415,4.62219 0.11739,0.14602 3.47161,22.09049 7.45383,48.76549 3.98222,26.675 7.57594,50.6375 7.98605,53.25 l 0.74565,4.75 -48.69843,0 -48.69843,0 1.73577,-11.25 z m 91.91726,6.5 c -0.0781,-3.21395 -14.5881,-99.21395 -15.06838,-99.69423 -0.26022,-0.26023 -7.09173,-2.25507 -15.18112,-4.43297 l -14.70798,-3.95984 -14.70798,3.95984 c -8.08939,2.1779 -14.88302,4.13487 -15.09696,4.3488 -0.3966,0.39661 -15.18194,98.00091 -15.19041,100.2784 -0.004,0.98155 9.65954,1.25 44.99535,1.25 42.20667,0 44.99736,-0.10863 44.95748,-1.75 z m -27.92534,-3.71127 c -0.66701,-0.8037 -2.18461,-1.75376 -3.37245,-2.11124 -5.07826,-1.52829 -8.65969,-3.76058 -8.65969,-5.39754 0,-1.5537 0.53617,-1.63616 4.95611,-0.76223 7.15111,1.41395 8.04389,0.79515 8.04389,-5.57531 0,-4.32117 -0.53726,-6.07206 -2.75,-8.96213 -2.94436,-3.84563 -2.91177,-3.8415 -12.0636,-1.52609 -3.78664,0.95803 -4.64177,0.84633 -7,-0.91434 -3.43571,-2.56513 -2.71921,-3.76665 2.3136,-3.87972 7.47388,-0.16791 16.9027,-1.55155 20.32914,-2.98321 4.94018,-2.06414 8.49594,-1.77424 11.00569,0.89727 2.71882,2.89404 1.99152,3.67581 -3.41971,3.67581 -2.33835,0 -4.97658,0.27822 -5.86272,0.61827 -1.46713,0.56299 -1.46126,0.72789 0.0657,1.84443 2.47949,1.81305 3.91663,21.07224 1.81211,24.28415 -1.70175,2.59719 -3.66124,2.88464 -5.39808,0.79188 z m -36.03818,-1.04601 c -0.9106,-1.0972 -1.05988,-3.69762 -0.54867,-9.55797 l 0.70227,-8.05068 -4.215,2.15033 c -3.2867,1.67675 -5.17496,2.00638 -8.57378,1.49669 -2.39733,-0.3595 -4.35878,-0.97044 -4.35878,-1.35764 0,-0.38721 2.18929,-1.48158 4.86508,-2.43193 5.74177,-2.0393 16.13492,-9.45752 16.13492,-11.51648 0,-0.98085 -0.55718,-1.20749 -1.75,-0.71183 -5.0948,2.11709 -10.8527,3.43028 -12.60377,2.87451 -1.62438,-0.51556 -1.06555,-1.06392 3.10354,-3.04541 5.70203,-2.71006 12.25023,-9.30902 12.25023,-12.34519 0,-2.84632 3.14531,-2.53823 6.07569,0.59511 l 2.42431,2.59223 -3.88597,3.2718 -3.88597,3.2718 2.13597,2.13597 c 2.97792,2.97792 2.68809,4.49905 -1.49693,7.85639 -3.23144,2.59236 -3.50349,3.15621 -2.46186,5.10252 1.77982,3.32562 2.55671,14.44539 1.18792,17.00298 -1.35804,2.53753 -3.33237,2.7957 -5.0992,0.6668 z m 19.25604,-35.62222 c -2.12818,-2.16308 -1.46301,-2.5614 5.33784,-3.19647 3.62331,-0.33835 7.99607,-1.31771 9.71725,-2.17634 3.41835,-1.7053 7.8337,-1.24031 9.7119,1.02278 1.93708,2.33405 0.34678,3.18469 -7.24381,3.87466 -4.00025,0.36362 -9.29818,0.90519 -11.77318,1.20349 -2.9611,0.35689 -4.92747,0.10789 -5.75,-0.72812 z m 10.75,-14.3705 c -0.68469,-0.825 -1.80969,-1.5 -2.5,-1.5 -0.69031,0 -1.7723,-0.62318 -2.40443,-1.38485 -0.91666,-1.1045 -0.64088,-1.51246 1.36232,-2.01523 1.56432,-0.39262 2.74824,-1.57301 3.13891,-3.12959 0.87577,-3.48933 0.0447,-16.2459 -1.12845,-17.32127 -1.59313,-1.46034 -8.42046,-0.18783 -7.79114,1.45215 0.29522,0.76933 1.29862,1.39879 2.22978,1.39879 2.01248,0 4.09301,1.88076 4.09301,3.7 0,0.77778 -1.20513,1.3 -3,1.3 -2.34277,0 -3,0.44233 -3,2.01905 0,1.61359 0.46675,1.90191 2.3242,1.43572 1.45758,-0.36583 2.79472,-0.0164 3.58609,0.93714 1.75158,2.11051 0.51913,3.60809 -2.96931,3.60809 -2.6151,0 -2.94098,0.3397 -2.94098,3.06574 0,3.63862 -1.71114,7.23082 -3.05017,6.40325 -0.52241,-0.32286 -0.94983,-2.40925 -0.94983,-4.63642 0,-3.76821 -0.16565,-4.00781 -2.38558,-3.45064 -1.50961,0.37889 -2.83974,0.0515 -3.62244,-0.8916 -1.9639,-2.36635 -2.68962,-1.78128 -3.28361,2.64725 -0.30523,2.27567 -1.20019,4.78282 -1.98881,5.57143 -1.24513,1.24513 -1.66439,1.2033 -3.18548,-0.31779 -1.49523,-1.49522 -1.62714,-2.64015 -0.90114,-7.82143 0.46777,-3.33838 0.85422,-9.10763 0.85878,-12.82054 0.006,-4.55863 0.39577,-6.7505 1.20158,-6.75 1.71828,10e-4 4.3067,4.05334 4.3067,6.74231 0,2.36788 0.56025,2.41365 7.26452,0.5935 2.58648,-0.70221 1.07006,-2.33506 -2.16855,-2.33506 -2.48881,0 -6.09597,-2.56144 -6.09597,-4.32874 0,-0.36919 2.55875,-0.67126 5.68611,-0.67126 3.12736,0 8.55521,-0.71954 12.06189,-1.59898 9.40548,-2.35881 9.78329,-1.82944 10.65234,14.92572 0.37877,7.30274 0.3955,14.04171 0.0372,14.97549 -0.80594,2.10025 -3.76916,2.20803 -5.43752,0.19777 z m -13.5,-14.51696 c 0,-0.8376 -0.92929,-1.4971 -2.13522,-1.51533 -1.17437,-0.0178 -2.86187,-0.63537 -3.75,-1.37245 -1.43354,-1.18973 -1.61478,-0.95123 -1.61478,2.12488 0,3.44572 0.0209,3.46163 3.75,2.85548 2.3736,-0.38582 3.75,-1.15388 3.75,-2.09258 z m -2.5,-16.33356 c 0,-0.19279 2.25,-1.74921 5,-3.4587 5.45729,-3.39244 6.22078,-5.31705 2.75,-6.9322 -2.01531,-0.93784 -2.06723,-1.12149 -0.49776,-1.76067 4.75326,-1.93579 10.67526,3.47467 7.71168,7.04556 -2.06219,2.4848 -8.55629,5.45653 -11.92408,5.45653 -1.67191,0 -3.03984,-0.15774 -3.03984,-0.35052 z m -10.19603,-2.17885 c -0.37518,-0.37517 1.20295,-2.1276 3.50694,-3.89428 3.37537,-2.58818 4.18721,-3.83025 4.17942,-6.39424 -0.008,-2.79058 0.3216,-3.18211 2.68262,-3.18211 1.79102,0 2.89946,0.65278 3.31119,1.95002 0.77695,2.44796 -1.80087,7.55618 -4.80722,9.52602 -2.72335,1.78441 -7.91588,2.95166 -8.87295,1.99459 z"
           style="fill:#afafaf" />
        <path
           inkscape:connector-curvature="0"
           id="path3006"
           d="m 631.96564,768.82647 c -0.0812,-2.95139 15.4107,-104.32721 16.05596,-105.06709 0.96692,-1.1087 28.84598,-8.6488 31.97842,-8.6488 3.1043,0 30.98428,7.52912 32.02607,8.6488 0.70782,0.76073 15.97796,100.71287 15.97519,104.56709 -10e-4,1.64234 -2.95412,1.75 -48.00126,1.75 -37.715,0 -48.00737,-0.26784 -48.03438,-1.25 z m 93.06418,-3 c 0.0716,-3.00601 -14.43396,-99.33281 -15.06982,-100.07349 -0.38883,-0.45292 -7.28889,-2.55731 -15.33347,-4.67643 l -14.62651,-3.85295 -14.58126,3.84103 c -8.01969,2.11256 -14.84606,4.10583 -15.16971,4.42948 -0.61976,0.61976 -15.14091,95.45771 -15.20931,99.33236 l -0.0397,2.25 45,0 c 35.31744,0 45.00641,-0.26896 45.0298,-1.25 z m -27.3364,-4.10661 c -0.30705,-0.80014 -1.84434,-1.73727 -3.41621,-2.08251 -4.00077,-0.87871 -9.27719,-4.2576 -9.27719,-5.94087 0,-1.11677 0.77857,-1.22859 3.75,-0.53856 2.0625,0.47896 4.9875,0.88157 6.5,0.89469 2.71387,0.0236 2.75,-0.0596 2.75,-6.32783 0,-5.70445 -0.30816,-6.67414 -3.02421,-9.51622 l -3.0242,-3.16455 -6.54042,1.51683 c -6.68529,1.55042 -8.75871,1.21164 -11.29606,-1.84568 -1.55053,-1.86827 -0.0466,-2.28857 8.97638,-2.50871 3.62532,-0.0884 9.02532,-0.85916 12,-1.71271 9.14912,-2.62522 10.75766,-2.74613 13.41039,-1.00799 4.47858,2.93447 3.21516,4.59072 -3.50188,4.59072 -6.2847,0 -7.10168,0.47395 -4.32138,2.50695 2.18839,1.60019 3.68101,19.66285 1.94036,23.48082 -1.30277,2.8575 -4.10317,3.79879 -4.92558,1.65562 z m -36.67681,-1.1234 c -0.8852,-1.06661 -1.02999,-3.72014 -0.51836,-9.5 0.39046,-4.41099 0.46382,-8.01999 0.16301,-8.01999 -0.30081,0 -2.14119,0.94064 -4.08975,2.09032 -2.76117,1.62913 -4.42851,1.94068 -7.55716,1.4121 -2.20788,-0.37302 -4.01433,-1.01663 -4.01433,-1.43026 0,-0.41362 1.89132,-1.37623 4.20294,-2.13914 5.01771,-1.65599 15.79706,-9.51532 15.79706,-11.51778 0,-1.74607 0.0378,-1.74681 -4.34576,0.0848 -1.9745,0.825 -5.29196,1.49458 -7.37212,1.48795 l -3.78212,-0.0121 4.5,-2.55468 c 6.27099,-3.56008 12,-9.34837 12,-12.12418 0,-3.23804 3.30686,-2.99369 6.01108,0.44416 l 2.15623,2.74121 -3.81247,3.20077 -3.81248,3.20077 2.22882,2.37247 c 2.94168,3.13128 2.84243,3.71251 -1.2369,7.24357 l -3.46581,3 1.46577,5.46793 c 1.71233,6.38774 1.84082,9.91539 0.49051,13.46697 -1.0906,2.86849 -3.15658,3.31611 -5.00816,1.08509 z m 19.73341,-35.54279 c -3.11044,-1.91351 -1.88928,-2.67545 5.24675,-3.27371 3.84822,-0.32262 8.30599,-1.35997 9.90618,-2.30522 2.49824,-1.47575 3.34666,-1.53753 6.00324,-0.43713 1.70161,0.70482 3.09383,1.67691 3.09383,2.16018 0,0.48327 0.1125,1.21618 0.25,1.62868 0.1375,0.4125 -2.9,1.04326 -6.75,1.4017 -3.85,0.35843 -9.025,0.93303 -11.5,1.27689 -2.61472,0.36327 -5.23316,0.17416 -6.25,-0.45139 z m 7.86702,-15.82677 c -3.14511,-2.14677 -3.52517,-2.71839 -2,-3.00804 3.8621,-0.73347 4.38298,-2.12462 4.38298,-11.70582 0,-5.12519 -0.4227,-9.57978 -0.93933,-9.89907 -0.51663,-0.3193 -2.73253,-0.29379 -4.92422,0.0567 -2.82884,0.45235 -3.83078,1.03881 -3.45368,2.02152 0.29216,0.76137 1.32796,1.38431 2.30177,1.38431 2.16468,0 4.42649,2.52592 3.54253,3.95619 -0.35481,0.5741 -1.74355,1.04381 -3.08609,1.04381 -1.81915,0 -2.44098,0.5392 -2.44098,2.11663 0,1.68785 0.44526,2.00019 2.19796,1.54185 2.17913,-0.56985 4.80204,0.77598 4.80204,2.46396 0,0.48266 -0.8632,0.87756 -1.91821,0.87756 -3.41315,0 -5.08179,1.163 -5.08179,3.54189 0,3.40803 -1.83863,7.67587 -2.99813,6.95927 -0.55103,-0.34056 -1.00187,-2.39264 -1.00187,-4.56018 0,-3.69463 -0.18384,-3.94098 -2.94098,-3.94098 -1.61754,0 -3.2191,-0.45 -3.55902,-1 -1.24823,-2.01968 -2.25028,-0.89848 -2.78941,3.12108 -0.68601,5.11451 -2.09717,6.76049 -4.48811,5.23492 -1.2207,-0.77889 -1.65926,-2.22889 -1.50545,-4.97753 0.11937,-2.13316 0.34437,-8.03926 0.5,-13.12467 0.19835,-6.48126 0.64987,-9.24733 1.50992,-9.25 2.17587,-0.007 4.12374,4.33791 4.84259,10.80123 0.54671,4.91556 1.01999,6.18272 2.14764,5.75 0.79552,-0.30527 2.53459,-0.55503 3.86461,-0.55503 1.72517,0 2.41821,-0.55502 2.41821,-1.93664 0,-1.45399 -0.80998,-2.01474 -3.25,-2.25 -4.1784,-0.40288 -4.3955,-3.0953 -0.3067,-3.80354 1.61882,-0.2804 2.85632,-0.84732 2.75,-1.25982 -0.10631,-0.4125 -0.1933,-1.1376 -0.1933,-1.61133 0,-0.47373 -1.08096,-0.65469 -2.40213,-0.40213 -1.62034,0.30975 -3.16627,-0.30494 -4.75,-1.88867 l -2.34787,-2.34787 8,-0.55442 c 4.4,-0.30494 9.66546,-1.12006 11.70103,-1.81139 4.39313,-1.49203 7.52499,-0.29557 8.23151,3.14467 0.88364,4.30273 1.67509,25.27708 1.01838,26.98844 -0.90606,2.36115 -3.22225,2.03093 -7.8339,-1.11687 z m -12.61702,-30.08304 c 0,-0.51294 0.86289,-1.20649 1.91754,-1.54122 2.88532,-0.91576 7.08246,-4.49001 7.08246,-6.03136 0,-0.74802 -0.90653,-1.64776 -2.01452,-1.99942 -2.35197,-0.74649 -1.69409,-2.49539 0.93868,-2.49539 2.35328,0 7.07584,3.73396 7.07584,5.5946 0,2.04403 -8.82952,7.4054 -12.19578,7.4054 -1.54232,0 -2.80422,-0.41968 -2.80422,-0.93261 z m -10.47565,-2.02799 c -0.25574,-0.4138 1.36456,-2.22264 3.60067,-4.01963 3.39174,-2.72568 3.99568,-3.74401 3.64351,-6.14351 -0.35608,-2.42615 -0.0772,-2.87626 1.78222,-2.87626 1.2124,0 2.79321,0.70951 3.5129,1.5767 1.09115,1.31475 1.00093,2.14791 -0.54305,5.0149 -1.01838,1.89102 -2.43937,3.92602 -3.15775,4.52222 -1.7513,1.45346 -8.25464,2.87029 -8.8385,1.92558 z"
           style="fill:#8f8f8f" />
        <path
           inkscape:connector-curvature="0"
           id="path3004"
           d="m 632.02779,768.32647 c 0.0478,-3.01023 15.55706,-104.16816 16.04572,-104.65683 0.76403,-0.76402 29.76458,-8.59317 31.83063,-8.59317 2.63362,0 31.33007,7.80885 32.13289,8.74397 0.58233,0.6783 15.98974,101.98005 15.97081,105.00603 -0.006,0.98253 -10.27866,1.25 -48.00782,1.25 -45.0582,0 -47.9983,-0.10725 -47.97223,-1.75 z m 93.1053,-0.71641 c 0.35808,-0.35807 -14.05792,-101.30102 -14.60207,-102.24589 -0.0673,-0.11676 -6.92262,-2.03961 -15.23418,-4.273 l -15.11191,-4.06071 -13.84246,3.62886 c -7.61335,1.99587 -14.51079,3.99584 -15.32765,4.44438 -1.11251,0.61088 -3.38287,13.51684 -9.04739,51.4301 -4.1592,27.83801 -7.35336,50.82339 -7.09813,51.07862 0.60814,0.60814 89.65562,0.60582 90.26379,-0.002 z m -27.45851,-5.93929 c -0.29668,-0.77314 -1.8255,-1.68818 -3.39737,-2.03342 -3.60807,-0.79246 -9.27719,-4.19865 -9.27719,-5.57403 0,-0.68477 2.23064,-0.81401 6.5,-0.3766 l 6.5,0.66594 0,-6.48978 c 0,-5.88083 -0.28834,-6.7915 -3.07294,-9.70532 -2.97134,-3.10922 -3.22764,-3.18235 -7.75223,-2.212 -2.57361,0.55194 -5.35329,1.25808 -6.17706,1.5692 -0.82377,0.31111 -3.07277,-0.39996 -4.99777,-1.58018 -3.17019,-1.94364 -3.31154,-2.21347 -1.5,-2.86359 1.1,-0.39476 2.55933,-0.50809 3.24296,-0.25185 1.97558,0.74052 18.48213,-1.84867 21.45738,-3.36576 3.53941,-1.80475 6.83207,-1.74294 9.57715,0.17979 4.28397,3.00061 2.82326,4.44132 -4.52749,4.46554 -6.57829,0.0217 -6.6941,0.0662 -4.5525,1.75 1.93714,1.52306 2.27831,3.03682 2.8796,12.77673 0.59571,9.64942 0.46665,11.26443 -1.01892,12.75 -2.06918,2.06917 -3.17079,2.15294 -3.88362,0.29533 z m -36.59035,-0.99284 c -0.89176,-1.0745 -1.03466,-3.74517 -0.51756,-9.67305 0.41146,-4.71695 0.33677,-8.0052 -0.17617,-7.75584 -6.44651,3.13387 -8.49785,3.68426 -11.75897,3.15506 -4.68117,-0.75965 -4.59805,-1.72147 0.27493,-3.18145 4.82463,-1.4455 16.09356,-9.59886 16.09356,-11.64411 0,-1.86498 -1.73992,-1.8657 -5,-0.002 -1.375,0.78602 -4.3,1.42519 -6.5,1.42037 l -4,-0.009 4,-2.06293 c 5.67577,-2.927 12.5,-9.78229 12.5,-12.55672 0,-2.67129 1.65059,-2.92526 4.77749,-0.73509 3.15306,2.20849 2.76224,4.5126 -1.31756,7.76788 l -3.54002,2.82458 2.54005,1.998 c 1.39702,1.0989 2.54004,2.43828 2.54004,2.9764 0,0.53812 -1.63504,2.4763 -3.63341,4.30705 -2.01894,1.84959 -3.32781,3.82312 -2.94565,4.44146 1.33929,2.16703 2.47541,12.67725 1.74272,16.12189 -0.80634,3.79092 -3.11411,4.97559 -5.07945,2.6075 z m 19.66579,-35.68156 c -3.16782,-1.84509 -1.84344,-2.64448 5.21829,-3.14974 4.15261,-0.29712 8.02933,-1.19381 9.59419,-2.21914 2.89746,-1.89849 6.34799,-1.49769 8.87678,1.0311 2.41115,2.41114 1.0911,3.25127 -5.19833,3.30843 -3.15751,0.0287 -7.31296,0.51506 -9.23433,1.08081 -4.34303,1.27882 -6.99799,1.26406 -9.2566,-0.0515 z m 7.86702,-15.76947 c -3.14511,-2.14677 -3.52517,-2.71839 -2,-3.00804 3.8621,-0.73347 4.38298,-2.12462 4.38298,-11.70582 0,-5.12519 -0.4227,-9.57978 -0.93933,-9.89907 -0.51663,-0.3193 -2.73253,-0.29379 -4.92422,0.0567 -2.82884,0.45235 -3.83078,1.03881 -3.45368,2.02152 0.29216,0.76137 1.32796,1.38431 2.30177,1.38431 2.16468,0 4.42649,2.52592 3.54253,3.95619 -0.35481,0.5741 -1.74355,1.04381 -3.08609,1.04381 -1.81915,0 -2.44098,0.5392 -2.44098,2.11663 0,1.68785 0.44526,2.00019 2.19796,1.54185 2.1433,-0.56048 4.80204,0.76865 4.80204,2.40061 0,0.4478 -1.45733,0.9552 -3.2385,1.12755 -2.85112,0.27588 -3.30657,0.73609 -3.80747,3.84732 -1.11127,6.90236 -3.95403,8.31585 -3.95403,1.96604 0,-3.73995 -0.18707,-4 -2.87756,-4 -1.58265,0 -3.4274,-0.66253 -4.09944,-1.47228 -1.03314,-1.24487 -0.58068,-1.57482 2.92928,-2.13608 3.47055,-0.55496 4.10169,-1.00507 3.84944,-2.74529 -0.22757,-1.56996 -1.03898,-2.08946 -3.30172,-2.11392 -4.26607,-0.0461 -4.0505,-2.93114 0.25,-3.34579 3.51583,-0.33899 3.51337,-0.33674 2.6999,-2.4566 -0.33968,-0.88519 -1.44979,-1.26156 -2.90213,-0.98392 -1.5632,0.29882 -3.13947,-0.33782 -4.6999,-1.89825 l -2.34787,-2.34787 9,-0.60996 c 4.95,-0.33548 10.24195,-1.19724 11.75989,-1.91502 2.47056,-1.16825 3.00493,-1.07486 5.09724,0.89076 2.12844,1.99957 2.39426,3.31883 2.97416,14.76056 0.85927,16.95401 -0.13518,18.6974 -7.71427,13.52409 z m -25.63278,-0.66943 c -1.012,-1.21937 -1.01461,-2.95741 -0.0132,-8.81155 0.68608,-4.0109 1.08578,-9.62763 0.88821,-12.48162 -0.36602,-5.28724 -0.19699,-5.7166 1.74107,-4.42252 2.56079,1.70989 3.64987,5.89631 3.54957,13.64455 -0.14869,11.48576 -2.62609,16.33604 -6.16563,12.07114 z m 13.75136,-29.07874 c -0.41279,-0.41278 0.89719,-1.68466 2.91106,-2.82639 4.89363,-2.77437 6.4581,-5.33847 4.08231,-6.69074 -0.97407,-0.55443 -1.4987,-1.4487 -1.16585,-1.98727 1.28234,-2.07487 8.43688,1.94718 8.43688,4.74294 0,2.96792 -12.2509,8.77496 -14.2644,6.76146 z m -7.29218,-6.69346 c 3.46114,-3.31635 4.34733,-4.79298 3.90093,-6.5 -0.45321,-1.73309 -0.14812,-2.2088 1.41657,-2.2088 3.08524,0 4.4628,2.28137 3.27076,5.41667 -1.61622,4.25098 -5.87662,7.58333 -9.69526,7.58333 l -3.37154,0 4.47854,-4.2912 z"
           style="fill:#6f6f6f" />
        <path
           inkscape:connector-curvature="0"
           id="path3002"
           d="m 632.00002,769.15311 c 0,-1.2642 14.87104,-99.9241 15.5555,-103.20086 0.51421,-2.4617 1.5358,-2.89028 16.49633,-6.9207 l 15.94817,-4.2965 16.01718,4.31509 c 13.61706,3.66848 16.09001,4.63061 16.50317,6.42071 0.59458,2.5762 15.47965,102.20084 15.47965,103.60417 0,0.65469 -16.62032,1.00145 -48,1.00145 -28.6772,0 -48,-0.37171 -48,-0.92336 z m 93.29939,-1.82664 c 0.39321,-0.70648 -14.26144,-101.36363 -14.86314,-102.08918 -0.1547,-0.18655 -7.05861,-2.12063 -15.34203,-4.29796 l -15.06075,-3.95878 -15.1262,3.99076 c -8.31941,2.19492 -15.22302,4.129 -15.34134,4.29796 -0.57194,0.81666 -15.21892,101.4063 -14.86068,102.0572 0.22703,0.4125 20.60967,0.75 45.29475,0.75 24.68508,0 45.06981,-0.3375 45.29939,-0.75 z m -27.30627,-5.75829 c -0.63421,-0.76417 -2.80461,-1.91258 -4.82311,-2.55201 -4.4541,-1.41099 -8.17001,-3.65105 -8.17001,-4.92513 0,-0.55167 2.68247,-0.68883 6.5,-0.33234 l 6.5,0.60698 0,-6.4645 c 0,-5.76642 -0.32329,-6.8266 -2.99381,-9.81778 l -2.99381,-3.35328 -5.08248,1.17317 c -7.05443,1.62836 -9.34254,1.47792 -12.06912,-0.79355 l -2.36078,-1.96673 4.80845,-0.0333 c 6.89375,-0.0477 18.73355,-2.01828 21.89189,-3.64362 3.53126,-1.81726 6.82621,-1.75978 9.57715,0.16705 4.36332,3.05622 2.82978,4.44333 -4.91235,4.44333 l -7.13486,0 2.52606,1.987 c 2.28933,1.80078 2.59253,2.91562 3.23528,11.89592 0.39007,5.44991 0.4219,10.81419 0.0707,11.92062 -0.82846,2.61025 -3.1057,3.45161 -4.56923,1.68817 z m -36.28916,-0.59941 c -1.59516,-0.92653 -1.71959,-1.98552 -1.11248,-9.46776 0.39969,-4.92608 0.30358,-8.42454 -0.23145,-8.42454 -0.50326,0 -1.91243,0.69861 -3.13148,1.55247 -1.49567,1.04761 -3.92571,1.45411 -7.4725,1.25 l -5.25605,-0.30247 6.5,-3.20751 c 7.97157,-3.93368 14,-8.80654 14,-11.3164 0,-1.82977 -0.10983,-1.82845 -4.25,0.0508 -2.3375,1.06103 -5.825,1.91914 -7.75,1.90691 l -3.5,-0.0222 4,-2.09491 c 7.47698,-3.91588 14.072,-10.78235 13.03039,-13.56669 -0.6458,-1.7263 1.57339,-1.56604 4.2471,0.3067 2.66231,1.86475 2.89283,4.98288 0.47251,6.39123 -0.9625,0.56006 -2.56201,1.65593 -3.55447,2.43526 -1.71598,1.34746 -1.67969,1.54174 0.73992,3.96135 3.01855,3.01855 2.68006,4.37254 -1.86957,7.47849 -3.38562,2.3113 -3.39542,2.34068 -1.94193,5.81938 1.63708,3.9181 1.54354,17.49886 -0.12395,17.99536 -0.55,0.16376 -1.80822,-0.1717 -2.79604,-0.74547 z m 19.04604,-35.91743 c -3.18473,-1.95497 -1.82381,-2.97459 4,-2.99683 3.55186,-0.0136 7.41738,-0.77855 10.1116,-2.00108 3.71829,-1.6872 4.74896,-1.79346 6.98778,-0.72042 1.44439,0.69228 2.78581,2.08766 2.98093,3.10085 0.29812,1.54803 -0.0991,1.74313 -2.48777,1.22189 -1.5634,-0.34115 -5.09254,-0.15025 -7.84254,0.42424 -8.84932,1.84864 -11.96259,2.06857 -13.75,0.97135 z m 8.28256,-15.76977 -4.46744,-2.59484 3.25201,-0.84268 3.25201,-0.84268 -0.28457,-10.21245 -0.28457,-10.21245 -4.36767,0.20101 c -5.00774,0.23046 -5.39682,0.44616 -4.59129,2.54535 0.34592,0.90145 1.34991,1.33341 2.43792,1.04889 1.17463,-0.30717 2.24592,0.25643 2.93507,1.54412 0.95706,1.78827 0.76042,2.06523 -1.66438,2.34424 -1.93962,0.22318 -2.84117,0.95922 -3.06031,2.49851 -0.25723,1.80688 0.2454,2.23678 2.92299,2.5 4.62851,0.455 5.02346,2.81788 0.471,2.81788 -3.13,0 -3.58333,0.30804 -3.58333,2.4349 0,3.24616 -1.69858,7.5651 -2.97525,7.5651 -0.56361,0 -1.02475,-1.94706 -1.02475,-4.32681 0,-4.17259 -0.10004,-4.31212 -2.80688,-3.91484 -1.69978,0.24947 -3.2946,-0.17571 -4.04341,-1.07796 -1.05107,-1.26646 -0.63008,-1.59239 2.80688,-2.17306 3.45371,-0.5835 4.04341,-1.04474 4.04341,-3.16262 0,-2.04378 -0.35988,-2.36526 -2.04799,-1.82948 -2.57287,0.8166 -5.71556,-1.41438 -3.74934,-2.66165 0.71353,-0.45262 2.34283,-0.82985 3.62065,-0.83827 1.67989,-0.0111 2.22317,-0.49997 1.96169,-1.76531 -0.20603,-0.99701 -1.1661,-1.67891 -2.23124,-1.58479 -2.76254,0.24411 -6.55377,-1.42835 -6.55377,-2.89112 0,-0.89008 2.07753,-1.33824 6.87628,-1.48335 3.78195,-0.11436 8.75403,-0.95926 11.04907,-1.87755 4.05856,-1.62391 4.23595,-1.61028 6.47993,0.49782 2.10658,1.97903 2.35483,3.27182 2.85579,14.87172 0.50326,11.65292 -0.0982,16.38985 -2.04625,16.11724 -0.39315,-0.055 -2.72517,-1.2677 -5.18226,-2.69487 z m -26.00654,-0.67374 c -0.95648,-1.15249 -0.9589,-2.92847 -0.0112,-8.25 0.6642,-3.72975 1.04509,-9.36947 0.84643,-12.53272 -0.36708,-5.84492 -0.2129,-6.28671 1.73909,-4.98333 2.39329,1.59805 3.3997,5.45226 3.3997,13.01972 0,11.74172 -2.45698,16.98404 -5.97398,12.74633 z m 13.98636,-29.28136 c 0.007,-0.4125 1.6028,-1.7804 3.54664,-3.03977 4.3997,-2.85046 5.25076,-4.88307 2.81641,-6.72647 -1.75082,-1.32579 -1.66978,-1.42227 1.21958,-1.45196 3.61851,-0.0372 6.7629,2.87192 5.80431,5.36997 -1.12586,2.93395 -13.42754,8.30807 -13.38694,5.84823 z m -7.56896,-6.5412 c 3.46114,-3.31635 4.34733,-4.79298 3.90093,-6.5 -0.45823,-1.75228 -0.15041,-2.2088 1.48933,-2.2088 1.13682,0 2.49987,0.7736 3.029,1.71911 2.07192,3.70231 -4.65629,11.28089 -10.0151,11.28089 l -2.8827,0 4.47854,-4.2912 z"
           style="fill:#4f4f4f" />
        <path
           inkscape:connector-curvature="0"
           id="path3000"
           d="m 632.42521,766.32647 c 0.33054,-2.0625 3.95221,-25.96962 8.04816,-53.12694 4.09596,-27.15731 7.57757,-49.49333 7.73692,-49.6356 0.15935,-0.14226 7.37872,-2.15359 16.04303,-4.46962 l 15.75331,-4.21095 15.94944,4.24318 c 14.94082,3.97484 15.98361,4.40781 16.48972,6.84655 0.53131,2.56014 15.55423,102.62321 15.55423,103.60193 0,0.2758 -21.63955,0.50145 -48.0879,0.50145 l -48.0879,0 0.60099,-3.75 z m 93.19321,-1 c -0.29729,-1.5125 -3.75652,-24.575 -7.68719,-51.25 -3.93068,-26.675 -7.58963,-48.77716 -8.131,-49.11591 -0.54138,-0.33875 -7.48595,-2.30406 -15.43238,-4.36734 l -14.44807,-3.75143 -14.52347,3.84762 c -7.98791,2.1162 -14.87666,4.0815 -15.30833,4.36734 -0.43167,0.28585 -4.01686,22.34472 -7.96709,49.01972 -3.95023,26.675 -7.42918,49.7375 -7.73101,51.25 l -0.54877,2.75 46.15891,0 46.15891,0 -0.54051,-2.75 z m -27.55501,-3.67362 c -0.67286,-0.81074 -2.87488,-1.99725 -4.89338,-2.63668 -4.4541,-1.41099 -8.17001,-3.65105 -8.17001,-4.92513 0,-0.55167 2.68247,-0.68883 6.5,-0.33234 l 6.5,0.60698 0,-6.89785 c 0,-6.38113 -0.22662,-7.11175 -3.02513,-9.7531 l -3.02514,-2.85524 -6.55188,1.23625 c -5.3015,1.00033 -7.01429,0.98878 -8.97486,-0.0605 -1.33265,-0.7132 -2.42299,-1.6033 -2.42299,-1.97801 0,-0.3747 4.01887,-0.96654 8.93083,-1.3152 4.91195,-0.34866 11.93071,-1.61872 15.59724,-2.82236 6.221,-2.04221 6.84365,-2.08125 9.31917,-0.58423 1.45902,0.8823 2.79826,2.30998 2.97608,3.17261 0.27024,1.31087 -0.87923,1.56924 -7,1.57339 l -7.32332,0.005 2.66738,2.24504 c 2.47942,2.08683 2.71413,2.98648 3.33069,12.76702 0.60635,9.6184 0.49694,10.67255 -1.274,12.27523 -1.69464,1.53363 -2.09054,1.5686 -3.16068,0.27916 z m -36.48427,-1.14012 c -1.1777,-1.1777 -1.35581,-3.22105 -0.87483,-10.03653 l 0.60393,-8.55777 -3.40411,2.07528 c -3.2802,1.99975 -11.92428,2.96891 -11.88704,1.33276 0.009,-0.4125 2.45128,-1.8035 5.42643,-3.0911 6.59279,-2.85327 13.5565,-8.62541 13.5565,-11.23682 0,-2.34605 0.26341,-2.35061 -4.5,0.0779 -2.15759,1.1 -5.51523,1.99965 -7.46144,1.99921 l -3.53856,-7.7e-4 4,-1.98041 c 6.14667,-3.04325 11.25963,-7.71128 12.64618,-11.54572 1.4513,-4.01349 2.11216,-4.21395 4.85382,-1.47229 2.8527,2.8527 2.49278,4.53233 -1.5,7 -4.04945,2.5027 -4.22643,3.06524 -1.5,4.76793 2.94724,1.84058 2.44036,4.79544 -1.34006,7.8119 -3.26123,2.6022 -3.30947,2.75071 -2.04389,6.29264 1.86342,5.21507 1.80592,16.75163 -0.0871,17.47805 -0.80909,0.31048 -2.13651,-0.10094 -2.94983,-0.91426 z m 19.42088,-35.89938 c -3.07469,-1.7123 -1.97143,-2.18339 6.68748,-2.85556 3.40311,-0.26418 7.12428,-1.13649 8.26926,-1.93847 2.33171,-1.63319 6.40329,-1.2189 8.09881,0.82408 1.56133,1.88129 0.42105,3.24652 -2.28168,2.73183 -1.25063,-0.23816 -5.64887,0.27182 -9.77387,1.13329 -8.84841,1.84792 -7.88648,1.83875 -11,0.10483 z m 11.49064,-13.55203 c -0.34507,-0.55834 -2.28413,-1.75215 -4.30902,-2.65293 l -3.68162,-1.63778 3,-0.60493 3,-0.60494 0.28518,-10.26002 c 0.3191,-11.48031 0.0277,-11.97453 -6.35506,-10.77712 -2.6156,0.49069 -3.46875,1.11419 -3.22908,2.35988 0.18679,0.97084 1.32662,1.74364 2.6722,1.81172 1.29056,0.0653 2.73485,0.74031 3.20953,1.5 0.65062,1.04127 0.13127,1.4584 -2.10985,1.69463 -2.3981,0.25277 -2.97292,0.78449 -2.97292,2.75 0,2.02069 0.49386,2.43664 2.89301,2.43664 1.64908,0 3.14051,0.64497 3.46862,1.5 0.44256,1.15331 -0.21561,1.5 -2.8477,1.5 -3.17836,0 -3.4679,0.26832 -4.04653,3.75 -1.02398,6.16135 -1.40702,6.95956 -2.50588,5.22197 -0.51199,-0.80958 -0.93779,-2.85653 -0.94621,-4.54878 -0.0139,-2.80012 -0.26772,-3.03976 -2.82219,-2.66484 -1.67687,0.24611 -3.29304,-0.17382 -4.01446,-1.04308 -1.01342,-1.22109 -0.56212,-1.55824 2.80688,-2.09697 3.49043,-0.55814 4.01446,-0.98088 4.01446,-3.23853 0,-2.23714 -0.33024,-2.5137 -2.38558,-1.99784 -1.48231,0.37203 -2.83533,0.0568 -3.57341,-0.83251 -0.98305,-1.18451 -0.56316,-1.54844 2.43566,-2.11102 4.34559,-0.81524 4.62939,-3.87661 0.37432,-4.03775 -3.67177,-0.13905 -5.85166,-1.11555 -5.84713,-2.61927 0.003,-0.89565 2.03465,-1.33961 6.75,-1.47482 3.71038,-0.1064 8.73479,-0.9008 11.16536,-1.76535 4.25986,-1.51522 4.50256,-1.4936 6.73054,0.59948 1.83047,1.71964 2.27713,3.1271 2.14699,6.76534 -0.0904,2.52668 -0.0292,8.48958 0.13601,13.25088 0.16519,4.7613 -0.004,9.1488 -0.37523,9.75 -0.84697,1.37043 -2.24611,1.40599 -3.06689,0.0779 z m -29.49311,-2.98947 c -0.78818,-1.47272 -0.66569,-4.15091 0.46164,-10.09374 0.84397,-4.44902 1.27786,-9.95944 0.9642,-12.24538 l -0.57027,-4.15626 2.57345,2.80576 c 2.33227,2.54282 2.57345,3.58315 2.57345,11.10078 0,12.21408 -2.92261,18.34361 -6.00247,12.58884 z m 14.04099,-28.74538 c 0.0212,-0.4125 1.44495,-1.65 3.16392,-2.75 4.6529,-2.97748 5.74877,-5.28208 3.35643,-7.05857 -1.83352,-1.36152 -1.76737,-1.44143 1.1933,-1.44143 2.09302,0 3.64491,0.72882 4.67089,2.19362 1.39454,1.99098 1.37668,2.37031 -0.19329,4.10641 -3.20681,3.54612 -12.30896,7.24183 -12.19125,4.94997 z m -7.4541,-6.43458 c 3.67105,-3.38386 4.42496,-4.6419 3.93991,-6.5745 -0.51513,-2.05243 -0.27677,-2.34409 1.68792,-2.06542 1.65811,0.23519 2.37565,1.08978 2.60713,3.10512 0.44569,3.88034 -5.37993,9.71938 -9.69704,9.71938 l -3.07765,0 4.53973,-4.18458 z"
           style="fill:#2f2f2f" />
        <path
           inkscape:connector-curvature="0"
           id="path2998"
           d="m 632.55262,766.32647 c 0.27643,-1.5125 3.88716,-25.23448 8.02385,-52.71551 4.13668,-27.48104 7.61176,-50.01776 7.7224,-50.08161 0.11063,-0.0639 7.31651,-2.00832 16.01305,-4.32104 l 15.8119,-4.20494 15.6881,4.2065 c 8.62846,2.31357 15.80821,4.28763 15.95502,4.3868 0.1468,0.0992 3.62283,22.63519 7.7245,50.08005 4.10167,27.44486 7.6828,51.13725 7.95808,52.64975 l 0.5005,2.75 -47.95,0 -47.95,0 0.5026,-2.75 z m 93.4474,1.22298 c 0,-2.98525 -15.2517,-102.10427 -15.78385,-102.57739 -0.39388,-0.35019 -7.35365,-2.34106 -15.46615,-4.42414 l -14.75,-3.78743 -14.75,3.78743 c -8.1125,2.08308 -15.05088,4.06668 -15.41862,4.40799 -0.36774,0.34131 -3.87529,22.22056 -7.79454,48.62056 -3.91926,26.4 -7.38096,49.4625 -7.69268,51.25 l -0.56674,3.25 46.11129,0 c 25.36121,0 46.11129,-0.23716 46.11129,-0.52702 z m -28.55199,-6.34 c -1.0714,-1.00023 -4.04583,-2.5864 -6.60984,-3.52482 -7.28292,-2.66555 -6.89503,-4.27082 1.01063,-4.18248 l 6.6512,0.0743 -0.081,-6.13783 c -0.0648,-4.90601 -0.56651,-6.75131 -2.5,-9.19467 -2.73593,-3.45741 -3.9462,-3.65337 -12.12712,-1.96363 -5.41899,1.11927 -5.9725,1.05991 -7.87719,-0.84478 l -2.04864,-2.04864 9.45326,-0.62096 c 5.1993,-0.34153 11.41695,-1.34826 13.817,-2.23718 7.25286,-2.68628 8.25278,-2.72072 11.22031,-0.38647 3.66173,2.88032 2.1446,3.89677 -5.85658,3.92381 l -6,0.0203 2.65535,2.24504 c 2.46735,2.08608 2.70122,2.99174 3.30327,12.79183 0.58298,9.48959 0.46196,10.71511 -1.20733,12.22579 -1.73975,1.57445 -1.97655,1.56576 -3.80327,-0.13961 z m -36.10292,-1.18789 c -0.73143,-0.73142 -0.93161,-4.02522 -0.58362,-9.60301 l 0.52966,-8.48973 -3.39557,2.07009 c -2.02298,1.2333 -5.11352,2.07159 -7.64556,2.07382 -4.79285,0.004 -5.66331,-1.4267 -1.5,-2.4658 5.94719,-1.48433 16.25,-9.49456 16.25,-12.63405 0,-2.1386 1.99263,-2.50378 3.8,-0.69641 2.07557,2.07557 1.31815,4.6081 -2.17499,7.27245 l -3.375,2.57423 1.41903,4.11874 c 1.87196,5.43342 1.42457,16.2016 -0.68985,16.60372 -0.83645,0.15908 -2.02179,-0.21174 -2.6341,-0.82405 z m -7.70808,-28.86757 c 5.69548,-2.58624 12.09925,-8.60024 12.8637,-12.08074 0.57988,-2.64018 0.84527,-2.79626 3.04801,-1.79263 2.06118,0.93914 4.33843,4.50747 3.29259,5.15929 -0.18772,0.11699 -2.81631,2.04597 -5.84131,4.28661 -5.83594,4.32271 -10.64199,6.36394 -14.89922,6.32799 -2.27033,-0.0192 -2.07514,-0.26065 1.53623,-1.90052 z m 28.09196,-6.16939 c -2.80742,-1.63441 -1.01678,-2.90856 4.08005,-2.90318 2.58004,0.003 6.80804,-0.75383 9.39556,-1.68121 3.7708,-1.35149 5.2098,-1.45597 7.25,-0.52639 3.69003,1.68129 3.1219,3.19998 -1.20458,3.22001 -2.0625,0.01 -6.89983,0.68455 -10.74963,1.5 -3.84979,0.81545 -6.99979,1.46896 -7,1.45223 -2e-4,-0.0167 -0.79734,-0.49438 -1.7714,-1.06146 z m 7.91189,-15.75207 c -3.70162,-2.52495 -3.76285,-2.65505 -1.5,-3.18744 2.27429,-0.53508 2.36935,-0.94011 2.64297,-11.26183 l 0.28383,-10.70679 -3.28383,0.0136 c -1.80611,0.008 -4.28558,0.28218 -5.50994,0.61038 -1.86052,0.49873 -2.05321,0.91979 -1.17331,2.56391 0.57904,1.08194 1.65101,1.73762 2.38216,1.45705 0.73114,-0.28056 2.11637,0.35954 3.07829,1.42244 1.69349,1.87129 1.6489,1.93257 -1.40604,1.93257 -2.81629,0 -3.15499,0.31201 -3.15499,2.90638 0,2.41662 0.33792,2.81801 2.00533,2.38198 1.10293,-0.28843 2.7523,0.0912 3.66527,0.84362 1.47565,1.21613 1.22524,1.42353 -2.25533,1.86802 -3.75014,0.47891 -3.92863,0.6687 -4.2321,4.5 -0.45639,5.76206 -1.82365,6.38314 -2.60351,1.18264 -0.63394,-4.2274 -0.83663,-4.46005 -3.76826,-4.32518 -1.70406,0.0784 -3.29624,-0.41996 -3.53818,-1.10746 -0.25695,-0.73017 0.39248,-1.25 1.56166,-1.25 3.55488,0 5.16512,-1.15828 5.16512,-3.7154 0,-2.13684 -0.34769,-2.41415 -2.38558,-1.90267 -1.48231,0.37203 -2.83533,0.0568 -3.57341,-0.83251 -0.9826,-1.18397 -0.57043,-1.54708 2.38558,-2.10163 2.59993,-0.48775 3.57341,-1.1849 3.57341,-2.55908 0,-1.42014 -0.72398,-1.88871 -2.91821,-1.88871 -3.74366,0 -6.08445,-0.90866 -6.07183,-2.35699 0.006,-0.7353 2.65068,-1.21445 7.41313,-1.34329 4.07174,-0.11016 9.04788,-0.88749 11.05809,-1.72741 3.48489,-1.45608 3.75642,-1.4235 5.83687,0.70028 2.03129,2.07361 2.18195,3.18795 2.18195,16.13871 0,8.45224 -0.39242,14.0027 -1,14.14422 -0.55,0.12811 -2.73661,-0.95165 -4.85914,-2.39946 z m -26.57945,-1.04131 c -0.70691,-1.32087 -0.54992,-4.23972 0.52439,-9.75 0.84333,-4.32561 1.26958,-9.59373 0.94721,-11.70694 -0.43659,-2.86196 -0.26045,-3.73474 0.69043,-3.42103 2.37023,0.78197 3.747,5.22767 3.76182,12.1472 0.0244,11.37598 -3.07927,18.04591 -5.92385,12.73077 z m 14.55877,-28.92029 c -0.27381,-0.44304 1.08067,-1.65562 3.00996,-2.69461 4.92144,-2.65037 5.97206,-4.96465 3.15087,-6.94068 l -2.22602,-1.55917 2.28825,0 c 3.31331,0 6.15676,1.79204 6.15676,3.8802 0,2.2974 -2.56043,4.62036 -7.25448,6.58166 -4.25891,1.77949 -4.46052,1.8083 -5.12534,0.7326 z m -7.65336,-6.27817 c 3.42449,-3.32335 4.09158,-4.54747 3.58283,-6.57449 -0.54316,-2.16411 -0.32509,-2.44824 1.6626,-2.1663 1.65811,0.23519 2.37565,1.08978 2.60713,3.10512 0.42266,3.67986 -5.3811,9.71938 -9.33996,9.71938 -2.71796,0 -2.71653,-0.004 1.4874,-4.08371 z"
           style="fill:#030303" />
      </g>
    </g>
  </g>
</svg>
