<?xml version="1.0" encoding="UTF-8" standalone="no"?>
<!-- Created with Inkscape (http://www.inkscape.org/) -->

<svg
   xmlns:dc="http://purl.org/dc/elements/1.1/"
   xmlns:cc="http://creativecommons.org/ns#"
   xmlns:rdf="http://www.w3.org/1999/02/22-rdf-syntax-ns#"
   xmlns:svg="http://www.w3.org/2000/svg"
   xmlns="http://www.w3.org/2000/svg"
   xmlns:sodipodi="http://sodipodi.sourceforge.net/DTD/sodipodi-0.dtd"
   xmlns:inkscape="http://www.inkscape.org/namespaces/inkscape"
   width="42.172005"
   height="50"
   id="svg2"
   version="1.1"
   inkscape:version="0.48.3.1 r9886"
   sodipodi:docname="Shogi_keima(svg).svg">
  <defs
     id="defs4" />
  <sodipodi:namedview
     id="base"
     pagecolor="#ffffff"
     bordercolor="#666666"
     borderopacity="1.0"
     inkscape:pageopacity="0.0"
     inkscape:pageshadow="2"
     inkscape:zoom="2.8"
     inkscape:cx="12.057276"
     inkscape:cy="39.791552"
     inkscape:document-units="px"
     inkscape:current-layer="layer1"
     showgrid="false"
     inkscape:window-width="1366"
     inkscape:window-height="718"
     inkscape:window-x="0"
     inkscape:window-y="0"
     inkscape:window-maximized="1"
     fit-margin-top="0"
     fit-margin-left="0"
     fit-margin-right="0"
     fit-margin-bottom="0" />
  <metadata
     id="metadata7">
    <rdf:RDF>
      <cc:Work
         rdf:about="">
        <dc:format>image/svg+xml</dc:format>
        <dc:type
           rdf:resource="http://purl.org/dc/dcmitype/StillImage" />
        <dc:title></dc:title>
      </cc:Work>
    </rdf:RDF>
  </metadata>
  <g
     inkscape:label="Layer 1"
     inkscape:groupmode="layer"
     id="layer1"
     transform="translate(-688.24785,-685.04129)">
    <g
       id="g3792"
       transform="matrix(0.46741798,0,0,0.46741798,366.54843,391.46978)">
      <path
         inkscape:connector-curvature="0"
         id="path3022"
         d="m 704.5814,637.69456 -14.39467,95.96449 86.62058,-0.50507 -14.64721,-95.20688 -30.05204,-8.33376 z"
         style="fill:#ffffff;fill-opacity:1;stroke:none" />
      <path
         style="fill:#d0d0d0"
         d="m 688.24785,734.79129 c 0.69208,-6.48572 14.83334,-97.94335 15.20092,-98.31093 0.29659,-0.2966 7.11672,-2.31012 15.15583,-4.47449 l 14.61657,-3.93522 14.66218,3.9475 c 8.0642,2.17113 14.96246,4.30202 15.32946,4.73532 0.36699,0.4333 3.71483,21.48782 7.43964,46.78782 3.7248,25.3 7.0078,47.2375 7.29554,48.75 l 0.52318,2.75 -45.125,0 c -24.81875,0 -45.11299,-0.1125 -45.09832,-0.25 z m 85.93189,-5 c -0.0228,-1.2375 -3.06029,-22.26916 -6.75,-46.73703 l -6.70857,-44.48703 -13.75,-3.67258 -13.75,-3.67258 -13.71852,3.66641 -13.71851,3.66641 -6.72362,44.4932 c -3.69799,24.47126 -6.74966,45.5057 -6.78148,46.7432 l -0.0579,2.25 41,0 41,0 -0.0414,-2.25 z m -30.66808,-5.99218 c -2.31523,-1.6939 -4.01243,-3.39872 -3.77154,-3.78849 0.24089,-0.38976 2.36017,-0.35434 4.70952,0.0787 5.04539,0.93001 7.06991,-0.39209 8.84734,-5.77774 1.01643,-3.07982 0.90992,-3.72902 -0.91043,-5.54937 -2.0567,-2.0567 -2.08848,-2.0573 -13.59492,-0.25341 -9.32679,1.46218 -11.82393,1.567 -13.05193,0.54785 -2.57536,-2.13734 -1.7072,-3.01536 2.98147,-3.01536 2.475,0 4.5,-0.45 4.5,-1 0,-0.55 -1.2375,-1.00614 -2.75,-1.01365 -1.5125,-0.008 -3.7625,-0.285 -5,-0.61664 -2.02973,-0.54394 -2.25,-0.24892 -2.25,3.01366 0,1.98915 -0.47296,3.61663 -1.05103,3.61663 -2.07784,0 -3.90256,-6.59625 -3.27965,-11.85573 0.45036,-3.80261 0.19019,-5.70974 -1.03375,-7.5777 -3.06943,-4.68455 -1.03786,-6.24405 3.49217,-2.68073 2.0687,1.62724 3.17754,1.76351 8.08616,0.99377 3.12878,-0.49065 6.86491,-1.33928 8.3025,-1.88585 3.87555,-1.47348 7.46476,-1.20644 8.1607,0.60716 0.7516,1.95862 -1.26924,3.36329 -4.86808,3.38377 -1.48004,0.008 -2.9691,0.46531 -3.30902,1.01531 -0.36706,0.59391 0.80328,1 2.88197,1 3.79545,0 5.70906,1.69486 3.49614,3.09649 -0.75796,0.48009 -2.61561,0.87978 -4.12811,0.8882 -4.13446,0.023 -3.30655,1.84852 1,2.20494 2.52873,0.20929 3.75,0.79888 3.75,1.81037 0,1.01149 -1.22127,1.60108 -3.75,1.81037 -2.0625,0.1707 -3.75,0.77542 -3.75,1.34383 0,1.19285 9.43497,0.17567 12.28777,-1.32473 2.61661,-1.37619 5.36956,-0.14529 8.31664,3.71852 l 2.60306,3.4128 -2.35373,5.68084 c -2.50892,6.05538 -6.78526,11.41078 -9.00495,11.2772 -0.74183,-0.0447 -3.24307,-1.4671 -5.5583,-3.16101 z m -12.85623,-23.75782 c 1.41116,0 2.56574,-0.45 2.56574,-1 0,-0.55 -1.0882,-1 -2.41821,-1 -1.33002,0 -3.13002,-0.27314 -4,-0.60699 -2.75214,-1.05609 -1.71345,-2.39301 1.85919,-2.39301 1.89254,0 3.7191,-0.45 4.05902,-1 0.34318,-0.55529 -0.40882,-1.00607 -1.69098,-1.01366 -1.26996,-0.008 -3.32152,-0.28499 -4.55902,-0.61663 -2.1202,-0.56819 -2.25,-0.30577 -2.25,4.54884 0,4.78357 0.13826,5.07782 1.93426,4.11663 1.06384,-0.56935 3.08884,-1.03518 4.5,-1.03518 z m -17.81202,25.19778 c -0.68241,-1.10415 -3.58976,-9.52378 -3.60769,-10.44778 -0.0325,-1.67431 2.35142,-0.56974 5.08424,2.35576 3.49414,3.74048 4.05054,8.89424 0.96023,8.89424 -1.06754,0 -2.16409,-0.361 -2.43678,-0.80222 z m 7.41243,-7.85232 c -1.13241,-2.55999 -1.85438,-4.85908 -1.60437,-5.10909 0.25,-0.25 1.80385,0.50623 3.45298,1.68052 3.10951,2.21416 4.70279,5.32581 3.62225,7.07416 -1.36556,2.20953 -3.51421,0.77775 -5.47086,-3.64559 z m 9.03231,-1.41174 c -3.44725,-4.28964 -3.50925,-5.52625 -0.2248,-4.48381 3.34939,1.06305 7.15782,4.58675 7.15782,6.62267 0,3.26656 -3.4426,2.2045 -6.93302,-2.13886 z m 10.45645,-1.41136 c -2.18712,-1.8714 -3.69504,-3.68408 -3.35094,-4.02818 0.95692,-0.95693 8.4341,1.32687 9.8229,3.00026 1.42365,1.71539 0.66081,4.52295 -1.214,4.46801 -0.70477,-0.0207 -3.07085,-1.56869 -5.25796,-3.44009 z m -18.41159,-33.8876 c -0.82357,-0.99234 -0.97411,-3.52277 -0.49043,-8.24379 l 0.69791,-6.81193 -4.05356,3.21048 c -7.80513,6.18177 -10.91184,2.86417 -4.11508,-4.39442 8.12191,-8.67379 8.84932,-9.48573 8.84932,-9.87768 0,-0.21543 -1.53144,-0.14316 -3.4032,0.16058 -2.76914,0.44937 -3.6141,0.15819 -4.53518,-1.56287 -1.03376,-1.93158 -0.8757,-2.11513 1.82141,-2.11513 1.62437,0 3.6652,-0.27315 4.53518,-0.60699 2.00086,-0.7678 2.04628,-3.76263 0.0818,-5.39301 -2.16585,-1.79749 -1.84518,-3 0.8,-3 2.9086,0 4.7,1.76489 4.7,4.63045 0,1.54826 0.68504,2.32818 2.23978,2.55 1.23189,0.17575 2.38988,1.10705 2.57333,2.06955 0.25909,1.35941 -0.35241,1.75 -2.73979,1.75 -2.65938,0 -3.07332,0.35759 -3.07332,2.65499 0,2.56089 0.0685,2.59299 1.93284,0.90579 1.39764,-1.26485 2.77589,-1.56403 4.97753,-1.08047 1.67458,0.3678 3.9548,0.37987 5.06716,0.0268 2.70016,-0.85699 2.67445,-5.40855 -0.0501,-8.87227 -1.46581,-1.86348 -1.68538,-2.66955 -0.75,-2.75334 4.6431,-0.41595 7.82258,2.24624 7.82258,6.54989 0,3.0507 0.0928,3.11259 4.0953,2.73089 3.56152,-0.33964 4.04891,-0.14758 3.73939,1.47358 -0.22854,1.19693 -1.69429,2.19568 -4.09531,2.79048 -4.43172,1.09789 -5.36507,4.07405 -0.98938,3.15487 3.36541,-0.70696 5.75522,0.65979 4.9271,2.81784 -0.4028,1.0497 -1.83025,1.60093 -4.14571,1.60093 -2.71657,0 -3.53139,0.40988 -3.53139,1.77643 0,1.4694 0.69132,1.71049 4,1.39496 2.48361,-0.23685 4,0.0375 4,0.72357 0,0.60777 0.0149,1.44254 0.0331,1.85504 0.0182,0.4125 -1.63411,0.975 -3.67183,1.25 -2.03772,0.275 -3.91108,1.12537 -4.16302,1.88971 -0.36547,1.10878 0.60602,1.28747 4.80575,0.88393 4.2809,-0.41134 5.6191,-0.15052 7.16638,1.39676 2.94276,2.94276 1.31477,3.88081 -6.49176,3.74057 -3.94825,-0.0709 -9.31696,0.1963 -11.93046,0.59385 -3.63718,0.55326 -5.33782,0.33885 -7.25,-0.91406 -3.6889,-2.41705 -3.0938,-3.09076 2.73013,-3.09076 4.33886,0 5.29523,-0.3236 5.60319,-1.89591 0.27882,-1.42351 -0.0435,-1.73673 -1.29342,-1.25708 -1.88754,0.72432 -7.53808,-1.85436 -7.53808,-3.44008 0,-0.57294 0.86173,-0.7682 1.91496,-0.43392 2.3068,0.73215 7.08504,-0.33438 7.08504,-1.58142 0,-0.49037 -1.24987,-0.89159 -2.77749,-0.89159 -3.06011,0 -7.55577,-2.65176 -6.73824,-3.97454 0.28474,-0.46074 1.41005,-0.60435 2.50068,-0.31915 2.98958,0.7818 7.01505,-0.54079 7.01505,-2.30482 0,-1.21817 -0.66688,-1.41393 -3.04064,-0.89256 -2.00055,0.43939 -3.82126,0.15635 -5.32273,-0.82745 -2.16259,-1.41698 -2.3692,-1.32996 -3.94535,1.66162 -1.1087,2.10432 -1.75129,6.13078 -1.92727,12.0762 -0.26401,8.91944 -1.24204,11.11949 -3.65217,8.21546 z m -0.30497,-20.16122 c -0.30789,-0.30789 -0.86705,0.24711 -1.24258,1.23333 -0.54268,1.4252 -0.42782,1.54006 0.5598,0.5598 0.68342,-0.67834 0.99067,-1.48524 0.68278,-1.79313 z"
         id="path3010"
         inkscape:connector-curvature="0" />
      <path
         style="fill:#afafaf"
         d="m 688.78232,732.29129 c 0.28114,-1.5125 3.61662,-23.60923 7.41218,-49.10384 3.79556,-25.49462 7.0418,-46.49069 7.21385,-46.65794 0.17205,-0.16725 6.93971,-2.09555 15.03924,-4.28511 l 14.72643,-3.98102 14.72718,3.92589 c 8.09995,2.15925 14.9265,4.12522 15.17012,4.36884 0.24362,0.24361 3.50929,21.03949 7.25705,46.21306 3.74776,25.17357 7.07721,47.23262 7.39877,49.02012 l 0.58466,3.25 -45.02032,0 -45.02031,0 0.51115,-2.75 z m 83.88116,-15 c -1.22423,-8.1125 -4.36696,-29.17019 -6.98385,-46.79487 l -4.75798,-32.04486 -14.10024,-3.6841 -14.10024,-3.6841 -13.5,3.72896 c -11.1976,3.093 -13.55263,4.07007 -13.80857,5.72897 -0.16971,1.1 -3.34426,22.1375 -7.05455,46.75 l -6.746,44.75 41.63865,0 41.63864,0 -2.22586,-14.75 z m -26.14262,8.38548 c -0.43983,-0.75049 -2.26219,-2.11204 -4.04969,-3.02568 -1.7875,-0.91364 -3.25,-1.90678 -3.25,-2.20699 0,-0.3002 2.33334,-0.40114 5.18519,-0.22432 4.92261,0.30523 5.30243,0.14943 7.5,-3.07637 2.66994,-3.91918 2.88193,-5.94428 0.90524,-8.64757 -1.37733,-1.8836 -1.6777,-1.88874 -13.12854,-0.22474 -8.14382,1.18344 -12.2899,1.39742 -13.59043,0.7014 -3.18077,-1.7023 -2.07876,-2.93121 2.62854,-2.93121 2.475,0 4.5,-0.45 4.5,-1 0,-0.55 -1.0882,-1 -2.41821,-1 -6.28419,0 -7.45514,-2.6768 -1.58179,-3.61599 4.35848,-0.69695 5.47784,-2.38401 1.58179,-2.38401 -1.33002,0 -3.13002,-0.27314 -4,-0.60699 -2.75214,-1.05609 -1.71345,-2.39301 1.85919,-2.39301 1.89254,0 3.7191,-0.45 4.05902,-1 0.33992,-0.55 -0.27923,-1 -1.37588,-1 -1.09666,0 -3.24547,-0.47584 -4.77514,-1.05742 -2.22659,-0.84654 -2.48884,-1.24233 -1.3151,-1.98468 0.80637,-0.51 2.68789,-0.93417 4.18117,-0.94259 1.49328,-0.008 4.80818,-0.72594 7.36644,-1.5945 5.04265,-1.71202 9.41851,-1.22912 9.41851,1.03939 0,0.87039 -1.61859,1.74219 -4.17207,2.24717 -5.18756,1.02588 -6.28968,3.06168 -1.34499,2.48441 2.64432,-0.3087 3.51706,-0.0378 3.51706,1.09182 0,1.62757 -2.03697,2.7164 -5.08179,2.7164 -1.05501,0 -1.91821,0.45 -1.91821,1 0,0.55 1.54844,1 3.44098,1 3.74565,0 5.63648,1.70345 3.43713,3.09649 -0.75796,0.48009 -2.61561,0.87978 -4.12811,0.8882 -1.5125,0.008 -2.75,0.46531 -2.75,1.01531 0,1.39288 3.61031,1.24742 9.96744,-0.4016 6.18597,-1.60462 8.28464,-0.82741 11.23013,4.15891 1.63462,2.7672 1.58886,3.03019 -1.71612,9.86276 -2.2619,4.67616 -4.26021,7.41373 -5.98554,8.19984 -3.22694,1.47029 -3.22644,1.47031 -4.19622,-0.18443 z m -33.76705,-0.81157 c -2.48522,-7.13219 -3.36974,-10.32014 -2.97337,-10.71651 0.25888,-0.25888 2.05849,1.06826 3.99914,2.94921 2.51439,2.43705 3.44412,4.13932 3.23502,5.9231 -0.31611,2.6967 -3.4857,4.06859 -4.26079,1.8442 z m 9.09454,-5.07391 c -1.92825,-3.05763 -2.95755,-6.75 -1.88166,-6.75 1.81695,0 6.50722,5.89899 5.91576,7.4403 -0.844,2.19945 -2.37718,1.9371 -4.0341,-0.6903 z m 7.59339,-3.92324 c -1.76409,-2.29528 -3.03402,-4.34664 -2.82209,-4.55858 0.68703,-0.68702 7.0619,2.37424 8.4634,4.06418 1.54192,1.85927 0.87016,4.66764 -1.1165,4.66764 -0.72456,0 -2.76072,-1.87796 -4.52481,-4.17324 z m 10.36282,-1.36839 -3.91661,-3.45837 3.55583,0 c 4.27199,0 8.39519,2.94766 7.47553,5.34424 -0.94047,2.45084 -2.74517,1.97248 -7.11475,-1.88587 z m -19.54821,-6.39263 c -0.56935,-1.06384 -1.03518,-4.93191 -1.03518,-8.59571 0,-4.4704 -0.55831,-7.60659 -1.69743,-9.53497 -2.05156,-3.47302 -1.45972,-4.32551 2.07103,-2.98312 4.0671,1.54631 4.97499,4.70311 4.16144,14.46969 -0.7172,8.60985 -1.57565,10.23953 -3.49986,6.64411 z m 1.11055,-27.79344 c -0.54656,-1.02126 -0.74044,-4.65032 -0.43085,-8.06457 0.30959,-3.41425 0.33727,-6.20773 0.0615,-6.20773 -0.27576,0 -2.20014,1.35 -4.27639,3 -2.07625,1.65 -4.33999,3 -5.03052,3 -3.23207,0 -1.85507,-3.24491 4.08524,-9.62688 3.5186,-3.78022 6.40822,-7.2594 6.42137,-7.73153 0.0131,-0.47212 -1.14413,-0.56525 -2.57174,-0.20694 -2.52183,0.63294 -5.40435,-0.73094 -5.40435,-2.5571 0,-0.48265 1.58912,-0.87755 3.53139,-0.87755 4.34054,0 5.47104,-2.18825 3.18674,-6.16842 -1.57935,-2.75185 -1.56166,-2.83158 0.62838,-2.83158 2.86521,0 4.65349,1.77943 4.65349,4.63045 0,1.54826 0.68504,2.32818 2.23978,2.55 1.23189,0.17575 2.38988,1.10705 2.57333,2.06955 0.25909,1.35941 -0.35241,1.75 -2.73979,1.75 -2.64981,0 -3.07332,0.36138 -3.07332,2.62244 0,2.32619 0.18689,2.4674 1.6543,1.25 0.92484,-0.76727 3.90121,-1.37244 6.75,-1.37244 5.05257,0 5.09842,-0.0284 5.41722,-3.35942 0.23082,-2.41176 -0.31201,-4.03378 -1.92432,-5.75 l -2.24583,-2.39058 3.01933,0 c 4.1151,0 6.76812,3.05591 5.99761,6.90843 -0.58576,2.92884 -0.54439,2.96058 3.61958,2.77714 5.85677,-0.25803 5.82839,2.43154 -0.0379,3.59165 -5.41917,1.07169 -6.02097,3.9047 -0.75411,3.54999 3.4088,-0.22957 6.54403,1.4662 5.19848,2.81175 -0.36976,0.36976 -2.35991,0.9466 -4.42256,1.28188 -2.50903,0.40783 -3.86476,1.20404 -4.09617,2.40566 -0.29926,1.55393 0.1389,1.70512 3.25019,1.12143 2.30082,-0.43163 4.12846,-0.2328 5.07412,0.55203 2.22548,1.84698 0.84554,3.00004 -3.59035,3.00004 -2.65785,0 -4.16832,0.51065 -4.56452,1.54313 -0.93007,2.42371 0.31649,2.87127 5.00742,1.79783 5.28573,-1.20955 8.6475,-0.16603 8.6475,2.68424 0,1.95203 -0.47747,2.072 -7.25,1.82162 -3.9875,-0.14742 -9.5,0.0677 -12.25,0.47813 -4.21747,0.62938 -5.39126,0.43107 -7.5,-1.26716 l -2.5,-2.01332 5.75,-0.0222 c 5.07592,-0.0196 5.75,-0.25669 5.75,-2.02223 0,-1.53664 -0.66667,-2 -2.87756,-2 -1.58265,0 -3.43775,-0.675 -4.12244,-1.5 -1.05101,-1.26639 -0.84921,-1.5 1.29577,-1.5 3.47263,0 5.70423,-0.96565 5.70423,-2.46832 0,-0.78327 -0.89738,-1.08279 -2.3895,-0.79755 -1.33958,0.25607 -3.63427,-0.35409 -5.22246,-1.38868 l -2.83295,-1.84545 4.96377,-0.5 c 3.83773,-0.38657 5.04491,-0.92722 5.32144,-2.38325 0.30233,-1.59184 -0.0609,-1.7782 -2.3472,-1.20437 -1.78803,0.44876 -3.5458,0.12789 -5.18575,-0.94665 -1.36448,-0.89405 -2.59105,-1.47708 -2.72571,-1.29563 -3.19568,4.30611 -3.58164,5.8072 -3.58164,13.92996 0,6.28586 -0.39151,8.97998 -1.43026,9.84206 -1.13786,0.94434 -1.63343,0.8074 -2.42401,-0.66982 z m -0.37423,-19.83414 c -0.3352,-0.3352 -1.14848,0.44159 -1.8073,1.72619 -1.14511,2.23286 -1.11829,2.25968 0.60946,0.60946 0.99401,-0.94941 1.53304,-2.00045 1.19784,-2.33565 z"
         id="path3008"
         inkscape:connector-curvature="0" />
      <path
         style="fill:#8f8f8f"
         d="m 688.88639,732.79129 c 0.21333,-1.2375 3.53296,-23.36953 7.37695,-49.18229 3.84399,-25.81275 7.10132,-47.04453 7.23852,-47.18173 0.1372,-0.1372 6.88017,-1.96767 14.98438,-4.06772 l 14.73493,-3.81826 14.73493,3.81826 c 8.10421,2.10005 14.88248,3.96582 15.06282,4.14616 0.18034,0.18034 3.43336,21.18712 7.22892,46.68174 3.79556,25.49461 7.13104,47.59134 7.41218,49.10384 l 0.51115,2.75 -44.83633,0 -44.83633,0 0.38788,-2.25 z m 85.92369,-2.5 c -0.3135,-1.5125 -3.53805,-22.775 -7.16566,-47.25 -3.62761,-24.475 -6.66936,-44.56532 -6.75945,-44.64516 -0.0901,-0.0798 -6.34314,-1.77955 -13.89568,-3.77713 l -13.73187,-3.63198 -14.01813,3.68986 c -8.0743,2.12532 -14.01812,4.19293 -14.01812,4.87633 0,1.44823 -12.79731,86.87864 -13.59239,90.73808 l -0.56652,2.75 42.15891,0 42.15891,0 -0.57,-2.75 z m -28.19023,-4.78043 c -1.04427,-0.79291 -3.02368,-2.35164 -4.39868,-3.46385 l -2.5,-2.0222 5.16941,0.62638 5.1694,0.62638 2.0806,-4.0783 c 2.67417,-5.24182 2.6294,-7.76347 -0.16941,-9.54025 -1.9714,-1.2515 -3.58562,-1.19051 -13.03651,0.49259 -7.89857,1.40665 -11.31221,1.63962 -12.75,0.87014 -3.26763,-1.74878 -2.21942,-2.98046 2.53651,-2.98046 3.41932,0 4.5,-0.37641 4.5,-1.56739 0,-1.11231 -0.58068,-1.38308 -2,-0.93261 -2.23096,0.70808 -6,-0.19623 -6,-1.43958 0,-0.44264 1.8,-1.09264 4,-1.44443 5.17741,-0.8279 5.10472,-2.18372 -0.16224,-3.02594 -4.7458,-0.75889 -4.15065,-2.27729 1.08523,-2.76875 4.85155,-0.45539 4.94189,-2.36676 0.11186,-2.36676 -5.70767,0 -7.47393,-2.13254 -2.4151,-2.91592 2.13414,-0.33048 6.25434,-1.28851 9.156,-2.12896 5.57655,-1.61522 9.22425,-1.18163 9.22425,1.09645 0,0.85866 -1.68237,1.62363 -4.5,2.04616 -5.12004,0.7678 -6.12264,2.97203 -1.34518,2.9574 4.47017,-0.0137 4.77136,2.22595 0.40939,3.04426 -4.64053,0.87057 -4.80005,3.18875 -0.18232,2.64965 1.96479,-0.22938 3.69457,0.11113 4.12811,0.81261 0.83782,1.35561 -1.21959,3.03486 -3.51,2.86485 -2.90095,-0.21534 -4,0.12994 -4,1.25664 0,1.29121 10.14282,0.4414 12.85633,-1.07716 1.86837,-1.04559 4.75655,0.27096 7.319,3.3363 2.29433,2.74461 2.25367,4.43648 -0.24681,10.27027 -3.42975,8.00185 -7.31107,11.24646 -10.52984,8.80248 z m -33.1701,-0.69415 c -1.47635,-1.77889 -4.26234,-10.07499 -3.60435,-10.73298 1.10334,-1.10334 7.50027,7.0685 7.1883,9.18278 -0.37799,2.56179 -2.11932,3.31498 -3.58395,1.5502 z m 9.37073,-3.50459 c -1.34879,-1.34035 -3.65135,-7.55212 -3.02979,-8.17368 0.85307,-0.85308 6.61789,5.8406 6.17484,7.16977 -0.48161,1.44484 -2.16168,1.98112 -3.14505,1.00391 z m 8.40792,-3.46715 c -5.30634,-5.6314 -4.38512,-7.55079 1.81094,-3.77318 2.00253,1.2209 3.19202,2.67342 3,3.66339 -0.49975,2.57652 -2.44477,2.62091 -4.81094,0.10979 z m 9.1306,-3.03782 c -4.12603,-3.15795 -4.18296,-3.27625 -1.72301,-3.5803 3.55191,-0.43901 8.08518,1.94088 8.08518,4.24458 0,3.02812 -1.78079,2.84219 -6.36217,-0.66428 z m -19.89728,-6.75229 c -0.68797,-1.10162 -1.24055,-5.18677 -1.24055,-9.17126 0,-5.2919 -0.43749,-7.66825 -1.66054,-9.0197 -2.06262,-2.27917 -1.22078,-3.26062 2.08511,-2.4309 4.0301,1.01149 4.85269,3.78777 4.06629,13.72383 -0.38675,4.88645 -0.99716,8.88446 -1.35648,8.88446 -0.3593,0 -1.21153,-0.89389 -1.89383,-1.98643 z m 0.61632,-28.19025 c -0.0787,-0.72782 -0.0265,-4.46037 0.11607,-8.29454 l 0.2592,-6.97123 -4.11895,3.72123 c -4.49018,4.0566 -5.87247,4.51209 -6.75035,2.22437 -0.35896,-0.93541 1.71573,-4.07999 5.53138,-8.38384 3.35818,-3.78784 6.10578,-7.22051 6.10578,-7.62815 0,-0.40764 -1.28437,-0.48429 -2.85417,-0.17033 -2.63461,0.52693 -5.14583,-0.67381 -5.14583,-2.46047 0,-0.40679 1.6875,-0.87929 3.75,-1.05 3.28205,-0.27163 3.73786,-0.62233 3.6527,-2.81036 -0.0535,-1.375 -0.43917,-3.2875 -0.85699,-4.25 -0.58518,-1.348 -0.28377,-1.75 1.31212,-1.75 2.2193,0 4.14217,2.67559 4.14217,5.76366 0,1.32219 0.68023,1.87114 2.25,1.81574 3.32861,-0.11746 2.87037,2.84922 -0.5,3.23702 -2.20021,0.25316 -2.75,0.82743 -2.75,2.87245 0,2.22583 0.20595,2.38509 1.5943,1.23287 0.87687,-0.72774 3.91437,-1.34534 6.75,-1.37245 5.10927,-0.0489 5.1586,-0.0796 5.47722,-3.40871 0.23082,-2.41176 -0.31201,-4.03378 -1.92432,-5.75 l -2.24583,-2.39058 3.15126,0 c 3.90249,0 6.60762,3.51727 5.64744,7.34292 -0.61887,2.46575 -0.48988,2.54778 3.70437,2.35589 3.26743,-0.14949 4.34556,0.16994 4.34556,1.28749 0,0.81747 -0.9,1.62249 -2,1.78894 -5.37527,0.81336 -6.5,1.35819 -6.5,3.14866 0,1.61231 0.56128,1.8105 3.87035,1.36666 2.41715,-0.3242 4.14437,-0.0758 4.60014,0.66169 1.01534,1.64286 0.13706,2.26383 -4.19868,2.96859 -2.57036,0.4178 -3.86325,1.1962 -4.10935,2.47411 -0.31598,1.64072 0.0819,1.78179 3.31503,1.17525 2.31605,-0.43449 4.19648,-0.25575 5.0873,0.48357 2.22938,1.85022 0.6953,2.94623 -4.12381,2.94623 -3.85495,0 -4.44098,0.27912 -4.44098,2.11522 0,1.98298 0.34717,2.07185 5.55287,1.42144 5.80561,-0.72536 8.44713,0.27603 8.44713,3.20228 0,1.243 -1.08823,1.37751 -6.47619,0.80051 -4.07947,-0.43687 -8.53953,-0.23178 -12.05156,0.55417 -5.25823,1.17674 -5.69883,1.12424 -7.74603,-0.92295 l -2.17066,-2.17067 5.22222,0 c 4.55555,0 5.22222,-0.25532 5.22222,-2 0,-1.53664 -0.66667,-2 -2.87756,-2 -1.58265,0 -3.41367,-0.64599 -4.06893,-1.43553 -0.99478,-1.19863 -0.56255,-1.48742 2.61924,-1.75 2.76213,-0.22794 3.90698,-0.82255 4.16085,-2.16103 0.27655,-1.45804 -0.0794,-1.7102 -1.6917,-1.19848 -1.20262,0.3817 -3.39837,-0.0924 -5.34192,-1.15344 l -3.29998,-1.80152 5.49133,-0.5 c 4.37232,-0.39811 5.56477,-0.88664 5.8517,-2.39735 0.31357,-1.65096 -0.0933,-1.82371 -3.13355,-1.33036 -2.3097,0.37482 -4.23474,0.0481 -5.67961,-0.96392 -3.62605,-2.53978 -5.4275,1.24878 -6.02987,12.68115 -0.42187,8.00663 -0.77346,9.54168 -2.25,9.82332 -0.9625,0.18359 -1.81441,-0.26169 -1.89313,-0.98952 z m -0.0854,-19.38516 c -0.3352,-0.3352 -1.14848,0.44159 -1.8073,1.72619 -1.14511,2.23286 -1.11829,2.25968 0.60946,0.60946 0.99401,-0.94941 1.53304,-2.00045 1.19784,-2.33565 z"
         id="path3006"
         inkscape:connector-curvature="0" />
      <path
         style="fill:#6e6e6e"
         d="m 689.22117,733.12562 c 0,-1.90619 14.02469,-96.49082 14.33649,-96.68744 1.04923,-0.66164 28.05938,-7.39689 29.66351,-7.39689 1.72545,0 28.8278,6.80385 29.73438,7.4646 0.12891,0.094 3.37946,21.29036 7.22345,47.10311 3.84399,25.81276 7.16362,47.94479 7.37695,49.18229 l 0.38788,2.25 -44.36133,0 c -43.04369,0 -44.36133,-0.0569 -44.36133,-1.91567 z m 85.62967,-3.33433 c -0.3261,-1.7875 -3.53509,-23.02141 -7.13109,-47.18646 -3.59599,-24.16506 -6.64176,-44.03802 -6.76838,-44.16213 -0.12661,-0.12412 -6.41069,-1.88946 -13.96462,-3.92297 l -13.73443,-3.6973 -14.01557,3.7499 c -7.70857,2.06245 -14.01558,4.09731 -14.01558,4.5219 0,0.98189 -12.82218,86.33867 -13.62438,90.69706 l -0.5982,3.25 42.22258,0 42.22258,0 -0.59291,-3.25 z m -61.33786,-4.9667 c -0.5546,-0.70581 -1.72033,-3.42229 -2.59051,-6.0366 -1.52442,-4.57985 -1.51418,-4.71692 0.28072,-3.75632 2.92221,1.56392 6.13644,6.19392 5.81245,8.37269 -0.36108,2.42822 -2.14293,3.15071 -3.50266,1.42023 z m 32.20819,0.16044 c -0.55,-0.52595 -2.125,-1.83346 -3.5,-2.90559 l -2.5,-1.94932 5.05858,0.57221 c 5.45689,0.61725 6.17957,0.0758 9.19759,-6.89088 1.02885,-2.37497 0.89114,-3.06866 -1.05931,-5.33619 -2.21571,-2.57592 -2.3175,-2.59236 -8.71937,-1.40795 -3.56262,0.65912 -8.46314,1.55896 -10.89005,1.99964 -4.6634,0.84677 -9.63821,-0.32547 -8.5886,-2.02379 0.34056,-0.55103 2.39264,-1.00187 4.56018,-1.00187 2.87953,0 3.94098,-0.4142 3.94098,-1.53785 0,-0.98544 -0.80823,-1.46839 -2.25,-1.34447 -3.75432,0.32266 -5.75,-0.0653 -5.75,-1.11768 0,-0.55 1.0125,-1.00614 2.25,-1.01365 3.7368,-0.0227 6.85724,-1.17228 6.41589,-2.36367 -0.22874,-0.61748 -1.00563,-0.98235 -1.72642,-0.81084 -1.96208,0.46688 -5.93947,-0.71876 -5.93947,-1.77053 0,-0.50632 1.65271,-1.06024 3.6727,-1.23095 5.19126,-0.43869 5.44068,-2.53763 0.30154,-2.53763 -6.12416,0 -7.13249,-1.87195 -1.46604,-2.72169 2.5622,-0.38423 6.53354,-1.36054 8.82518,-2.1696 4.46651,-1.57687 9.06489,-1.08163 8.40713,0.90544 -0.22086,0.66722 -2.27782,1.61456 -4.57103,2.1052 -4.93226,1.05528 -5.69471,3.47436 -1.02603,3.25537 4.4064,-0.20669 4.71954,1.96807 0.40006,2.77841 -4.78677,0.898 -4.70815,3.3387 0.1027,3.1882 2.10811,-0.0659 3.8306,0.41323 4.08333,1.13594 0.29593,0.84624 -0.70127,1.25 -3.08719,1.25 -3.36425,0 -5.5481,1.42758 -4.21823,2.75746 0.34342,0.34341 4.03718,0.0509 8.20836,-0.64994 l 7.58397,-1.27433 2.89177,2.7705 c 3.41854,3.27516 3.54031,4.67597 0.92117,10.59698 -3.75312,8.48453 -8.24089,11.88774 -11.52939,8.74307 z m -22.92152,-3.69374 c -1.33261,-1.32404 -3.6254,-7.53641 -3.00896,-8.15285 1.04754,-1.04754 6.41132,5.7892 5.7973,7.38931 -0.6358,1.65687 -1.61841,1.92594 -2.78834,0.76354 z m 7.42152,-5.25 c -3.33562,-4.21157 -2.764,-4.96356 1.92848,-2.53699 2.92168,1.51087 4.49925,4.03589 3.51575,5.62723 -1.01963,1.64979 -2.23762,0.95843 -5.44423,-3.09024 z m 10.02942,-1.31746 c -4.03786,-3.09013 -4.08474,-3.19167 -1.6146,-3.49698 3.22813,-0.39899 7.96524,1.83388 8.37204,3.94623 0.57259,2.97322 -2.55722,2.76514 -6.75744,-0.44925 z m -19.27942,-6.65505 c -1.25347,-1.77097 -1.75,-4.40549 -1.75,-9.28518 0,-4.689 -0.52234,-7.60988 -1.67566,-9.37006 -1.63864,-2.50087 -1.62428,-2.54982 0.64967,-2.21482 1.27893,0.18841 3.20025,1.519 4.26959,2.95685 1.75402,2.35851 1.86168,3.48365 1.10032,11.5 -0.8379,8.8223 -0.85641,8.86807 -2.59392,6.41321 z m 0.13908,-28.20417 c -0.061,-0.72782 -0.0173,-4.43333 0.0972,-8.23445 l 0.20812,-6.91112 -4.2772,3.66112 c -4.71913,4.0394 -5.7081,4.36962 -6.54612,2.18577 -0.34851,-0.90819 1.77793,-4.11288 5.53138,-8.33619 3.35365,-3.77345 6.09754,-7.16668 6.09754,-7.54052 0,-0.37383 -1.25038,-0.58442 -2.77862,-0.46798 -1.52824,0.11645 -3.32824,-0.12796 -4,-0.54313 -2.38755,-1.47558 -1.16387,-2.63682 2.77862,-2.63682 3.75994,0 4,-0.1765 4,-2.94098 0,-1.61754 -0.45,-3.2191 -1,-3.55902 -1.67942,-1.03794 -1.11517,-2.5 0.96482,-2.5 2.45884,0 4.36312,3.39138 3.47518,6.18904 -0.5464,1.72154 -0.34771,1.98952 1.07135,1.44498 1.92136,-0.7373 4.78631,1.07534 3.91862,2.47929 -0.3014,0.48768 -1.64645,0.88669 -2.98899,0.88669 -1.94608,0 -2.44098,0.514 -2.44098,2.53518 0,2.32809 0.1838,2.43437 2.25,1.30105 1.2375,-0.67877 4.5,-1.25711 7.25,-1.28518 l 5,-0.0511 -0.2818,-3.45639 c -0.15498,-1.90102 -1.01473,-4.26628 -1.91053,-5.25614 -2.13296,-2.35689 -0.96478,-3.40324 2.46184,-2.20509 2.31153,0.80825 2.77769,1.60441 3.03812,5.18879 l 0.30762,4.23404 3.81678,-0.61033 c 3.98192,-0.63674 5.96715,0.61654 3.80696,2.40333 -0.68144,0.56365 -2.58899,1.17714 -4.23899,1.3633 -2.17996,0.24597 -3.08422,0.92964 -3.3081,2.50113 -0.28125,1.97417 0.0342,2.11671 3.62035,1.63572 2.46838,-0.33108 4.19969,-0.088 4.65824,0.65389 1.02726,1.66215 0.27067,2.13865 -4.3879,2.7635 -3.18222,0.42682 -4.08259,0.97451 -4.08259,2.4834 0,1.66056 0.6043,1.89067 4.25,1.61833 3.25221,-0.24294 4.25,0.0347 4.25,1.18252 0,1.0498 -1.27555,1.59229 -4.25,1.8075 -3.53939,0.25608 -4.25,0.65531 -4.25,2.38768 0,1.9385 0.38277,2.0352 5.62001,1.41966 5.82519,-0.68464 8.37999,0.25656 8.37999,3.0872 0,1.19702 -1.15174,1.33381 -6.45171,0.76623 -4.03498,-0.43211 -8.34912,-0.23574 -11.51706,0.52424 -4.51242,1.08251 -5.36367,1.01279 -7.79829,-0.63868 l -2.73294,-1.85383 5.83685,-0.3025 c 4.75548,-0.24645 5.72812,-0.58581 5.25,-1.83178 -0.32277,-0.84111 -0.58685,-1.71749 -0.58685,-1.94751 0,-0.23001 -0.92958,-0.41821 -2.06574,-0.41821 -1.13616,0 -3.04866,-0.55949 -4.25,-1.24332 -2.0294,-1.15517 -1.86585,-1.27924 2.3068,-1.75 3.23189,-0.36462 4.58421,-0.99733 4.82332,-2.25668 0.26873,-1.41536 -0.39883,-1.75608 -3.49106,-1.7818 -2.10282,-0.0175 -4.66223,-0.6672 -5.68756,-1.44378 -1.68957,-1.27968 -1.3625,-1.44067 3.49063,-1.7182 4.1574,-0.23774 5.42928,-0.69756 5.68757,-2.05622 0.27577,-1.45061 -0.41549,-1.75 -4.04064,-1.75 -2.40532,0 -4.91749,-0.54417 -5.58259,-1.20927 -0.94569,-0.94569 -1.58869,-0.67324 -2.95,1.25 -1.24394,1.75742 -1.88343,5.16748 -2.24073,11.94879 -0.42187,8.00663 -0.77346,9.54168 -2.25,9.82332 -0.9625,0.18359 -1.79991,-0.26169 -1.86092,-0.98952 z m 1.11092,-19.97831 c 0,-1.82676 -1.74436,-0.70149 -2.92317,1.88571 -1.24107,2.72385 -1.23896,2.72598 0.83949,0.84501 1.14602,-1.03714 2.08368,-2.26596 2.08368,-2.73072 z"
         id="path3004"
         inkscape:connector-curvature="0" />
      <path
         style="fill:#4e4e4e"
         d="m 689.22117,733.56866 c 0,-2.27519 14.08534,-95.85644 14.53804,-96.58893 0.21989,-0.35578 6.93879,-2.3571 14.93088,-4.44736 l 14.53108,-3.80048 14.75,3.81606 c 8.1125,2.09883 14.82358,3.85594 14.91351,3.9047 0.3089,0.16746 14.33649,94.75747 14.33649,96.67297 0,1.85853 -1.31234,1.91567 -44,1.91567 -38.081,0 -44,-0.1981 -44,-1.47263 z m 85.57164,-4.27737 c -0.33229,-2.0625 -3.49545,-23.28213 -7.02925,-47.15474 -3.5338,-23.8726 -6.85984,-43.6726 -7.3912,-44 -0.53135,-0.32739 -6.97025,-2.11788 -14.30865,-3.97886 l -13.34254,-3.3836 -13.37247,3.5894 c -7.35486,1.97418 -13.53017,3.74711 -13.72291,3.93985 -0.29522,0.29522 -14.40462,92.54622 -14.40462,94.18122 0,0.3062 18.93955,0.55673 42.0879,0.55673 l 42.0879,0 -0.60416,-3.75 z m -61.29123,-4.4667 c -1.56555,-1.97014 -3.56514,-8.8319 -2.79743,-9.59961 1.17302,-1.17302 6.65777,5.82363 6.32587,8.06963 -0.37324,2.52574 -2.13138,3.2881 -3.52844,1.52998 z m 30.76411,-1.40775 c -1.90052,-1.34925 -3.59791,-2.59561 -3.77199,-2.76969 -0.17408,-0.17407 1.84835,-0.10848 4.49429,0.14576 5.34847,0.51392 6.22431,-0.0928 8.70515,-6.03028 1.4462,-3.46124 1.40817,-3.74916 -0.84047,-6.36335 -2.30392,-2.67848 -2.4725,-2.71276 -7.74335,-1.57461 -8.51363,1.83836 -15.55295,2.51756 -18.47956,1.78303 -3.56049,-0.89362 -1.96699,-2.34727 3.01411,-2.74958 5.45655,-0.44071 6.01382,-2.81683 0.66063,-2.81683 -2.24583,0 -4.08333,-0.45 -4.08333,-1 0,-0.55 1.0882,-1 2.41821,-1 3.4521,0 5.58179,-0.99468 5.58179,-2.60699 0,-0.96957 -1.2767,-1.39301 -4.2,-1.39301 -4.66923,0 -4.20101,-1.63346 0.62288,-2.17305 4.26188,-0.47673 4.43951,-2.62695 0.21702,-2.62695 -1.90306,0 -4.22848,-0.43001 -5.16761,-0.95557 -1.32475,-0.74137 -0.53827,-1.11067 3.5086,-1.64751 2.86886,-0.38057 6.93647,-1.38029 9.03914,-2.22161 2.95484,-1.18229 4.30139,-1.27366 5.9295,-0.40232 2.84996,1.52525 1.89548,2.63627 -2.92737,3.40747 -4.93149,0.78858 -5.6584,3.49119 -0.87872,3.26699 1.73271,-0.0813 3.34087,0.41353 3.58334,1.10255 0.25695,0.73017 -0.39248,1.25 -1.56166,1.25 -3.0994,0 -5.16512,1.06958 -5.16512,2.67438 0,1.00532 0.62322,1.26259 2,0.82562 2.33363,-0.74067 6,0.21711 6,1.56739 0,0.51293 -1.75185,0.93261 -3.89301,0.93261 -2.50022,0 -4.09455,0.52519 -4.45633,1.46797 -0.90561,2.36001 0.48747,2.49416 8.70998,0.83879 l 7.76268,-1.5628 2.93834,2.81511 c 1.61609,1.54831 2.93834,3.57372 2.93834,4.5009 0,2.33925 -3.51209,10.05004 -6.0432,13.26781 -2.55195,3.24428 -4.39583,3.25417 -8.91228,0.0478 z m -23.07594,-5.43714 c -1.15946,-2.27272 -1.92041,-4.31992 -1.691,-4.54932 0.89092,-0.89092 5.72242,3.85788 5.72242,5.62447 0,3.55533 -1.93198,3.04009 -4.03142,-1.07515 z m 9.03142,-1.93841 c -3.33562,-4.21157 -2.764,-4.96356 1.92848,-2.53699 2.92168,1.51087 4.49925,4.03589 3.51575,5.62723 -1.01963,1.64979 -2.23762,0.95843 -5.44423,-3.09024 z m 9.23422,-2.02931 c -2.74415,-2.4962 -2.9542,-2.97069 -1.3151,-2.97069 4.19806,0 9.01534,2.78976 9.06557,5.25 0.0375,1.83858 -4.78153,0.42135 -7.75047,-2.27931 z m -19.19904,-6.90495 c -0.56935,-1.06384 -1.03518,-5.01371 -1.03518,-8.77749 0,-4.68286 -0.51019,-7.57163 -1.61607,-9.15051 -1.55198,-2.21575 -1.52621,-2.29399 0.64967,-1.9725 1.24616,0.18412 3.11669,1.47909 4.15674,2.87771 1.64802,2.21621 1.80305,3.59746 1.20655,10.75 -0.69278,8.30704 -1.48344,9.78237 -3.36171,6.27279 z m 1.13867,-34.06809 c 0.17938,-4.40129 0.0584,-8.00129 -0.26886,-8 -0.32726,10e-4 -1.4512,0.94842 -2.49764,2.10473 -1.04645,1.15631 -3.14928,2.74704 -4.67296,3.53497 -2.43131,1.25728 -2.84124,1.24777 -3.34989,-0.0777 -0.36577,-0.95317 1.66982,-4.0413 5.51797,-8.37115 3.35364,-3.77346 6.09753,-7.13238 6.09753,-7.46428 0,-0.3319 -1.65271,-0.74311 -3.6727,-0.91382 -2.01999,-0.1707 -3.86772,-0.90355 -4.10607,-1.62855 -0.23834,-0.72501 0.17687,-1.23419 0.92271,-1.13152 0.74583,0.10267 2.59356,0.13336 4.10606,0.0682 2.34977,-0.10124 2.75,-0.54651 2.75,-3.05946 0,-1.61754 -0.45,-3.2191 -1,-3.55902 -1.83874,-1.13641 -1.02688,-2.64292 1.25,-2.31955 1.81334,0.25753 2.31078,1.05651 2.56319,4.11688 0.25835,3.13246 0.62758,3.69755 2.10881,3.22742 0.9876,-0.31345 2.31638,0.0576 2.95286,0.82446 0.93623,1.12809 0.58125,1.50957 -1.85882,1.99758 -2.43799,0.4876 -3.01604,1.10766 -3.01604,3.2352 0,1.89623 0.40799,2.47543 1.45949,2.07193 1.10448,-0.42383 0.95885,0.40043 -0.59869,3.38865 -1.71026,3.28119 -1.94178,4.95171 -1.36955,9.88201 0.78045,6.72447 0.0705,10.07542 -2.13479,10.07542 -1.24649,0 -1.45206,-1.39106 -1.18261,-8.00235 z m 0.82615,-13.17196 c 0,-1.82366 -1.6729,-0.64494 -3.4407,2.42431 l -1.87192,3.25 2.65631,-2.42431 c 1.46097,-1.33338 2.65631,-2.79588 2.65631,-3.25 z m 8.93677,19.26911 -2.43677,-2.02826 5.75,-0.0333 c 5.07224,-0.0294 5.75,-0.26901 5.75,-2.03327 0,-1.48033 -0.66667,-2 -2.56574,-2 -1.41116,0 -3.54866,-0.55949 -4.75,-1.24332 -2.0294,-1.15517 -1.86585,-1.27924 2.3068,-1.75 3.23189,-0.36462 4.58421,-0.99733 4.82332,-2.25668 0.27103,-1.42744 -0.39596,-1.75 -3.61861,-1.75 -2.22153,0 -4.47478,-0.63126 -5.14777,-1.44217 -1.01016,-1.21716 -0.4442,-1.49019 3.62755,-1.75 4.04525,-0.25811 4.87359,-0.65238 5.12871,-2.44111 0.27923,-1.95787 -0.0529,-2.09302 -4.03933,-1.64369 -3.21315,0.36217 -4.69054,0.0715 -5.6767,-1.11672 -1.19436,-1.43911 -0.80607,-1.60631 3.73031,-1.60631 2.78488,0 5.34833,-0.46098 5.69654,-1.0244 0.92733,-1.50044 -0.43701,-6.75467 -2.21584,-8.53351 -2.08976,-2.08976 -0.8522,-3.02144 2.47027,-1.85971 2.32548,0.81313 2.77682,1.59717 3.04285,5.28577 0.30859,4.2786 0.35096,4.32397 3.5,3.74797 3.90154,-0.71365 6.45714,0.50215 4.48497,2.13367 -0.71353,0.59028 -2.64733,1.22556 -4.29733,1.41172 -2.19578,0.24775 -3.08375,0.92705 -3.31241,2.53401 -0.28273,1.98691 0.0871,2.17695 3.89244,2 5.925,-0.27551 6.30413,1.97437 0.47988,2.84777 -3.6241,0.54346 -4.55991,1.08479 -4.55991,2.63773 0,1.68189 0.59174,1.90974 4.25,1.63646 3.25221,-0.24294 4.25,0.0347 4.25,1.18252 0,1.0498 -1.27555,1.59229 -4.25,1.8075 -3.53339,0.25565 -4.25,0.65681 -4.25,2.37916 0,1.93491 0.3862,2.02798 5.85039,1.40978 4.65427,-0.52657 6.11457,-0.34359 7.1425,0.895 2.03065,2.44678 0.49904,2.97023 -8.8084,3.01039 -4.77647,0.0206 -9.83794,0.39382 -11.24772,0.82935 -1.92268,0.59399 -3.17217,0.28502 -5,-1.23638 z"
         id="path3002"
         inkscape:connector-curvature="0" />
      <path
         style="fill:#2f2f2f"
         d="m 689.22117,734.02703 c 0,-1.52676 13.99998,-95.33058 14.40072,-96.48889 0.19088,-0.55174 6.93938,-2.74962 14.99665,-4.88419 l 14.6496,-3.88104 14.22651,3.76373 c 7.82459,2.07005 14.53392,4.04293 14.90964,4.38419 0.61889,0.56212 14.81688,93.17307 14.81688,96.64783 0,1.27453 -5.919,1.47263 -44,1.47263 -29.07907,0 -44,-0.34395 -44,-1.01426 z m 85.97915,-2.23574 c -0.0494,-2.96201 -13.7991,-92.90328 -14.27529,-93.37947 -0.8046,-0.80461 -25.4773,-7.37053 -27.69614,-7.37053 -2.02382,0 -26.96869,6.62764 -27.70096,7.35991 -0.37598,0.37597 -14.30676,91.66851 -14.30676,93.7564 0,0.49756 18.35196,0.88369 42,0.88369 32.94446,0 41.9955,-0.26951 41.97915,-1.25 z m -30.93463,-8.37445 c -1.90052,-1.34925 -3.56869,-2.56639 -3.70705,-2.70475 -0.13836,-0.13836 2.0916,-0.23339 4.95548,-0.21118 5.20281,0.0404 5.20908,0.0365 7.70485,-4.68909 l 2.49781,-4.72947 -2.61893,-2.61892 -2.61892,-2.61893 -9.3051,1.5984 c -10.55034,1.81229 -14.58838,1.99682 -15.3879,0.70317 -0.71049,-1.1496 1.79321,-2.10478 5.51703,-2.10478 1.9273,0 2.91821,-0.50934 2.91821,-1.5 0,-1.08333 -1.11111,-1.5 -4,-1.5 -5.05674,0 -5.26605,-1.77425 -0.25832,-2.18963 2.61495,-0.21691 3.84155,-0.83735 4.07333,-2.06037 0.27179,-1.43417 -0.44862,-1.77167 -3.99169,-1.87009 l -4.32332,-0.12009 4.25,-1.02199 c 5.52158,-1.32777 5.72083,-3.73783 0.30902,-3.73783 -5.59449,0 -5.90568,-1.64595 -0.46543,-2.46176 2.51524,-0.37719 6.37595,-1.32185 8.57936,-2.09926 2.89363,-1.02093 4.54453,-1.12537 5.94463,-0.37605 2.68767,1.43839 1.64102,2.56015 -3.09542,3.31753 -5.02069,0.80285 -5.7957,3.77045 -0.88097,3.37335 1.8137,-0.14655 3.32804,0.27445 3.58333,0.99619 0.28579,0.80795 -0.55982,1.25542 -2.39119,1.26531 -1.55833,0.008 -3.45348,0.40811 -4.21144,0.8882 -2.07904,1.31684 -0.25442,3.34657 2.40774,2.67841 1.2713,-0.31908 3.0222,-0.30739 3.89091,0.026 2.91836,1.11988 1.61432,2.39212 -2.45192,2.39212 -2.71104,0 -4.22533,0.5054 -4.62354,1.54313 -0.99519,2.59342 0.21208,2.72774 8.8272,0.98209 l 8.29884,-1.68156 2.76444,3.09395 c 1.52044,1.70167 2.76444,3.6821 2.76444,4.40095 0,2.54667 -5.96241,13.57095 -7.90083,14.60837 -2.60009,1.39152 -3.00969,1.30029 -7.05465,-1.57138 z m -31.48783,0.37445 c -0.2093,-0.6875 -0.87221,-2.78547 -1.47313,-4.66216 -0.60092,-1.87668 -0.87642,-3.62831 -0.61224,-3.8925 1.22566,-1.22565 6.52868,5.88574 6.52868,8.755 0,1.48824 -3.98393,1.30862 -4.44331,-0.20034 z m 8.17062,-6.76228 c -1.60112,-4.07605 -1.11418,-4.30394 2.52269,-1.18063 2.06693,1.77506 2.33131,5.19291 0.40169,5.19291 -0.74157,0 -2.05754,-1.80553 -2.92438,-4.01228 z m 9.29788,-0.95592 c -3.39291,-4.28389 -2.66717,-5.11482 2.03916,-2.33472 3.46037,2.0441 4.27763,3.77421 2.48543,5.26161 -1.03168,0.85622 -2.05009,0.19743 -4.52459,-2.92689 z m 9.97481,-2.0318 c -3.73929,-3.14762 -2.63342,-3.95172 2.66455,-1.93744 2.98612,1.13532 4.51384,2.83978 3.71045,4.13969 -0.89602,1.44979 -2.83026,0.78161 -6.375,-2.20225 z m -19.97776,-6.95844 c -0.57646,-1.07714 -0.98449,-4.8929 -0.90672,-8.47947 0.10079,-4.64788 -0.34793,-7.26785 -1.56213,-9.12095 -1.66434,-2.54011 -1.65235,-2.59234 0.52121,-2.27053 1.22361,0.18116 3.03773,1.45439 4.03138,2.82939 1.53083,2.11835 1.71516,3.75945 1.20743,10.75 -0.60647,8.35013 -1.38893,9.84592 -3.29117,6.29156 z m 1.31464,-27.60605 c -0.33019,-0.86046 -0.36789,-4.46046 -0.0838,-8 0.28412,-3.53953 0.2309,-6.41722 -0.11826,-6.39487 -0.34917,0.0223 -2.19285,1.37235 -4.09708,3 -3.57373,3.05467 -7.05642,3.90353 -7.01308,1.70936 0.0136,-0.6875 2.71357,-4.09749 6,-7.57776 3.28642,-3.48026 5.9756,-6.85526 5.97596,-7.5 3.9e-4,-0.68276 -1.52647,-1.17224 -3.65662,-1.17224 -4.791,0 -5.4132,-1.944 -0.70048,-2.18857 5.03653,-0.26137 5.92416,-1.46706 3.96754,-5.38919 -1.8137,-3.63567 -1.36337,-4.88248 1.18687,-3.28602 0.93612,0.58601 1.84635,2.52676 2.02272,4.31278 0.25918,2.62459 0.6836,3.15239 2.21323,2.75238 1.04091,-0.2722 2.4142,0.13363 3.05177,0.90185 0.94106,1.13391 0.6768,1.39677 -1.40422,1.39677 -2.84621,0 -3.11361,0.28231 -4.07541,4.30242 -0.62393,2.6079 -0.52415,2.72412 1.43744,1.67431 1.92312,-1.02923 2.01313,-0.95104 1.02683,0.89188 -0.59459,1.111 -1.57202,2.32342 -2.17206,2.69427 -0.67521,0.4173 -1.00479,3.77321 -0.86478,8.8057 0.12441,4.47228 0.16778,8.69392 0.0964,9.38142 -0.18356,1.76711 -2.07595,1.55402 -2.79297,-0.31449 z m 0.66312,-19.05052 c 0,-2.30237 -1.46222,-1.56539 -3.39885,1.71305 l -1.83006,3.09805 2.61446,-1.71306 c 1.43795,-0.94218 2.61445,-2.3363 2.61445,-3.09804 z m 8.94261,18.65027 -2.44261,-2.09726 2.5,0.14169 c 7.0248,0.39814 9,-0.0583 9,-2.07969 0,-1.50744 -0.67727,-2.00783 -2.75,-2.0318 -1.5125,-0.0175 -3.62351,-0.6925 -4.69113,-1.5 -1.79562,-1.35814 -1.58948,-1.4682 2.75,-1.4682 4.02446,0 4.69113,-0.28422 4.69113,-2 0,-1.65614 -0.66667,-2 -3.87756,-2 -2.22676,0 -4.40754,-0.6386 -5.12244,-1.5 -1.07901,-1.30013 -0.56235,-1.5 3.87756,-1.5 4.76203,0 5.12244,-0.17147 5.12244,-2.43713 0,-2.20788 -0.31633,-2.38579 -3.36285,-1.89141 -1.97788,0.32096 -4.34598,-0.0138 -5.75,-0.81287 -2.26989,-1.29185 -2.11697,-1.38315 3.11285,-1.85859 l 5.5,-0.5 -0.11613,-3.77334 c -0.0639,-2.07783 -0.91993,-4.66152 -1.90499,-5.75 -1.72239,-1.90322 -1.71808,-1.97548 0.11613,-1.94486 3.37556,0.0564 5.40499,2.44877 5.40499,6.37172 0,3.64143 0.0424,3.67973 3.75,3.38976 2.79701,-0.21875 3.75,0.0879 3.75,1.20672 0,1.01149 -1.22127,1.60108 -3.75,1.81036 -3.19548,0.26448 -3.75,0.66215 -3.75,2.68933 0,2.1529 0.39365,2.36097 4.14244,2.18964 2.56087,-0.11705 4.31077,0.28792 4.58333,1.06067 0.27046,0.76678 -0.46111,1.25528 -1.89244,1.26365 -4.42882,0.0259 -6.83333,1.16277 -6.83333,3.23079 0,1.78117 0.45054,1.93913 3.93964,1.3812 2.46863,-0.39475 4.19672,-0.21403 4.62812,0.484 0.95846,1.55082 -1.45721,2.85686 -5.31776,2.87505 -2.6506,0.0125 -3.25,0.41044 -3.25,2.15777 0,2.01474 0.34768,2.10611 5.83281,1.5328 5.44142,-0.56874 8.16719,0.23507 8.16719,2.40843 0,0.37603 -4.3875,0.915 -9.75,1.1977 -5.3625,0.2827 -10.67582,0.81485 -11.80739,1.18257 -1.37602,0.44715 -2.86632,-0.026 -4.5,-1.4287 z"
         id="path3000"
         inkscape:connector-curvature="0" />
      <path
         style="fill:#030303"
         d="m 689.77278,730.29129 c 0.31639,-2.0625 3.59374,-23.96155 7.283,-48.66455 l 6.70775,-44.91456 14.47882,-3.86243 14.47882,-3.86243 14.87128,3.77698 c 8.17921,2.07735 15.02865,4.22699 15.221,4.77699 0.30987,0.88608 14.40772,94.84945 14.40772,96.02871 0,0.25921 -19.80532,0.47129 -44.01182,0.47129 l -44.01182,0 0.57525,-3.75 z m 85.44839,1.31306 c 0,-3.23797 -13.13719,-90.21765 -13.90497,-92.06306 -0.65545,-1.57542 -3.72593,-2.7387 -14.46356,-5.47967 l -13.63147,-3.47967 -13.63147,3.47967 c -10.78353,2.75268 -13.7986,3.89752 -14.43143,5.47967 -0.73218,1.83053 -13.96712,89.37573 -13.9462,92.25 0.007,0.98001 9.08062,1.25 42.0091,1.25 35.8475,0 42,-0.21049 42,-1.43694 z m -30.95548,-8.18751 c -1.90052,-1.34925 -3.55217,-2.54822 -3.67035,-2.66437 -0.11817,-0.11615 2.0995,-0.21118 4.92816,-0.21118 5.03108,0 5.19524,-0.0944 7.543,-4.33654 2.08991,-3.77624 2.23426,-4.64623 1.11722,-6.73343 -1.87186,-3.49761 -3.74736,-3.72259 -15.31718,-1.83742 -6.11096,0.99571 -11.20676,1.35976 -12.29186,0.87816 -1.6409,-0.72829 -1.56674,-0.86326 0.64649,-1.17667 5.45303,-0.77217 7,-1.39387 7,-2.81315 0,-1.07286 -1.15735,-1.48095 -4.2,-1.48095 -4.70595,0 -4.18405,-1.64019 0.69145,-2.17305 1.88781,-0.20633 3.11389,-0.97258 3.32332,-2.07695 0.26666,-1.40612 -0.41941,-1.77031 -3.49145,-1.85335 l -3.82332,-0.10335 3.75,-0.99599 c 4.51598,-1.19943 5.08504,-3.79731 0.83179,-3.79731 -6.56356,0 -6.60143,-1.39378 -0.0751,-2.76355 10.56976,-2.21842 13.70864,-2.50607 14.43965,-1.32326 0.7494,1.21255 -0.18892,1.64066 -5.52968,2.52294 -4.91871,0.81256 -5.01055,3.72067 -0.10537,3.33636 2.00661,-0.15721 3.65453,0.22922 3.89532,0.91345 0.26358,0.74901 -0.98401,1.30165 -3.38632,1.5 -2.74894,0.22697 -3.90035,0.82386 -4.15235,2.15258 -0.29674,1.56458 0.20943,1.78807 3.39722,1.5 2.2684,-0.205 3.90623,0.12926 4.15235,0.84742 0.25585,0.74654 -1.00285,1.3023 -3.39722,1.5 -2.78097,0.22962 -3.89947,0.81906 -4.16,2.1923 -0.32266,1.70072 0.10189,1.81378 4.49168,1.19624 2.66641,-0.3751 6.32763,-1.14835 8.13604,-1.71834 3.77832,-1.19087 7.56051,0.61992 9.30866,4.45669 1.78757,3.9233 -5.61165,17.85742 -9.34668,17.60153 -0.6875,-0.0471 -2.80497,-1.18957 -4.70548,-2.53881 z m -32.4476,-3.04513 c -0.8751,-2.56827 -1.47919,-4.78148 -1.34243,-4.91824 1.27172,-1.27172 7.14907,7.12583 6.13532,8.76612 -1.2805,2.07188 -3.33891,0.41932 -4.79289,-3.84788 z m 9.10276,-3.41303 c -1.50481,-3.8309 -1.49875,-4.00348 0.0983,-2.79909 4.01388,3.02699 5.61235,6.8817 2.8537,6.8817 -0.74157,0 -2.06997,-1.83718 -2.95201,-4.08261 z m 9.00769,-1.41742 c -1.53595,-1.92498 -2.43595,-3.49829 -2,-3.49623 1.85798,0.009 7.29263,4.09376 7.29263,5.48156 0,2.57007 -2.36603,1.68255 -5.29263,-1.98533 z m 10.29263,-1.63571 -3.5,-3.05446 3.5,0.71057 c 4.05421,0.82309 6,2.15339 6,4.10207 0,2.19123 -2.21988,1.54074 -6,-1.75818 z m -19.92252,-7.16046 c -0.54826,-1.44204 -0.90248,-5.51518 -0.78716,-9.05142 0.16682,-5.11542 -0.17968,-6.86109 -1.69531,-8.54096 -1.57703,-1.74792 -1.63914,-2.11142 -0.36078,-2.11142 0.84931,0 2.55007,0.8145 3.77946,1.81 2.01959,1.63536 2.2205,2.62228 2.08226,10.22852 -0.16372,9.00862 -1.3563,12.03712 -3.01847,7.66528 z m 1.37175,-26.78595 c -0.36785,-0.59519 -0.34976,-4.4869 0.0402,-8.64825 l 0.709,-7.56609 -4.4522,3.64824 c -6.7314,5.51588 -10.86373,4.49477 -4.99622,-1.23458 4.69367,-4.58314 9.25,-10.25406 9.25,-11.51276 0,-0.7858 -1.21343,-1.06115 -3.5,-0.7942 -4.87794,0.56947 -4.43515,-1.47642 0.5,-2.31021 4.41027,-0.74511 5.10465,-2.47788 2.48928,-6.21185 -1.00538,-1.43538 -1.15798,-2.37487 -0.4562,-2.8086 1.7265,-1.06703 3.96692,1.55516 3.96692,4.64289 0,2.40273 0.41253,2.87756 2.5,2.87756 1.375,0 2.5,0.45 2.5,1 0,0.55 -1.07686,1 -2.39301,1 -2.43859,0 -3.60699,1.64613 -3.60699,5.08179 0,2.21679 1.02321,2.44763 2.96184,0.66821 0.74901,-0.6875 0.38901,0.16947 -0.8,1.90437 -1.82613,2.66454 -2.16184,4.56681 -2.16184,12.25 0,8.32989 -0.80066,10.84523 -2.55077,8.01348 z m 0.38487,-19.89344 c 0.44458,-2.98929 -1.37629,-1.81039 -3.47638,2.25072 l -1.62805,3.1483 2.38517,-1.57631 c 1.31184,-0.86698 2.5355,-2.58719 2.71926,-3.82271 z m 8.53163,18.36868 c -1.77036,-1.42015 -1.74628,-1.46359 0.47121,-0.84989 3.98572,1.10307 9.16306,-0.3595 9.16306,-2.58851 0,-1.48673 -0.6889,-1.95469 -2.87756,-1.95469 -1.58265,0 -3.43775,-0.675 -4.12244,-1.5 -1.07233,-1.29208 -0.67346,-1.5 2.87756,-1.5 3.45577,0 4.12244,-0.32343 4.12244,-2 0,-1.59704 -0.66667,-2 -3.30887,-2 -1.81988,0 -4.18238,-0.71174 -5.25,-1.58164 -1.84778,-1.50557 -1.85052,-1.55269 -0.0569,-0.97987 1.03633,0.33097 3.39883,0.31763 5.25,-0.0297 2.71093,-0.50857 3.36576,-1.09845 3.36576,-3.03194 0,-2.21069 -0.29655,-2.35452 -3.75,-1.81882 -2.58111,0.40039 -4.37341,0.10228 -5.75,-0.95638 -1.87036,-1.43839 -1.62729,-1.54015 3.75,-1.56989 l 5.75,-0.0318 0,-3.36514 c 0,-1.89023 -0.9084,-4.51998 -2.07258,-6 -2.38402,-3.03079 -0.79559,-3.63168 2.85007,-1.07816 1.64624,1.15307 2.22251,2.56106 2.22251,5.4302 0,3.78819 0.0631,3.85539 2.86608,3.05151 3.50292,-1.00463 6.48813,0.40083 4.13392,1.94628 -0.825,0.54157 -2.7375,0.99157 -4.25,1 -2.29323,0.0128 -2.75,0.44856 -2.75,2.62372 0,2.30584 0.29986,2.53315 2.58504,1.9596 3.04024,-0.76305 6.69317,0.17282 5.87046,1.50399 -0.31544,0.5104 -1.63517,0.928 -2.93273,0.928 -3.706,0 -5.52277,1.04728 -5.52277,3.18361 0,1.61469 0.58825,1.91894 3.2644,1.68838 4.20439,-0.36223 6.98755,1.12656 4.16922,2.23023 -1.06349,0.41646 -3.17112,0.78884 -4.68362,0.82749 -2.12137,0.0542 -2.75,0.55946 -2.75,2.21019 0,1.99209 0.37433,2.10127 5.4191,1.5806 3.71981,-0.38391 5.99273,-0.13985 7.24843,0.77834 1.00613,0.7357 1.60503,1.53738 1.3309,1.78151 -0.27414,0.24413 -5.95885,0.70611 -12.6327,1.02663 -9.91104,0.47599 -12.4761,0.30854 -14,-0.91389 z"
         id="path2998"
         inkscape:connector-curvature="0" />
    </g>
  </g>
</svg>
