<?xml version="1.0" encoding="UTF-8" standalone="no"?>
<!-- Created with Inkscape (http://www.inkscape.org/) -->

<svg
   xmlns:dc="http://purl.org/dc/elements/1.1/"
   xmlns:cc="http://creativecommons.org/ns#"
   xmlns:rdf="http://www.w3.org/1999/02/22-rdf-syntax-ns#"
   xmlns:svg="http://www.w3.org/2000/svg"
   xmlns="http://www.w3.org/2000/svg"
   xmlns:sodipodi="http://sodipodi.sourceforge.net/DTD/sodipodi-0.dtd"
   xmlns:inkscape="http://www.inkscape.org/namespaces/inkscape"
   width="42.172005"
   height="50"
   id="svg3821"
   version="1.1"
   inkscape:version="0.48.3.1 r9886"
   sodipodi:docname="New document 5">
  <defs
     id="defs3823" />
  <sodipodi:namedview
     id="base"
     pagecolor="#ffffff"
     bordercolor="#666666"
     borderopacity="1.0"
     inkscape:pageopacity="0.0"
     inkscape:pageshadow="2"
     inkscape:zoom="3.959798"
     inkscape:cx="29.062086"
     inkscape:cy="26.260626"
     inkscape:document-units="px"
     inkscape:current-layer="layer1"
     showgrid="false"
     fit-margin-top="0"
     fit-margin-left="0"
     fit-margin-right="0"
     fit-margin-bottom="0"
     inkscape:window-width="1366"
     inkscape:window-height="718"
     inkscape:window-x="0"
     inkscape:window-y="0"
     inkscape:window-maximized="1" />
  <metadata
     id="metadata3826">
    <rdf:RDF>
      <cc:Work
         rdf:about="">
        <dc:format>image/svg+xml</dc:format>
        <dc:type
           rdf:resource="http://purl.org/dc/dcmitype/StillImage" />
        <dc:title></dc:title>
      </cc:Work>
    </rdf:RDF>
  </metadata>
  <g
     inkscape:label="Layer 1"
     inkscape:groupmode="layer"
     id="layer1"
     transform="translate(-621.45526,-489.21933)">
    <g
       id="g4376"
       transform="matrix(0.46741798,0,0,0.46741798,330.9759,287.17852)">
      <path
         inkscape:connector-curvature="0"
         id="path3866"
         d="m 637.91133,441.47243 -14.64721,96.21703 86.36804,0.25254 -14.14213,-96.21703 -28.53681,-8.33376 z"
         style="fill:#ffffff;fill-opacity:1;stroke:none" />
      <path
         style="fill:#fecfcf"
         d="m 621.45527,538.96933 c 0.69208,-6.48572 14.83334,-97.94335 15.20092,-98.31093 0.29659,-0.2966 7.11672,-2.31011 15.15583,-4.47449 l 14.61657,-3.93522 14.66218,3.9475 c 8.0642,2.17113 14.96246,4.30202 15.32946,4.73532 0.36699,0.4333 3.71483,21.48782 7.43964,46.78782 3.7248,25.3 7.0078,47.2375 7.29554,48.75 l 0.52318,2.75 -45.125,0 c -24.81875,0 -45.11299,-0.1125 -45.09832,-0.25 z m 85.93189,-5 c -0.0228,-1.2375 -3.06029,-22.26916 -6.75,-46.73703 l -6.70857,-44.48703 -13.75,-3.67258 -13.75,-3.67258 -13.71852,3.66641 -13.71851,3.66641 -6.72362,44.4932 c -3.69799,24.47126 -6.74966,45.5057 -6.78148,46.7432 l -0.0579,2.25 41,0 41,0 -0.0414,-2.25 z m -48.70857,-21.49538 c -4.05904,-2.02012 -4.15387,-3.25462 -0.25,-3.25462 1.65,0 3,-0.45 3,-1 0,-0.55 -0.66463,-1 -1.47695,-1 -0.81232,0 -2.1943,-1.09482 -3.07107,-2.43294 -2.77507,-4.2353 1.10932,-8.00676 9.03947,-8.77664 2.00566,-0.19472 3.11017,-0.91567 3.3517,-2.18777 0.37822,-1.99198 -0.27348,-1.99931 -9.34315,-0.10504 -4.09409,0.85508 -7.5321,-1.54908 -5.57957,-3.90173 0.94108,-1.13393 1.71123,-1.31654 2.56481,-0.60813 0.7213,0.59863 3.66383,0.75696 7.19963,0.3874 3.79874,-0.39705 6.77037,-0.20188 8.14744,0.53511 2.24017,1.1989 2.9283,4.50162 1.16499,5.59141 -0.6668,0.41211 -0.65502,1.26937 0.0352,2.55902 1.28248,2.39633 0.0849,4.90667 -3.76699,7.89643 -2.47913,1.92425 -2.53251,2.0824 -0.51549,1.52731 4.8764,-1.342 8.20447,2.1611 5.05,5.31557 -1.71647,1.71646 -11.70949,1.36598 -15.55,-0.54538 z m 6.19297,-9.19161 c 1.82861,-2.02058 1.38647,-4.06301 -0.87954,-4.06301 -1.92578,0 -3.87951,2.73393 -3.20669,4.48727 0.77879,2.02949 1.97833,1.90495 4.08623,-0.42426 z m -15.94297,-22.19925 c 10.86065,-11.29961 12.39113,-13.83015 10.50081,-17.36225 -1.67239,-3.12489 -0.96742,-3.87272 2.85859,-3.03239 6.96889,1.53062 6.59395,5.47901 -1.35433,14.26215 -6.76568,7.47632 -12.07594,11.775 -17.16687,13.89666 -3.58235,1.49296 -3.23827,0.97541 5.1618,-7.76417 z M 676.17817,479.92 c -5.36273,-5.06037 -9.75023,-9.54421 -9.75,-9.96409 10e-4,-2.7022 19.78616,9.62603 21.95665,13.68164 1.44334,2.69691 0.82485,5.60943 -1.17485,5.53245 -0.70476,-0.0271 -5.66907,-4.18963 -11.0318,-9.25 z m -16.74958,6.50224 c 0,-0.53509 1.19434,-1.75545 2.65409,-2.71192 2.32298,-1.52207 2.44773,-1.8545 1,-2.6647 -0.90975,-0.50912 -1.65409,-1.35331 -1.65409,-1.87598 0,-1.37775 7.38201,-1.1683 8.8,0.24969 1.74571,1.74571 1.46892,4.5884 -0.55,5.64869 -2.79233,1.46646 -10.25,2.45176 -10.25,1.35422 z"
         id="path3854"
         inkscape:connector-curvature="0" />
      <path
         style="fill:#feafaf"
         d="m 621.98974,536.46933 c 0.28114,-1.5125 3.61662,-23.60923 7.41218,-49.10384 3.79556,-25.49462 7.04179,-46.49069 7.21385,-46.65794 0.17205,-0.16725 6.93971,-2.09555 15.03924,-4.28511 l 14.72643,-3.98102 14.72718,3.92589 c 8.09995,2.15925 14.9265,4.12522 15.17012,4.36884 0.24362,0.24361 3.50929,21.03949 7.25705,46.21306 3.74776,25.17357 7.07721,47.23262 7.39877,49.02012 l 0.58466,3.25 -45.02032,0 -45.02031,0 0.51115,-2.75 z m 83.88116,-15 c -1.22423,-8.1125 -4.36696,-29.17019 -6.98385,-46.79487 l -4.75798,-32.04486 -14.10024,-3.6841 -14.10024,-3.6841 -13.5,3.72896 c -11.1976,3.093 -13.55263,4.07007 -13.80857,5.72897 -0.16971,1.1 -3.34426,22.1375 -7.05455,46.75 l -6.746,44.75 41.63865,0 41.63864,0 -2.22586,-14.75 z m -46.07226,-8.69039 c -4.64084,-2.01963 -5.11489,-3.55961 -1.09573,-3.55961 4.69592,0 5.41817,-1.17518 1.5005,-2.44148 -2.67477,-0.86456 -3.33133,-1.64185 -3.58322,-4.24208 -0.35648,-3.67976 1.39153,-5.00814 8.09629,-6.15273 2.86168,-0.48853 4.30333,-1.27958 4.53626,-2.48911 0.31126,-1.61623 -0.31541,-1.71348 -7.08681,-1.09988 -6.20653,0.56243 -7.52613,0.41807 -8.02336,-0.87768 -0.73724,-1.92124 1.76882,-4.3429 2.7879,-2.694 0.45266,0.73242 2.90588,0.88081 7.33937,0.44394 5.89546,-0.58092 6.8693,-0.4243 8.4888,1.36522 1.49309,1.64985 1.61813,2.4161 0.68026,4.16853 -0.85983,1.60661 -0.86243,2.49253 -0.0103,3.51927 1.4467,1.74317 0.0739,4.49269 -3.73451,7.47954 -2.71312,2.12785 -2.71982,2.15902 -0.35382,1.64603 4.92173,-1.06711 8.21509,3.16585 4.15407,5.33925 -2.69025,1.43977 -9.94969,1.22499 -13.69569,-0.40521 z m 4.23025,-8.32492 c 0.60516,-0.40408 1.63349,-1.74719 2.28518,-2.98469 1.03734,-1.96983 0.94165,-2.25 -0.76851,-2.25 -3.19689,0 -5.11697,1.10332 -5.11697,2.94032 0,2.78095 1.46928,3.71728 3.6003,2.29437 z M 645.99425,484.5308 c 7.13387,-6.83491 14.43434,-15.89571 14.43434,-17.91484 0,-0.78307 -0.54547,-2.2972 -1.21214,-3.36472 -1.63727,-2.62168 -0.65268,-3.31319 3.27013,-2.29669 4.47475,1.15952 5.74698,3.39217 3.89976,6.84372 -3.11117,5.81328 -13.79592,16.05661 -20.13794,19.306 l -6.31981,3.238 6.06566,-5.81147 z m 36.93434,1.42689 c -1.65,-1.80678 -5.8883,-5.86125 -9.41845,-9.00993 -3.53014,-3.14868 -6.13066,-6.01265 -5.77892,-6.36439 0.35173,-0.35173 3.20738,0.65996 6.34587,2.24822 7.14223,3.61437 15.66995,11.49562 15.18172,14.03081 -0.57304,2.97556 -3.11895,2.6117 -6.33022,-0.90471 z m -23.5,-0.21268 c 0,-0.26088 1.45964,-1.22913 3.24364,-2.15167 3.19024,-1.64974 3.20671,-1.69384 1,-2.6785 -3.56258,-1.58967 -2.61284,-2.83787 1.90451,-2.50301 8.65367,0.64149 6.58033,7.8075 -2.25893,7.8075 -2.13907,0 -3.88922,-0.21344 -3.88922,-0.47432 z"
         id="path3852"
         inkscape:connector-curvature="0" />
      <path
         style="fill:#fe8f8f"
         d="m 622.09381,536.96933 c 0.21333,-1.2375 3.53296,-23.36953 7.37695,-49.18229 3.84399,-25.81275 7.10132,-47.04453 7.23852,-47.18173 0.1372,-0.1372 6.88017,-1.96767 14.98438,-4.06772 l 14.73493,-3.81826 14.73493,3.81826 c 8.10421,2.10005 14.88248,3.96582 15.06282,4.14616 0.18034,0.18034 3.43336,21.18712 7.22892,46.68174 3.79556,25.49461 7.13104,47.59134 7.41218,49.10384 l 0.51115,2.75 -44.83633,0 -44.83633,0 0.38788,-2.25 z m 85.92369,-2.5 c -0.3135,-1.5125 -3.53805,-22.775 -7.16566,-47.25 -3.62761,-24.475 -6.66936,-44.56532 -6.75945,-44.64516 -0.0901,-0.0798 -6.34314,-1.77955 -13.89568,-3.77713 l -13.73187,-3.63197 -14.01813,3.68985 c -8.0743,2.12532 -14.01812,4.19293 -14.01812,4.87633 0,1.44823 -12.79731,86.87864 -13.59239,90.73808 l -0.56652,2.75 42.15891,0 42.15891,0 -0.57,-2.75 z m -47.21315,-21.33619 c -1.71833,-0.4982 -3.68593,-1.58262 -4.37244,-2.40981 -1.07128,-1.29081 -0.7431,-1.504 2.31522,-1.504 3.54342,0 6.44452,-1.97108 2.99048,-2.0318 -4.59499,-0.0808 -6.91651,-5.21786 -3.77687,-8.35749 1.5996,-1.5996 7.00075,-2.9851 9.48047,-2.43192 0.87157,0.19443 1.58108,-0.61025 1.79759,-2.03871 0.35515,-2.34309 0.30799,-2.35493 -6.61163,-1.66002 -7.24645,0.72773 -8.98959,0.0237 -7.77536,-3.14057 0.47634,-1.24133 0.89857,-1.31731 2.04288,-0.36762 0.99027,0.82184 3.41996,0.98534 7.75076,0.52155 5.53757,-0.59303 6.52895,-0.43178 8.11403,1.31971 1.51525,1.67434 1.60333,2.31934 0.54757,4.00988 -0.92663,1.48376 -0.96638,2.36612 -0.15089,3.34873 1.47915,1.78227 -0.40915,5.28942 -4.295,7.97708 l -2.93257,2.02833 2.98936,-0.49566 c 3.07124,-0.50924 6.51064,0.69643 6.51064,2.28227 0,3.57469 -7.3535,5.05807 -14.62424,2.95005 z m 5.00923,-10.37863 c 2.12329,-3.24054 2.05548,-3.53518 -0.81356,-3.53518 -2.31428,0 -5.57143,2.28279 -5.57143,3.90476 0,2.94938 4.3763,2.69607 6.38499,-0.36958 z m -17.66043,-20.28518 c 3.86226,-3.7125 8.40596,-8.93888 10.09711,-11.61417 2.8976,-4.58382 2.98472,-5.00168 1.51156,-7.25 -1.51348,-2.30988 -1.47791,-2.38583 1.1175,-2.38583 3.53268,0 6.54927,1.68175 6.54927,3.65121 0,5.36556 -19.96576,24.34879 -25.60903,24.34879 -0.37879,0 2.47132,-3.0375 6.33359,-6.75 z m 28.27544,-2.80606 c -5.225,-5.18185 -9.11299,-9.42658 -8.63998,-9.43274 2.17398,-0.0283 13.54201,6.90729 17.46182,10.6534 4.34938,4.15664 5.28126,7.60026 2.16668,8.00666 -0.81869,0.10683 -5.76352,-4.04547 -10.98852,-9.22732 z m -14.15019,4.37781 c 3.26779,-2.09203 3.29763,-2.17248 1.21864,-3.28512 -2.7295,-1.46078 -1.64245,-2.53663 2.56303,-2.53663 2.36686,0 3.62805,0.61641 4.46646,2.183 0.9947,1.85861 0.83487,2.45299 -1.0756,4 -1.37235,1.11125 -3.85163,1.81046 -6.38312,1.80015 l -4.13922,-0.0168 3.34981,-2.14456 z"
         id="path3850"
         inkscape:connector-curvature="0" />
      <path
         style="fill:#fe6f6f"
         d="m 622.42859,537.30366 c 0,-1.90619 14.02469,-96.49082 14.33649,-96.68744 1.04922,-0.66164 28.05938,-7.39689 29.66351,-7.39689 1.72545,0 28.8278,6.80385 29.73438,7.4646 0.12891,0.094 3.37946,21.29036 7.22345,47.10311 3.84399,25.81276 7.16362,47.94479 7.37695,49.18229 l 0.38788,2.25 -44.36133,0 c -43.04369,0 -44.36133,-0.0569 -44.36133,-1.91567 z m 85.52805,-3.33433 c -0.30942,-1.7875 -3.49173,-23.02442 -7.0718,-47.19315 -3.58007,-24.16873 -6.6098,-44.04169 -6.73273,-44.16213 -0.12294,-0.12044 -6.40401,-1.88277 -13.95794,-3.91628 l -13.73443,-3.6973 -14.01557,3.7499 c -7.70857,2.06245 -14.01558,4.09731 -14.01558,4.5219 0,0.85592 -12.62791,85.53335 -13.52562,90.69706 l -0.56501,3.25 42.09063,0 42.09063,0 -0.56258,-3.25 z m -47.23397,-21.02231 c -1.76326,-0.67523 -3.76576,-1.79019 -4.45,-2.47769 -0.99412,-0.99885 -0.5509,-1.25308 2.20592,-1.26531 1.8975,-0.008 4.125,-0.45153 4.95,-0.98469 1.18074,-0.76305 0.94768,-0.97263 -1.09501,-0.98469 -2.80312,-0.0165 -5.90499,-2.74234 -5.90499,-5.18906 0,-2.59878 3.3162,-4.67368 8.00181,-5.00663 3.85402,-0.27385 4.54601,-0.65758 4.83215,-2.67954 0.33136,-2.34161 0.27987,-2.35449 -6.63538,-1.66002 -7.24645,0.72773 -8.98959,0.0237 -7.77536,-3.14057 0.48034,-1.25176 0.89298,-1.32195 2.06297,-0.35095 1.00945,0.83777 3.30196,1.0003 7.40019,0.52465 5.277,-0.61246 6.17904,-0.44777 8.107,1.48019 2.02465,2.02465 2.05952,2.29069 0.52284,3.9887 -1.08414,1.19796 -1.2827,2.04421 -0.58136,2.47766 2.04611,1.26457 1.03818,4.35674 -2.40579,7.38059 l -3.47093,3.04752 4.14321,0.30607 c 4.30931,0.31835 5.3803,1.33526 3.88898,3.69263 -1.17356,1.85509 -9.77847,2.37972 -13.79625,0.84114 z m 5.14922,-9.9502 c 2.20056,-3.14174 1.96357,-3.77749 -1.40812,-3.77749 -3.02735,0 -5.75431,3.0274 -4.52241,5.02067 1.06898,1.72964 4.32659,1.04677 5.93053,-1.24318 z M 647.58171,483.2397 c 3.64395,-3.28879 8.26737,-8.45342 10.27428,-11.47695 3.53337,-5.32325 3.59656,-5.57721 1.99574,-8.02037 -1.62565,-2.48107 -1.60856,-2.52305 1.02759,-2.52305 3.50678,0 6.54927,1.67757 6.54927,3.61114 0,3.95969 -12.34999,17.05752 -21,22.27163 -6.09251,3.67248 -5.68571,2.3099 1.15312,-3.8624 z m 29.31693,-3.48704 c -5.48353,-5.20667 -9.58304,-9.48167 -9.11003,-9.5 1.58197,-0.0613 12.26245,6.03109 16.05865,9.16024 2.06335,1.70079 4.10412,4.04051 4.53504,5.19939 0.80381,2.16168 0.3576,4.60704 -0.84065,4.60704 -0.37013,0 -5.15948,-4.26 -10.64301,-9.46667 z m -13.97005,4.02023 c 2.95969,-2.54275 2.96992,-2.58547 0.76125,-3.17916 -3.20056,-0.86031 -1.75778,-2.3744 2.26258,-2.3744 2.44492,0 3.7254,0.59718 4.53861,2.11667 1.57908,2.95053 -0.60514,4.90505 -6.17486,5.5255 l -4.38758,0.48877 3,-2.57738 z"
         id="path3848"
         inkscape:connector-curvature="0" />
      <path
         style="fill:#fe4e4e"
         d="m 622.42859,537.7467 c 0,-2.27519 14.08534,-95.85644 14.53804,-96.58893 0.21989,-0.35578 6.93879,-2.3571 14.93088,-4.44736 l 14.53108,-3.80048 14.75,3.81606 c 8.1125,2.09883 14.82358,3.85594 14.91351,3.9047 0.3089,0.16746 14.33649,94.75747 14.33649,96.67297 0,1.85853 -1.31234,1.91567 -44,1.91567 -38.081,0 -44,-0.1981 -44,-1.47263 z m 85.57164,-4.27737 c -0.33229,-2.0625 -3.49545,-23.28213 -7.02925,-47.15474 -3.5338,-23.8726 -6.85984,-43.6726 -7.3912,-44 -0.53135,-0.32739 -6.97025,-2.11788 -14.30865,-3.97886 l -13.34254,-3.3836 -13.37247,3.5894 c -7.35486,1.97418 -13.53017,3.74711 -13.72291,3.93985 -0.29522,0.29522 -14.40462,92.54622 -14.40462,94.18122 0,0.3062 18.93955,0.55673 42.0879,0.55673 l 42.0879,0 -0.60416,-3.75 z m -46.94685,-20.7191 c -6.01511,-2.14408 -6.75501,-3.5309 -1.88381,-3.5309 2.27754,0 4.4191,-0.45 4.75902,-1 0.33992,-0.55 -0.2084,-1 -1.21848,-1 -2.71523,0 -6.28152,-2.83871 -6.28152,-5 0,-2.78601 3.86231,-5 8.72251,-5 3.93091,0 4.27749,-0.20896 4.27749,-2.57894 0,-2.56414 -0.0414,-2.57706 -7.21889,-2.25 -5.7961,0.26411 -7.27909,0.0333 -7.52432,-1.17106 -0.25206,-1.23787 1.14054,-1.49779 7.96889,-1.48733 8.86469,0.0136 10.77432,0.60668 10.77432,3.34635 0,0.95754 -0.5625,2.33723 -1.25,3.06598 -1,1.06 -1,1.41667 0,1.78333 2.41638,0.88601 1.20886,4.17104 -2.79202,7.59565 l -4.04203,3.45982 4.41171,-0.49726 c 5.40469,-0.60919 7.09637,1.16194 3.72066,3.89541 -2.66939,2.16155 -7.03108,2.29108 -12.42353,0.36895 z m 4.81851,-9.75341 c 2.19054,-3.12744 1.96324,-3.77749 -1.32086,-3.77749 -3.26119,0 -5.63128,2.23161 -4.7657,4.48727 0.85851,2.23724 4.30379,1.83547 6.08656,-0.70978 z m -18.18602,-19.77619 c 8.58876,-7.87004 14.23136,-16.21975 12.78606,-18.92032 -1.482,-2.76913 -1.34179,-3.08098 1.38523,-3.08098 2.32502,0 5.57143,2.28495 5.57143,3.92139 0,1.40625 -5.70034,8.68371 -10.78309,13.76646 -4.43958,4.43959 -12.86197,10.31215 -14.7896,10.31215 -0.39411,0 2.22938,-2.69941 5.82997,-5.9987 z m 29.24272,-3.56904 c -5.5,-5.15316 -9.52931,-9.38353 -8.95402,-9.40082 1.36296,-0.041 15.32082,8.54132 18.10983,11.13523 2.64086,2.4561 3.52808,5.44064 1.99095,6.69739 -0.78509,0.64189 -4.30056,-2.01733 -11.14676,-8.4318 z m -14.06986,4.31505 c 2.78622,-2.32617 2.83534,-2.49951 1,-3.52956 -1.79521,-1.00752 -1.80765,-1.13044 -0.1779,-1.75835 2.51051,-0.96724 6.41683,0.23582 7.1742,2.20951 0.95344,2.48463 -1.5694,4.41552 -6.53886,5.0046 l -4.38758,0.52011 2.93014,-2.44631 z"
         id="path3846"
         inkscape:connector-curvature="0" />
      <path
         style="fill:#fe2f2f"
         d="m 622.42859,538.20507 c 0,-1.52676 13.99998,-95.33058 14.40072,-96.48889 0.19088,-0.55174 6.93938,-2.74962 14.99665,-4.88419 l 14.6496,-3.88104 14.22651,3.76373 c 7.82459,2.07005 14.53392,4.04293 14.90964,4.38419 0.61889,0.56212 14.81688,93.17307 14.81688,96.64783 0,1.27453 -5.919,1.47263 -44,1.47263 -29.07907,0 -44,-0.34395 -44,-1.01426 z m 85.97915,-2.23574 c -0.0494,-2.96201 -13.7991,-92.90328 -14.27529,-93.37947 -0.8046,-0.80461 -25.4773,-7.37053 -27.69614,-7.37053 -2.02382,0 -26.96869,6.62764 -27.70096,7.35991 -0.37598,0.37597 -14.30676,91.66851 -14.30676,93.7564 0,0.49756 18.35196,0.88369 42,0.88369 32.94446,0 41.9955,-0.26951 41.97915,-1.25 z m -47.30356,-23.15068 c -5.26156,-1.94647 -5.43078,-2.36702 -1.26673,-3.1482 3.88116,-0.72811 5.90049,-2.45112 2.87266,-2.45112 -2.71523,0 -6.28152,-2.83871 -6.28152,-5 0,-2.79869 3.86942,-5 8.78893,-5 4.14886,0 4.32971,-0.12348 4.02749,-2.75 -0.34435,-2.9927 -0.60897,-3.04311 -9.04668,-1.7234 -3.93967,0.61618 -4.83778,0.45966 -5.37354,-0.93651 -0.86725,-2.26001 0.0399,-2.96227 2.27866,-1.7641 1.19633,0.64026 3.68547,0.65373 7.07155,0.0383 3.56565,-0.64808 5.86512,-0.60737 7.23949,0.12817 2.27612,1.21814 2.62875,3.95602 0.7641,5.93255 -1,1.06 -1,1.41667 0,1.78333 2.45905,0.90165 1.17954,4.18503 -3,7.69838 l -4.25,3.57257 4.61815,-0.60749 c 5.03386,-0.66218 6.54129,0.34412 4.56473,3.04722 -1.69099,2.31256 -8.32052,2.91414 -13.00729,1.18031 z m 4.76771,-9.82183 c 2.19054,-3.12744 1.96324,-3.77749 -1.32086,-3.77749 -3.26119,0 -5.63128,2.23161 -4.7657,4.48727 0.85851,2.23724 4.30379,1.83547 6.08656,-0.70978 z m -15.88902,-21.89971 c 9.12195,-9.54026 12.19026,-14.45593 10.60636,-16.99216 -0.63835,-1.02217 -1.16064,-2.08959 -1.16064,-2.37205 0,-1.24119 3.98462,-0.34661 6.10541,1.37071 l 2.32699,1.88427 -2.79438,4.03229 c -3.79528,5.47659 -14.36091,15.49349 -18.64251,17.6743 -3.04785,1.55242 -2.5921,0.83559 3.55877,-5.59736 z m 26.44572,-1.93361 c -5.225,-4.93294 -8.6,-8.65226 -7.5,-8.26516 3.78064,1.33042 14.00306,7.69573 16.75,10.42991 2.82481,2.8117 3.72584,6.92499 1.5,6.84765 -0.6875,-0.0239 -5.525,-4.07947 -10.75,-9.0124 z m -13.56986,4.70136 c 2.77303,-2.21883 2.82741,-2.40202 1.01413,-3.41678 -1.77579,-0.99378 -1.71284,-1.12324 0.86016,-1.76902 3.1308,-0.78578 6.92952,1.76703 6.04796,4.06435 -0.57643,1.50215 -5.55958,3.4785 -8.75161,3.47095 -1.8998,-0.005 -1.82045,-0.22927 0.82936,-2.3495 z"
         id="path3844"
         inkscape:connector-curvature="0" />
      <path
         style="fill:#fe0404"
         d="m 622.9802,534.46933 c 0.31639,-2.0625 3.59374,-23.96155 7.283,-48.66455 l 6.70775,-44.91456 14.47882,-3.86243 14.47882,-3.86243 14.87128,3.77698 c 8.17921,2.07735 15.02865,4.22699 15.221,4.77699 0.30987,0.88608 14.40772,94.84945 14.40772,96.02871 0,0.25921 -19.80532,0.47129 -44.01182,0.47129 l -44.01182,0 0.57525,-3.75 z m 85.44839,1.31306 c 0,-3.23797 -13.13719,-90.21765 -13.90497,-92.06306 -0.65545,-1.57542 -3.72593,-2.7387 -14.46356,-5.47967 l -13.63147,-3.47967 -13.63147,3.47967 c -10.78353,2.75268 -13.7986,3.89752 -14.43143,5.47967 -0.73218,1.83053 -13.96712,89.37573 -13.9462,92.25 0.007,0.98001 9.08062,1.25 42.0091,1.25 35.8475,0 42,-0.21049 42,-1.43694 z M 663.5003,513.04102 c -4.80073,-0.84373 -7.92911,-2.82169 -4.46284,-2.82169 1.10488,0 2.8409,-0.60839 3.85782,-1.35198 1.73238,-1.26675 1.66598,-1.39791 -1.05328,-2.0804 -5.66412,-1.4216 -6.87496,-4.10607 -3.41341,-7.56762 1.39164,-1.39164 3.33333,-2 6.38337,-2 3.45675,0 4.48781,-0.39938 4.87743,-1.8893 1.0079,-3.85424 -0.56142,-4.53241 -7.21889,-3.11959 -4.33176,0.91926 -6.45957,0.99123 -7.20704,0.24376 -1.70975,-1.70975 -0.0364,-3.41309 2.18506,-2.2242 1.28056,0.68533 3.36099,0.68833 6.39134,0.009 7.4218,-1.66326 12.25187,1.75718 8.33873,5.90511 -1,1.06 -1,1.41667 0,1.78334 2.46228,0.90283 1.17746,4.18622 -3,7.66659 l -4.25,3.54079 4.5,-0.20786 c 3.87268,-0.17888 4.5,0.0652 4.5,1.75114 0,2.47597 -4.27402,3.44431 -10.42829,2.36269 z m 2.53624,-9.57169 c 0.73065,-0.9625 1.34275,-2.3125 1.36025,-3 0.0333,-1.30913 -3.67702,-1.6827 -6.38641,-0.64301 -1.5939,0.61163 -2.15125,3.49021 -0.91512,4.72634 1.26962,1.26962 4.61871,0.65895 5.94128,-1.08333 z m -15.42629,-23.02468 c 9.01663,-9.46112 11.60652,-13.73359 9.94135,-16.39996 -0.61766,-0.98902 -1.12301,-2.02933 -1.12301,-2.31179 0,-1.23374 3.97842,-0.35163 6.07651,1.3473 l 2.29808,1.86088 -3.61758,4.92814 c -4.62246,6.29704 -13.3826,14.59151 -17.81502,16.86799 -2.88303,1.48072 -2.19453,0.45884 4.23967,-6.29256 z m 25.81834,-1.42413 -9.5,-9.10192 7.24056,3.85571 c 8.12952,4.32908 14.25944,9.72803 14.25944,12.55907 0,3.36892 -2.3384,1.94389 -12,-7.31286 z m -13.63486,5.12623 c 3.04987,-2.39903 3.38001,-3.8938 0.88486,-4.00637 -1.09007,-0.0492 -0.70029,-0.46193 1.03362,-1.09454 3.20872,-1.17069 5.71638,0.25455 5.71638,3.24893 0,1.26349 -1.16165,2.15316 -3.75,2.87198 -5.67516,1.57607 -6.80732,1.27881 -3.88486,-1.02 z"
         id="path3842"
         inkscape:connector-curvature="0" />
    </g>
  </g>
</svg>
