<?xml version="1.0" encoding="UTF-8" standalone="no"?>
<!-- Created with Inkscape (http://www.inkscape.org/) -->

<svg
   xmlns:dc="http://purl.org/dc/elements/1.1/"
   xmlns:cc="http://creativecommons.org/ns#"
   xmlns:rdf="http://www.w3.org/1999/02/22-rdf-syntax-ns#"
   xmlns:svg="http://www.w3.org/2000/svg"
   xmlns="http://www.w3.org/2000/svg"
   xmlns:sodipodi="http://sodipodi.sourceforge.net/DTD/sodipodi-0.dtd"
   xmlns:inkscape="http://www.inkscape.org/namespaces/inkscape"
   width="42.324329"
   height="50"
   id="svg2"
   version="1.1"
   inkscape:version="0.48.3.1 r9886"
   sodipodi:docname="Shogi_ryuo(svg).svg">
  <defs
     id="defs4" />
  <sodipodi:namedview
     id="base"
     pagecolor="#ffffff"
     bordercolor="#666666"
     borderopacity="1.0"
     inkscape:pageopacity="0.0"
     inkscape:pageshadow="2"
     inkscape:zoom="1.4"
     inkscape:cx="61.812373"
     inkscape:cy="101.25546"
     inkscape:document-units="px"
     inkscape:current-layer="layer1"
     showgrid="false"
     fit-margin-top="0"
     fit-margin-left="0"
     fit-margin-right="0"
     fit-margin-bottom="0"
     inkscape:window-width="1234"
     inkscape:window-height="673"
     inkscape:window-x="1050"
     inkscape:window-y="937"
     inkscape:window-maximized="0" />
  <metadata
     id="metadata7">
    <rdf:RDF>
      <cc:Work
         rdf:about="">
        <dc:format>image/svg+xml</dc:format>
        <dc:type
           rdf:resource="http://purl.org/dc/dcmitype/StillImage" />
        <dc:title />
      </cc:Work>
    </rdf:RDF>
  </metadata>
  <g
     inkscape:label="Layer 1"
     inkscape:groupmode="layer"
     id="layer1"
     transform="translate(-430.42199,-758.96479)">
    <g
       id="g3804"
       transform="matrix(0.43154538,0,0,0.43154538,244.67537,459.85977)">
      <path
         sodipodi:nodetypes="cccccc"
         inkscape:connector-curvature="0"
         id="path3034"
         d="m 434.10932,807.57139 14.81925,-104.31635 30.53572,-8.39285 31.51785,8.92856 15.71429,104.375 z"
         style="fill:#ffffff;fill-opacity:1;stroke:none" />
      <path
         style="fill:#fecfcf"
         d="m 430.92972,806.71479 c 0.27926,-1.2375 3.94512,-25.2 8.14635,-53.25 4.20124,-28.05 7.77213,-51.1533 7.93531,-51.34066 0.16318,-0.18736 7.55136,-2.29396 16.41816,-4.68134 l 16.12147,-4.34067 16.0228,4.33292 c 8.81253,2.38311 16.17589,4.48971 16.36302,4.68134 0.18713,0.19163 3.76264,23.29841 7.9456,51.34841 4.18296,28.05 7.83272,52.0125 8.11059,53.25 l 0.50517,2.25 -49.0381,0 -49.0381,0 0.50773,-2.25 z m 93.52628,-1.5 c -0.0101,-1.84616 -14.8568,-100.44422 -15.17218,-100.7596 -0.19463,-0.19463 -6.97234,-2.07209 -15.06157,-4.17214 l -14.70771,-3.81826 -14.77722,3.83904 c -8.12748,2.11147 -14.89309,3.95233 -15.0347,4.0908 -0.25197,0.24639 -15.22953,99.34234 -15.23815,100.82016 -0.002,0.4125 20.24562,0.75 44.99562,0.75 24.75,0 44.99816,-0.3375 44.99591,-0.75 z m -50.87311,-5.20165 c -3.76275,-0.94457 -8.2613,-3.96385 -8.94013,-6.00033 -0.32587,-0.97763 0.23763,-1.15935 2.12567,-0.68548 3.03297,0.76123 4.29791,-0.61452 2.18066,-2.37168 -2.4163,-2.00535 -1.91716,-9.38156 0.85275,-12.60176 1.96214,-2.28114 3.13734,-2.71994 7.25,-2.70702 5.19584,0.0163 6.3682,-0.79645 6.39295,-4.43208 0.0179,-2.63167 -2.20561,-2.91032 -5.98469,-0.75 -3.72373,2.12867 -9.34486,1.8814 -11.50555,-0.50613 -2.30476,-2.54673 -1.66646,-3.13705 3.68681,-3.40964 2.37531,-0.12094 6.42706,-0.8374 9.00389,-1.59213 3.73074,-1.09269 5.2262,-1.12571 7.3411,-0.16209 2.46474,1.12301 2.63139,1.59352 2.31485,6.53559 -0.22298,3.48123 0.13274,5.89668 1.02719,6.97492 1.16881,1.40899 1.11219,2.04033 -0.38835,4.33044 -2.20667,3.3678 -6.09473,7.05414 -9.97994,9.46218 -2.81986,1.74773 -2.86094,1.85961 -0.68426,1.86312 1.27366,0.002 3.24308,-0.49256 4.37649,-1.09914 2.64537,-1.41576 6.80777,0.32122 6.80777,2.84089 0,3.69397 -8.80754,6.08504 -15.8772,4.31034 z m 4.44688,-15.18586 c 1.98019,-3.90771 2.30342,-5.32288 1.35032,-5.91193 -1.30675,-0.80762 -5.42683,0.39526 -7.63723,2.22972 -1.61755,1.34245 -1.66851,6.03398 -0.0828,7.61972 2.19925,2.19924 3.74377,1.24447 6.36968,-3.93751 z m 5.88487,-25.31704 c -2.77966,-2.77965 -2.99645,-4.98838 -1.18541,-12.07752 0.91623,-3.58649 0.98265,-5.83775 0.23888,-8.09598 l -1.03027,-3.12804 -3.17825,4.62804 c -3.81304,5.55241 -5.2995,9.25296 -5.2995,13.19315 0,4.65146 -5.90431,9.23261 -7.27972,5.64833 -0.27154,-0.70761 0.1619,-3.22602 0.96319,-5.59648 0.8013,-2.37045 1.19467,-4.57215 0.87416,-4.89266 -0.32051,-0.3205 -2.10319,0.14231 -3.96151,1.02848 -2.4882,1.18654 -3.83858,2.81524 -5.1233,6.17923 -1.71035,4.47848 -4.01421,5.92669 -5.0664,3.18473 -0.7394,-1.92683 1.95531,-7.98945 6.14038,-13.81476 2.57052,-3.57797 2.99378,-4.62647 1.55731,-3.85769 -3.23022,1.72876 -6.81504,1.21192 -9.79835,-1.41268 l -2.80576,-2.4684 4.69279,-0.0316 c 2.58103,-0.0174 7.86324,-1.20677 11.73824,-2.6431 6.7197,-2.49076 10.06897,-2.63897 10.06897,-0.44556 0,0.55313 -1.30146,1.67871 -2.89212,2.50128 -1.59068,0.82257 -4.33215,3.31376 -6.09219,5.53598 l -3.20005,4.0404 L 466,745.94962 c 1.49834,-0.56967 3.46122,-0.80186 4.36195,-0.51598 1.16269,0.36902 2.5793,-1.00128 4.88415,-4.72453 1.78555,-2.88438 4.1391,-6.36932 5.2301,-7.74432 2.82538,-3.5609 4.14841,-23.33916 1.62598,-24.3071 -2.58136,-0.99057 -2.00585,-3.6929 0.78648,-3.6929 3.90724,0 5.74456,2.64103 5.42724,7.80124 -0.27364,4.4497 -0.21326,4.54685 3.65882,5.8874 2.16538,0.74967 4.32237,1.74836 4.79331,2.2193 1.33587,1.33587 -1.15444,4.48477 -5.94223,7.51376 -3.76558,2.38228 -4.3657,3.23232 -4.3657,6.18369 0,1.88196 0.53333,4.27574 1.18517,5.31951 0.94354,1.51085 0.80359,3.15802 -0.68641,8.07915 -1.35829,4.48618 -1.58699,6.63589 -0.83389,7.83867 1.34967,2.15558 6.8506,2.59349 11.86257,0.94434 l 3.97255,-1.30713 -0.34709,-4.82295 -0.34709,-4.82296 4.22186,4.58019 c 4.83345,5.24367 4.60771,6.13161 -2.42433,9.53576 -2.87992,1.39414 -6.22793,2.05003 -10.46453,2.05003 -5.28094,0 -6.60355,-0.37383 -8.68427,-2.45455 z m 6.41947,-38.19724 c -1.83029,-2.20537 -2.87402,-1.54922 -2.87402,1.80678 0,3.08978 0.0413,3.11765 1.99647,1.34821 1.52321,-1.37849 1.73123,-2.12637 0.87756,-3.15499 z m -1.84649,27.80392 c 0.0151,-0.35867 1.57047,-1.77713 3.4563,-3.15213 2.99636,-2.18472 3.22986,-2.65117 1.85144,-3.69874 -1.15404,-0.87706 -1.39972,-2.08462 -0.91552,-4.5 0.86724,-4.32617 0.97029,-5.98737 0.48252,-7.77752 -0.55243,-2.02739 3.12025,-2.45898 5.58546,-0.65638 1.90704,1.39446 1.91517,1.56455 0.24274,5.07167 -2.15614,4.52148 -2.15411,4.56097 0.23436,4.56097 2.1836,0 4.27398,3.02573 3.2154,4.65418 -1.3666,2.10229 -14.22013,7.09555 -14.15269,5.49795 z m -26.07778,-15.59864 2.29837,-2.44651 -3.37406,-1.47192 c -3.13675,-1.36839 -3.19822,-1.47986 -0.87406,-1.58491 1.41259,-0.0639 3.28149,-1.18674 4.29668,-2.58158 1.77653,-2.44088 1.76936,-2.46857 -0.63921,-2.46857 -1.33975,0 -3.49826,-0.88503 -4.79669,-1.96673 l -2.36078,-1.96673 4.5,-0.0443 c 2.475,-0.0243 6.1875,-0.3232 8.25,-0.66411 3.35401,-0.55438 3.75,-0.39483 3.75,1.51101 0,1.17196 -0.49754,2.13084 -1.10564,2.13084 -0.60811,0 -2.51013,1.18179 -4.22671,2.6262 l -3.12106,2.6262 4.22671,-0.7141 c 6.22655,-1.05197 5.52879,1.37374 -1.67402,5.81956 -6.89595,4.25642 -8.33997,4.5917 -5.14953,1.19563 z m 5.03293,-20.49454 c 3.44419,-2.85532 3.46182,-2.9103 1.59502,-4.9731 -1.03822,-1.14722 -1.48043,-2.13767 -0.98269,-2.201 4.2104,-0.53575 8.40499,2.11983 8.40499,5.32116 0,2.18072 -5.35835,4.80924 -9.71788,4.76709 l -2.78212,-0.0269 3.48268,-2.88725 z"
         id="path3010"
         inkscape:connector-curvature="0" />
      <path
         style="fill:#feb0b0"
         d="m 432.50031,797.71479 c 0.95468,-6.1875 4.56184,-30.15 8.01591,-53.25 3.45407,-23.1 6.33745,-42.09549 6.40752,-42.21219 0.0701,-0.1167 7.43762,-2.19669 16.37234,-4.62219 l 16.24492,-4.41 16.11072,4.3567 c 8.86091,2.39618 16.20677,4.47617 16.32416,4.62219 0.11739,0.14602 3.47161,22.09049 7.45383,48.76549 3.98222,26.675 7.57594,50.6375 7.98605,53.25 l 0.74565,4.75 -48.69844,0 -48.69843,0 1.73577,-11.25 z m 91.91727,6.5 c -0.0781,-3.21395 -14.58811,-99.21395 -15.06839,-99.69423 -0.26022,-0.26023 -7.09173,-2.25507 -15.18112,-4.43297 l -14.70798,-3.95984 -14.70798,3.95984 c -8.08939,2.1779 -14.88302,4.13487 -15.09696,4.3488 -0.3966,0.39661 -15.18194,98.00091 -15.19041,100.2784 -0.004,0.98155 9.65955,1.25 44.99535,1.25 42.20668,0 44.99736,-0.10863 44.95749,-1.75 z m -49.73695,-4.33734 c -4.30633,-0.82357 -10.22054,-4.26991 -10.22054,-5.95575 0,-0.4988 1.35,-0.63691 3,-0.30691 3.30506,0.66101 3.69123,-0.15202 1.4682,-3.09113 -2.36726,-3.1298 -1.8686,-9.24938 0.98635,-12.10432 1.94336,-1.94336 3.48303,-2.45455 7.39301,-2.45455 5.10591,0 6.15244,-0.86442 6.15244,-5.08179 0,-2.28817 -2.43227,-2.45771 -6,-0.41821 -3.58294,2.04819 -9.34502,1.88123 -11.34501,-0.32874 -2.47751,-2.73762 -2.08408,-3.17126 2.87713,-3.17126 2.49266,0 6.14762,-0.675 8.12212,-1.5 7.82477,-3.2694 11.96241,-0.66323 11.09963,6.9913 -0.28147,2.49716 -0.11623,4.78475 0.3672,5.08352 3.04952,1.8847 -3.69986,11.48826 -10.39315,14.78821 l -3.22791,1.59143 2.81574,0.0228 c 1.54866,0.0125 3.6567,-0.42729 4.68453,-0.97737 2.59755,-1.3902 6.99973,0.40474 6.99973,2.85404 0,3.23581 -7.83365,5.38709 -14.77946,4.05873 z m 3.48595,-14.42114 c 1.24334,-2.19534 2.26801,-4.83527 2.27706,-5.86652 0.0138,-1.57595 -0.49144,-1.77342 -3.16792,-1.23812 -1.75141,0.35028 -4.00141,1.37627 -5,2.27998 -3.29187,2.97909 -1.68191,9.8392 2.13651,9.10384 0.82157,-0.15822 2.51103,-2.08385 3.75436,-4.27918 z m 7.17602,-24.99407 c -3.41415,-1.85541 -4.11888,-5.71315 -2.39252,-13.09668 0.85663,-3.66376 1.02527,-6.26092 0.44484,-6.85077 -0.51415,-0.5225 -0.93483,-1.85 -0.93483,-2.95 0,-2.61252 -1.01202,-1.52459 -5.43359,5.84117 -2.14011,3.56514 -3.56641,7.24216 -3.56641,9.19424 0,1.9674 -0.92331,4.32647 -2.33621,5.96907 -4.02152,4.67529 -6.32254,0.50387 -3.12882,-5.67211 1.39068,-2.68926 1.38468,-3.02597 -0.0638,-3.5818 -2.86874,-1.10083 -6.52116,1.50814 -8.55822,6.11325 -2.14647,4.85246 -3.59065,6.25851 -4.99044,4.85872 -1.45534,-1.45534 0.60821,-6.89247 5.13013,-13.51709 2.95573,-4.33013 3.62592,-5.88188 2.30674,-5.34097 -3.99177,1.63677 -5.23495,1.65124 -8.2426,0.0959 -4.38728,-2.26875 -3.87455,-3.5604 1.41332,-3.5604 2.58155,0 7.08505,-1.07535 10.46987,-2.5 3.26685,-1.375 6.62829,-2.5 7.46987,-2.5 2.44115,0 1.823,3.70968 -0.7247,4.34911 -1.24016,0.31126 -3.97437,2.86919 -6.07604,5.68429 -3.12261,4.18261 -3.40371,4.89492 -1.53759,3.8962 1.25599,-0.67218 3.54416,-1.18632 5.08482,-1.14251 2.09961,0.0597 3.16387,-0.62169 4.24923,-2.72055 0.79642,-1.54011 3.10036,-4.96485 5.11986,-7.61054 3.59302,-4.70712 3.6828,-5.04211 4.18373,-15.61062 0.44498,-9.38818 0.29741,-10.8826 -1.12864,-11.42982 -2.20019,-0.8443 -2.0971,-3.41556 0.13695,-3.41556 0.97763,0 2.81385,0.72589 4.0805,1.61309 1.93564,1.35577 2.25029,2.33772 1.97251,6.15574 -0.31924,4.38787 -0.21352,4.58221 3.10258,5.7036 6.77434,2.29084 6.41891,5.38646 -1.1684,10.17612 -3.18349,2.00965 -3.76468,2.91702 -3.76468,5.87756 0,1.92557 0.54597,4.37526 1.21326,5.44376 0.97783,1.56577 0.87985,2.87291 -0.50495,6.73643 -2.01951,5.63434 -2.16086,8.44115 -0.50831,10.0937 1.64332,1.64332 8.1258,1.50854 12.35084,-0.2568 3.39764,-1.41962 3.46974,-1.56636 2.82565,-5.75 l -0.66095,-4.2932 3.89223,3.96505 c 4.22847,4.30758 4.35355,5.15125 1.11015,7.48827 -5.5445,3.99508 -15.85,5.25345 -20.83542,2.54413 z m 4.45546,-39.67649 c -1.99107,-2.20011 -1.90633,-2.28196 -2.65562,2.56502 l -0.60073,3.88598 2.4577,-2.30889 c 2.30582,-2.1662 2.35517,-2.42218 0.79866,-4.14211 z m 2.50518,25.45534 c 3.06299,-2.63574 3.2025,-2.99353 1.66484,-4.26967 -1.22954,-1.02044 -1.49982,-2.21023 -1.01082,-4.44975 0.36711,-1.68128 0.66242,-4.51938 0.65624,-6.30688 -0.0133,-3.84161 2.46401,-4.43523 5.32341,-1.27562 1.66506,1.83987 1.67562,2.14404 0.15499,4.46481 -2.18995,3.34229 -2.05709,4.36131 0.6182,4.74126 1.64812,0.23407 2.25,0.98831 2.25,2.81955 0,2.65956 -3.94198,5.22796 -10,6.5155 l -3,0.63761 3.34314,-2.87681 z M 462.2101,734.38667 c 2.71649,-2.01119 2.94364,-4.42188 0.41667,-4.42188 -4.5232,0 -2.72208,-1.57145 3.01754,-2.63277 10.45483,-1.93321 10.18417,0.49064 -0.68421,6.12732 -2.75,1.42623 -3.9875,1.84353 -2.75,0.92733 z m 2.63046,-9.28979 c 1.60826,-1.77711 1.55503,-1.89562 -1.09501,-2.43791 -1.53201,-0.3135 -3.68545,-1.26603 -4.78545,-2.11673 -1.88385,-1.45691 -1.70963,-1.54881 3,-1.58239 2.75,-0.0196 6.30607,-0.13903 7.90238,-0.26536 4.4185,-0.34969 4.12096,1.55543 -0.79421,5.08524 -4.96804,3.56777 -6.77356,4.13028 -4.22771,1.31715 z m 2.61954,-11.93338 c 2.81636,-2.44155 3.25584,-3.28468 2.25,-4.31646 -1.75363,-1.79887 -1.55535,-2.88225 0.52749,-2.88225 2.67542,0 6.22251,2.86248 6.22251,5.02152 0,2.35613 -2.42609,3.71869 -8.12476,4.56309 l -4.37524,0.64831 3.5,-3.03421 z"
         id="path3008"
         inkscape:connector-curvature="0" />
      <path
         style="fill:#fe8f8f"
         d="m 431.42571,807.71479 c -0.0812,-2.95139 15.4107,-104.32721 16.05596,-105.06709 0.96692,-1.1087 28.84598,-8.6488 31.97842,-8.6488 3.1043,0 30.98428,7.52912 32.02607,8.6488 0.70782,0.76073 15.97797,100.71287 15.9752,104.56709 -10e-4,1.64234 -2.95412,1.75 -48.00127,1.75 -37.715,0 -48.00737,-0.26784 -48.03438,-1.25 z m 93.06419,-3 c 0.0716,-3.00601 -14.43396,-99.33281 -15.06983,-100.07349 -0.38883,-0.45292 -7.28889,-2.55731 -15.33347,-4.67643 l -14.62651,-3.85295 -14.58126,3.84103 c -8.01969,2.11256 -14.84606,4.10583 -15.16971,4.42948 -0.61976,0.61976 -15.14091,95.45771 -15.20931,99.33236 l -0.0397,2.25 45,0 c 35.31744,0 45.00641,-0.26896 45.0298,-1.25 z m -55.45206,-7.01645 c -4.72615,-2.69133 -6.03108,-5.13642 -2.23245,-4.18302 3.77266,0.94687 4.9161,-0.28914 2.50136,-2.70388 -1.6866,-1.68659 -1.98469,-2.92963 -1.57475,-6.56659 0.67574,-5.99514 2.58175,-7.65372 9.504,-8.27025 l 5.7241,-0.50981 0.31562,-3.83822 c 0.29638,-3.6042 0.17445,-3.79462 -2,-3.12331 -1.27359,0.39319 -3.53077,1.33289 -5.01596,2.08822 -3.54173,1.80121 -6.83373,1.73818 -9.57715,-0.18339 -3.32774,-2.33084 -2.70109,-3.4433 1.9396,-3.4433 2.28916,0 6.53281,-0.7473 9.43033,-1.66066 4.9681,-1.56606 5.42183,-1.56001 7.96461,0.10609 2.48238,1.62651 2.65066,2.15298 2.12009,6.6328 -0.31701,2.6767 -0.14907,5.1301 0.37327,5.45293 3.12914,1.93391 -3.82673,11.89091 -10.13117,14.50229 -3.79964,1.57387 -2.39128,3.47671 1.48302,2.00371 3.92647,-1.49284 7.15253,-1.27854 8.69286,0.57746 1.1488,1.38422 1.00777,1.88364 -0.98834,3.5 -3.43659,2.78278 -13.33043,2.5793 -18.52904,-0.38107 z m 9.12874,-12.24203 c 1.24334,-2.19534 2.26801,-4.83527 2.27706,-5.86652 0.0138,-1.57595 -0.49144,-1.77342 -3.16792,-1.23812 -5.9107,1.18214 -8.81308,5.74405 -6.10987,9.60341 2.08124,2.9714 4.36419,2.15654 7.00073,-2.49877 z m 8.87874,-24.53506 c -1.60312,-0.47939 -3.28373,-1.45321 -3.73469,-2.16404 -1.15612,-1.82239 -1.04701,-9.93036 0.18106,-13.45323 0.76373,-2.19084 0.68312,-3.78808 -0.3105,-6.15117 l -1.3421,-3.19192 -2.05728,2.78263 c -3.49802,4.73133 -6.32172,11.00544 -6.32172,14.04657 0,1.59774 -0.91656,4.07019 -2.03679,5.49434 -3.81095,4.84484 -6.71966,0.37693 -3.46321,-5.31964 1.96322,-3.43429 1.85326,-4 -0.77748,-4 -3.49405,0 -6.70128,2.78464 -8.77249,7.6166 -2.08901,4.87345 -3.95002,5.7374 -3.95002,1.83374 0,-3.04215 2.03212,-7.24069 6.65018,-13.73983 l 3.40324,-4.78949 -2.97705,1.53949 c -4.06072,2.09988 -5.50129,1.9473 -8.77061,-0.92891 l -2.80576,-2.4684 4.63094,-0.0316 c 2.54702,-0.0174 7.61979,-1.1566 11.27283,-2.5316 3.65304,-1.375 7.08161,-2.5 7.61906,-2.5 2.07289,0 0.84359,3.01772 -1.7825,4.37572 -1.51782,0.7849 -4.28171,3.54648 -6.14197,6.13684 -2.6727,3.72167 -2.94672,4.47664 -1.30607,3.5986 1.14193,-0.61114 3.41911,-1.11116 5.06041,-1.11116 2.37967,0 3.44231,-0.75965 5.24574,-3.75 1.24386,-2.0625 3.60654,-5.4857 5.25042,-7.60711 2.78168,-3.58973 3.02098,-4.57927 3.45219,-14.27518 0.39922,-8.97598 0.21857,-10.68854 -1.30498,-12.37204 -1.61971,-1.78976 -1.63017,-2.00698 -0.12447,-2.58477 0.9041,-0.34694 2.82239,0.14142 4.26284,1.08524 2.37587,1.55673 2.56734,2.15226 2.06249,6.41497 l -0.55652,4.69894 4.1798,1.44497 c 5.7508,1.98809 5.59484,4.54093 -0.51591,8.44498 -4.2217,2.69716 -4.70119,3.38518 -4.75,6.81574 -0.0299,2.09866 0.4277,4.71638 1.01682,5.81715 0.79986,1.49455 0.67323,3.16915 -0.5,6.6124 -2.01446,5.91213 -2.0105,9.87213 0.0107,10.64772 2.75378,1.05673 8.35848,0.65879 11.96906,-0.84981 3.38748,-1.41538 3.46753,-1.57607 2.81574,-5.65213 l -0.67086,-4.19534 4.04888,3.90213 4.04887,3.90214 -2.84344,2.68828 c -4.51131,4.26514 -12.50278,5.8202 -19.3648,3.76818 z m 2.87679,-40.37105 c -1.77679,-1.30869 -2.02341,-1.23932 -2.61234,0.73474 -0.35767,1.19892 -0.69518,3.06962 -0.75,4.15712 -0.0892,1.76991 0.18475,1.69285 2.61234,-0.73473 2.65584,-2.65584 2.67137,-2.74194 0.75,-4.15713 z m 2.53799,25.55169 c 3.34757,-2.85766 3.41741,-3.04956 1.60354,-4.40612 -1.46785,-1.09778 -1.73168,-2.0752 -1.16738,-4.32466 0.40099,-1.59847 0.8044,-4.25016 0.89646,-5.89263 0.19968,-3.56261 2.56069,-4.39405 4.95737,-1.74575 1.55906,1.72275 1.5427,2.07384 -0.25276,5.42377 l -1.91972,3.58179 3.01221,0.60244 c 6.44516,1.28904 1.64313,7.00231 -7.62972,9.07755 l -3,0.67139 3.5,-2.98778 z m -28.86078,-13.06281 c 1.86882,-1.52441 2.0482,-2.02539 0.86078,-2.40406 -6.00572,-1.91526 -5.0645,-2.49431 6.39237,-3.93265 3.79122,-0.47597 2.48932,1.86592 -2.79409,5.02607 -6.07698,3.6348 -8.00195,4.2006 -4.45906,1.31064 z m 0.86078,-6.81215 c 0,-0.47418 0.54,-1.40214 1.2,-2.06214 0.93333,-0.93333 0.83268,-1.2 -0.45295,-1.2 -2.14955,0 -6.74705,-2.10157 -6.74705,-3.08415 0,-0.41972 1.9125,-0.78609 4.25,-0.81416 2.3375,-0.0281 5.55607,-0.17493 7.15238,-0.32636 4.4471,-0.42186 4.11259,1.51581 -0.88073,5.10174 -2.48691,1.78596 -4.52165,2.85924 -4.52165,2.38507 z m 2.89207,-12.95222 c 3.00138,-2.57528 3.25647,-3.16385 2.21481,-5.11021 -1.01162,-1.89024 -0.92223,-2.19971 0.63543,-2.19971 2.43438,0 6.25769,2.76996 6.25769,4.53365 0,1.97957 -3.75845,4.19156 -8.5,5.00258 l -4,0.68417 3.39207,-2.91048 z"
         id="path3006"
         inkscape:connector-curvature="0" />
      <path
         style="fill:#fe6f6f"
         d="m 431.48786,807.21479 c 0.0478,-3.01023 15.55705,-104.16816 16.04572,-104.65683 0.76403,-0.76402 29.76458,-8.59317 31.83063,-8.59317 2.63362,0 31.33007,7.80885 32.13289,8.74397 0.58233,0.6783 15.98975,101.98005 15.97082,105.00603 -0.006,0.98253 -10.27866,1.25 -48.00783,1.25 -45.0582,0 -47.9983,-0.10725 -47.97223,-1.75 z m 93.1053,-0.71641 c 0.35808,-0.35807 -14.05792,-101.30102 -14.60207,-102.24589 -0.0673,-0.11676 -6.92263,-2.03961 -15.23418,-4.273 l -15.11191,-4.06071 -13.84246,3.62886 c -7.61335,1.99587 -14.51079,3.99584 -15.32765,4.44438 -1.11251,0.61088 -3.38287,13.51684 -9.04738,51.4301 -4.15921,27.83801 -7.35336,50.82339 -7.09813,51.07862 0.60814,0.60814 89.65562,0.60582 90.26379,-0.002 z m -55.55533,-8.74408 c -5.28915,-3.0874 -5.78263,-4.8593 -1.14368,-4.1065 4.08084,0.66223 4.37949,0.10661 1.56594,-2.91338 -2.38286,-2.55771 -2.57051,-6.76571 -0.48181,-10.8048 1.57685,-3.0493 3.24066,-3.74909 9.98181,-4.19829 3.86272,-0.25739 4.01083,-0.39826 4.31562,-4.10476 0.29638,-3.6042 0.17445,-3.79462 -2,-3.12331 -1.27359,0.39319 -3.53077,1.33289 -5.01596,2.08822 -4.61729,2.34822 -10.79966,1.11064 -10.79966,-2.16187 0,-1.05437 1.19088,-1.4689 4.25,-1.47937 2.3375,-0.008 6.21166,-0.69773 8.60924,-1.53272 7.2613,-2.52884 10.91156,0.32548 9.74509,7.62017 -0.34502,2.15762 -0.17457,4.07467 0.3935,4.42576 3.04136,1.87967 -2.6622,10.39004 -9.39233,14.01446 -4.26622,2.29751 -4.74823,4.00589 -0.8555,3.03211 6.76504,-1.6923 8.86909,-1.70913 10.21969,-0.0817 2.40048,2.8924 -0.94443,4.92226 -8.7229,5.29353 -5.5943,0.26701 -7.41679,-0.0691 -10.66905,-1.9675 z m 9.36152,-12.66919 c 1.63243,-3.23382 2.68891,-6.15882 2.34773,-6.5 -0.95706,-0.95706 -3.93721,-0.73682 -6.62967,0.48995 -5.68597,2.59071 -5.26524,11.18364 0.57828,11.81078 0.40459,0.0434 2.07123,-2.5669 3.70366,-5.80073 z m 10.06074,-23.80105 c -5.73977,-1.15167 -7.46689,-6.49826 -4.98519,-15.43249 0.75195,-2.70704 0.65537,-4.44157 -0.38509,-6.91608 l -1.38874,-3.30287 -3.65534,5.50534 c -2.29517,3.45679 -3.95655,7.41077 -4.46482,10.62605 -0.90928,5.75205 -2.4749,8.20078 -5.24326,8.20078 -2.28848,0 -2.46873,-3.34188 -0.37756,-7 2.01961,-3.53294 1.86481,-4 -1.32569,-4 -3.31735,0 -6.32919,2.91385 -8.52743,8.25 -1.77685,4.31323 -3.64688,4.92873 -3.64688,1.20034 0,-3.07631 2.08937,-7.34289 6.69821,-13.67807 l 3.43943,-4.72773 -3.64221,1.52182 c -4.09018,1.70899 -6.4003,1.30122 -9.01852,-1.59189 -1.75474,-1.93896 -1.70357,-1.97447 2.84528,-1.97447 2.54769,0 7.61442,-1.12252 11.2594,-2.49449 3.64499,-1.37196 7.03026,-2.24541 7.52283,-1.94098 1.61136,0.99588 0.94482,2.35865 -1.86408,3.81119 -1.51782,0.7849 -4.28171,3.54648 -6.14197,6.13684 -2.83202,3.94352 -3.02576,4.51896 -1.19087,3.53695 1.20528,-0.64505 3.39212,-1.03257 4.85964,-0.86116 2.33766,0.27304 3.34304,-0.67942 8.1154,-7.68835 l 5.44718,-8 0.4502,-10.29413 c 0.37662,-8.61168 0.17918,-10.59359 -1.20803,-12.12644 -1.37036,-1.51423 -1.4152,-1.92558 -0.25832,-2.36951 0.76995,-0.29546 2.47688,0.012 3.79317,0.68321 2.09085,1.06619 2.36802,1.85112 2.19344,6.21176 l -0.19982,4.99135 4.19982,1.45188 c 5.76363,1.99249 5.62036,4.54033 -0.47528,8.45188 -5.53278,3.55036 -6.74784,6.81452 -4.29926,11.54956 1.53689,2.97203 1.53668,3.49877 -0.003,7.5306 -0.91057,2.38429 -1.51314,5.81664 -1.33906,7.62745 0.30914,3.21562 0.43782,3.2994 5.51836,3.59298 3.35778,0.19403 6.30964,-0.27229 8.32684,-1.31542 2.95419,-1.52767 3.08683,-1.84204 2.42644,-5.75087 l -0.69858,-4.13486 3.7156,3.93969 c 4.12086,4.36938 3.95322,5.71467 -1.07771,8.64915 -3.10826,1.81301 -11.31641,2.94923 -15.39442,2.13099 z m 2.96857,-38.82872 c 0.0173,-0.5552 -0.8226,-1.54281 -1.86641,-2.19467 -1.62086,-1.01225 -1.98371,-0.86494 -2.48634,1.00945 -0.32368,1.20707 -0.59466,3.00318 -0.60217,3.99136 -0.0131,1.72891 0.0795,1.72891 2.45492,0 1.35772,-0.98818 2.48272,-2.25094 2.5,-2.80614 z m 1.03143,23.61902 c 3.15616,-2.78937 3.32808,-3.19717 1.75,-4.1511 -2.08486,-1.26027 -2.18263,-3.5487 -0.29716,-6.95553 0.99856,-1.80428 1.08372,-2.85642 0.30696,-3.79238 -1.70645,-2.05612 0.51874,-3.66704 3.13284,-2.26802 2.46237,1.31782 2.70978,3.87875 0.63916,6.61633 -2.06673,2.73246 -1.91909,3.11367 1.4682,3.79113 2.18017,0.43603 3,1.16875 3,2.68123 0,2.03531 -4.3095,4.56741 -11,6.4632 -2.25954,0.64026 -2.16336,0.41087 1,-2.38486 z m -28.75,-12.76642 c 2.36189,-2.70015 2.2553,-2.97428 -1.5,-3.85772 -3.20493,-0.75396 -3.18066,-0.77505 1.75,-1.52059 2.75,-0.41581 5.74198,-1.05868 6.64885,-1.4286 3.60866,-1.47202 2.63649,1.5126 -1.37827,4.23138 -6.52693,4.42001 -7.55252,4.89849 -5.52058,2.57553 z m 0.75,-7.13688 c 0,-0.44345 0.49448,-1.30075 1.09884,-1.90511 0.79844,-0.79845 0.2706,-1.28074 -1.9309,-1.76428 -1.66636,-0.36599 -3.49964,-1.23164 -4.07398,-1.92368 -0.81232,-0.97878 0.005,-1.28252 3.68089,-1.3676 2.59883,-0.0602 5.85015,-0.25252 7.22515,-0.42748 3.76447,-0.47902 3.03679,1.64821 -1.75,5.11574 -2.3375,1.69328 -4.25,2.71586 -4.25,2.27241 z m 3.64859,-13.36136 c 2.39832,-2.50331 2.61781,-3.18869 1.5624,-4.87869 -1.0488,-1.67937 -0.96737,-1.96622 0.55804,-1.96622 2.35069,0 6.23098,2.7614 6.23098,4.43426 0,2.05487 -2.65561,3.77131 -7.08915,4.58204 l -4.05258,0.74107 2.79031,-2.91246 z"
         id="path3004"
         inkscape:connector-curvature="0" />
      <path
         style="fill:#fe5050"
         d="m 431.46009,808.04143 c 0,-1.2642 14.87104,-99.9241 15.55551,-103.20086 0.51421,-2.4617 1.5358,-2.89028 16.49632,-6.9207 l 15.94817,-4.2965 16.01719,4.31509 c 13.61706,3.66848 16.09001,4.63061 16.50316,6.42071 0.59458,2.5762 15.47966,102.20084 15.47966,103.60417 0,0.65469 -16.62033,1.00145 -48.00001,1.00145 -28.6772,0 -48,-0.37171 -48,-0.92336 z m 93.2994,-1.82664 c 0.3932,-0.70648 -14.26145,-101.36363 -14.86315,-102.08918 -0.1547,-0.18655 -7.05861,-2.12063 -15.34203,-4.29796 l -15.06075,-3.95878 -15.1262,3.99076 c -8.31941,2.19492 -15.22302,4.129 -15.34134,4.29796 -0.57194,0.81666 -15.21892,101.4063 -14.86068,102.0572 0.22703,0.4125 20.60967,0.75 45.29475,0.75 24.68508,0 45.06981,-0.3375 45.2994,-0.75 z m -55.23086,-8.46647 c -5.59277,-2.99398 -6.19901,-4.5139 -1.5856,-3.97532 4.04216,0.4719 4.30225,-0.049 1.51706,-3.03858 -2.38286,-2.55771 -2.57051,-6.76571 -0.48181,-10.8048 1.57685,-3.0493 3.24067,-3.74909 9.98181,-4.19829 3.84478,-0.2562 4.01204,-0.41205 4.31037,-4.01654 0.3593,-4.34136 -0.32619,-4.54782 -5.81037,-1.75 -4.51905,2.30545 -7.76056,2.49771 -10.25,0.60795 -2.9831,-2.26449 -1.95811,-3.40426 3.5,-3.89188 2.8875,-0.25797 6.84484,-0.90633 8.79408,-1.4408 6.76695,-1.85545 10.41808,2.09162 8.09613,8.75237 -0.86062,2.46878 -0.7838,3.1719 0.39603,3.62464 0.80507,0.30893 1.46376,1.43498 1.46376,2.50233 0,2.51509 -9.05363,11.56976 -12.41099,12.41241 -1.42395,0.35739 -2.58901,1.10025 -2.58901,1.65079 0,0.94924 2.13472,0.78048 9.55688,-0.75551 2.19129,-0.45348 3.4412,-0.16954 4.4141,1.00273 2.30903,2.78222 -0.92695,4.87739 -8.20851,5.3147 -5.14348,0.30889 -7.05429,-0.0478 -10.69393,-1.9962 z m 9.16471,-12.86477 c 1.50328,-2.98032 2.74078,-5.75626 2.75,-6.16876 0.0285,-1.27472 -4.93244,-0.82764 -7.91173,0.71301 -4.5251,2.34003 -5.34601,6.2625 -2.00902,9.59949 2.82568,2.82568 3.99665,2.14902 7.17075,-4.14374 z m 10.26675,-23.66812 c -6.20534,-0.86454 -8.10005,-6.17811 -5.40752,-15.16499 0.8515,-2.84205 0.78014,-4.41175 -0.32349,-7.11602 l -1.41599,-3.46963 -3.82827,5.76535 c -2.43778,3.67129 -4.11978,7.60946 -4.63086,10.84255 -0.90597,5.73114 -2.2795,7.8921 -5.0163,7.8921 -2.28413,0 -2.42567,-2.42543 -0.3714,-6.36431 2.08246,-3.99293 1.8978,-4.63569 -1.33185,-4.63569 -3.31735,0 -6.32919,2.91385 -8.52743,8.25 -1.83597,4.45674 -3.64688,4.89287 -3.64688,0.8783 0,-1.75658 1.93372,-5.83385 4.97981,-10.5 2.7389,-4.19556 4.74155,-7.6283 4.45034,-7.6283 -0.29121,0 -1.83183,0.67348 -3.42361,1.49662 -3.10216,1.60418 -6.57858,0.9289 -8.76203,-1.702 -0.98182,-1.18303 -0.40396,-1.42545 3.5411,-1.4855 2.71918,-0.0414 7.41529,-1.20889 11.09622,-2.75862 4.17232,-1.7566 6.72149,-2.34718 7.36287,-1.7058 1.2179,1.2179 0.12467,3.1553 -1.78046,3.1553 -1.53743,0 -9.85912,9.93845 -9.02234,10.77523 0.28037,0.28038 1.16843,-0.0369 1.97346,-0.70499 0.80503,-0.66811 2.72841,-1.06974 4.27417,-0.8925 2.51588,0.28848 3.38082,-0.5163 8.2517,-7.67774 l 5.44124,-8 0.61946,-10 c 0.56126,-9.06055 0.43297,-10.21138 -1.36555,-12.25 l -1.98501,-2.25 3.13913,0 c 3.94043,0 5.5977,2.74277 4.73668,7.83914 -0.61172,3.62074 -0.54354,3.71705 3.66383,5.17513 5.92022,2.05168 5.94969,4.11253 0.11557,8.08276 -2.64362,1.79904 -5.13719,3.75067 -5.54127,4.33697 -1.23509,1.79207 -0.84954,6.00073 0.76028,8.29907 1.38395,1.97586 1.33565,2.74191 -0.52011,8.25067 -2.36036,7.00661 -1.69155,9.48703 2.82554,10.47915 3.77764,0.8297 13.78468,-2.48405 13.35648,-4.42291 -0.17188,-0.77824 -0.56844,-2.69467 -0.88125,-4.25873 l -0.56875,-2.84375 3.74273,3.74273 c 2.80484,2.80484 3.50959,4.12828 2.81235,5.28125 -2.12433,3.51284 -11.86495,6.25432 -18.79258,5.28916 z m 2.5,-38.83047 c 0,-1.54393 -3.4168,-3.67004 -4.36852,-2.71832 -0.34731,0.34732 -0.63148,2.14186 -0.63148,3.98787 0,3.3503 0.005,3.35341 2.5,1.71832 1.375,-0.90093 2.5,-2.24547 2.5,-2.98787 z m 1.10856,23.68607 c 3.06344,-2.81672 3.22219,-3.21925 1.64144,-4.16196 -2.14315,-1.27813 -2.21163,-3.1509 -0.25367,-6.93719 0.94381,-1.82512 1.12844,-3.12096 0.5,-3.50936 -1.84761,-1.14188 -1.01434,-2.49773 1.53505,-2.49773 3.17866,0 4.13283,2.32869 2.38217,5.81377 -0.74216,1.47743 -1.51382,3.02373 -1.7148,3.43623 -0.20098,0.4125 0.48208,0.75 1.51792,0.75 2.20344,0 4.28333,1.82394 4.28333,3.75623 0,1.26144 -5.33661,4.07838 -10.89144,5.74907 -2.10864,0.6342 -1.99038,0.3505 1,-2.39906 z m -28.85856,-12.80157 c 2.36502,-2.65173 2.25391,-2.93512 -1.5,-3.8257 -3.10476,-0.73657 -3.0042,-0.80371 2.25,-1.50238 3.025,-0.40225 5.95,-0.89904 6.5,-1.10398 0.55,-0.20493 1.225,0.0199 1.5,0.49953 0.275,0.47967 -1.975,2.45221 -5,4.38341 -3.15221,2.01241 -4.75298,2.67369 -3.75,1.54912 z m 1.67535,-8.71472 c 0.95187,-1.14693 0.61441,-1.53212 -1.80846,-2.06428 -5.33687,-1.17217 -5.49761,-3.0037 -0.28184,-3.21174 2.56573,-0.10234 5.74441,-0.32734 7.06375,-0.5 3.87942,-0.5077 3.47233,1.6747 -0.84537,4.53202 -4.4481,2.94361 -5.90233,3.38185 -4.12807,1.244 z m 3.11444,-12.1323 c 2.02554,-2.15609 2.20266,-2.83977 1.16583,-4.5 -1.04239,-1.66914 -0.95936,-1.95765 0.5634,-1.95765 2.39156,0 6.23098,2.77282 6.23098,4.5 0,2.05232 -4.02334,4.5 -7.39682,4.5 l -2.95181,0 2.38842,-2.54235 z"
         id="path3002"
         inkscape:connector-curvature="0" />
      <path
         style="fill:#fe2f2f"
         d="m 431.88528,805.21479 c 0.33054,-2.0625 3.95221,-25.96962 8.04817,-53.12694 4.09596,-27.15731 7.57757,-49.49333 7.73692,-49.6356 0.15935,-0.14226 7.37872,-2.15359 16.04303,-4.46962 l 15.75331,-4.21095 15.94944,4.24318 c 14.94082,3.97484 15.98361,4.40781 16.48972,6.84655 0.53131,2.56014 15.55423,102.62321 15.55423,103.60193 0,0.2758 -21.63955,0.50145 -48.0879,0.50145 l -48.0879,0 0.60099,-3.75 z m 93.19322,-1 c -0.29729,-1.5125 -3.75652,-24.575 -7.68719,-51.25 -3.93068,-26.675 -7.58963,-48.77716 -8.131,-49.11591 -0.54138,-0.33875 -7.48595,-2.30406 -15.43238,-4.36734 l -14.44807,-3.75143 -14.52347,3.84762 c -7.98791,2.1162 -14.87666,4.0815 -15.30833,4.36734 -0.43167,0.28585 -4.01686,22.34472 -7.96709,49.01972 -3.95023,26.675 -7.42918,49.7375 -7.73101,51.25 l -0.54877,2.75 46.15891,0 46.15891,0 -0.54051,-2.75 z m -54.29372,-5.8615 c -1.74643,-0.86128 -3.87046,-2.3341 -4.7201,-3.27294 -1.43236,-1.58273 -1.29223,-1.67749 1.9253,-1.30186 4.05484,0.47337 4.19357,0.0838 1.34329,-3.77137 -4.66229,-6.30609 0.59373,-14.52472 8.86807,-13.86663 4.05985,0.32289 4.31664,0.17892 5.3692,-3.01036 1.6924,-5.12804 0.1127,-5.86352 -6.60959,-3.07729 -5.1359,2.12871 -5.88168,2.20798 -8.24363,0.8762 -4.1142,-2.31979 -4.18666,-4.32803 -0.13463,-3.73107 1.85757,0.27366 5.12148,-0.11685 7.25313,-0.86781 2.13165,-0.75095 5.40379,-1.36537 7.27143,-1.36537 4.40999,0 6.21011,3.30012 4.62225,8.47385 -0.83552,2.72238 -0.76447,3.70032 0.33514,4.61292 0.76751,0.63697 1.39545,1.60076 1.39545,2.14177 0,2.17181 -6.17938,8.5887 -10.45511,10.85697 -2.49969,1.32608 -4.54489,2.74933 -4.54489,3.16277 0,1.1385 3.94561,0.90084 7.72334,-0.4652 5.81288,-2.10196 9.63018,1.94851 4.3901,4.65826 -3.85086,1.99135 -11.69696,1.9651 -15.78875,-0.0528 z m 7.02932,-11.6385 c 1.34107,-2.3375 2.76135,-5.32863 3.15618,-6.64696 0.69682,-2.32668 0.59021,-2.37984 -3.63594,-1.813 -7.03482,0.94357 -10.08307,6.50114 -5.87425,10.70996 2.82607,2.82607 3.59874,2.55246 6.35401,-2.25 z m 11.64599,-25.57818 c -5.93719,-0.5567 -7.34993,-2.66396 -6.48416,-9.67182 0.97229,-7.87018 0.90512,-12.92538 -0.19792,-14.89641 -0.72225,-1.29057 -1.61283,-0.50652 -4.63175,4.07766 -2.05567,3.1215 -3.96134,6.8327 -4.23482,8.2471 -1.39956,7.23844 -2.99433,10.57776 -5.20134,10.8912 -2.66509,0.3785 -2.9646,-1.94551 -0.75,-5.81955 2.82772,-4.94657 0.93498,-6.83537 -4.30604,-4.29708 -2.12576,1.02953 -3.84123,3.08973 -5.34698,6.42145 -1.34273,2.97102 -2.57833,4.54429 -3.13318,3.98944 -1.55489,-1.55489 0.17563,-6.32413 4.7549,-13.10431 2.41099,-3.56978 4.23039,-6.64374 4.0431,-6.83102 -0.18728,-0.18729 -1.24947,0.14594 -2.36042,0.7405 -3.18998,1.70722 -7.66295,1.27822 -9.65802,-0.9263 -1.78603,-1.97355 -1.76606,-1.99722 1.18718,-1.40657 2.02884,0.40577 5.8103,-0.37802 11.6507,-2.41486 4.8026,-1.67491 8.9003,-2.60562 9.21685,-2.09343 0.78275,1.2665 -0.37319,2.92218 -2.04016,2.92218 -0.75572,0 -3.07177,2.1375 -5.14678,4.75 -6.25567,7.87608 -6.19227,7.73024 -2.54036,5.84224 1.82644,-0.94425 4.35278,-1.58158 5.61409,-1.4163 1.8772,0.246 3.28651,-1.1581 7.76726,-7.7385 l 5.47396,-8.03903 0.60126,-10.61753 c 0.57385,-10.13346 0.50145,-10.68724 -1.58805,-12.14675 l -2.18931,-1.52923 2.67857,-0.0525 c 4.2457,-0.0831 6.02197,2.42747 5.26916,7.44754 l -0.6402,4.26919 4.34623,1.44828 c 6.15061,2.04954 6.01397,3.98678 -0.59049,8.3719 -4.78306,3.17577 -5.56327,4.13359 -5.56327,6.82971 0,1.72476 0.65525,4.07142 1.45611,5.21481 1.29499,1.84885 1.21964,2.80621 -0.68096,8.65199 -2.4443,7.51804 -1.84226,9.23571 3.59459,10.25567 3.39538,0.63698 13.22586,-2.47705 13.00848,-4.12073 -0.067,-0.50645 -0.43112,-2.27081 -0.8092,-3.92081 l -0.68741,-3 3.6848,3.64227 c 2.03507,2.01158 3.37631,4.14139 2.99578,4.75711 -2.0084,3.24966 -11.47078,5.93737 -18.56219,5.27244 z m 1.71897,-37.88184 c 0.56727,-1.47828 -1.99545,-4.28998 -3.9101,-4.28998 -0.44488,0 -0.80887,1.81583 -0.80887,4.03518 0,3.76226 0.1391,3.96074 2.0565,2.93459 1.13106,-0.60533 2.32917,-1.81124 2.66247,-2.67979 z m 2.35042,22.13616 c 2.22965,-2.37335 2.28218,-2.64989 0.67431,-3.54969 -2.15567,-1.20638 -2.20423,-3.0852 -0.18087,-6.99794 1.21861,-2.35653 1.30176,-3.33674 0.37755,-4.45034 -0.97644,-1.17654 -0.71768,-1.42817 1.46856,-1.42817 3.47902,0 4.33551,2.46975 2.14339,6.1807 -0.96096,1.62677 -1.59085,3.0605 -1.39976,3.18605 0.19108,0.12556 1.58493,0.75976 3.09743,1.40933 3.96122,1.70122 3.40358,4.02503 -1.5,6.25085 -6.04224,2.74267 -7.63015,2.53885 -4.68061,-0.60079 z m -29.31939,-12.4661 c 1.88828,-2.05451 1.54772,-2.6505 -1.90972,-3.34198 -4.33015,-0.86603 -3.48884,-1.23233 4.65972,-2.02884 6.01302,-0.58776 6.7885,-0.48778 5.5,0.70908 -2.15116,1.99815 -9.74649,6.28996 -8.25,4.66174 z m 1.4937,-8.14312 c 0.48498,-1.27108 -0.0613,-1.83759 -2.23167,-2.31428 -1.58061,-0.34716 -3.3329,-1.18434 -3.89398,-1.8604 -0.78221,-0.94251 -0.20999,-1.13463 2.45334,-0.8237 1.91042,0.22303 4.83843,-0.15986 6.50668,-0.85088 2.44172,-1.01139 3.2661,-1.00886 4.22757,0.013 0.92792,0.9862 0.90727,1.37436 -0.0926,1.74001 -0.70783,0.25886 -2.70998,1.66511 -4.44924,3.125 -2.18187,1.83142 -2.96319,2.13255 -2.52011,0.97128 z m 2.7204,-12.21737 c 2.09308,-2.28008 2.28003,-2.97901 1.24153,-4.6419 -1.38783,-2.22226 -0.42484,-2.47029 3.19231,-0.8222 5.17675,2.35868 3.57066,6.52683 -2.90121,7.52928 l -3.99672,0.61907 2.4641,-2.68425 z"
         id="path3000"
         inkscape:connector-curvature="0" />
      <path
         style="fill:#fe0303"
         d="m 432.01269,805.21479 c 0.27644,-1.5125 3.88716,-25.23448 8.02385,-52.71551 4.13668,-27.48104 7.61176,-50.01776 7.7224,-50.08161 0.11063,-0.0639 7.31651,-2.00832 16.01305,-4.32104 l 15.81191,-4.20494 15.68809,4.2065 c 8.62847,2.31357 15.80822,4.28763 15.95502,4.3868 0.1468,0.0992 3.62284,22.63519 7.72451,50.08005 4.10167,27.44486 7.6828,51.13725 7.95808,52.64975 l 0.5005,2.75 -47.95001,0 -47.95,0 0.5026,-2.75 z m 93.44741,1.22298 c 0,-2.98525 -15.25171,-102.10427 -15.78386,-102.57739 -0.39388,-0.35019 -7.35365,-2.34106 -15.46615,-4.42414 l -14.75,-3.78743 -14.75,3.78743 c -8.1125,2.08308 -15.05088,4.06668 -15.41862,4.40799 -0.36774,0.34131 -3.87529,22.22056 -7.79454,48.62056 -3.91926,26.4 -7.38097,49.4625 -7.69268,51.25 l -0.56674,3.25 46.1113,0 c 25.36121,0 46.11129,-0.23716 46.11129,-0.52702 z m -54.62664,-8.39082 c -5.65796,-2.56929 -6.37411,-4.08216 -1.93239,-4.08216 4.14827,0 4.37709,-0.51698 1.32333,-2.98977 -3.38977,-2.74488 -2.96542,-9.58033 0.79562,-12.81544 2.31777,-1.99366 3.56913,-2.32763 7.19157,-1.91933 3.94973,0.44519 4.4781,0.25085 5.31702,-1.95567 2.34391,-6.16496 -0.0834,-7.59146 -7.22539,-4.24631 -4.55934,2.13547 -5.23807,2.21463 -7.59478,0.88578 -1.4234,-0.80259 -2.79438,-2.08269 -3.04664,-2.84465 -0.35936,-1.0855 0.3154,-1.24018 3.11715,-0.71457 2.336,0.43824 4.84989,0.13846 7.25058,-0.86461 2.02115,-0.84449 5.20599,-1.53543 7.07743,-1.53543 4.19898,0 5.91728,3.29728 4.46303,8.56414 -0.6998,2.53452 -0.58268,3.62852 0.48318,4.51311 0.77381,0.6422 1.40692,1.58182 1.40692,2.08804 0,1.70445 -9.04891,10.61233 -12.03814,11.85051 -1.62902,0.67476 -2.96186,1.62225 -2.96186,2.10552 0,1.2542 4.45115,1.08587 7.45295,-0.28184 1.91285,-0.87155 3.16953,-0.87689 5.04705,-0.0214 3.43128,1.56339 3.13356,3.01929 -0.96788,4.73298 -4.68881,1.95911 -10.18646,1.78906 -15.15875,-0.46887 z m 7.85327,-12.59465 c 3.57706,-6.54307 3.50241,-7.48751 -0.59178,-7.48751 -6.89264,0 -11.03739,6.68775 -6.94637,11.20828 2.52705,2.79236 4.5135,1.81186 7.53815,-3.72077 z m 5.77336,-26.48751 c -2.21738,-2.21738 -2.52647,-5.73027 -0.96846,-11.0066 1.06926,-3.62114 0.35964,-12.9934 -0.9838,-12.9934 -0.90793,0 -7.08678,9.30741 -8.82742,13.29705 -0.67116,1.53838 -1.22032,3.93047 -1.22032,5.31574 0,3.60819 -1.75568,6.38721 -4.03518,6.38721 -2.38824,0 -2.43156,-0.79304 -0.33011,-6.04506 2.19358,-5.48228 0.8177,-7.01797 -4.16065,-4.64396 -2.55543,1.2186 -4.08468,2.94772 -5.47447,6.18998 -1.89678,4.425 -3.99959,5.98082 -3.99959,2.9592 0,-2.19334 3.74873,-9.30269 7.25363,-13.75627 3.20187,-4.06855 3.16234,-5.53206 -0.10224,-3.78491 -2.9987,1.60485 -6.64279,1.31344 -9.17046,-0.73334 l -2.24064,-1.81436 3.41494,0.39868 c 1.97968,0.23111 5.92193,-0.52598 9.37986,-1.80138 7.30225,-2.6933 11.46491,-3.50754 11.46491,-2.24259 0,0.52414 -1.09673,1.45268 -2.43717,2.06343 -2.47885,1.12944 -11.00021,11.10653 -10.18353,11.92321 0.24594,0.24595 1.60794,-0.31339 3.02665,-1.24296 1.59186,-1.04303 3.50712,-1.45732 5.00231,-1.08205 2.09858,0.52671 2.85359,-0.0942 5.64154,-4.63976 1.7703,-2.88633 4.21909,-6.44358 5.44177,-7.90501 1.86329,-2.22714 2.3401,-4.40451 2.94632,-13.45449 0.61932,-9.24551 0.4961,-10.96346 -0.85731,-11.9531 -2.11918,-1.54958 -1.99262,-2.43526 0.34799,-2.43526 3.52735,0 5.22512,2.79228 4.52727,7.44588 l -0.63209,4.21509 4.6376,1.77112 c 2.55067,0.97411 4.47159,2.28789 4.26871,2.91951 -0.20289,0.63162 -2.70015,2.89913 -5.54947,5.03892 -4.58658,3.44444 -5.17693,4.30437 -5.14878,7.5 0.0175,1.98521 0.64908,4.42361 1.40352,5.41866 1.17654,1.55177 1.10087,2.57973 -0.53181,7.22501 -2.42717,6.90574 -2.3916,8.01053 0.319,9.90911 2.96303,2.07539 7.35519,1.93144 12.51351,-0.41012 3.95488,-1.79526 4.19454,-2.13035 3.61086,-5.04875 l -0.62518,-3.12586 3.25729,2.97506 c 1.96673,1.79634 2.96349,3.45042 2.51576,4.17484 -2.88982,4.67586 -19.67341,6.81287 -23.49476,2.99153 z m 5.94789,-38.24329 c -3.29228,-2.66592 -3.94789,-2.17929 -3.94789,2.93038 l 0,4.68709 3.05866,-2.93038 3.05867,-2.93038 -2.16944,-1.75671 z m 3.54096,24.84201 2.98883,-2.39134 -2.37241,-1.92106 c -2.34965,-1.90263 -2.35562,-1.95647 -0.6218,-5.61021 1.40957,-2.97046 1.50914,-3.98009 0.51113,-5.18263 -1.0464,-1.26083 -0.82608,-1.49348 1.41435,-1.49348 3.48534,0 4.33455,2.47136 2.13101,6.20165 -1.84596,3.12497 -1.35851,4.36647 1.94857,4.96277 3.95572,0.71325 2.80748,3.46196 -2.37809,5.69273 -6.4232,2.76319 -7.31835,2.69931 -3.62159,-0.25843 z M 464.74555,732.2263 c 1.7406,-1.94717 1.70293,-2.01676 -1.5,-2.77106 -3.02372,-0.71208 -2.77122,-0.83906 3.16939,-1.59391 3.55017,-0.4511 6.6102,-0.66483 6.80008,-0.47495 0.18988,0.18988 -2.0398,1.80594 -4.95484,3.59124 -3.55339,2.17625 -4.71167,2.58777 -3.51463,1.24868 z m 2.03905,-7.97756 c 0.33551,-0.54285 -1.28777,-1.58735 -3.60726,-2.3211 l -4.21725,-1.33411 5,-0.70159 c 2.75,-0.38587 5.61875,-0.86484 6.375,-1.06437 2.71154,-0.71541 2.09775,1.78125 -1.00118,4.07239 -1.73762,1.28467 -2.88481,1.89163 -2.54931,1.34878 z m 2.3239,-11.84145 c 2.45523,-2.45523 2.4872,-2.63517 0.79955,-4.5 -2.23109,-2.46533 -0.007,-2.72301 3.32953,-0.3858 4.35891,3.05311 1.52947,7.4433 -4.79713,7.4433 -1.67846,0 -1.60386,-0.2856 0.66805,-2.5575 z"
         id="path2998"
         inkscape:connector-curvature="0" />
    </g>
  </g>
</svg>
