<svg xmlns="http://www.w3.org/2000/svg" width="42.065" height="50">
<!--
Created by Hari Seldon and modified by orangain, licensed under Creative Commons Attribution-Share Alike 3.0 Unported.
See: https://creativecommons.org/licenses/by-sa/3.0/deed.en

Original file is available at: https://commons.wikimedia.org/wiki/File:Shogi_narikyo(svg).svg
-->
    <path d="M7.845 4.148l-7.084 45.575 40.616 -0.354 -7.084 -44.867 -12.87 -3.778z" fill="#FEEC99"/>
    <path d="M0.114 49.65c-0.013 -1.37 6.75 -45.316 7.02 -45.618 0.187 -0.21 3.375 -1.204 7.083 -2.207l6.742 -1.825 6.93 1.832c3.812 1.007 7.012 1.912 7.11 2.011 0.1 0.099 1.649 10.051 3.444 22.116 1.796 12.066 3.345 22.41 3.443 22.989l0.18 1.052 -20.975 0c-11.536 0 -20.976 -0.158 -20.977 -0.35zm40.21 -1.39c0 -0.525 -6.063 -41.387 -6.299 -42.45 -0.172 -0.779 -1.322 -1.24 -6.571 -2.64l-6.363 -1.696 -6.396 1.666c-3.518 0.917 -6.428 1.684 -6.467 1.705 -0.04 0.02 -1.465 9.505 -3.168 21.077 -1.704 11.571 -3.177 21.407 -3.275 21.857 -0.167 0.77 0.988 0.818 19.18 0.818 10.648 0 19.36 -0.152 19.36 -0.337zm-21.74 -7.92c-2.443 -1.327 -2.785 -2.496 -0.728 -2.496 2.044 0 2.104 -0.657 0.275 -3.052 -1.937 -2.538 -2.286 -5.579 -0.795 -6.927 1.175 -1.064 1.723 -0.976 2.85 0.458l0.97 1.232 0 -3.075c0 -1.69 -0.168 -3.178 -0.372 -3.304 -0.205 -0.127 -1.94 0.71 -3.857 1.858 -2.78 1.666 -3.517 1.94 -3.64 1.35 -0.196 -0.93 0.744 -2.107 1.475 -1.847 0.302 0.107 1.184 -0.379 1.959 -1.08 0.775 -0.702 1.206 -1.118 0.958 -0.925 -0.248 0.193 -0.661 0.351 -0.92 0.351 -0.257 0 0.31 -0.798 1.263 -1.773 2.047 -2.096 2.123 -2.435 0.548 -2.435 -1.705 0 -1.875 -1.08 -0.491 -3.116 1.392 -2.05 1.498 -2.75 0.476 -3.142 -1.108 -0.425 -0.326 -1.222 1.2 -1.222 0.863 0 1.61 0.373 2.076 1.039 0.966 1.38 0.939 1.524 -0.558 2.97l-1.286 1.242 1.462 -0.265c0.935 -0.17 1.778 -0.016 2.338 0.426 0.845 0.667 0.835 0.719 -0.278 1.496 -0.635 0.443 -1.686 1.281 -2.338 1.862l-1.184 1.055 1.316 -0.47c2.234 -0.8 5.217 -0.584 6.149 0.445 1.115 1.232 0.666 2.145 -1.386 2.823 -1.815 0.599 -2.872 0.233 -1.517 -0.526 1.335 -0.747 0.93 -1.344 -0.911 -1.344 -1.53 0 -1.631 0.069 -0.896 0.607 0.76 0.556 0.783 0.927 0.272 4.425 -0.414 2.83 -0.424 4.204 -0.04 5.307 0.286 0.819 0.52 1.937 0.52 2.484 0 1.02 -1.611 2.735 -2.732 2.907 -0.767 0.117 -1.244 0.554 -0.939 0.86 0.124 0.124 0.944 0.02 1.82 -0.232 2.271 -0.651 3.34 -0.201 3.164 1.331 -0.133 1.147 -0.33 1.255 -2.482 1.356 -1.463 0.068 -2.863 -0.176 -3.74 -0.653zm1.166 -9.046c-0.547 -0.769 -1.219 -1.398 -1.492 -1.398 -0.805 0 -0.079 3.122 1.116 4.797l1.08 1.515 0.146 -1.758c0.1 -1.22 -0.16 -2.186 -0.85 -3.156z" fill="#fed1d1"/>
    <path d="M0.244 48.714c0.134 -0.707 1.67 -10.963 3.415 -22.792 1.745 -11.829 3.308 -21.67 3.475 -21.87 0.167 -0.2 3.371 -1.173 7.122 -2.16l6.818 -1.797 6.937 1.858c3.816 1.022 6.972 1.889 7.014 1.926 0.15 0.135 6.702 44.347 6.702 45.225 0 0.87 -0.617 0.896 -20.863 0.896l-20.864 0 0.244 -1.286zm40.061 -0.935c-0.01 -0.45 -1.437 -10.286 -3.17 -21.857l-3.151 -21.04 -6.494 -1.742 -6.493 -1.742 -6.35 1.694c-3.491 0.932 -6.397 1.73 -6.456 1.772 -0.06 0.043 -1.48 9.322 -3.158 20.62 -1.678 11.298 -3.172 21.12 -3.32 21.828l-0.268 1.285 19.44 0c18.21 0 19.439 -0.051 19.42 -0.818zm-22.002 -7.733c-1.637 -1.103 -1.749 -1.879 -0.286 -1.987 1.794 -0.132 1.893 -1.01 0.334 -2.95 -1.9 -2.365 -2.441 -5.677 -1.159 -7.095 1.079 -1.192 1.428 -1.164 2.816 0.224l1.148 1.148 0 -2.99c0 -1.645 -0.18 -3.102 -0.402 -3.239 -0.22 -0.136 -1.787 0.588 -3.48 1.61 -3.877 2.337 -4.658 2.433 -3.591 0.44 0.26 -0.487 0.767 -0.774 1.124 -0.637 0.357 0.137 1.354 -0.41 2.214 -1.217 1.333 -1.249 1.391 -1.384 0.395 -0.911 -0.888 0.42 -0.669 0.034 0.915 -1.607 1.992 -2.063 2.032 -2.16 0.912 -2.16 -2.14 0 -2.392 -0.855 -0.993 -3.377 1.235 -2.224 1.245 -2.305 0.38 -2.949 -0.84 -0.623 -0.843 -0.68 -0.063 -0.979 0.456 -0.174 1.382 -0.124 2.06 0.113 1.555 0.544 1.93 2.596 0.644 3.524 -1.647 1.187 -1.493 1.57 0.565 1.406 2.516 -0.2 3.25 0.944 1.29 2.012 -0.697 0.38 -2.005 1.326 -2.905 2.101l-1.637 1.41 1.965 -0.93c2.483 -1.173 5.309 -1.201 6.711 -0.066 1.398 1.132 0.97 2.092 -1.237 2.769 -1.91 0.586 -2.81 0.332 -1.474 -0.417 1.322 -0.74 0.937 -1.344 -0.855 -1.344 -1.557 0 -1.617 0.052 -0.892 0.778 0.555 0.555 0.692 1.191 0.477 2.22 -0.726 3.484 -0.81 5.997 -0.267 7.94 0.518 1.848 0.486 2.21 -0.286 3.27 -0.478 0.655 -1.211 1.198 -1.63 1.206 -0.418 0.008 -1.007 0.311 -1.308 0.674 -0.463 0.558 -0.117 0.62 2.28 0.402 2.575 -0.233 2.828 -0.175 2.828 0.65 0 1.404 -0.944 2.029 -3.063 2.029 -1.25 0 -2.508 -0.382 -3.53 -1.07zm2.853 -5.485c0 -1.398 -2.086 -5.133 -2.867 -5.133 -0.584 0 -0.5 2.685 0.122 3.888 0.694 1.345 1.856 2.658 2.35 2.658 0.217 0 0.395 -0.636 0.395 -1.413z" fill="#feb0b0"/>
    <path d="M0.347 48.48c0.15 -0.835 1.705 -11.147 3.455 -22.914 1.751 -11.768 3.27 -21.482 3.375 -21.587 0.105 -0.105 3.26 -1.009 7.013 -2.007l6.821 -1.816 7.086 1.85c3.897 1.018 7.085 2.085 7.085 2.37 0 0.286 1.473 10.358 3.273 22.381 1.8 12.024 3.272 22.172 3.272 22.552 0 0.6 -2.767 0.691 -20.826 0.691l-20.826 0 0.272 -1.52zm39.978 -0.435c0 -1.726 -6.174 -42.674 -6.486 -43.019 -0.161 -0.178 -3.086 -1.08 -6.498 -2.003l-6.205 -1.68 -6.527 1.72c-6.466 1.703 -6.529 1.732 -6.777 3.172 -0.32 1.851 -6.313 42.3 -6.313 42.603 0 0.125 8.732 0.227 19.403 0.227l19.403 0 0 -1.02zm-21.273 -7.576c-0.772 -0.336 -1.692 -0.96 -2.044 -1.384 -0.568 -0.684 -0.508 -0.773 0.512 -0.773 0.634 0 1.53 -0.417 1.99 -0.926 0.772 -0.851 0.776 -0.949 0.06 -1.223 -1.138 -0.437 -3.09 -4.02 -3.09 -5.672 0 -1.847 1.356 -3.568 2.473 -3.14 0.456 0.175 1.13 0.872 1.497 1.548 0.633 1.165 0.67 1.05 0.687 -2.131 0.01 -1.85 -0.197 -3.496 -0.46 -3.658 -0.264 -0.163 -1.836 0.56 -3.495 1.608 -3.779 2.387 -4.575 2.498 -3.5 0.49 0.288 -0.538 0.76 -0.778 1.2 -0.61 0.444 0.17 1.303 -0.28 2.214 -1.16 3.176 -3.067 8.276 -4.288 10.138 -2.425 1.518 1.518 1.287 1.839 -2.045 2.838 -1.326 0.397 -1.333 0.39 -0.486 -0.545 1.028 -1.137 0.338 -1.813 -1.493 -1.463 -1.041 0.2 -1.088 0.3 -0.464 0.988 0.595 0.659 0.612 1.294 0.118 4.489 -0.48 3.102 -0.465 4.058 0.09 5.74 0.633 1.927 0.614 2.073 -0.415 3.168 -0.593 0.632 -1.332 1.149 -1.641 1.149 -0.31 0 -0.829 0.32 -1.155 0.713 -0.523 0.63 -0.286 0.677 2.037 0.404 2.195 -0.258 2.678 -0.182 2.925 0.462 0.744 1.937 -2.616 2.837 -5.653 1.513zm2.104 -5.99c0 -1.456 -2.041 -5.05 -2.869 -5.05 -0.582 0 -0.497 2.686 0.124 3.887 0.694 1.345 1.856 2.658 2.35 2.658 0.217 0 0.395 -0.672 0.395 -1.494zm-2.825 -13.615c2.027 -2.128 2.051 -2.189 0.876 -2.189 -2.11 0 -2.35 -0.953 -0.85 -3.364 1.159 -1.861 1.254 -2.25 0.672 -2.733 -1.006 -0.835 -0.825 -1.383 0.457 -1.383 2.49 0 3.454 2.695 1.436 4.017 -1.683 1.103 -1.441 1.54 0.693 1.254 1.51 -0.202 1.923 -0.089 2.188 0.601 0.198 0.516 0.098 0.927 -0.252 1.044 -0.319 0.106 -1.482 0.882 -2.585 1.724 -1.103 0.842 -2.616 1.91 -3.362 2.374 -1.086 0.675 -0.94 0.406 0.727 -1.345z" fill="#fe9090"/>
    <path d="M0.375 48.714c0.13 -0.707 1.69 -11.04 3.47 -22.961 1.778 -11.922 3.298 -21.736 3.376 -21.809 0.302 -0.28 12.933 -3.503 13.762 -3.511 1.595 -0.016 13.817 3.427 13.997 3.943 0.197 0.564 6.747 44.398 6.747 45.15 0 0.313 -7.048 0.474 -20.793 0.474l-20.794 0 0.235 -1.286zm40.016 0.129c0.122 -0.122 -1.204 -9.748 -2.947 -21.39 -1.743 -11.642 -3.176 -21.507 -3.183 -21.921 -0.01 -0.574 -1.606 -1.17 -6.684 -2.499l-6.67 -1.744 -6.289 1.704c-3.46 0.937 -6.373 1.788 -6.475 1.89 -0.182 0.182 -6.595 42.453 -6.614 43.598 -0.007 0.458 4.162 0.584 19.315 0.584 10.629 0 19.425 -0.1 19.547 -0.222zm-21.545 -8.545c-1.842 -0.936 -2.41 -1.986 -1.074 -1.986 0.496 0 1.25 -0.385 1.674 -0.855 0.725 -0.8 0.697 -0.924 -0.455 -1.987 -2.41 -2.221 -3.163 -5.6 -1.664 -7.451 0.747 -0.923 0.965 -0.973 1.841 -0.426 0.547 0.342 1.203 1.052 1.46 1.579 0.356 0.734 0.472 0.172 0.496 -2.404 0.018 -1.85 -0.176 -3.49 -0.43 -3.648 -0.254 -0.157 -1.944 0.595 -3.756 1.671 -1.811 1.077 -3.406 1.844 -3.544 1.706 -0.456 -0.455 0.903 -2.123 1.532 -1.881 0.34 0.13 1.393 -0.445 2.341 -1.277 3.627 -3.185 8.105 -4.188 10.042 -2.251l1.01 1.01 -1.062 0.86c-0.584 0.473 -1.485 0.86 -2.002 0.86 -0.795 0 -0.848 -0.112 -0.342 -0.721 0.839 -1.011 -0.036 -1.747 -1.607 -1.353 -1.12 0.282 -1.185 0.4 -0.587 1.078 0.58 0.657 0.584 1.306 0.035 4.704 -0.351 2.167 -0.463 4.166 -0.249 4.441 0.214 0.275 0.514 1.158 0.666 1.96 0.215 1.138 0.042 1.68 -0.783 2.455 -0.582 0.547 -1.282 0.995 -1.556 0.995 -0.273 0 -0.763 0.32 -1.089 0.713 -0.523 0.63 -0.286 0.677 2.037 0.404 2.195 -0.258 2.678 -0.182 2.925 0.462 0.788 2.052 -2.83 2.88 -5.859 1.342zm2.31 -5.852c0 -1.531 -1.96 -5.018 -2.822 -5.018 -0.62 0 -0.568 2.64 0.077 3.888 0.694 1.345 1.856 2.658 2.35 2.658 0.217 0 0.395 -0.688 0.395 -1.528zm-2.547 -13.783l1.804 -1.752 -1.376 -0.238c-1.834 -0.318 -1.952 -1.388 -0.41 -3.72 1.203 -1.817 1.225 -1.947 0.425 -2.532 -0.615 -0.45 -0.69 -0.71 -0.278 -0.965 1.054 -0.652 2.822 0.166 3.145 1.455 0.25 0.993 0.068 1.41 -0.928 2.135 -1.726 1.258 -1.545 1.711 0.572 1.427 2.24 -0.3 3.056 0.61 1.526 1.701 -0.567 0.404 -2.019 1.524 -3.227 2.488 -2.83 2.26 -3.58 2.261 -1.253 0.001z" fill="#fe7070"/>
    <path d="M0.427 48.948c0.1 -0.579 1.65 -10.924 3.445 -22.99 1.794 -12.065 3.314 -21.972 3.377 -22.014 0.063 -0.042 3.165 -0.885 6.894 -1.873l6.78 -1.796 6.778 1.756c3.729 0.965 6.91 1.897 7.068 2.07 0.16 0.173 1.69 9.789 3.403 21.369 1.713 11.58 3.24 21.836 3.396 22.792l0.282 1.738 -20.802 0 -20.801 0 0.18 -1.052zm40.217 -0.935c-0.137 -0.579 -1.652 -10.52 -3.367 -22.091 -1.715 -11.572 -3.158 -21.08 -3.206 -21.132 -0.048 -0.05 -2.921 -0.869 -6.384 -1.817l-6.297 -1.725 -6.21 1.566c-3.416 0.861 -6.453 1.715 -6.75 1.898 -0.442 0.274 -6.849 40.713 -6.897 43.535 -0.013 0.766 1.23 0.818 19.674 0.818l19.687 0 -0.25 -1.052zm-21.709 -7.819c-2.06 -0.935 -2.626 -1.882 -1.124 -1.882 0.474 0 1.21 -0.385 1.635 -0.855 0.725 -0.8 0.701 -0.922 -0.368 -1.926 -2.489 -2.338 -3.247 -5.664 -1.721 -7.548l0.876 -1.082 1.461 1.461 1.462 1.462 0 -3.47c0 -2.465 -0.17 -3.47 -0.584 -3.47 -0.322 0 -1.952 0.84 -3.624 1.87 -1.671 1.027 -3.192 1.869 -3.38 1.869 -0.187 0 -0.108 -0.51 0.176 -1.132 0.298 -0.654 0.782 -1.029 1.147 -0.889 0.348 0.134 1.504 -0.503 2.568 -1.414 2.019 -1.728 5.322 -3.11 7.432 -3.11 0.677 0 1.711 0.447 2.297 0.993 0.889 0.827 0.962 1.094 0.439 1.605 -0.345 0.337 -1.258 0.767 -2.03 0.955 -1.283 0.313 -1.346 0.274 -0.744 -0.457 0.888 -1.078 0.031 -1.91 -1.558 -1.51 -1.038 0.26 -1.127 0.42 -0.655 1.176 0.416 0.666 0.417 1.789 0.004 4.708 -0.362 2.561 -0.389 4.12 -0.08 4.696 0.759 1.418 0.533 3.461 -0.478 4.327 -0.518 0.443 -1.123 0.806 -1.346 0.806 -0.222 0 -0.684 0.336 -1.024 0.746 -0.56 0.675 -0.368 0.716 1.99 0.421 2.865 -0.358 3.567 0.061 2.728 1.628 -0.654 1.222 -2.838 1.23 -5.499 0.022zm2.22 -5.915c0 -1.55 -1.912 -4.85 -2.81 -4.85 -1.275 0 -0.631 3.352 1.096 5.708 1.148 1.568 1.715 1.284 1.715 -0.858zm-2.163 -13.72l1.342 -1.622 -1.46 -0.378c-1.79 -0.464 -1.83 -1.212 -0.193 -3.686 1.167 -1.763 1.204 -1.958 0.475 -2.491 -0.878 -0.642 -0.6 -1.187 0.603 -1.187 0.955 0 2.332 1.44 2.332 2.437 0 0.4 -0.526 1.072 -1.169 1.494 -1.709 1.12 -1.434 1.634 0.818 1.534 2.575 -0.115 2.556 0.583 -0.068 2.566 -3.94 2.976 -4.11 3.061 -2.68 1.333z" fill="#fe5050"/>
    <path d="M0.584 49.053c0 -1.869 6.567 -44.612 6.903 -44.931 0.19 -0.18 3.32 -1.106 6.957 -2.06l6.613 -1.732 6.849 1.809c5.647 1.492 6.886 1.973 7.065 2.744 0.12 0.514 1.588 10.192 3.262 21.507 1.674 11.314 3.169 21.255 3.321 22.09l0.278 1.52 -20.624 0c-20.397 0 -20.624 -0.01 -20.624 -0.947zm39.988 -1.508c-0.145 -0.835 -1.633 -10.768 -3.308 -22.071 -1.674 -11.304 -3.241 -20.675 -3.482 -20.824 -0.242 -0.149 -3.236 -0.984 -6.656 -1.856l-6.216 -1.586 -5.972 1.565c-3.285 0.86 -6.25 1.792 -6.588 2.071 -0.394 0.324 -1.733 8.065 -3.725 21.546 -1.71 11.571 -3.109 21.407 -3.108 21.857 0.002 0.766 1.251 0.818 19.66 0.818l19.658 0 -0.263 -1.52zm-20.378 -6.871c-2.82 -0.856 -4.34 -2.362 -2.383 -2.362 0.474 0 1.21 -0.385 1.635 -0.855 0.725 -0.8 0.7 -0.922 -0.383 -1.94 -0.636 -0.598 -1.504 -1.998 -1.93 -3.111 -1.427 -3.738 0.843 -6.426 3.054 -3.616l0.969 1.232 0 -3.57c0 -2.45 -0.175 -3.569 -0.557 -3.569 -0.307 0 -1.974 0.842 -3.705 1.87 -3.602 2.14 -3.91 2.229 -3.212 0.922 0.28 -0.521 0.713 -0.822 0.963 -0.667 0.25 0.155 1.48 -0.577 2.735 -1.627 3.567 -2.987 7.24 -4.006 9.282 -2.575 1.367 0.957 1.315 1.801 -0.151 2.47 -1.705 0.776 -2.276 0.67 -1.353 -0.254 0.749 -0.75 0.74 -0.82 -0.17 -1.227 -0.532 -0.237 -1.533 -0.29 -2.223 -0.116 -1.166 0.293 -1.196 0.36 -0.418 0.929 0.774 0.565 0.795 0.928 0.274 4.65 -0.395 2.823 -0.419 4.31 -0.08 4.943 0.762 1.423 0.57 3.22 -0.45 4.24 -0.514 0.515 -1.12 0.936 -1.345 0.936 -0.226 0 -0.69 0.336 -1.03 0.746 -0.56 0.675 -0.363 0.715 2.046 0.414 2.624 -0.328 2.667 -0.314 2.667 0.84 0 1.658 -1.516 2.122 -4.235 1.297zm0.962 -6.237c0 -1.548 -0.316 -2.374 -1.39 -3.624 -1.164 -1.358 -1.466 -1.505 -1.874 -0.917 -0.267 0.386 -0.366 1.227 -0.219 1.87 0.336 1.47 2.408 4.675 3.022 4.675 0.254 0 0.46 -0.902 0.46 -2.004zm1.403 0.107c0 -0.242 -0.21 -0.44 -0.468 -0.44 -0.257 0 -0.468 0.328 -0.468 0.729 0 0.4 0.21 0.599 0.468 0.44 0.257 -0.16 0.468 -0.487 0.468 -0.73zm-3.515 -13.922c1.165 -1.273 1.28 -1.596 0.701 -1.962 -0.381 -0.24 -1.061 -0.441 -1.511 -0.445 -1.119 -0.01 -1.031 -0.647 0.432 -3.143 1.159 -1.977 1.192 -2.177 0.454 -2.717 -1.146 -0.837 0.145 -1.256 1.614 -0.524 1.697 0.846 1.657 2.08 -0.12 3.604l-1.562 1.342 2.338 -0.103c1.472 -0.065 2.337 0.09 2.337 0.42 0 0.437 -1.987 2.119 -5.376 4.55 -0.386 0.276 -0.074 -0.184 0.693 -1.022z" fill="#fe2f2f"/>
    <path d="M0.584 49.056c0 -1.462 6.672 -44.687 6.933 -44.92 0.173 -0.154 3.28 -1.061 6.904 -2.017l6.589 -1.737 6.67 1.755c5.332 1.404 6.749 1.949 7.069 2.718 0.22 0.53 1.776 10.325 3.457 21.768 1.68 11.443 3.164 21.279 3.297 21.858l0.242 1.051 -20.58 0c-13.653 0 -20.58 -0.16 -20.58 -0.476zm40.2 -0.342c-0.029 -1.322 -6.528 -43.744 -6.732 -43.948 -0.142 -0.142 -3.131 -1.028 -6.642 -1.97l-6.384 -1.711 -6.535 1.758c-3.594 0.967 -6.582 1.822 -6.64 1.9 -0.058 0.077 -0.989 6.136 -2.067 13.465 -1.08 7.328 -2.552 17.27 -3.274 22.09l-1.312 8.767 19.797 0c10.889 0 19.794 -0.158 19.79 -0.35zm-20.503 -8.065c-0.866 -0.205 -1.989 -0.786 -2.494 -1.291 -0.914 -0.913 -0.898 -0.918 2.74 -0.852 3.16 0.058 3.683 0.185 3.827 0.932 0.295 1.534 -1.032 1.929 -4.073 1.211zm-1.393 -5.38c-1.865 -2.477 -2.518 -4.855 -1.754 -6.387 0.815 -1.635 2.027 -1.618 2.972 0.041 0.449 0.79 0.921 1.436 1.05 1.437 0.197 0.003 0.227 -3.83 0.05 -6.659 -0.067 -1.09 -1.366 -1.03 -3.089 0.143 -0.771 0.526 -2.205 1.377 -3.186 1.892l-1.782 0.937 0.52 -0.973c0.287 -0.535 0.725 -0.847 0.974 -0.693 0.249 0.154 1.523 -0.573 2.833 -1.616 1.309 -1.042 3.48 -2.242 4.825 -2.666 2.124 -0.67 2.622 -0.685 3.8 -0.12 1.773 0.849 1.953 1.967 0.428 2.662 -1.592 0.725 -1.867 0.695 -1.182 -0.13 1.09 -1.314 -0.84 -2.195 -2.998 -1.368 -0.688 0.264 -0.686 0.339 0.022 0.856 0.696 0.509 0.717 0.973 0.206 4.573 -0.414 2.914 -0.43 4.266 -0.06 4.958 0.784 1.465 0.606 3.253 -0.426 4.286 -0.514 0.514 -1.093 0.928 -1.286 0.92 -0.193 -0.008 -1.055 -0.95 -1.917 -2.094zm2.268 -0.708c0 -1.826 -1.926 -5.6 -2.858 -5.6 -0.74 0 -0.991 2.349 -0.403 3.768 0.709 1.712 2.233 3.712 2.827 3.712 0.239 0 0.434 -0.846 0.434 -1.88zm1.403 0.244c0 -0.386 -0.21 -0.701 -0.468 -0.701 -0.257 0 -0.468 0.315 -0.468 0.701 0 0.386 0.21 0.701 0.468 0.701 0.257 0 0.468 -0.315 0.468 -0.7zm-3.573 -14.123c1.472 -1.61 1.322 -2.474 -0.43 -2.474 -1.448 0 -1.44 -0.744 0.028 -2.906 1.386 -2.04 1.438 -2.502 0.351 -3.135 -0.679 -0.395 -0.562 -0.479 0.685 -0.49 1.06 -0.01 1.659 0.276 2.03 0.97 0.453 0.846 0.306 1.219 -1.035 2.634l-1.563 1.648 1.78 -0.27c1.843 -0.281 3.13 -0.027 3.13 0.617 0 0.205 -0.685 0.804 -1.52 1.333 -0.836 0.529 -2.256 1.54 -3.156 2.249l-1.637 1.287 1.337 -1.463z" fill="#fe0505"/>
</svg>
