<?xml version="1.0" encoding="UTF-8" standalone="no"?>
<!-- Created with Inkscape (http://www.inkscape.org/) -->

<svg
   xmlns:dc="http://purl.org/dc/elements/1.1/"
   xmlns:cc="http://creativecommons.org/ns#"
   xmlns:rdf="http://www.w3.org/1999/02/22-rdf-syntax-ns#"
   xmlns:svg="http://www.w3.org/2000/svg"
   xmlns="http://www.w3.org/2000/svg"
   xmlns:sodipodi="http://sodipodi.sourceforge.net/DTD/sodipodi-0.dtd"
   xmlns:inkscape="http://www.inkscape.org/namespaces/inkscape"
   width="41.988068"
   height="50"
   id="svg5584"
   version="1.1"
   inkscape:version="0.48.3.1 r9886"
   sodipodi:docname="New document 18">
  <defs
     id="defs5586" />
  <sodipodi:namedview
     id="base"
     pagecolor="#ffffff"
     bordercolor="#666666"
     borderopacity="1.0"
     inkscape:pageopacity="0.0"
     inkscape:pageshadow="2"
     inkscape:zoom="2.8"
     inkscape:cx="-21.041313"
     inkscape:cy="48.737392"
     inkscape:document-units="px"
     inkscape:current-layer="layer1"
     showgrid="false"
     fit-margin-top="0"
     fit-margin-left="0"
     fit-margin-right="0"
     fit-margin-bottom="0"
     inkscape:window-width="1366"
     inkscape:window-height="718"
     inkscape:window-x="0"
     inkscape:window-y="0"
     inkscape:window-maximized="1" />
  <metadata
     id="metadata5589">
    <rdf:RDF>
      <cc:Work
         rdf:about="">
        <dc:format>image/svg+xml</dc:format>
        <dc:type
           rdf:resource="http://purl.org/dc/dcmitype/StillImage" />
        <dc:title></dc:title>
      </cc:Work>
    </rdf:RDF>
  </metadata>
  <g
     inkscape:label="Layer 1"
     inkscape:groupmode="layer"
     id="layer1"
     transform="translate(-604.1786,-580.93359)">
    <g
       id="g6139"
       transform="matrix(0.49690019,0,0,0.49690019,303.96214,317.42257)">
      <path
         inkscape:connector-curvature="0"
         id="path5629"
         d="m 619.28572,539.1479 -13.57143,90 81.78571,0.35714 -15,-90.35714 -25.35714,-7.5 z"
         style="fill:#ffffff;fill-opacity:1;stroke:none" />
      <path
         style="fill:#d0d0d0"
         d="m 604.41643,630.18359 c -0.0264,-1.62418 13.40268,-91.77859 13.73447,-92.20483 0.19472,-0.25016 6.70897,-2.07803 14.47612,-4.06192 l 14.12208,-3.60708 14.03517,3.64818 c 7.71934,2.00649 14.16201,4.05935 14.31703,4.56191 0.525,1.70197 13.3273,88.69636 13.3273,90.56187 0,1.7731 -1.7865,1.85187 -42,1.85187 -23.1,0 -42.00548,-0.3375 -42.01217,-0.75 z m 80.59863,-5 c -0.66499,-3.19453 -12.58646,-82.83518 -12.58646,-84.08307 0,-0.86428 -22.6197,-7.16454 -25.74228,-7.17 -0.96675,-0.002 -7.18986,1.39481 -13.82914,3.10334 l -12.07141,3.10642 -4.80613,32.64666 c -2.64337,17.95566 -5.58023,37.70915 -6.52636,43.89665 l -1.72023,11.25 38.92723,0 38.92723,0 -0.57245,-2.75 z m -30.56504,-8.29718 c -5.80176,-5.33092 -6.21404,-5.95282 -3.94635,-5.95282 3.66051,0 12.72345,4.78983 13.46122,7.11435 0.58264,1.83571 -0.96622,4.94692 -2.40874,4.83847 -0.34515,-0.0259 -3.54291,-2.72595 -7.10613,-6 z m -28.72383,4.47304 c 0.43867,-0.46991 2.91367,-1.99546 5.5,-3.39012 3.12288,-1.68399 4.80975,-3.29151 5.02196,-4.78574 0.36194,-2.5485 1.95388,-2.86738 4.61187,-0.9238 2.4816,1.81459 1.2639,5.26287 -2.55605,7.23825 -3.24568,1.67841 -13.87553,3.25154 -12.57778,1.86141 z m -0.79683,-11.60392 c -4.62966,-3.64169 -3.31082,-4.72898 4.97591,-4.10225 8.46409,0.64014 9.30436,0.006 7.74604,-5.84774 -0.90808,-3.41105 -1.80961,-3.78152 -5.97271,-2.45442 -3.63211,1.15783 -2.60807,-0.67334 2.75,-4.91753 2.75,-2.1783 5,-4.75693 5,-5.73028 0,-2.03007 2.03461,-2.33511 3.8,-0.56972 1.66302,1.66302 1.49929,3.81181 -0.45499,5.97126 -1.56988,1.7347 -1.49379,1.82874 1.47977,1.82874 1.72411,0 4.97116,-0.73479 7.21567,-1.63286 3.24927,-1.3001 4.59405,-1.39907 6.59879,-0.48565 2.88521,1.31459 2.68629,3.47318 -0.36163,3.92418 -1.17121,0.1733 -2.27244,1.25589 -2.54308,2.5 -0.26253,1.20688 -0.83385,3.04829 -1.26959,4.09201 -0.74357,1.78105 -0.42271,1.85587 5.22039,1.21743 5.04763,-0.57107 6.38465,-0.37903 8.33042,1.19656 3.2269,2.61299 2.0712,5.69238 -1.77819,4.73802 -1.50566,-0.3733 -6.83659,-0.92559 -11.84652,-1.22731 -8.41305,-0.50669 -11.18234,-0.19302 -22.64028,2.56438 -3.1007,0.7462 -4.18182,0.56201 -6.25,-1.06482 z m 24.84944,-5.57956 c 1.06021,-1.71546 1.88691,-8.50695 0.96624,-7.93795 -0.5282,0.32645 -2.86952,0.70619 -5.20291,0.84387 -3.73893,0.22061 -4.17716,0.49376 -3.69169,2.30101 0.30297,1.12788 0.55699,2.83819 0.5645,3.80069 0.0103,1.32497 0.84938,1.75 3.45464,1.75 1.89254,0 3.65169,-0.34093 3.90922,-0.75762 z M 634.4286,583.6085 c 0,-0.26619 2.48289,-1.88525 5.51754,-3.5979 8.86727,-5.00438 13.48246,-9.69177 13.48246,-13.69337 0,-1.861 -0.4132,-3.38364 -0.91821,-3.38364 -2.42469,0 -4.08179,1.43114 -4.08179,3.5252 0,1.27117 -0.27315,3.02303 -0.60699,3.89301 -0.75903,1.978 -4.39301,2.09448 -4.39301,0.14081 0,-2.81089 -2.1058,-2.67331 -5.56459,0.36355 -3.65373,3.20801 -7.18664,3.9262 -9.23541,1.87743 -1.67514,-1.67514 -1.49541,-4.93323 0.42326,-7.67251 1.6299,-2.32702 3.99588,-2.503 9.87674,-0.73462 2.9079,0.8744 5.84771,-1.72197 4.99429,-4.41085 -0.52638,-1.65848 -1.19084,-2.01155 -2.84069,-1.50942 -4.33309,1.31876 -5.10337,1.02485 -6.22825,-2.37647 -0.61915,-1.87213 -1.93722,-3.99725 -2.92904,-4.72248 -1.60261,-1.17186 -1.62578,-1.38674 -0.20822,-1.93071 2.89519,-1.11098 5.19751,0.038 6.21191,3.09999 0.91681,2.76746 1.22877,2.93756 3.75,2.04478 2.19386,-0.77686 2.7469,-1.59201 2.73469,-4.03075 -0.0177,-3.54332 -0.79482,-4.94831 -3.23469,-5.84852 -3.39174,-1.2514 -1.82432,-2.82881 2.5,-2.51594 3.37861,0.24445 4.30941,0.72221 4.53976,2.33014 0.24442,1.70616 0.89107,1.96528 4.13296,1.65612 2.29022,-0.21841 4.14432,0.12069 4.58836,0.83917 1.01043,1.63491 -1.31845,2.94818 -5.26108,2.96676 -1.93515,0.009 -3.25,0.52394 -3.25,1.27252 0,0.86802 1.33321,1.15117 4.30674,0.91467 2.98965,-0.23777 4.698,0.1289 5.58609,1.19899 1.85591,2.23623 0.47864,3.65342 -2.89481,2.97873 -4.50413,-0.90082 -7.90967,0.27226 -7.32136,2.52194 0.42207,1.61402 1.01005,1.76155 4.15747,1.04313 4.36651,-0.99669 10.7081,0.45002 11.54619,2.63404 0.68481,1.7846 -1.54712,2.90244 -4.33795,2.17262 -1.676,-0.43828 -1.90756,0.002 -1.77321,3.3711 0.26515,6.64904 -7.60178,12.68722 -20.01916,15.3655 -1.7875,0.38554 -3.25,0.48318 -3.25,0.21698 z m 0.0657,-14.71009 c 2.70154,-1.44582 2.41169,-2.96482 -0.56574,-2.96482 -1.375,0 -2.5,0.1882 -2.5,0.41821 0,0.23002 -0.27315,1.13002 -0.60699,2 -0.69919,1.82206 0.85681,2.05364 3.67273,0.54661 z"
         id="path5617"
         inkscape:connector-curvature="0" />
      <path
         style="fill:#b0b0b0"
         d="m 604.68886,628.18359 c 0.28065,-1.5125 3.33757,-22.1 6.79315,-45.75 3.45559,-23.65 6.76972,-43.49611 7.36474,-44.10248 0.59502,-0.60636 7.05385,-2.61978 14.35297,-4.47426 l 13.27111,-3.37178 13.57143,3.47426 c 7.46429,1.91084 13.90624,3.69926 14.31545,3.97426 0.63103,0.42407 14.08794,88.14321 14.07528,91.75 -0.003,0.98015 -9.0984,1.25 -42.12939,1.25 l -42.125,0 0.51026,-2.75 z m 80.37082,-3.5 c -0.32532,-1.7875 -3.31378,-21.45088 -6.64102,-43.6964 -3.32724,-22.24552 -6.17163,-40.56851 -6.32088,-40.71775 -0.14924,-0.14924 -5.93643,-1.778 -12.86041,-3.61946 l -12.58906,-3.34811 -12.83247,3.37181 c -7.05786,1.8545 -12.91458,3.45913 -13.01494,3.56586 -0.10036,0.10673 -2.92992,18.86905 -6.28792,41.69405 -3.358,22.825 -6.33428,42.5125 -6.61397,43.75 l -0.50851,2.25 39.13034,0 39.13034,0 -0.5915,-3.25 z m -29.88108,-7.14796 c -3.1625,-2.91929 -5.75,-5.63476 -5.75,-6.03437 0,-0.39962 1.4625,-0.41163 3.25,-0.0267 7.56943,1.63009 13.27314,6.91882 10.74584,9.96403 -0.6824,0.82224 -1.52313,1.4747 -1.86829,1.44991 -0.34515,-0.0248 -3.21505,-2.43359 -6.37755,-5.35287 z m -28.30887,2.86616 c 1.06762,-0.80751 2.37514,-1.4682 2.90561,-1.4682 2.01873,0 7.77496,-5.24047 7.2523,-6.6025 -0.72822,-1.89773 1.87616,-1.77944 3.82953,0.17393 2.02937,2.02937 1.98211,2.61063 -0.42206,5.19121 -2.18741,2.3479 -7.82432,4.24091 -12.50651,4.19998 -2.85387,-0.0249 -2.90545,-0.0977 -1.05887,-1.49442 z m -2.88443,-11.69071 c -0.85618,-1.22237 -1.5567,-2.49796 -1.5567,-2.83462 0,-0.33667 3.6,-0.40372 8,-0.14901 8.86397,0.51313 8.81944,0.55334 7.37658,-6.66094 -0.60038,-3.00192 -0.77588,-3.09725 -4.75,-2.58022 l -4.12658,0.53687 2.47636,-1.79479 c 5.79576,-4.20057 8.8911,-7.4766 8.36344,-8.85165 -0.67526,-1.75971 1.77169,-1.93164 3.4602,-0.24313 1.96681,1.96681 1.37499,4.50501 -1.55,6.64756 l -2.75,2.01438 4.5,-0.50253 c 2.475,-0.27639 6.19179,-1.2156 8.25953,-2.08714 2.96799,-1.25098 4.28388,-1.3457 6.25,-0.44988 3.15305,1.43662 3.18453,2.96531 0.0771,3.74522 -1.40204,0.35189 -2.65739,1.57808 -2.99573,2.92615 -0.32032,1.27624 -0.8851,3.10927 -1.25507,4.0734 -0.61021,1.59017 -0.11606,1.69478 5.32117,1.12648 4.53925,-0.47445 6.52156,-0.25685 8.16841,0.89664 4.5922,3.21651 1.91597,5.83357 -4.4541,4.35563 -5.97452,-1.38616 -20.26103,-1.08599 -26.37134,0.55409 -7.72411,2.07324 -10.60213,1.90613 -12.4433,-0.72251 z m 26.95468,-7.84487 c 0.37795,-2.23707 0.53001,-4.17691 0.3379,-4.31076 -0.1921,-0.13385 -2.70463,-0.0606 -5.58338,0.16283 -4.71793,0.36613 -5.13706,0.58753 -4.25,2.24501 0.54125,1.01135 0.9841,2.7684 0.9841,3.90456 0,1.73563 0.62517,2.06574 3.9121,2.06574 3.79562,0 3.93256,-0.1211 4.59928,-4.06738 z M 635.4286,583.45209 c 0,-0.20553 2.5875,-1.95603 5.75,-3.89 9.18384,-5.61621 12.25,-8.90556 12.25,-13.14168 0,-3.17596 -0.27576,-3.58627 -2.22217,-3.30637 -1.73141,0.24898 -2.40694,1.25814 -3.05885,4.56955 -0.9327,4.73775 -2.67678,5.43704 -4.98812,2 l -1.51308,-2.25 -2.35889,2.12504 c -2.90085,2.61326 -6.22614,4.37496 -8.25797,4.37496 -2.11086,0 -3.89541,-3.69053 -3.17414,-6.56428 0.9082,-3.61858 4.08494,-4.89859 8.71475,-3.51146 4.80739,1.44033 8.13545,0.0335 7.66915,-3.24192 -0.30625,-2.1512 -1.11036,-2.34532 -6.20305,-1.49741 -1.44396,0.24041 -2.23382,-0.69199 -3.33334,-3.93493 -0.79252,-2.3375 -1.85346,-4.25 -2.35762,-4.25 -0.50417,0 -0.91667,-0.47989 -0.91667,-1.06642 0,-0.58654 1.2375,-0.92403 2.75,-0.75 2.04391,0.23518 3.00676,1.09459 3.75,3.34717 0.91744,2.78052 1.22705,2.95035 3.75,2.05696 2.19386,-0.77686 2.7469,-1.59201 2.73469,-4.03075 -0.0177,-3.54332 -0.79482,-4.94831 -3.23469,-5.84852 -3.19735,-1.17968 -1.89331,-2.8411 1.97701,-2.51881 2.51118,0.20912 4.06072,0.96281 4.75,2.31037 0.77896,1.5229 1.8286,1.92299 4.40015,1.67716 3.96926,-0.37945 6.431,1.3561 4.11448,2.90074 -0.8204,0.54704 -2.95414,0.78159 -4.74164,0.52123 -2.70156,-0.3935 -3.25,-0.14973 -3.25,1.44461 0,1.6839 0.52346,1.84625 4.28878,1.33016 3.26489,-0.44751 4.61195,-0.19843 5.6425,1.04329 1.90195,2.29172 0.70126,3.0241 -4.43951,2.70797 -5.24781,-0.32271 -6.47048,0.24024 -5.83121,2.68482 0.40593,1.55229 1.31231,1.74727 6.40862,1.37864 6.11104,-0.44204 8.93082,0.66234 8.93082,3.4978 0,1.02269 -0.93868,1.3503 -3.23073,1.12755 -3.13697,-0.30486 -3.22234,-0.2112 -2.94142,3.2267 0.5086,6.22428 -4.80277,10.80429 -16.57785,14.29512 -2.8875,0.85603 -5.25,1.38825 -5.25,1.18271 z m 0.57271,-15.59884 c 1.87527,-2.07216 1.86903,-2.07904 -1.58683,-1.75 -2.34433,0.22321 -3.57701,0.89787 -3.80102,2.08034 -0.47005,2.48136 3.03795,2.26627 5.38785,-0.33034 z"
         id="path5615"
         inkscape:connector-curvature="0" />
      <path
         style="fill:#8e8e8e"
         d="m 604.98431,627.18359 c 0.31863,-2.0625 3.41128,-22.80971 6.87255,-46.10492 3.72242,-25.05278 6.77576,-42.65314 7.47444,-43.08495 0.64968,-0.40152 6.99312,-2.21138 14.09655,-4.02191 l 12.91532,-3.29188 13.29271,3.25573 c 7.311,1.79065 13.79782,3.76022 14.41517,4.37683 0.83981,0.83879 14.45069,87.74303 14.3888,91.8711 -0.006,0.4125 -18.91657,0.75 -42.02307,0.75 l -42.01182,0 0.57935,-3.75 z m 80.44232,0.5 c -0.004,-2.48426 -12.90228,-86.98758 -13.34514,-87.43044 -0.2499,-0.2499 -6.10783,-1.96111 -13.01762,-3.8027 l -12.56327,-3.34833 -12.66143,3.37449 c -6.96378,1.85598 -12.82059,3.53367 -13.01513,3.72821 -0.27138,0.27137 -13.39544,86.87142 -13.39544,88.39072 0,0.18593 17.55,0.33805 39,0.33805 30.53439,0 38.99957,-0.27133 38.99803,-1.25 z m -57.62745,-6.96289 c 1.02882,-0.70791 3.27882,-2.19816 5,-3.31167 1.72118,-1.11351 3.57436,-3.0277 4.11816,-4.25376 1.09942,-2.47871 2.33314,-2.45117 3.9347,0.0878 2.20547,3.4964 -2.44919,7.13565 -10.46559,8.18253 -3.83912,0.50136 -4.19822,0.40352 -2.58727,-0.70494 z m 26.75918,-3.84836 c -2.95363,-2.76738 -5.16766,-5.23418 -4.92006,-5.48178 0.24759,-0.2476 2.75198,0.23339 5.5653,1.06885 7.31869,2.17342 11.93008,8.56277 6.64667,9.20935 -1.14561,0.1402 -4.09044,-1.79683 -7.29191,-4.79642 z m -30.74217,-8.46996 c -2.09717,-3.20068 -1.43915,-3.84647 2.76864,-2.71718 1.83907,0.49358 5.25627,0.70411 7.59377,0.46786 4.57968,-0.46286 4.84582,-0.99036 3.61208,-7.15907 -0.61846,-3.09232 -0.76333,-3.17191 -4.75,-2.6098 -3.55412,0.50112 -3.85145,0.40812 -2.19128,-0.6854 4.64634,-3.06047 9.63035,-8.18953 9.15687,-9.42338 -0.9773,-2.54682 2.46469,-1.34295 3.65981,1.28005 1.08064,2.37174 0.92301,2.83843 -1.6523,4.89191 l -2.84691,2.27005 4.88086,-0.511 c 2.68448,-0.28104 6.27035,-1.14903 7.96861,-1.92885 2.28057,-1.04722 3.78367,-1.15327 5.75,-0.40567 3.51047,1.33468 3.37319,2.74663 -0.34647,3.56361 -1.6548,0.36345 -2.79399,1.00826 -2.53155,1.43291 0.26245,0.42465 -0.0508,2.17086 -0.6961,3.88046 -0.64531,1.70961 -0.96861,3.30196 -0.71845,3.53856 0.25016,0.2366 2.70483,0.0796 5.45483,-0.34883 5.58378,-0.86997 10.5,0.83895 10.5,3.64987 0,1.40029 -0.9189,1.49827 -7.25,0.77303 -9.53007,-1.0917 -19.90503,-0.65579 -26.89435,1.12996 -7.80282,1.99361 -9.55737,1.82698 -11.46806,-1.08909 z m 26.98212,-5.71879 c 0.33164,-1.2375 0.60912,-3.31498 0.61663,-4.61663 0.0114,-1.96849 -0.36486,-2.26519 -2.23634,-1.76366 -1.2375,0.33164 -3.70136,0.60913 -5.47525,0.61664 -3.08112,0.013 -3.17984,0.13308 -2.20918,2.6861 0.55883,1.46985 0.78681,3.26985 0.50663,4 -0.37532,0.97807 0.63622,1.32755 3.84255,1.32755 3.66784,0 4.44678,-0.35371 4.95496,-2.25 z M 635.4286,583.45308 c 0,-0.20499 2.36626,-1.72654 5.25835,-3.38123 8.29417,-4.74545 12.47565,-9.03917 13.098,-13.44958 0.51293,-3.63498 0.41692,-3.79691 -2.07513,-3.5 -2.08747,0.24872 -2.83287,1.0996 -3.70663,4.23117 -1.27337,4.56383 -2.98145,5.55696 -4.54207,2.64092 -1.48129,-2.76782 -2.65025,-2.60359 -6.6853,0.93923 -3.85978,3.38893 -5.5119,3.69246 -7.77579,1.42857 -2.25025,-2.25024 -1.94354,-4.73036 0.91734,-7.41802 2.31101,-2.17108 2.76496,-2.24693 6.35567,-1.06189 5.94813,1.96306 9.41973,-0.49071 7.55806,-5.34213 -0.53671,-1.39866 -0.89574,-1.40282 -3.52936,-0.0409 -3.64155,1.88311 -4.61735,1.31477 -5.46068,-3.18053 -0.36575,-1.94961 -1.28318,-3.78197 -2.03873,-4.07191 -2.21823,-0.85121 -1.57408,-2.48115 0.84285,-2.13272 1.84685,0.26625 3.07279,1.76322 5.44049,6.64329 0.4611,0.95036 6.21401,-3.03488 5.89204,-4.08162 -0.21014,-0.68317 -0.64569,-2.44963 -0.96791,-3.92547 -0.33146,-1.51816 -1.49701,-2.97254 -2.68419,-3.34934 -2.96969,-0.94254 -0.87029,-2.70704 2.73117,-2.29549 1.73596,0.19838 3.23234,1.14864 3.78333,2.40256 0.71261,1.62173 1.78154,2.05814 4.89868,2 2.35017,-0.0438 4.16563,0.43883 4.42183,1.17562 0.30648,0.8814 -0.91687,1.25 -4.14869,1.25 -4.01048,0 -4.58333,0.26633 -4.58333,2.13084 0,1.89244 0.40731,2.06475 3.64059,1.54006 3.67582,-0.59651 7.35941,0.58688 7.35941,2.36428 0,0.53065 -2.625,0.96482 -5.83333,0.96482 -6.55981,0 -7.51565,0.46833 -5.9787,2.92938 0.85318,1.36616 2.13052,1.62583 6.29773,1.28025 5.62404,-0.46639 9.5143,0.91954 9.5143,3.38952 0,1.12248 -0.8636,1.44535 -3.24942,1.21482 -3.1283,-0.30227 -3.23711,-0.19088 -2.91916,2.98818 0.42532,4.25272 -1.73523,7.47976 -7.07401,10.56589 -3.8803,2.24304 -14.75741,6.03998 -14.75741,5.15145 z m 0.25,-14.91154 c 2.61385,-1.98419 2.1289,-2.77129 -1.49181,-2.42131 -2.13505,0.20638 -3.35499,0.91081 -3.57333,2.06336 -0.4005,2.1142 2.48312,2.31799 5.06514,0.35795 z m 8.75,-2.60795 c 0,-0.55 -0.19844,-1 -0.44098,-1 -0.24254,0 -0.7191,0.45 -1.05902,1 -0.33992,0.55 -0.14148,1 0.44098,1 0.58246,0 1.05902,-0.45 1.05902,-1 z"
         id="path5613"
         inkscape:connector-curvature="0" />
      <path
         style="fill:#6f6f6f"
         d="m 604.84364,628.18359 c 0.31568,-1.5125 3.47072,-22.25679 7.01121,-46.09841 3.54048,-23.84163 6.63541,-43.54658 6.87761,-43.78878 0.2422,-0.24221 6.46042,-2.05288 13.81825,-4.02372 l 13.37789,-3.58334 13.38302,3.35915 c 7.36066,1.84753 13.92207,3.81499 14.58091,4.37212 0.68626,0.58032 3.88181,19.37888 7.48172,44.01298 3.4561,23.65 6.51344,44.2375 6.79408,45.75 l 0.51027,2.75 -42.20446,0 -42.20445,0 0.57395,-2.75 z m 80.5682,-1 c -0.0328,-3.42664 -12.77425,-86.37434 -13.35736,-86.95746 -0.32663,-0.32663 -6.18212,-2.08009 -13.01219,-3.89657 l -12.41831,-3.3027 -12.6477,3.3367 c -6.95623,1.83519 -12.87522,3.56423 -13.15331,3.84232 -0.415,0.41501 -13.36905,85.53839 -13.38842,87.97771 -0.003,0.4125 17.54405,0.75 38.99405,0.75 36.48258,0 38.99892,-0.11296 38.98324,-1.75 z M 626.4286,621.496 c 0,-0.24067 2.26086,-1.6681 5.02413,-3.17206 3.13704,-1.70739 5.2417,-3.6013 5.60336,-5.04228 0.4792,-1.90928 0.90675,-2.13252 2.47587,-1.29276 2.3794,1.27343 2.44012,4.14287 0.13187,6.23181 -2.20431,1.99487 -13.23523,4.72467 -13.23523,3.27529 z m 29.95671,-3.31241 c -1.90667,-2.0625 -4.36442,-4.25972 -5.46169,-4.88272 -3.50803,-1.99175 -0.92875,-2.49011 4.1217,-0.79638 6.00556,2.01404 8.38328,4.02327 8.38328,7.08409 0,3.54261 -3.02788,2.93861 -7.04329,-1.40499 z m -31.91775,-9.43856 c -2.83165,-3.03941 -2.57691,-4.18872 0.71104,-3.20798 2.4305,0.72498 13.20785,0.77202 13.91911,0.0608 0.14964,-0.14964 -0.29644,-2.4978 -0.99129,-5.21814 -0.88778,-3.47567 -1.69658,-4.83112 -2.72059,-4.55939 -6.1187,1.62365 -6.48134,1.38558 -2.45723,-1.61314 5.31181,-3.9583 7.84255,-6.91027 7.03894,-8.21054 -1.0103,-1.6347 1.12161,-1.2596 2.88963,0.50842 2.16321,2.16321 1.98774,3.13824 -1.07571,5.97736 l -2.64715,2.45329 4.89715,-0.63447 c 2.69343,-0.34895 6.37446,-1.23265 8.18007,-1.96377 2.26347,-0.91651 4.04903,-1.03803 5.75,-0.39132 3.25904,1.23909 3.12689,2.60552 -0.31864,3.29462 -1.73409,0.34682 -2.84229,1.2434 -2.93556,2.375 -0.0824,0.99982 -0.45397,3.04311 -0.82566,4.54063 l -0.67582,2.72278 6.41379,-0.59893 c 5.24371,-0.48966 6.72349,-0.28923 8.11138,1.09865 3.18161,3.18162 2.09198,3.8941 -4.55242,2.97668 -8.66985,-1.19709 -20.76676,-0.73149 -27.7048,1.06634 -7.6349,1.9784 -8.58706,1.91984 -11.00624,-0.67685 z m 25.79512,-4.36644 c 0.18374,-0.1539 0.58994,-2.18744 0.90267,-4.51897 0.54849,-4.08935 0.48369,-4.21642 -1.83408,-3.59624 -1.32147,0.3536 -3.83376,0.64905 -5.58286,0.65656 -3.06979,0.0132 -3.14976,0.11979 -2.30338,3.07095 0.48225,1.68151 0.64241,3.66818 0.3559,4.41481 -0.40788,1.06291 0.41751,1.23763 3.80337,0.80511 2.37837,-0.30382 4.47464,-0.67831 4.65838,-0.83222 z m -8.33408,-24.87808 c 8.07324,-4.86516 12.5,-9.68808 12.5,-13.61866 0,-2.76472 -0.27966,-3.04861 -2.72349,-2.76468 -2.21852,0.25775 -2.9275,1.04719 -3.82377,4.25767 -1.2813,4.5897 -2.86388,5.52757 -4.42022,2.61951 -1.48129,-2.76781 -2.65025,-2.60358 -6.6853,0.93924 -3.85978,3.38893 -5.5119,3.69246 -7.77579,1.42857 -2.25025,-2.25024 -1.94354,-4.73036 0.91734,-7.41802 2.32731,-2.1864 2.74604,-2.25318 6.45428,-1.02935 3.45429,1.14002 4.29051,1.09578 6.48663,-0.34317 2.1948,-1.43808 2.37871,-1.96446 1.42089,-4.06665 -0.94754,-2.07961 -1.42102,-2.26859 -3.41163,-1.3616 -3.23597,1.4744 -5.13562,0.44772 -5.93894,-3.20978 -0.37873,-1.72433 -1.32116,-3.37788 -2.0943,-3.67456 -2.24284,-0.86066 -1.62459,-2.4961 0.81088,-2.14499 1.71703,0.24753 4.5435,3.70953 5.34936,6.55216 0.0363,0.12794 1.52826,-0.31935 3.31552,-0.99397 3.0313,-1.14419 3.20559,-1.46209 2.59458,-4.73261 -0.77067,-4.12509 -2.11684,-6.00603 -4.29848,-6.00603 -1.12797,0 -1.27029,-0.30727 -0.49938,-1.07818 1.77388,-1.77388 6.71591,-0.66305 7.77418,1.74742 0.75701,1.72429 1.72209,2.13453 4.70501,2 5.22636,-0.2357 5.31284,1.76056 0.0926,2.13826 -3.53516,0.25577 -4.25,0.65637 -4.25,2.38167 0,1.82766 0.45567,2.01305 3.8341,1.55991 3.86267,-0.51809 7.1659,0.54241 7.1659,2.30061 0,0.52267 -2.925,0.95031 -6.5,0.95031 -3.575,0 -6.5,0.23111 -6.5,0.51357 0,0.28246 0.53262,1.36642 1.18359,2.4088 0.99364,1.59106 2.01049,1.80989 6.33596,1.36346 5.55711,-0.57355 9.48045,0.7899 9.48045,3.29467 0,1.17733 -0.75317,1.36883 -3.4177,0.86896 l -3.4177,-0.64116 0.51292,3.84585 c 0.3918,2.93779 0.0124,4.48077 -1.60692,6.53487 -2.31427,2.93567 -10.53016,7.17327 -16.0706,8.2889 -3.16835,0.63799 -2.93146,0.36215 2.5,-2.911 z m -4.5,-12.47597 c 0,-0.47173 -0.87909,-1.08757 -1.95352,-1.36855 -2.65546,-0.69441 -5.54154,1.54511 -4.72693,3.66796 0.59189,1.54244 0.89094,1.55215 3.66249,0.11893 1.65988,-0.85836 3.01796,-1.94661 3.01796,-2.41834 z m 7,-0.64997 c 0,-0.85746 -0.45734,-1.27636 -1.01631,-0.9309 -0.55897,0.34547 -0.75742,1.04702 -0.44099,1.55902 0.85724,1.38704 1.4573,1.12841 1.4573,-0.62812 z"
         id="path5611"
         inkscape:connector-curvature="0" />
      <path
         style="fill:#4f4f4f"
         d="m 604.90969,628.68359 c 0.28556,-1.2375 3.44559,-22.01396 7.0223,-46.16991 3.57671,-24.15596 6.62567,-44.04249 6.77548,-44.19229 0.14981,-0.14981 6.41404,-1.88809 13.92052,-3.86285 l 13.64814,-3.59047 13.64978,3.43964 c 7.50739,1.89181 13.91047,3.70032 14.22907,4.01893 0.31861,0.31861 3.40513,19.59801 6.85893,42.84312 3.4538,23.24511 6.54035,43.95133 6.85898,46.01383 l 0.57935,3.75 -42.03087,0 -42.03087,0 0.51919,-2.25 z m 80.51891,-1.7518 c 0,-3.13822 -11.84653,-82.21214 -12.71969,-84.90214 -0.67932,-2.09282 -2.39809,-2.83831 -13.28031,-5.7601 l -12.5,-3.35615 -12.5,3.1726 c -6.875,1.74492 -12.88293,3.50489 -13.35095,3.91104 -0.70488,0.61169 -13.64297,83.73967 -13.64759,87.68655 -10e-4,0.97866 8.46443,1.25 38.99854,1.25 38.34503,0 39,-0.0336 39,-2.0018 z m -57.99711,-5.7732 c 0.002,-0.39875 2.1391,-1.85 4.75,-3.225 3.18371,-1.67666 4.85227,-3.24038 5.06641,-4.74809 0.27138,-1.91069 0.61818,-2.08815 2.31069,-1.18234 3.05035,1.6325 1.99393,5.13839 -2.12999,7.06867 -4.0641,1.90227 -10.00132,3.14159 -9.99711,2.08676 z m 27.16153,-4.77733 -5.33558,-5.40352 4.63397,1.39462 c 6.61894,1.99201 9.53719,4.1597 9.53719,7.08428 0,3.93782 -2.91107,2.92457 -8.83558,-3.07538 z m -30.16072,-7.94373 c -2.90898,-3.09647 -2.36345,-3.7543 2.06107,-2.48537 1.88776,0.54141 5.5819,0.69922 8.20919,0.3507 3.76816,-0.49986 4.6772,-0.97531 4.30478,-2.25147 -0.25966,-0.88979 -0.77624,-3.33228 -1.14796,-5.42777 -0.53447,-3.01292 -1.01632,-3.66592 -2.30332,-3.1214 -5.9132,2.50182 -6.24765,1.4179 -0.81655,-2.64635 4.16616,-3.11765 5.67864,-4.85424 5.34362,-6.13537 -0.60409,-2.31004 0.58931,-2.27994 2.71459,0.0685 2.05914,2.27533 1.43215,4.16551 -2.14273,6.4597 -2.72349,1.74782 -2.72001,1.74898 3.27361,1.08991 3.3,-0.36288 7.125,-1.20596 8.5,-1.87351 2.77385,-1.34669 7.12802,-0.64742 7.75919,1.2461 0.26389,0.79163 -0.70841,1.22239 -2.75919,1.22239 -2.09793,0 -3.02032,0.42187 -2.73305,1.25 0.23849,0.6875 -0.16329,2.96369 -0.89284,5.0582 l -1.32646,3.80821 6.72651,-0.66282 c 6.02153,-0.59334 6.92417,-0.44441 8.6123,1.42095 1.73593,1.91819 1.75182,2.13517 0.1999,2.73069 -0.92723,0.35582 -4.33531,0.0847 -7.5735,-0.6025 -6.56169,-1.39249 -17.58699,-0.73352 -26.23233,1.56786 -6.94173,1.84788 -7.04985,1.83609 -9.77683,-1.06665 z m 26.23099,-4.90576 c 0.40407,-0.604 0.74157,-2.57618 0.75,-4.38262 l 0.0153,-3.28445 -5.25,0.66992 c -2.8875,0.36845 -5.29019,0.72145 -5.3393,0.78444 -0.0491,0.063 0.11044,2.02482 0.35457,4.35963 l 0.44387,4.24509 4.14543,-0.64691 c 2.27999,-0.35581 4.47604,-1.1411 4.88012,-1.7451 z m -8.73469,-24.01093 c 8.02761,-4.86486 12.5,-9.721 12.5,-13.57257 0,-2.68033 -0.33141,-3.01468 -2.98818,-3.01468 -2.71569,0 -3.04684,0.36679 -3.63136,4.02216 -0.78607,4.91582 -2.26872,6.03177 -4.18312,3.14853 -1.85531,-2.79425 -3.31408,-2.73978 -6.10201,0.22783 -2.97826,3.17022 -6.59717,3.80942 -8.66032,1.52967 -1.98394,-2.19224 -1.14941,-5.41399 1.92401,-7.42778 1.78201,-1.16761 2.92381,-1.22641 5.92558,-0.30514 2.92574,0.89794 4.2508,0.85615 6.21682,-0.19603 2.82005,-1.50924 3.05159,-2.68565 1.04873,-5.32829 -1.14617,-1.5123 -1.76031,-1.62884 -3.54633,-0.67299 -2.98174,1.59577 -4.69545,0.68252 -5.48767,-2.92443 -0.36984,-1.68389 -1.42478,-3.48403 -2.3443,-4.00032 -1.54655,-0.86836 -1.53974,-0.98961 0.0909,-1.61784 2.33836,-0.90089 4.73727,1.20928 4.73727,4.16707 0,2.73929 0.21095,2.79234 4.679,1.17667 2.02283,-0.73146 3.321,-1.87871 3.321,-2.9349 0,-3.29226 -2.03069,-7.05948 -4.09658,-7.59972 -1.57727,-0.41246 -1.75361,-0.7441 -0.73796,-1.38791 2.67357,-1.69475 5.84985,-0.93708 7.04221,1.67985 1.04346,2.29016 1.56204,2.48932 4.97856,1.91211 3.0877,-0.52167 3.81377,-0.34203 3.81377,0.94356 0,1.17793 -1.00261,1.5879 -3.88337,1.5879 -3.01138,0 -3.99806,0.43859 -4.39416,1.95325 -0.45537,1.74136 0.0929,1.98545 5.05437,2.25 3.33543,0.17786 5.73036,0.79757 5.97749,1.54675 0.30386,0.92116 -1.45108,1.25 -6.671,1.25 -3.89583,0 -7.08333,0.225 -7.08333,0.5 0,0.275 0.85032,1.35032 1.88961,2.38961 1.46332,1.46332 2.87327,1.78207 6.25,1.41294 5.11468,-0.55911 9.86039,0.98969 9.86039,3.21801 0,1.26174 -0.7086,1.43713 -3.60836,0.89313 -3.60216,-0.67576 -3.60721,-0.67166 -2.93658,2.3817 1.11615,5.08178 -1.64883,8.93723 -8.77478,12.23549 -3.39915,1.5733 -7.53028,3.16023 -9.18028,3.52651 -2.27267,0.5045 -1.54533,-0.2156 3,-2.97014 z m -6.22385,-10.78389 3.08489,-2.19663 -2.87091,-0.7678 c -3.28296,-0.878 -5.49013,0.44206 -5.49013,3.28351 0,2.46195 1.49776,2.37138 5.27615,-0.31908 z m 9.23601,-3.62454 c -0.79461,-0.7946 -2.51396,1.00926 -1.90347,1.99704 0.41524,0.67187 0.93059,0.56959 1.46194,-0.29014 0.45134,-0.73029 0.65003,-1.49839 0.44153,-1.7069 z"
         id="path5609"
         inkscape:connector-curvature="0" />
      <path
         style="fill:#2f2f2f"
         d="m 605.4286,628.73675 c 0,-2.06457 12.98729,-90.13764 13.33733,-90.44686 0.0895,-0.079 6.38666,-1.77554 13.99375,-3.77001 l 13.83109,-3.62632 13.90019,3.66174 c 13.76351,3.62574 13.90554,3.69231 14.44436,6.77002 0.29929,1.70955 3.23586,21.33327 6.52571,43.60827 3.28985,22.275 6.23915,41.7375 6.55401,43.25 l 0.57247,2.75 -41.57946,0 -41.57945,0 0,-2.19684 z m 80.00818,-2.05316 c 0.0192,-5.28519 -12.41242,-85.35228 -13.41013,-86.3692 -0.60393,-0.61556 -6.49805,-2.55793 -13.09805,-4.31639 l -12,-3.19719 -12.88431,3.31639 c -10.07674,2.59373 -13.0652,3.7522 -13.71441,5.31639 -0.7695,1.85402 -12.90128,82.75195 -12.90128,86.02917 0,1.2693 5.34379,1.47083 39,1.47083 l 39,0 0.008,-2.25 z m -30.84376,-10.30233 -5.33558,-5.40352 4.63204,1.39404 c 6.44981,1.94111 9.49429,4.43831 9.52381,7.81181 0.0278,3.18005 -3.37354,1.71376 -8.82027,-3.80233 z m -23.0717,2.24225 c 2.424,-1.27055 4.85644,-3.30704 5.4054,-4.52554 1.31335,-2.91513 4.00188,-2.34455 4.00188,0.84932 0,3.00528 -5.17704,5.98236 -10.40728,5.98475 l -3.40729,0.002 4.40729,-2.31008 z m -6.2136,-9.36032 c -3.22974,-3.75203 -3.11976,-4.23483 0.72301,-3.17379 3.12298,0.8623 13.39787,0.32513 13.39787,-0.70043 0,-0.19631 -0.49399,-2.66035 -1.09776,-5.47563 -0.83302,-3.88424 -1.45834,-4.98033 -2.5929,-4.54496 -0.82233,0.31556 -2.69084,0.8225 -4.15224,1.12653 -2.53182,0.52673 -2.55866,0.49117 -0.5691,-0.75426 5.36899,-3.3609 9.65853,-7.72224 9.07941,-9.23138 -0.71593,-1.8657 0.4391,-2.06917 2.13259,-0.37568 1.95894,1.95894 1.37985,4.49266 -1.55,6.78188 l -2.75,2.1487 5.5,-0.61303 c 3.025,-0.33717 6.89456,-1.10739 8.59903,-1.71159 3.29001,-1.16625 8.40097,-0.42823 8.40097,1.21309 0,0.53952 -1.26113,0.98095 -2.80252,0.98095 -2.56308,0 -2.89081,0.43098 -3.83585,5.04438 l -1.03333,5.04437 6.58619,-0.64898 c 5.87158,-0.57857 6.7908,-0.4229 8.47197,1.43477 1.67641,1.85241 1.7086,2.15175 0.28999,2.69612 -0.87769,0.3368 -3.88609,0.12119 -6.68534,-0.47915 -6.95667,-1.49193 -14.17205,-1.34325 -22.49111,0.46346 -3.85,0.83613 -8.13534,1.76414 -9.52298,2.06223 -1.70785,0.36689 -3.0318,-0.0491 -4.0979,-1.2876 z m 25.3256,-5.6266 c 0.42056,-0.66165 0.77154,-2.70773 0.77997,-4.54684 l 0.0153,-3.34384 -5.25,0.70691 c -2.8875,0.3888 -5.29019,0.76853 -5.3393,0.84384 -0.0491,0.0753 0.11534,2.09864 0.36546,4.49627 l 0.45477,4.35935 4.10456,-0.65635 c 2.25752,-0.36099 4.44867,-1.19769 4.86923,-1.85934 z M 639.4286,581.602 c 0,-0.18237 2.22155,-1.7711 4.93678,-3.5305 6.51352,-4.22062 10.06322,-8.55156 10.06322,-12.27799 0,-2.76715 -0.23884,-2.96361 -3.25,-2.67328 -2.95905,0.28531 -3.29476,0.66446 -3.75,4.23519 -0.275,2.15701 -1.00706,4.08853 -1.62679,4.29227 -1.65751,0.5449 -2.59665,-2.73995 -1.24796,-4.36501 1.31531,-1.58485 0.56641,-2.8946 -1.07503,-1.88013 -0.59556,0.36808 -0.78787,1.14652 -0.42734,1.72987 0.37861,0.61259 0.0687,0.85676 -0.73368,0.578 -0.76406,-0.26545 -2.86736,0.80117 -4.674,2.37027 -5.39842,4.68862 -11.30453,2.86149 -9.15344,-2.83173 1.31698,-3.4856 4.21779,-4.52175 8.09504,-2.89149 2.93131,1.23253 3.66246,1.20524 6.08733,-0.22716 3.08128,-1.82016 3.3269,-2.85936 1.30602,-5.52577 -1.14617,-1.5123 -1.76031,-1.62884 -3.54633,-0.67299 -2.69425,1.44192 -5.00382,0.63692 -5.00382,-1.74407 0,-0.99488 -0.7209,-2.83811 -1.602,-4.09605 -1.85834,-2.65315 -1.07217,-4.06919 1.39996,-2.52162 0.93612,0.58601 1.83962,2.43655 2.00777,4.11229 l 0.30572,3.04682 3.94428,-1.54935 c 3.19758,-1.25605 3.94427,-2.04645 3.94427,-4.17516 0,-3.26259 -2.55165,-7.04979 -4.8067,-7.13421 -1.1613,-0.0435 -0.94086,-0.36437 0.70163,-1.02139 3.1037,-1.24151 5.83719,-0.3346 6.6429,2.20398 0.51281,1.61571 1.34958,1.95363 4.2067,1.69885 2.20585,-0.19671 3.72976,0.15885 3.99434,0.93195 0.29506,0.86215 -0.80598,1.25 -3.54855,1.25 -3.53621,0 -5.19032,1.14148 -5.19032,3.58179 0,0.23001 2.475,0.41821 5.5,0.41821 3.92774,0 5.5,0.3827 5.5,1.33872 0,0.96562 -1.69902,1.35473 -6.09615,1.39615 -3.35287,0.0316 -6.59287,0.55415 -7.2,1.16128 -0.80514,0.80513 -0.67537,1.10385 0.47952,1.10385 0.87085,0 1.80619,0.85207 2.07853,1.89349 0.44366,1.69658 0.91213,1.7822 4.50478,0.82326 4.794,-1.27959 10.56183,0.035 11.03965,2.51609 0.26733,1.38816 -0.2854,1.56368 -3.35533,1.06549 l -3.67538,-0.59643 0.68543,3.12077 c 1.03924,4.73162 -1.85009,8.71593 -8.86126,12.21946 -5.22147,2.60919 -8.59979,3.6409 -8.59979,2.62628 z m -3.38188,-13.01636 2.72966,-2.34795 -2.76954,-0.69511 c -3.18614,-0.79967 -5.57824,0.707 -5.57824,3.51345 0,2.55474 2.32779,2.35984 5.61812,-0.47039 z"
         id="path5607"
         inkscape:connector-curvature="0" />
      <path
         style="fill:#040404"
         d="m 605.40044,629.18359 c -0.0155,-0.4125 2.98164,-21.03115 6.66028,-45.81922 l 6.68844,-45.06922 13.78817,-3.57493 13.78817,-3.57493 14.00727,3.50744 14.00726,3.50743 0.61319,4.13672 c 0.33726,2.27519 3.41726,22.92421 6.84445,45.88671 l 6.23125,41.75 -41.30016,0 c -22.71509,0 -41.31283,-0.3375 -41.32832,-0.75 z m 80.39168,-3.5 c -0.2809,-1.7875 -3.30072,-21.884 -6.7107,-44.65888 l -6.19997,-41.40889 -12.97643,-3.47225 -12.97642,-3.47225 -13.29125,3.37138 c -10.97931,2.78494 -13.3719,3.72096 -13.75497,5.38113 -0.81382,3.52703 -12.45378,83.46701 -12.45378,85.52907 0,1.94077 0.79483,1.98069 39.43713,1.98069 l 39.43713,0 -0.51074,-3.25 z m -30.18327,-8.78812 c -5.66347,-5.28247 -5.66938,-5.50329 -0.10599,-3.95782 4.27813,1.18843 8.42304,5.2576 7.58364,7.44506 -0.88408,2.30386 -1.65365,1.94497 -7.47765,-3.48724 z m -23.68025,1.84656 c 2.2,-1.29068 4.44421,-3.35059 4.98713,-4.57757 1.63439,-3.69365 5.30998,-2.31771 4.08859,1.53055 -0.78086,2.46027 -3.78978,4.10395 -8.78205,4.79735 l -4.29367,0.59637 4,-2.3467 z m -6.79375,-9.58054 c -0.93844,-1.03696 -1.70625,-2.10271 -1.70625,-2.36834 0,-0.26563 3.33512,-0.4552 7.41138,-0.42126 4.07625,0.0339 7.72696,-0.25151 8.11269,-0.63432 0.96265,-0.9554 -1.48906,-10.80398 -2.68955,-10.80398 -0.5313,0 -1.87496,0.48646 -2.98591,1.08102 -3.87404,2.07333 -2.784,0.25844 1.77471,-2.95484 2.52616,-1.7806 4.82664,-4.13082 5.11217,-5.22271 0.65383,-2.50022 2.66255,-1.93749 3.07578,0.86166 0.20331,1.37717 -0.5741,2.68859 -2.24142,3.78106 -4.07298,2.66872 -2.13066,3.33019 5.16559,1.75915 8.93145,-1.92313 12.48184,-2.07477 13.00272,-0.55534 0.26625,0.77669 -0.50012,1.25 -2.02398,1.25 -1.9883,0 -2.5558,0.61515 -2.99826,3.25 -0.30017,1.7875 -0.87735,4.09003 -1.28263,5.11673 -0.69127,1.75126 -0.30843,1.82371 6.18865,1.17124 6.21976,-0.62463 7.11531,-0.48579 8.78791,1.36241 1.69812,1.87641 1.71645,2.11392 0.20782,2.69284 -0.91002,0.3492 -3.64554,0.13359 -6.07894,-0.47915 -7.95092,-2.00206 -18.53952,-1.23859 -32.58248,2.3493 -1.81628,0.46405 -3.03171,0.11073 -4.25,-1.23547 z m 23.61721,-4.16078 c 1.95337,-0.74267 2.53494,-1.78513 2.85227,-5.11267 l 0.39861,-4.17978 -5.48593,0.64476 c -3.01727,0.35462 -5.54918,0.74282 -5.62648,0.86267 -0.0773,0.11984 0.0594,2.1304 0.3038,4.4679 0.38232,3.65676 0.76955,4.25 2.77421,4.25 1.28142,0 3.43401,-0.4198 4.78352,-0.93288 z m -4.81011,-26.45656 c 6.84861,-4.65502 10.17201,-8.50819 10.70465,-12.41104 0.44307,-3.24655 0.39186,-3.29557 -3.13378,-3 -3.35663,0.2814 -3.60393,0.53859 -3.89459,4.05048 -0.35246,4.25861 -1.30192,4.63771 -4.24479,1.69484 l -2.05516,-2.05516 -3.47964,3.05516 c -5.69046,4.9963 -10.53048,3.6555 -8.98809,-2.4899 0.8174,-3.25676 2.94911,-4.036 7.62603,-2.78766 2.81686,0.75187 4.38577,0.66134 6.34691,-0.3662 2.90763,-1.52346 3.24559,-3.04292 1.27594,-5.73656 -1.1191,-1.53047 -1.68458,-1.62753 -3.57814,-0.61413 -3.01369,1.61288 -5.09269,0.65453 -5.09269,-2.34758 0,-1.35297 -0.65357,-3.11352 -1.45238,-3.91233 -1.86825,-1.86825 -0.84173,-2.91825 1.58386,-1.62011 1.17968,0.63134 1.86852,2.093 1.86852,3.96481 0,3.47518 -0.0863,3.45046 4.46607,1.27961 2.51092,-1.19738 3.53393,-2.34168 3.53393,-3.95295 0,-3.23295 -2.00129,-7.19472 -3.88933,-7.69935 -0.88587,-0.23677 0.0768,-0.48269 2.13933,-0.54649 3.17193,-0.0981 3.75,0.20556 3.75,1.96999 0,1.83414 0.50214,2.04542 4.15903,1.75 2.86139,-0.23116 4.30355,0.0904 4.62223,1.0307 0.3552,1.04803 -0.49797,1.27503 -3.65903,0.97358 -2.26723,-0.21622 -4.12223,-0.0805 -4.12223,0.30152 0,0.38205 -0.26361,1.38158 -0.58579,2.22119 -0.4715,1.2287 0.43994,1.5861 4.67139,1.83178 3.38793,0.19671 5.42039,0.79988 5.71617,1.69637 0.34406,1.04282 -0.17497,1.23202 -2.073,0.75564 -3.12434,-0.78416 -11.72877,0.30831 -11.72877,1.48915 0,0.47525 0.62252,0.86408 1.38337,0.86408 0.76085,0 1.6057,0.85019 1.87743,1.88932 0.44404,1.69798 0.9459,1.78592 4.95577,0.86833 3.43461,-0.78595 5.11479,-0.70292 7.29872,0.36068 4.25819,2.07379 4.35787,3.89762 0.17594,3.21899 l -3.44066,-0.55834 0.10656,4.0638 c 0.13734,5.23788 -3.62505,9.36547 -11.07897,12.15434 -7.3061,2.73356 -7.54746,2.54392 -1.76481,-1.38656 z m -8.00372,-9.79679 c 2.56729,-2.01943 2.6348,-2.24296 0.88485,-2.92972 -3.30495,-1.29701 -5.29178,-0.94447 -6.40554,1.13662 -2.23267,4.17177 1.11458,5.25894 5.52069,1.7931 z m 9.49037,-2.31377 c 0,-0.825 -0.675,-1.5 -1.5,-1.5 -1.56157,0 -1.98397,1.1827 -0.83333,2.33333 1.15063,1.15064 2.33333,0.72824 2.33333,-0.83333 z"
         id="path5605"
         inkscape:connector-curvature="0" />
    </g>
  </g>
</svg>
