<svg xmlns="http://www.w3.org/2000/svg" width="41.969" height="50">
<!--
Created by Hari Seldon and modified by orangain, licensed under Creative Commons Attribution-Share Alike 3.0 Unported.
See: https://creativecommons.org/licenses/by-sa/3.0/deed.en

Original file is available at: https://commons.wikimedia.org/wiki/File:Shogi_tokin(svg).svg
-->
    <path d="M7.696 4.672l-7.022 44.765 40.376 -0.25 -6.646 -44.64 -13.417 -4.139z" fill="#FEEC99"/>
    <path d="M0.124 49.38c-0.008 -0.793 6.573 -45.259 6.727 -45.459 0.064 -0.082 3.27 -0.998 7.125 -2.035l7.008 -1.886 7.01 1.886c3.854 1.037 7.06 1.953 7.123 2.035 0.155 0.2 6.735 44.666 6.728 45.458 -0.005 0.487 -4.511 0.621 -20.86 0.621 -16.35 0 -20.856 -0.134 -20.861 -0.62zm39.992 -1.987c-0.14 -0.614 -1.617 -10.39 -3.285 -21.723 -1.667 -11.333 -3.066 -20.638 -3.108 -20.676 -0.303 -0.277 -11.908 -3.158 -12.718 -3.158 -0.562 0 -3.662 0.697 -6.888 1.549l-5.867 1.548 -3.105 20.92c-1.708 11.506 -3.215 21.31 -3.349 21.788 -0.229 0.817 0.919 0.87 19.164 0.87l19.408 0 -0.252 -1.118zm-19.277 -8.361c-2.667 -1.408 -3.823 -3.54 -3.825 -7.056 -0.001 -1.678 0.331 -3.524 0.796 -4.423 0.685 -1.325 0.708 -1.82 0.16 -3.482 -0.481 -1.455 -0.516 -2.689 -0.142 -4.953 0.427 -2.58 0.37 -3.27 -0.4 -4.777 -1.11 -2.177 -0.812 -2.565 0.958 -1.252 2.026 1.504 2.772 4.233 2.14 7.831 -0.285 1.62 -0.429 3.035 -0.32 3.143 0.107 0.108 0.76 -0.174 1.451 -0.626 1.485 -0.973 3.476 -0.82 3.686 0.282 0.095 0.5 -0.744 1.265 -2.343 2.135 -3.163 1.721 -4.002 2.941 -4.002 5.818 0 2.864 1.352 4.758 3.713 5.2 1.846 0.347 3.525 1.836 3.01 2.67 -0.509 0.823 -2.812 0.582 -4.882 -0.51z" fill="#fecfcf"/>
    <path d="M0.256 48.386c0.14 -0.887 1.673 -11.198 3.406 -22.913l3.152 -21.3 1.499 -0.598c0.825 -0.33 4.013 -1.24 7.085 -2.025l5.586 -1.427 5.586 1.427c3.073 0.785 6.261 1.696 7.086 2.025l1.499 0.598 3.151 21.3c1.733 11.715 3.266 22.026 3.407 22.913l0.256 1.614 -20.985 0 -20.984 0 0.256 -1.614zm39.895 -1.241c-0.153 -0.751 -1.627 -10.512 -3.277 -21.692 -1.65 -11.18 -3.062 -20.389 -3.14 -20.466 -0.076 -0.077 -2.98 -0.895 -6.454 -1.82l-6.316 -1.679 -6.32 1.71c-3.477 0.94 -6.356 1.744 -6.4 1.787 -0.042 0.044 -1.444 9.24 -3.115 20.437 -1.67 11.196 -3.162 20.972 -3.313 21.723l-0.275 1.365 19.443 0 19.444 0 -0.277 -1.365zm-19.03 -8.115c-1.154 -0.571 -2.55 -1.77 -3.104 -2.665 -1.227 -1.987 -1.34 -5.955 -0.241 -8.582 0.635 -1.52 0.664 -2.216 0.172 -4.136 -0.454 -1.77 -0.457 -2.846 -0.012 -4.61 0.478 -1.9 0.447 -2.62 -0.179 -4.118 -0.916 -2.192 -0.68 -2.556 0.958 -1.483 1.75 1.147 2.395 3.925 1.736 7.486 -0.29 1.573 -0.42 2.967 -0.289 3.098 0.132 0.132 0.805 -0.13 1.495 -0.583 1.377 -0.902 3.356 -0.845 3.669 0.106 0.11 0.332 -1.04 1.396 -2.554 2.365 -3.253 2.08 -3.774 2.905 -3.774 5.974 0 1.886 0.264 2.57 1.452 3.757 0.798 0.798 1.865 1.451 2.372 1.451 0.506 0 1.428 0.355 2.048 0.79 0.894 0.626 1.007 0.934 0.546 1.49 -0.797 0.96 -1.835 0.878 -4.295 -0.34z" fill="#feb0b0"/>
    <path d="M0.382 47.89c4.512 -30.432 6.553 -43.59 6.798 -43.836 0.167 -0.166 3.285 -1.102 6.93 -2.078l6.626 -1.776 6.596 1.668c3.627 0.918 6.853 1.828 7.169 2.023 0.48 0.296 2.073 10.196 7.086 43.999l0.313 2.11 -20.916 0 -20.915 0 0.313 -2.11zm39.964 0.745c-0.008 -1.071 -6.43 -43.466 -6.61 -43.647 -0.118 -0.117 -3.035 -0.965 -6.483 -1.884l-6.269 -1.671 -6.269 1.67c-3.448 0.92 -6.345 1.748 -6.437 1.84 -0.154 0.154 -6.655 42.822 -6.657 43.692 -0.001 0.204 8.713 0.372 19.363 0.372 10.65 0 19.364 -0.168 19.362 -0.372zm-18.626 -9.248c-0.824 -0.364 -2.248 -1.516 -3.164 -2.56 -1.613 -1.837 -1.658 -2 -1.423 -5.275 0.133 -1.86 0.566 -3.868 0.962 -4.465 0.631 -0.951 0.628 -1.344 -0.029 -3.17 -0.64 -1.78 -0.654 -2.476 -0.098 -4.794 0.575 -2.397 0.553 -2.9 -0.19 -4.335 -0.98 -1.896 -0.774 -2.351 0.66 -1.455 1.692 1.056 2.223 3.077 1.879 7.149 -0.172 2.034 -0.148 3.691 0.053 3.682 0.201 -0.008 0.8 -0.343 1.33 -0.744 1.26 -0.954 3.073 -0.932 3.446 0.042 0.201 0.523 -0.209 1.042 -1.275 1.613 -0.864 0.464 -2.357 1.54 -3.317 2.392 -1.572 1.395 -1.747 1.806 -1.747 4.114 0 3.026 1.22 4.577 4.412 5.614 1.438 0.466 1.986 0.918 1.986 1.635 0 1.232 -1.438 1.462 -3.485 0.557z" fill="#fe8e8e"/>
    <path d="M0.405 48.138c0.158 -1.024 1.694 -11.31 3.414 -22.856 1.72 -11.546 3.243 -21.11 3.384 -21.25 0.142 -0.142 3.3 -1.056 7.02 -2.03l6.761 -1.773 6.762 1.772c3.72 0.975 6.878 1.889 7.02 2.03 0.14 0.142 1.664 9.705 3.383 21.251 1.72 11.547 3.257 21.832 3.414 22.856l0.287 1.862 -20.866 0 -20.866 0 0.287 -1.862zm39.943 0.248c-0.001 -1.35 -6.364 -43.15 -6.605 -43.39 -0.142 -0.142 -3.07 -1.021 -6.508 -1.954l-6.25 -1.697 -6.251 1.697c-3.438 0.933 -6.355 1.8 -6.482 1.927 -0.223 0.223 -6.63 42.165 -6.631 43.417 -0.001 0.486 4.202 0.62 19.363 0.62 15.162 0 19.365 -0.134 19.364 -0.62zm-18.863 -9.423c-3.267 -1.652 -4.61 -3.912 -4.363 -7.335 0.108 -1.502 0.526 -3.401 0.928 -4.22 0.627 -1.279 0.635 -1.771 0.054 -3.476 -0.549 -1.61 -0.564 -2.52 -0.081 -4.797 0.51 -2.41 0.481 -3.04 -0.21 -4.425 -1.13 -2.266 -0.5 -2.51 1.295 -0.5 1.512 1.693 1.516 1.711 1.206 6.071l-0.31 4.374 1.607 -0.98c2.082 -1.27 3.346 -1.27 3.346 -0.001 0 0.635 -0.66 1.32 -1.862 1.937 -3.152 1.617 -4.345 3.268 -4.345 6.017 0 2.897 1.323 4.58 4.414 5.61 1.437 0.478 2.04 0.96 2.04 1.624 0 1.36 -1.169 1.391 -3.72 0.101z" fill="#fe7070"/>
    <path d="M0.336 48.635c0.157 -0.751 1.623 -10.415 3.257 -21.476 1.634 -11.06 3.091 -20.804 3.239 -21.652 0.265 -1.53 0.333 -1.56 7.21 -3.373l6.942 -1.828 6.942 1.828c6.878 1.812 6.945 1.844 7.21 3.373 0.148 0.848 1.606 10.592 3.24 21.652 1.634 11.06 3.1 20.725 3.256 21.476l0.286 1.365 -20.934 0 -20.933 0 0.285 -1.365zm40.013 -0.358c0 -1.642 -6.025 -41.8 -6.41 -42.717 -0.325 -0.778 -1.799 -1.344 -6.809 -2.615l-6.394 -1.622 -6.202 1.67c-5.87 1.58 -6.222 1.748 -6.587 3.112 -0.418 1.566 -6.327 40.935 -6.327 42.156 0 0.65 2.472 0.746 19.364 0.746 16.712 0 19.365 -0.1 19.365 -0.73zm-18.84 -9.314c-3.27 -1.673 -4.254 -3.304 -4.224 -7 0.016 -1.875 0.35 -3.677 0.861 -4.639 0.766 -1.441 0.77 -1.728 0.06 -3.428 -0.66 -1.579 -0.685 -2.308 -0.17 -4.896 0.526 -2.65 0.498 -3.248 -0.223 -4.64 -0.997 -1.929 -0.425 -2.075 1.223 -0.313 1.11 1.188 1.197 1.643 1.121 5.917l-0.082 4.63 1.7 -1.003c0.935 -0.552 2.034 -0.875 2.441 -0.72 1.395 0.536 0.74 1.744 -1.653 3.047 -3.758 2.045 -5.046 5.346 -3.359 8.608 0.699 1.35 1.536 1.904 4.658 3.08 1.057 0.398 1.583 0.898 1.484 1.41 -0.232 1.207 -1.404 1.191 -3.836 -0.053z" fill="#fe4e4e"/>
    <path d="M0.368 48.883c0.14 -0.615 1.714 -10.935 3.496 -22.935 1.782 -11.999 3.29 -21.862 3.353 -21.918 0.062 -0.056 3.185 -0.907 6.94 -1.892l6.827 -1.79 6.828 1.79c3.755 0.985 6.878 1.836 6.94 1.892 0.062 0.056 1.571 9.92 3.353 21.918 1.782 12 3.355 22.32 3.496 22.935l0.257 1.117 -20.874 0 -20.873 0 0.257 -1.117zm39.99 -0.745c0.023 -2.417 -6.19 -42.657 -6.66 -43.136 -0.302 -0.307 -3.28 -1.279 -6.618 -2.16l-6.069 -1.601 -6.286 1.661c-4.888 1.292 -6.378 1.883 -6.698 2.657 -0.422 1.021 -6.407 40.682 -6.407 42.46 0 0.97 0.358 0.988 19.364 0.988 18.109 0 19.366 -0.056 19.373 -0.869zm-19.92 -9.692c-2.515 -1.68 -3.545 -4.011 -3.197 -7.233 0.157 -1.457 0.614 -3.282 1.013 -4.056 0.641 -1.239 0.638 -1.62 -0.024 -3.205 -0.635 -1.52 -0.657 -2.257 -0.143 -4.747 0.536 -2.596 0.505 -3.166 -0.264 -4.777l-0.872 -1.83 1.148 0.755c2.042 1.344 2.456 2.763 2.114 7.243l-0.314 4.113 2.014 -1.05c1.108 -0.577 2.246 -0.906 2.529 -0.731 1.078 0.666 0.427 1.639 -1.973 2.945 -2.724 1.482 -3.968 3.32 -3.965 5.855 0.002 2.24 1.634 4.765 3.334 5.16 1.716 0.398 3.615 1.554 3.615 2.2 0 0.912 -3.327 0.486 -5.016 -0.642z" fill="#fe2f2f"/>
    <path d="M0.626 48.726c0 -0.817 6.496 -44.626 6.628 -44.695 0.041 -0.023 3.148 -0.841 6.903 -1.82l6.827 -1.78 6.828 1.78c3.755 0.979 6.861 1.798 6.903 1.82 0.132 0.069 6.627 43.878 6.627 44.695 0 0.693 -2.216 0.777 -20.358 0.777 -18.141 0 -20.358 -0.084 -20.358 -0.777zm39.928 -1.085c-0.147 -0.75 -1.653 -10.729 -3.346 -22.173l-3.08 -20.808 -6.447 -1.725 -6.448 -1.725 -6.6 1.674c-5.453 1.383 -6.64 1.847 -6.829 2.671 -0.126 0.55 -1.566 10.048 -3.2 21.108 -1.633 11.06 -3.054 20.612 -3.156 21.227l-0.187 1.117 19.78 0 19.78 0 -0.267 -1.366zm-19.9 -9.091c-2.47 -1.582 -3.365 -3.315 -3.323 -6.425 0.02 -1.502 0.4 -3.59 0.845 -4.638 0.527 -1.242 0.656 -2.194 0.37 -2.731 -0.653 -1.225 -0.747 -2.982 -0.325 -6.092 0.295 -2.179 0.198 -3.134 -0.446 -4.379 -0.817 -1.58 -0.815 -1.588 0.242 -1.022 1.838 0.984 2.587 3.634 2.198 7.783l-0.345 3.678 2.08 -1.084c1.631 -0.85 2.205 -0.953 2.667 -0.477 0.63 0.65 0.366 0.918 -3.129 3.163 -2.32 1.49 -3.07 3.06 -2.831 5.928 0.23 2.759 1.24 4.073 3.753 4.882 3.308 1.065 4.119 2.442 1.43 2.428 -0.888 -0.004 -2.321 -0.46 -3.185 -1.014z" fill="#fe0505"/>
</svg>
