<svg xmlns="http://www.w3.org/2000/svg" width="42.172" height="50">
    <path d="M7.635 4.498l-6.729 44.856 40.488 -0.236 -6.846 -44.502 -14.047 -3.895z" fill="#fff"/>
    <path d="M0 49.883c0.323 -3.031 6.933 -45.78 7.105 -45.952 0.139 -0.139 3.327 -1.08 7.084 -2.092l6.832 -1.839 6.854 1.845c3.77 1.015 6.993 2.011 7.165 2.214 0.172 0.202 1.736 10.043 3.477 21.869 1.741 11.826 3.276 22.08 3.41 22.787l0.245 1.285 -21.092 0c-11.601 0 -21.087 -0.053 -21.08 -0.117zm40.166 -2.337c-0.01 -0.578 -1.43 -10.409 -3.155 -21.846l-3.136 -20.794 -6.427 -1.716 -6.427 -1.717 -6.412 1.714 -6.412 1.714 -3.143 20.796c-1.728 11.439 -3.155 21.27 -3.17 21.85l-0.027 1.05 19.164 0 19.164 0 -0.019 -1.05zm-14.335 -2.8c-1.082 -0.793 -1.875 -1.59 -1.763 -1.772 0.113 -0.182 1.104 -0.165 2.202 0.037 2.358 0.435 3.304 -0.183 4.135 -2.7 0.475 -1.44 0.425 -1.743 -0.425 -2.594 -0.962 -0.962 -0.977 -0.962 -6.355 -0.119 -4.36 0.684 -5.527 0.733 -6.1 0.256 -1.204 -0.999 -0.799 -1.41 1.393 -1.41 1.157 0 2.103 -0.21 2.103 -0.467 0 -0.257 -0.578 -0.47 -1.285 -0.473 -0.707 -0.004 -1.759 -0.134 -2.337 -0.289 -0.949 -0.254 -1.052 -0.116 -1.052 1.41 0 0.929 -0.22 1.69 -0.491 1.69 -0.971 0 -1.824 -3.084 -1.533 -5.542 0.21 -1.777 0.089 -2.669 -0.483 -3.542 -1.435 -2.19 -0.485 -2.919 1.632 -1.253 0.967 0.76 1.485 0.824 3.78 0.465 1.462 -0.23 3.208 -0.626 3.88 -0.882 1.812 -0.689 3.49 -0.564 3.815 0.284 0.351 0.915 -0.593 1.572 -2.276 1.581 -0.691 0.004 -1.387 0.218 -1.546 0.475 -0.172 0.278 0.375 0.467 1.347 0.467 1.774 0 2.668 0.793 1.634 1.448 -0.354 0.224 -1.223 0.411 -1.93 0.415 -1.932 0.01 -1.545 0.864 0.468 1.03 1.182 0.098 1.753 0.374 1.753 0.847 0 0.473 -0.571 0.748 -1.753 0.846 -0.964 0.08 -1.753 0.362 -1.753 0.628 0 0.558 4.41 0.082 5.744 -0.62 1.223 -0.642 2.51 -0.067 3.887 1.739l1.217 1.595 -1.1 2.656c-1.173 2.83 -3.172 5.333 -4.21 5.27 -0.346 -0.02 -1.516 -0.685 -2.598 -1.477zm-6.009 -11.106c0.66 0 1.2 -0.21 1.2 -0.467 0 -0.257 -0.51 -0.467 -1.131 -0.467 -0.622 0 -1.463 -0.128 -1.87 -0.284 -1.286 -0.494 -0.8 -1.119 0.87 -1.119 0.884 0 1.738 -0.21 1.897 -0.467 0.16 -0.26 -0.191 -0.47 -0.79 -0.474 -0.594 -0.004 -1.553 -0.133 -2.132 -0.288 -0.99 -0.266 -1.051 -0.143 -1.051 2.126 0 2.236 0.064 2.374 0.904 1.924 0.497 -0.266 1.443 -0.484 2.103 -0.484zm-8.326 11.778c-0.319 -0.516 -1.678 -4.451 -1.686 -4.883 -0.015 -0.783 1.1 -0.267 2.377 1.1 1.633 1.75 1.893 4.158 0.448 4.158 -0.499 0 -1.011 -0.168 -1.139 -0.375zm3.465 -3.67c-0.53 -1.197 -0.867 -2.271 -0.75 -2.388 0.117 -0.117 0.843 0.236 1.614 0.785 1.454 1.035 2.198 2.49 1.693 3.307 -0.638 1.033 -1.642 0.364 -2.557 -1.704zm4.222 -0.66c-1.611 -2.005 -1.64 -2.583 -0.105 -2.096 1.565 0.497 3.346 2.144 3.346 3.096 0 1.527 -1.61 1.03 -3.241 -1zm4.888 -0.66c-1.023 -0.874 -1.728 -1.722 -1.567 -1.882 0.447 -0.448 3.942 0.62 4.592 1.402 0.665 0.802 0.308 2.114 -0.568 2.088 -0.33 -0.01 -1.435 -0.733 -2.457 -1.608zm-8.606 -15.84c-0.385 -0.463 -0.456 -1.646 -0.23 -3.853l0.327 -3.184 -1.895 1.501c-3.648 2.89 -5.1 1.339 -1.924 -2.054 3.797 -4.054 4.137 -4.434 4.137 -4.617 0 -0.1 -0.716 -0.067 -1.591 0.075 -1.294 0.21 -1.69 0.074 -2.12 -0.73 -0.483 -0.903 -0.41 -0.99 0.852 -0.99 0.759 0 1.713 -0.127 2.12 -0.283 0.935 -0.359 0.956 -1.759 0.038 -2.52 -1.013 -0.84 -0.863 -1.403 0.374 -1.403 1.36 0 2.196 0.825 2.196 2.164 0 0.724 0.32 1.089 1.047 1.192 0.576 0.083 1.117 0.518 1.203 0.968 0.121 0.635 -0.165 0.818 -1.28 0.818 -1.244 0 -1.437 0.167 -1.437 1.24 0 1.198 0.032 1.213 0.903 0.424 0.654 -0.591 1.298 -0.731 2.327 -0.505 0.783 0.172 1.849 0.178 2.369 0.013 1.262 -0.401 1.25 -2.528 -0.024 -4.147 -0.685 -0.871 -0.788 -1.248 -0.35 -1.287 2.17 -0.195 3.656 1.05 3.656 3.061 0 1.426 0.043 1.455 1.914 1.277 1.665 -0.16 1.893 -0.07 1.748 0.688 -0.107 0.56 -0.792 1.027 -1.914 1.305 -2.072 0.513 -2.508 1.904 -0.463 1.474 1.573 -0.33 2.69 0.309 2.303 1.317 -0.188 0.491 -0.855 0.749 -1.937 0.749 -1.27 0 -1.651 0.191 -1.651 0.83 0 0.687 0.323 0.8 1.87 0.652 1.16 -0.11 1.87 0.018 1.87 0.338 0 0.284 0.006 0.675 0.015 0.867 0.008 0.193 -0.764 0.456 -1.717 0.585 -0.952 0.128 -1.828 0.526 -1.945 0.883 -0.171 0.518 0.283 0.602 2.246 0.413 2 -0.192 2.626 -0.07 3.35 0.653 1.375 1.375 0.614 1.814 -3.035 1.748 -1.845 -0.033 -4.355 0.092 -5.576 0.278 -1.7 0.259 -2.495 0.158 -3.39 -0.427 -1.723 -1.13 -1.445 -1.445 1.277 -1.445 2.028 0 2.475 -0.151 2.62 -0.886 0.13 -0.666 -0.021 -0.812 -0.605 -0.588 -0.883 0.339 -3.524 -0.866 -3.524 -1.608 0 -0.267 0.403 -0.359 0.895 -0.202 1.078 0.342 3.312 -0.157 3.312 -0.74 0 -0.229 -0.584 -0.416 -1.298 -0.416 -1.43 0 -3.532 -1.24 -3.15 -1.858 0.133 -0.216 0.66 -0.283 1.169 -0.15 1.397 0.366 3.279 -0.252 3.279 -1.077 0 -0.57 -0.312 -0.66 -1.421 -0.417 -0.935 0.205 -1.787 0.073 -2.488 -0.387 -1.011 -0.662 -1.108 -0.621 -1.844 0.777 -0.519 0.984 -0.82 2.866 -0.901 5.645 -0.124 4.169 -0.58 5.197 -1.707 3.84zm-0.143 -9.423c-0.144 -0.144 -0.405 0.116 -0.58 0.576 -0.254 0.667 -0.2 0.72 0.26 0.262 0.32 -0.317 0.464 -0.694 0.32 -0.838z" fill="#d0d0d0"/>
    <path d="M0.25 48.715c0.131 -0.707 1.69 -11.036 3.464 -22.952 1.775 -11.917 3.292 -21.731 3.372 -21.81 0.08 -0.077 3.244 -0.979 7.03 -2.002l6.883 -1.86 6.884 1.834c3.786 1.01 6.977 1.928 7.09 2.042 0.115 0.114 1.641 9.834 3.393 21.601 1.752 11.767 3.308 22.077 3.458 22.913l0.274 1.519 -21.044 0 -21.043 0 0.239 -1.285zm39.207 -7.012c-0.572 -3.792 -2.04 -13.634 -3.264 -21.872l-2.224 -14.979 -6.59 -1.722 -6.591 -1.722 -6.31 1.743c-5.234 1.446 -6.335 1.903 -6.455 2.678 -0.08 0.514 -1.563 10.347 -3.297 21.852l-3.154 20.917 19.463 0 19.463 0 -1.04 -6.895zm-12.22 3.92c-0.205 -0.35 -1.057 -0.987 -1.892 -1.414 -0.836 -0.427 -1.52 -0.892 -1.52 -1.032 0 -0.14 1.091 -0.187 2.424 -0.105 2.301 0.143 2.479 0.07 3.506 -1.438 1.248 -1.832 1.347 -2.778 0.423 -4.042 -0.644 -0.88 -0.784 -0.883 -6.136 -0.105 -3.807 0.553 -5.745 0.653 -6.353 0.328 -1.486 -0.796 -0.971 -1.37 1.229 -1.37 1.157 0 2.103 -0.21 2.103 -0.468 0 -0.257 -0.508 -0.467 -1.13 -0.467 -2.937 0 -3.485 -1.251 -0.74 -1.69 2.038 -0.326 2.561 -1.114 0.74 -1.114 -0.622 0 -1.463 -0.128 -1.87 -0.284 -1.286 -0.494 -0.8 -1.119 0.87 -1.119 0.884 0 1.738 -0.21 1.897 -0.467 0.159 -0.257 -0.13 -0.468 -0.643 -0.468 -0.513 0 -1.517 -0.222 -2.232 -0.494 -1.041 -0.395 -1.164 -0.58 -0.615 -0.927 0.377 -0.239 1.256 -0.437 1.954 -0.441 0.698 -0.004 2.248 -0.34 3.443 -0.745 2.357 -0.8 4.403 -0.575 4.403 0.485 0 0.407 -0.757 0.815 -1.95 1.05 -2.425 0.48 -2.94 1.432 -0.629 1.162 1.236 -0.144 1.644 -0.018 1.644 0.51 0 0.761 -0.952 1.27 -2.375 1.27 -0.494 0 -0.897 0.21 -0.897 0.468 0 0.257 0.724 0.467 1.608 0.467 1.751 0 2.635 0.796 1.607 1.447 -0.354 0.225 -1.223 0.412 -1.93 0.415 -0.707 0.004 -1.285 0.218 -1.285 0.475 0 0.651 1.688 0.583 4.659 -0.188 2.891 -0.75 3.872 -0.386 5.25 1.944 0.763 1.294 0.742 1.417 -0.803 4.61 -1.057 2.186 -1.991 3.466 -2.798 3.833 -1.508 0.687 -1.508 0.687 -1.961 -0.086zm-15.782 -0.38c-1.162 -3.333 -1.576 -4.823 -1.39 -5.009 0.12 -0.12 0.962 0.5 1.869 1.379 1.175 1.14 1.61 1.935 1.512 2.769 -0.148 1.26 -1.63 1.901 -1.991 0.862zm4.25 -2.371c-0.9 -1.43 -1.382 -3.155 -0.879 -3.155 0.85 0 3.042 2.757 2.765 3.478 -0.394 1.028 -1.111 0.905 -1.886 -0.323zm3.55 -1.834c-0.825 -1.073 -1.418 -2.032 -1.32 -2.13 0.322 -0.322 3.302 1.11 3.957 1.899 0.72 0.87 0.406 2.182 -0.522 2.182 -0.339 0 -1.29 -0.878 -2.115 -1.95zm4.844 -0.64l-1.831 -1.616 1.662 0c1.997 0 3.924 1.378 3.494 2.498 -0.44 1.146 -1.283 0.922 -3.325 -0.882zm-9.138 -2.988c-0.266 -0.497 -0.484 -2.305 -0.484 -4.017 0 -2.09 -0.26 -3.556 -0.793 -4.457 -0.959 -1.624 -0.682 -2.022 0.968 -1.395 1.901 0.723 2.326 2.199 1.945 6.764 -0.335 4.024 -0.736 4.786 -1.636 3.105zm0.52 -12.99c-0.256 -0.478 -0.347 -2.174 -0.202 -3.77 0.145 -1.596 0.158 -2.902 0.029 -2.902 -0.13 0 -1.029 0.631 -2 1.402 -0.97 0.772 -2.028 1.403 -2.35 1.403 -1.511 0 -0.868 -1.517 1.91 -4.5 1.644 -1.767 2.994 -3.393 3 -3.614 0.007 -0.22 -0.534 -0.264 -1.202 -0.097 -1.178 0.296 -2.526 -0.341 -2.526 -1.195 0 -0.226 0.743 -0.41 1.651 -0.41 2.029 0 2.557 -1.023 1.49 -2.883 -0.739 -1.287 -0.73 -1.324 0.293 -1.324 1.34 0 2.175 0.832 2.175 2.164 0 0.724 0.32 1.089 1.047 1.192 0.576 0.083 1.117 0.518 1.203 0.968 0.121 0.635 -0.165 0.818 -1.28 0.818 -1.24 0 -1.437 0.169 -1.437 1.226 0 1.087 0.087 1.153 0.773 0.584 0.433 -0.359 1.824 -0.642 3.155 -0.642 2.362 0 2.383 -0.013 2.532 -1.57 0.108 -1.127 -0.145 -1.885 -0.899 -2.688l-1.05 -1.117 1.412 0c1.923 0 3.163 1.428 2.803 3.23 -0.274 1.368 -0.255 1.383 1.692 1.297 2.737 -0.12 2.724 1.137 -0.018 1.679 -2.533 0.5 -2.814 1.825 -0.352 1.66 1.593 -0.108 3.058 0.685 2.43 1.314 -0.173 0.172 -1.104 0.442 -2.068 0.599 -1.173 0.19 -1.806 0.563 -1.914 1.124 -0.14 0.727 0.065 0.797 1.519 0.524 1.075 -0.201 1.93 -0.108 2.372 0.258 1.04 0.864 0.395 1.403 -1.679 1.403 -1.242 0 -1.948 0.238 -2.133 0.721 -0.435 1.133 0.148 1.342 2.34 0.84 2.471 -0.565 4.042 -0.077 4.042 1.255 0 0.912 -0.223 0.968 -3.388 0.851 -1.864 -0.068 -4.44 0.032 -5.726 0.224 -1.972 0.294 -2.52 0.201 -3.506 -0.592l-1.168 -0.941 2.687 -0.01c2.373 -0.01 2.688 -0.12 2.688 -0.946 0 -0.718 -0.312 -0.935 -1.345 -0.935 -0.74 0 -1.607 -0.315 -1.927 -0.701 -0.491 -0.592 -0.397 -0.701 0.606 -0.701 1.623 0 2.666 -0.452 2.666 -1.154 0 -0.366 -0.42 -0.506 -1.117 -0.373 -0.626 0.12 -1.699 -0.165 -2.441 -0.649l-1.324 -0.862 2.32 -0.234c1.794 -0.18 2.358 -0.433 2.487 -1.114 0.142 -0.744 -0.028 -0.831 -1.097 -0.563 -0.836 0.21 -1.657 0.06 -2.424 -0.442 -0.638 -0.418 -1.21 -0.69 -1.274 -0.606 -1.494 2.013 -1.674 2.714 -1.674 6.511 0 2.938 -0.183 4.197 -0.669 4.6 -0.531 0.442 -0.763 0.378 -1.133 -0.313zm-0.175 -9.272c-0.157 -0.156 -0.537 0.207 -0.845 0.807 -0.535 1.044 -0.523 1.057 0.285 0.285 0.464 -0.444 0.716 -0.935 0.56 -1.092z" fill="#afafaf"/>
    <path d="M0.298 48.948c0.1 -0.578 1.652 -10.923 3.449 -22.988 1.796 -12.066 3.319 -21.99 3.383 -22.054 0.064 -0.064 3.216 -0.92 7.004 -1.901l6.887 -1.785 6.888 1.785c3.788 0.981 6.956 1.853 7.04 1.938 0.085 0.084 1.605 9.903 3.38 21.82 1.773 11.916 3.332 22.245 3.464 22.952l0.239 1.285 -20.958 0 -20.957 0 0.181 -1.052zm40.163 -1.168c-0.147 -0.707 -1.654 -10.646 -3.35 -22.086 -1.695 -11.44 -3.117 -20.83 -3.16 -20.868 -0.041 -0.037 -2.964 -0.831 -6.494 -1.765l-6.419 -1.698 -6.552 1.725c-3.774 0.993 -6.552 1.96 -6.552 2.28 0 0.676 -5.982 40.608 -6.354 42.412l-0.264 1.285 19.705 0 19.706 0 -0.266 -1.285zm-13.177 -2.235c-0.488 -0.37 -1.413 -1.099 -2.056 -1.619l-1.168 -0.945 2.416 0.293 2.416 0.293 0.973 -1.907c1.25 -2.45 1.229 -3.628 -0.08 -4.459 -0.921 -0.585 -1.676 -0.556 -6.093 0.23 -3.692 0.658 -5.288 0.767 -5.96 0.407 -1.527 -0.817 -1.037 -1.393 1.186 -1.393 1.598 0 2.103 -0.176 2.103 -0.733 0 -0.52 -0.271 -0.646 -0.934 -0.436 -1.043 0.331 -2.805 -0.091 -2.805 -0.673 0 -0.206 0.841 -0.51 1.87 -0.675 2.42 -0.387 2.386 -1.02 -0.076 -1.414 -2.218 -0.355 -1.94 -1.065 0.507 -1.294 2.268 -0.213 2.31 -1.107 0.052 -1.107 -2.667 0 -3.493 -0.996 -1.128 -1.362 0.997 -0.155 2.923 -0.603 4.28 -0.996 2.606 -0.755 4.31 -0.552 4.31 0.513 0 0.401 -0.786 0.759 -2.103 0.956 -2.393 0.36 -2.861 1.39 -0.628 1.383 2.09 -0.007 2.23 1.04 0.191 1.423 -2.17 0.407 -2.244 1.49 -0.085 1.238 0.918 -0.107 1.727 0.052 1.93 0.38 0.39 0.634 -0.57 1.418 -1.641 1.339 -1.356 -0.1 -1.87 0.06 -1.87 0.587 0 0.604 4.74 0.207 6.01 -0.503 0.873 -0.489 2.223 0.127 3.42 1.56 1.073 1.282 1.054 2.073 -0.115 4.8 -1.603 3.74 -3.417 5.257 -4.922 4.114zm-15.504 -0.324c-0.69 -0.832 -1.992 -4.71 -1.685 -5.017 0.516 -0.516 3.506 3.304 3.36 4.292 -0.177 1.198 -0.99 1.55 -1.675 0.725zm4.38 -1.638c-0.63 -0.627 -1.707 -3.53 -1.416 -3.82 0.398 -0.4 3.093 2.73 2.886 3.35 -0.225 0.676 -1.01 0.927 -1.47 0.47zm3.93 -1.62c-2.48 -2.633 -2.05 -3.53 0.846 -1.765 0.936 0.571 1.492 1.25 1.403 1.713 -0.234 1.204 -1.143 1.225 -2.25 0.051zm4.268 -1.42c-1.929 -1.477 -1.956 -1.532 -0.806 -1.674 1.66 -0.205 3.78 0.907 3.78 1.984 0 1.415 -0.833 1.328 -2.974 -0.31zm-9.3 -3.157c-0.322 -0.515 -0.58 -2.424 -0.58 -4.287 0 -2.473 -0.205 -3.584 -0.777 -4.216 -0.964 -1.065 -0.57 -1.524 0.975 -1.136 1.884 0.473 2.268 1.77 1.9 6.415 -0.18 2.284 -0.465 4.153 -0.633 4.153 -0.168 0 -0.567 -0.418 -0.886 -0.929zm0.287 -13.177c-0.036 -0.34 -0.012 -2.084 0.055 -3.877l0.12 -3.258 -1.924 1.74c-2.1 1.895 -2.745 2.108 -3.156 1.039 -0.167 -0.437 0.802 -1.907 2.586 -3.919 1.57 -1.77 2.854 -3.375 2.854 -3.565 0 -0.19 -0.6 -0.227 -1.334 -0.08 -1.232 0.246 -2.406 -0.315 -2.406 -1.15 0 -0.19 0.79 -0.411 1.753 -0.49 1.534 -0.128 1.747 -0.292 1.708 -1.314 -0.025 -0.643 -0.206 -1.537 -0.401 -1.987 -0.274 -0.63 -0.133 -0.818 0.613 -0.818 1.038 0 1.936 1.25 1.936 2.694 0 0.618 0.318 0.875 1.052 0.849 1.556 -0.055 1.342 1.332 -0.234 1.513 -1.028 0.118 -1.285 0.387 -1.285 1.343 0 1.04 0.096 1.114 0.745 0.576 0.41 -0.34 1.83 -0.629 3.155 -0.642 2.388 -0.023 2.411 -0.037 2.56 -1.593 0.108 -1.127 -0.145 -1.885 -0.899 -2.688l-1.05 -1.117 1.473 0c1.824 0 3.089 1.644 2.64 3.432 -0.29 1.153 -0.23 1.191 1.731 1.101 1.528 -0.07 2.032 0.08 2.032 0.602 0 0.382 -0.421 0.759 -0.935 0.836 -2.513 0.38 -3.038 0.635 -3.038 1.472 0 0.754 0.262 0.846 1.809 0.639 1.13 -0.152 1.937 -0.036 2.15 0.31 0.474 0.767 0.064 1.057 -1.963 1.387 -1.201 0.195 -1.806 0.559 -1.92 1.156 -0.148 0.767 0.038 0.833 1.549 0.55 1.083 -0.204 1.961 -0.12 2.378 0.226 1.042 0.864 0.325 1.377 -1.928 1.377 -1.802 0 -2.075 0.13 -2.075 0.988 0 0.927 0.162 0.969 2.595 0.665 2.714 -0.34 3.948 0.129 3.948 1.497 0 0.58 -0.508 0.643 -3.027 0.374 -1.907 -0.204 -3.991 -0.109 -5.633 0.259 -2.458 0.55 -2.664 0.525 -3.62 -0.432l-1.015 -1.014 2.44 0c2.13 0 2.442 -0.12 2.442 -0.935 0 -0.718 -0.312 -0.935 -1.345 -0.935 -0.74 0 -1.596 -0.302 -1.902 -0.67 -0.465 -0.561 -0.263 -0.696 1.224 -0.819 1.291 -0.106 1.826 -0.384 1.945 -1.01 0.13 -0.682 -0.037 -0.8 -0.79 -0.56 -0.563 0.178 -1.59 -0.043 -2.498 -0.54l-1.542 -0.841 2.567 -0.234c2.043 -0.186 2.6 -0.415 2.735 -1.12 0.146 -0.772 -0.044 -0.853 -1.465 -0.622 -1.08 0.175 -1.98 0.022 -2.655 -0.451 -1.694 -1.187 -2.536 0.584 -2.818 5.927 -0.197 3.743 -0.362 4.46 -1.052 4.592 -0.45 0.086 -0.848 -0.122 -0.885 -0.463zm-0.04 -9.06c-0.156 -0.157 -0.536 0.206 -0.844 0.806 -0.536 1.044 -0.523 1.057 0.285 0.285 0.464 -0.444 0.716 -0.935 0.56 -1.092z" fill="#8f8f8f"/>
    <path d="M0.455 49.105c0 -0.891 6.555 -45.102 6.701 -45.194 0.49 -0.31 13.116 -3.457 13.865 -3.457 0.807 0 13.475 3.18 13.899 3.489 0.06 0.044 1.58 9.951 3.376 22.017 1.797 12.065 3.348 22.41 3.448 22.988l0.182 1.052 -20.736 0c-20.12 0 -20.735 -0.027 -20.735 -0.895zm40.025 -1.559c-0.153 -0.835 -1.653 -10.76 -3.333 -22.056 -1.681 -11.295 -3.105 -20.584 -3.164 -20.642 -0.06 -0.058 -2.997 -0.883 -6.527 -1.834l-6.42 -1.728 -6.551 1.753c-3.603 0.964 -6.551 1.915 -6.551 2.114 0 0.459 -5.994 40.356 -6.369 42.393l-0.28 1.52 19.736 0 19.736 0 -0.277 -1.52zm-28.67 -2.321c-0.26 -0.33 -0.805 -1.6 -1.211 -2.822 -0.713 -2.14 -0.708 -2.205 0.13 -1.756 1.367 0.731 2.869 2.895 2.718 3.914 -0.17 1.135 -1.002 1.472 -1.638 0.664zm15.054 0.075c-0.257 -0.246 -0.993 -0.857 -1.636 -1.359l-1.168 -0.91 2.364 0.267c2.55 0.288 2.888 0.035 4.3 -3.221 0.48 -1.11 0.416 -1.435 -0.496 -2.494 -1.036 -1.204 -1.083 -1.212 -4.076 -0.659 -1.665 0.309 -3.955 0.73 -5.09 0.935 -2.18 0.396 -4.505 -0.152 -4.014 -0.946 0.159 -0.257 1.118 -0.468 2.131 -0.468 1.346 0 1.842 -0.194 1.842 -0.719 0 -0.46 -0.377 -0.686 -1.051 -0.628 -1.755 0.15 -2.688 -0.03 -2.688 -0.523 0 -0.257 0.473 -0.47 1.052 -0.474 1.746 -0.01 3.205 -0.548 2.999 -1.104 -0.107 -0.289 -0.47 -0.46 -0.807 -0.38 -0.917 0.219 -2.777 -0.335 -2.777 -0.827 0 -0.237 0.773 -0.496 1.717 -0.575 2.427 -0.205 2.543 -1.186 0.141 -1.186 -2.862 0 -3.334 -0.875 -0.685 -1.273 1.197 -0.18 3.054 -0.636 4.125 -1.014 2.088 -0.737 4.237 -0.505 3.93 0.423 -0.104 0.312 -1.065 0.755 -2.137 0.984 -2.306 0.494 -2.662 1.624 -0.48 1.522 2.06 -0.097 2.206 0.92 0.187 1.299 -2.237 0.42 -2.2 1.56 0.048 1.49 0.986 -0.03 1.79 0.193 1.909 0.53 0.138 0.396 -0.328 0.585 -1.443 0.585 -1.573 0 -2.593 0.667 -1.972 1.29 0.16 0.16 1.887 0.023 3.837 -0.305l3.545 -0.595 1.352 1.295c1.597 1.53 1.654 2.185 0.43 4.953 -1.754 3.966 -3.852 5.556 -5.389 4.087zm-10.714 -1.727c-0.623 -0.619 -1.694 -3.523 -1.406 -3.81 0.49 -0.49 2.996 2.705 2.71 3.453 -0.298 0.775 -0.757 0.9 -1.304 0.357zm3.47 -2.454c-1.56 -1.969 -1.293 -2.32 0.9 -1.186 1.366 0.706 2.104 1.887 1.644 2.63 -0.477 0.772 -1.046 0.448 -2.545 -1.444zm4.687 -0.616c-1.887 -1.444 -1.91 -1.492 -0.755 -1.634 1.51 -0.187 3.723 0.857 3.914 1.844 0.267 1.39 -1.196 1.293 -3.159 -0.21zm-9.012 -3.11c-0.585 -0.828 -0.818 -2.06 -0.818 -4.34 0 -2.192 -0.244 -3.557 -0.783 -4.38 -0.766 -1.17 -0.759 -1.192 0.304 -1.035 0.598 0.088 1.496 0.71 1.996 1.382 0.82 1.102 0.87 1.628 0.514 5.375 -0.392 4.124 -0.4 4.145 -1.213 2.998zm0.065 -13.184c-0.028 -0.34 -0.008 -2.072 0.046 -3.848l0.097 -3.23 -2 1.71c-2.205 1.888 -2.667 2.043 -3.059 1.022 -0.163 -0.424 0.831 -1.922 2.586 -3.896 1.567 -1.764 2.85 -3.35 2.85 -3.525 0 -0.175 -0.585 -0.273 -1.299 -0.219 -0.714 0.055 -1.556 -0.06 -1.87 -0.254 -1.116 -0.69 -0.544 -1.232 1.3 -1.232 1.757 0 1.869 -0.083 1.869 -1.375 0 -0.756 -0.21 -1.504 -0.468 -1.663 -0.785 -0.485 -0.52 -1.169 0.451 -1.169 1.15 0 2.04 1.585 1.625 2.893 -0.256 0.805 -0.163 0.93 0.5 0.675 0.899 -0.344 2.238 0.503 1.832 1.16 -0.14 0.227 -0.77 0.414 -1.397 0.414 -0.91 0 -1.141 0.24 -1.141 1.185 0 1.088 0.086 1.138 1.052 0.608 0.578 -0.317 2.103 -0.588 3.388 -0.6l2.338 -0.025 -0.132 -1.615c-0.073 -0.889 -0.474 -1.994 -0.893 -2.457 -0.997 -1.102 -0.451 -1.59 1.15 -1.03 1.081 0.377 1.299 0.75 1.42 2.424l0.144 1.98 1.784 -0.286c1.862 -0.297 2.79 0.288 1.78 1.124 -0.319 0.263 -1.21 0.55 -1.982 0.637 -1.018 0.115 -1.441 0.434 -1.546 1.169 -0.131 0.923 0.016 0.99 1.692 0.765 1.154 -0.155 1.963 -0.042 2.178 0.305 0.48 0.777 0.126 1 -2.051 1.292 -1.488 0.2 -1.908 0.455 -1.908 1.16 0 0.777 0.282 0.884 1.986 0.757 1.52 -0.113 1.987 0.016 1.987 0.553 0 0.49 -0.597 0.744 -1.987 0.845 -1.654 0.12 -1.986 0.306 -1.986 1.116 0 0.906 0.178 0.951 2.626 0.663 2.723 -0.32 3.917 0.12 3.917 1.443 0 0.56 -0.538 0.624 -3.015 0.358 -1.886 -0.202 -3.903 -0.11 -5.384 0.245 -2.109 0.506 -2.507 0.474 -3.645 -0.298l-1.277 -0.867 2.728 -0.14c2.223 -0.116 2.678 -0.275 2.454 -0.857 -0.15 -0.393 -0.274 -0.803 -0.274 -0.91 0 -0.108 -0.435 -0.196 -0.966 -0.196 -0.53 0 -1.425 -0.261 -1.986 -0.581 -0.949 -0.54 -0.872 -0.598 1.078 -0.818 1.51 -0.17 2.143 -0.466 2.255 -1.055 0.125 -0.661 -0.187 -0.82 -1.632 -0.833 -0.983 -0.008 -2.18 -0.312 -2.659 -0.675 -0.79 -0.598 -0.637 -0.673 1.632 -0.803 1.943 -0.11 2.538 -0.326 2.658 -0.96 0.13 -0.679 -0.194 -0.819 -1.888 -0.819 -1.125 0 -2.299 -0.254 -2.61 -0.565 -0.442 -0.442 -0.742 -0.315 -1.379 0.584 -0.581 0.822 -0.88 2.416 -1.047 5.585 -0.197 3.743 -0.362 4.46 -1.052 4.592 -0.45 0.086 -0.841 -0.122 -0.87 -0.463zm0.52 -9.338c0 -0.854 -0.816 -0.328 -1.367 0.882 -0.58 1.273 -0.579 1.274 0.393 0.395 0.535 -0.485 0.974 -1.06 0.974 -1.277z" fill="#6e6e6e"/>
    <path d="M0.455 49.312c0 -1.064 6.584 -44.805 6.795 -45.148 0.103 -0.166 3.244 -1.101 6.98 -2.079l6.791 -1.776 6.895 1.784c3.792 0.98 6.929 1.802 6.97 1.825 0.145 0.078 6.702 44.291 6.702 45.187 0 0.868 -0.614 0.895 -20.567 0.895 -17.8 0 -20.566 -0.093 -20.566 -0.688zm39.998 -2c-0.156 -0.964 -1.634 -10.882 -3.286 -22.04 -1.652 -11.16 -3.206 -20.414 -3.455 -20.567 -0.248 -0.153 -3.258 -0.99 -6.688 -1.86l-6.236 -1.581 -6.25 1.677c-3.439 0.923 -6.325 1.752 -6.415 1.842 -0.138 0.138 -6.733 43.258 -6.733 44.022 0 0.143 8.852 0.26 19.672 0.26l19.673 0 -0.282 -1.753zm-28.649 -2.087c-0.732 -0.921 -1.666 -4.129 -1.308 -4.487 0.549 -0.549 3.112 2.722 2.957 3.771 -0.174 1.181 -0.996 1.537 -1.649 0.716zm14.38 -0.658c-0.889 -0.631 -1.682 -1.214 -1.763 -1.295 -0.082 -0.081 0.864 -0.05 2.1 0.068 2.5 0.24 2.91 -0.043 4.07 -2.819 0.675 -1.617 0.658 -1.752 -0.394 -2.974 -1.076 -1.252 -1.155 -1.268 -3.619 -0.736 -3.98 0.86 -7.27 1.177 -8.638 0.833 -1.664 -0.417 -0.919 -1.097 1.41 -1.285 2.55 -0.206 2.81 -1.316 0.308 -1.316 -1.05 0 -1.909 -0.21 -1.909 -0.468 0 -0.257 0.51 -0.467 1.13 -0.467 1.614 0 2.61 -0.465 2.61 -1.219 0 -0.453 -0.597 -0.65 -1.963 -0.65 -2.183 0 -1.964 -0.764 0.29 -1.017 1.993 -0.222 2.076 -1.227 0.102 -1.227 -0.89 0 -1.976 -0.201 -2.415 -0.447 -0.62 -0.347 -0.252 -0.52 1.64 -0.77 1.34 -0.178 3.242 -0.645 4.225 -1.039 1.38 -0.552 2.01 -0.595 2.771 -0.188 1.332 0.713 0.886 1.233 -1.368 1.593 -2.305 0.369 -2.645 1.632 -0.41 1.527 0.81 -0.038 1.56 0.193 1.674 0.515 0.12 0.342 -0.183 0.585 -0.73 0.585 -1.448 0 -2.414 0.5 -2.414 1.25 0 0.47 0.291 0.59 0.935 0.386 1.09 -0.347 2.804 0.101 2.804 0.732 0 0.24 -0.818 0.436 -1.82 0.436 -1.168 0 -1.913 0.246 -2.082 0.686 -0.424 1.103 0.228 1.166 4.07 0.392l3.63 -0.73 1.373 1.316c0.755 0.723 1.373 1.67 1.373 2.104 0 1.093 -1.641 4.697 -2.824 6.201 -1.193 1.517 -2.055 1.521 -4.166 0.023zm-10.786 -2.542c-0.542 -1.062 -0.898 -2.02 -0.79 -2.126 0.416 -0.417 2.674 1.803 2.674 2.629 0 1.661 -0.903 1.42 -1.884 -0.503zm4.221 -0.906c-1.559 -1.969 -1.292 -2.32 0.901 -1.186 1.366 0.706 2.104 1.887 1.644 2.63 -0.477 0.772 -1.046 0.448 -2.545 -1.444zm4.316 -0.948c-1.282 -1.167 -1.38 -1.389 -0.614 -1.389 1.962 0 4.214 1.304 4.237 2.454 0.018 0.86 -2.235 0.197 -3.623 -1.065zm-8.974 -3.228c-0.266 -0.497 -0.484 -2.343 -0.484 -4.103 0 -2.189 -0.238 -3.539 -0.755 -4.277 -0.725 -1.036 -0.713 -1.072 0.304 -0.922 0.582 0.086 1.457 0.692 1.943 1.345 0.77 1.036 0.842 1.682 0.564 5.025 -0.324 3.883 -0.694 4.572 -1.572 2.932zm0.533 -15.924c0.083 -2.057 0.027 -3.74 -0.126 -3.74 -0.153 0.001 -0.678 0.444 -1.168 0.984 -0.489 0.54 -1.472 1.284 -2.184 1.653 -1.136 0.587 -1.328 0.583 -1.566 -0.037 -0.17 -0.445 0.781 -1.889 2.58 -3.912 1.567 -1.764 2.85 -3.334 2.85 -3.49 0 -0.154 -0.773 -0.347 -1.717 -0.426 -0.944 -0.08 -1.808 -0.423 -1.92 -0.762 -0.11 -0.339 0.083 -0.577 0.432 -0.529 0.349 0.048 1.212 0.063 1.92 0.032 1.098 -0.047 1.285 -0.255 1.285 -1.43 0 -0.756 -0.21 -1.504 -0.468 -1.663 -0.86 -0.531 -0.48 -1.236 0.585 -1.084 0.847 0.12 1.08 0.493 1.198 1.924 0.12 1.464 0.293 1.728 0.985 1.508 0.462 -0.146 1.083 0.027 1.38 0.386 0.438 0.527 0.272 0.705 -0.868 0.933 -1.14 0.228 -1.41 0.518 -1.41 1.513 0 0.886 0.19 1.157 0.682 0.968 0.516 -0.198 0.448 0.187 -0.28 1.584 -0.8 1.534 -0.907 2.315 -0.64 4.619 0.365 3.143 0.033 4.71 -0.998 4.71 -0.582 0 -0.678 -0.65 -0.552 -3.741zm0.386 -6.157c0 -0.852 -0.782 -0.301 -1.609 1.133l-0.874 1.52 1.241 -1.134c0.683 -0.623 1.242 -1.307 1.242 -1.519zm4.177 9.007l-1.139 -0.948 2.688 -0.016c2.37 -0.013 2.687 -0.125 2.687 -0.95 0 -0.692 -0.311 -0.935 -1.199 -0.935 -0.66 0 -1.659 -0.261 -2.22 -0.581 -0.949 -0.54 -0.872 -0.598 1.078 -0.818 1.51 -0.17 2.143 -0.466 2.255 -1.055 0.126 -0.667 -0.186 -0.818 -1.692 -0.818 -1.038 0 -2.091 -0.295 -2.406 -0.674 -0.472 -0.569 -0.208 -0.696 1.696 -0.818 1.89 -0.12 2.278 -0.305 2.397 -1.14 0.13 -0.916 -0.025 -0.98 -1.888 -0.77 -1.502 0.17 -2.193 0.034 -2.654 -0.521 -0.558 -0.673 -0.376 -0.751 1.744 -0.751 1.302 0 2.5 -0.215 2.663 -0.479 0.433 -0.701 -0.205 -3.157 -1.036 -3.989 -0.977 -0.976 -0.398 -1.412 1.155 -0.869 1.087 0.38 1.297 0.747 1.422 2.47 0.144 2 0.164 2.022 1.636 1.753 1.823 -0.334 3.018 0.234 2.096 0.997 -0.333 0.276 -1.237 0.573 -2.009 0.66 -1.026 0.116 -1.44 0.433 -1.548 1.184 -0.132 0.929 0.04 1.018 1.82 0.935 2.769 -0.129 2.946 0.923 0.224 1.331 -1.694 0.254 -2.131 0.507 -2.131 1.233 0 0.786 0.276 0.893 1.986 0.765 1.52 -0.113 1.987 0.016 1.987 0.553 0 0.49 -0.597 0.744 -1.987 0.845 -1.652 0.12 -1.986 0.307 -1.986 1.112 0 0.904 0.18 0.948 2.734 0.659 2.176 -0.246 2.858 -0.16 3.339 0.418 0.949 1.144 0.233 1.388 -4.118 1.407 -2.232 0.01 -4.598 0.184 -5.257 0.388 -0.899 0.277 -1.483 0.133 -2.337 -0.578z" fill="#4e4e4e"/>
    <path d="M0.455 49.526c0 -0.714 6.544 -44.56 6.731 -45.1 0.09 -0.259 3.244 -1.286 7.01 -2.284l6.847 -1.814 6.65 1.76c3.657 0.967 6.793 1.89 6.97 2.049 0.288 0.262 6.925 43.55 6.925 45.175 0 0.595 -2.767 0.688 -20.567 0.688 -13.592 0 -20.566 -0.16 -20.566 -0.474zm40.188 -1.045c-0.023 -1.385 -6.45 -43.425 -6.672 -43.647 -0.376 -0.376 -11.909 -3.445 -12.946 -3.445 -0.946 0 -12.606 3.097 -12.948 3.44 -0.176 0.175 -6.687 42.847 -6.687 43.823 0 0.233 8.578 0.413 19.631 0.413 15.4 0 19.63 -0.126 19.622 -0.584zm-14.46 -3.914c-0.888 -0.631 -1.667 -1.2 -1.732 -1.265 -0.065 -0.064 0.978 -0.109 2.316 -0.098 2.432 0.018 2.435 0.017 3.602 -2.192l1.167 -2.21 -1.224 -1.225 -1.224 -1.224 -4.35 0.747c-4.93 0.847 -6.818 0.933 -7.192 0.329 -0.332 -0.538 0.838 -0.984 2.579 -0.984 0.9 0 1.364 -0.238 1.364 -0.701 0 -0.507 -0.52 -0.701 -1.87 -0.701 -2.364 0 -2.461 -0.83 -0.12 -1.024 1.222 -0.101 1.795 -0.391 1.903 -0.963 0.127 -0.67 -0.21 -0.828 -1.865 -0.874l-2.021 -0.056 1.986 -0.478c2.581 -0.62 2.674 -1.747 0.145 -1.747 -2.615 0 -2.76 -0.77 -0.218 -1.15 1.176 -0.177 2.98 -0.618 4.01 -0.982 1.353 -0.477 2.124 -0.526 2.779 -0.176 1.256 0.673 0.767 1.197 -1.447 1.551 -2.347 0.375 -2.709 1.762 -0.412 1.577 0.848 -0.069 1.556 0.128 1.675 0.465 0.134 0.378 -0.261 0.587 -1.118 0.592 -0.728 0.004 -1.614 0.19 -1.968 0.415 -0.972 0.616 -0.119 1.564 1.125 1.252 0.595 -0.15 1.413 -0.144 1.82 0.012 1.363 0.524 0.754 1.118 -1.147 1.118 -1.267 0 -1.975 0.236 -2.161 0.722 -0.465 1.212 0.099 1.275 4.126 0.459l3.879 -0.786 1.292 1.446c0.71 0.795 1.292 1.72 1.292 2.057 0 1.19 -2.787 6.343 -3.693 6.828 -1.215 0.65 -1.407 0.608 -3.297 -0.734zm-14.717 0.175c-0.098 -0.322 -0.408 -1.302 -0.689 -2.18 -0.28 -0.877 -0.41 -1.696 -0.286 -1.819 0.573 -0.573 3.052 2.751 3.052 4.092 0 0.696 -1.863 0.612 -2.077 -0.093zm3.819 -3.161c-0.749 -1.905 -0.52 -2.012 1.179 -0.552 0.966 0.83 1.09 2.427 0.188 2.427 -0.347 0 -0.962 -0.844 -1.367 -1.875zm4.346 -0.447c-1.586 -2.002 -1.247 -2.39 0.953 -1.091 1.617 0.955 2 1.764 1.162 2.459 -0.482 0.4 -0.959 0.092 -2.115 -1.368zm4.662 -0.95c-1.748 -1.471 -1.23 -1.847 1.246 -0.905 1.395 0.53 2.11 1.327 1.734 1.935 -0.419 0.677 -1.323 0.365 -2.98 -1.03zm-9.338 -3.252c-0.27 -0.504 -0.46 -2.287 -0.424 -3.964 0.048 -2.172 -0.162 -3.397 -0.73 -4.263 -0.778 -1.187 -0.772 -1.212 0.244 -1.061 0.572 0.084 1.42 0.68 1.884 1.322 0.716 0.99 0.802 1.757 0.565 5.025 -0.284 3.903 -0.65 4.602 -1.539 2.94zm0.615 -12.904c-0.155 -0.402 -0.172 -2.085 -0.04 -3.74 0.133 -1.654 0.109 -2.999 -0.055 -2.988 -0.163 0.01 -1.025 0.641 -1.915 1.402 -1.67 1.428 -3.298 1.825 -3.278 0.799 0.007 -0.321 1.269 -1.915 2.805 -3.542 1.536 -1.627 2.793 -3.204 2.793 -3.506 0 -0.319 -0.713 -0.548 -1.71 -0.548 -2.239 0 -2.53 -0.908 -0.327 -1.023 2.355 -0.122 2.77 -0.685 1.855 -2.519 -0.848 -1.699 -0.637 -2.282 0.555 -1.535 0.437 0.273 0.863 1.18 0.945 2.015 0.121 1.227 0.32 1.474 1.035 1.287 0.486 -0.127 1.128 0.062 1.426 0.421 0.44 0.53 0.316 0.653 -0.656 0.653 -1.33 0 -1.456 0.132 -1.905 2.011 -0.292 1.22 -0.245 1.274 0.672 0.783 0.899 -0.481 0.94 -0.445 0.48 0.417 -0.278 0.52 -0.735 1.086 -1.016 1.26 -0.315 0.194 -0.47 1.763 -0.404 4.115 0.058 2.09 0.079 4.064 0.045 4.385 -0.086 0.826 -0.97 0.727 -1.305 -0.147zm0.31 -8.904c0 -1.077 -0.684 -0.732 -1.589 0.8l-0.855 1.448 1.222 -0.8c0.672 -0.44 1.222 -1.092 1.222 -1.448zm4.18 8.717l-1.142 -0.98 1.169 0.066c3.283 0.186 4.206 -0.027 4.206 -0.972 0 -0.705 -0.316 -0.939 -1.285 -0.95 -0.707 -0.008 -1.694 -0.323 -2.193 -0.7 -0.84 -0.636 -0.743 -0.687 1.286 -0.687 1.88 0 2.192 -0.133 2.192 -0.935 0 -0.774 -0.311 -0.935 -1.812 -0.935 -1.041 0 -2.06 -0.298 -2.394 -0.701 -0.505 -0.608 -0.263 -0.701 1.812 -0.701 2.226 0 2.394 -0.08 2.394 -1.14 0 -1.031 -0.148 -1.114 -1.572 -0.883 -0.924 0.15 -2.031 -0.007 -2.687 -0.38 -1.061 -0.604 -0.99 -0.647 1.455 -0.869l2.57 -0.234 -0.054 -1.763c-0.03 -0.972 -0.43 -2.18 -0.89 -2.688 -0.805 -0.89 -0.803 -0.923 0.054 -0.91 1.578 0.027 2.527 1.145 2.527 2.98 0 1.701 0.02 1.72 1.752 1.584 1.308 -0.103 1.753 0.04 1.753 0.564 0 0.472 -0.57 0.748 -1.753 0.846 -1.493 0.123 -1.752 0.31 -1.752 1.257 0 1.006 0.184 1.103 1.936 1.023 1.197 -0.054 2.015 0.135 2.142 0.496 0.127 0.358 -0.215 0.587 -0.884 0.59 -2.07 0.013 -3.194 0.544 -3.194 1.51 0 0.833 0.21 0.907 1.841 0.646 1.154 -0.184 1.962 -0.1 2.163 0.227 0.448 0.725 -0.68 1.335 -2.485 1.344 -1.24 0.005 -1.52 0.191 -1.52 1.008 0 0.942 0.163 0.985 2.727 0.717 2.543 -0.266 3.817 0.11 3.817 1.125 0 0.176 -2.05 0.428 -4.557 0.56 -2.506 0.132 -4.99 0.381 -5.519 0.553 -0.643 0.209 -1.34 -0.012 -2.103 -0.668z" fill="#2f2f2f"/>
    <path d="M0.713 47.78c0.148 -0.964 1.68 -11.2 3.404 -22.747l3.135 -20.994 6.768 -1.805 6.768 -1.806 6.95 1.766c3.824 0.97 7.025 1.976 7.115 2.233 0.145 0.414 6.735 44.334 6.735 44.885 0 0.121 -9.258 0.22 -20.572 0.22l-20.572 0 0.269 -1.752zm39.94 0.614c0 -1.514 -6.14 -42.17 -6.5 -43.032 -0.306 -0.737 -1.741 -1.28 -6.76 -2.562l-6.372 -1.626 -6.371 1.626c-5.04 1.287 -6.45 1.822 -6.746 2.562 -0.342 0.855 -6.528 41.775 -6.518 43.119 0.003 0.458 4.244 0.584 19.635 0.584 16.756 0 19.632 -0.098 19.632 -0.671zm-14.47 -3.827c-0.888 -0.631 -1.66 -1.192 -1.715 -1.246 -0.055 -0.054 0.982 -0.099 2.304 -0.099 2.351 0 2.428 -0.044 3.525 -2.027 0.977 -1.765 1.045 -2.171 0.523 -3.147 -0.875 -1.635 -1.752 -1.74 -7.16 -0.859 -2.856 0.466 -5.238 0.636 -5.745 0.41 -0.767 -0.34 -0.733 -0.403 0.302 -0.55 2.549 -0.36 3.272 -0.65 3.272 -1.314 0 -0.502 -0.541 -0.692 -1.963 -0.692 -2.2 0 -1.956 -0.767 0.323 -1.016 0.882 -0.097 1.455 -0.455 1.553 -0.97 0.125 -0.658 -0.196 -0.828 -1.632 -0.867l-1.787 -0.048 1.753 -0.466c2.11 -0.56 2.377 -1.775 0.389 -1.775 -3.068 0 -3.086 -0.651 -0.035 -1.292 4.94 -1.037 6.407 -1.171 6.749 -0.618 0.35 0.567 -0.088 0.767 -2.585 1.18 -2.299 0.379 -2.342 1.738 -0.049 1.559 0.938 -0.074 1.708 0.107 1.82 0.426 0.124 0.35 -0.46 0.609 -1.582 0.702 -1.285 0.106 -1.823 0.385 -1.94 1.006 -0.14 0.731 0.097 0.836 1.587 0.7 1.06 -0.095 1.826 0.061 1.94 0.397 0.12 0.349 -0.468 0.609 -1.587 0.701 -1.3 0.107 -1.823 0.383 -1.944 1.025 -0.151 0.795 0.047 0.848 2.099 0.559 1.246 -0.175 2.958 -0.537 3.803 -0.803 1.766 -0.557 3.534 0.29 4.351 2.083 0.836 1.834 -2.623 8.347 -4.369 8.227 -0.321 -0.022 -1.31 -0.556 -2.2 -1.186zm-15.166 -1.424c-0.409 -1.2 -0.691 -2.235 -0.627 -2.299 0.594 -0.594 3.341 3.331 2.867 4.098 -0.598 0.968 -1.56 0.196 -2.24 -1.799zm4.255 -1.595c-0.703 -1.79 -0.7 -1.871 0.046 -1.308 1.876 1.414 2.623 3.216 1.334 3.216 -0.347 0 -0.968 -0.859 -1.38 -1.908zm4.21 -0.663c-0.718 -0.9 -1.138 -1.635 -0.935 -1.634 0.869 0.004 3.41 1.914 3.41 2.562 0 1.202 -1.107 0.787 -2.475 -0.928zm4.811 -0.764l-1.636 -1.428 1.636 0.332c1.895 0.385 2.805 1.007 2.805 1.918 0 1.024 -1.038 0.72 -2.805 -0.822zm-9.312 -3.347c-0.256 -0.674 -0.422 -2.578 -0.368 -4.23 0.078 -2.392 -0.084 -3.208 -0.792 -3.993 -0.737 -0.817 -0.766 -0.987 -0.169 -0.987 0.397 0 1.192 0.38 1.767 0.846 0.944 0.764 1.038 1.226 0.973 4.781 -0.077 4.21 -0.634 5.626 -1.41 3.583zm0.641 -12.52c-0.172 -0.279 -0.163 -2.098 0.02 -4.043l0.33 -3.536 -2.08 1.705c-3.147 2.578 -5.078 2.1 -2.336 -0.577 2.194 -2.142 4.324 -4.793 4.324 -5.381 0 -0.368 -0.567 -0.496 -1.636 -0.372 -2.28 0.267 -2.073 -0.69 0.233 -1.08 2.062 -0.348 2.386 -1.158 1.164 -2.903 -0.47 -0.67 -0.541 -1.11 -0.213 -1.313 0.807 -0.498 1.854 0.727 1.854 2.17 0 1.124 0.193 1.345 1.169 1.345 0.642 0 1.168 0.21 1.168 0.468 0 0.257 -0.503 0.467 -1.118 0.467 -1.14 0 -1.686 0.77 -1.686 2.376 0 1.036 0.478 1.144 1.384 0.312 0.35 -0.321 0.182 0.08 -0.374 0.89 -0.854 1.246 -1.01 2.135 -1.01 5.726 0 3.894 -0.375 5.07 -1.193 3.746zm0.18 -9.299c0.208 -1.397 -0.643 -0.846 -1.625 1.052l-0.76 1.472 1.114 -0.737c0.613 -0.405 1.185 -1.21 1.271 -1.787zm3.988 8.586c-0.827 -0.664 -0.816 -0.684 0.22 -0.397 1.863 0.515 4.283 -0.168 4.283 -1.21 0 -0.695 -0.322 -0.914 -1.345 -0.914 -0.74 0 -1.607 -0.315 -1.927 -0.701 -0.5 -0.604 -0.314 -0.701 1.345 -0.701 1.616 0 1.927 -0.151 1.927 -0.935 0 -0.746 -0.311 -0.935 -1.546 -0.935 -0.851 0 -1.955 -0.333 -2.454 -0.74 -0.864 -0.703 -0.865 -0.725 -0.027 -0.457 0.484 0.155 1.589 0.148 2.454 -0.014 1.267 -0.238 1.573 -0.513 1.573 -1.417 0 -1.034 -0.138 -1.1 -1.753 -0.85 -1.206 0.187 -2.044 0.047 -2.687 -0.447 -0.874 -0.673 -0.76 -0.72 1.753 -0.734l2.687 -0.015 0 -1.573c0 -0.883 -0.424 -2.113 -0.969 -2.804 -1.114 -1.417 -0.371 -1.698 1.333 -0.504 0.77 0.539 1.039 1.197 1.039 2.538 0 1.77 0.029 1.802 1.34 1.426 1.636 -0.47 3.032 0.187 1.931 0.91 -0.385 0.253 -1.28 0.463 -1.986 0.467 -1.072 0.006 -1.285 0.21 -1.285 1.227 0 1.077 0.14 1.184 1.208 0.916 1.42 -0.357 3.128 0.08 2.744 0.703 -0.148 0.238 -0.765 0.433 -1.371 0.433 -1.732 0 -2.581 0.49 -2.581 1.488 0 0.755 0.274 0.897 1.525 0.79 1.966 -0.17 3.266 0.526 1.95 1.042 -0.498 0.195 -1.483 0.369 -2.19 0.387 -0.992 0.025 -1.285 0.261 -1.285 1.033 0 0.931 0.174 0.982 2.532 0.739 1.74 -0.18 2.802 -0.066 3.389 0.363 0.47 0.344 0.75 0.72 0.622 0.833 -0.129 0.114 -2.786 0.33 -5.905 0.48 -4.633 0.223 -5.832 0.144 -6.544 -0.427z" fill="#030303"/>
</svg>
