<svg xmlns="http://www.w3.org/2000/svg" width="42.324" height="50">
    <path d="M1.591 49.399l6.395 -45.018 13.178 -3.621 13.601 3.853 6.782 45.042z" fill="#fff"/>
    <path d="M0.22 49.029c0.12 -0.534 1.702 -10.875 3.515 -22.98 1.813 -12.105 3.354 -22.075 3.424 -22.156 0.07 -0.08 3.259 -0.99 7.085 -2.02l6.957 -1.873 6.915 1.87c3.803 1.028 6.98 1.937 7.061 2.02 0.081 0.083 1.624 10.054 3.43 22.16 1.804 12.104 3.38 22.445 3.5 22.979l0.217 0.971 -21.162 0 -21.162 0 0.22 -0.971zm40.36 -0.647c-0.004 -0.797 -6.411 -43.347 -6.548 -43.483 -0.084 -0.084 -3.008 -0.894 -6.5 -1.8l-6.346 -1.648 -6.377 1.657c-3.508 0.911 -6.427 1.705 -6.489 1.765 -0.108 0.107 -6.572 42.871 -6.575 43.509 -0.001 0.178 8.736 0.323 19.417 0.323 10.68 0 19.419 -0.145 19.418 -0.323zm-21.954 -2.245c-1.624 -0.408 -3.565 -1.71 -3.858 -2.59 -0.14 -0.421 0.102 -0.5 0.917 -0.295 1.309 0.328 1.855 -0.265 0.941 -1.024 -1.043 -0.865 -0.827 -4.048 0.368 -5.438 0.847 -0.984 1.354 -1.174 3.129 -1.168 2.242 0.007 2.748 -0.344 2.759 -1.913 0.007 -1.136 -0.952 -1.256 -2.583 -0.323 -1.607 0.918 -4.033 0.811 -4.965 -0.219 -0.995 -1.099 -0.72 -1.354 1.59 -1.471 1.026 -0.053 2.775 -0.362 3.887 -0.687 1.61 -0.472 2.255 -0.486 3.168 -0.07 1.063 0.484 1.135 0.687 0.999 2.82 -0.097 1.502 0.057 2.545 0.443 3.01 0.504 0.608 0.48 0.88 -0.168 1.869 -0.952 1.453 -2.63 3.044 -4.307 4.083 -1.216 0.754 -1.234 0.803 -0.295 0.804 0.55 0.001 1.4 -0.212 1.889 -0.474 1.141 -0.611 2.938 0.138 2.938 1.226 0 1.594 -3.801 2.626 -6.852 1.86zm1.919 -6.553c0.854 -1.687 0.994 -2.297 0.583 -2.552 -0.564 -0.348 -2.342 0.17 -3.296 0.963 -0.698 0.579 -0.72 2.603 -0.036 3.288 0.95 0.949 1.616 0.537 2.749 -1.7zm2.54 -10.926c-1.2 -1.2 -1.294 -2.153 -0.512 -5.212 0.395 -1.548 0.424 -2.52 0.103 -3.494l-0.445 -1.35 -1.371 1.998c-1.646 2.396 -2.287 3.993 -2.287 5.693 0 2.007 -2.548 3.984 -3.142 2.438 -0.117 -0.306 0.07 -1.393 0.416 -2.416 0.346 -1.022 0.516 -1.973 0.377 -2.11 -0.138 -0.14 -0.907 0.06 -1.71 0.443 -1.073 0.512 -1.656 1.215 -2.21 2.667 -0.738 1.932 -1.733 2.557 -2.187 1.374 -0.319 -0.832 0.844 -3.448 2.65 -5.962 1.11 -1.544 1.292 -1.996 0.672 -1.665 -1.394 0.746 -2.94 0.523 -4.228 -0.61l-1.211 -1.064 2.025 -0.014c1.114 -0.008 3.394 -0.52 5.066 -1.14 2.9 -1.076 4.345 -1.14 4.345 -0.193 0 0.239 -0.562 0.724 -1.248 1.08 -0.687 0.354 -1.87 1.43 -2.63 2.388l-1.38 1.744 1.176 -0.447c0.646 -0.246 1.493 -0.346 1.882 -0.223 0.502 0.16 1.113 -0.432 2.108 -2.038 0.77 -1.245 1.786 -2.75 2.257 -3.342 1.219 -1.537 1.79 -10.072 0.701 -10.49 -1.114 -0.428 -0.865 -1.594 0.34 -1.594 1.686 0 2.479 1.14 2.342 3.367 -0.118 1.92 -0.092 1.962 1.579 2.54 0.934 0.324 1.865 0.755 2.068 0.958 0.577 0.577 -0.498 1.936 -2.564 3.243 -1.625 1.028 -1.884 1.395 -1.884 2.668 0 0.812 0.23 1.846 0.511 2.296 0.408 0.652 0.347 1.363 -0.296 3.486 -0.586 1.936 -0.685 2.864 -0.36 3.383 0.583 0.93 2.957 1.12 5.12 0.408l1.714 -0.564 -0.15 -2.082 -0.15 -2.081 1.822 1.977c2.086 2.262 1.989 2.646 -1.046 4.115 -1.243 0.601 -2.688 0.884 -4.516 0.884 -2.279 0 -2.85 -0.161 -3.747 -1.059zm2.77 -16.484c-0.79 -0.951 -1.24 -0.668 -1.24 0.78 0 1.333 0.017 1.345 0.861 0.582 0.657 -0.595 0.747 -0.918 0.379 -1.362zm-0.797 11.999c0.006 -0.155 0.678 -0.767 1.492 -1.36 1.293 -0.943 1.393 -1.144 0.798 -1.597 -0.498 -0.378 -0.604 -0.9 -0.395 -1.941 0.375 -1.867 0.42 -2.584 0.209 -3.357 -0.239 -0.875 1.346 -1.061 2.41 -0.283 0.823 0.602 0.826 0.675 0.105 2.189 -0.93 1.95 -0.93 1.968 0.1 1.968 0.943 0 1.845 1.306 1.388 2.008 -0.59 0.908 -6.136 3.062 -6.107 2.373zm-11.254 -6.732l0.992 -1.055 -1.456 -0.636c-1.354 -0.59 -1.38 -0.638 -0.377 -0.684 0.61 -0.027 1.416 -0.512 1.854 -1.114 0.767 -1.053 0.764 -1.065 -0.276 -1.065 -0.578 0 -1.51 -0.382 -2.07 -0.849l-1.019 -0.848 1.942 -0.02c1.068 -0.01 2.67 -0.139 3.56 -0.286 1.448 -0.24 1.619 -0.17 1.619 0.652 0 0.506 -0.215 0.92 -0.477 0.92 -0.263 0 -1.083 0.51 -1.824 1.133l-1.347 1.133 1.824 -0.308c2.687 -0.454 2.386 0.593 -0.723 2.511 -2.975 1.837 -3.599 1.982 -2.222 0.516zm2.172 -8.844c1.486 -1.232 1.494 -1.256 0.688 -2.146 -0.448 -0.495 -0.638 -0.923 -0.424 -0.95 1.817 -0.231 3.628 0.915 3.628 2.296 0 0.942 -2.313 2.076 -4.194 2.058l-1.2 -0.012 1.502 -1.246z" fill="#fecfcf"/>
    <path d="M0.897 45.145c0.412 -2.67 1.969 -13.011 3.46 -22.98 1.49 -9.968 2.734 -18.166 2.764 -18.216 0.03 -0.05 3.21 -0.948 7.066 -1.995l7.01 -1.903 6.953 1.88c3.823 1.034 6.994 1.932 7.044 1.995 0.05 0.063 1.498 9.533 3.217 21.044 1.718 11.512 3.27 21.853 3.446 22.98l0.322 2.05 -21.016 0 -21.015 0 0.749 -4.855zm39.666 2.805c-0.033 -1.387 -6.295 -42.815 -6.502 -43.022 -0.113 -0.113 -3.06 -0.974 -6.552 -1.913l-6.347 -1.71 -6.347 1.71c-3.49 0.94 -6.423 1.784 -6.515 1.876 -0.171 0.171 -6.552 42.292 -6.555 43.275 -0.002 0.424 4.168 0.54 19.417 0.54 18.214 0 19.419 -0.048 19.401 -0.756zm-21.463 -1.872c-1.859 -0.355 -4.411 -1.842 -4.411 -2.57 0 -0.215 0.583 -0.275 1.295 -0.132 1.426 0.285 1.593 -0.066 0.633 -1.334 -1.021 -1.35 -0.806 -3.992 0.426 -5.224 0.839 -0.838 1.503 -1.059 3.19 -1.059 2.204 0 2.655 -0.373 2.655 -2.193 0 -0.987 -1.05 -1.06 -2.589 -0.18 -1.546 0.883 -4.033 0.811 -4.896 -0.142 -1.069 -1.182 -0.9 -1.369 1.242 -1.369 1.075 0 2.653 -0.291 3.505 -0.647 3.377 -1.411 5.162 -0.286 4.79 3.017 -0.122 1.077 -0.05 2.065 0.158 2.194 1.316 0.813 -1.596 4.957 -4.485 6.381l-1.393 0.687 1.215 0.01c0.669 0.005 1.578 -0.184 2.022 -0.422 1.12 -0.6 3.02 0.175 3.02 1.232 0 1.396 -3.38 2.325 -6.377 1.751zm1.504 -6.223c0.537 -0.947 0.979 -2.087 0.983 -2.532 0.006 -0.68 -0.212 -0.765 -1.367 -0.534 -0.756 0.151 -1.727 0.594 -2.158 0.984 -1.42 1.286 -0.726 4.246 0.922 3.929 0.354 -0.069 1.083 -0.9 1.62 -1.847zm3.097 -10.786c-1.474 -0.8 -1.778 -2.466 -1.033 -5.652 0.37 -1.58 0.443 -2.702 0.192 -2.956 -0.222 -0.226 -0.403 -0.799 -0.403 -1.273 0 -1.128 -0.437 -0.658 -2.345 2.52 -0.924 1.539 -1.54 3.126 -1.54 3.968 0 0.85 -0.398 1.867 -1.007 2.576 -1.736 2.018 -2.729 0.217 -1.35 -2.448 0.6 -1.16 0.597 -1.306 -0.028 -1.545 -1.238 -0.475 -2.814 0.65 -3.693 2.638 -0.927 2.094 -1.55 2.7 -2.154 2.096 -0.628 -0.628 0.263 -2.974 2.214 -5.833 1.276 -1.868 1.565 -2.538 0.995 -2.305 -1.722 0.707 -2.259 0.713 -3.557 0.042 -1.893 -0.98 -1.672 -1.537 0.61 -1.537 1.114 0 3.058 -0.464 4.519 -1.079 1.41 -0.593 2.86 -1.078 3.223 -1.078 1.054 0 0.787 1.6 -0.313 1.876 -0.535 0.135 -1.715 1.239 -2.622 2.453 -1.347 1.805 -1.469 2.113 -0.663 1.682 0.542 -0.29 1.53 -0.512 2.194 -0.493 0.906 0.026 1.365 -0.269 1.834 -1.174 0.343 -0.665 1.338 -2.143 2.21 -3.285 1.55 -2.03 1.589 -2.175 1.805 -6.736 0.192 -4.052 0.128 -4.697 -0.487 -4.933 -0.95 -0.364 -0.905 -1.474 0.059 -1.474 0.422 0 1.214 0.314 1.76 0.696 0.836 0.585 0.972 1.01 0.852 2.657 -0.138 1.893 -0.092 1.977 1.339 2.461 2.923 0.989 2.77 2.325 -0.504 4.392 -1.374 0.867 -1.625 1.259 -1.625 2.536 0 0.831 0.236 1.888 0.524 2.35 0.422 0.675 0.38 1.24 -0.218 2.906 -0.872 2.432 -0.933 3.643 -0.22 4.356 0.71 0.71 3.507 0.651 5.33 -0.11 1.466 -0.613 1.498 -0.676 1.22 -2.482l-0.286 -1.853 1.68 1.712c1.825 1.858 1.879 2.222 0.48 3.231 -2.394 1.724 -6.84 2.267 -8.992 1.098zm1.922 -17.122c-0.859 -0.95 -0.822 -0.985 -1.146 1.107l-0.259 1.677 1.06 -0.997c0.996 -0.935 1.017 -1.045 0.345 -1.787zm1.082 10.985c1.321 -1.138 1.382 -1.292 0.718 -1.843 -0.53 -0.44 -0.647 -0.953 -0.436 -1.92 0.158 -0.725 0.286 -1.95 0.283 -2.722 -0.006 -1.657 1.063 -1.914 2.297 -0.55 0.719 0.794 0.723 0.925 0.067 1.927 -0.945 1.442 -0.888 1.882 0.267 2.046 0.711 0.1 0.97 0.426 0.97 1.216 0 1.148 -1.7 2.257 -4.315 2.812l-1.294 0.275 1.443 -1.241zm-12.987 -5.116c1.172 -0.868 1.27 -1.908 0.18 -1.908 -1.952 0 -1.175 -0.678 1.302 -1.136 4.512 -0.835 4.395 0.211 -0.295 2.644 -1.187 0.615 -1.721 0.796 -1.187 0.4zm1.135 -4.009c0.694 -0.767 0.671 -0.818 -0.472 -1.052 -0.662 -0.135 -1.59 -0.546 -2.066 -0.913 -0.812 -0.63 -0.737 -0.669 1.295 -0.683 1.187 -0.009 2.721 -0.06 3.41 -0.115 1.907 -0.15 1.779 0.672 -0.342 2.195 -2.144 1.54 -2.923 1.782 -1.825 0.568zm1.13 -5.15c1.216 -1.053 1.406 -1.417 0.972 -1.862 -0.757 -0.777 -0.672 -1.244 0.227 -1.244 1.155 0 2.686 1.235 2.686 2.167 0 1.017 -1.047 1.605 -3.507 1.969l-1.888 0.28 1.51 -1.31z" fill="#feb0b0"/>
    <path d="M0.433 49.46c-0.035 -1.273 6.65 -45.021 6.929 -45.34 0.417 -0.48 12.448 -3.733 13.8 -3.733 1.34 0 13.371 3.25 13.82 3.732 0.306 0.329 6.896 43.463 6.895 45.126 0 0.709 -1.275 0.755 -20.715 0.755 -16.276 0 -20.717 -0.116 -20.729 -0.54zm40.162 -1.294c0.03 -1.297 -6.23 -42.867 -6.504 -43.186 -0.168 -0.196 -3.145 -1.104 -6.617 -2.018l-6.312 -1.663 -6.292 1.657c-3.461 0.912 -6.407 1.772 -6.547 1.912 -0.267 0.267 -6.534 41.194 -6.563 42.866l-0.017 0.971 19.42 0c15.24 0 19.421 -0.116 19.432 -0.54zm-23.93 -3.028c-2.04 -1.161 -2.603 -2.217 -0.964 -1.805 1.628 0.408 2.122 -0.125 1.08 -1.167 -0.728 -0.728 -0.857 -1.264 -0.68 -2.834 0.292 -2.587 1.114 -3.303 4.101 -3.569l2.47 -0.22 0.137 -1.656c0.128 -1.556 0.075 -1.638 -0.863 -1.348 -0.55 0.17 -1.524 0.575 -2.165 0.901 -1.528 0.777 -2.949 0.75 -4.133 -0.079 -1.436 -1.006 -1.166 -1.486 0.837 -1.486 0.988 0 2.82 -0.322 4.07 -0.717 2.144 -0.675 2.34 -0.673 3.437 0.046 1.071 0.702 1.144 0.93 0.915 2.863 -0.137 1.155 -0.065 2.213 0.16 2.353 1.351 0.834 -1.65 5.131 -4.371 6.258 -1.64 0.68 -1.032 1.5 0.64 0.865 1.694 -0.644 3.086 -0.552 3.751 0.25 0.496 0.596 0.435 0.812 -0.426 1.51 -1.483 1.2 -5.753 1.113 -7.997 -0.165zm3.939 -5.283c0.537 -0.947 0.979 -2.087 0.983 -2.532 0.006 -0.68 -0.212 -0.765 -1.367 -0.534 -2.551 0.51 -3.804 2.479 -2.637 4.144 0.898 1.283 1.883 0.931 3.021 -1.078zm3.832 -10.588c-0.692 -0.207 -1.418 -0.627 -1.612 -0.934 -0.5 -0.786 -0.452 -4.285 0.078 -5.806 0.33 -0.945 0.295 -1.634 -0.134 -2.654l-0.58 -1.377 -0.887 1.2c-1.51 2.042 -2.728 4.75 -2.728 6.062 0 0.69 -0.396 1.757 -0.88 2.371 -1.644 2.09 -2.899 0.163 -1.494 -2.296 0.848 -1.482 0.8 -1.726 -0.335 -1.726 -1.508 0 -2.892 1.202 -3.786 3.287 -0.901 2.103 -1.704 2.476 -1.704 0.792 0 -1.313 0.876 -3.125 2.87 -5.93l1.468 -2.067 -1.285 0.665c-1.752 0.906 -2.374 0.84 -3.785 -0.401l-1.21 -1.065 1.998 -0.014c1.1 -0.008 3.288 -0.5 4.865 -1.093 1.576 -0.593 3.056 -1.078 3.288 -1.078 0.894 0 0.364 1.302 -0.77 1.888 -0.654 0.339 -1.847 1.53 -2.65 2.648 -1.153 1.606 -1.272 1.932 -0.564 1.553 0.493 -0.264 1.476 -0.48 2.184 -0.48 1.027 0 1.486 -0.327 2.264 -1.618 0.537 -0.89 1.556 -2.367 2.266 -3.282 1.2 -1.55 1.303 -1.977 1.49 -6.16 0.172 -3.874 0.094 -4.613 -0.564 -5.34 -0.699 -0.772 -0.703 -0.866 -0.053 -1.115 0.39 -0.15 1.218 0.06 1.84 0.468 1.025 0.672 1.107 0.929 0.89 2.768l-0.24 2.028 1.803 0.624c2.482 0.858 2.414 1.96 -0.223 3.644 -1.822 1.164 -2.029 1.46 -2.05 2.941 -0.012 0.906 0.185 2.036 0.44 2.51 0.344 0.646 0.29 1.368 -0.217 2.854 -0.869 2.552 -0.867 4.26 0.005 4.595 1.188 0.456 3.607 0.285 5.165 -0.366 1.462 -0.611 1.497 -0.68 1.215 -2.44l-0.29 -1.81 1.748 1.684 1.747 1.684 -1.227 1.16c-1.946 1.84 -5.395 2.512 -8.356 1.626zm1.241 -17.422c-0.767 -0.565 -0.873 -0.535 -1.127 0.317 -0.155 0.518 -0.3 1.325 -0.324 1.794 -0.038 0.764 0.08 0.73 1.127 -0.317 1.146 -1.146 1.153 -1.183 0.324 -1.794zm1.095 11.027c1.445 -1.233 1.475 -1.316 0.692 -1.902 -0.633 -0.473 -0.747 -0.895 -0.504 -1.866 0.174 -0.69 0.348 -1.834 0.387 -2.543 0.087 -1.537 1.105 -1.896 2.14 -0.753 0.672 0.743 0.665 0.895 -0.11 2.34l-0.828 1.546 1.3 0.26c2.781 0.556 0.71 3.022 -3.293 3.917l-1.294 0.29 1.51 -1.29zm-12.454 -5.637c0.806 -0.658 0.883 -0.874 0.371 -1.038 -2.592 -0.826 -2.186 -1.076 2.759 -1.697 1.636 -0.205 1.074 0.805 -1.206 2.169 -2.623 1.569 -3.453 1.813 -1.924 0.566zm0.371 -2.94c0 -0.205 0.233 -0.605 0.518 -0.89 0.403 -0.403 0.36 -0.518 -0.196 -0.518 -0.927 0 -2.911 -0.907 -2.911 -1.33 0 -0.182 0.825 -0.34 1.834 -0.352 1.009 -0.012 2.397 -0.076 3.086 -0.141 1.92 -0.182 1.775 0.654 -0.38 2.202 -1.073 0.77 -1.951 1.233 -1.951 1.029zm1.248 -5.59c1.295 -1.111 1.405 -1.365 0.956 -2.205 -0.437 -0.816 -0.398 -0.95 0.274 -0.95 1.05 0 2.7 1.196 2.7 1.957 0 0.855 -1.621 1.81 -3.668 2.16l-1.726 0.294 1.464 -1.256z" fill="#fe8f8f"/>
    <path d="M0.46 49.245c0.02 -1.3 6.714 -44.953 6.924 -45.164 0.33 -0.33 12.845 -3.709 13.737 -3.709 1.136 0 13.52 3.37 13.867 3.774 0.25 0.292 6.9 44.009 6.892 45.315 -0.003 0.424 -4.436 0.539 -20.718 0.539 -19.444 0 -20.713 -0.046 -20.702 -0.755zm40.18 -0.31c0.154 -0.154 -6.067 -43.715 -6.302 -44.123 -0.03 -0.05 -2.988 -0.88 -6.575 -1.844l-6.521 -1.752 -5.974 1.566c-3.285 0.86 -6.262 1.724 -6.614 1.917 -0.48 0.264 -1.46 5.834 -3.905 22.195 -1.795 12.013 -3.173 21.933 -3.063 22.043 0.263 0.262 38.69 0.261 38.953 -0.001zm-23.976 -3.773c-2.282 -1.332 -2.495 -2.097 -0.493 -1.772 1.761 0.286 1.89 0.046 0.676 -1.257 -1.029 -1.104 -1.11 -2.92 -0.208 -4.663 0.68 -1.316 1.398 -1.618 4.307 -1.812 1.667 -0.11 1.731 -0.172 1.863 -1.771 0.128 -1.556 0.075 -1.638 -0.863 -1.348 -0.55 0.17 -1.524 0.575 -2.165 0.901 -1.992 1.014 -4.66 0.48 -4.66 -0.933 0 -0.455 0.513 -0.634 1.834 -0.638 1.008 -0.004 2.68 -0.301 3.715 -0.662 3.133 -1.09 4.709 0.14 4.205 3.289 -0.149 0.93 -0.075 1.758 0.17 1.91 1.313 0.81 -1.149 4.484 -4.053 6.048 -1.841 0.991 -2.05 1.728 -0.37 1.308 2.92 -0.73 3.828 -0.737 4.411 -0.035 1.036 1.248 -0.408 2.124 -3.764 2.284 -2.415 0.115 -3.201 -0.03 -4.605 -0.849zm4.04 -5.467c0.705 -1.396 1.16 -2.658 1.014 -2.805 -0.413 -0.413 -1.7 -0.318 -2.861 0.211 -2.454 1.118 -2.273 4.826 0.25 5.097 0.174 0.019 0.893 -1.108 1.597 -2.503zm4.342 -10.271c-2.477 -0.497 -3.222 -2.805 -2.151 -6.66 0.324 -1.168 0.283 -1.917 -0.166 -2.985l-0.6 -1.425 -1.577 2.376c-0.99 1.491 -1.708 3.198 -1.927 4.585 -0.392 2.483 -1.068 3.54 -2.263 3.54 -0.987 0 -1.065 -1.443 -0.163 -3.022 0.872 -1.524 0.805 -1.726 -0.572 -1.726 -1.431 0 -2.731 1.258 -3.68 3.56 -0.766 1.862 -1.573 2.127 -1.573 0.519 0 -1.328 0.901 -3.17 2.89 -5.903l1.484 -2.04 -1.571 0.656c-1.765 0.738 -2.762 0.562 -3.892 -0.687 -0.758 -0.836 -0.735 -0.852 1.228 -0.852 1.099 0 3.286 -0.484 4.859 -1.076 1.572 -0.592 3.033 -0.97 3.246 -0.838 0.695 0.43 0.408 1.018 -0.804 1.645 -0.655 0.339 -1.848 1.53 -2.651 2.648 -1.222 1.702 -1.306 1.95 -0.514 1.527 0.52 -0.279 1.464 -0.446 2.097 -0.372 1.009 0.118 1.443 -0.293 3.502 -3.318l2.351 -3.452 0.194 -4.443c0.163 -3.716 0.078 -4.571 -0.52 -5.233 -0.592 -0.653 -0.612 -0.83 -0.112 -1.022 0.332 -0.128 1.068 0.005 1.637 0.294 0.902 0.46 1.021 0.8 0.946 2.681l-0.086 2.154 1.812 0.627c2.488 0.86 2.426 1.959 -0.205 3.647 -2.387 1.532 -2.912 2.94 -1.855 4.984 0.663 1.283 0.663 1.51 -0.001 3.25 -0.393 1.029 -0.653 2.51 -0.578 3.292 0.133 1.387 0.189 1.423 2.381 1.55 1.45 0.084 2.723 -0.117 3.593 -0.568 1.275 -0.659 1.333 -0.794 1.048 -2.481l-0.302 -1.785 1.604 1.7c1.778 1.886 1.706 2.467 -0.465 3.733 -1.342 0.782 -4.884 1.273 -6.644 0.92zm1.281 -16.757c0.008 -0.24 -0.355 -0.666 -0.805 -0.947 -0.7 -0.437 -0.856 -0.373 -1.073 0.436 -0.14 0.52 -0.257 1.296 -0.26 1.722 -0.006 0.746 0.034 0.746 1.06 0 0.585 -0.426 1.07 -0.971 1.078 -1.21zm0.445 10.193c1.362 -1.204 1.436 -1.38 0.755 -1.791 -0.9 -0.544 -0.941 -1.532 -0.128 -3.002 0.431 -0.779 0.468 -1.233 0.133 -1.637 -0.737 -0.887 0.224 -1.582 1.352 -0.978 1.062 0.568 1.169 1.673 0.275 2.855 -0.891 1.179 -0.828 1.344 0.634 1.636 0.94 0.188 1.295 0.504 1.295 1.157 0 0.878 -1.86 1.971 -4.747 2.79 -0.975 0.275 -0.934 0.176 0.431 -1.03zm-12.407 -5.51c1.02 -1.165 0.974 -1.283 -0.647 -1.664 -1.383 -0.326 -1.373 -0.335 0.755 -0.656 1.187 -0.18 2.478 -0.457 2.87 -0.617 1.557 -0.635 1.137 0.653 -0.595 1.826 -2.817 1.908 -3.26 2.114 -2.383 1.112zm0.324 -3.08c0 -0.19 0.213 -0.56 0.474 -0.821 0.345 -0.345 0.117 -0.553 -0.833 -0.762 -0.72 -0.158 -1.51 -0.531 -1.758 -0.83 -0.35 -0.422 0.002 -0.553 1.588 -0.59 1.122 -0.026 2.525 -0.11 3.118 -0.185 1.625 -0.206 1.31 0.712 -0.755 2.208 -1.009 0.73 -1.834 1.172 -1.834 0.98zm1.575 -5.765c1.035 -1.08 1.13 -1.376 0.674 -2.106 -0.453 -0.724 -0.418 -0.848 0.24 -0.848 1.015 0 2.69 1.191 2.69 1.913 0 0.887 -1.146 1.628 -3.06 1.978l-1.749 0.32 1.205 -1.257z" fill="#fe6f6f"/>
    <path d="M0.448 49.602c0 -0.546 6.418 -43.122 6.713 -44.536 0.222 -1.063 0.663 -1.248 7.119 -2.987l6.882 -1.854 6.912 1.862c5.877 1.583 6.944 1.998 7.122 2.77 0.257 1.113 6.68 44.105 6.68 44.71 0 0.283 -7.172 0.433 -20.714 0.433 -12.375 0 -20.714 -0.16 -20.714 -0.398zm40.263 -0.789c0.17 -0.305 -6.155 -43.743 -6.414 -44.056 -0.067 -0.08 -3.046 -0.915 -6.621 -1.855l-6.5 -1.708 -6.527 1.722c-3.59 0.947 -6.57 1.782 -6.62 1.855 -0.247 0.352 -6.568 43.761 -6.414 44.042 0.098 0.178 8.894 0.324 19.547 0.324 10.653 0 19.45 -0.146 19.549 -0.324zm-23.835 -3.653c-2.413 -1.292 -2.675 -1.948 -0.684 -1.716 1.744 0.204 1.857 -0.021 0.655 -1.311 -1.029 -1.104 -1.11 -2.92 -0.208 -4.663 0.68 -1.316 1.398 -1.618 4.307 -1.812 1.66 -0.11 1.732 -0.178 1.86 -1.733 0.156 -1.874 -0.14 -1.963 -2.507 -0.755 -1.95 0.995 -3.349 1.078 -4.423 0.262 -1.288 -0.977 -0.845 -1.469 1.51 -1.68 1.246 -0.11 2.954 -0.39 3.795 -0.621 2.92 -0.8 4.496 0.902 3.494 3.777 -0.371 1.065 -0.338 1.369 0.17 1.564 0.348 0.133 0.633 0.62 0.633 1.08 0 1.085 -3.907 4.993 -5.356 5.356 -0.615 0.155 -1.118 0.475 -1.118 0.713 0 0.41 0.922 0.337 4.125 -0.326 0.945 -0.196 1.485 -0.073 1.905 0.432 0.996 1.201 -0.4 2.105 -3.543 2.294 -2.22 0.133 -3.044 -0.02 -4.615 -0.861zm3.955 -5.552c0.649 -1.286 1.183 -2.484 1.187 -2.662 0.012 -0.55 -2.129 -0.357 -3.414 0.307 -1.953 1.01 -2.307 2.703 -0.867 4.143 1.22 1.22 1.725 0.927 3.094 -1.788zm4.43 -10.214c-2.677 -0.373 -3.495 -2.666 -2.333 -6.544 0.368 -1.227 0.337 -1.904 -0.14 -3.071l-0.61 -1.498 -1.652 2.488c-1.052 1.585 -1.778 3.284 -1.999 4.68 -0.39 2.473 -0.984 3.405 -2.165 3.405 -0.985 0 -1.046 -1.046 -0.16 -2.746 0.899 -1.723 0.819 -2 -0.575 -2 -1.431 0 -2.731 1.257 -3.68 3.56 -0.792 1.923 -1.573 2.111 -1.573 0.379 0 -0.758 0.834 -2.518 2.149 -4.532 1.182 -1.81 2.046 -3.292 1.92 -3.292 -0.126 0 -0.79 0.291 -1.477 0.646 -1.34 0.693 -2.84 0.401 -3.782 -0.734 -0.423 -0.51 -0.174 -0.615 1.529 -0.641 1.173 -0.018 3.2 -0.522 4.788 -1.19 1.8 -0.759 2.9 -1.014 3.177 -0.737 0.526 0.526 0.054 1.362 -0.768 1.362 -0.663 0 -4.255 4.289 -3.893 4.65 0.12 0.12 0.504 -0.016 0.851 -0.305 0.348 -0.288 1.178 -0.461 1.845 -0.385 1.085 0.125 1.459 -0.222 3.56 -3.313l2.349 -3.452 0.267 -4.316c0.242 -3.91 0.187 -4.406 -0.59 -5.286l-0.856 -0.971 1.355 0c1.7 0 2.416 1.183 2.044 3.383 -0.264 1.562 -0.235 1.604 1.581 2.233 2.555 0.885 2.568 1.775 0.05 3.488 -1.14 0.777 -2.217 1.619 -2.391 1.872 -0.533 0.773 -0.367 2.59 0.328 3.581 0.597 0.853 0.576 1.183 -0.225 3.56 -1.018 3.024 -0.73 4.095 1.22 4.523 1.63 0.358 5.948 -1.072 5.764 -1.909 -0.075 -0.336 -0.246 -1.163 -0.38 -1.838l-0.246 -1.227 1.615 1.615c1.21 1.21 1.515 1.782 1.214 2.28 -0.917 1.515 -5.12 2.698 -8.11 2.282zm1.08 -16.757c0 -0.666 -1.475 -1.584 -1.886 -1.173 -0.15 0.15 -0.272 0.924 -0.272 1.72 0 1.447 0.002 1.448 1.079 0.742 0.593 -0.389 1.079 -0.969 1.079 -1.29zm0.478 10.221c1.322 -1.215 1.39 -1.389 0.708 -1.796 -0.924 -0.551 -0.954 -1.36 -0.109 -2.993 0.407 -0.788 0.487 -1.347 0.216 -1.515 -0.798 -0.493 -0.438 -1.078 0.662 -1.078 1.372 0 1.784 1.005 1.028 2.51 -0.32 0.637 -0.653 1.304 -0.74 1.482 -0.087 0.178 0.208 0.324 0.655 0.324 0.951 0 1.849 0.787 1.849 1.62 0 0.545 -2.303 1.76 -4.7 2.482 -0.91 0.273 -0.86 0.151 0.431 -1.036zm-12.454 -5.524c1.02 -1.144 0.973 -1.267 -0.647 -1.65 -1.34 -0.319 -1.296 -0.348 0.971 -0.65 1.305 -0.173 2.568 -0.387 2.805 -0.476 0.237 -0.088 0.529 0.009 0.647 0.216 0.119 0.207 -0.852 1.058 -2.157 1.892 -1.36 0.868 -2.052 1.153 -1.619 0.668zm0.723 -3.76c0.411 -0.496 0.265 -0.662 -0.78 -0.892 -2.303 -0.505 -2.373 -1.296 -0.122 -1.386 1.107 -0.044 2.48 -0.14 3.049 -0.215 1.674 -0.22 1.498 0.722 -0.365 1.955 -1.92 1.27 -2.547 1.46 -1.782 0.537zm1.344 -5.236c0.874 -0.93 0.95 -1.226 0.503 -1.942 -0.45 -0.72 -0.414 -0.845 0.244 -0.845 1.032 0 2.689 1.196 2.689 1.942 0 0.885 -1.737 1.942 -3.193 1.942l-1.273 0 1.03 -1.097z" fill="#fe5050"/>
    <path d="M0.631 48.382c0.143 -0.89 1.706 -11.207 3.474 -22.927 1.767 -11.72 3.27 -21.359 3.338 -21.42 0.07 -0.061 3.185 -0.93 6.924 -1.929l6.798 -1.817 6.883 1.831c6.448 1.715 6.898 1.902 7.116 2.955 0.23 1.104 6.712 44.286 6.712 44.709 0 0.119 -9.338 0.216 -20.752 0.216l-20.752 0 0.26 -1.618zm40.218 -0.432c-0.129 -0.653 -1.622 -10.605 -3.318 -22.117 -1.696 -11.511 -3.275 -21.05 -3.509 -21.195 -0.233 -0.146 -3.23 -0.995 -6.66 -1.885l-6.234 -1.619 -6.268 1.66c-3.447 0.914 -6.42 1.762 -6.606 1.885 -0.187 0.124 -1.734 9.643 -3.438 21.154 -1.705 11.512 -3.206 21.464 -3.337 22.117l-0.236 1.187 19.92 0 19.919 0 -0.233 -1.187zm-23.43 -2.53c-0.754 -0.371 -1.67 -1.007 -2.038 -1.412 -0.618 -0.683 -0.557 -0.724 0.831 -0.562 1.75 0.205 1.81 0.037 0.58 -1.627 -2.012 -2.721 0.256 -6.268 3.827 -5.984 1.752 0.14 1.863 0.077 2.317 -1.3 0.73 -2.212 0.049 -2.53 -2.852 -1.327 -2.217 0.918 -2.539 0.953 -3.558 0.378 -1.775 -1.001 -1.807 -1.868 -0.058 -1.61 0.802 0.118 2.21 -0.05 3.13 -0.375 0.92 -0.324 2.332 -0.589 3.138 -0.589 1.903 0 2.68 1.424 1.995 3.657 -0.36 1.175 -0.33 1.597 0.144 1.99 0.332 0.275 0.603 0.691 0.603 0.925 0 0.937 -2.667 3.706 -4.512 4.685 -1.079 0.572 -1.962 1.187 -1.962 1.365 0 0.491 1.703 0.389 3.333 -0.2 2.509 -0.908 4.156 0.84 1.895 2.01 -1.662 0.859 -5.048 0.847 -6.814 -0.023zm3.033 -5.022c0.579 -1.009 1.191 -2.3 1.362 -2.868 0.3 -1.004 0.255 -1.027 -1.57 -0.783 -3.035 0.407 -4.35 2.806 -2.534 4.622 1.22 1.22 1.553 1.102 2.742 -0.97zm5.026 -11.038c-2.563 -0.24 -3.172 -1.15 -2.799 -4.174 0.42 -3.396 0.391 -5.578 -0.085 -6.428 -0.312 -0.557 -0.696 -0.219 -1.999 1.76 -0.887 1.346 -1.71 2.948 -1.827 3.558 -0.604 3.124 -1.293 4.565 -2.245 4.7 -1.15 0.164 -1.28 -0.84 -0.324 -2.511 1.22 -2.135 0.404 -2.95 -1.858 -1.854 -0.917 0.444 -1.658 1.333 -2.307 2.77 -0.58 1.283 -1.113 1.962 -1.352 1.722 -0.671 -0.67 0.075 -2.729 2.052 -5.655 1.04 -1.54 1.825 -2.867 1.744 -2.948 -0.08 -0.08 -0.539 0.063 -1.018 0.32 -1.377 0.737 -3.307 0.552 -4.168 -0.4 -0.77 -0.851 -0.762 -0.862 0.512 -0.607 0.876 0.175 2.508 -0.163 5.028 -1.042 2.072 -0.723 3.84 -1.124 3.977 -0.903 0.338 0.546 -0.16 1.26 -0.88 1.26 -0.326 0 -1.326 0.923 -2.221 2.05 -2.7 3.4 -2.672 3.337 -1.096 2.522 0.788 -0.408 1.878 -0.683 2.422 -0.611 0.81 0.106 1.419 -0.5 3.352 -3.34l2.363 -3.47 0.259 -4.581c0.248 -4.373 0.216 -4.612 -0.685 -5.242l-0.945 -0.66 1.156 -0.023c1.832 -0.035 2.599 1.048 2.274 3.214l-0.277 1.843 1.876 0.625c2.654 0.884 2.595 1.72 -0.255 3.613 -2.064 1.37 -2.4 1.783 -2.4 2.947 0 0.744 0.282 1.757 0.628 2.25 0.559 0.798 0.526 1.211 -0.294 3.734 -1.055 3.244 -0.795 3.986 1.551 4.426 1.465 0.275 5.708 -1.07 5.614 -1.778 -0.029 -0.219 -0.186 -0.98 -0.35 -1.692l-0.296 -1.295 1.59 1.572c0.878 0.868 1.457 1.787 1.293 2.053 -0.867 1.402 -4.95 2.562 -8.01 2.275zm0.741 -16.348c0.245 -0.638 -0.86 -1.851 -1.687 -1.851 -0.192 0 -0.349 0.784 -0.349 1.741 0 1.624 0.06 1.71 0.887 1.267 0.489 -0.262 1.006 -0.782 1.15 -1.157zm1.015 9.553c0.962 -1.024 0.985 -1.144 0.29 -1.532 -0.93 -0.52 -0.95 -1.331 -0.077 -3.02 0.526 -1.017 0.561 -1.44 0.163 -1.92 -0.422 -0.508 -0.31 -0.617 0.633 -0.617 1.502 0 1.871 1.066 0.925 2.668 -0.414 0.702 -0.686 1.32 -0.604 1.375 0.083 0.054 0.684 0.327 1.337 0.608 1.71 0.734 1.469 1.737 -0.647 2.697 -2.608 1.184 -3.293 1.096 -2.02 -0.259zm-12.653 -5.38c0.815 -0.886 0.668 -1.144 -0.824 -1.442 -1.869 -0.374 -1.506 -0.532 2.01 -0.875 2.596 -0.254 2.93 -0.21 2.374 0.306 -0.928 0.862 -4.206 2.714 -3.56 2.011zm0.645 -3.514c0.209 -0.548 -0.027 -0.793 -0.963 -0.999 -0.682 -0.15 -1.439 -0.51 -1.68 -0.802 -0.338 -0.407 -0.091 -0.49 1.058 -0.356 0.824 0.096 2.088 -0.069 2.808 -0.367 1.054 -0.437 1.41 -0.435 1.824 0.006 0.4 0.425 0.392 0.593 -0.04 0.75 -0.305 0.112 -1.17 0.719 -1.92 1.349 -0.941 0.79 -1.279 0.92 -1.087 0.42zm1.174 -5.272c0.903 -0.984 0.984 -1.286 0.535 -2.003 -0.598 -0.96 -0.183 -1.066 1.378 -0.355 2.234 1.018 1.541 2.816 -1.252 3.249l-1.725 0.267 1.064 -1.158z" fill="#fe2f2f"/>
    <path d="M0.686 48.382c0.12 -0.653 1.678 -10.89 3.463 -22.75 1.785 -11.859 3.285 -21.584 3.333 -21.612 0.047 -0.027 3.157 -0.867 6.91 -1.865l6.824 -1.814 6.77 1.815c3.723 0.998 6.822 1.85 6.885 1.893 0.063 0.043 1.563 9.768 3.334 21.612 1.77 11.844 3.315 22.068 3.434 22.72l0.216 1.187 -20.693 0 -20.692 0 0.216 -1.186zm40.327 0.527c0 -1.288 -6.582 -44.062 -6.811 -44.266 -0.17 -0.151 -3.174 -1.01 -6.675 -1.91l-6.365 -1.634 -6.365 1.634c-3.501 0.9 -6.495 1.755 -6.654 1.903 -0.159 0.147 -1.672 9.589 -3.364 20.982 -1.691 11.392 -3.185 21.345 -3.32 22.116l-0.244 1.403 19.9 0c10.944 0 19.898 -0.102 19.898 -0.228zm-23.574 -3.62c-2.441 -1.11 -2.75 -1.762 -0.834 -1.762 1.79 0 1.89 -0.223 0.572 -1.29 -1.463 -1.185 -1.28 -4.135 0.343 -5.53 1 -0.861 1.54 -1.005 3.103 -0.83 1.705 0.193 1.933 0.11 2.295 -0.843 1.011 -2.66 -0.036 -3.276 -3.118 -1.833 -1.968 0.922 -2.26 0.956 -3.278 0.383 -0.614 -0.347 -1.206 -0.9 -1.314 -1.228 -0.156 -0.468 0.136 -0.535 1.345 -0.308 1.008 0.189 2.093 0.06 3.129 -0.373 0.872 -0.365 2.246 -0.663 3.054 -0.663 1.812 0 2.554 1.423 1.926 3.696 -0.302 1.094 -0.251 1.566 0.208 1.947 0.334 0.278 0.608 0.683 0.608 0.902 0 0.735 -3.905 4.58 -5.195 5.114 -0.703 0.29 -1.279 0.7 -1.279 0.908 0 0.541 1.921 0.469 3.217 -0.121 0.825 -0.377 1.368 -0.379 2.178 -0.01 1.48 0.675 1.352 1.303 -0.418 2.043 -2.023 0.845 -4.396 0.772 -6.542 -0.203zm3.39 -5.436c1.543 -2.823 1.51 -3.23 -0.256 -3.23 -2.974 0 -4.763 2.885 -2.998 4.836 1.09 1.205 1.948 0.782 3.253 -1.606zm2.49 -11.43c-0.956 -0.957 -1.09 -2.473 -0.417 -4.75 0.461 -1.563 0.155 -5.607 -0.425 -5.607 -0.391 0 -3.058 4.016 -3.809 5.738 -0.29 0.664 -0.527 1.696 -0.527 2.294 0 1.557 -0.757 2.756 -1.741 2.756 -1.03 0 -1.05 -0.342 -0.142 -2.608 0.946 -2.366 0.352 -3.029 -1.796 -2.005 -1.103 0.526 -1.763 1.273 -2.362 2.672 -0.819 1.91 -1.726 2.58 -1.726 1.277 0 -0.947 1.617 -4.015 3.13 -5.937 1.382 -1.755 1.364 -2.387 -0.044 -1.633 -1.294 0.693 -2.867 0.567 -3.958 -0.317l-0.967 -0.783 1.474 0.173c0.854 0.1 2.556 -0.227 4.048 -0.778 3.151 -1.162 4.947 -1.513 4.947 -0.968 0 0.227 -0.473 0.627 -1.051 0.89 -1.07 0.488 -4.747 4.794 -4.395 5.146 0.106 0.106 0.694 -0.135 1.306 -0.536 0.687 -0.45 1.514 -0.629 2.159 -0.467 0.906 0.227 1.231 -0.04 2.434 -2.002 0.764 -1.246 1.821 -2.781 2.349 -3.412 0.804 -0.96 1.01 -1.9 1.271 -5.806 0.268 -3.99 0.214 -4.731 -0.37 -5.158 -0.914 -0.669 -0.86 -1.051 0.15 -1.051 1.523 0 2.255 1.205 1.954 3.213l-0.273 1.82 2.002 0.763c1.1 0.42 1.93 0.988 1.842 1.26 -0.088 0.273 -1.165 1.251 -2.395 2.175 -1.98 1.486 -2.234 1.857 -2.222 3.236 0.008 0.857 0.28 1.91 0.606 2.339 0.508 0.67 0.475 1.113 -0.23 3.118 -1.047 2.98 -1.032 3.457 0.138 4.276 1.279 0.896 3.174 0.833 5.4 -0.177 1.707 -0.775 1.81 -0.92 1.558 -2.179l-0.27 -1.349 1.406 1.284c0.849 0.775 1.28 1.49 1.086 1.802 -1.247 2.018 -8.49 2.94 -10.14 1.29zm2.568 -16.504c-1.421 -1.15 -1.704 -0.94 -1.704 1.265l0 2.022 1.32 -1.264 1.32 -1.265 -0.936 -0.758zm1.528 10.72l1.29 -1.032 -1.024 -0.829c-1.014 -0.82 -1.017 -0.844 -0.269 -2.42 0.609 -1.282 0.652 -1.718 0.221 -2.237 -0.452 -0.544 -0.356 -0.645 0.61 -0.645 1.504 0 1.87 1.067 0.92 2.677 -0.797 1.348 -0.586 1.884 0.84 2.141 1.708 0.308 1.212 1.494 -1.025 2.457 -2.772 1.192 -3.159 1.165 -1.563 -0.112zm-12.603 -5.755c0.751 -0.84 0.735 -0.87 -0.647 -1.196 -1.305 -0.307 -1.196 -0.362 1.368 -0.688 1.532 -0.194 2.852 -0.287 2.934 -0.205 0.082 0.082 -0.88 0.78 -2.138 1.55 -1.534 0.94 -2.033 1.117 -1.517 0.539zm0.88 -3.443c0.145 -0.234 -0.556 -0.685 -1.557 -1.001l-1.82 -0.576 2.158 -0.303c1.187 -0.166 2.425 -0.373 2.751 -0.46 1.17 -0.308 0.906 0.77 -0.432 1.758 -0.75 0.555 -1.245 0.816 -1.1 0.582zm1.003 -5.11c1.06 -1.06 1.073 -1.137 0.345 -1.942 -0.963 -1.064 -0.003 -1.175 1.437 -0.166 1.88 1.317 0.66 3.212 -2.07 3.212 -0.725 0 -0.692 -0.124 0.288 -1.104z" fill="#fe0303"/>
</svg>
