<?xml version="1.0" encoding="UTF-8" standalone="no"?>
<!-- Created with Inkscape (http://www.inkscape.org/) -->

<svg
   xmlns:dc="http://purl.org/dc/elements/1.1/"
   xmlns:cc="http://creativecommons.org/ns#"
   xmlns:rdf="http://www.w3.org/1999/02/22-rdf-syntax-ns#"
   xmlns:svg="http://www.w3.org/2000/svg"
   xmlns="http://www.w3.org/2000/svg"
   xmlns:sodipodi="http://sodipodi.sourceforge.net/DTD/sodipodi-0.dtd"
   xmlns:inkscape="http://www.inkscape.org/namespaces/inkscape"
   width="42.172005"
   height="50"
   id="svg4405"
   version="1.1"
   inkscape:version="0.48.3.1 r9886"
   sodipodi:docname="New document 9">
  <defs
     id="defs4407" />
  <sodipodi:namedview
     id="base"
     pagecolor="#ffffff"
     bordercolor="#666666"
     borderopacity="1.0"
     inkscape:pageopacity="0.0"
     inkscape:pageshadow="2"
     inkscape:zoom="1.979899"
     inkscape:cx="-36.675358"
     inkscape:cy="65.729238"
     inkscape:document-units="px"
     inkscape:current-layer="layer1"
     showgrid="false"
     fit-margin-top="0"
     fit-margin-left="0"
     fit-margin-right="0"
     fit-margin-bottom="0"
     inkscape:window-width="1366"
     inkscape:window-height="718"
     inkscape:window-x="0"
     inkscape:window-y="0"
     inkscape:window-maximized="1" />
  <metadata
     id="metadata4410">
    <rdf:RDF>
      <cc:Work
         rdf:about="">
        <dc:format>image/svg+xml</dc:format>
        <dc:type
           rdf:resource="http://purl.org/dc/dcmitype/StillImage" />
        <dc:title></dc:title>
      </cc:Work>
    </rdf:RDF>
  </metadata>
  <g
     inkscape:label="Layer 1"
     inkscape:groupmode="layer"
     id="layer1"
     transform="translate(-690.98245,-731.34113)">
    <g
       id="g4971"
       transform="matrix(0.46741798,0,0,0.46741798,368.00483,416.12824)">
      <path
         inkscape:connector-curvature="0"
         id="path4461"
         d="m 707.8644,684.16158 -14.89975,95.71195 86.1155,0.25254 -14.39467,-96.21703 -28.03174,-8.08122 z"
         style="fill:#ffffff;fill-opacity:1;stroke:none" />
      <path
         style="fill:#cfcfcf"
         d="m 690.98246,781.09113 c 0.69208,-6.48572 14.83334,-97.94335 15.20092,-98.31093 0.29659,-0.2966 7.11672,-2.31012 15.15583,-4.47449 l 14.61657,-3.93522 14.66218,3.9475 c 8.0642,2.17113 14.96246,4.30202 15.32946,4.73532 0.36699,0.4333 3.71483,21.48782 7.43964,46.78782 3.7248,25.3 7.0078,47.2375 7.29554,48.75 l 0.52318,2.75 -45.125,0 c -24.81875,0 -45.11299,-0.1125 -45.09832,-0.25 z m 85.93189,-5 c -0.0228,-1.2375 -3.06029,-22.26916 -6.75,-46.73703 l -6.70857,-44.48703 -13.75,-3.67258 -13.75,-3.67258 -13.71852,3.66641 -13.71851,3.66641 -6.72362,44.4932 c -3.69799,24.47126 -6.74966,45.5057 -6.78148,46.7432 l -0.0579,2.25 41,0 41,0 -0.0414,-2.25 z m -42.33357,-5.875 c -0.34375,-1.71875 -0.625,-4.19375 -0.625,-5.5 0,-3.06501 -3.2862,-3.15872 -12.09431,-0.34487 -8.30637,2.65356 -12.99713,1.66489 -14.0735,-2.96626 -0.27109,-1.16636 1.18275,-1.37983 7.90381,-1.16052 l 8.236,0.26875 -1.51206,-4.28565 c -0.83164,-2.35711 -2.62534,-6.27751 -3.986,-8.712 -3.17129,-5.67405 -3.12838,-6.56636 0.27606,-5.74051 5.88195,1.42684 15.25,0.24847 15.25,-1.91824 0,-0.96078 -1.06073,-1.18311 -3.85584,-0.80821 -4.10775,0.55096 -8.51186,-1.10441 -7.89129,-2.9661 0.23286,-0.69857 2.52413,-1.02362 6.06076,-0.85979 4.84188,0.22428 5.68637,0.004 5.68637,-1.48036 0,-0.95907 -0.70786,-2.52594 -1.57303,-3.48193 -1.44257,-1.59403 -1.4011,-1.79275 0.5,-2.39613 3.60147,-1.14306 6.07303,0.29933 6.07303,3.54421 0,3.11416 0.95197,3.56387 4.04271,1.90975 2.31889,-1.24103 5.95729,0.66244 5.95729,3.11661 0,1.33259 -0.86837,1.52923 -5,1.13223 -4.27305,-0.41059 -5,-0.22677 -5,1.26428 0,1.56602 0.7633,1.67319 7.45278,1.04633 l 7.45278,-0.69838 1.51099,3.6163 c 1.40074,3.35246 1.36798,3.85085 -0.44904,6.8309 -1.07802,1.76802 -1.96172,4.19677 -1.96377,5.3972 -0.004,2.36007 2.69084,3.75556 5.31091,2.75014 2.18564,-0.83871 7.3586,4.294 5.84906,5.80354 -0.77566,0.77566 -3.15195,0.59422 -8.39814,-0.64124 -4.02401,-0.94764 -9.55495,-1.58169 -12.29098,-1.40901 -4.46919,0.28206 -5.00199,0.56795 -5.24428,2.81396 -1.00692,9.3339 -2.44488,11.67713 -3.60531,5.875 z m -3.75,-11.5 c 1.71875,-0.34375 3.125,-1.04907 3.125,-1.56739 0,-0.51831 -0.9,-0.65674 -2,-0.30761 -2.6798,0.85053 -6,-0.29349 -6,-2.06739 0,-0.91873 1.05493,-1.43261 2.94098,-1.43261 1.61754,0 3.2191,-0.45 3.55902,-1 0.35843,-0.57995 -0.61547,-1 -2.31854,-1 -3.52934,0 -6.12618,-2.4235 -3.6252,-3.38322 0.88402,-0.33923 2.66895,-0.61678 3.96651,-0.61678 1.29756,0 2.63731,-0.45 2.97723,-1 0.71416,-1.15554 -0.49522,-1.22661 -5.84169,-0.34327 l -3.84169,0.63471 0.74885,4.60428 c 0.41188,2.53235 0.77457,5.39178 0.80598,6.35428 0.0624,1.91165 0.80813,2.06408 5.50355,1.125 z m 18.64658,-3.625 c 0.30783,-1.2375 0.6539,-4.275 0.76905,-6.75 0.18846,-4.05052 -0.0285,-4.53363 -2.17162,-4.83672 -3.27964,-0.4638 -9.11901,0.72535 -9.11901,1.85703 0,0.51133 1.34888,0.65991 2.99752,0.33019 3.18576,-0.63716 6.00248,0.89824 6.00248,3.27194 0,0.9864 -1.41975,1.37756 -5,1.37756 -2.81116,0 -5,0.4576 -5,1.04531 0,0.65367 1.31545,0.79854 3.51096,0.38666 3.72461,-0.69874 6.48904,0.67975 6.48904,3.23579 0,1.078 -0.82834,1.26747 -3.41756,0.78173 -1.87966,-0.35263 -4.24216,-0.1617 -5.25,0.42428 -1.45305,0.84483 -0.6459,1.07171 3.89851,1.09582 5.12304,0.0272 5.79031,-0.20826 6.29063,-2.21959 z m -7.52158,-30.76182 c 0,-0.60767 -1.49783,-0.77561 -3.75,-0.42045 -2.0625,0.32525 -4.9875,0.1167 -6.5,-0.46343 -1.73243,-0.6645 -2.75,-0.69393 -2.75,-0.0796 0,0.53639 -0.65765,0.97525 -1.46146,0.97525 -0.88244,0 -1.89144,-1.68379 -2.54677,-4.25 -1.95773,-7.66627 -3.14313,-9.90644 -4.88469,-9.2311 -3.31026,1.28365 -10.10708,2.19284 -10.10708,1.35199 0,-0.47899 0.50364,-0.87089 1.11919,-0.87089 0.61555,0 3.76555,-1.60758 7,-3.5724 3.90498,-2.37216 5.88081,-4.22004 5.88081,-5.5 0,-2.20001 1.05376,-2.47384 2.8,-0.7276 1.82595,1.82595 1.43726,4.5204 -0.88691,6.14832 -1.96781,1.37831 -1.98179,1.4951 -0.2449,2.04637 1.01311,0.32155 3.86472,0.18859 6.33691,-0.29546 2.4722,-0.48406 3.8199,-0.94354 2.9949,-1.02109 -0.825,-0.0775 -2.30851,-1.25185 -3.29669,-2.60957 -1.75107,-2.40591 -1.74473,-2.46857 0.25,-2.46857 1.49487,0 2.04669,-0.64838 2.04669,-2.40484 0,-2.21342 -0.30692,-2.36368 -3.85584,-1.88767 -3.85744,0.51739 -8.14416,-0.92623 -8.14416,-2.74267 0,-0.53065 1.9882,-0.96482 4.41821,-0.96482 4.81562,0 7.58179,-0.74578 7.58179,-2.04412 0,-0.45658 -1.575,-0.57455 -3.5,-0.26217 -1.925,0.31239 -3.5,0.35734 -3.5,0.0999 0,-0.25744 1.80831,-2.369 4.01847,-4.69236 2.99916,-3.15277 4.5211,-4.06477 6,-3.59538 2.94967,0.93618 2.30958,6.49413 -0.7479,6.49413 -1.2504,0 -1.29219,0.26903 -0.2389,1.53816 0.9658,1.16372 2.33672,1.37918 5.63153,0.8851 2.87234,-0.43074 4.86254,-0.23182 5.84588,0.58428 2.55895,2.12374 1.67067,2.87759 -3.75908,3.1902 -5.08677,0.29286 -5.25153,0.39553 -5.29916,3.30226 -0.027,1.65 -0.39486,4.0125 -0.81738,5.25 -0.70385,2.06143 -0.46375,2.25 2.86489,2.25 5.83983,0 7.50165,1.41466 7.50165,6.38596 0,6.059 -1.75859,10.61404 -4.09782,10.61404 -1.0462,0 -1.90218,-0.45532 -1.90218,-1.01182 z m 1.46788,-7.66864 c 0.36359,-1.93815 0.4273,-3.75769 0.14157,-4.04343 -0.80486,-0.80486 -15.60945,0.79251 -15.60945,1.68421 0,0.43432 0.25764,2.08343 0.57254,3.66468 0.57183,2.87144 0.58099,2.87459 7.40339,2.54673 l 6.83086,-0.32827 0.66109,-3.52392 z m -13.21788,1.01818 c -2.3639,-0.95386 -1.24032,-1.9621 3.55658,-3.19151 5.06642,-1.29849 8.19342,-0.7855 8.19342,1.34415 0,2.0591 -8.07783,3.32911 -11.75,1.84736 z m 18.05729,-9.23008 c -4.59279,-3.327 -8.89478,-8.41181 -7.5079,-8.8741 0.51859,-0.17287 3.0929,0.82887 5.72069,2.22608 2.62779,1.39721 5.31603,2.54038 5.97387,2.54038 1.97843,0 4.60327,3.58308 3.92317,5.35538 -0.93019,2.42404 -3.61033,2.01168 -8.10983,-1.24774 z"
         id="path4449"
         inkscape:connector-curvature="0" />
      <path
         style="fill:#b0b0b0"
         d="m 691.51693,778.59113 c 0.28114,-1.5125 3.61662,-23.60923 7.41218,-49.10384 3.79556,-25.49462 7.04179,-46.49069 7.21385,-46.65794 0.17205,-0.16725 6.93971,-2.09555 15.03924,-4.28511 l 14.72643,-3.98102 14.72718,3.92589 c 8.09995,2.15925 14.9265,4.12522 15.17012,4.36884 0.24362,0.24361 3.50929,21.03949 7.25705,46.21306 3.74776,25.17357 7.07721,47.23262 7.39877,49.02012 l 0.58466,3.25 -45.02032,0 -45.02031,0 0.51115,-2.75 z m 83.88116,-15 c -1.22423,-8.1125 -4.36696,-29.17019 -6.98385,-46.79487 l -4.75798,-32.04486 -14.10024,-3.6841 -14.10024,-3.6841 -13.5,3.72896 c -11.1976,3.093 -13.55263,4.07007 -13.80857,5.72897 -0.16971,1.1 -3.34426,22.1375 -7.05455,46.75 l -6.746,44.75 41.63865,0 41.63864,0 -2.22586,-14.75 z m -41.00507,3.89806 c -0.79156,-6.99645 0.1797,-6.76606 -12.74939,-3.02425 -6.99486,2.02439 -9.55678,1.8644 -12.18193,-0.76075 -3.22501,-3.22501 -1.79943,-3.86173 8.74924,-3.90779 10.62433,-0.0464 15.74484,-0.83146 15.74484,-2.41396 0,-0.50632 -1.65272,-1.06024 -3.6727,-1.23094 -4.90343,-0.41437 -5.73011,-2.81037 -0.96965,-2.81037 1.93837,0 3.80243,-0.45 4.14235,-1 0.36623,-0.59257 -0.78213,-1 -2.81854,-1 -1.89011,0 -3.98642,-0.66253 -4.65846,-1.47228 -1.03293,-1.24461 -0.58453,-1.5742 2.89972,-2.13135 2.26689,-0.36249 4.36319,-1.04997 4.65846,-1.52772 0.62395,-1.00957 -1.59863,-1.09185 -6.70026,-0.24805 l -3.61908,0.59859 0.91706,4.08153 c 0.50438,2.24484 0.78297,5.23302 0.61908,6.6404 -0.24316,2.08814 -1.02397,1.08717 -4.24438,-5.44112 -4.57356,-9.27137 -4.75339,-10.1176 -2.0536,-9.66389 2.81274,0.4727 11.65608,0.18743 13.75,-0.44354 0.9625,-0.29004 1.75,-1.19241 1.75,-2.00527 0,-1.15374 -0.78525,-1.33061 -3.57982,-0.80635 -3.51887,0.66015 -8.42018,-0.94056 -8.42018,-2.74993 0,-0.45706 2.7,-0.83102 6,-0.83102 6.38798,0 7.21969,-0.85247 4.95688,-5.08058 -0.7982,-1.49144 -0.69914,-2.08109 0.42185,-2.51126 2.46809,-0.94709 5.62127,1.43034 5.62127,4.23831 0,2.41293 0.22651,2.53362 3.5758,1.90529 2.23241,-0.4188 4.11086,-0.22677 5,0.51115 2.52586,2.09628 1.53284,2.93709 -3.46881,2.93709 -3.37941,0 -5.06727,0.4541 -5.45633,1.46797 -0.88034,2.29414 0.58883,2.56605 7.39088,1.36789 6.01561,-1.05962 6.40262,-1.00557 8.13723,1.13658 2.19133,2.70618 2.28741,4.76641 0.40217,8.62392 -0.78048,1.597 -1.56798,4.02864 -1.75,5.40364 -0.30528,2.30616 0.0164,2.52471 4.14944,2.81875 5.05635,0.35974 7.01962,1.56341 7.01962,4.30369 0,2.25283 -0.86191,2.2935 -8,0.37756 -3.025,-0.81194 -8.25525,-1.4816 -11.62277,-1.48813 l -6.12277,-0.0119 -0.48609,5.05886 c -0.7516,7.82196 -2.50456,8.39513 -3.33113,1.0892 z M 749.647,756.94252 c 0.10517,-0.0828 0.33017,-3.06444 0.5,-6.62594 l 0.30878,-6.47545 -2.90793,-0.33166 c -3.98217,-0.45419 -9.59207,0.69497 -9.59207,1.96487 0,0.65898 1.44402,0.79862 3.92459,0.37953 3.30185,-0.55784 4.09524,-0.3442 5,1.34636 1.5526,2.90105 1.34512,3.44469 -1.07328,2.81227 -2.74736,-0.71845 -7.85131,0.28366 -7.85131,1.54153 0,0.56216 1.59338,0.6937 3.82863,0.31605 2.8598,-0.48316 4.16111,-0.24623 5.1425,0.93627 1.78186,2.147 0.78946,2.85573 -4.1346,2.95278 -2.28845,0.0451 -4.32555,0.57008 -4.52688,1.16661 -0.24648,0.73032 1.52141,0.93479 5.41215,0.62594 3.17801,-0.25227 5.86425,-0.52639 5.96942,-0.60916 z m -7.25934,-32.7116 c -0.40081,-0.64853 -2.08234,-0.88364 -4.04357,-0.56538 -1.84658,0.29966 -4.66884,0.16873 -6.27169,-0.29096 -1.90728,-0.547 -3.30915,-0.44092 -4.05708,0.30701 -1.53223,1.53223 -2.69255,-0.40752 -3.51183,-5.87088 -0.95258,-6.35227 -2.30901,-7.69519 -6.54111,-6.47598 -7.10564,2.04703 -7.48533,0.99923 -1.00214,-2.76552 4.47795,-2.60032 6.5948,-4.46399 6.81509,-6 0.35873,-2.50128 1.21268,-2.79585 2.98045,-1.02808 1.84778,1.84778 1.42804,4.52687 -0.9727,6.20841 -1.91138,1.33878 -1.97245,1.59866 -0.50777,2.16071 0.91571,0.35139 4.51779,0.14209 8.00462,-0.46511 12.90714,-2.24769 15.25417,-0.99637 14.36111,7.65662 -0.69947,6.77715 -3.29447,10.29874 -5.25338,7.12916 z m 1.1371,-7.40578 c 0.34609,-1.84483 0.38173,-3.75475 0.0792,-4.24426 -0.4896,-0.79218 -14.54322,0.40241 -15.51822,1.31909 -0.20352,0.19135 -0.0928,1.83139 0.24609,3.64453 l 0.61612,3.29663 6.97377,-0.33088 6.97378,-0.33088 0.62926,-3.35423 z m -13.31898,0.85371 c -0.6875,-0.27741 -1.25,-0.99189 -1.25,-1.58772 0,-0.59583 0.27596,-0.80737 0.61325,-0.47008 0.33729,0.33729 2.32698,-0.0724 4.42153,-0.91051 3.06374,-1.22587 4.24986,-1.28745 6.06697,-0.31496 2.17765,1.16544 2.19154,1.25792 0.38734,2.57718 -1.81394,1.32639 -7.69649,1.73205 -10.23909,0.70609 z m 17.45957,-9.83331 c -4.14856,-3.16766 -7.4627,-7.19373 -6.54059,-7.94561 0.18206,-0.14846 3.62475,1.24058 7.65043,3.08673 6.23875,2.86107 7.27225,3.68718 7,5.59535 -0.48743,3.41633 -2.96585,3.19126 -8.10984,-0.73647 z m -15.78526,-2.12862 -2.42431,-2.62421 2.25,0.6916 c 1.9925,0.61245 2.25,0.34274 2.25,-2.35666 0,-3.0112 -0.0517,-3.04117 -4.25268,-2.46536 -3.50495,0.4804 -4.58716,0.2133 -6.15499,-1.51914 l -1.90231,-2.10202 6.15499,0 c 5.01089,0 6.15499,-0.30158 6.15499,-1.62245 0,-1.32439 0.27388,-1.39514 1.49092,-0.38509 1.00353,0.83286 2.98536,1.01325 6.06242,0.55181 3.01127,-0.45157 5.06215,-0.27834 6.00909,0.50754 2.60126,2.15886 1.5136,2.94819 -4.06243,2.94819 l -5.5,0 0,4.3 c 0,3.84825 -1.28784,6.7 -3.02569,6.7 -0.34412,0 -1.71662,-1.1809 -3.05,-2.62421 z m -4.10698,-12.89179 c -0.34235,-0.34235 1.37906,-2.46737 3.82535,-4.72228 4.06725,-3.74906 4.58395,-3.96366 6.0393,-2.50831 2.87578,2.87577 0.42468,5.42679 -7.0062,7.29183 -1.2298,0.30866 -2.51611,0.2811 -2.85845,-0.0612 z"
         id="path4447"
         inkscape:connector-curvature="0" />
      <path
         style="fill:#8f8f8f"
         d="m 691.621,779.09113 c 0.21333,-1.2375 3.53296,-23.36953 7.37695,-49.18229 3.84399,-25.81275 7.10132,-47.04453 7.23852,-47.18173 0.1372,-0.1372 6.88017,-1.96767 14.98438,-4.06772 l 14.73493,-3.81826 14.73493,3.81826 c 8.10421,2.10005 14.88248,3.96582 15.06282,4.14616 0.18034,0.18034 3.43336,21.18712 7.22892,46.68174 3.79556,25.49461 7.13104,47.59134 7.41218,49.10384 l 0.51115,2.75 -44.83633,0 -44.83633,0 0.38788,-2.25 z m 85.92369,-2.5 c -0.3135,-1.5125 -3.53805,-22.775 -7.16566,-47.25 -3.62761,-24.475 -6.66936,-44.56532 -6.75945,-44.64516 -0.0901,-0.0798 -6.34314,-1.77955 -13.89568,-3.77713 l -13.73187,-3.63198 -14.01813,3.68986 c -8.0743,2.12532 -14.01812,4.19293 -14.01812,4.87633 0,1.44823 -12.79731,86.87864 -13.59239,90.73808 l -0.56652,2.75 42.15891,0 42.15891,0 -0.57,-2.75 z m -43.13507,-9.77315 -0.69007,-5.52316 -3.63189,0.64908 c -1.99753,0.35699 -5.43188,1.26086 -7.63188,2.0086 -5.68436,1.932 -10.85873,1.75471 -12.84501,-0.44011 -2.59246,-2.86464 -2.05424,-3.26275 4.09501,-3.02903 8.84549,0.33621 20.25,-1.19874 20.25,-2.72546 0,-0.75722 -1.46379,-1.42507 -3.52089,-1.6064 -3.93593,-0.34695 -4.81101,-2.14676 -1.26872,-2.60941 4.6715,-0.61012 5.28424,-1.56562 1.36778,-2.1329 -5.40335,-0.78265 -5.77193,-2.85354 -0.65355,-3.672 2.24146,-0.35842 4.07538,-1.21107 4.07538,-1.89476 0,-0.9356 -1.14054,-1.03001 -4.61085,-0.38169 -2.53597,0.47377 -5.08745,0.56685 -5.66994,0.20685 -0.67142,-0.41496 -0.8134,-0.0143 -0.38789,1.09458 0.36917,0.96202 0.96582,4.25576 1.32589,7.31944 0.48134,4.09545 0.34862,5.38116 -0.50127,4.8559 -0.63577,-0.39293 -1.15733,-1.25036 -1.15902,-1.9054 -0.002,-0.65504 -1.49823,-4.15922 -3.32563,-7.78707 l -3.32254,-6.59608 7.83673,-0.10176 c 8.48052,-0.11012 9.81452,-0.50108 9.81452,-2.87638 0,-1.22339 -0.71956,-1.41728 -3.39622,-0.91514 -3.37067,0.63234 -8.60378,-0.9339 -8.60378,-2.57507 0,-0.46171 2.7,-0.83948 6,-0.83948 6.40664,0 7.22153,-0.84903 4.92804,-5.13447 -0.98387,-1.83836 -0.79895,-1.97679 2.25,-1.68426 2.81612,0.2702 3.37157,0.75226 3.64775,3.1658 0.30601,2.67423 0.53827,2.80721 3.8258,2.19047 2.15968,-0.40516 4.04541,-0.20397 4.92421,0.52537 2.58756,2.14748 1.49183,2.93709 -4.0758,2.93709 -4.83333,0 -5.5,0.24242 -5.5,2 0,2.32873 0.69211,2.3965 8.48718,0.83103 5.55322,-1.11525 5.9056,-1.06419 7.66678,1.11078 2.21141,2.73098 2.34548,5.34889 0.42728,8.34337 -0.78032,1.21815 -1.56782,3.56482 -1.75,5.21482 -0.31992,2.89746 -0.1781,3.01089 4.14914,3.31875 5.05635,0.35974 7.01962,1.56341 7.01962,4.30369 0,2.24594 -0.0326,2.2477 -7,0.37756 -3.025,-0.81194 -8.5375,-1.4816 -12.25,-1.48813 l -6.75,-0.0119 -0.0136,3.25 c -0.0172,4.09832 -0.9742,7.75 -2.03102,7.75 -0.44628,0 -1.12194,-2.48542 -1.50149,-5.52315 z m 15.29391,-9.94683 c 0.13626,-0.1057 0.36126,-3.0807 0.5,-6.6111 l 0.25225,-6.41892 -3.90468,-0.31959 c -4.76422,-0.38993 -8.59532,0.47919 -8.59532,1.94993 0,0.70066 1.21954,0.86345 3.4017,0.45408 2.44783,-0.45922 3.85246,-0.18741 5.00919,0.96933 2.01091,2.01091 1.07753,3.73604 -1.56722,2.89663 -2.5173,-0.79896 -6.84367,0.24828 -6.84367,1.65657 0,0.68953 1.39277,0.83354 3.92459,0.40579 3.33328,-0.56315 4.09193,-0.3504 5.03519,1.4121 1.24018,2.3173 1.21818,2.32707 -4.70978,2.09237 -3.28238,-0.12996 -4.25,0.19243 -4.25,1.416 0,1.33709 0.8971,1.48322 5.75,0.93663 3.1625,-0.3562 5.86149,-0.73412 5.99775,-0.83982 z m -7.29775,-32.47274 c -0.5225,-0.51849 -3.31841,-1.08099 -6.21312,-1.25 -7.39548,-0.43178 -7.04325,-2.24502 0.506,-2.60481 5.62034,-0.26787 6.30228,-0.53421 6.83855,-2.67091 1.01274,-4.03504 0.11344,-6.05006 -2.61264,-5.85402 -1.35783,0.0977 -4.85685,0.32265 -7.77559,0.5 l -5.30681,0.32246 0.30681,5.40088 c 0.42499,7.48145 -1.65296,7.87223 -3.27678,0.61624 -1.81168,-8.09542 -2.65924,-8.95959 -7.47585,-7.62232 -6.67546,1.85335 -7.1824,1.20226 -1.50177,-1.92879 6.96038,-3.83643 9.07052,-5.77815 8.34213,-7.6763 -0.4889,-1.27405 -0.23323,-1.33455 1.56744,-0.37086 2.91664,1.56094 2.7424,4.85486 -0.33088,6.25513 -2.21639,1.00986 -2.30768,1.25895 -0.85162,2.32364 1.26777,0.92703 2.98937,0.90088 7.7325,-0.11741 8.45824,-1.81589 12.00047,-1.70197 13.94664,0.44853 2.04096,2.25523 2.12637,7.10733 0.20602,11.70338 -1.49165,3.57001 -2.45213,4.16142 -4.10103,2.52516 z m -11.37142,-6.98755 c -1.08024,-0.68371 -0.48206,-1.29213 2.49219,-2.53485 3.10712,-1.29824 4.42834,-1.40069 6.41143,-0.49713 2.42383,1.10437 2.44061,1.17991 0.56668,2.55017 -2.16883,1.58588 -7.31243,1.84757 -9.4703,0.48181 z m 17.42142,-9.11937 c -3.93018,-2.97022 -7.43396,-6.78337 -7.47776,-8.13804 -0.0122,-0.37822 3.24026,0.82349 7.22776,2.67046 5.94622,2.75424 7.25,3.7746 7.25,5.67398 0,3.33343 -2.41013,3.26237 -7,-0.2064 z m -15.84501,-1.7791 c -2.05862,-2.27475 -2.12057,-3.28715 -0.15499,-2.53289 1.13574,0.43583 1.5,-0.18177 1.5,-2.5432 0,-3.07784 -0.0525,-3.11042 -3.99458,-2.48005 -2.59225,0.41452 -4.52307,0.20016 -5.5,-0.61062 -2.67082,-2.21658 -1.62326,-3.0045 3.99458,-3.0045 4.4067,0 5.5,-0.32251 5.5,-1.62245 0,-1.33138 0.27007,-1.39831 1.50542,-0.37305 0.9675,0.80295 2.90437,1.02568 5.42053,0.62333 4.52249,-0.72317 7.07405,-0.009 7.07405,1.97916 0,1.00495 -1.3929,1.39301 -5,1.39301 l -5,0 0,4.3 c 0,3.8648 -1.28854,6.7 -3.04501,6.7 -0.35476,0 -1.38976,-0.82293 -2.3,-1.82874 z m -4.11178,-14.10134 c -0.63541,-1.02812 6.27347,-7.06992 8.08456,-7.06992 2.06779,0 2.88733,2.92257 1.25897,4.48961 -1.74552,1.6798 -8.7112,3.60344 -9.34353,2.58031 z"
         id="path4445"
         inkscape:connector-curvature="0" />
      <path
         style="fill:#707070"
         d="m 691.95578,779.42546 c 0,-1.90619 14.02469,-96.49082 14.33649,-96.68744 1.04922,-0.66164 28.05938,-7.39689 29.66351,-7.39689 1.72545,0 28.8278,6.80385 29.73438,7.4646 0.12891,0.094 3.37946,21.29036 7.22345,47.10311 3.84399,25.81276 7.16362,47.94479 7.37695,49.18229 l 0.38788,2.25 -44.36133,0 c -43.04369,0 -44.36133,-0.0569 -44.36133,-1.91567 z m 85.52805,-3.33433 c -0.30942,-1.7875 -3.49173,-23.02442 -7.0718,-47.19315 -3.58007,-24.16873 -6.6098,-44.04169 -6.73273,-44.16213 -0.12294,-0.12044 -6.40401,-1.88277 -13.95794,-3.91628 l -13.73443,-3.6973 -14.01557,3.7499 c -7.70857,2.06245 -14.01558,4.09731 -14.01558,4.5219 0,0.85591 -12.62791,85.53335 -13.52562,90.69706 l -0.56501,3.25 42.09063,0 42.09063,0 -0.56258,-3.25 z m -42.98482,-9.25031 -0.68722,-5.5003 -4.178,0.63231 c -2.29791,0.34778 -5.69547,1.24792 -7.55013,2.00031 -4.81704,1.95416 -10.47663,1.74509 -12.47289,-0.46075 -2.53011,-2.79574 -2.00864,-3.49265 2.09501,-2.79986 5.31792,0.8978 22.25,-1.45079 22.25,-3.08621 0,-0.79792 -1.30462,-1.28519 -3.44098,-1.28519 -1.89254,0 -3.68996,-0.40285 -3.99426,-0.89522 -0.67422,-1.09091 1.74248,-2.10478 5.01703,-2.10478 1.33001,0 2.4185,-0.5625 2.41887,-1.25 4e-4,-0.77226 -1.39712,-1.25 -3.65663,-1.25 -5.18816,0 -5.49784,-2.29186 -0.41941,-3.10394 2.50203,-0.40009 4.07538,-1.18878 4.07538,-2.04292 0,-0.93962 -0.73039,-1.2121 -2.25,-0.83938 -1.2375,0.30352 -3.73197,0.64959 -5.54326,0.76905 -2.7462,0.18111 -3.21095,0.54941 -2.79781,2.21719 1.46498,5.91387 1.77897,10.5 0.71888,10.5 -0.6203,0 -1.12781,-0.6423 -1.12781,-1.42734 0,-0.78503 -1.5564,-4.41332 -3.45867,-8.06285 l -3.45866,-6.63552 3.70866,0.23789 c 2.03977,0.13084 6.07117,0.15912 8.95867,0.0629 4.63361,-0.15448 5.25,-0.42485 5.25,-2.30284 0,-1.91285 -0.39352,-2.06488 -3.8953,-1.50492 -3.07117,0.4911 -4.39348,0.19387 -6.25,-1.40487 l -2.3547,-2.0278 3.5,0.17804 c 7.64106,0.3887 9,0.0244 9,-2.41269 0,-1.265 -0.5625,-2.87208 -1.25,-3.5713 -1.00789,-1.02506 -0.5721,-1.20906 2.25,-0.95 3.01154,0.27646 3.54547,0.71864 3.82579,3.16837 0.30601,2.67423 0.53827,2.80721 3.8258,2.19047 2.15968,-0.40516 4.04541,-0.20397 4.92421,0.52537 2.58756,2.14748 1.49183,2.93709 -4.0758,2.93709 -4.95,0 -5.5,0.21359 -5.5,2.13592 0,1.98981 0.32494,2.08311 4.75,1.36389 9.13528,-1.48479 10.56985,-1.26096 12.09317,1.88683 1.20621,2.49252 1.19398,3.31225 -0.0896,6.004 -0.81761,1.71456 -1.80739,4.57807 -2.19951,6.36337 l -0.71294,3.24599 5.04427,0 c 4.10648,0 5.25395,0.39179 6.1721,2.10736 1.76453,3.29706 -0.0843,4.09128 -5.61696,2.41296 -2.71728,-0.82427 -8.203,-1.50354 -12.1905,-1.5095 -6.96795,-0.0104 -7.25,0.0816 -7.25,2.36418 0,3.64379 -1.16071,8.625 -2.00978,8.625 -0.41787,0 -1.06902,-2.47514 -1.44699,-5.50031 z m 15.01472,-9.84619 c 1.23541,-3.27244 2.00455,-11.42641 1.17423,-12.44863 -1.45746,-1.79432 -11.90643,-1.2128 -12.53738,0.69775 -0.35976,1.08936 0.31179,1.27686 3.00681,0.83951 3.75978,-0.61012 5.45162,7e-5 5.96821,2.15255 0.23942,0.99758 -0.88268,1.40731 -4.08196,1.49054 -2.742,0.0713 -4.58522,0.62885 -4.86936,1.47284 -0.35883,1.06584 0.41297,1.21105 3.58674,0.67484 3.4632,-0.5851 4.20344,-0.3852 5.15454,1.39194 1.05565,1.9725 0.8615,2.07516 -3.9246,2.07516 -3.96869,0 -5.03518,0.34212 -5.03518,1.61522 0,1.38221 0.82949,1.51255 5.75,0.9035 3.1625,-0.39145 5.77608,-0.7808 5.80795,-0.86522 z m -6.55795,-32.52245 c 0,-0.57193 -2.79836,-1.16891 -6.25,-1.33333 -8.09068,-0.3854 -8.09569,-2.20975 -0.007,-2.59525 5.62035,-0.26787 6.30228,-0.53421 6.83856,-2.67091 0.97293,-3.87645 0.12205,-6.03893 -2.34513,-5.96013 -1.22997,0.0393 -4.8691,0.15178 -8.08696,0.25 l -5.85068,0.17857 0.82592,5.22474 c 0.48759,3.08447 0.44602,5.60463 -0.10147,6.15212 -0.97484,0.97484 -1.69097,-0.47024 -4.15126,-8.37686 -1.51156,-4.85771 -1.75021,-4.94848 -9.37188,-3.5646 l -4,0.72629 2.97429,-1.63791 c 9.8795,-5.44052 11.67722,-6.96539 10.8262,-9.1831 -0.68724,-1.79092 0.20293,-1.6944 2.12808,0.23075 2.27035,2.27035 1.93481,4.30588 -0.92453,5.60868 -2.30069,1.04827 -2.35937,1.23291 -0.75,2.36006 1.38911,0.97288 3.4138,0.90492 9.90618,-0.33251 7.5655,-1.44197 8.34897,-1.43166 10.75,0.14156 2.9162,1.91077 3.33501,5.68843 1.28334,11.57567 -1.1251,3.22846 -3.69356,5.45798 -3.69356,3.20616 z m -11.96612,-7.08895 c -1.16697,-0.73807 -0.86091,-1.16332 1.5,-2.08418 3.76434,-1.46824 7.30692,-1.51712 8.70396,-0.12008 2.18552,2.18552 -7.07175,4.18528 -10.20396,2.20426 z m 19.44993,-7.88918 c -3.88803,-2.37076 -9.74639,-8.22368 -8.9892,-8.98086 0.32139,-0.32139 2.02908,0.15021 3.79487,1.04801 1.76578,0.8978 4.92116,2.40282 7.01194,3.34449 2.84168,1.27987 3.72532,2.22548 3.5,3.74545 -0.41349,2.78934 -1.77225,3.00472 -5.31761,0.84291 z m -17.98381,-3.15292 c -1.6277,-1.79859 -1.64331,-2 -0.15499,-2 1.18537,0 1.65499,-0.88287 1.65499,-3.11129 0,-3.01178 -0.1115,-3.09038 -3.48599,-2.45732 -3.50391,0.65734 -7.51401,-0.65903 -7.51401,-2.46657 0,-0.53065 2.475,-0.96482 5.5,-0.96482 4.45114,0 5.5,-0.31561 5.5,-1.65499 0,-1.5298 0.14071,-1.52765 1.86015,0.0284 1.5139,1.37007 2.39079,1.48166 4.71096,0.59953 3.45293,-1.3128 7.42889,-0.48533 7.42889,1.54609 0,1.11047 -1.25081,1.48095 -5,1.48095 l -5,0 0,4.3 c 0,3.8648 -1.28854,6.7 -3.04501,6.7 -0.35476,0 -1.4595,-0.9 -2.45499,-2 z m -1.12431,-17.37439 c 4.19359,-3.92299 6.34148,-4.52622 7.29244,-2.04807 0.90392,2.35557 -1.61863,4.24772 -6.66813,5.00173 l -4.5,0.67196 3.87569,-3.62562 z"
         id="path4443"
         inkscape:connector-curvature="0" />
      <path
         style="fill:#4e4e4e"
         d="m 691.95578,779.8685 c 0,-2.27519 14.08534,-95.85644 14.53804,-96.58893 0.21989,-0.35578 6.93879,-2.3571 14.93088,-4.44736 l 14.53108,-3.80048 14.75,3.81606 c 8.1125,2.09883 14.82211,3.85594 14.91025,3.9047 0.3183,0.17606 14.33975,94.60302 14.33975,96.5705 0,1.99361 -0.5348,2.01814 -44,2.01814 -38.081,0 -44,-0.1981 -44,-1.47263 z m 85.57282,-4.27737 c -0.33164,-2.0625 -3.50164,-23.28636 -7.04445,-47.16413 -3.54281,-23.87777 -6.86938,-43.67777 -7.39238,-44 -0.52299,-0.32223 -6.95505,-2.11523 -14.29345,-3.98444 l -13.34254,-3.39857 -13.46308,3.69498 c -7.40469,2.03224 -13.58,3.81191 -13.72291,3.95482 -0.23532,0.23531 -14.31401,92.77912 -14.31401,94.09061 0,0.3062 18.93955,0.55673 42.0879,0.55673 l 42.0879,0 -0.60298,-3.75 z m -42.98908,-9.33028 -0.67392,-5.08028 -4.1917,0.70818 c -2.30544,0.3895 -5.94172,1.32563 -8.08064,2.08028 -5.39867,1.90477 -10.00429,1.72925 -11.98249,-0.45664 -2.58306,-2.85424 -1.99486,-3.48122 2.57965,-2.74973 5.72296,0.91514 21.76536,-1.37918 21.76536,-3.1128 0,-0.82475 -1.2725,-1.30873 -3.44098,-1.30873 -4.96375,0 -5.39201,-1.84316 -0.60608,-2.60847 2.55553,-0.40864 4.04706,-1.1777 4.04706,-2.08673 0,-0.9845 -0.63223,-1.23891 -2,-0.8048 -2.26373,0.71848 -6,-0.20281 -6,-1.47949 0,-0.46459 1.8,-1.14882 4,-1.52051 2.38298,-0.4026 4,-1.2276 4,-2.04078 0,-1.05529 -1.19117,-1.23045 -5.25,-0.77199 -2.8875,0.32615 -5.41321,0.73065 -5.61269,0.89891 -0.19948,0.16825 0.17981,2.56732 0.84287,5.33126 1.93441,8.06351 0.77159,7.79169 -3.64456,-0.85195 -3.94184,-7.71529 -4.02555,-8.06545 -1.92818,-8.06545 1.20591,0 2.68177,0.48921 3.27969,1.08713 0.78284,0.78285 1.2752,0.78285 1.75902,0 0.36954,-0.59792 2.89533,-1.08713 5.61287,-1.08713 4.27431,0 4.94098,-0.26985 4.94098,-2 0,-1.72664 -0.66667,-2 -4.87756,-2 -3.33217,0 -5.31239,-0.5271 -6.25,-1.66363 -1.25146,-1.51699 -1.01986,-1.60762 2.62756,-1.0282 5.57731,0.886 8.5,-0.0509 8.5,-2.7248 0,-1.20085 -0.5625,-2.75545 -1.25,-3.45467 -1.00789,-1.02506 -0.5721,-1.20906 2.25,-0.95 3.1411,0.28835 3.50371,0.62893 3.53616,3.3213 0.0199,1.65 0.36488,2.92161 0.76665,2.8258 5.44965,-1.2996 6.9594,-1.35308 8.23815,-0.29181 2.62326,2.17712 1.54845,2.96601 -4.04096,2.96601 -4.9527,0 -5.5,0.21288 -5.5,2.13929 0,1.97606 0.36243,2.09004 4.75,1.49384 2.6125,-0.355 5.9523,-0.91341 7.42177,-1.24091 2.26815,-0.50551 2.92211,-0.11137 4.32888,2.60904 1.57248,3.04084 1.55094,3.45133 -0.42177,8.03701 -3.14728,7.31607 -2.91325,7.96173 2.88594,7.96173 3.95828,0 5.18405,0.40965 6.04624,2.02067 1.74377,3.25827 0.34906,3.89419 -5.26371,2.39999 -2.88604,-0.76831 -8.45188,-1.40226 -12.36852,-1.40879 l -7.12117,-0.0119 -0.66327,5 c -0.3648,2.75 -1.0398,5 -1.5,5 -0.4602,0 -1.13999,-2.28613 -1.51065,-5.08028 z m 13.01293,-8.50991 c 1.63652,-0.43935 2.32567,-1.80799 3.14017,-6.23634 0.72746,-3.95511 0.72547,-6.06574 -0.007,-6.9686 -1.45492,-1.79445 -11.90452,-1.2128 -12.53548,0.69775 -0.36058,1.09186 0.31584,1.2762 3.05302,0.83202 3.28798,-0.53356 5.75222,0.5226 5.75222,2.46536 0,0.44 -2.025,0.8 -4.5,0.8 -3.49379,0 -4.5,0.36466 -4.5,1.63084 0,1.30469 0.69851,1.51749 3.49264,1.06407 2.51286,-0.40778 3.96796,-0.0938 5.18705,1.11916 1.59041,1.58246 1.37605,1.70448 -3.49264,1.98819 -3.72164,0.21687 -5.18705,0.71126 -5.18705,1.75 0,1.51032 5.3758,1.9907 9.59667,0.85755 z m -4.59667,-33.40981 c 0,-0.55445 -2.64699,-1 -5.94098,-1 -7.79049,0 -8.67666,-1.67439 -1.32252,-2.49885 8.22203,-0.92176 8.2635,-0.9499 8.2635,-5.60569 l 0,-4.16731 -4.63957,0.63593 c -2.55176,0.34975 -6.40709,0.63592 -8.56739,0.63592 -3.26856,0 -3.84214,0.29373 -3.41739,1.75 0.97869,3.35547 1.02415,8.75351 0.0777,9.23008 -0.52436,0.26404 -1.62839,-1.98596 -2.45339,-5 -2.11152,-7.71419 -2.61121,-8.2756 -6.68553,-7.51125 -1.90107,0.35664 -4.21204,0.89391 -5.13548,1.19392 -0.92345,0.30002 1.35851,-1.3263 5.07101,-3.61404 3.7125,-2.28775 6.75,-4.8096 6.75,-5.60412 0,-1.93585 1.63345,-1.8422 2.39301,0.1372 1.00961,2.631 0.72087,3.29467 -2.06945,4.75666 -2.54124,1.33149 -2.57818,1.45491 -0.73135,2.44331 1.39444,0.74628 4.27851,0.61095 10.18766,-0.47805 7.62566,-1.40533 8.4375,-1.3913 10.84707,0.1875 2.41955,1.58536 2.55669,2.06684 1.93139,6.78063 -0.37021,2.79076 -1.11312,5.89627 -1.6509,6.90113 -1.04536,1.95327 -2.90743,2.48294 -2.90743,0.82703 z m -11.5,-6.96015 c -1.85832,-0.76153 -1.80058,-0.89822 0.8151,-1.92972 3.97861,-1.56896 8.6849,-1.4209 8.6849,0.27324 0,2.28149 -5.59439,3.25696 -9.5,1.65648 z m 19,-7.92144 c -3.34328,-2.08804 -10.34716,-9.11841 -9.08406,-9.11841 0.44455,0 3.92669,1.44483 7.7381,3.21073 5.48391,2.54081 6.86892,3.61989 6.6379,5.17167 -0.40576,2.72546 -1.79677,2.91892 -5.29194,0.73601 z m -17.62756,-2.78103 c -1.06996,-1.29619 -1.09695,-1.75534 -0.12244,-2.08334 0.6875,-0.23139 1.25,-1.78329 1.25,-3.44866 0,-2.91661 -0.1282,-3.00391 -3.48599,-2.37399 -3.50391,0.65734 -7.51401,-0.65903 -7.51401,-2.46657 0,-0.53065 2.475,-0.96482 5.5,-0.96482 4.45114,0 5.5,-0.31561 5.5,-1.65499 0,-1.49545 0.19033,-1.48274 1.97448,0.13189 1.69265,1.53183 2.3958,1.61236 4.92628,0.56421 3.36951,-1.3957 7.09924,-0.59384 7.09924,1.52628 0,1.05247 -1.32675,1.43261 -5,1.43261 l -5,0 0,3.56574 c 0,3.71125 -1.45867,7.43426 -2.91274,7.43426 -0.4633,0 -1.45997,-0.74818 -2.21482,-1.66262 z m -1.30376,-17.83738 c 3.71439,-3.50313 5.82089,-4.29671 6.87555,-2.59024 1.58422,2.56333 -3.43355,6.09024 -8.66465,6.09024 -1.5552,0 -1.21376,-0.66794 1.7891,-3.5 z"
         id="path4441"
         inkscape:connector-curvature="0" />
      <path
         style="fill:#2f2f2f"
         d="m 691.95578,780.32687 c 0,-1.52676 13.99998,-95.33058 14.40072,-96.48889 0.19088,-0.55174 6.93938,-2.74962 14.99665,-4.88419 l 14.6496,-3.88104 14.22651,3.76373 c 7.82459,2.07005 14.53392,4.04293 14.90964,4.38419 0.61889,0.56212 14.81688,93.17307 14.81688,96.64783 0,1.27453 -5.919,1.47263 -44,1.47263 -29.07907,0 -44,-0.34395 -44,-1.01426 z m 85.97915,-2.23574 c -0.0494,-2.96201 -13.7991,-92.90328 -14.27529,-93.37947 -0.8046,-0.80461 -25.4773,-7.37053 -27.69614,-7.37053 -2.02382,0 -26.96869,6.62764 -27.70096,7.35991 -0.37598,0.37597 -14.30676,91.66851 -14.30676,93.7564 0,0.49756 18.35196,0.88369 42,0.88369 32.94446,0 41.9955,-0.26951 41.97915,-1.25 z m -42.99446,-10.5 c -0.0232,-5.67565 -0.9953,-6.58986 -6.11095,-5.74692 -2.40556,0.39638 -5.8912,1.34534 -7.74586,2.1088 -5.71758,2.35361 -10.37268,1.66774 -12.22957,-1.80189 -0.98746,-1.84509 -0.7915,-1.91652 3.49442,-1.27381 6.04599,0.90666 21.60727,-1.39592 21.60727,-3.19719 0,-0.85923 -1.2329,-1.33899 -3.44098,-1.33899 -4.92003,0 -5.30283,-1.69854 -0.56327,-2.49928 2.58022,-0.43593 4.00425,-1.20696 4.00425,-2.16807 0,-1.11845 -0.71058,-1.33549 -2.84066,-0.86765 -1.87189,0.41114 -3.24096,0.14158 -4.01445,-0.79042 -0.96923,-1.16785 -0.47416,-1.52622 2.84065,-2.05628 2.64719,-0.4233 4.01446,-1.16052 4.01446,-2.16456 0,-1.25522 -0.92201,-1.40497 -5.25,-0.85271 -2.8875,0.36845 -5.40181,0.79826 -5.58736,0.95513 -0.18555,0.15688 0.19126,2.8316 0.83736,5.94384 0.6461,3.11224 0.96843,5.8649 0.7163,6.11703 -0.25213,0.25213 -2.10055,-2.99944 -4.1076,-7.22573 -2.00706,-4.22628 -3.41698,-7.91635 -3.13317,-8.20016 0.28381,-0.28381 1.57186,-0.035 2.86233,0.55303 1.41826,0.6462 2.9032,0.71651 3.75423,0.17775 0.77435,-0.49021 3.32041,-0.89819 5.65791,-0.90661 3.57823,-0.0129 4.25,-0.33144 4.25,-2.01531 0,-1.72664 -0.66667,-2 -4.87756,-2 -3.28399,0 -5.31851,-0.53133 -6.22725,-1.62629 -1.22229,-1.47276 -0.9546,-1.55954 2.83538,-0.91923 5.51548,0.93183 8.26943,-0.008 8.26943,-2.82187 0,-1.22793 -0.54,-2.77261 -1.2,-3.43261 -0.93333,-0.93333 -0.65556,-1.1966 1.25,-1.18469 3.8338,0.024 5.15411,1.32326 4.39958,4.32955 -0.73003,2.9087 0.33602,3.37543 3.65393,1.59974 2.39719,-1.28294 5.49248,-0.43982 6.32207,1.72206 0.49358,1.28625 0.0808,1.48614 -2.15762,1.04489 -4.54417,-0.89578 -8.26796,0.24472 -8.26796,2.53226 0,1.81418 0.46414,1.95344 4.75,1.42513 2.6125,-0.32203 5.97125,-0.87864 7.46388,-1.2369 2.38727,-0.57299 2.91748,-0.22444 4.40564,2.89628 1.54983,3.25001 1.55896,3.75034 0.10886,5.96347 -0.87059,1.3287 -1.89071,4.0566 -2.26693,6.06201 l -0.68403,3.6462 4.4563,0 c 3.0472,0 4.97962,0.57826 6.11129,1.82874 2.44957,2.70674 2.03358,3.45208 -1.59501,2.85779 -12.21504,-2.00056 -19.87269,-2.85343 -21.1656,-2.35729 -0.919,0.35265 -1.7632,2.53792 -2.17255,5.62377 -0.78101,5.88753 -2.40487,6.75526 -2.42716,1.29699 z m 15.81164,-15.43027 c 1.47521,-7.93253 0.77923,-8.81973 -6.91877,-8.81973 -4.45371,0 -5.87756,0.34945 -5.87756,1.4425 0,0.97705 1.34628,1.54173 4.17228,1.75 5.9664,0.43973 6.31307,2.8075 0.41105,2.8075 -3.57083,0 -4.58333,0.36027 -4.58333,1.63084 0,1.2945 0.6975,1.51766 3.38202,1.08202 3.15453,-0.51191 5.61798,0.57868 5.61798,2.48714 0,0.44 -2.025,0.8 -4.5,0.8 -3.33333,0 -4.5,0.38889 -4.5,1.5 0,1.16162 1.31372,1.5 5.82349,1.5 l 5.8235,0 1.14934,-6.18027 z m -7.79633,-27.85112 c 0,-0.53273 -2.3625,-0.9755 -5.25,-0.98392 -8.44875,-0.0246 -9.02503,-1.65366 -0.87456,-2.47218 l 7.12456,-0.71549 0,-4.53444 0,-4.53443 -4.63957,0.63593 c -2.55176,0.34975 -6.34425,0.63592 -8.42775,0.63592 l -3.78817,0 0.56765,5.5 c 0.73998,7.16974 -1.00863,7.22157 -2.60745,0.0773 -1.49682,-6.68849 -2.81128,-7.8832 -7.77891,-7.07026 l -3.8258,0.62609 5.38569,-3.22744 c 2.96213,-1.77509 5.6046,-4.06452 5.87214,-5.08763 0.38028,-1.45416 0.78721,-1.61059 1.86431,-0.71667 1.49331,1.23934 1.88142,3.89863 0.56899,3.89863 -0.44488,0 -1.65098,0.61576 -2.68022,1.36837 -1.81288,1.32561 -1.80565,1.40352 0.23164,2.49385 1.60117,0.85692 3.87128,0.75979 9.51343,-0.40703 8.30901,-1.71834 12.12365,-0.98515 13.24427,2.54558 0.90112,2.83919 -1.30507,11.71036 -3.08184,12.39216 -0.78012,0.29937 -1.41841,0.10842 -1.41841,-0.42432 z m -11.43362,-6.86639 c -2.57524,-1.00847 -0.89793,-1.95797 4.85069,-2.74591 3.69894,-0.50699 4.58293,-0.33672 4.58293,0.88277 0,0.89223 -1.27962,1.76684 -3.125,2.13592 -3.64113,0.72823 -3.76625,0.72282 -6.30862,-0.27278 z m 14.25337,-12.0641 c -2.92586,-2.72903 -4.86975,-4.94917 -4.31975,-4.93363 2.59757,0.0734 14.03351,6.57686 14.32332,8.14551 0.66617,3.60562 -4.45839,1.96026 -10.00357,-3.21188 z m -12.77658,1.04255 c -0.60093,-1.12286 -0.64622,-2.05655 -0.10912,-2.25 0.50494,-0.18187 1.24222,-1.63626 1.63839,-3.23197 l 0.72033,-2.90131 -4.34113,0.58227 c -4.32153,0.57964 -7.95164,-0.47714 -7.95164,-2.31484 0,-0.53065 2.68588,-0.96482 5.96861,-0.96482 5.26085,0 5.89294,-0.20752 5.33044,-1.75 -0.58504,-1.60429 -0.46275,-1.59611 1.46868,0.0982 1.79873,1.57793 2.60561,1.68365 5.51695,0.72282 3.84433,-1.26874 6.71532,-0.57933 6.71532,1.61255 0,1.02787 -0.97691,1.41614 -3.25,1.29169 -6.48645,-0.35513 -6.75,-0.21494 -6.75,3.59044 0,3.79892 -1.46699,7.43426 -3,7.43426 -0.5113,0 -1.39187,-0.8637 -1.95683,-1.91933 z m -1.34317,-17.58067 c 1.925,-1.925 4.08186,-3.5 4.79301,-3.5 1.57937,0 2.57092,2.27853 1.64412,3.77812 -0.82253,1.33088 -5.57792,3.22188 -8.10223,3.22188 -1.46271,0 -1.12495,-0.70995 1.6651,-3.5 z"
         id="path4439"
         inkscape:connector-curvature="0" />
      <path
         style="fill:#030303"
         d="m 692.50739,776.59113 c 0.31639,-2.0625 3.59374,-23.96155 7.283,-48.66455 l 6.70775,-44.91456 14.47882,-3.86243 14.47882,-3.86243 14.87128,3.77698 c 8.17921,2.07735 15.02865,4.22699 15.221,4.77699 0.30987,0.88608 14.40772,94.84945 14.40772,96.02871 0,0.25921 -19.80532,0.47129 -44.01182,0.47129 l -44.01182,0 0.57525,-3.75 z m 85.44839,1.31306 c 0,-3.23797 -13.13719,-90.21765 -13.90497,-92.06306 -0.65545,-1.57542 -3.72593,-2.7387 -14.46356,-5.47967 l -13.63147,-3.47967 -13.63147,3.47967 c -10.78353,2.75268 -13.7986,3.89752 -14.43143,5.47967 -0.73218,1.83053 -13.96712,89.37573 -13.9462,92.25 0.007,0.98001 9.08062,1.25 42.0091,1.25 35.8475,0 42,-0.21049 42,-1.43694 z m -43,-12.06306 c 0,-4.24166 -0.15788,-4.50018 -2.75,-4.50317 -1.5125,-0.002 -5.98189,0.95473 -9.93198,2.12548 -7.82691,2.3198 -11.64297,2.00755 -13.2998,-1.08826 -0.98069,-1.83244 -0.75952,-1.90918 3.90894,-1.35627 2.72165,0.32234 8.57644,0.0217 13.01064,-0.6681 6.51155,-1.01296 8.0622,-1.58867 8.0622,-2.99326 0,-1.29865 -0.61057,-1.62236 -2.41091,-1.2782 -1.326,0.25348 -3.17756,0.0318 -4.11458,-0.49254 -1.3658,-0.76435 -0.8877,-1.0839 2.41092,-1.61137 2.78983,-0.44611 4.11457,-1.16267 4.11457,-2.22558 0,-1.20204 -0.66249,-1.42213 -2.84066,-0.94373 -1.94635,0.42749 -3.24419,0.13768 -4.12244,-0.92054 -1.09856,-1.32369 -0.91862,-1.54446 1.25887,-1.54446 3.64681,0 5.70423,-0.98538 5.70423,-2.73199 0,-1.16684 -0.72293,-1.37342 -3.125,-0.89301 -1.71875,0.34375 -4.25263,0.625 -5.63084,0.625 -2.71609,0 -2.65964,-0.75058 -0.75209,10 0.46431,2.61675 -0.38162,1.48113 -3.35209,-4.5 -2.18522,-4.4 -3.78997,-8.18319 -3.56613,-8.40709 0.22385,-0.2239 1.39264,0.0327 2.59733,0.57027 1.34891,0.6019 4.29444,0.6474 7.66761,0.11843 6.33784,-0.99387 7.16121,-1.37796 7.16121,-3.34063 0,-1.05487 -1.28852,-1.44098 -4.80887,-1.44098 -2.64488,0 -5.64351,-0.6103 -6.66362,-1.35622 -1.6281,-1.1905 -1.07103,-1.34325 4.55887,-1.25 5.81803,0.0964 6.40296,-0.0795 6.2988,-1.89378 -0.0631,-1.1 -0.44879,-2.7875 -0.85699,-3.75 -0.56324,-1.32811 -0.26373,-1.75 1.24238,-1.75 2.68449,0 4.26937,2.13126 3.57095,4.80204 -0.65387,2.50041 1.36883,2.95853 4.84606,1.09757 1.68301,-0.90072 2.44224,-0.70653 4.18426,1.07024 l 2.12816,2.17062 -3.66306,-0.66521 c -4.75242,-0.86305 -7.83694,0.15718 -7.83694,2.59213 0,2.17901 3.63593,2.55053 10.14844,1.03697 4.27686,-0.99398 5.37293,-0.49346 6.72877,3.07268 0.78417,2.06251 0.58012,3.46449 -0.93744,6.44109 -1.06687,2.09262 -1.93977,4.8346 -1.93977,6.09331 0,2.03361 0.48405,2.28856 4.34501,2.28856 2.93939,0 4.88041,0.5916 6,1.82874 3.32183,3.67058 1.73746,3.85982 -10.34501,1.23569 -2.475,-0.53753 -6.622,-0.99693 -9.21556,-1.02088 l -4.71555,-0.0435 -0.66328,5 c -0.82561,6.22378 -2.40561,6.55218 -2.40561,0.5 z m 15.964,-14.21468 c 1.06603,-6.12157 1.00885,-6.83451 -0.64735,-8.07134 -1.13828,-0.85007 -3.12361,-1.14743 -5.31665,-0.79633 -1.925,0.30819 -4.2875,0.56529 -5.25,0.57134 -1.02734,0.006 -1.75,0.76931 -1.75,1.84732 0,1.50053 0.75861,1.82053 4.14868,1.75 2.48852,-0.0518 4.32262,0.4139 4.58334,1.16369 0.30648,0.8814 -0.91687,1.25 -4.14869,1.25 -3.83175,0 -4.58333,0.31069 -4.58333,1.89469 0,1.6409 0.45846,1.79129 3.42274,1.12274 2.13714,-0.48201 3.82736,-0.36733 4.5,0.30531 1.72786,1.72786 1.25134,2.76792 -1.17274,2.55958 -4.5272,-0.38908 -6.75,0.14363 -6.75,1.61768 0,1.16377 1.32193,1.5 5.89734,1.5 l 5.89735,0 1.16931,-6.71468 z m -7.96338,-27.95199 c 3.4e-4,-0.45833 -2.21605,-0.67966 -4.92533,-0.49185 -2.70927,0.18781 -5.74705,-0.13601 -6.75062,-0.71959 -1.84999,-1.0758 -1.43117,-1.1447 9.67533,-1.59171 2.16409,-0.0871 2.57711,-0.67364 3.07385,-4.36525 0.31562,-2.34554 0.22597,-4.47963 -0.19922,-4.74241 -0.42519,-0.26278 -4.35707,-0.17889 -8.7375,0.18642 l -7.96443,0.66421 0.55355,5.36342 c 0.6714,6.50525 -1.20677,7.43195 -2.2566,1.11343 -0.38838,-2.3375 -1.33515,-5.47911 -2.10393,-6.98135 -1.37226,-2.68146 -1.35272,-2.71421 1.06987,-1.79314 1.61477,0.61393 4.99019,0.51468 9.76604,-0.28717 9.03681,-1.51726 11.62275,-1.16789 12.95218,1.74989 1.22384,2.68603 -0.89594,11.64248 -2.91477,12.31542 -0.68147,0.22716 -1.23876,0.038 -1.23842,-0.42032 z m -10.0136,-6.40099 -2.48702,-0.65169 2.93446,-1.1857 c 3.36829,-1.36101 6.73841,-1.11327 7.28059,0.53518 0.45538,1.38455 -4.334,2.19159 -7.72803,1.30221 z m -14.12075,-8.95357 c 2.95146,-1.73362 5.59392,-4.02254 5.87215,-5.08648 0.39642,-1.51592 0.80397,-1.68704 1.88372,-0.79092 0.75782,0.62894 1.37786,1.53277 1.37786,2.00853 0,1.40552 -7.26853,5.57618 -11.0265,6.32697 -3.23679,0.64666 -3.10779,0.47914 1.89277,-2.4581 z m 29.53377,-0.81205 c -4.08636,-2.96863 -6.95921,-5.96775 -6.29254,-6.56909 0.95246,-0.85913 13.40654,6.11749 13.70718,7.67859 0.51067,2.65169 -2.95017,2.13383 -7.41464,-1.1095 z m -15.11243,-1.07779 c -0.9607,-1.53833 -0.9101,-2.01982 0.25945,-2.46862 0.79912,-0.30665 1.45294,-1.75519 1.45294,-3.21898 0,-2.56112 -0.16891,-2.6424 -4.48126,-2.15633 -2.93067,0.33033 -4.84216,0.0702 -5.52429,-0.75169 -0.80744,-0.97291 0.20784,-1.41308 4.49475,-1.94869 3.04579,-0.38055 5.28017,-1.10877 4.96529,-1.61826 -0.31489,-0.5095 -0.096,-0.92636 0.48649,-0.92636 0.58246,0 1.05902,0.45 1.05902,1 0,1.30462 3.60133,1.28373 6.06574,-0.0352 1.34285,-0.71868 2.54577,-0.70792 3.93426,0.0352 3.21749,1.72195 2.3864,3.16311 -1.41306,2.45033 -5.10242,-0.95722 -7.39954,0.0791 -6.82598,3.07954 0.46954,2.45625 -1.40612,8.47013 -2.64173,8.47013 -0.35098,0 -1.1752,-0.85998 -1.83162,-1.91107 z m -1.74537,-17.39165 c 3.26167,-3.91794 6.45776,-4.81857 6.45776,-1.81973 0,2.42086 -1.6602,3.71164 -5.95776,4.63206 l -3.45775,0.74056 2.95775,-3.55289 z"
         id="path4437"
         inkscape:connector-curvature="0" />
    </g>
  </g>
</svg>
