<?xml version="1.0" encoding="UTF-8" standalone="no"?>
<!-- Created with Inkscape (http://www.inkscape.org/) -->

<svg
   xmlns:dc="http://purl.org/dc/elements/1.1/"
   xmlns:cc="http://creativecommons.org/ns#"
   xmlns:rdf="http://www.w3.org/1999/02/22-rdf-syntax-ns#"
   xmlns:svg="http://www.w3.org/2000/svg"
   xmlns="http://www.w3.org/2000/svg"
   xmlns:sodipodi="http://sodipodi.sourceforge.net/DTD/sodipodi-0.dtd"
   xmlns:inkscape="http://www.inkscape.org/namespaces/inkscape"
   width="42.077885"
   height="50"
   id="svg2"
   version="1.1"
   inkscape:version="0.48.3.1 r9886"
   sodipodi:docname="New document 1">
  <defs
     id="defs4" />
  <sodipodi:namedview
     id="base"
     pagecolor="#ffffff"
     bordercolor="#666666"
     borderopacity="1.0"
     inkscape:pageopacity="0.0"
     inkscape:pageshadow="2"
     inkscape:zoom="2.8"
     inkscape:cx="33.297916"
     inkscape:cy="41.823805"
     inkscape:document-units="px"
     inkscape:current-layer="layer1"
     showgrid="false"
     fit-margin-top="0"
     fit-margin-left="0"
     fit-margin-right="0"
     fit-margin-bottom="0"
     inkscape:window-width="1366"
     inkscape:window-height="718"
     inkscape:window-x="0"
     inkscape:window-y="0"
     inkscape:window-maximized="1" />
  <metadata
     id="metadata7">
    <rdf:RDF>
      <cc:Work
         rdf:about="">
        <dc:format>image/svg+xml</dc:format>
        <dc:type
           rdf:resource="http://purl.org/dc/dcmitype/StillImage" />
        <dc:title></dc:title>
      </cc:Work>
    </rdf:RDF>
  </metadata>
  <g
     inkscape:label="Layer 1"
     inkscape:groupmode="layer"
     id="layer1"
     transform="translate(-661.05039,-716.5968)">
    <g
       id="g3801"
       transform="matrix(0.44526861,0,0,0.44526861,359.39028,426.05043)">
      <path
         inkscape:connector-curvature="0"
         id="path3031"
         d="m 678.82251,762.4484 15.40483,-100.51018 30.05204,-8.83883 30.55711,9.84899 15.9099,100.25764 z"
         style="fill:#ffffff;fill-opacity:1;stroke:none" />
      <g
         id="g3022">
        <path
           inkscape:connector-curvature="0"
           id="path3010"
           d="m 677.72896,763.48812 c 0,-4.32229 15.23243,-102.20265 15.97666,-102.66261 0.4986,-0.30816 7.68282,-2.30311 15.96494,-4.43324 l 15.0584,-3.87296 15.0584,3.87296 c 8.28212,2.13013 15.46634,4.12508 15.96494,4.43324 0.74423,0.45996 15.97666,98.34032 15.97666,102.66261 0,1.07851 -8.68428,1.32296 -47,1.32296 -38.31572,0 -47,-0.24445 -47,-1.32296 z m 90.41739,-3.42704 c -0.21745,-0.9625 -3.5532,-23.09037 -7.41277,-49.17305 -3.85957,-26.08268 -7.12702,-47.50666 -7.26101,-47.60884 -0.13398,-0.10218 -6.65611,-1.88752 -14.49361,-3.96742 l -14.25,-3.78164 -14.25,3.78164 c -7.8375,2.0799 -14.35853,3.86415 -14.49118,3.96499 -0.13265,0.10084 -3.39455,21.29981 -7.24867,47.10883 -3.85412,25.80902 -7.24166,47.93799 -7.52787,49.17549 l -0.52038,2.25 43.92543,0 c 41.31769,0 43.90196,-0.10389 43.53006,-1.75 z m -36.56932,-23.56694 c 0.89229,-1.07513 0.13443,-1.18034 -4.12755,-0.573 -9.55292,1.36131 -14.31245,1.04794 -16.85974,-1.11006 l -2.36078,-2 2.40999,-2.03985 c 1.3255,-1.12191 3.07893,-2.4142 3.89653,-2.87175 1.30269,-0.72902 1.28541,-1.11907 -0.13975,-3.15377 -1.4533,-2.07487 -1.46549,-2.49956 -0.11458,-3.9923 1.36499,-1.50829 1.26595,-1.83147 -1.02023,-3.32944 -4.09326,-2.682 -3.08526,-3.69539 2.96804,-2.98394 5.15301,0.60563 5.5,0.51155 5.5,-1.49127 0,-1.49369 -0.62232,-2.13768 -2.06574,-2.13768 -2.39707,0 -5.93426,-1.70765 -5.93426,-2.86488 0,-1.05413 15.74415,-4.41128 17.01225,-3.62755 2.0935,1.29385 0.95864,4.30693 -2.01225,5.34258 -3.97196,1.38464 -4.13323,4.3265 -0.19399,3.53865 1.86293,-0.37259 3.23625,-0.0428 4.08609,0.98119 1.5571,1.87619 0.65394,3.63001 -1.86933,3.63001 -2.86077,0 -5.02277,1.07801 -5.02277,2.50444 0,0.81948 1.18615,1.23664 3.25,1.14301 2.28775,-0.10379 3.25,0.29666 3.25,1.35255 0,0.82937 -1.45302,1.92777 -3.25,2.4568 -2.05792,0.60585 -3.25,1.59623 -3.25,2.70009 0,1.42084 1.06358,1.79878 5.75,2.04321 5.0459,0.26318 5.7882,0.56835 6.06198,2.49217 0.22675,1.59333 -0.51099,2.61784 -2.70034,3.75 -3.682,1.90403 -4.70668,1.97964 -3.26357,0.24079 z m -11.00819,-7.6252 0.33987,-2.36807 -3.32278,2.10384 c -4.4566,2.82171 -4.71425,4.12818 -0.65122,3.30209 2.45756,-0.49966 3.38057,-1.27123 3.63413,-3.03786 z m 0.16012,-7.66485 c 0,-1.05452 -0.5438,-1.39831 -1.58179,-1 -0.86998,0.33384 -1.99498,0.60699 -2.5,0.60699 -0.50501,0 -0.91821,0.45 -0.91821,1 0,0.55 1.125,1 2.5,1 1.62953,0 2.5,-0.55953 2.5,-1.60699 z m -19.5,-11.69365 c 7.50323,-6.30175 14.20677,-13.68878 16.73039,-18.4362 l 2.25221,-4.23683 -2.2413,-1.56987 c -2.91587,-2.04235 -2.83524,-3.26929 0.26599,-4.04764 1.58638,-0.39816 3.44878,-0.0124 5.07064,1.05028 2.11192,1.38379 2.50765,2.32622 2.24702,5.3513 -0.31462,3.65177 -0.26628,3.70164 8.89942,9.18066 12.3657,7.39189 15.27563,10.04334 15.27563,13.91871 0,2.30935 -0.45494,3.09023 -1.80038,3.09023 -1.79466,0 -9.06772,-5.90039 -18.85838,-15.29918 l -5.15875,-4.95228 -6.87814,6.87573 c -5.92103,5.91895 -17.24413,13.48408 -19.94433,13.32509 -0.47301,-0.0279 1.38998,-1.94035 4.13998,-4.25 z"
           style="fill:#fecece" />
        <path
           inkscape:connector-curvature="0"
           id="path3008"
           d="m 677.72349,764.06108 c -0.009,-1.22309 15.18203,-102.72961 15.41057,-102.97395 0.1152,-0.12317 7.27119,-2.09557 15.90218,-4.3831 l 15.69272,-4.15916 15.69272,4.15916 c 8.63099,2.28753 15.78698,4.25993 15.90218,4.3831 0.22854,0.24434 15.4195,101.75086 15.41057,102.97395 -0.003,0.4125 -21.15547,0.75 -47.00547,0.75 -25.85,0 -47.00246,-0.3375 -47.00547,-0.75 z m 90.53805,-4.5 c -0.27804,-1.2375 -3.44721,-22.275 -7.0426,-46.75 -3.59539,-24.475 -6.77472,-45.6805 -7.06517,-47.12334 -0.49196,-2.4439 -1.46511,-2.87269 -14.22645,-6.26853 -7.5341,-2.00485 -14.37336,-3.64518 -15.19836,-3.64518 -0.825,0 -7.66426,1.64033 -15.19836,3.64518 -12.76102,3.39575 -13.73453,3.8247 -14.22682,6.26853 -0.29065,1.44284 -3.46783,22.42334 -7.06041,46.62334 -3.59257,24.2 -6.78876,45.2375 -7.10264,46.75 l -0.57068,2.75 44.09851,0 44.0985,0 -0.50552,-2.25 z m -56.78258,-23.76385 c -2.89834,-1.79785 -2.09884,-4.7594 1.82881,-6.77441 3.15361,-1.6179 3.39123,-1.99172 2,-3.14633 -1.77272,-1.47123 -2.1007,-4.62483 -0.57881,-5.56541 1.60185,-0.99 1.16041,-2.31431 -1,-3 -1.1,-0.34913 -2,-1.21339 -2,-1.9206 0,-0.94037 1.34329,-1.15674 5,-0.80538 4.58358,0.44043 5,0.30328 5,-1.64679 0,-1.48313 -0.62548,-2.12723 -2.06574,-2.12723 -2.39137,0 -5.93426,-1.7067 -5.93426,-2.85868 0,-0.80031 10.45207,-3.24425 14.97254,-3.50093 3.75593,-0.21326 3.81377,2.90163 0.0897,4.82745 -4.04284,2.09063 -4.19807,4.94055 -0.22153,4.06716 1.87029,-0.41079 3.2409,-0.14165 4.01233,0.78786 1.44552,1.74174 -0.13358,3.31613 -3.84277,3.83132 -1.41916,0.19712 -2.63647,1.11526 -2.83091,2.13518 -0.27447,1.43976 0.12878,1.67142 2.06399,1.18571 1.55497,-0.39027 2.85914,-0.0566 3.68959,0.94407 1.09077,1.31429 0.88124,1.70103 -1.3893,2.56429 -1.47058,0.55911 -3.09449,1.01657 -3.60869,1.01657 -0.5142,0 -0.9349,0.87648 -0.9349,1.94774 0,1.63889 0.81616,1.99567 5.14701,2.25 6.1437,0.36079 8.71509,2.90794 5.41186,5.36083 -2.3458,1.74193 -4.97416,1.92241 -3.95384,0.27149 0.47993,-0.77655 0.18662,-0.96409 -0.87231,-0.55774 -3.3036,1.26771 -18.2302,1.80093 -19.98272,0.71383 z m 7.5,-3.9725 c 1.20114,-0.009 1.75,-0.80579 1.75,-2.53933 0,-2.44917 -0.0855,-2.48146 -2.82283,-1.06594 -1.55256,0.80286 -3.46506,2.24245 -4.25,3.1991 -1.30177,1.58651 -1.2075,1.68138 1.07283,1.07959 1.375,-0.36287 3.2875,-0.66591 4.25,-0.67342 z m 1.75,-10.11944 c 0,-1.99004 -0.80082,-2.29161 -3.41821,-1.28722 -2.45079,0.94045 -1.865,2.87659 0.91892,3.03722 1.83685,0.10599 2.49929,-0.35784 2.49929,-1.75 z m 13.96245,-18.25428 -11.53755,-10.36199 -2.96245,3.95487 c -2.98712,3.9878 -12.45038,11.67535 -17.73827,14.40982 -5.63272,2.9128 -4.60458,0.75496 2.45048,-5.14298 7.05907,-5.9013 14.75036,-15.52963 14.80003,-18.52741 0.0139,-0.84027 -0.96193,-2.37306 -2.16856,-3.40621 l -2.19387,-1.87845 2.29607,-0.84937 c 1.47577,-0.54593 3.24203,-0.39199 4.94387,0.43087 2.10572,1.01815 2.65016,1.99175 2.65934,4.75559 0.006,1.91143 0.35458,4.01224 0.77387,4.66846 0.41928,0.65622 4.21295,3.09791 8.43037,5.42598 10.30852,5.69043 15.47801,10.41427 15.08499,13.78457 -0.16542,1.41857 -0.97577,2.696 -1.80077,2.83873 -0.825,0.14273 -6.6919,-4.40338 -13.03755,-10.10248 z"
           style="fill:#feb0b0" />
        <path
           inkscape:connector-curvature="0"
           id="path3006"
           d="m 677.98837,762.06108 c 0.28017,-1.5125 3.80004,-24.87418 7.82193,-51.91485 l 7.31253,-49.16485 15.80307,-4.12947 15.80306,-4.12947 15.80306,4.12947 15.80307,4.12947 7.31253,49.16485 c 4.02189,27.04067 7.54176,50.40235 7.82193,51.91485 l 0.50941,2.75 -47.25,0 -47.25,0 0.50941,-2.75 z m 90.7094,0 c -0.24241,-5.82836 -14.97834,-98.63735 -15.73543,-99.10394 -0.57656,-0.35533 -7.16494,-2.21191 -14.64084,-4.12573 l -13.59254,-3.47967 -13.59254,3.47967 c -7.47591,1.91382 -14.07063,3.77432 -14.65495,4.13445 -0.81634,0.50312 -15.52944,92.82551 -15.71279,98.59522 -0.0312,0.98166 9.40576,1.25 43.96028,1.25 24.2,0 43.98596,-0.3375 43.96881,-0.75 z m -56.71881,-26.2261 c -3.34353,-1.42576 -2.79025,-4.41802 1.21584,-6.57544 3.10295,-1.67105 3.31236,-2.03607 2,-3.48621 -1.92671,-2.12899 -1.86664,-4.87122 0.12344,-5.63488 1.30187,-0.49958 1.07582,-1.02992 -1.25,-2.93266 l -2.83928,-2.32278 5.25,-0.036 c 4.57135,-0.0313 5.25,-0.2945 5.25,-2.03596 0,-1.29424 -0.66667,-2 -1.88922,-2 -1.03906,0 -2.95156,-0.88503 -4.25,-1.96673 l -2.36078,-1.96673 2.5,-0.0451 c 1.375,-0.0248 4.90359,-0.68491 7.84131,-1.46684 2.93772,-0.78194 5.97522,-1.17846 6.75,-0.88115 2.41333,0.92608 1.54703,3.4481 -1.59131,4.63269 -3.70787,1.39957 -4.36591,5.25354 -0.74169,4.34392 1.24207,-0.31174 2.88264,-0.18094 3.64572,0.29066 2.12112,1.31093 0.5555,3.87581 -2.58642,4.2372 -1.79299,0.20623 -2.92914,0.99964 -3.15805,2.20537 -0.29556,1.55681 0.0731,1.77516 2.12703,1.25967 1.6064,-0.40318 2.91687,-0.10269 3.70768,0.85017 1.01091,1.21808 0.75923,1.65013 -1.45068,2.49034 -1.47058,0.55911 -3.09449,1.01657 -3.60869,1.01657 -0.5142,0 -0.9349,0.87648 -0.9349,1.94774 0,1.63889 0.81616,1.99567 5.14701,2.25 6.1437,0.36079 8.71509,2.90794 5.41186,5.36083 -2.32306,1.72504 -4.97422,1.9225 -3.96873,0.29559 0.48862,-0.79061 -0.0356,-0.96576 -1.69099,-0.56498 -4.97203,1.20381 -16.48539,1.65739 -18.64915,0.73472 z m 6.88337,-4.01025 c 1.44372,-0.0121 3.37526,-3.83836 2.4199,-4.79372 -0.6187,-0.61869 -6.11129,2.54138 -7.6261,4.38755 -1.30177,1.58651 -1.2075,1.68138 1.07283,1.07959 1.375,-0.36287 3.23502,-0.66591 4.13337,-0.67342 z m 1.86663,-10.11944 c 0,-1.99004 -0.80082,-2.29161 -3.41821,-1.28722 -2.45079,0.94045 -1.865,2.87659 0.91892,3.03722 1.83685,0.10599 2.49929,-0.35784 2.49929,-1.75 z m 19.3383,-13.7434 c -3.76106,-3.27634 -9.02293,-7.9131 -11.69304,-10.3039 l -4.85474,-4.34691 -7.64991,7.5 c -6.47825,6.3513 -16.44935,13.06401 -17.60549,11.8523 -0.18488,-0.19377 2.64001,-2.83035 6.27753,-5.85907 7.132,-5.93835 13.84785,-14.02995 14.85564,-17.89882 0.42545,-1.63327 0.0977,-2.79235 -1.02083,-3.61024 -2.54853,-1.86354 -1.95263,-3.48417 1.28111,-3.48417 4.14564,0 6.37883,2.54786 5.64796,6.44377 -0.57421,3.06078 -0.37117,3.26272 8.45933,8.41336 11.97382,6.98407 16.15807,10.69031 15.76616,13.96502 -0.16611,1.38798 -0.82478,2.69507 -1.46372,2.90463 -0.63893,0.20956 -4.23893,-2.29963 -8,-5.57597 z"
           style="fill:#fe8e8e" />
        <path
           inkscape:connector-curvature="0"
           id="path3004"
           d="m 678.11882,762.06108 c 0.30183,-1.5125 3.77004,-24.575 7.70714,-51.25 3.9371,-26.675 7.43933,-48.81591 7.78272,-49.20203 0.34339,-0.38612 7.48593,-2.53009 15.87231,-4.76438 l 15.24797,-4.06234 15.24797,4.06234 c 8.38638,2.23429 15.52892,4.37826 15.87231,4.76438 0.34339,0.38612 3.84561,22.52703 7.78272,49.20203 3.9371,26.675 7.40531,49.7375 7.70714,51.25 l 0.54877,2.75 -47.15891,0 -47.15891,0 0.54877,-2.75 z m 90.34669,-2.5 c -0.28883,-1.7875 -3.57167,-23.95 -7.29521,-49.25 -3.72354,-25.3 -7.09596,-46.37736 -7.49427,-46.83857 -0.39831,-0.46121 -7.07435,-2.53009 -14.83564,-4.59752 l -14.11143,-3.75896 -14.11143,3.75896 c -7.76129,2.06743 -14.43524,4.13631 -14.83101,4.59752 -0.57595,0.67119 -15.13032,95.86582 -15.07327,98.58857 0.009,0.4125 19.87459,0.75 44.14655,0.75 l 44.13084,0 -0.52513,-3.25 z M 711.97896,735.6495 c -1.2375,-0.62923 -2.25,-1.71762 -2.25,-2.41865 0,-1.27642 4.05219,-4.93717 6.29125,-5.68352 0.81586,-0.27195 0.64259,-0.94527 -0.55018,-2.13804 -2.13833,-2.13833 -2.24555,-4.46739 -0.24107,-5.23658 1.88101,-0.72181 1.96603,-2.36163 0.12244,-2.36163 -0.75765,0 -1.93775,-0.675 -2.62244,-1.5 -1.07901,-1.30013 -0.56235,-1.5 3.87756,-1.5 4.45577,0 5.12244,-0.26029 5.12244,-2 0,-1.29424 -0.66667,-2 -1.88922,-2 -1.03906,0 -2.95156,-0.88503 -4.25,-1.96673 l -2.36078,-1.96673 3.09107,-0.0333 c 1.70009,-0.0183 5.23128,-0.67738 7.8471,-1.46463 2.61582,-0.78724 5.38733,-1.1891 6.15893,-0.89301 2.40823,0.92413 1.53804,3.44709 -1.5971,4.63047 -3.66861,1.38475 -4.24106,4.93756 -0.75,4.65477 3.77337,-0.30565 4.75,-0.0189 4.75,1.39447 0,0.74544 -1.45941,1.77389 -3.24313,2.28546 -4.02531,1.15444 -5.43725,4.99776 -1.47028,4.00212 1.57038,-0.39414 2.91248,-0.10798 3.64755,0.77772 1.29529,1.56073 0.81928,2.00325 -3.18414,2.96015 -1.99372,0.47655 -2.75,1.27811 -2.75,2.91469 0,2.01979 0.40932,2.21834 3.88922,1.88647 6.92856,-0.66074 10.79712,3.27304 5.56373,5.65753 -3.19942,1.45776 -3.75507,1.45837 -2.85571,0.003 0.5257,-0.8506 -0.58507,-0.97093 -4.19098,-0.454 -10.14456,1.45429 -13.97115,1.56081 -16.15626,0.44976 z m 8.99238,-4.48822 c 1.07819,-0.66636 0.94156,-4.3502 -0.16134,-4.3502 -1.6408,0 -7.03513,3.46228 -7.57758,4.86358 -0.41579,1.07408 0.26926,1.21404 3.22672,0.65922 2.06503,-0.38741 4.09551,-0.91507 4.5122,-1.1726 z m -0.24238,-9.43095 c 0,-1.56025 -0.54201,-1.98102 -2.23978,-1.7388 -3.22537,0.46016 -3.45782,3.3256 -0.29105,3.58769 1.95592,0.16188 2.53083,-0.25813 2.53083,-1.84889 z m 17.90079,-15.11032 c -4.53511,-4.01991 -9.82849,-8.69657 -11.76306,-10.39257 l -3.51742,-3.08364 -5.70948,6.08364 c -5.29984,5.64715 -13.70149,11.63288 -18.41083,13.11674 -1.35705,0.42759 -1.03557,-0.11206 1,-1.67868 9.78227,-7.52865 19.5,-19.10189 19.5,-23.22335 0,-0.93161 -0.675,-1.95286 -1.5,-2.26944 -2.68518,-1.0304 -1.69449,-3.36163 1.42857,-3.36163 4.14473,0 6.26662,2.4426 5.53052,6.3664 -0.58589,3.12304 -0.43969,3.26193 9.91201,9.41627 10.9678,6.52063 14.91984,10.24169 14.42337,13.58039 -0.54358,3.65551 -2.60332,2.79443 -10.89368,-4.55413 z"
           style="fill:#fe6f6f" />
        <path
           inkscape:connector-curvature="0"
           id="path3002"
           d="m 678.35759,761.56108 c 0.27659,-1.7875 3.75755,-25.075 7.73546,-51.75 l 7.23258,-48.5 15.70166,-4.18376 15.70167,-4.18375 15.70167,4.18375 15.70166,4.18376 7.23258,48.5 c 3.97791,26.675 7.45887,49.9625 7.73546,51.75 l 0.50289,3.25 -46.87426,0 -46.87426,0 0.50289,-3.25 z m 90.38841,0.5 c 0.0679,-2.98947 -14.44841,-97.93925 -15.07941,-98.63278 -0.44175,-0.48552 -7.13343,-2.586 -14.87041,-4.66773 l -14.06722,-3.78496 -14.06722,3.78496 c -7.73698,2.08173 -14.43113,4.18221 -14.87589,4.66773 -0.69477,0.75845 -15.12242,94.68149 -15.07431,98.13278 0.0137,0.9808 9.49338,1.25 44.01742,1.25 24.2,0 44.00767,-0.3375 44.01704,-0.75 z m -55.66471,-26.24331 c -1.18122,-0.47659 -2.4628,-1.37643 -2.84796,-1.99963 -0.81407,-1.31719 2.20117,-5.00706 4.0916,-5.00706 2.12049,0 2.63694,-1.90995 0.96779,-3.5791 -1.97881,-1.97881 -2.00823,-4.31311 -0.0638,-5.05927 1.88101,-0.72181 1.96603,-2.36163 0.12244,-2.36163 -0.75765,0 -1.93775,-0.675 -2.62244,-1.5 -1.07901,-1.30013 -0.56235,-1.5 3.87756,-1.5 4.45577,0 5.12244,-0.26029 5.12244,-2 0,-1.29424 -0.66667,-2 -1.88922,-2 -1.03906,0 -2.95156,-0.88503 -4.25,-1.96673 l -2.36078,-1.96673 3,-0.0451 c 1.65,-0.0248 5.32352,-0.66378 8.16337,-1.4199 3.71668,-0.98958 5.46782,-1.07031 6.25,-0.28814 1.75771,1.75772 1.27535,2.72489 -1.91337,3.83648 -4.46775,1.55747 -4.12831,4.85016 0.5,4.85016 4.74484,0 4.57828,2.3809 -0.25,3.57363 -2.77454,0.6854 -3.75,1.44661 -3.75,2.92637 0,1.93198 0.24632,1.99046 4.875,1.15747 0.48125,-0.0866 1.08434,0.41429 1.34019,1.11311 0.27193,0.74271 -0.81863,1.71812 -2.625,2.34782 -2.23468,0.77902 -3.09019,1.70827 -3.09019,3.35659 0,2.08638 0.35978,2.24076 4.25,1.82369 2.92596,-0.3137 4.87308,0.0363 6.25,1.1235 1.98528,1.56753 1.98224,1.59418 -0.41423,3.62177 -1.83398,1.55167 -2.60095,1.74051 -3.19107,0.78568 -0.62006,-1.00329 -2.20508,-1.01202 -7.85432,-0.0433 -8.09977,1.38896 -8.76082,1.40142 -11.68805,0.22035 z m 7.89005,-4.65649 c 0.41669,-0.25753 0.75762,-1.58011 0.75762,-2.93908 l 0,-2.47084 -3.98282,2.27986 c -5.58383,3.19632 -6.18988,5.22244 -1.287,4.30266 2.06503,-0.38741 4.09551,-0.91507 4.5122,-1.1726 z m 0.57239,-9.6002 c 0.24292,-1.28092 -0.32507,-1.75 -2.119,-1.75 -2.5887,0 -5.16574,2.1967 -3.97452,3.38792 1.32791,1.3279 5.75684,0.13742 6.09352,-1.63792 z m 20.60602,-11.94693 c -2.70644,-2.33735 -7.98287,-7.04627 -11.7254,-10.46426 l -6.80462,-6.21452 -6.69538,6.79107 c -5.76148,5.84381 -15.94948,13.04544 -18.49731,13.07526 -0.44105,0.005 1.80895,-2.16801 5,-4.82925 7.48387,-6.24133 12.70727,-12.07543 15.21842,-16.99769 1.98894,-3.89865 1.98925,-3.939 0.0433,-5.70005 -2.71105,-2.45347 -2.45288,-3.46363 0.8852,-3.46363 4.10299,0 6.80948,3.26814 5.35327,6.46417 -1.29461,2.84137 -0.45563,3.59694 11.10099,9.9974 8.80888,4.87866 13.96141,9.69718 13.52802,12.65107 -0.51802,3.53064 -2.13256,3.24517 -7.4065,-1.30957 z"
           style="fill:#fe4f4f" />
        <path
           inkscape:connector-curvature="0"
           id="path3000"
           d="m 678.21544,762.56108 c 0.28852,-1.2375 3.67686,-23.625 7.52965,-49.75 3.85278,-26.125 7.20811,-48.40986 7.45627,-49.52191 0.37626,-1.68603 3.03241,-2.70792 15.98941,-6.1515 l 15.53819,-4.12958 15.53819,4.12958 c 12.957,3.44358 15.61315,4.46547 15.98941,6.1515 0.24816,1.11205 3.60349,23.39691 7.45627,49.52191 3.85279,26.125 7.24113,48.5125 7.52965,49.75 l 0.52458,2.25 -47.0381,0 -47.0381,0 0.52458,-2.25 z m 90.52535,-1 c 0.0153,-1.61452 -14.23062,-98.15316 -14.54273,-98.5501 -0.12978,-0.16505 -6.81342,-2.07095 -14.85253,-4.23532 l -14.61657,-3.93522 -14.61657,3.93522 c -8.03911,2.16437 -14.72218,4.07027 -14.85127,4.23532 -0.36822,0.47081 -14.5468,96.08985 -14.53906,98.0501 0.006,1.64005 2.77144,1.75 44.0069,1.75 34.52702,0 44.00255,-0.26912 44.01183,-1.25 z M 714.05158,736.133 c -2.64386,-0.53668 -4.73135,-2.85156 -3.85302,-4.27274 0.35299,-0.57113 1.62923,-1.56452 2.83609,-2.20752 1.99507,-1.06295 2.06788,-1.01585 0.80181,0.51879 -1.94698,2.35999 -0.8993,2.94912 3.82512,2.15093 3.67756,-0.62132 4.06738,-0.96873 4.06738,-3.62496 l 0,-2.93778 -3.25,1.68021 c -2.99065,1.54613 -3.14048,1.54818 -1.87756,0.0257 1.17399,-1.4153 1.15331,-1.65455 -0.14301,-1.65455 -1.38379,0 -2.72943,-1.95962 -2.72943,-3.9748 0,-0.44617 0.7875,-1.11103 1.75,-1.47746 1.40315,-0.53418 1.50225,-0.41665 0.5,0.59301 -2.08851,2.10396 -1.41646,3.00202 2,2.67261 2.47888,-0.23901 3.25,-0.7879 3.25,-2.31336 0,-1.35003 -0.56872,-1.90451 -1.75,-1.70616 -0.9625,0.16161 -1.75,-0.17589 -1.75,-0.75 0,-0.57411 -0.58899,-1.04384 -1.30887,-1.04384 -0.71988,0 -2.18238,-0.68976 -3.25,-1.5328 -1.80447,-1.42489 -1.58913,-1.51289 3.05887,-1.25 4.46542,0.25256 5.03287,0.0521 5.30748,-1.87512 0.24061,-1.68853 -0.34254,-2.30069 -2.6809,-2.81428 -1.64361,-0.361 -3.4765,-1.2445 -4.07309,-1.96335 -0.86062,-1.03699 0.003,-1.45282 4.1809,-2.01289 8.84558,-1.18581 12.05221,-1.12969 12.51243,0.21902 0.24884,0.72923 -0.88304,1.72955 -2.65663,2.34782 -4.54864,1.58567 -4.27194,4.8816 0.40981,4.8816 2.44444,0 3.5,0.45238 3.5,1.5 0,0.84925 -0.89619,1.5 -2.06574,1.5 -3.15999,0 -5.93426,1.85706 -5.93426,3.97231 0,1.62855 0.5224,1.81717 3.63421,1.3122 2.84584,-0.46182 3.53288,-0.28549 3.16713,0.81287 -0.25689,0.77144 -1.32978,1.56354 -2.38421,1.76023 -2.88118,0.53743 -4.2647,2.00929 -3.74755,3.98685 0.36432,1.39316 1.51717,1.77092 5.40445,1.77092 6.39107,0 8.35771,1.7654 5.01174,4.49888 -1.75874,1.4368 -2.61435,1.64851 -3.15128,0.77974 -0.67401,-1.09056 -6.10876,-0.89377 -14.39271,0.52116 -1.12298,0.19181 -3.0216,0.14985 -4.21916,-0.0932 z m -8.04694,-30.28863 c 7.33322,-6.83518 12.5735,-13.29851 14.03517,-17.31088 0.41409,-1.13673 -0.066,-2.38857 -1.33165,-3.47225 -2.75073,-2.35524 -2.476,-3.25016 0.99775,-3.25016 3.84911,0 6.70779,3.85204 5.09503,6.8655 -1.22381,2.28672 -0.40813,2.99562 11.42802,9.93205 9.15493,5.36513 12.27389,8.09877 13.06671,11.45245 1.47275,6.22984 -4.61455,2.57692 -19.18136,-11.51051 l -6.11465,-5.91342 -7.38535,7.33697 c -4.06194,4.03533 -9.86035,8.63766 -12.88535,10.2274 l -5.5,2.89045 7.77568,-7.2476 z"
           style="fill:#fe2f2f" />
        <path
           inkscape:connector-curvature="0"
           id="path2998"
           d="m 678.72896,762.33979 c 0,-1.56769 13.6894,-94.28496 14.55209,-98.56014 0.475,-2.35396 1.59527,-2.80914 15.97936,-6.49273 l 15.46855,-3.9613 15.46855,3.9613 c 14.38409,3.68359 15.50436,4.13877 15.97936,6.49273 0.86269,4.27518 14.55209,96.99245 14.55209,98.56014 0,1.27373 -6.17674,1.47129 -46,1.47129 -39.82326,0 -46,-0.19756 -46,-1.47129 z m 90,-1.48184 c 0,-1.93825 -13.78336,-95.71109 -14.32509,-97.45843 -0.15544,-0.50136 -6.78338,-2.64499 -14.72876,-4.76363 l -14.44615,-3.85206 -14.5,3.67449 c -7.975,2.02096 -14.79638,3.9396 -15.15862,4.26362 -0.36225,0.32403 -3.85953,22.18914 -7.77175,48.58914 -3.91222,26.4 -7.28621,48.7875 -7.49776,49.75 -0.36181,1.64617 2.2501,1.75 44.02175,1.75 43.38447,0 44.40638,-0.0449 44.40638,-1.95313 z m -57.90747,-26.43538 c -1.47963,-1.78285 -0.83392,-3.16244 2.21316,-4.72852 1.80908,-0.92979 1.97486,-0.89562 0.94431,0.19462 -1.85503,1.96249 -1.52445,2.92408 1,2.90876 4.97116,-0.0302 6.75,-1.11144 6.75,-4.10298 0,-3.37554 -0.20271,-3.43716 -3.78518,-1.15063 -2.57524,1.64365 -2.64426,1.64365 -1.34238,0 1.18462,-1.49561 1.15041,-1.73274 -0.25,-1.73274 -0.89234,0 -1.62244,-0.45 -1.62244,-1 0,-0.55 1.575,-1 3.5,-1 3.10827,0 3.5,-0.29286 3.5,-2.61663 0,-2.1243 -0.37631,-2.51823 -2,-2.09362 -1.1,0.28765 -2,0.11514 -2,-0.38337 0,-0.49851 -0.58899,-0.90638 -1.30887,-0.90638 -0.71988,0 -2.18238,-0.6952 -3.25,-1.5449 -1.79635,-1.42967 -1.5597,-1.49864 3.17304,-0.92484 4.25525,0.51592 5.22386,0.33422 5.76725,-1.08185 0.86547,-2.25536 -0.91527,-4.2568 -4.12748,-4.63905 -7.21235,-0.85826 -0.74405,-3.63176 9.74606,-4.17895 3.58682,-0.1871 3.80469,1.61636 0.40753,3.37335 -4.23451,2.19006 -3.9375,5.37757 0.50733,5.44474 1.8747,0.0283 3.59828,0.614 3.83018,1.3015 0.25062,0.74303 -0.44998,1.25 -1.72745,1.25 -3.29128,0 -6.01759,1.8487 -6.01759,4.0805 0,1.76924 0.43481,1.92855 3.62846,1.32942 4.67682,-0.87737 4.28551,1.59655 -0.44648,2.82273 -2.49521,0.64657 -3.18198,1.35794 -3.18198,3.29594 0,2.35395 0.28518,2.47141 6,2.47141 5.33333,0 6,0.22222 6,2 0,1.1 -0.3375,2.01008 -0.75,2.02241 -0.4125,0.0123 -5.95712,0.26778 -12.32138,0.56769 -9.61233,0.45296 -11.7855,0.28728 -12.83609,-0.97861 z m 24.0669,-31.64475 -11.22871,-10.10516 -6.76628,6.81921 c -3.72145,3.75056 -9.21837,8.10041 -12.21536,9.66633 l -5.44908,2.84712 3.5,-2.76811 c 5.98659,-4.73472 13.69831,-13.37709 16.15179,-18.10099 l 2.34821,-4.5212 -2.25,-1.52394 c -2.80946,-1.90287 -2.88682,-3.28 -0.18426,-3.28 4.01429,0 6.09486,1.91457 5.79998,5.33723 -0.15124,1.75536 0.0509,3.71878 0.4491,4.36315 0.39824,0.64436 4.73131,3.46474 9.62904,6.2675 11.87282,6.79428 18.00624,13.83022 12.91734,14.81807 -0.81018,0.15727 -6.52598,-4.26137 -12.70177,-9.81921 z"
           style="fill:#fe0404" />
      </g>
    </g>
  </g>
</svg>
