<?xml version="1.0" encoding="UTF-8" standalone="no"?>
<!-- Created with Inkscape (http://www.inkscape.org/) -->

<svg
   xmlns:dc="http://purl.org/dc/elements/1.1/"
   xmlns:cc="http://creativecommons.org/ns#"
   xmlns:rdf="http://www.w3.org/1999/02/22-rdf-syntax-ns#"
   xmlns:svg="http://www.w3.org/2000/svg"
   xmlns="http://www.w3.org/2000/svg"
   xmlns:sodipodi="http://sodipodi.sourceforge.net/DTD/sodipodi-0.dtd"
   xmlns:inkscape="http://www.inkscape.org/namespaces/inkscape"
   width="42.065334"
   height="50"
   id="svg5000"
   version="1.1"
   inkscape:version="0.48.3.1 r9886"
   sodipodi:docname="New document 14">
  <defs
     id="defs5002" />
  <sodipodi:namedview
     id="base"
     pagecolor="#ffffff"
     bordercolor="#666666"
     borderopacity="1.0"
     inkscape:pageopacity="0.0"
     inkscape:pageshadow="2"
     inkscape:zoom="1.979899"
     inkscape:cx="-108.40662"
     inkscape:cy="20.01321"
     inkscape:document-units="px"
     inkscape:current-layer="layer1"
     showgrid="false"
     fit-margin-top="0"
     fit-margin-left="0"
     fit-margin-right="0"
     fit-margin-bottom="0"
     inkscape:window-width="1366"
     inkscape:window-height="718"
     inkscape:window-x="0"
     inkscape:window-y="0"
     inkscape:window-maximized="1" />
  <metadata
     id="metadata5005">
    <rdf:RDF>
      <cc:Work
         rdf:about="">
        <dc:format>image/svg+xml</dc:format>
        <dc:type
           rdf:resource="http://purl.org/dc/dcmitype/StillImage" />
        <dc:title></dc:title>
      </cc:Work>
    </rdf:RDF>
  </metadata>
  <g
     inkscape:label="Layer 1"
     inkscape:groupmode="layer"
     id="layer1"
     transform="translate(-764.32145,-762.79075)">
    <g
       id="g5555"
       transform="matrix(0.46753463,0,0,0.46753463,406.9747,432.78293)">
      <path
         inkscape:connector-curvature="0"
         id="path5045"
         d="m 781.10046,714.71869 -15.15229,97.47972 86.87312,-0.75761 -15.15229,-95.96449 -27.52666,-8.08122 z"
         style="fill:#ffffff;fill-opacity:1;stroke:none" />
      <path
         style="fill:#fed1d1"
         d="m 764.56455,812.04075 c -0.027,-2.92944 14.43647,-96.92316 15.01364,-97.56929 0.40251,-0.45061 7.22069,-2.57549 15.15152,-4.72197 l 14.41968,-3.90269 14.82367,3.91794 c 8.15301,2.15487 14.99658,4.09087 15.20793,4.30221 0.21134,0.21135 3.52612,21.49817 7.36618,47.30404 3.84005,25.80587 7.15404,47.93226 7.36442,49.16976 l 0.38252,2.25 -44.86133,0 c -24.67373,0 -44.86444,-0.3375 -44.86823,-0.75 z m 86.0069,-2.97211 c 0,-1.12255 -12.97025,-88.52161 -13.47436,-90.7959 -0.36902,-1.66487 -2.82862,-2.65291 -14.05549,-5.64615 l -13.60819,-3.62815 -13.68098,3.56534 c -7.52454,1.96093 -13.74939,3.6017 -13.833,3.64615 -0.0836,0.0445 -3.1328,20.33082 -6.77599,45.08082 -3.64318,24.75 -6.79514,45.7875 -7.00436,46.75 -0.35748,1.64462 2.1131,1.75 41.02599,1.75 22.77351,0 41.40638,-0.32495 41.40638,-0.72211 z m -46.5,-16.9389 c -5.22696,-2.83947 -5.95684,-5.33899 -1.55902,-5.33899 4.37353,0 4.50018,-1.40474 0.58868,-6.52909 -4.14231,-5.42671 -4.88899,-11.93076 -1.70092,-14.81592 2.51346,-2.27465 3.68698,-2.08611 6.09868,0.97987 l 2.07258,2.63486 0,-6.57584 c 0,-3.61672 -0.35829,-6.79728 -0.79619,-7.06792 -0.4379,-0.27064 -4.1504,1.51825 -8.25,3.9753 -5.9454,3.56332 -7.52111,4.14715 -7.78639,2.88501 -0.41801,-1.98885 1.59215,-4.50467 3.15569,-3.94953 0.64729,0.22982 2.53318,-0.80943 4.19086,-2.30944 1.65768,-1.50002 2.58018,-2.3898 2.05,-1.9773 -0.53018,0.4125 -1.4153,0.75 -1.96692,0.75 -0.55162,0 0.66338,-1.70647 2.7,-3.79216 4.37788,-4.48335 4.54086,-5.20784 1.17156,-5.20784 -3.64534,0 -4.0093,-2.31041 -1.05,-6.66542 2.97817,-4.38277 3.20516,-5.88124 1.01801,-6.72053 -2.37024,-0.90954 -0.69726,-2.61405 2.56569,-2.61405 1.84692,0 3.44417,0.79935 4.44099,2.22251 2.06656,2.95043 2.00835,3.26032 -1.1933,6.35266 l -2.75,2.6561 3.12677,-0.56599 c 1.99943,-0.36192 3.80214,-0.0333 5,0.91136 1.80816,1.42604 1.78753,1.5372 -0.59405,3.20036 -1.357,0.94765 -3.607,2.73912 -5,3.98105 l -2.53272,2.25804 2.8151,-1.00804 c 4.77667,-1.71046 11.15852,-1.24717 13.15119,0.9547 2.38421,2.63452 1.42527,4.58791 -2.96328,6.03626 -3.88359,1.2817 -6.14403,0.49886 -3.24468,-1.1237 2.85463,-1.59753 1.98829,-2.87531 -1.94946,-2.87531 -3.27101,0 -3.48906,0.14776 -1.91578,1.29817 1.62628,1.18916 1.67508,1.98397 0.58118,9.46521 -0.88472,6.05064 -0.90655,8.99214 -0.0842,11.35105 0.61048,1.75121 1.10996,4.14186 1.10996,5.31255 0,2.18281 -3.44545,5.84978 -5.84163,6.21722 -1.64117,0.25166 -2.66172,1.18579 -2.00881,1.8387 0.2656,0.26559 2.01778,0.0427 3.89374,-0.49532 4.85638,-1.39279 7.14396,-0.42963 6.76484,2.84826 -0.28361,2.45203 -0.70626,2.68282 -5.30814,2.89851 -3.12856,0.14663 -6.12287,-0.37564 -8,-1.39536 z m 2.49287,-19.34901 c -1.17098,-1.64449 -2.6073,-2.98998 -3.19181,-2.98998 -1.72159,0 -0.16773,6.6769 2.38761,10.2595 l 2.31133,3.2405 0.31096,-3.76002 c 0.21582,-2.60962 -0.34043,-4.67481 -1.81809,-6.75 z"
         id="path5033"
         inkscape:connector-curvature="0" />
      <path
         style="fill:#feb0b0"
         d="m 764.84263,810.04075 c 0.28665,-1.5125 3.57409,-23.45 7.30543,-48.75 3.73134,-25.3 7.07581,-46.35026 7.43217,-46.77835 0.35635,-0.42809 7.21079,-2.50715 15.23207,-4.62014 l 14.58415,-3.84178 14.8375,3.97347 c 8.16062,2.18542 14.91108,4.03948 15.00101,4.12014 0.32105,0.28795 14.33649,94.8528 14.33649,96.73099 0,1.85894 -1.32151,1.91567 -44.625,1.91567 l -44.625,0 0.52118,-2.75 z m 85.68706,-2 c -0.023,-0.9625 -3.07457,-22 -6.78133,-46.75 l -6.73957,-45 -13.88899,-3.72708 -13.88899,-3.72708 -13.57968,3.62397 c -7.46882,1.99318 -13.68327,3.69896 -13.80988,3.79061 -0.12662,0.0917 -3.16663,19.93806 -6.75559,44.10312 -3.58896,24.16505 -6.78362,45.17396 -7.09925,46.68646 l -0.57387,2.75 41.57945,0 c 38.94873,0 41.57682,-0.11072 41.5377,-1.75 z m -47.06036,-16.53983 c -3.50117,-2.35944 -3.74034,-4.01918 -0.61238,-4.24962 3.837,-0.28268 4.04953,-2.16092 0.71417,-6.31134 -4.06439,-5.05759 -5.22111,-12.14205 -2.4775,-15.17371 2.30722,-2.54944 3.05421,-2.49003 6.02328,0.47905 l 2.45455,2.45454 0,-6.39553 c 0,-3.51754 -0.38672,-6.63453 -0.85938,-6.92665 -0.47266,-0.29212 -3.82301,1.25632 -7.44523,3.44098 -8.29171,5.00097 -9.96136,5.2061 -7.68014,0.94361 0.55839,-1.04336 1.64073,-1.65701 2.4052,-1.36365 0.76447,0.29335 2.89511,-0.87734 4.73475,-2.60154 2.85148,-2.67255 2.97608,-2.96023 0.8448,-1.95054 -1.89954,0.89991 -1.42922,0.0747 1.95821,-3.4357 4.25917,-4.41381 4.34623,-4.62007 1.95,-4.62007 -4.57846,0 -5.11611,-1.82896 -2.12317,-7.22245 2.64043,-4.75822 2.6627,-4.93138 0.81146,-6.30752 -1.79387,-1.33351 -1.80153,-1.45412 -0.13298,-2.0944 0.97377,-0.37368 2.95535,-0.26528 4.40349,0.24088 3.3267,1.16277 4.13004,5.55373 1.37888,7.5368 -3.52205,2.53873 -3.19301,3.35768 1.20824,3.00724 5.38275,-0.4286 6.9533,2.0191 2.76146,4.30371 -1.49357,0.81402 -4.29059,2.8366 -6.21559,4.49464 l -3.5,3.0146 4.20169,-1.98675 c 5.31035,-2.51097 11.35524,-2.57099 14.35428,-0.14251 2.99065,2.42168 2.07372,4.47349 -2.64656,5.92218 -4.08603,1.25404 -6.01134,0.70957 -3.15108,-0.89111 2.82581,-1.5814 2.0024,-2.87531 -1.82976,-2.87531 -3.33078,0 -3.45932,0.1121 -1.90774,1.66369 1.18687,1.18687 1.47928,2.54825 1.02024,4.75 -1.55351,7.45142 -1.73395,12.82576 -0.57017,16.98238 1.10645,3.95184 1.03864,4.72464 -0.61348,6.99199 -1.02158,1.402 -2.58982,2.56323 -3.48498,2.58052 -0.89515,0.0173 -2.15394,0.66568 -2.7973,1.44088 -0.99189,1.19516 -0.25027,1.32609 4.87755,0.86111 5.50565,-0.49923 6.04731,-0.37468 6.04731,1.39054 0,3.00196 -2.01888,4.33889 -6.55212,4.33889 -2.67136,0 -5.36389,-0.81661 -7.55,-2.28983 z m 6.10212,-11.73161 c 0,-2.99167 -4.46167,-10.97856 -6.13289,-10.97856 -1.24847,0 -1.06797,5.74272 0.26139,8.31574 1.48581,2.87585 3.96924,5.68426 5.02649,5.68426 0.46475,0 0.84501,-1.35965 0.84501,-3.02144 z"
         id="path5031"
         inkscape:connector-curvature="0" />
      <path
         style="fill:#fe9090"
         d="m 765.06344,809.54075 c 0.32045,-1.7875 3.6463,-23.84297 7.3908,-49.01215 3.7445,-25.16918 6.99227,-45.94624 7.21727,-46.17124 0.225,-0.225 6.9749,-2.15706 14.99979,-4.29347 l 14.5907,-3.88438 15.15472,3.95889 c 8.3351,2.17739 15.15473,4.45874 15.15473,5.06966 0,0.61091 3.15,22.15213 7,47.86936 3.85,25.71724 7,47.42342 7,48.23597 0,1.28104 -5.91954,1.47736 -44.54531,1.47736 l -44.54532,0 0.58262,-3.25 z m 85.50801,-0.93093 c 0,-3.69258 -13.20433,-91.27461 -13.87229,-92.01246 -0.34524,-0.38136 -6.59995,-2.30992 -13.89936,-4.28567 l -13.27166,-3.59228 -13.95962,3.6774 c -13.83118,3.64356 -13.96455,3.70599 -14.49561,6.78567 -0.68285,3.95994 -13.50146,90.47517 -13.50146,91.1239 0,0.26641 18.675,0.48437 41.5,0.48437 l 41.5,0 0,-2.18093 z m -45.50039,-16.20498 c -1.65021,-0.7192 -3.61781,-2.05159 -4.37244,-2.96086 -1.21308,-1.46167 -1.08616,-1.65323 1.0954,-1.65323 1.3571,0 3.27345,-0.89062 4.25856,-1.97915 1.64863,-1.82172 1.65885,-2.0299 0.12848,-2.61716 -2.435,-0.9344 -6.60961,-8.59615 -6.60961,-12.13076 0,-3.95085 2.89952,-7.63246 5.28895,-6.71555 0.97428,0.37387 2.41483,1.86391 3.2012,3.31119 1.35306,2.49024 1.43192,2.2456 1.46981,-4.55955 0.022,-3.95504 -0.42099,-7.47592 -0.98447,-7.82417 -0.56348,-0.34825 -3.92745,1.2002 -7.47549,3.44099 -8.08208,5.10429 -9.78412,5.34208 -7.48475,1.04566 0.61535,-1.14978 1.62606,-1.66264 2.56592,-1.30198 0.94824,0.36387 2.78765,-0.59984 4.73474,-2.48066 6.79342,-6.56218 17.70073,-9.17222 21.68409,-5.18886 3.24696,3.24696 2.75224,3.9335 -4.374,6.06991 -2.83669,0.85042 -2.85019,0.8353 -1.03976,-1.1652 2.20016,-2.43116 0.7239,-3.87782 -3.19307,-3.12904 -2.22677,0.42567 -2.3273,0.63963 -0.99322,2.11378 1.27427,1.40805 1.31014,2.76671 0.25348,9.60079 -1.02594,6.6354 -0.99417,8.67954 0.19088,12.27916 1.35606,4.11909 1.31516,4.43195 -0.88561,6.77456 -1.26903,1.35082 -2.84879,2.45604 -3.51057,2.45604 -0.66178,0 -1.77301,0.68653 -2.4694,1.52563 -1.11889,1.34818 -0.61212,1.44875 4.35704,0.86473 4.69413,-0.55171 5.72767,-0.38862 6.25558,0.98711 1.59028,4.1442 -5.59576,6.0677 -12.09174,3.23662 z m 4.50039,-12.81034 c 0,-3.11643 -4.36602,-10.80375 -6.136,-10.80375 -1.24599,0 -1.06322,5.74587 0.2645,8.31574 1.48581,2.87585 3.96924,5.68426 5.02649,5.68426 0.46475,0 0.84501,-1.43831 0.84501,-3.19625 z m -6.04179,-29.12231 c 4.33511,-4.55218 4.38681,-4.68144 1.87244,-4.68144 -4.51224,0 -5.02711,-2.0386 -1.81733,-7.19558 2.47814,-3.98148 2.68242,-4.81204 1.43764,-5.84512 -2.15163,-1.78569 -1.76393,-2.9593 0.97761,-2.9593 5.32551,0 7.38628,5.76476 3.07143,8.59196 -3.60072,2.35928 -3.08351,3.29599 1.4818,2.68366 3.23015,-0.43326 4.11357,-0.19065 4.67991,1.28518 0.42295,1.10221 0.21026,1.98188 -0.53963,2.23184 -0.68076,0.22692 -3.16824,1.88616 -5.52774,3.68721 -2.35951,1.80105 -5.59598,4.08653 -7.19217,5.07883 -2.32208,1.44357 -2.01105,0.86846 1.55604,-2.87724 z"
         id="path5029"
         inkscape:connector-curvature="0" />
      <path
         style="fill:#fe7070"
         d="m 765.1235,810.04075 c 0.27613,-1.5125 3.61543,-23.61304 7.42065,-49.11232 3.80523,-25.49927 7.05556,-46.48959 7.22295,-46.64516 0.64467,-0.59911 27.66207,-7.4935 29.43397,-7.51105 3.4124,-0.0338 29.55368,7.33084 29.9386,8.43443 0.4204,1.20534 14.43178,94.96203 14.43178,96.56984 0,0.67048 -15.07481,1.01426 -44.475,1.01426 l -44.475,0 0.50205,-2.75 z m 85.58943,0.27518 c 0.26115,-0.26115 -2.57553,-20.84865 -6.30373,-45.75 -3.72821,-24.90135 -6.79188,-46.00074 -6.80815,-46.88753 -0.0225,-1.22761 -3.43361,-2.50264 -14.29505,-5.34335 l -14.26544,-3.73101 -13.45277,3.6449 c -7.39902,2.0047 -13.63141,3.82355 -13.84976,4.0419 -0.3897,0.3897 -14.10487,90.80138 -14.14573,93.24991 -0.0163,0.98018 8.90136,1.25 41.31248,1.25 22.73334,0 41.547,-0.21367 41.80815,-0.47482 z M 804.631,792.0392 c -3.94095,-2.00281 -5.15556,-4.24845 -2.29787,-4.24845 1.06059,0 2.67242,-0.82219 3.58184,-1.82709 1.55079,-1.7136 1.4903,-1.97758 -0.97389,-4.25 -5.15298,-4.75195 -6.76594,-11.97697 -3.5582,-15.93836 1.59774,-1.97312 2.06218,-2.08043 3.93695,-0.90962 1.16904,0.73008 2.57344,2.24939 3.12089,3.37624 0.76282,1.57015 1.01118,0.36876 1.06305,-5.14215 0.0372,-3.95504 -0.37699,-7.46581 -0.92047,-7.8017 -0.54349,-0.33589 -4.15837,1.27267 -8.03306,3.57459 -3.8747,2.30192 -7.28621,3.944 -7.58114,3.64907 -0.97388,-0.97387 1.93164,-4.54185 3.27789,-4.02525 0.72549,0.2784 2.97837,-0.9507 5.00639,-2.73133 7.75742,-6.8111 17.33491,-8.95756 21.47875,-4.81372 l 2.16068,2.16068 -2.27146,1.83932 c -1.24931,1.01163 -3.17671,1.83932 -4.28313,1.83932 -1.69933,0 -1.81292,-0.23947 -0.7316,-1.54238 1.7946,-2.16236 -0.0756,-3.73656 -3.43688,-2.89293 -2.39569,0.60127 -2.53336,0.85426 -1.25454,2.30535 1.23815,1.40494 1.24826,2.79371 0.0733,10.05993 -0.74975,4.63648 -0.98862,8.91148 -0.53081,9.5 0.4578,0.58852 1.09801,2.47539 1.42269,4.19306 0.45984,2.43273 0.0899,3.59316 -1.67374,5.25 -1.24524,1.16983 -2.74246,2.12697 -3.32717,2.12697 -0.5847,0 -1.63287,0.68653 -2.32926,1.52563 -1.11889,1.34818 -0.61212,1.44875 4.35704,0.86473 4.69413,-0.55171 5.72767,-0.38862 6.25558,0.98711 1.68434,4.38931 -6.0552,6.1624 -12.5318,2.87098 z m 4.94045,-12.51632 c 0,-3.27582 -4.19363,-10.73213 -6.03605,-10.73213 -1.32621,0 -1.21447,5.64658 0.16455,8.31574 1.48581,2.87585 3.96924,5.68426 5.02649,5.68426 0.46475,0 0.84501,-1.47054 0.84501,-3.26787 z m -5.44775,-29.47999 3.85905,-3.74786 -2.94344,-0.50985 c -3.92305,-0.67952 -4.17514,-2.96854 -0.87597,-7.95391 2.57305,-3.88815 2.61955,-4.16542 0.9085,-5.41658 -1.31659,-0.96271 -1.47721,-1.52024 -0.59505,-2.06544 2.25468,-1.39346 6.0349,0.35522 6.72674,3.11171 0.53322,2.12452 0.14583,3.01614 -1.98478,4.56817 -3.69232,2.68967 -3.30375,3.65936 1.22305,3.05218 4.7908,-0.64258 6.53699,1.30362 3.26383,3.63767 -1.2123,0.86447 -4.31767,3.25927 -6.90084,5.32177 -6.05468,4.83428 -7.6579,4.83555 -2.68109,0.002 z"
         id="path5027"
         inkscape:connector-curvature="0" />
      <path
         style="fill:#fe5050"
         d="m 765.2357,810.54075 c 0.2128,-1.2375 3.52782,-23.36491 7.3667,-49.17203 3.83888,-25.80712 7.08987,-46.99578 7.22442,-47.08591 0.13454,-0.0901 6.76963,-1.8927 14.74463,-4.00571 l 14.5,-3.84184 14.5,3.75518 c 7.975,2.06535 14.77793,4.05784 15.11762,4.42775 0.33969,0.36991 3.61462,20.93727 7.27761,45.70525 3.66299,24.76799 6.93144,46.70549 7.26322,48.75 l 0.60323,3.71731 -44.49217,0 -44.49217,0 0.38691,-2.25 z m 86.01935,-2 c -0.29328,-1.2375 -3.53449,-22.5 -7.20271,-47.25 -3.66821,-24.75 -6.75385,-45.08931 -6.85697,-45.19846 -0.10312,-0.10915 -6.24819,-1.85832 -13.65571,-3.88704 l -13.46821,-3.6886 -13.28337,3.34866 c -7.30586,1.84176 -13.8012,3.66869 -14.4341,4.05984 -0.94686,0.58519 -14.65087,87.08029 -14.75293,93.1156 -0.0277,1.63943 2.63095,1.75 42.07881,1.75 l 42.10841,0 -0.53322,-2.25 z m -46.4336,-16.72307 c -4.40566,-1.9998 -5.61631,-4.02693 -2.40499,-4.02693 1.01476,0 2.58909,-0.82219 3.49851,-1.82709 1.54904,-1.71168 1.49923,-1.97201 -0.78867,-4.12138 -5.32304,-5.00074 -6.94485,-12.11338 -3.68111,-16.14393 l 1.87374,-2.31397 3.12626,3.12626 3.12626,3.12626 0,-7.42307 c 0,-5.2721 -0.36221,-7.42292 -1.25,-7.42252 -0.6875,3.1e-4 -4.175,1.80006 -7.75,3.99944 -3.575,2.19938 -6.82785,3.99913 -7.22856,3.99944 -0.40071,3.1e-4 -0.23221,-1.08883 0.37445,-2.4203 0.63752,-1.3992 1.67364,-2.20189 2.45512,-1.90201 0.74365,0.28537 3.21511,-1.07582 5.49213,-3.02486 4.3169,-3.6951 11.38342,-6.65227 15.89644,-6.65227 1.44831,0 3.65899,0.95558 4.91263,2.12352 1.90027,1.77037 2.05635,2.34148 0.93856,3.43419 -0.73743,0.72087 -2.69077,1.63994 -4.34077,2.04236 -2.74527,0.66955 -2.88048,0.58663 -1.59238,-0.97658 1.90033,-2.3062 0.0669,-4.08489 -3.33144,-3.23197 -2.22018,0.55723 -2.41111,0.89994 -1.40178,2.51612 0.88974,1.42471 0.89189,3.82678 0.009,10.06981 -0.77485,5.47907 -0.83171,8.81119 -0.17144,10.04493 1.62314,3.03286 1.1399,7.4031 -1.02341,9.25538 -1.10627,0.94723 -2.40117,1.72224 -2.87754,1.72224 -0.47637,0 -1.46268,0.71881 -2.1918,1.59735 -1.19737,1.44274 -0.78537,1.52984 4.25666,0.89988 6.12785,-0.76562 7.62907,0.13022 5.83519,3.4821 -1.39812,2.61241 -6.06901,2.63132 -11.76106,0.0476 z m 4.75,-12.65267 c 0,-3.3136 -4.09153,-10.37426 -6.0117,-10.37426 -2.72679,0 -1.35087,7.17058 2.34306,12.21073 2.45699,3.35242 3.66864,2.74588 3.66864,-1.83647 z m -4.62946,-29.34424 2.87054,-3.46998 -3.12054,-0.80861 c -3.83164,-0.99288 -3.91556,-2.59296 -0.41351,-7.8849 2.49446,-3.7694 2.57421,-4.18772 1.01554,-5.32744 -1.87713,-1.37259 -1.28489,-2.53909 1.28911,-2.53909 2.04236,0 4.98832,3.07908 4.98832,5.21373 0,0.85594 -1.125,2.29338 -2.5,3.19431 -3.65476,2.39469 -3.06746,3.49589 1.75,3.28129 5.50652,-0.24531 5.46659,1.24656 -0.14691,5.48826 -8.42575,6.36671 -8.78944,6.54768 -5.73255,2.85243 z"
         id="path5025"
         inkscape:connector-curvature="0" />
      <path
         style="fill:#fe2f2f"
         d="m 765.57145,810.76575 c 0,-3.9978 14.04564,-95.41982 14.76471,-96.10242 0.40441,-0.3839 7.10031,-2.36577 14.87978,-4.40415 l 14.14449,-3.70616 14.64765,3.86886 c 12.07833,3.19024 14.72928,4.21969 15.11298,5.86887 0.25592,1.1 3.39523,21.8 6.97623,46 3.58101,24.2 6.77773,45.4625 7.10383,47.25 l 0.59291,3.25 -44.11129,0 c -43.62613,0 -44.11129,-0.0223 -44.11129,-2.025 z m 85.52805,-3.225 c -0.30942,-1.7875 -3.49278,-23.03146 -7.07413,-47.20879 -3.58135,-24.17734 -6.93357,-44.21962 -7.44936,-44.53839 -0.5158,-0.31878 -6.92136,-2.10568 -14.23458,-3.97088 l -13.29676,-3.39127 -12.77359,3.34647 c -7.02548,1.84055 -13.36592,3.8339 -14.08986,4.42966 -0.84338,0.69404 -3.70589,17.25019 -7.96766,46.0832 -3.65827,24.75 -6.64931,45.7875 -6.64675,46.75 0.004,1.63885 2.67523,1.75 42.04995,1.75 l 42.04532,0 -0.56258,-3.25 z m -43.58645,-14.69823 c -6.03273,-1.83057 -9.28251,-5.05177 -5.09659,-5.05177 1.01476,0 2.58909,-0.82219 3.49851,-1.82709 1.54934,-1.712 1.4977,-1.97345 -0.81985,-4.15067 -1.36034,-1.27797 -3.21766,-4.27256 -4.12739,-6.65465 -3.05291,-7.99393 1.80315,-13.7434 6.53114,-7.73273 l 2.07258,2.63486 0,-7.63486 c 0,-5.24249 -0.37346,-7.63486 -1.19183,-7.63486 -0.65551,0 -4.22168,1.8 -7.92483,4 -7.70379,4.57673 -8.36378,4.76622 -6.86835,1.97199 0.59695,-1.1154 1.52332,-1.75733 2.05862,-1.4265 0.53529,0.33083 3.16742,-1.23555 5.84917,-3.48084 7.62958,-6.38784 15.48661,-8.56748 19.85471,-5.50795 2.92252,2.04701 2.81152,3.8539 -0.32454,5.28278 -3.64541,1.66097 -4.86753,1.43224 -2.89372,-0.54157 1.60278,-1.60278 1.5815,-1.7559 -0.36488,-2.62439 -1.13683,-0.50727 -3.27593,-0.61888 -4.75355,-0.24802 -2.49284,0.62567 -2.55723,0.76888 -0.89279,1.98595 1.65404,1.20946 1.69968,1.98448 0.58584,9.9466 -0.84468,6.03799 -0.89608,9.21772 -0.17091,10.5727 1.62832,3.04255 1.22023,6.88608 -0.96294,9.06925 -1.1,1.1 -2.3949,2 -2.87756,2 -0.48265,0 -1.47411,0.71881 -2.20323,1.59735 -1.19801,1.44351 -0.7764,1.52872 4.37755,0.88478 5.61118,-0.70107 5.70324,-0.67209 5.70324,1.79566 0,3.54627 -3.24172,4.539 -9.0584,2.77398 z m 2.0584,-13.33954 c 0,-3.31128 -0.67659,-5.07626 -2.97091,-7.75 -2.49251,-2.90472 -3.13822,-3.22069 -4.00995,-1.96223 -0.57147,0.825 -0.78217,2.625 -0.46822,4 0.71789,3.14414 5.14902,10 6.46327,10 0.54219,0 0.98581,-1.9295 0.98581,-4.28777 z m 3,0.22875 c 0,-0.51754 -0.45,-0.94098 -1,-0.94098 -0.55,0 -1,0.70156 -1,1.55902 0,0.85746 0.45,1.2809 1,0.94098 0.55,-0.33992 1,-1.04148 1,-1.55902 z m -7.51756,-29.7765 c 2.49157,-2.72273 2.73844,-3.41342 1.5,-4.1965 -0.81534,-0.51554 -2.26994,-0.94425 -3.23244,-0.95267 -2.39216,-0.0209 -2.20483,-1.38306 0.92458,-6.723 2.47783,-4.22809 2.54923,-4.65549 0.97061,-5.8098 -2.45039,-1.79177 0.30977,-2.68795 3.45269,-1.12103 3.63039,1.80995 3.54305,4.44692 -0.25532,7.70852 l -3.34256,2.87021 5,-0.22011 c 3.14881,-0.13861 5,0.19369 5,0.89754 0,0.93566 -4.25117,4.53267 -11.5,9.73041 -0.825,0.59156 -0.1579,-0.39105 1.48244,-2.18357 z"
         id="path5023"
         inkscape:connector-curvature="0" />
      <path
         style="fill:#fe0505"
         d="m 765.57145,810.77261 c 0,-3.12763 14.26892,-95.5815 14.82847,-96.0794 0.36934,-0.32864 7.01374,-2.26971 14.76534,-4.31347 l 14.09381,-3.71594 14.26479,3.75478 c 11.40637,3.00239 14.43647,4.16731 15.12154,5.81348 0.4712,1.13228 3.79807,22.08369 7.39302,46.55869 3.59496,24.475 6.76912,45.5125 7.05371,46.75 l 0.51742,2.25 -44.01905,0 c -29.20235,0 -44.01905,-0.3427 -44.01905,-1.01814 z m 85.98336,-0.73186 c -0.0628,-2.82875 -13.96343,-93.5634 -14.40108,-94.00105 -0.30315,-0.30315 -6.69589,-2.19841 -14.20611,-4.2117 l -13.65494,-3.66052 -13.97608,3.76044 c -7.68685,2.06824 -14.07823,3.89598 -14.20307,4.06163 -0.12483,0.16566 -2.11467,13.1262 -4.42185,28.8012 -2.30718,15.675 -5.45782,36.9375 -7.00142,47.25 l -2.80655,18.75 42.34387,0 c 23.28913,0 42.33638,-0.3375 42.32723,-0.75 z m -43.85395,-17.25072 c -1.85382,-0.43781 -4.25493,-1.68036 -5.33581,-2.76124 -1.95364,-1.95364 -1.91906,-1.96438 5.86254,-1.8223 6.75802,0.12338 7.87648,0.39585 8.18421,1.99376 0.63193,3.28137 -2.20768,4.12559 -8.71094,2.58978 z m -2.97994,-11.50902 c -3.98917,-5.2957 -5.38654,-10.38178 -3.7527,-13.65893 1.74335,-3.49681 4.33728,-3.4608 6.35722,0.0883 0.9603,1.68727 1.97101,3.0705 2.24601,3.07384 0.42256,0.005 0.48521,-8.19296 0.10885,-14.24343 -0.14503,-2.33169 -2.92431,-2.20297 -6.60885,0.30608 -1.65,1.1236 -4.71601,2.94433 -6.81336,4.04606 l -3.81336,2.00315 1.11353,-2.08065 c 0.61245,-1.14436 1.54925,-1.81137 2.08178,-1.48225 0.53254,0.32913 3.25946,-1.22588 6.05983,-3.45556 2.80037,-2.22969 7.44455,-4.79569 10.3204,-5.70222 4.5443,-1.43246 5.60834,-1.46635 8.12777,-0.25881 3.79199,1.81745 4.17648,4.21005 0.91535,5.69592 -3.4041,1.55101 -3.99249,1.48634 -2.52829,-0.27792 2.33275,-2.81079 -1.79812,-4.69576 -6.41125,-2.92553 -1.47142,0.56463 -1.46746,0.72336 0.0457,1.82977 1.48872,1.08859 1.5334,2.08107 0.44038,9.78116 -0.88487,6.23362 -0.91961,9.12433 -0.12746,10.60448 1.67694,3.13338 1.29678,6.95856 -0.91098,9.16632 -1.1,1.1 -2.3375,1.98609 -2.75,1.96908 -0.4125,-0.017 -2.25774,-2.03248 -4.10053,-4.47882 z m 4.85053,-1.5117 c 0,-3.90718 -4.11962,-11.97856 -6.11383,-11.97856 -1.58211,0 -2.11888,5.02398 -0.86118,8.06034 1.51642,3.66094 4.77549,7.93966 6.04759,7.93966 0.51008,0 0.92742,-1.80965 0.92742,-4.02144 z m 3,0.52144 c 0,-0.825 -0.45,-1.5 -1,-1.5 -0.55,0 -1,0.675 -1,1.5 0,0.825 0.45,1.5 1,1.5 0.55,0 1,-0.675 1,-1.5 z m -7.64076,-30.20829 c 3.14766,-3.44485 2.82718,-5.29171 -0.91826,-5.29171 -3.09891,0 -3.08381,-1.58972 0.059,-6.21481 2.96435,-4.36243 3.07492,-5.35095 0.75,-6.70509 -1.45238,-0.84594 -1.20326,-1.02445 1.46482,-1.04969 2.26563,-0.0214 3.54775,0.59169 4.34245,2.0766 0.96809,1.80889 0.65472,2.60588 -2.21482,5.63293 l -3.34245,3.52593 3.80767,-0.57942 c 3.94233,-0.59992 6.69233,-0.0568 6.69233,1.32176 0,0.43683 -1.4625,1.71961 -3.25,2.85062 -1.7875,1.13101 -4.825,3.29516 -6.75,4.80923 l -3.5,2.75284 2.85924,-3.12919 z"
         id="path5021"
         inkscape:connector-curvature="0" />
    </g>
  </g>
</svg>
