<?xml version="1.0" encoding="UTF-8" standalone="no"?>
<!-- Created with Inkscape (http://www.inkscape.org/) -->

<svg
   xmlns:dc="http://purl.org/dc/elements/1.1/"
   xmlns:cc="http://creativecommons.org/ns#"
   xmlns:rdf="http://www.w3.org/1999/02/22-rdf-syntax-ns#"
   xmlns:svg="http://www.w3.org/2000/svg"
   xmlns="http://www.w3.org/2000/svg"
   xmlns:sodipodi="http://sodipodi.sourceforge.net/DTD/sodipodi-0.dtd"
   xmlns:inkscape="http://www.inkscape.org/namespaces/inkscape"
   width="42.157036"
   height="50"
   id="svg2"
   version="1.1"
   inkscape:version="0.48.3.1 r9886"
   sodipodi:docname="Shogi_gyokusho(svg).svg">
  <defs
     id="defs4" />
  <sodipodi:namedview
     id="base"
     pagecolor="#ffffff"
     bordercolor="#666666"
     borderopacity="1.0"
     inkscape:pageopacity="0.0"
     inkscape:pageshadow="2"
     inkscape:zoom="1.4"
     inkscape:cx="55.054713"
     inkscape:cy="53.268479"
     inkscape:document-units="px"
     inkscape:current-layer="layer1"
     showgrid="false"
     fit-margin-top="0"
     fit-margin-left="0"
     fit-margin-right="0"
     fit-margin-bottom="0"
     inkscape:window-width="866"
     inkscape:window-height="547"
     inkscape:window-x="1538"
     inkscape:window-y="999"
     inkscape:window-maximized="0" />
  <metadata
     id="metadata7">
    <rdf:RDF>
      <cc:Work
         rdf:about="">
        <dc:format>image/svg+xml</dc:format>
        <dc:type
           rdf:resource="http://purl.org/dc/dcmitype/StillImage" />
        <dc:title />
      </cc:Work>
    </rdf:RDF>
  </metadata>
  <g
     inkscape:label="Layer 1"
     inkscape:groupmode="layer"
     id="layer1"
     transform="translate(-629.27734,-747.79077)">
    <g
       id="g3792"
       transform="matrix(0.41556411,0,0,0.41556411,367.77226,466.25756)">
      <path
         sodipodi:nodetypes="cccccccccc"
         inkscape:connector-curvature="0"
         id="path3022"
         d="m 679.6057,679.99766 c -10.39196,2.40995 -20.90855,5.02646 -30.89286,8.68304 -3.58886,15.23626 -5.05989,30.99595 -7.67838,46.45458 -3.0916,20.04977 -5.86811,40.15996 -9.28591,60.15256 11.66136,0.83366 24.05976,0.11881 36.00447,0.35714 20.02976,0 40.05952,0 60.08928,0 -1.40818,-13.61368 -4.1343,-27.72903 -6.02163,-41.53472 -3.51635,-21.55897 -5.98246,-43.34298 -10.31765,-64.7376 -2.12982,-2.62994 -6.73433,-2.30255 -9.71526,-3.76323 -7.34688,-1.94978 -14.67481,-4.51323 -22.18206,-5.61177 z"
         style="fill:#ffffff;fill-opacity:1;stroke:none" />
      <path
         style="fill:#d0d0d0"
         d="m 629.65215,795.54077 c 0.20615,-1.2375 3.95911,-26.27786 8.33992,-55.64525 4.38081,-29.36739 8.08724,-53.49124 8.23652,-53.60855 0.89614,-0.70426 31.86822,-8.4962 33.77141,-8.4962 1.90319,0 32.87527,7.79194 33.77141,8.4962 0.14928,0.11731 3.85571,24.24116 8.23652,53.60855 4.38081,29.36739 8.13377,54.40775 8.33991,55.64525 l 0.37482,2.25 -50.72266,0 -50.72266,0 0.37481,-2.25 z m 97.08423,-3.5 c -0.28248,-1.5125 -3.78333,-25.025 -7.77964,-52.25 -3.99632,-27.225 -7.5703,-49.85136 -7.94218,-50.28079 -0.37187,-0.42943 -7.50228,-2.6351 -15.84535,-4.90149 L 680,680.48779 l -15.16921,4.1207 c -8.34307,2.26639 -15.47348,4.47206 -15.84535,4.90149 -0.37188,0.42943 -3.94586,23.05579 -7.94217,50.28079 -3.99632,27.225 -7.49717,50.7375 -7.77965,52.25 l -0.51362,2.75 47.25,0 47.25,0 -0.51362,-2.75 z m -26.12161,-6.86608 c -1.58688,-1.98881 -4.96188,-4.5763 -7.5,-5.74997 l -4.61477,-2.13395 7.25,-0.29381 7.25,-0.29381 0,-3.83119 c 0,-2.10715 -0.26045,-5.13345 -0.57878,-6.7251 -0.54083,-2.70417 -0.85229,-2.87341 -4.75,-2.58113 -2.29417,0.17204 -5.16052,0.5208 -6.36966,0.77503 l -2.19843,0.46223 2.4872,2.4872 c 2.06301,2.06301 2.29967,2.8376 1.38763,4.54176 -1.40304,2.6216 -4.94436,3.95882 -10.48404,3.95882 -5.88089,0 -6.46241,-1.51061 -1.25015,-3.24746 4.34298,-1.44718 5.47566,-3.12901 3.83107,-5.68843 -0.75727,-1.17853 -1.77639,-1.24053 -5.68589,-0.34591 -5.70918,1.30645 -8.95808,0.32155 -10.56368,-3.20235 -1.50032,-3.29284 -0.57685,-4.0698 3.05111,-2.56706 3.00298,1.24388 7.37868,1.01513 21.87362,-1.1435 6.63183,-0.98763 8.51493,-1.90549 6.48421,-3.16054 -0.42118,-0.26031 -3.13878,0.14226 -6.0391,0.89459 -2.90032,0.75234 -5.81821,1.20134 -6.48421,0.99779 -0.66599,-0.20354 -2.53743,-0.66359 -4.15875,-1.02232 -3.84582,-0.85091 -2.01208,-2.05951 5.44785,-3.59063 6.33548,-1.30033 13,-4.68812 13,-6.60832 0,-1.88465 -1.15629,-1.65783 -6.99723,1.37256 -3.96728,2.05829 -5.571,2.44032 -6.84229,1.62994 -1.30681,-0.83303 -2.36262,-0.44498 -4.957,1.82187 -2.67926,2.34103 -3.66228,2.68459 -5.25,1.83488 -3.13202,-1.67622 -2.30727,-4.01718 3.29652,-9.35677 4.6291,-4.41085 4.9986,-5.0452 3.12427,-5.36368 -1.16915,-0.19865 -3.16009,-1.46222 -4.42431,-2.80793 l -2.29859,-2.44673 5.42432,-0.022 c 3.24277,-0.0131 7.19469,-0.82519 9.82629,-2.01915 4.87454,-2.21159 7.54643,-1.85806 9.19172,1.2162 1.56991,2.93339 0.0886,3.90736 -6.90739,4.54173 -5.80417,0.52631 -6.04192,0.65665 -5.96758,3.27155 0.0426,1.49788 -0.24076,3.23826 -0.62966,3.86752 -1.03428,1.67349 2.64608,1.43349 4.9698,-0.32409 C 697.61744,741.25279 708,743.3724 708,747.27071 c 0,0.75161 -1.165,2.7511 -2.58889,4.44329 -2.05131,2.43784 -2.25244,3.07673 -0.96862,3.07673 0.89115,0 1.89814,0.72409 2.23774,1.60908 0.50303,1.31088 1.53806,1.48697 5.58479,0.95015 5.51008,-0.73094 8.73498,1.01677 8.73498,4.73385 0,1.84037 -0.46326,1.93565 -6.43631,1.32369 l -6.43631,-0.65942 0.93631,3.26472 c 1.37148,4.78208 1.18392,20.13032 -0.26369,21.57793 -2.17951,2.17951 -5.23897,1.27643 -8.18523,-2.41608 z m -45.37338,-3.07947 c -1.79223,-3.09131 -3.03163,-5.84754 -2.75422,-6.12495 0.42747,-0.42747 1.72208,0.0754 6.67252,2.59164 0.75528,0.38391 2.33088,-14.6139 1.61091,-15.33388 -0.26005,-0.26004 -2.22731,0.3231 -4.3717,1.29586 -3.47075,1.57443 -3.91107,2.17631 -4.00969,5.48083 -0.13561,4.54401 -2.74873,8.78605 -5.41226,8.78605 -2.56782,0 -2.56919,-3.0985 -0.004,-8.75 1.85226,-4.08063 1.85627,-4.25 0.10048,-4.25 -2.11645,0 -3.5248,-1.51058 -4.56502,-4.89641 -0.66409,-2.16154 -0.50457,-2.32923 1.62761,-1.71107 6.00277,1.74031 8.89885,1.75953 13.2754,0.0881 3.26864,-1.24829 4.58848,-2.30942 4.58848,-3.68906 0,-1.88125 -0.0755,-1.87736 -2.63486,0.13586 -3.3353,2.62355 -7.78303,2.65469 -10.36514,0.0726 -3.05123,-3.05123 -2.51531,-4.1873 1.61019,-3.41335 l 3.6102,0.67728 -0.70116,-4.38197 c -0.38564,-2.41008 -1.33522,-4.88157 -2.11019,-5.4922 -2.07227,-1.63283 -1.72672,-2.38976 1.09096,-2.38976 1.375,0 3.4,0.9 4.5,2 1.1,1.1 2,3.125 2,4.5 0,2.72207 0.0848,2.78843 2.41821,1.89301 2.26252,-0.86821 2.01922,-6.20138 -0.37557,-8.23272 -1.07655,-0.91316 -2.26267,-2.94697 -2.63584,-4.51958 -0.66607,-2.80701 -0.61657,-2.84618 2.70736,-2.14204 7.1766,1.52029 9.49127,6.78939 6.81249,15.50793 -0.59034,1.92137 -1.44499,10.0184 -1.89922,17.9934 -0.45423,7.975 -1.39346,15.7375 -2.08717,17.25 -2.06699,4.50667 -4.94294,3.53284 -8.69887,-2.94555 z m 5.14673,-55.28452 c -2.90084,-1.17207 -6.67688,-6.13117 -5.53669,-7.27136 0.54505,-0.54505 2.45769,-0.47871 4.77868,0.16574 2.12844,0.591 6.45739,1.07705 9.61989,1.08011 l 5.75,0.006 0,-4.54531 0,-4.54532 -3.25,0.57818 c -2.29457,0.4082 -4.20543,-0.0151 -6.5,-1.43999 -4.85938,-3.01755 -4.03233,-4.04756 3.25,-4.04756 l 6.5,0 0,-3.55902 c 0,-2.20202 -0.39527,-3.31472 -1.0367,-2.9183 -2.00547,1.23945 -8.8701,-0.70221 -11.38937,-3.22148 -2.80627,-2.80627 -2.54086,-4.88905 0.42102,-3.3039 2.88891,1.54609 17.02156,1.18696 22.98535,-0.58409 5.81414,-1.72662 10.0197,-0.85073 10.0197,2.08679 0,1.87515 -2.98239,3.18167 -9.07174,3.97412 -4.40242,0.57293 -4.55555,0.70524 -4.1347,3.57266 0.52184,3.55551 1.58867,4.39832 3.91763,3.09497 1.85505,-1.03814 7.28881,1.08559 7.28881,2.84875 0,1.35192 -3.85165,3.21922 -5.0775,2.4616 -0.56989,-0.35221 -2.08591,-0.37692 -3.36892,-0.0549 -1.79139,0.44961 -2.43112,1.42813 -2.75665,4.21653 l -0.4239,3.63105 8.39883,-0.68148 C 700.00709,717.60472 704,718.95165 704,722.81631 c 0,1.88839 -0.67838,1.97405 -14.75,1.86252 -11.32952,-0.0898 -15.76472,0.25747 -19.12573,1.49752 -4.83848,1.78515 -6.60335,1.90014 -9.73615,0.63435 z M 701.1148,713.15863 C 699.95166,712.34393 699,711.18285 699,710.57846 c 0,-0.6044 -1.16141,-2.6216 -2.58091,-4.48266 l -2.58092,-3.38375 2.83092,0.67769 c 3.91169,0.93642 5.46856,1.82989 8.10918,4.65375 3.66795,3.92248 0.64995,8.13637 -3.66347,5.11514 z"
         id="path3010"
         inkscape:connector-curvature="0" />
      <path
         style="fill:#b0b0b0"
         d="m 630,795.7673 c 0,-4.11398 15.99627,-108.37129 16.73448,-109.06868 0.98174,-0.92745 30.78376,-8.90785 33.26552,-8.90785 2.48176,0 32.28378,7.9804 33.26552,8.90785 C 714.00373,687.39601 730,791.65332 730,795.7673 c 0,2.00431 -0.47333,2.02347 -50,2.02347 -49.52667,0 -50,-0.0192 -50,-2.02347 z m 96.75401,-4.22653 c -0.27922,-1.7875 -3.81546,-25.60954 -7.85831,-52.93787 l -7.35064,-49.68787 -11.02253,-3.01604 c -6.06239,-1.65883 -13.16003,-3.58012 -15.77253,-4.26954 -5.16447,-1.36287 -3.91948,-1.5732 -25.27253,4.26954 l -11.02253,3.01604 -7.35064,49.68787 c -4.04285,27.32833 -7.57909,51.15037 -7.85831,52.93787 l -0.50767,3.25 47.26168,0 47.26168,0 -0.50767,-3.25 z m -26.01595,-6.69774 c -1.79223,-2.53398 -4.07437,-4.3244 -6.5,-5.09945 -6.46174,-2.06471 -5.99196,-2.95281 1.56194,-2.95281 l 7.2,0 -0.0136,-4.75 c -0.0245,-8.52254 -0.52255,-9.25985 -5.84411,-8.65154 -2.55323,0.29186 -5.76724,0.76531 -7.14224,1.05211 l -2.5,0.52146 2.75,1.44592 c 4.1239,2.16831 3.772,6.05709 -0.71788,7.93308 -3.8573,1.61168 -9.30815,1.87702 -11.39527,0.55471 -0.97715,-0.61908 -0.12764,-1.27548 3,-2.31802 3.90439,-1.30147 4.37366,-1.79254 4.46315,-4.67048 0.0749,-2.40965 -0.26044,-3.07778 -1.33742,-2.66451 -2.91307,1.11785 -9.23681,1.77055 -11.54393,1.1915 -2.22779,-0.55914 -5.39866,-5.29756 -4.28816,-6.40806 0.27796,-0.27795 1.86565,0.0581 3.52819,0.74672 4.58162,1.89776 29.55185,-1.00763 28.73653,-3.34363 -0.21869,-0.62659 -1.47708,-1.01653 -2.79642,-0.86652 -1.31933,0.15001 -4.74505,0.54189 -7.6127,0.87084 -5.89967,0.67676 -9.82439,-0.19562 -7.28609,-1.61954 0.825,-0.46281 4.36979,-1.58471 7.87732,-2.49312 C 697.98384,751.48118 702,749.26201 702,747.17576 c 0,-1.89532 -1.37986,-1.74201 -6.12933,0.68099 -2.22731,1.13629 -5.33137,1.93153 -6.89792,1.76721 -1.89922,-0.19921 -3.66941,0.47266 -5.31264,2.0164 -2.77282,2.60492 -6.95706,2.6092 -7.45257,0.008 -0.17714,-0.93004 1.98774,-3.94259 4.98978,-6.94358 4.57589,-4.57424 5.02856,-5.35692 3.30268,-5.71043 -2.225,-0.45574 -5.5,-3.05083 -5.5,-4.35817 0,-0.46475 2.24089,-0.84501 4.97976,-0.84501 2.73887,0 6.78875,-0.72381 8.99974,-1.60847 4.49303,-1.79776 8.47177,-1.26389 9.44298,1.26706 0.96237,2.50787 -0.39252,3.26442 -7.1021,3.96571 l -6.09206,0.63675 -0.54997,4.10033 c -0.30248,2.25519 -0.39746,4.25284 -0.21106,4.43924 0.18639,0.1864 2.16458,-0.59249 4.39597,-1.73086 4.42171,-2.25579 9.16862,-2.65825 12.20248,-1.03458 2.51993,1.34863 2.53971,6.10692 0.0348,8.37382 -1.86211,1.68519 -1.8572,1.76224 0.25,3.92003 1.91898,1.96505 2.66094,2.10438 6.91983,1.29947 4.00868,-0.75762 5.08648,-0.61552 6.75,0.88995 1.08879,0.98534 1.97962,2.6742 1.97962,3.75303 0,1.81609 -0.47527,1.91062 -6.41048,1.27501 l -6.41048,-0.6865 0.88662,3.82 c 1.22118,5.26144 1.158,18.03359 -0.10084,20.38575 -1.69786,3.17246 -5.1578,2.32565 -8.22676,-2.01348 z m -44.58858,-2.11871 c -4.49586,-7.23231 -4.23824,-8.55707 0.94615,-4.86546 l 2.90437,2.0681 0.0513,-2.3181 c 0.0282,-1.27495 0.3891,-5.35559 0.8019,-9.06809 0.41281,-3.7125 0.5022,-6.72967 0.19865,-6.70481 -0.30355,0.0249 -2.3519,1.03735 -4.5519,2.25 -3.50602,1.93253 -4.02944,2.6874 -4.23838,6.1126 -0.27179,4.45567 -2.59039,8.59221 -4.81606,8.59221 -2.54607,0 -2.78024,-2.83629 -0.65617,-7.94738 l 2.02865,-4.88147 -2.30909,-0.57955 c -1.41698,-0.35564 -2.72923,-1.78472 -3.39652,-3.69893 -1.03455,-2.9677 -0.97862,-3.0845 1.15007,-2.40176 5.1503,1.65184 9.04299,1.66414 13.29055,0.042 3.10931,-1.18748 4.44695,-2.27063 4.44695,-3.60092 0,-1.85393 -0.0831,-1.85191 -3.25,0.079 -4.26034,2.59758 -6.91441,2.50738 -9.57569,-0.32541 -2.93045,-3.11933 -2.78107,-3.43213 1.57569,-3.29961 3.59015,0.1092 3.73671,-0.0138 3.43834,-2.88594 -0.17141,-1.65 -1.19738,-4.2375 -2.27993,-5.75 l -1.96829,-2.75 2.52994,0 c 3.23559,0 6.52994,3.27924 6.52994,6.5 0,1.83333 0.53333,2.5 2,2.5 1.66667,0 2,-0.66667 2,-4 0,-2.2 -0.47296,-4 -1.05103,-4 -1.08623,0 -4.38711,-6.8952 -3.65253,-7.62977 1.14498,-1.14498 8.29293,2.41608 9.626,4.79561 1.33721,2.38693 1.30697,3.59011 -0.28908,11.5 -0.9804,4.85879 -2.11015,14.53103 -2.51057,21.49386 -0.98916,17.20078 -3.27331,19.94324 -8.97331,10.77385 z m 3.16434,-56.88378 c -1.7524,-1.06851 -3.71762,-2.93575 -4.36715,-4.14943 -1.1607,-2.16877 -1.09739,-2.19553 3.68617,-1.55764 7.25298,0.96718 7.52092,0.9852 12.11716,0.81483 l 4.25,-0.15753 0,-4.57157 c 0,-4.12821 -0.2182,-4.55389 -2.25,-4.38931 -4.3017,0.34845 -5.65457,-0.0533 -8.44424,-2.50752 l -2.80576,-2.4684 6.75,-0.0316 6.75,-0.0316 0,-3.36364 c 0,-3.26841 -0.11547,-3.36363 -4.07887,-3.36363 -4.42244,0 -9.18593,-2.78754 -9.76043,-5.71169 -0.284,-1.44548 -0.009,-1.55046 1.68425,-0.64402 2.91616,1.56068 17.82748,1.31244 23.43893,-0.39021 4.72554,-1.43384 9.71612,-0.76947 9.71612,1.29345 0,1.94403 -3.87634,4.17974 -7.24695,4.17974 -5.58632,0 -6.39573,0.62074 -5.93667,4.55291 0.39552,3.38785 0.51376,3.47578 3.83585,2.85255 2.53051,-0.47472 3.93464,-0.18433 5.36418,1.10939 2.58133,2.33607 1.65649,3.48187 -2.82543,3.50046 -4.75776,0.0197 -5.73302,0.74812 -6.53845,4.88327 l -0.66196,3.39858 8.10061,-0.62467 C 699.16627,717.76344 704,719.2677 704,722.79171 c 0,1.85433 -0.74503,1.94199 -15.25,1.7943 -12.32811,-0.12553 -15.9919,0.16661 -19.12212,1.52474 -4.94863,2.14709 -6.41251,2.10874 -10.31406,-0.27021 z m 39.72079,-15.98192 c -1.10332,-2.16269 -2.46246,-4.21424 -3.02032,-4.55902 -2.62496,-1.62231 -0.59751,-2.36153 2.69911,-0.98411 5.01408,2.09501 7.2866,4.31878 7.2866,7.13027 0,1.82955 -0.54506,2.34501 -2.47968,2.34501 -1.87905,0 -2.96557,-0.95244 -4.48571,-3.93215 z"
         id="path3008"
         inkscape:connector-curvature="0" />
      <path
         style="fill:#909090"
         d="m 630,796.34557 c 0,-3.57987 16.15134,-109.09798 16.7864,-109.66699 0.39248,-0.35166 8.0261,-2.56692 16.9636,-4.92279 l 16.25,-4.2834 16.25,4.2834 c 8.9375,2.35587 16.57112,4.57113 16.9636,4.92279 C 713.84866,687.24759 730,792.7657 730,796.34557 c 0,1.241 -7.06487,1.4452 -50,1.4452 -42.93513,0 -50,-0.2042 -50,-1.4452 z m 97.0065,-2.3048 c 0.007,-1.95321 -15.14276,-104.58876 -15.50337,-105.02944 -0.59336,-0.72509 -29.30695,-8.18875 -31.50313,-8.18875 -2.19618,0 -30.90977,7.46366 -31.50313,8.18875 -0.36061,0.44068 -15.51062,103.07623 -15.50337,105.02944 0.006,1.64175 2.91374,1.75 47.0065,1.75 44.09276,0 47.0004,-0.10825 47.0065,-1.75 z m -25.71387,-8.86393 C 699.75668,783.18918 696.25,780.5151 693.5,779.23445 l -5,-2.32847 7.25,-0.0576 7.25,-0.0576 0,-5.41821 c 0,-8.40677 -0.2058,-8.62866 -7.34721,-7.9218 -5.9115,0.58512 -11.31986,2.23788 -7.55778,2.3096 2.01672,0.0385 4.90499,3.17343 4.90499,5.32397 0,0.89984 -0.88185,2.10803 -1.95968,2.68486 -3.07443,1.64539 -10.59879,2.36805 -12.65791,1.21571 -1.6007,-0.8958 -1.19292,-1.21305 2.87623,-2.23767 4.47622,-1.12713 4.74136,-1.38158 4.74136,-4.55017 0,-3.26555 -0.0879,-3.3371 -3.25,-2.64632 -6.94212,1.51651 -10.87805,0.91584 -13.06308,-1.9936 -1.12914,-1.5035 -1.85417,-2.93246 -1.61117,-3.17546 0.243,-0.243 2.34063,0.065 4.66138,0.68445 3.30999,0.88349 6.71532,0.78343 15.79752,-0.46418 6.36788,-0.87475 11.86012,-1.87262 12.20499,-2.21748 0.34486,-0.34487 0.12862,-1.12544 -0.48054,-1.7346 -0.8101,-0.8101 -1.97376,-0.80562 -4.33256,0.0167 -3.81323,1.3293 -10.85811,1.4537 -12.79619,0.22596 -1.49177,-0.94502 2.22413,-2.44794 9.0017,-3.64081 4.6165,-0.81251 9.86795,-3.97693 9.86795,-5.94622 0,-2.03183 -1.30524,-1.90979 -6.18167,0.57798 -2.55933,1.30568 -5.25858,1.92293 -7.1774,1.64131 -2.36784,-0.34752 -3.50226,0.0913 -4.93074,1.90732 -1.88663,2.39845 -6.08251,3.18332 -7.21572,1.34974 -1.12416,-1.81893 0.51182,-4.73756 3.99236,-7.12246 1.88054,-1.28857 3.81505,-3.23007 4.29892,-4.31446 0.71959,-1.61266 0.32936,-2.25221 -2.14345,-3.51287 -4.98771,-2.54279 -4.50328,-4.04126 1.30649,-4.04126 2.81349,0 6.73095,-0.675 8.70545,-1.5 4.68081,-1.95577 6.68047,-1.89262 8.64018,0.27284 2.43611,2.69187 0.80109,4.0039 -5.93998,4.76657 l -6.12223,0.69265 -0.55191,4.11483 c -0.30355,2.26315 -0.39941,4.26733 -0.21301,4.45373 0.18639,0.1864 2.16458,-0.59249 4.39597,-1.73086 4.4612,-2.27593 7.66678,-2.57914 11.57164,-1.09451 3.16309,1.2026 3.53185,5.83988 0.67032,8.42953 -1.85332,1.67723 -1.84347,1.76606 0.45032,4.05985 2.09317,2.09317 2.79358,2.24433 6.51976,1.40712 4.89044,-1.09881 8.9247,0.8137 8.9247,4.2309 0,1.94086 -0.37451,2.01643 -6.65819,1.34351 -6.26319,-0.67073 -6.61294,-0.6013 -5.89531,1.1704 1.33041,3.28455 1.81388,18.72456 0.67741,21.63344 -1.49671,3.8309 -4.45563,3.50448 -7.83128,-0.86393 z m -45.14315,-2.45252 c -4.04788,-6.51166 -3.97146,-7.61608 0.35052,-5.06605 3.17572,1.87372 3.50303,1.90603 3.53272,0.34877 0.018,-0.94395 0.43746,-4.85931 0.93214,-8.7008 0.49468,-3.84149 0.75937,-7.12457 0.5882,-7.29575 -0.17118,-0.17117 -2.33848,0.6737 -4.81623,1.87748 -4.1856,2.03352 -4.50886,2.46796 -4.55937,6.12734 -0.0606,4.3902 -2.4252,8.77546 -4.7319,8.77546 -2.52665,0 -2.70841,-2.61736 -0.52459,-7.55425 1.14347,-2.58499 2.07903,-4.819 2.07903,-4.96446 0,-0.14546 -1.11815,-0.54511 -2.48477,-0.88811 -1.54929,-0.38885 -2.72396,-1.57665 -3.1201,-3.15498 -0.80047,-3.18935 -0.11459,-3.89361 2.45348,-2.51922 4.78877,2.56287 15.44269,-0.1009 16.49479,-4.12414 0.27457,-1.04998 0.19714,-1.75911 -0.17209,-1.57586 -0.36922,0.18326 -2.34689,1.18662 -4.39483,2.22969 -4.13759,2.1074 -7.7766,1.28815 -9.62576,-2.16705 -0.87461,-1.63422 -0.58301,-1.78033 2.89175,-1.44896 l 3.86444,0.36853 -0.58575,-3.85059 c -0.32216,-2.11783 -1.50466,-4.8631 -2.62777,-6.1006 l -2.04202,-2.25 2.5,0 c 3.02437,0 6.84863,3.80518 6.84863,6.81445 0,1.47672 0.61316,2.18555 1.89059,2.18555 3.0037,0 3.35934,-6.41658 0.5043,-9.09874 -1.21358,-1.14011 -2.43177,-2.9343 -2.70708,-3.98709 -0.77115,-2.94886 4.74796,-2.56931 7.85764,0.54037 2.87159,2.87159 3.03843,5.50352 0.87751,13.84275 -0.86736,3.34729 -1.89868,12.25325 -2.2918,19.79103 -0.95552,18.32112 -3.15383,21.22029 -8.98168,11.84523 z m 3.16434,-56.88378 c -1.7524,-1.06851 -3.68073,-2.86683 -4.28518,-3.99626 -0.99389,-1.8571 -0.81493,-2.05351 1.87108,-2.05351 1.63354,0 4.10419,0.43119 5.49033,0.9582 1.38614,0.527 4.79043,0.68932 7.5651,0.36071 L 675,720.51219 l 0,-4.36071 0,-4.36071 -3.94424,0 c -2.84521,0 -4.72603,-0.71769 -6.75,-2.57569 l -2.80576,-2.57569 3.85453,0.52978 c 2.12,0.29138 5.1575,0.26919 6.75,-0.0493 2.50763,-0.50152 2.89547,-1.03117 2.89547,-3.95409 0,-3.32706 -0.0631,-3.375 -4.44424,-3.375 -3.25754,0 -5.19342,-0.64483 -7.25,-2.41493 -3.52078,-3.03034 -2.72273,-3.91352 2.48001,-2.74454 3.70049,0.83144 8.13839,0.56047 24.31396,-1.48458 3.64171,-0.46041 4.72644,-0.25132 5.20811,1.00389 0.8914,2.32294 -3.0356,4.64016 -7.86368,4.64016 -2.26095,0 -4.32207,0.21124 -4.58026,0.46943 -0.25819,0.25819 -0.28268,2.06911 -0.0544,4.02426 0.40326,3.45423 0.51201,3.53663 3.84276,2.91177 2.53051,-0.47472 3.93464,-0.18433 5.36418,1.10939 2.69776,2.44144 1.61761,3.48515 -3.60681,3.48515 -4.60093,0 -4.71337,0.10325 -5.88344,5.40264 l -0.64089,2.90264 8.07588,-0.62277 c 5.10257,-0.39348 8.96923,-0.21572 10.50235,0.48281 2.52265,1.1494 3.92232,3.40139 3.02073,4.8602 -0.28724,0.46476 -7.1512,0.79531 -15.25324,0.73454 -11.57301,-0.0868 -15.66904,0.24863 -19.10672,1.56472 -5.49489,2.10368 -5.92928,2.09151 -9.81045,-0.27501 z m 40.12332,-15.23779 c -0.92307,-1.82159 -2.3688,-4.09948 -3.21272,-5.06198 -1.39854,-1.59505 -1.35668,-1.75 0.47271,-1.75 3.43602,0 8.80287,4.29198 8.80287,7.03983 0,4.02768 -3.98224,3.87802 -6.06286,-0.22785 z"
         id="path3006"
         inkscape:connector-curvature="0" />
      <path
         style="fill:#6f6f6f"
         d="m 630,796.70854 c 0,-3.16613 16.27608,-109.50903 16.83632,-110.00334 0.36503,-0.32206 7.97618,-2.5034 16.91368,-4.84743 l 16.25,-4.26187 16.25,4.26187 c 8.9375,2.34403 16.54865,4.52537 16.91368,4.84743 C 713.72392,687.19951 730,793.54241 730,796.70854 c 0,0.76188 -14.80053,1.08223 -50,1.08223 -35.19947,0 -50,-0.32035 -50,-1.08223 z m 97.00547,-3.16777 c 0.006,-2.57108 -15.04297,-104.08425 -15.50166,-104.56505 -0.16532,-0.17327 -7.3213,-2.27575 -15.90219,-4.67217 L 680,679.94642 l -15.60162,4.35713 c -8.58089,2.39642 -15.73687,4.4989 -15.90219,4.67217 -0.45869,0.4808 -15.50792,101.99397 -15.50166,104.56505 l 0.005,2.25 47,0 47,0 0.005,-2.25 z m -25.87656,-8.58723 c -1.71773,-2.16882 -4.92445,-4.66404 -7.12603,-5.54494 C 691.8013,778.5277 690,777.53692 690,777.20686 c 0,-0.33006 2.8125,-0.44621 6.25,-0.2581 l 6.25,0.34201 0.296,-6.76373 c 0.22105,-5.05102 -0.0549,-6.89839 -1.0898,-7.29552 -0.76219,-0.29248 -6.07039,0.21815 -11.796,1.13472 -5.72561,0.91658 -11.89278,1.88863 -13.70481,2.16013 -3.62117,0.54256 -6.62343,-1.40217 -7.53273,-4.87936 -0.41893,-1.60199 -0.18351,-1.8581 1.1503,-1.25139 3.30454,1.50313 11.83577,1.51505 21.03222,0.0294 5.14536,-0.83121 9.54345,-1.69955 9.77354,-1.92964 0.2301,-0.2301 0.15821,-1.09629 -0.15975,-1.92488 -0.49923,-1.30098 -1.08231,-1.3265 -4.27354,-0.18702 -4.28811,1.53113 -11.06234,1.77736 -13.11723,0.47678 -1.04324,-0.66028 -0.24447,-1.20664 3,-2.052 2.43199,-0.63367 5.9968,-1.56068 7.9218,-2.06002 4.38895,-1.13848 8,-3.62748 8,-5.51417 0,-2.0311 -2.29019,-1.79465 -6.46282,0.66727 -2.33274,1.37635 -4.65258,1.95272 -6.66855,1.65684 -2.30477,-0.33827 -3.68765,0.14251 -5.43456,1.88943 -2.74999,2.74999 -5.94899,3.04964 -6.87223,0.64371 -0.46437,-1.21011 0.80054,-3.09238 4.39301,-6.5371 2.77483,-2.6607 5.03541,-5.15845 5.02351,-5.55055 -0.0119,-0.39209 -1.45112,-1.3879 -3.19827,-2.2129 -5.28013,-2.49328 -4.54737,-3.78067 2.41582,-4.24434 3.46725,-0.23088 7.77804,-1.04834 9.57953,-1.81656 3.78423,-1.61375 6.72456,-0.44633 6.72456,2.66989 0,1.55809 -1.10034,2.04762 -6.25,2.78056 -5.70487,0.81196 -6.25,1.10116 -6.25,3.31574 0,1.33441 -0.46583,3.29661 -1.03518,4.36045 -1.39676,2.60987 0.82917,2.58452 5.774,-0.0657 9.26853,-4.96764 17.67211,1.00759 10.61516,7.54775 -1.93984,1.79778 -2.22186,2.45225 -1.05671,2.45225 0.87413,0 2.24349,0.93395 3.04302,2.07544 1.29783,1.85291 1.86683,1.96074 5.3067,1.00558 2.11916,-0.58843 4.19051,-1.07238 4.60301,-1.07544 1.34106,-0.01 4.75,3.9532 4.75,5.52227 0,1.28598 -1.05536,1.41972 -6.66653,0.84484 -6.28705,-0.64412 -6.62348,-0.57456 -5.91031,1.22215 1.27202,3.20465 1.85232,16.69433 0.87779,20.40516 -1.33202,5.0721 -4.23794,5.12998 -8.17204,0.16277 z m -45.01785,-2.29102 c -1.75335,-2.82053 -2.93176,-5.38438 -2.61871,-5.69743 0.31305,-0.31305 1.8549,0.1903 3.42632,1.11857 l 2.85714,1.68775 0.55974,-4.24032 c 0.30786,-2.33218 0.84662,-6.5744 1.19725,-9.42716 l 0.6375,-5.18684 -5.07674,2.68684 c -4.47226,2.36693 -5.07774,3.06606 -5.08515,5.87174 -0.0169,6.39132 -3.53492,11.1886 -6.22921,8.4943 -0.96679,-0.96679 -0.0497,-4.39725 3.05413,-11.42452 0.18334,-0.41507 -0.30942,-0.75468 -1.09501,-0.75468 -1.86982,0 -4.73832,-3.21095 -4.73832,-5.30399 0,-1.35422 0.45536,-1.47338 2.5651,-0.67126 7.32123,2.78353 17.4349,-0.74128 17.4349,-6.0764 0,-0.48844 -1.6378,0.22336 -3.63955,1.58179 -4.23393,2.87322 -6.07666,3.05736 -9.13794,0.91316 -3.17776,-2.22579 -2.74828,-3.4433 1.21462,-3.4433 3.40636,0 3.43203,-0.0336 2.8677,-3.75 -0.31318,-2.0625 -1.48833,-4.7625 -2.61144,-6 l -2.04202,-2.25 2.21977,0 c 2.96066,0 7.12886,4.30389 7.12886,7.36093 0,3.68713 3.60787,2.34973 4.40434,-1.63265 0.49105,-2.45525 0.10003,-3.63617 -1.89271,-5.71614 -4.71779,-4.92431 -2.58036,-7.6504 3.52354,-4.49395 3.9332,2.03393 4.5295,5.22205 2.47979,13.25803 -0.94326,3.69808 -2.02953,12.79878 -2.41395,20.22378 -0.98388,19.00373 -3.20299,22.18103 -8.98995,12.87175 z m 22.44173,-7.78634 c -0.31089,-0.50302 1.35005,-1.56273 3.69098,-2.35489 3.71721,-1.2579 4.21978,-1.77529 3.96838,-4.08541 -0.22042,-2.02551 0.1532,-2.64511 1.59501,-2.64511 2.66377,0 5.5042,3.44364 4.76402,5.77573 -0.9561,3.01242 -12.51543,5.74153 -14.01839,3.30968 z M 660.5,726.24142 c -6.47046,-3.31509 -7.25545,-7.03832 -1.25,-5.92877 3.72978,0.6891 15.84502,0.84788 16.27084,0.21324 0.0868,-0.12931 -0.0422,-2.14762 -0.28657,-4.48512 -0.43753,-4.18484 -0.5032,-4.25 -4.28354,-4.25 -2.7014,0 -4.67073,-0.74985 -6.64497,-2.53016 l -2.80576,-2.53015 4.65124,0.62889 c 6.86911,0.92876 8.84876,0.003 8.84876,-4.13597 0,-3.39523 -0.0484,-3.43261 -4.44424,-3.43261 -3.25754,0 -5.19342,-0.64483 -7.25,-2.41493 -3.54217,-3.04876 -2.87824,-3.72579 2.47433,-2.52315 3.89445,0.87503 7.91383,0.58844 24.27567,-1.7309 2.43301,-0.34489 3.94789,-0.0315 4.79767,0.99237 1.91773,2.31072 -2.22688,4.67661 -8.19257,4.67661 -4.58738,0 -4.85633,0.14102 -4.29115,2.25 0.33164,1.2375 0.60912,3.08758 0.61664,4.11129 0.0117,1.59179 0.53141,1.76416 3.58945,1.19047 3.72813,-0.6994 6.4242,0.56629 6.4242,3.01589 0,0.86701 -1.62535,1.42778 -4.71731,1.62756 -4.55994,0.29462 -4.74717,0.43171 -5.61222,4.10924 -0.4922,2.09245 -0.68922,4.01013 -0.43784,4.26151 0.25139,0.25139 3.97405,-0.0321 8.27258,-0.62997 7.15031,-0.99451 8.03593,-0.92247 10.40515,0.84641 1.4243,1.06339 2.58964,2.55988 2.58964,3.32552 0,1.12753 -2.94562,1.40108 -15.5,1.43942 -12.40167,0.0379 -16.24317,0.38769 -19.21788,1.75 -4.51432,2.0674 -4.54506,2.06797 -8.28212,0.15331 z m 39.31883,-15.13237 c -0.66028,-1.55005 -2.09308,-3.83078 -3.18399,-5.06828 -1.97963,-2.24565 -1.97955,-2.25 0.043,-2.25 3.45232,0 8.8222,4.28499 8.8222,7.03983 0,3.77431 -4.10629,3.97557 -5.68117,0.27845 z"
         id="path3004"
         inkscape:connector-curvature="0" />
      <path
         style="fill:#4f4f4f"
         d="m 630.28392,794.42863 c 0.30008,-1.84918 4.02071,-26.71168 8.26806,-55.25 4.24736,-28.53833 7.85296,-52.0426 8.01244,-52.23172 0.15948,-0.18912 7.74773,-2.34861 16.86277,-4.79886 l 16.57281,-4.455 16.57281,4.455 c 9.11504,2.45025 16.70329,4.60974 16.86277,4.79886 0.15948,0.18912 3.76508,23.69339 8.01244,52.23172 4.24735,28.53832 7.96798,53.40082 8.26806,55.25 l 0.5456,3.36214 -50.26168,0 -50.26168,0 0.5456,-3.36214 z m 97.24716,-0.88786 c -0.27887,-1.2375 -3.89839,-25.17345 -8.04339,-53.191 -4.14499,-28.01755 -7.78284,-51.18748 -8.0841,-51.48875 -0.30126,-0.30126 -7.49032,-2.42944 -15.97567,-4.72929 L 680,679.95018 l -15.42792,4.18155 c -8.48536,2.29985 -15.67441,4.42803 -15.97567,4.72929 -0.30126,0.30127 -3.93911,23.4712 -8.0841,51.48875 -4.145,28.01755 -7.76452,51.9535 -8.04339,53.191 l -0.50702,2.25 48.0381,0 48.0381,0 -0.50702,-2.25 z m -26.49296,-8.70187 c -1.72147,-2.17354 -4.68429,-4.51394 -6.58403,-5.20089 -5.10073,-1.84445 -4.1972,-2.95205 1.83024,-2.24364 6.74488,0.79273 7.56526,-0.18529 6.79746,-8.1036 l -0.58179,-6 -5.5,0.20353 c -3.025,0.11195 -9.66166,0.96995 -14.74814,1.90667 -8.7369,1.60899 -9.3533,1.60798 -11.15031,-0.0183 -1.04619,-0.94678 -2.13919,-2.62783 -2.42889,-3.73566 -0.41745,-1.5963 -0.17878,-1.86051 1.1503,-1.27339 3.38025,1.49322 9.90373,1.64699 19.26744,0.45416 10.65563,-1.3574 12.25886,-1.96328 11.36423,-4.29464 -0.54855,-1.42951 -1.03918,-1.44741 -4.6596,-0.17005 -4.35051,1.53495 -9.12877,1.74417 -12.21459,0.53483 -1.51136,-0.5923 -0.8734,-1.02041 3,-2.01315 8.35087,-2.1403 13.09961,-4.08298 14.93322,-6.10909 1.65454,-1.82825 1.65707,-1.98216 0.0429,-2.60158 -0.97787,-0.37524 -3.64558,0.30546 -6.20335,1.58288 -2.75784,1.37733 -5.51179,2.04547 -7.14457,1.73334 -1.94513,-0.37183 -3.25382,0.13617 -4.88503,1.89627 -2.56015,2.76245 -5.82484,3.14634 -6.72859,0.79121 -0.42111,-1.09739 0.9831,-3.16523 4.39301,-6.4692 2.75659,-2.67092 5.01197,-5.21024 5.01197,-5.64292 0,-0.43268 -1.35,-1.38426 -3,-2.11462 -4.32034,-1.91237 -3.72239,-2.83959 2.31789,-3.59427 2.92485,-0.36544 6.57628,-1.31729 8.11431,-2.11522 3.57073,-1.85252 5.99924,-1.8408 7.55723,0.0365 2.24045,2.69958 0.43313,4.20659 -5.90481,4.92365 -5.88447,0.66575 -6.08462,0.7835 -6.08462,3.57972 0,1.59023 -0.45,3.16944 -1,3.50936 -1.52691,0.94368 -1.19085,2.5 0.53984,2.5 0.84691,0 3.38824,-0.94298 5.6474,-2.09552 8.9157,-4.54845 16.86963,1.43124 10.16674,7.64327 -1.93984,1.79778 -2.22186,2.45225 -1.05671,2.45225 0.87413,0 2.27311,0.97624 3.10885,2.16943 1.40002,1.99881 1.83432,2.07511 5.52243,0.97012 4.23752,-1.26959 7.42288,-0.27207 8.55538,2.67918 0.95221,2.4814 -0.42315,2.99713 -6.51885,2.44439 l -6.03413,-0.54716 0.78452,4.39202 c 1.26406,7.07655 0.92669,18.41334 -0.6028,20.25626 -2.08208,2.50876 -3.66314,1.99114 -7.07455,-2.31611 z m -43.27028,0.20187 c -0.75825,-1.5125 -2.19297,-3.9875 -3.18825,-5.5 -2.04452,-3.10698 -0.83059,-3.61579 2.85896,-1.19831 2.32924,1.52618 2.37752,1.48918 2.93558,-2.25 0.31207,-2.09093 0.85197,-6.34573 1.19979,-9.4551 l 0.63239,-5.65342 -5.10315,2.44228 C 652.39842,765.67783 652,766.14261 652,769.3793 c 0,4.26076 -2.49399,9.41147 -4.55706,9.41147 -2.48362,0 -2.63854,-2.37787 -0.48261,-7.40746 2.41654,-5.63754 2.41095,-5.59254 0.69466,-5.59254 -1.76399,0 -4.65499,-3.2368 -4.65499,-5.21177 0,-1.38405 0.45153,-1.39873 4.12226,-0.13406 3.26675,1.12548 4.87515,1.18185 7.75,0.27158 5.40463,-1.71127 8.12774,-3.72717 8.12774,-6.0169 0,-2.03384 -0.0151,-2.03443 -2.75,-0.10814 -4.36051,3.07123 -7.05754,3.55541 -9.79896,1.75916 -3.42058,-2.24125 -3.05532,-3.55987 0.98609,-3.55987 3.40689,0 3.43209,-0.033 2.86471,-3.75 -0.31482,-2.0625 -1.18653,-4.46043 -1.93713,-5.32874 -1.77886,-2.05784 -1.72544,-2.92126 0.18074,-2.92126 2.41801,0 6.45455,4.64229 6.45455,7.42316 0,1.97366 0.37617,2.37528 1.75,1.8684 3.98268,-1.46944 4.28388,-5.27415 0.75,-9.47393 -4.21505,-5.0093 -2.81444,-7.28491 2.88536,-4.68791 4.23362,1.92897 5.12581,5.83403 3.11188,13.62066 -0.96014,3.71229 -2.04607,12.82462 -2.41317,20.24962 -0.6627,13.40393 -1.82347,18 -4.54601,18 -0.76537,0 -2.01197,-1.2375 -2.77022,-2.75 z m 21.37895,-10.08792 c -0.9847,-0.6605 -0.16774,-1.28525 3,-2.29418 3.87597,-1.23449 4.32165,-1.68695 4.06536,-4.1272 -0.22256,-2.11912 0.13918,-2.7407 1.59501,-2.7407 2.02671,0 5.19284,2.93008 5.19284,4.80569 0,2.93214 -10.87711,6.35264 -13.85321,4.35639 z m -18.66377,-48.6969 c -3.12969,-1.54491 -6.06971,-5.21183 -5.02017,-6.26137 0.33079,-0.33078 2.62667,-0.0598 5.10195,0.60228 5.857,1.56651 15.78649,0.55173 14.98702,-1.53165 C 675.24832,718.2743 675,716.314 675,714.70898 c 0,-2.73104 -0.25298,-2.91821 -3.94424,-2.91821 -2.72349,0 -4.80925,-0.74405 -6.73909,-2.40404 l -2.79487,-2.40404 6.7391,0.54095 6.7391,0.54095 0,-4.00968 0,-4.00968 -5.18643,-0.49835 c -3.79698,-0.36484 -5.67899,-1.10663 -7.02501,-2.76889 -1.01121,-1.2488 -1.7003,-2.40882 -1.5313,-2.57782 0.169,-0.169 2.21435,0.17679 4.54522,0.76843 3.11883,0.79165 6.41116,0.74921 12.46773,-0.1607 12.58332,-1.89046 16.12212,-1.84123 16.53068,0.22996 0.42513,2.15513 -3.34953,3.75291 -8.86599,3.75291 -4.21562,0 -4.26883,0.0804 -3.29067,4.97115 0.58772,2.93858 0.90193,3.16962 3.58186,2.63363 3.38012,-0.67602 6.77391,0.79214 6.77391,2.9304 0,1.06653 -1.20752,1.46482 -4.44098,1.46482 -5.02212,0 -5.10734,0.0754 -6.1067,5.40245 l -0.72924,3.88721 6.38846,-0.82565 c 9.3323,-1.20611 11.8195,-0.97742 14.09271,1.2958 3.76824,3.76824 1.6392,4.39208 -12.54423,3.67564 -11.82954,-0.59754 -13.78871,-0.45095 -19.37848,1.4499 -7.30685,2.48477 -6.08586,2.41252 -9.79852,0.57983 z m 40.03377,-14.41228 c -0.36024,-1.13503 -1.85165,-3.48584 -3.31422,-5.22401 l -2.65924,-3.16032 2.91734,0.7322 c 4.69079,1.17732 8.69308,4.51391 8.34478,6.95681 -0.42028,2.94781 -4.40737,3.47201 -5.28866,0.69532 z"
         id="path3002"
         inkscape:connector-curvature="0" />
      <path
         style="fill:#2f2f2f"
         d="m 630.27775,795.04077 c 0.29027,-1.5125 4.02605,-26.375 8.30174,-55.25 4.27569,-28.875 7.86041,-52.62846 7.96605,-52.78547 0.10564,-0.15701 7.67611,-2.28268 16.82326,-4.72371 L 680,677.84335 l 16.6312,4.43824 c 9.14715,2.44103 16.71762,4.5667 16.82326,4.72371 0.10564,0.15701 3.69036,23.91047 7.96605,52.78547 4.27569,28.875 8.01147,53.7375 8.30174,55.25 l 0.52775,2.75 -50.25,0 -50.25,0 0.52775,-2.75 z m 97.31042,-2 c -0.31391,-1.5125 -3.92562,-25.42845 -8.02602,-53.14656 -4.1004,-27.71811 -7.81682,-50.71609 -8.25871,-51.10661 -0.44189,-0.39053 -7.66594,-2.57198 -16.05344,-4.84766 l -15.25,-4.13762 -15.25,4.13762 c -8.3875,2.27568 -15.61155,4.45713 -16.05344,4.84766 -0.44189,0.39052 -4.15831,23.3885 -8.25871,51.10661 -4.1004,27.71811 -7.71211,51.63406 -8.02602,53.14656 l -0.57074,2.75 48.15891,0 48.15891,0 -0.57074,-2.75 z m -26.55057,-8.35284 c -1.81342,-2.25656 -4.70123,-4.71394 -6.41736,-5.46085 -3.11297,-1.35486 -3.10709,-1.35812 2.52277,-1.39717 6.70565,-0.0465 7.08081,-0.60438 6.18299,-9.19421 l -0.63646,-6.08931 -6.59477,0.63474 c -3.62712,0.3491 -10.06696,1.36587 -14.31075,2.25949 -7.16252,1.50821 -7.89774,1.50566 -10.25,-0.0356 -4.65031,-3.047 -3.25563,-4.44187 3.86942,-3.86994 3.5219,0.28271 10.1594,-0.018 14.75,-0.66825 11.54426,-1.63519 12.02771,-1.81313 10.70044,-3.93843 -1.00877,-1.6153 -1.5109,-1.63574 -6.73706,-0.27415 -5.03189,1.31097 -12.29665,0.98302 -10.82496,-0.48868 0.29033,-0.29032 3.79571,-1.36843 7.78973,-2.39579 7.79482,-2.00501 13.33349,-5.96393 11.2536,-8.04382 -0.78944,-0.78944 -2.55379,-0.35137 -6.36667,1.58076 -3.41081,1.72839 -6.19844,2.48807 -7.88914,2.14992 -1.91618,-0.38323 -3.25043,0.13775 -4.99506,1.95042 -2.68157,2.78615 -5.38301,2.78679 -5.91943,10e-4 -0.23254,-1.2075 1.25339,-3.33884 4.23852,-6.07948 2.52812,-2.32107 4.59375,-4.6292 4.59027,-5.12917 -0.004,-0.49997 -1.46598,-1.77957 -3.25,-2.84356 l -3.24368,-1.93453 5.37957,-0.72203 c 2.95877,-0.39712 7.15996,-1.52487 9.33598,-2.50612 4.41571,-1.99121 7.28445,-1.12238 7.28445,2.20619 0,1.37578 -0.81739,1.96296 -3,2.15507 -8.04046,0.70772 -9.26775,1.21263 -9.7487,4.01064 -0.25764,1.49891 -0.83077,3.57934 -1.2736,4.62318 -0.691,1.62876 -0.46291,1.81748 1.60857,1.33094 1.32755,-0.31182 4.45062,-1.35114 6.94016,-2.3096 4.00065,-1.54024 4.8704,-1.5778 7.48777,-0.32333 3.96928,1.90243 4.25732,4.48938 0.89107,8.00298 -1.5287,1.59562 -2.26279,2.90113 -1.63132,2.90113 0.63148,0 2.07172,0.99135 3.20055,2.203 1.87692,2.01464 2.41464,2.10484 6.28895,1.05495 3.93131,-1.06534 4.41406,-0.97288 6.70019,1.28336 3.34674,3.30297 1.7996,4.34749 -5.22203,3.52553 l -5.75839,-0.67408 0.75839,5.05362 c 1.07489,7.16266 0.637,18.3925 -0.78396,20.10465 -1.91088,2.30247 -3.39416,1.73363 -6.92005,-2.65387 z m -43.26976,0.35284 c -0.75825,-1.5125 -2.19297,-3.9875 -3.18825,-5.5 -2.0335,-3.09023 -1.15021,-3.5384 2.26257,-1.148 1.25795,0.8811 2.51053,1.37864 2.78353,1.10565 0.61648,-0.61648 2.32694,-12.22285 2.3542,-15.9745 l 0.0201,-2.76684 -5,2.53369 c -4.27883,2.16825 -5,2.95457 -5,5.45175 0,6.01537 -3.16895,10.98285 -5.67799,8.90053 -0.98147,-0.81454 -0.82988,-2.12567 0.71596,-6.1928 2.34174,-6.16115 2.29874,-5.65948 0.48508,-5.65948 -1.54332,0 -5.16415,-4.69224 -4.29303,-5.56335 0.27551,-0.27551 2.47397,0.0257 4.88545,0.66928 3.89368,1.03921 4.97227,0.91707 9.63453,-1.091 4.16227,-1.79272 5.25,-2.73909 5.25,-4.56768 l 0,-2.30646 -4.47021,2.49845 c -3.99275,2.23159 -4.75922,2.35759 -7.17616,1.1796 -4.18427,-2.03936 -4.13379,-3.81884 0.10835,-3.81884 l 3.62865,0 -0.67198,-3.75 c -0.36958,-2.0625 -1.36222,-4.54026 -2.20585,-5.50613 -2.00167,-2.29172 -1.13672,-3.04564 2.08771,-1.81972 3.03695,1.15465 5.08223,4.50423 4.38301,7.17808 -0.57677,2.20558 -0.60151,2.19729 2.75138,0.92252 3.37978,-1.28499 3.40771,-5.23466 0.0651,-9.20712 -4.22831,-5.02506 -2.81366,-7.28456 2.92402,-4.6703 3.80858,1.73531 4.86039,6.22822 3.00885,12.85267 -0.84548,3.025 -1.88301,12.025 -2.30562,20 -0.75993,14.3408 -1.8853,19 -4.58919,19 -0.76537,0 -2.01197,-1.2375 -2.77022,-2.75 z m 21.74156,-9.9885 c -1.54391,-0.38843 -0.9829,-0.87833 2.5,-2.18313 3.94815,-1.47909 4.45583,-2.00822 4.20275,-4.38034 -0.22163,-2.07733 0.14532,-2.69803 1.59501,-2.69803 2.02671,0 5.19284,2.93008 5.19284,4.80569 0,2.7187 -8.81836,5.63131 -13.4906,4.45581 z m -18.08091,-48.74014 c -3.37847,-1.43988 -7.06811,-5.21507 -6.07121,-6.21197 0.37309,-0.3731 2.85327,-0.12094 5.5115,0.56034 2.84333,0.72872 6.85977,0.96986 9.75572,0.58569 l 4.92258,-0.653 -0.0235,-4.39802 c -0.0233,-4.35383 -0.0587,-4.3981 -3.52354,-4.40495 -2.86877,-0.006 -10,-3.07108 -10,-4.29856 0,-0.18068 2.73349,-0.13079 6.07443,0.11087 3.34093,0.24167 6.49655,0.0172 7.0125,-0.49869 0.51594,-0.51594 0.65119,-2.37245 0.30057,-4.12557 -0.56775,-2.83873 -1.01222,-3.1875 -4.06216,-3.1875 -4.04258,0 -8.82404,-2.25126 -9.7155,-4.57436 -0.48999,-1.27689 -0.23563,-1.48328 1.12882,-0.9159 3.53444,1.46974 11.03501,1.67888 17.81664,0.49678 13.43956,-2.34262 13.37939,-2.34028 14.06734,-0.54752 0.99368,2.58948 -0.86503,3.66196 -7.36858,4.25168 l -5.97726,0.542 1.00467,3.95811 c 0.95431,3.75966 1.16288,3.92843 4.16018,3.36613 3.49865,-0.65635 7.32281,1.37714 6.15211,3.27138 -0.39149,0.63343 -2.63442,1.1517 -4.9843,1.1517 -4.24449,0 -4.27926,0.0295 -5.30225,4.5 l -1.02975,4.5 3.61127,-0.0435 c 1.9862,-0.024 5.52898,-0.41448 7.87284,-0.86784 4.79484,-0.92744 10.73843,1.23747 10.73843,3.91139 0,1.27753 -2.07642,1.45134 -14,1.17195 -11.91309,-0.27915 -14.83052,-0.0355 -19.57151,1.63473 -4.73406,1.66775 -6.01169,1.77518 -8.5,0.71468 z m 37.5954,-17.14107 c -1.71479,-2.54084 -2.90822,-4.82929 -2.65206,-5.08545 0.25616,-0.25616 2.09285,0.30636 4.08153,1.25005 3.89977,1.85056 6.02904,4.75562 5.15503,7.03325 -1.01066,2.63373 -3.44755,1.45022 -6.5845,-3.19785 z"
         id="path3000"
         inkscape:connector-curvature="0" />
      <path
         style="fill:#020202"
         d="m 630.3651,795.04077 c 0.27493,-0.9625 3.97971,-25.375 8.23284,-54.25 4.25314,-28.875 8.05379,-52.87277 8.4459,-53.32838 0.3921,-0.45561 7.96764,-2.7817 16.83454,-5.16909 L 680,677.95258 l 16.12162,4.34072 c 8.86689,2.38739 16.44244,4.71348 16.83454,5.16909 0.39211,0.45561 4.19276,24.45338 8.4459,53.32838 4.25313,28.875 7.95791,53.2875 8.23284,54.25 0.47132,1.65004 -2.36373,1.75 -49.6349,1.75 -47.27117,0 -50.10622,-0.1 -49.6349,-1.75 z m 97.63152,0.5 c -0.0198,-1.46198 -15.96566,-107.02968 -16.19111,-107.19121 -0.16803,-0.12039 -7.39301,-2.11937 -16.05551,-4.44217 L 680,679.6841 l -15.75,4.22329 c -8.6625,2.3228 -15.88748,4.32178 -16.05551,4.44217 -0.22545,0.16153 -16.17132,105.72923 -16.19111,107.19121 -0.002,0.1375 21.59662,0.25 47.99662,0.25 26.4,0 47.99848,-0.1125 47.99662,-0.25 z M 701.29031,784.65736 C 699.20564,782.38399 696.15,779.9266 694.5,779.1965 c -2.94223,-1.30188 -2.89041,-1.3282 2.69098,-1.36659 3.13004,-0.0215 5.99115,-0.52481 6.35801,-1.11841 0.36686,-0.5936 0.35761,-3.9686 -0.0206,-7.5 l -0.6876,-6.42073 -4.1704,0.0349 c -3.69789,0.0309 -13.14226,1.50926 -22.31624,3.49315 -2.45591,0.5311 -3.60731,0.21882 -5.25,-1.42387 -2.80008,-2.80008 -2.73083,-4.45114 0.14583,-3.47707 3.84792,1.30294 29.18029,-0.89628 30.24937,-2.62609 0.24011,-0.3885 -0.11152,-1.4381 -0.7814,-2.33244 -1.11968,-1.49486 -1.65129,-1.49784 -6.58771,-0.037 -3.84843,1.13887 -6.25657,1.32849 -8.5,0.6693 -3.02111,-0.88769 -2.88257,-0.98121 3.97329,-2.68214 C 697.52851,752.44332 703,749.56594 703,747.36448 c 0,-2.61794 -1.69957,-2.6006 -7.54824,0.077 -4.56457,2.08974 -6.1331,2.40488 -7.55371,1.51769 -1.47943,-0.92391 -2.32749,-0.58512 -4.85029,1.93769 -1.68156,1.68155 -3.61771,2.8708 -4.30257,2.64277 -2.78796,-0.92827 -1.6842,-3.93811 3.18254,-8.67847 5.62539,-5.4793 6.2318,-7.07039 2.69471,-7.07039 -1.30765,0 -2.88528,-0.61177 -3.50583,-1.3595 -0.9203,-1.10888 -0.13409,-1.4621 4.26504,-1.91613 2.96632,-0.30615 6.85632,-1.31319 8.64444,-2.23786 2.53025,-1.30845 3.77473,-1.44266 5.61252,-0.60531 4.84937,2.20952 2.39582,5.05752 -4.4704,5.18908 -5.07014,0.0972 -6.65211,1.01603 -6.76551,3.92972 -0.0535,1.375 -0.43917,3.2875 -0.85699,4.25 -0.60342,1.39003 -0.27486,1.74346 1.5973,1.7182 1.29634,-0.0175 3.2305,-0.6925 4.29812,-1.5 1.06762,-0.80751 4.01512,-1.4682 6.55,-1.4682 7.27814,0 9.05349,3.25644 4.41491,8.09807 -2.55293,2.66468 -2.56083,2.71802 -0.5,3.37211 1.15168,0.36553 2.09396,1.32707 2.09396,2.13676 0,1.16698 1.26456,1.41215 6.09989,1.18262 5.4902,-0.26062 6.26232,-0.0492 7.72487,2.1154 l 1.62496,2.40496 -6.82231,-0.54763 -6.82231,-0.54763 0.67184,4.48012 c 1.05055,7.00561 0.71701,19.3666 -0.56425,20.91042 -1.73157,2.08641 -2.48272,1.77578 -6.62238,-2.73861 z m -44.55167,-2.00372 c -1.90531,-2.94958 -3.31499,-5.53633 -3.13263,-5.74833 0.18237,-0.212 1.51872,0.39239 2.96968,1.3431 1.45096,0.95071 2.99937,1.34916 3.44091,0.88546 0.44154,-0.46371 1.12125,-4.77579 1.51048,-9.58242 l 0.70769,-8.73932 -5.09382,2.23932 c -4.71099,2.07102 -5.09669,2.50236 -5.13212,5.73932 -0.0476,4.34822 -2.00494,8.37557 -4.28395,8.81447 -2.16489,0.41692 -2.28463,-3.21132 -0.22488,-6.81447 1.96372,-3.43517 1.84338,-4.75624 -0.50106,-5.50034 -1.96534,-0.62377 -4.59091,-4.24102 -3.71449,-5.11745 0.24558,-0.24557 2.41954,0.0684 4.83103,0.69776 3.7751,0.98522 5.07948,0.86799 9.38452,-0.84341 4.10789,-1.63302 5.0587,-2.47919 5.329,-4.7425 l 0.32901,-2.75483 -3.44704,2.13038 c -4.0811,2.52226 -7.96229,2.73622 -10.13954,0.55896 -2.208,-2.208 -2.00637,-2.47015 1.67857,-2.18238 l 3.25,0.25381 -0.34155,-4.5 c -0.18786,-2.475 -0.80546,-5.0625 -1.37245,-5.75 -0.76448,-0.92696 -0.51403,-1.25 0.96911,-1.25 2.70165,0 4.57822,2.48119 4.57822,6.05328 0,3.18013 0.0549,3.21735 3.41667,2.31643 3.29276,-0.88242 3.14388,-6.81194 -0.25,-9.95729 -3.50169,-3.24526 -3.37013,-5.8464 0.25,-4.94292 5.20748,1.29964 6.51549,3.40762 5.91217,9.52805 -0.29832,3.02635 -0.99975,7.52745 -1.55874,10.00245 -0.55898,2.475 -1.04666,8.55 -1.08374,13.5 -0.0758,10.11714 -1.16776,16.07664 -3.3447,18.25358 -1.2962,1.2962 -1.88618,0.8312 -4.93635,-3.89071 z M 681,773.43592 c 5.34164,-1.74771 6.23116,-2.58801 5.56197,-5.25424 -0.74176,-2.95541 1.22402,-3.19454 4.494,-0.54667 4.48822,3.63434 -0.0585,7.24814 -8.87107,7.05091 L 677.5,774.58106 681,773.43592 z M 657.80128,723.7459 c -1.67468,-1.67468 -2.77797,-3.31178 -2.45175,-3.63799 0.32621,-0.32622 2.61464,-0.0271 5.0854,0.66464 2.83908,0.79489 6.52972,1.0032 10.02867,0.56603 l 5.5364,-0.69172 0,-4.42805 c 0,-4.51719 -0.31917,-4.82253 -4.67921,-4.47644 -1.19856,0.0951 -3.67356,-0.64255 -5.5,-1.63931 l -3.32079,-1.81229 6.7264,-0.29515 6.7264,-0.29515 -0.18597,-4.20485 -0.18597,-4.20485 -4.77473,-0.007 c -3.89643,-0.006 -5.28347,-0.52134 -7.54043,-2.80298 l -2.7657,-2.79599 2.8151,1.05299 c 4.14112,1.54897 13.94604,1.28293 21.70104,-0.58884 7.13241,-1.72151 9.98386,-1.41778 9.98386,1.06343 0,1.66339 -5.70228,3.56412 -10.71862,3.57281 -2.11179,0.004 -3.08619,0.43543 -2.83352,1.25558 0.2118,0.6875 0.67012,2.54274 1.01848,4.12275 0.57138,2.59155 0.94913,2.82151 3.85907,2.34929 3.48542,-0.5656 7.32425,1.41777 6.21571,3.21142 -0.36253,0.5866 -2.60881,1.06654 -4.99173,1.06654 -3.90077,0 -4.39794,0.27408 -4.98847,2.75 -0.36074,1.5125 -0.90799,3.59465 -1.2161,4.62699 -0.53053,1.77755 -0.0558,1.83918 8.96067,1.16319 8.97695,-0.67303 9.64684,-0.58785 11.72573,1.49104 3.35387,3.35387 1.22875,3.87917 -13.11299,3.24133 -10.25222,-0.45596 -13.7034,-0.24594 -17.75954,1.08075 -7.27292,2.37885 -9.85015,2.10909 -13.35741,-1.39817 z m 42.88558,-12.20513 c -0.74759,-1.2375 -2.11833,-3.4875 -3.04611,-5 -1.9196,-3.12942 -1.628,-3.31189 2.16127,-1.35238 3.82469,1.97782 6.54313,5.26056 5.85065,7.06513 -0.86083,2.24327 -3.40024,1.87879 -4.96581,-0.71275 z"
         id="path2998"
         inkscape:connector-curvature="0" />
    </g>
  </g>
</svg>
