<svg xmlns="http://www.w3.org/2000/svg" width="42.172" height="50">
    <path d="M7.692 4.311l-6.847 44.974 40.37 0.118 -6.61 -44.974 -13.338 -3.895z" fill="#FEEC99"/>
    <path d="M0 49.883c0.323 -3.031 6.933 -45.78 7.105 -45.952 0.139 -0.139 3.327 -1.08 7.084 -2.092l6.832 -1.839 6.854 1.845c3.77 1.015 6.993 2.011 7.165 2.214 0.172 0.202 1.736 10.043 3.477 21.869 1.741 11.826 3.276 22.08 3.41 22.787l0.245 1.285 -21.092 0c-11.601 0 -21.087 -0.053 -21.08 -0.117zm40.166 -2.337c-0.01 -0.578 -1.43 -10.409 -3.155 -21.846l-3.136 -20.794 -6.427 -1.716 -6.427 -1.717 -6.412 1.714 -6.412 1.714 -3.143 20.796c-1.728 11.439 -3.155 21.27 -3.17 21.85l-0.027 1.05 19.164 0 19.164 0 -0.019 -1.05zm-22.767 -10.047c-1.897 -0.945 -1.942 -1.522 -0.117 -1.522 0.771 0 1.402 -0.21 1.402 -0.467 0 -0.257 -0.31 -0.467 -0.69 -0.467 -0.38 0 -1.026 -0.512 -1.436 -1.138 -1.297 -1.98 0.519 -3.742 4.226 -4.102 0.937 -0.091 1.453 -0.428 1.566 -1.023 0.177 -0.93 -0.128 -0.934 -4.367 -0.049 -1.914 0.4 -3.52 -0.724 -2.608 -1.823 0.44 -0.53 0.8 -0.616 1.199 -0.285 0.337 0.28 1.713 0.354 3.365 0.181 1.776 -0.185 3.165 -0.094 3.808 0.25 1.048 0.561 1.37 2.105 0.545 2.614 -0.312 0.193 -0.306 0.593 0.016 1.196 0.6 1.12 0.04 2.294 -1.76 3.691 -1.16 0.9 -1.184 0.974 -0.241 0.714 2.28 -0.627 3.835 1.01 2.36 2.485 -0.802 0.802 -5.473 0.638 -7.268 -0.255zm2.895 -4.297c0.854 -0.944 0.648 -1.899 -0.412 -1.899 -0.9 0 -1.813 1.278 -1.498 2.098 0.364 0.948 0.924 0.89 1.91 -0.199zm-7.452 -10.376c5.076 -5.282 5.791 -6.464 4.908 -8.115 -0.782 -1.461 -0.452 -1.81 1.336 -1.418 3.257 0.716 3.082 2.561 -0.633 6.667 -3.162 3.494 -5.645 5.503 -8.024 6.495 -1.675 0.698 -1.514 0.456 2.413 -3.629zm12.736 -0.544c-2.506 -2.365 -4.557 -4.46 -4.557 -4.657 0 -1.263 9.249 4.5 10.263 6.395 0.675 1.26 0.386 2.622 -0.55 2.586 -0.328 -0.013 -2.649 -1.958 -5.156 -4.324zm-7.829 3.04c0 -0.25 0.559 -0.82 1.241 -1.268 1.086 -0.711 1.144 -0.867 0.467 -1.245 -0.425 -0.238 -0.773 -0.633 -0.773 -0.877 0 -0.644 3.45 -0.546 4.114 0.116 0.816 0.816 0.686 2.145 -0.258 2.64 -1.305 0.686 -4.79 1.147 -4.79 0.634z" fill="#fecfcf"/>
    <path d="M0.25 48.715c0.131 -0.707 1.69 -11.036 3.464 -22.952 1.775 -11.917 3.292 -21.731 3.372 -21.81 0.08 -0.077 3.244 -0.979 7.03 -2.002l6.883 -1.86 6.884 1.834c3.786 1.01 6.977 1.928 7.09 2.042 0.115 0.114 1.641 9.834 3.393 21.601 1.752 11.767 3.308 22.077 3.458 22.913l0.274 1.519 -21.044 0 -21.043 0 0.239 -1.285zm39.207 -7.012c-0.572 -3.792 -2.04 -13.634 -3.264 -21.872l-2.224 -14.979 -6.59 -1.722 -6.591 -1.722 -6.31 1.743c-5.234 1.446 -6.335 1.903 -6.455 2.678 -0.08 0.514 -1.563 10.347 -3.297 21.852l-3.154 20.917 19.463 0 19.463 0 -1.04 -6.895zm-21.535 -4.062c-2.169 -0.944 -2.39 -1.664 -0.512 -1.664 2.195 0 2.533 -0.549 0.702 -1.14 -1.25 -0.405 -1.558 -0.768 -1.675 -1.984 -0.167 -1.72 0.65 -2.34 3.784 -2.875 1.338 -0.229 2.012 -0.599 2.12 -1.164 0.146 -0.755 -0.147 -0.8 -3.312 -0.514 -2.901 0.263 -3.518 0.195 -3.75 -0.41 -0.345 -0.898 0.826 -2.03 1.303 -1.26 0.211 0.343 1.358 0.412 3.43 0.208 2.756 -0.272 3.211 -0.198 3.968 0.638 0.698 0.771 0.756 1.13 0.318 1.949 -0.402 0.75 -0.403 1.165 -0.005 1.645 0.676 0.814 0.035 2.1 -1.745 3.496 -1.268 0.994 -1.272 1.009 -0.166 0.769 2.3 -0.499 3.84 1.48 1.942 2.496 -1.257 0.673 -4.65 0.572 -6.402 -0.19zm1.978 -3.89c0.283 -0.19 0.763 -0.818 1.068 -1.396 0.485 -0.92 0.44 -1.052 -0.36 -1.052 -1.494 0 -2.391 0.516 -2.391 1.375 0 1.3 0.687 1.737 1.683 1.072zm-8.43 -9.313c3.334 -3.195 6.747 -7.43 6.747 -8.374 0 -0.366 -0.255 -1.074 -0.567 -1.573 -0.765 -1.225 -0.305 -1.548 1.529 -1.073 2.091 0.542 2.686 1.585 1.823 3.199 -1.455 2.717 -6.449 7.505 -9.413 9.023l-2.954 1.514 2.835 -2.716zm17.264 0.667c-0.771 -0.845 -2.753 -2.74 -4.403 -4.212 -1.65 -1.472 -2.865 -2.81 -2.7 -2.975 0.164 -0.164 1.498 0.309 2.965 1.051 3.339 1.69 7.325 5.373 7.097 6.558 -0.268 1.391 -1.458 1.221 -2.96 -0.422zm-10.985 -0.1c0 -0.122 0.683 -0.574 1.517 -1.006 1.49 -0.77 1.498 -0.791 0.467 -1.252 -1.665 -0.743 -1.221 -1.326 0.89 -1.17 4.045 0.3 3.076 3.65 -1.056 3.65 -1 0 -1.818 -0.1 -1.818 -0.222z" fill="#feafaf"/>
    <path d="M0.298 48.948c0.1 -0.578 1.652 -10.923 3.449 -22.988 1.796 -12.066 3.319 -21.99 3.383 -22.054 0.064 -0.064 3.216 -0.92 7.004 -1.901l6.887 -1.785 6.888 1.785c3.788 0.981 6.956 1.853 7.04 1.938 0.085 0.084 1.605 9.903 3.38 21.82 1.773 11.916 3.332 22.245 3.464 22.952l0.239 1.285 -20.958 0 -20.957 0 0.181 -1.052zm40.163 -1.168c-0.147 -0.707 -1.654 -10.646 -3.35 -22.086 -1.695 -11.44 -3.117 -20.83 -3.16 -20.868 -0.041 -0.037 -2.964 -0.831 -6.494 -1.765l-6.419 -1.698 -6.552 1.725c-3.774 0.993 -6.552 1.96 -6.552 2.28 0 0.676 -5.982 40.608 -6.354 42.412l-0.264 1.285 19.705 0 19.706 0 -0.266 -1.285zm-22.069 -9.973c-0.803 -0.233 -1.722 -0.74 -2.043 -1.127 -0.501 -0.603 -0.348 -0.703 1.082 -0.703 1.656 0 3.012 -0.92 1.398 -0.95 -2.148 -0.037 -3.233 -2.438 -1.766 -3.906 0.748 -0.747 3.273 -1.395 4.432 -1.136 0.407 0.09 0.739 -0.286 0.84 -0.953 0.166 -1.096 0.144 -1.101 -3.09 -0.776 -3.388 0.34 -4.202 0.01 -3.635 -1.468 0.223 -0.58 0.42 -0.616 0.955 -0.172 0.463 0.384 1.599 0.46 3.623 0.244 2.588 -0.277 3.052 -0.202 3.793 0.617 0.708 0.782 0.749 1.084 0.255 1.874 -0.433 0.693 -0.451 1.106 -0.07 1.565 0.691 0.833 -0.191 2.473 -2.008 3.729l-1.37 0.948 1.397 -0.232c1.435 -0.238 3.043 0.326 3.043 1.067 0 1.67 -3.437 2.364 -6.836 1.379zm2.342 -4.851c0.992 -1.515 0.96 -1.653 -0.38 -1.653 -1.082 0 -2.605 1.067 -2.605 1.825 0 1.379 2.046 1.26 2.985 -0.172zm-8.255 -9.482c1.805 -1.735 3.93 -4.178 4.72 -5.429 1.354 -2.142 1.395 -2.338 0.706 -3.388 -0.707 -1.08 -0.69 -1.116 0.523 -1.116 1.65 0 3.06 0.786 3.06 1.707 0 2.508 -9.332 11.381 -11.97 11.381 -0.176 0 1.156 -1.42 2.961 -3.155zm13.217 -1.312c-2.443 -2.422 -4.26 -4.406 -4.039 -4.409 1.016 -0.013 6.33 3.229 8.162 4.98 2.033 1.943 2.469 3.552 1.013 3.742 -0.383 0.05 -2.694 -1.89 -5.136 -4.313zm-6.615 2.047c1.528 -0.978 1.542 -1.016 0.57 -1.536 -1.276 -0.683 -0.768 -1.185 1.198 -1.185 1.106 0 1.696 0.288 2.088 1.02 0.465 0.869 0.39 1.146 -0.503 1.87 -0.641 0.519 -1.8 0.846 -2.984 0.841l-1.934 -0.008 1.565 -1.002z" fill="#fe8f8f"/>
    <path d="M0.455 49.105c0 -0.891 6.555 -45.102 6.701 -45.194 0.49 -0.31 13.116 -3.457 13.865 -3.457 0.807 0 13.475 3.18 13.899 3.489 0.06 0.044 1.58 9.951 3.376 22.017 1.797 12.065 3.349 22.41 3.448 22.988l0.182 1.052 -20.736 0c-20.12 0 -20.735 -0.027 -20.735 -0.895zm39.977 -1.559c-0.144 -0.835 -1.632 -10.762 -3.305 -22.059 -1.674 -11.297 -3.09 -20.586 -3.147 -20.642 -0.058 -0.056 -2.994 -0.88 -6.524 -1.83l-6.42 -1.729 -6.551 1.753c-3.603 0.964 -6.551 1.915 -6.551 2.114 0 0.4 -5.903 39.98 -6.322 42.393l-0.265 1.52 19.674 0 19.674 0 -0.263 -1.52zm-22.078 -9.826c-0.824 -0.316 -1.76 -0.837 -2.08 -1.158 -0.464 -0.467 -0.257 -0.586 1.031 -0.592 0.887 -0.003 1.928 -0.21 2.314 -0.46 0.552 -0.357 0.443 -0.455 -0.512 -0.46 -1.31 -0.008 -2.76 -1.282 -2.76 -2.426 0 -1.214 1.55 -2.184 3.74 -2.34 1.802 -0.128 2.125 -0.307 2.259 -1.252 0.155 -1.095 0.13 -1.1 -3.102 -0.776 -3.387 0.34 -4.201 0.01 -3.634 -1.468 0.225 -0.585 0.418 -0.618 0.964 -0.164 0.472 0.391 1.544 0.467 3.46 0.245 2.466 -0.286 2.888 -0.21 3.789 0.692 0.946 0.946 0.962 1.07 0.244 1.864 -0.507 0.56 -0.6 0.956 -0.272 1.158 0.957 0.591 0.486 2.037 -1.124 3.45l-1.622 1.425 1.936 0.143c2.014 0.148 2.515 0.624 1.818 1.726 -0.549 0.867 -4.57 1.112 -6.449 0.393zm2.407 -4.651c1.029 -1.469 0.918 -1.766 -0.658 -1.766 -1.415 0 -2.69 1.415 -2.114 2.347 0.5 0.808 2.022 0.49 2.772 -0.581zm-8.549 -9.235c1.703 -1.537 3.864 -3.951 4.802 -5.364 1.652 -2.489 1.681 -2.607 0.933 -3.75 -0.76 -1.159 -0.752 -1.179 0.48 -1.179 1.64 0 3.062 0.785 3.062 1.688 0 1.851 -5.773 7.973 -9.816 10.41 -2.848 1.717 -2.658 1.08 0.539 -1.805zm13.703 -1.63c-2.563 -2.433 -4.48 -4.432 -4.258 -4.44 0.74 -0.029 5.732 2.819 7.506 4.281 0.965 0.795 1.918 1.889 2.12 2.43 0.376 1.011 0.167 2.154 -0.393 2.154 -0.173 0 -2.412 -1.991 -4.975 -4.425zm-6.53 1.88c1.384 -1.19 1.389 -1.21 0.356 -1.487 -1.496 -0.402 -0.821 -1.11 1.058 -1.11 1.143 0 1.741 0.28 2.121 0.99 0.738 1.379 -0.283 2.293 -2.886 2.583l-2.05 0.228 1.401 -1.205z" fill="#fe6f6f"/>
    <path d="M0.455 49.312c0 -1.064 6.584 -44.805 6.795 -45.148 0.103 -0.166 3.244 -1.101 6.98 -2.079l6.791 -1.776 6.895 1.784c3.792 0.98 6.929 1.802 6.97 1.825 0.145 0.078 6.702 44.291 6.702 45.187 0 0.868 -0.614 0.895 -20.567 0.895 -17.8 0 -20.566 -0.093 -20.566 -0.688zm39.998 -2c-0.156 -0.964 -1.634 -10.882 -3.286 -22.04 -1.652 -11.16 -3.206 -20.414 -3.455 -20.567 -0.248 -0.153 -3.258 -0.99 -6.688 -1.86l-6.236 -1.581 -6.25 1.677c-3.439 0.923 -6.325 1.752 -6.415 1.842 -0.138 0.138 -6.733 43.258 -6.733 44.022 0 0.143 8.852 0.26 19.672 0.26l19.673 0 -0.282 -1.753zm-21.944 -9.684c-2.812 -1.002 -3.158 -1.65 -0.88 -1.65 1.064 0 2.065 -0.21 2.224 -0.468 0.159 -0.257 -0.098 -0.467 -0.57 -0.467 -1.269 0 -2.936 -1.327 -2.936 -2.337 0 -1.303 1.805 -2.338 4.077 -2.338 1.838 0 2 -0.097 2 -1.205 0 -1.199 -0.02 -1.205 -3.375 -1.052 -2.709 0.124 -3.402 0.016 -3.517 -0.547 -0.117 -0.579 0.533 -0.7 3.725 -0.695 4.144 0.006 5.036 0.283 5.036 1.564 0 0.447 -0.263 1.092 -0.584 1.433 -0.467 0.495 -0.467 0.662 0 0.834 1.13 0.414 0.565 1.95 -1.305 3.55l-1.89 1.617 2.063 -0.232c2.526 -0.285 3.317 0.543 1.739 1.82 -1.248 1.01 -3.287 1.071 -5.807 0.173zm2.252 -4.56c1.024 -1.46 0.918 -1.765 -0.617 -1.765 -1.525 0 -2.632 1.043 -2.228 2.098 0.401 1.045 2.012 0.858 2.845 -0.332zm-8.5 -9.243c4.014 -3.678 6.652 -7.581 5.976 -8.843 -0.693 -1.295 -0.627 -1.44 0.648 -1.44 1.086 0 2.604 1.067 2.604 1.832 0 0.658 -2.665 4.06 -5.04 6.435 -2.076 2.075 -6.012 4.82 -6.913 4.82 -0.185 0 1.042 -1.262 2.725 -2.804zm13.668 -1.668c-2.57 -2.409 -4.454 -4.386 -4.185 -4.394 0.637 -0.02 7.161 3.992 8.465 5.205 1.234 1.148 1.649 2.543 0.93 3.13 -0.367 0.3 -2.01 -0.943 -5.21 -3.941zm-6.576 2.017c1.302 -1.087 1.325 -1.168 0.467 -1.65 -0.839 -0.47 -0.845 -0.528 -0.083 -0.822 1.173 -0.452 3 0.11 3.353 1.033 0.446 1.161 -0.733 2.064 -3.056 2.34l-2.05 0.242 1.369 -1.143z" fill="#fe4e4e"/>
    <path d="M0.455 49.526c0 -0.714 6.544 -44.56 6.731 -45.1 0.09 -0.259 3.244 -1.286 7.01 -2.284l6.847 -1.814 6.65 1.76c3.657 0.967 6.793 1.89 6.97 2.049 0.288 0.262 6.925 43.55 6.925 45.175 0 0.595 -2.767 0.688 -20.567 0.688 -13.592 0 -20.566 -0.16 -20.566 -0.474zm40.188 -1.045c-0.023 -1.385 -6.45 -43.425 -6.672 -43.647 -0.376 -0.376 -11.909 -3.445 -12.946 -3.445 -0.946 0 -12.606 3.097 -12.948 3.44 -0.176 0.175 -6.687 42.847 -6.687 43.823 0 0.233 8.578 0.413 19.631 0.413 15.4 0 19.63 -0.126 19.622 -0.584zm-22.11 -10.821c-2.46 -0.91 -2.539 -1.107 -0.592 -1.472 1.814 -0.34 2.758 -1.145 1.342 -1.145 -1.269 0 -2.936 -1.327 -2.936 -2.337 0 -1.309 1.809 -2.338 4.108 -2.338 1.94 0 2.024 -0.057 1.883 -1.285 -0.161 -1.399 -0.285 -1.422 -4.229 -0.806 -1.841 0.289 -2.261 0.215 -2.511 -0.437 -0.406 -1.057 0.018 -1.385 1.065 -0.825 0.559 0.3 1.722 0.306 3.305 0.018 1.667 -0.303 2.741 -0.284 3.384 0.06 1.064 0.57 1.229 1.85 0.357 2.773 -0.467 0.495 -0.467 0.662 0 0.834 1.15 0.421 0.551 1.956 -1.402 3.598l-1.987 1.67 2.159 -0.284c2.353 -0.31 3.057 0.16 2.133 1.424 -0.79 1.081 -3.889 1.362 -6.08 0.552zm2.228 -4.591c1.024 -1.462 0.918 -1.766 -0.617 -1.766 -1.525 0 -2.632 1.043 -2.228 2.098 0.401 1.045 2.012 0.858 2.845 -0.332zm-7.427 -10.236c4.264 -4.46 5.698 -6.757 4.958 -7.943 -0.298 -0.478 -0.543 -0.977 -0.543 -1.109 0 -0.58 1.863 -0.162 2.854 0.641l1.088 0.88 -1.306 1.886c-1.774 2.56 -6.713 7.242 -8.714 8.26 -1.425 0.727 -1.212 0.392 1.663 -2.615zm12.362 -0.904c-2.443 -2.306 -4.02 -4.044 -3.506 -3.863 1.767 0.621 6.545 3.597 7.83 4.875 1.32 1.314 1.74 3.237 0.7 3.2 -0.321 -0.01 -2.582 -1.906 -5.024 -4.212zm-6.343 2.197c1.296 -1.037 1.321 -1.122 0.474 -1.597 -0.83 -0.464 -0.8 -0.525 0.402 -0.827 1.463 -0.367 3.239 0.826 2.827 1.9 -0.27 0.702 -2.599 1.626 -4.09 1.623 -0.889 -0.003 -0.852 -0.108 0.387 -1.099z" fill="#fe2f2f"/>
    <path d="M0.713 47.78c0.148 -0.964 1.68 -11.2 3.404 -22.747l3.135 -20.994 6.768 -1.805 6.768 -1.806 6.95 1.766c3.824 0.97 7.025 1.976 7.115 2.233 0.145 0.414 6.735 44.334 6.735 44.885 0 0.121 -9.258 0.22 -20.572 0.22l-20.572 0 0.269 -1.752zm39.94 0.614c0 -1.514 -6.14 -42.17 -6.5 -43.032 -0.306 -0.737 -1.741 -1.28 -6.76 -2.562l-6.372 -1.626 -6.371 1.626c-5.04 1.287 -6.45 1.822 -6.746 2.562 -0.342 0.855 -6.528 41.775 -6.518 43.119 0.003 0.458 4.244 0.584 19.635 0.584 16.756 0 19.632 -0.098 19.632 -0.671zm-21 -10.63c-2.244 -0.395 -3.707 -1.32 -2.086 -1.32 0.516 0 1.327 -0.283 1.803 -0.631 0.81 -0.592 0.779 -0.653 -0.493 -0.972 -2.647 -0.665 -3.213 -1.92 -1.595 -3.538 0.65 -0.65 1.558 -0.935 2.984 -0.935 1.615 0 2.097 -0.186 2.28 -0.883 0.47 -1.801 -0.263 -2.118 -3.375 -1.458 -2.024 0.43 -3.02 0.464 -3.368 0.114 -0.8 -0.799 -0.017 -1.595 1.02 -1.04 0.6 0.32 1.572 0.322 2.988 0.005 3.47 -0.778 5.727 0.821 3.898 2.76 -0.467 0.495 -0.467 0.662 0 0.833 1.15 0.422 0.55 1.957 -1.402 3.584l-1.987 1.655 2.104 -0.097c1.81 -0.084 2.103 0.03 2.103 0.818 0 1.158 -1.998 1.61 -4.874 1.105zm1.185 -4.474c0.342 -0.45 0.628 -1.081 0.636 -1.402 0.015 -0.612 -1.719 -0.787 -2.985 -0.301 -0.745 0.286 -1.006 1.631 -0.428 2.21 0.593 0.593 2.159 0.307 2.777 -0.507zm-7.21 -10.762c4.214 -4.423 5.425 -6.42 4.646 -7.666 -0.288 -0.462 -0.525 -0.949 -0.525 -1.08 0 -0.577 1.86 -0.165 2.84 0.63l1.075 0.869 -1.691 2.304c-2.16 2.943 -6.255 6.82 -8.327 7.884 -1.348 0.692 -1.026 0.214 1.982 -2.941zm12.068 -0.666l-4.44 -4.254 3.383 1.802c3.8 2.023 6.666 4.547 6.666 5.87 0 1.575 -1.093 0.909 -5.61 -3.418zm-6.374 2.396c1.426 -1.121 1.58 -1.82 0.414 -1.873 -0.51 -0.023 -0.327 -0.215 0.483 -0.511 1.5 -0.547 2.672 0.119 2.672 1.518 0 0.591 -0.543 1.007 -1.753 1.343 -2.652 0.737 -3.182 0.598 -1.816 -0.477z" fill="#fe0404"/>
</svg>
